<?xml version="1.0" encoding="UTF-8"?>
<!--Generator: Apple Native CoreSVG 149-->
<!DOCTYPE svg
PUBLIC "-//W3C//DTD SVG 1.1//EN"
       "http://www.w3.org/Graphics/SVG/1.1/DTD/svg11.dtd">
<svg version="1.1" xmlns="http://www.w3.org/2000/svg" xmlns:xlink="http://www.w3.org/1999/xlink" width="3300" height="2200">
 <!--glyph: "uni10048A.medium", point size: 100.000000, font version: "Version 16.0d12e3", template writer version: "8"-->
 <g id="Notes">
  <rect height="2200" id="artboard" style="fill:white;opacity:1" width="3300" x="0" y="0"/>
  <line id="" style="fill:none;stroke:black;opacity:1;stroke-width:0.5;" x1="263" x2="3036" y1="292" y2="292"/>
  <text style="stroke:none;fill:black;font-family:-apple-system,&quot;SF Pro Display&quot;,&quot;SF Pro Text&quot;,Helvetica,sans-serif;font-weight:bold;" transform="matrix(1 0 0 1 263 322)">Weight/Scale Variations</text>
  <text style="stroke:none;fill:black;font-family:-apple-system,&quot;SF Pro Display&quot;,&quot;SF Pro Text&quot;,Helvetica,sans-serif;text-anchor:middle;" transform="matrix(1 0 0 1 559.711 322)">Ultralight</text>
  <text style="stroke:none;fill:black;font-family:-apple-system,&quot;SF Pro Display&quot;,&quot;SF Pro Text&quot;,Helvetica,sans-serif;text-anchor:middle;" transform="matrix(1 0 0 1 856.422 322)">Thin</text>
  <text style="stroke:none;fill:black;font-family:-apple-system,&quot;SF Pro Display&quot;,&quot;SF Pro Text&quot;,Helvetica,sans-serif;text-anchor:middle;" transform="matrix(1 0 0 1 1153.13 322)">Light</text>
  <text style="stroke:none;fill:black;font-family:-apple-system,&quot;SF Pro Display&quot;,&quot;SF Pro Text&quot;,Helvetica,sans-serif;text-anchor:middle;" transform="matrix(1 0 0 1 1449.84 322)">Regular</text>
  <text style="stroke:none;fill:black;font-family:-apple-system,&quot;SF Pro Display&quot;,&quot;SF Pro Text&quot;,Helvetica,sans-serif;text-anchor:middle;" transform="matrix(1 0 0 1 1746.56 322)">Medium</text>
  <text style="stroke:none;fill:black;font-family:-apple-system,&quot;SF Pro Display&quot;,&quot;SF Pro Text&quot;,Helvetica,sans-serif;text-anchor:middle;" transform="matrix(1 0 0 1 2043.27 322)">Semibold</text>
  <text style="stroke:none;fill:black;font-family:-apple-system,&quot;SF Pro Display&quot;,&quot;SF Pro Text&quot;,Helvetica,sans-serif;text-anchor:middle;" transform="matrix(1 0 0 1 2339.98 322)">Bold</text>
  <text style="stroke:none;fill:black;font-family:-apple-system,&quot;SF Pro Display&quot;,&quot;SF Pro Text&quot;,Helvetica,sans-serif;text-anchor:middle;" transform="matrix(1 0 0 1 2636.69 322)">Heavy</text>
  <text style="stroke:none;fill:black;font-family:-apple-system,&quot;SF Pro Display&quot;,&quot;SF Pro Text&quot;,Helvetica,sans-serif;text-anchor:middle;" transform="matrix(1 0 0 1 2933.4 322)">Black</text>
  <line id="" style="fill:none;stroke:black;opacity:1;stroke-width:0.5;" x1="263" x2="3036" y1="1903" y2="1903"/>
  <g id="" transform="matrix(1 0 0 1 263 1933)">
   <path d="M9.24805 0.830078C13.5547 0.830078 17.1387-2.74414 17.1387-7.05078C17.1387-11.3574 13.5449-14.9316 9.23828-14.9316C4.94141-14.9316 1.36719-11.3574 1.36719-7.05078C1.36719-2.74414 4.95117 0.830078 9.24805 0.830078ZM9.24805-0.654297C5.70312-0.654297 2.87109-3.49609 2.87109-7.05078C2.87109-10.6055 5.69336-13.4473 9.23828-13.4473C12.793-13.4473 15.6348-10.6055 15.6445-7.05078C15.6543-3.49609 12.8027-0.654297 9.24805-0.654297ZM9.22852-3.62305C9.69727-3.62305 9.9707-3.93555 9.9707-4.45312L9.9707-6.31836L12.002-6.31836C12.5-6.31836 12.832-6.57227 12.832-7.04102C12.832-7.51953 12.5195-7.7832 12.002-7.7832L9.9707-7.7832L9.9707-9.81445C9.9707-10.332 9.69727-10.6543 9.22852-10.6543C8.75977-10.6543 8.50586-10.3125 8.50586-9.81445L8.50586-7.7832L6.49414-7.7832C5.97656-7.7832 5.64453-7.51953 5.64453-7.04102C5.64453-6.57227 5.99609-6.31836 6.49414-6.31836L8.50586-6.31836L8.50586-4.45312C8.50586-3.95508 8.75977-3.62305 9.22852-3.62305Z"/>
  </g>
  <g id="" transform="matrix(1 0 0 1 281.506 1933)">
   <path d="M11.709 2.91016C17.1582 2.91016 21.6699-1.61133 21.6699-7.05078C21.6699-12.5 17.1484-17.0117 11.6992-17.0117C6.25977-17.0117 1.74805-12.5 1.74805-7.05078C1.74805-1.61133 6.26953 2.91016 11.709 2.91016ZM11.709 1.25C7.09961 1.25 3.41797-2.44141 3.41797-7.05078C3.41797-11.6602 7.08984-15.3516 11.6992-15.3516C16.3086-15.3516 20-11.6602 20.0098-7.05078C20.0195-2.44141 16.3184 1.25 11.709 1.25ZM11.6797-2.66602C12.207-2.66602 12.5098-3.01758 12.5098-3.59375L12.5098-6.23047L15.3223-6.23047C15.8691-6.23047 16.25-6.51367 16.25-7.03125C16.25-7.55859 15.8887-7.86133 15.3223-7.86133L12.5098-7.86133L12.5098-10.6836C12.5098-11.25 12.207-11.6113 11.6797-11.6113C11.1621-11.6113 10.8789-11.2305 10.8789-10.6836L10.8789-7.86133L8.07617-7.86133C7.50977-7.86133 7.13867-7.55859 7.13867-7.03125C7.13867-6.51367 7.5293-6.23047 8.07617-6.23047L10.8789-6.23047L10.8789-3.59375C10.8789-3.03711 11.1621-2.66602 11.6797-2.66602Z"/>
  </g>
  <g id="" transform="matrix(1 0 0 1 304.924 1933)">
   <path d="M14.9707 5.66406C21.9336 5.66406 27.6953-0.0976562 27.6953-7.05078C27.6953-14.0137 21.9238-19.7754 14.9609-19.7754C8.00781-19.7754 2.25586-14.0137 2.25586-7.05078C2.25586-0.0976562 8.01758 5.66406 14.9707 5.66406ZM14.9707 3.84766C8.93555 3.84766 4.08203-1.01562 4.08203-7.05078C4.08203-13.0957 8.92578-17.9492 14.9609-17.9492C21.0059-17.9492 25.8594-13.0957 25.8691-7.05078C25.8789-1.01562 21.0156 3.84766 14.9707 3.84766ZM14.9414-1.38672C15.5176-1.38672 15.8594-1.77734 15.8594-2.38281L15.8594-6.13281L19.7754-6.13281C20.3711-6.13281 20.7812-6.46484 20.7812-7.02148C20.7812-7.59766 20.3906-7.93945 19.7754-7.93945L15.8594-7.93945L15.8594-11.8652C15.8594-12.4805 15.5176-12.8711 14.9414-12.8711C14.375-12.8711 14.0527-12.4609 14.0527-11.8652L14.0527-7.93945L10.1465-7.93945C9.53125-7.93945 9.13086-7.59766 9.13086-7.02148C9.13086-6.46484 9.55078-6.13281 10.1465-6.13281L14.0527-6.13281L14.0527-2.38281C14.0527-1.79688 14.375-1.38672 14.9414-1.38672Z"/>
  </g>
  <text style="stroke:none;fill:black;font-family:-apple-system,&quot;SF Pro Display&quot;,&quot;SF Pro Text&quot;,Helvetica,sans-serif;font-weight:bold;" transform="matrix(1 0 0 1 263 1953)">Design Variations</text>
  <text style="stroke:none;fill:black;font-family:-apple-system,&quot;SF Pro Display&quot;,&quot;SF Pro Text&quot;,Helvetica,sans-serif;" transform="matrix(1 0 0 1 263 1971)">Symbols are supported in up to nine weights and three scales.</text>
  <text style="stroke:none;fill:black;font-family:-apple-system,&quot;SF Pro Display&quot;,&quot;SF Pro Text&quot;,Helvetica,sans-serif;" transform="matrix(1 0 0 1 263 1989)">For optimal layout with text and other symbols, vertically align</text>
  <text style="stroke:none;fill:black;font-family:-apple-system,&quot;SF Pro Display&quot;,&quot;SF Pro Text&quot;,Helvetica,sans-serif;" transform="matrix(1 0 0 1 263 2007)">symbols with the adjacent text.</text>
  <line id="" style="fill:none;stroke:#00AEEF;stroke-width:0.5;opacity:1.0;" x1="776" x2="776" y1="1919" y2="1933"/>
  <g id="" transform="matrix(1 0 0 1 776 1933)">
   <path d="M3.31055 0.126953C3.82812 0.126953 4.08203-0.0683594 4.26758-0.605469L5.52734-4.0625L11.2891-4.0625L12.5488-0.605469C12.7344-0.0683594 12.9883 0.126953 13.4961 0.126953C14.0137 0.126953 14.3457-0.185547 14.3457-0.673828C14.3457-0.839844 14.3164-0.986328 14.2383-1.20117L9.6582-13.3887C9.43359-13.9941 9.0332-14.2871 8.4082-14.2871C7.80273-14.2871 7.39258-13.9941 7.17773-13.3984L2.59766-1.19141C2.51953-0.976562 2.49023-0.830078 2.49023-0.664062C2.49023-0.175781 2.80273 0.126953 3.31055 0.126953ZM6.00586-5.53711L8.37891-12.1094L8.42773-12.1094L10.8008-5.53711Z"/>
  </g>
  <line id="" style="fill:none;stroke:#00AEEF;stroke-width:0.5;opacity:1.0;" x1="792.836" x2="792.836" y1="1919" y2="1933"/>
  <text style="stroke:none;fill:black;font-family:-apple-system,&quot;SF Pro Display&quot;,&quot;SF Pro Text&quot;,Helvetica,sans-serif;font-weight:bold;" transform="matrix(1 0 0 1 776 1953)">Margins</text>
  <text style="stroke:none;fill:black;font-family:-apple-system,&quot;SF Pro Display&quot;,&quot;SF Pro Text&quot;,Helvetica,sans-serif;" transform="matrix(1 0 0 1 776 1971)">Leading and trailing margins on the left and right side of each symbol</text>
  <text style="stroke:none;fill:black;font-family:-apple-system,&quot;SF Pro Display&quot;,&quot;SF Pro Text&quot;,Helvetica,sans-serif;" transform="matrix(1 0 0 1 776 1989)">can be adjusted by modifying the x-location of the margin guidelines.</text>
  <text style="stroke:none;fill:black;font-family:-apple-system,&quot;SF Pro Display&quot;,&quot;SF Pro Text&quot;,Helvetica,sans-serif;" transform="matrix(1 0 0 1 776 2007)">Modifications are automatically applied proportionally to all</text>
  <text style="stroke:none;fill:black;font-family:-apple-system,&quot;SF Pro Display&quot;,&quot;SF Pro Text&quot;,Helvetica,sans-serif;" transform="matrix(1 0 0 1 776 2025)">scales and weights.</text>
  <g id="" transform="matrix(1 0 0 1 1289 1933)">
   <path d="M2.8418 1.86523L4.54102 3.57422C5.40039 4.44336 6.38672 4.38477 7.31445 3.35938L17.4902-7.85156C17.7539-7.76367 18.0273-7.7832 18.3398-7.8418L19.4043-8.03711L20.0684-7.36328L20.0293-6.80664C19.9902-6.30859 20.1172-5.92773 20.6055-5.44922L21.3672-4.70703C21.8457-4.22852 22.4609-4.19922 22.9297-4.66797L25.8398-7.58789C26.3086-8.05664 26.2891-8.65234 25.8105-9.13086L25.0391-9.89258C24.5605-10.3711 24.1895-10.5273 23.7109-10.4883L23.1348-10.4395L22.4902-11.0742L22.7344-12.1973C22.8613-12.7637 22.7051-13.2031 22.1191-13.7891L19.9219-15.9766C16.582-19.2969 12.1484-19.2188 9.25781-16.3281C8.83789-15.918 8.80859-15.3418 9.04297-14.9512C9.27734-14.5898 9.73633-14.3555 10.3809-14.5215C11.8457-14.8633 13.3691-14.9219 14.7949-13.9844L14.209-12.5293C14.0137-12.0508 13.9844-11.6504 14.1113-11.2891L3.04688-0.898438C2.06055 0.0195312 1.98242 0.996094 2.8418 1.86523ZM10.752-15.957C13.1836-17.7344 16.4746-17.4316 18.7012-15.2051L21.1328-12.793C21.3672-12.5586 21.4062-12.373 21.3379-12.0312L21.0156-10.5469L22.5195-9.0625L23.5059-9.12109C23.7598-9.13086 23.8379-9.11133 24.0332-8.91602L24.6094-8.33984L22.168-5.89844L21.5918-6.47461C21.3965-6.66992 21.3672-6.74805 21.377-7.01172L21.4453-7.98828L19.9512-9.47266L18.4277-9.21875C18.1055-9.15039 17.959-9.17969 17.7148-9.41406L15.7129-11.416C15.459-11.6504 15.4297-11.8164 15.5859-12.1875L16.4648-14.2773C14.9023-15.7324 12.8711-16.3574 10.8398-15.7617C10.6836-15.7227 10.625-15.8496 10.752-15.957ZM5.27344 2.30469L4.10156 1.14258C3.63281 0.683594 3.74023 0.341797 4.14062-0.0195312L14.9512-10.1953L16.416-8.71094L6.42578 2.27539C6.07422 2.67578 5.74219 2.77344 5.27344 2.30469Z"/>
  </g>
  <text style="stroke:none;fill:black;font-family:-apple-system,&quot;SF Pro Display&quot;,&quot;SF Pro Text&quot;,Helvetica,sans-serif;font-weight:bold;" transform="matrix(1 0 0 1 1289 1953)">Exporting</text>
  <text style="stroke:none;fill:black;font-family:-apple-system,&quot;SF Pro Display&quot;,&quot;SF Pro Text&quot;,Helvetica,sans-serif;" transform="matrix(1 0 0 1 1289 1971)">Symbols should be outlined when exporting to ensure the</text>
  <text style="stroke:none;fill:black;font-family:-apple-system,&quot;SF Pro Display&quot;,&quot;SF Pro Text&quot;,Helvetica,sans-serif;" transform="matrix(1 0 0 1 1289 1989)">design is preserved when submitting to Xcode.</text>
  <text id="template-version" style="stroke:none;fill:black;font-family:-apple-system,&quot;SF Pro Display&quot;,&quot;SF Pro Text&quot;,Helvetica,sans-serif;text-anchor:end;" transform="matrix(1 0 0 1 3036 1933)">Template v.2.0</text>
  <text style="stroke:none;fill:black;font-family:-apple-system,&quot;SF Pro Display&quot;,&quot;SF Pro Text&quot;,Helvetica,sans-serif;text-anchor:end;" transform="matrix(1 0 0 1 3036 1951)">Requires Xcode 12 or greater</text>
  <text style="stroke:none;fill:black;font-family:-apple-system,&quot;SF Pro Display&quot;,&quot;SF Pro Text&quot;,Helvetica,sans-serif;text-anchor:end;" transform="matrix(1 0 0 1 3036 1969)">Generated from xmark.octagon.fill</text>
  <text style="stroke:none;fill:black;font-family:-apple-system,&quot;SF Pro Display&quot;,&quot;SF Pro Text&quot;,Helvetica,sans-serif;text-anchor:end;" transform="matrix(1 0 0 1 3036 1987)">Typeset at 100 points</text>
  <text style="stroke:none;fill:black;font-family:-apple-system,&quot;SF Pro Display&quot;,&quot;SF Pro Text&quot;,Helvetica,sans-serif;" transform="matrix(1 0 0 1 263 726)">Small</text>
  <text style="stroke:none;fill:black;font-family:-apple-system,&quot;SF Pro Display&quot;,&quot;SF Pro Text&quot;,Helvetica,sans-serif;" transform="matrix(1 0 0 1 263 1156)">Medium</text>
  <text style="stroke:none;fill:black;font-family:-apple-system,&quot;SF Pro Display&quot;,&quot;SF Pro Text&quot;,Helvetica,sans-serif;" transform="matrix(1 0 0 1 263 1586)">Large</text>
 </g>
 <g id="Guides">
  <g id="H-reference" style="fill:#27AAE1;stroke:none;" transform="matrix(1 0 0 1 339 696)">
   <path d="M0.976562 0L3.66211 0L12.9883-24.4629L45.752-24.4629L55.127 0L57.7637 0L30.6152-70.459L28.125-70.459ZM29.3457-67.1387L29.4434-67.1387L44.873-26.709L13.8672-26.709Z"/>
  </g>
  <line id="Baseline-S" style="fill:none;stroke:#27AAE1;opacity:1;stroke-width:0.5;" x1="263" x2="3036" y1="696" y2="696"/>
  <line id="Capline-S" style="fill:none;stroke:#27AAE1;opacity:1;stroke-width:0.5;" x1="263" x2="3036" y1="625.541" y2="625.541"/>
  <g id="H-reference" style="fill:#27AAE1;stroke:none;" transform="matrix(1 0 0 1 339 1126)">
   <path d="M0.976562 0L3.66211 0L12.9883-24.4629L45.752-24.4629L55.127 0L57.7637 0L30.6152-70.459L28.125-70.459ZM29.3457-67.1387L29.4434-67.1387L44.873-26.709L13.8672-26.709Z"/>
  </g>
  <line id="Baseline-M" style="fill:none;stroke:#27AAE1;opacity:1;stroke-width:0.5;" x1="263" x2="3036" y1="1126" y2="1126"/>
  <line id="Capline-M" style="fill:none;stroke:#27AAE1;opacity:1;stroke-width:0.5;" x1="263" x2="3036" y1="1055.54" y2="1055.54"/>
  <g id="H-reference" style="fill:#27AAE1;stroke:none;" transform="matrix(1 0 0 1 339 1556)">
   <path d="M0.976562 0L3.66211 0L12.9883-24.4629L45.752-24.4629L55.127 0L57.7637 0L30.6152-70.459L28.125-70.459ZM29.3457-67.1387L29.4434-67.1387L44.873-26.709L13.8672-26.709Z"/>
  </g>
  <line id="Baseline-L" style="fill:none;stroke:#27AAE1;opacity:1;stroke-width:0.5;" x1="263" x2="3036" y1="1556" y2="1556"/>
  <line id="Capline-L" style="fill:none;stroke:#27AAE1;opacity:1;stroke-width:0.5;" x1="263" x2="3036" y1="1485.54" y2="1485.54"/>
  <line id="left-margin" style="fill:none;stroke:#00AEEF;stroke-width:0.5;opacity:1.0;" x1="1388.2" x2="1388.2" y1="1030.79" y2="1150.12"/>
  <line id="right-margin" style="fill:none;stroke:#00AEEF;stroke-width:0.5;opacity:1.0;" x1="1511.49" x2="1511.49" y1="1030.79" y2="1150.12"/>
 </g>
 <g id="Symbols">
  <g id="Black-L" transform="matrix(1 0 0 1 2848.68 1556)">
   <path d="M64.7461 29.1992L104.688 29.1992C113.184 29.1992 119.629 26.0742 124.609 20.2637L146.924-5.85938C152.002-11.8652 153.369-15.5762 153.369-23.4863L153.369-46.8262C153.369-54.7852 152.002-58.4961 146.924-64.502L124.609-90.5762C119.629-96.4355 113.184-99.5605 104.688-99.5605L64.7461-99.5605C56.25-99.5605 49.8047-96.4355 44.8242-90.5762L22.5098-64.502C17.4316-58.4961 16.0645-54.7852 16.0645-46.8262L16.0645-23.4863C16.0645-15.5762 17.4316-11.8652 22.5098-5.85938L44.8242 20.2637C49.8047 26.0742 56.25 29.1992 64.7461 29.1992ZM65.4785-7.37305C60.6445-7.37305 56.9336-11.1328 56.9336-16.0156C56.9336-18.1641 57.8613-20.3125 59.5215-21.9238L72.5586-35.0586L59.5215-48.1445C57.8613-49.7559 56.9336-51.9043 56.9336-54.0527C56.9336-58.9844 60.6445-62.6953 65.4785-62.6953C68.1152-62.6953 70.166-61.8652 71.8262-60.1562L84.7656-47.2656L97.8027-60.2051C99.5117-61.9141 101.514-62.7441 104.15-62.7441C108.984-62.7441 112.695-58.9844 112.695-54.1016C112.695-51.9531 111.768-49.8047 110.107-48.1934L97.0703-35.0586L110.107-21.9727C111.719-20.3125 112.646-18.1641 112.646-16.0156C112.646-11.1328 108.936-7.37305 104.102-7.37305C101.465-7.37305 99.4141-8.20312 97.7051-9.91211L84.7656-22.7539L71.875-9.91211C70.166-8.20312 68.1152-7.37305 65.4785-7.37305Z"/>
  </g>
  <g id="Heavy-L" transform="matrix(1 0 0 1 2553.36 1556)">
   <path d="M63.7207 28.3691L102.93 28.3691C111.475 28.3691 117.236 25.293 122.07 19.7266L144.482-6.10352C149.316-11.7188 150.586-15.2344 150.586-22.7539L150.586-47.5098C150.586-55.0293 149.316-58.5449 144.482-64.209L122.07-90.0391C117.236-95.6055 111.475-98.6328 102.93-98.6328L63.7207-98.6328C55.2246-98.6328 49.4141-95.6055 44.6289-90.0391L22.168-64.209C17.334-58.5449 16.0645-55.0293 16.0645-47.5098L16.0645-22.7539C16.0645-15.2344 17.334-11.7188 22.168-6.10352L44.6289 19.7266C49.4141 25.293 55.2246 28.3691 63.7207 28.3691ZM63.3789-7.56836C59.082-7.56836 55.7617-10.8887 55.7617-15.2344C55.7617-17.1387 56.5918-19.0918 58.0566-20.5078L72.5586-35.0098L58.0566-49.5605C56.5918-50.9766 55.7617-52.9297 55.7617-54.834C55.7617-59.1797 59.082-62.4512 63.3789-62.4512C65.6738-62.4512 67.4805-61.7676 68.9941-60.2051L83.3496-45.8496L97.8516-60.2539C99.4141-61.8164 101.172-62.5 103.467-62.5C107.764-62.5 111.084-59.1797 111.084-54.8828C111.084-52.9297 110.254-51.0742 108.789-49.6094L94.2871-35.0098L108.74-20.5078C110.205-19.0918 111.035-17.1875 111.035-15.2344C111.035-10.8887 107.715-7.56836 103.418-7.56836C101.123-7.56836 99.2676-8.30078 97.7539-9.81445L83.3496-24.1211L69.043-9.81445C67.5293-8.30078 65.6738-7.56836 63.3789-7.56836Z"/>
  </g>
  <g id="Bold-L" transform="matrix(1 0 0 1 2258.19 1556)">
   <path d="M62.5977 27.3926L100.977 27.3926C109.57 27.3926 114.551 24.4141 119.238 19.1406L141.748-6.34766C146.289-11.5723 147.51-14.8438 147.51-21.9238L147.51-48.291C147.51-55.3711 146.289-58.6426 141.748-63.8672L119.238-89.3555C114.551-94.6289 109.57-97.6074 100.977-97.6074L62.5977-97.6074C54.0039-97.6074 49.0234-94.6289 44.3359-89.3555L21.8262-63.8672C17.2363-58.6426 16.0645-55.3711 16.0645-48.291L16.0645-21.9238C16.0645-14.8438 17.2363-11.5723 21.8262-6.34766L44.3359 19.1406C49.0234 24.4141 54.0039 27.3926 62.5977 27.3926ZM61.0352-7.76367C57.373-7.76367 54.4922-10.6445 54.4922-14.3555C54.4922-16.0156 55.2246-17.6758 56.4453-18.8965L72.5586-35.0098L56.4453-51.123C55.2246-52.3926 54.4922-54.0039 54.4922-55.6641C54.4922-59.375 57.373-62.207 61.0352-62.207C62.9883-62.207 64.502-61.5723 65.7715-60.3027L81.8359-44.2871L97.9492-60.3027C99.3164-61.6699 100.83-62.2559 102.734-62.2559C106.396-62.2559 109.229-59.4238 109.229-55.7617C109.229-54.0527 108.594-52.4902 107.275-51.1719L91.1621-35.0098L107.227-18.9453C108.496-17.6758 109.18-16.0645 109.18-14.3555C109.18-10.6445 106.348-7.76367 102.637-7.76367C100.684-7.76367 99.1211-8.44727 97.8027-9.7168L81.8359-25.6836L65.8691-9.7168C64.5508-8.39844 62.9883-7.76367 61.0352-7.76367Z"/>
  </g>
  <g id="Semibold-L" transform="matrix(1 0 0 1 1962.55 1556)">
   <path d="M61.8164 26.7578L99.6094 26.7578C108.203 26.7578 112.744 23.7793 117.236 18.75L139.893-6.54297C144.238-11.4746 145.361-14.5996 145.361-21.3379L145.361-48.8281C145.361-55.5664 144.238-58.6914 139.893-63.623L117.236-88.916C112.744-93.9941 108.203-96.9238 99.6094-96.9238L61.8164-96.9238C53.2227-96.9238 48.6816-93.9941 44.1895-88.916L21.5332-63.623C17.1875-58.6914 16.0645-55.5664 16.0645-48.8281L16.0645-21.3379C16.0645-14.5996 17.1875-11.4746 21.5332-6.54297L44.1895 18.75C48.6816 23.7793 53.2227 26.7578 61.8164 26.7578ZM59.375-7.91016C56.1523-7.91016 53.6133-10.498 53.6133-13.7695C53.6133-15.2344 54.248-16.6992 55.3711-17.7734L72.5586-35.0098L55.3711-52.2461C54.248-53.3203 53.6133-54.7852 53.6133-56.25C53.6133-59.5215 56.1523-62.0117 59.375-62.0117C61.084-62.0117 62.4512-61.4746 63.5742-60.3027L80.7617-43.1641L98.0469-60.3516C99.2188-61.5723 100.537-62.1094 102.197-62.1094C105.42-62.1094 107.959-59.5703 107.959-56.3477C107.959-54.7852 107.422-53.4668 106.25-52.2461L89.0137-35.0098L106.201-17.8223C107.324-16.6992 107.959-15.2832 107.959-13.7695C107.959-10.498 105.371-7.91016 102.1-7.91016C100.439-7.91016 99.0234-8.54492 97.8516-9.66797L80.7617-26.7578L63.6719-9.66797C62.5488-8.49609 61.084-7.91016 59.375-7.91016Z"/>
  </g>
  <g id="Medium-L" transform="matrix(1 0 0 1 1666.65 1556)">
   <path d="M61.2305 26.2695L98.584 26.2695C107.227 26.2695 111.328 23.3398 115.771 18.457L138.477-6.68945C142.676-11.377 143.75-14.4043 143.75-20.8984L143.75-49.2188C143.75-55.7129 142.676-58.7402 138.477-63.4277L115.771-88.5742C111.328-93.457 107.227-96.3867 98.584-96.3867L61.2305-96.3867C52.5879-96.3867 48.4863-93.457 44.043-88.5742L21.3379-63.4277C17.1387-58.7402 16.0645-55.7129 16.0645-49.2188L16.0645-20.8984C16.0645-14.4043 17.1387-11.377 21.3379-6.68945L44.043 18.457C48.4863 23.3398 52.5879 26.2695 61.2305 26.2695ZM58.1543-8.00781C55.2734-8.00781 52.9785-10.3516 52.9785-13.2812C52.9785-14.6484 53.5156-15.9668 54.541-16.9434L72.5586-35.0098L54.541-53.0273C53.5156-54.0527 52.9785-55.3223 52.9785-56.7383C52.9785-59.668 55.2734-61.8652 58.1543-61.8652C59.668-61.8652 60.8887-61.4258 61.9141-60.3516L79.9316-42.334L98.0957-60.4004C99.1699-61.4746 100.342-61.9629 101.807-61.9629C104.736-61.9629 107.031-59.7168 107.031-56.7871C107.031-55.3711 106.543-54.1992 105.469-53.0762L87.4023-35.0098L105.42-16.9922C106.445-15.9668 106.982-14.6973 106.982-13.2812C106.982-10.3516 104.688-8.00781 101.709-8.00781C100.244-8.00781 98.9746-8.59375 97.9004-9.61914L79.9316-27.5879L62.0117-9.61914C60.9863-8.54492 59.668-8.00781 58.1543-8.00781Z"/>
  </g>
  <g id="Regular-L" transform="matrix(1 0 0 1 1370.99 1556)">
   <path d="M60.498 25.5859L97.2168 25.5859C105.908 25.5859 109.521 22.7051 113.818 18.0664L136.621-6.88477C140.625-11.2793 141.65-14.1602 141.65-20.3613L141.65-49.7559C141.65-55.957 140.625-58.7891 136.621-63.2324L113.818-88.1348C109.521-92.8223 105.908-95.7031 97.2168-95.7031L60.498-95.7031C51.8066-95.7031 48.1934-92.8223 43.8477-88.1348L21.0938-63.2324C17.0898-58.7891 16.0645-55.957 16.0645-49.7559L16.0645-20.3613C16.0645-14.1602 17.0898-11.2793 21.0938-6.88477L43.8477 18.0664C48.1934 22.7051 51.8066 25.5859 60.498 25.5859ZM56.543-8.1543C54.1016-8.1543 52.0996-10.2051 52.0996-12.6953C52.0996-13.8672 52.5391-14.9902 53.418-15.8691L72.5586-35.0098L53.418-54.1016C52.5391-54.9805 52.0996-56.1035 52.0996-57.3242C52.0996-59.8145 54.1016-61.7188 56.543-61.7188C57.8613-61.7188 58.8379-61.2793 59.7168-60.4004L78.9062-41.2598L98.1445-60.4492C99.1211-61.377 100.098-61.8164 101.318-61.8164C103.809-61.8164 105.762-59.8633 105.762-57.4219C105.762-56.1523 105.371-55.127 104.443-54.1504L85.2539-35.0098L104.395-15.918C105.273-14.9902 105.713-13.916 105.713-12.6953C105.713-10.2051 103.76-8.1543 101.221-8.1543C99.9512-8.1543 98.877-8.69141 97.9492-9.52148L78.9062-28.6621L59.8633-9.52148C58.9355-8.64258 57.8613-8.1543 56.543-8.1543Z"/>
  </g>
  <g id="Light-L" transform="matrix(1 0 0 1 1075.2 1556)">
   <path d="M60.5957 24.9512L95.2637 24.9512C104.932 24.9512 108.203 21.7285 112.842 16.8457L135.01-7.12891C138.818-11.2305 139.795-13.916 139.795-20.0195L139.795-50.2441C139.795-56.3477 138.818-59.0332 135.01-63.1348L112.842-87.0605C108.203-91.9922 104.932-95.2148 95.2637-95.2148L60.5957-95.2148C50.9277-95.2148 47.6562-91.9922 43.0176-87.0605L20.8496-63.1348C17.041-59.0332 16.0645-56.3477 16.0645-50.2441L16.0645-20.0195C16.0645-13.916 17.041-11.2305 20.8496-7.12891L43.0176 16.8457C47.6562 21.7285 50.9277 24.9512 60.5957 24.9512ZM55.4199-9.0332C53.4668-9.0332 51.9043-10.5957 51.9043-12.5C51.9043-13.4766 52.2461-14.3066 52.9785-15.0391L73.0469-35.0586L52.9785-55.127C52.2461-55.8105 51.9043-56.6895 51.9043-57.6172C51.9043-59.5703 53.4668-61.0352 55.4199-61.0352C56.4453-61.0352 57.2266-60.6934 57.959-59.9121L77.9785-39.9414L97.998-59.9609C98.8281-60.791 99.6094-61.084 100.586-61.084C102.49-61.084 104.053-59.5703 104.053-57.7148C104.053-56.6895 103.76-55.9082 102.979-55.127L82.9102-35.0586L102.93-15.0391C103.662-14.3066 104.004-13.4766 104.004-12.5C104.004-10.5957 102.49-9.0332 100.488-9.0332C99.5117-9.0332 98.6816-9.42383 97.9004-10.1562L77.9785-30.127L58.0566-10.1562C57.2754-9.375 56.4453-9.0332 55.4199-9.0332Z"/>
  </g>
  <g id="Thin-L" transform="matrix(1 0 0 1 779.713 1556)">
   <path d="M60.7422 24.1211L92.6758 24.1211C103.613 24.1211 106.494 20.4102 111.475 15.1855L132.91-7.42188C136.426-11.1816 137.354-13.623 137.354-19.6289L137.354-50.8789C137.354-56.8359 136.426-59.3262 132.91-63.0371L111.475-85.6445C106.494-90.8691 103.613-94.6289 92.6758-94.6289L60.7422-94.6289C49.8047-94.6289 46.875-90.8691 41.9434-85.6445L20.5078-63.0371C16.9922-59.3262 16.0645-56.8359 16.0645-50.8789L16.0645-19.6289C16.0645-13.623 16.9922-11.1816 20.5078-7.42188L41.9434 15.1855C46.875 20.4102 49.8047 24.1211 60.7422 24.1211ZM53.9062-10.2051C52.6855-10.2051 51.709-11.084 51.709-12.2559C51.709-12.8906 51.9043-13.3789 52.4414-13.916L73.6816-35.1562L52.4414-56.3965C51.9043-56.9336 51.709-57.4219 51.709-58.0566C51.709-59.2285 52.6855-60.1074 53.9062-60.1074C54.6387-60.1074 55.0293-59.9121 55.6152-59.3262L76.7578-38.2324L97.8516-59.3262C98.4863-59.9609 98.9258-60.1074 99.6094-60.1074C100.83-60.1074 101.807-59.2285 101.807-58.1055C101.807-57.4219 101.611-56.9336 101.074-56.3965L79.7852-35.1562L101.025-13.916C101.562-13.3789 101.758-12.8906 101.758-12.2559C101.758-11.084 100.83-10.2051 99.5605-10.2051C98.9258-10.2051 98.4375-10.4004 97.8027-10.9863L76.7578-32.0801L55.6641-10.9863C55.0293-10.4004 54.6387-10.2051 53.9062-10.2051Z"/>
  </g>
  <g id="Ultralight-L" transform="matrix(1 0 0 1 483.637 1556)">
   <path d="M60.791 23.7305L91.3574 23.7305C102.93 23.7305 105.615 19.7266 110.791 14.3555L131.836-7.61719C135.205-11.1328 136.084-13.4766 136.084-19.3848L136.084-51.1719C136.084-57.1289 135.205-59.4727 131.836-62.9883L110.791-84.9609C105.615-90.332 102.93-94.2871 91.3574-94.2871L60.791-94.2871C49.2188-94.2871 46.5332-90.332 41.3574-84.9609L20.3125-62.9883C16.9434-59.4727 16.0645-57.1289 16.0645-51.1719L16.0645-19.3848C16.0645-13.4766 16.9434-11.1328 20.3125-7.61719L41.3574 14.3555C46.5332 19.7266 49.2188 23.7305 60.791 23.7305ZM53.125-10.791C52.2461-10.791 51.6113-11.3281 51.6113-12.1094C51.6113-12.5977 51.709-12.9395 52.1484-13.3789L73.9746-35.2051L52.1484-57.0801C51.709-57.5195 51.6113-57.8125 51.6113-58.3008C51.6113-59.082 52.2461-59.668 53.125-59.668C53.6621-59.668 53.9062-59.5215 54.4434-58.9844L76.123-37.3535L97.7539-58.9844C98.291-59.5215 98.584-59.6191 99.0723-59.6191C99.9512-59.6191 100.635-59.082 100.635-58.3008C100.635-57.8125 100.488-57.4707 100.049-57.0801L78.2227-35.2051L100.049-13.3789C100.488-12.9395 100.635-12.5977 100.635-12.1094C100.635-11.3281 99.9512-10.791 99.1211-10.791C98.6328-10.791 98.291-10.8887 97.8027-11.4258L76.123-33.1055L54.4434-11.4258C53.9062-10.8887 53.6621-10.791 53.125-10.791Z"/>
  </g>
  <g id="Black-M" transform="matrix(1 0 0 1 2866.36 1126)">
   <path d="M51.5625 15.5273L82.4707 15.5273C89.502 15.5273 95.2148 12.8418 99.4629 7.8125L116.309-12.2559C120.508-17.2852 121.631-20.3125 121.631-27.002L121.631-43.5547C121.631-50.1953 120.508-53.2715 116.309-58.3008L99.4629-78.3203C95.2148-83.3496 89.502-86.084 82.4707-86.084L51.5625-86.084C44.5801-86.084 38.8184-83.3496 34.6191-78.3203L17.7734-58.3008C13.5742-53.2715 12.4512-50.1953 12.4512-43.5547L12.4512-27.002C12.4512-20.3125 13.5742-17.2852 17.7734-12.2559L34.6191 7.8125C38.8184 12.8418 44.5801 15.5273 51.5625 15.5273ZM52.9785-13.8184C48.7793-13.8184 45.5566-17.041 45.5566-21.3379C45.5566-23.1445 46.3867-25.0488 47.8516-26.416L56.4941-35.1562L47.8516-43.8965C46.3867-45.2637 45.5566-47.1191 45.5566-48.9746C45.5566-53.2227 48.7793-56.4453 52.9785-56.4453C55.3223-56.4453 57.0801-55.7617 58.5938-54.248L67.0898-45.752L75.5859-54.248C77.0996-55.7617 78.8574-56.4453 81.2012-56.4453C85.4004-56.4453 88.623-53.2227 88.623-48.9746C88.623-47.1191 87.793-45.2637 86.377-43.8477L77.7344-35.1562L86.377-26.416C87.793-25.0488 88.623-23.1445 88.623-21.3379C88.623-17.041 85.4004-13.8184 81.2012-13.8184C78.8574-13.8184 77.0996-14.5508 75.5859-16.0156L67.0898-24.4629L58.5938-16.0156C57.0801-14.5508 55.3223-13.8184 52.9785-13.8184Z"/>
  </g>
  <g id="Heavy-M" transform="matrix(1 0 0 1 2570.92 1126)">
   <path d="M50.4395 14.7461L81.0547 14.7461C87.8906 14.7461 92.9688 12.207 96.9238 7.56836L114.062-12.4512C118.018-17.1387 119.092-20.0195 119.092-26.2695L119.092-44.1895C119.092-50.3906 118.018-53.3203 114.062-57.959L96.9238-77.9785C92.9688-82.666 87.8906-85.2051 81.0547-85.2051L50.4395-85.2051C43.6523-85.2051 38.5742-82.666 34.5703-77.9785L17.4805-57.959C13.5254-53.3203 12.4512-50.3906 12.4512-44.1895L12.4512-26.2695C12.4512-20.0195 13.5254-17.1387 17.4805-12.4512L34.5703 7.56836C38.5742 12.207 43.6523 14.7461 50.4395 14.7461ZM50.9766-13.8184C47.2168-13.8184 44.3848-16.6992 44.3848-20.5078C44.3848-22.168 45.0684-23.8281 46.3867-25.0488L56.3965-35.1074L46.3867-45.166C45.0684-46.3867 44.3848-48.0469 44.3848-49.707C44.3848-53.5156 47.2168-56.3965 50.9766-56.3965C53.0273-56.3965 54.5898-55.7617 55.9082-54.4434L65.7715-44.5801L75.7324-54.4434C77.0996-55.7617 78.6133-56.3965 80.6641-56.3965C84.4238-56.3965 87.3047-53.5156 87.3047-49.7559C87.3047-48.0957 86.5723-46.4355 85.2539-45.166L75.293-35.1074L85.2539-25.0488C86.5723-23.8281 87.2559-22.168 87.2559-20.5078C87.2559-16.6992 84.4238-13.8184 80.6641-13.8184C78.6133-13.8184 77.0508-14.4531 75.6836-15.7715L65.7715-25.5859L55.957-15.7715C54.6387-14.4531 53.0273-13.8184 50.9766-13.8184Z"/>
  </g>
  <g id="Bold-M" transform="matrix(1 0 0 1 2275.65 1126)">
   <path d="M49.2188 13.916L79.4922 13.916C86.084 13.916 90.4297 11.5234 94.1406 7.27539L111.523-12.6953C115.234-16.9922 116.211-19.6777 116.211-25.4395L116.211-44.873C116.211-50.6348 115.234-53.3203 111.523-57.6172L94.1406-77.5879C90.4297-81.8359 86.084-84.2285 79.4922-84.2285L49.2188-84.2285C42.5781-84.2285 38.2324-81.8359 34.5703-77.5879L17.1387-57.6172C13.4277-53.3203 12.4512-50.6348 12.4512-44.873L12.4512-25.4395C12.4512-19.6777 13.4277-16.9922 17.1387-12.6953L34.5703 7.27539C38.2324 11.5234 42.5781 13.916 49.2188 13.916ZM48.7305-13.8184C45.5078-13.8184 43.0176-16.3086 43.0176-19.5801C43.0176-21.0449 43.6523-22.4609 44.7266-23.5352L56.25-35.0586L44.7266-46.582C43.6523-47.6562 43.0176-49.1211 43.0176-50.5371C43.0176-53.8086 45.5078-56.2988 48.7305-56.2988C50.4883-56.2988 51.8066-55.7617 52.9297-54.6387L64.3555-43.2129L75.8789-54.6387C77.0508-55.8105 78.3691-56.3477 80.0781-56.3477C83.3008-56.3477 85.791-53.8574 85.791-50.5859C85.791-49.1211 85.2051-47.7539 84.082-46.6309L72.6074-35.0586L84.0332-23.584C85.1562-22.4609 85.791-21.0449 85.791-19.5801C85.791-16.3086 83.252-13.8184 80.0293-13.8184C78.3203-13.8184 76.9043-14.4043 75.7812-15.4785L64.3555-26.8555L53.0273-15.4785C51.8555-14.3555 50.4883-13.8184 48.7305-13.8184Z"/>
  </g>
  <g id="Semibold-M" transform="matrix(1 0 0 1 1979.91 1126)">
   <path d="M48.3398 13.3301L78.3691 13.3301C84.8145 13.3301 88.6719 11.084 92.1875 7.08008L109.814-12.8418C113.33-16.8945 114.258-19.4336 114.258-24.8535L114.258-45.3613C114.258-50.7812 113.33-53.3203 109.814-57.373L92.1875-77.3438C88.6719-81.2988 84.8145-83.5449 78.3691-83.5449L48.3398-83.5449C41.8945-83.5449 38.0371-81.2988 34.5215-77.3438L16.8945-57.373C13.3789-53.3203 12.4512-50.7812 12.4512-45.3613L12.4512-24.8535C12.4512-19.4336 13.3789-16.8945 16.8945-12.8418L34.5215 7.08008C38.0371 11.084 41.8945 13.3301 48.3398 13.3301ZM47.168-13.7695C44.3359-13.7695 42.0898-16.0645 42.0898-18.9453C42.0898-20.2637 42.627-21.5332 43.6035-22.5098L56.1523-35.0586L43.6035-47.6074C42.627-48.5352 42.0898-49.8047 42.0898-51.123C42.0898-54.0527 44.3359-56.25 47.168-56.25C48.6816-56.25 49.9023-55.7617 50.8789-54.7363L63.3789-42.2852L75.9766-54.7852C77.002-55.8105 78.1738-56.2988 79.6387-56.2988C82.5195-56.2988 84.7656-54.0527 84.7656-51.2207C84.7656-49.8535 84.2285-48.6328 83.252-47.6074L70.7031-35.0586L83.2031-22.5586C84.1797-21.5332 84.7168-20.3125 84.7168-18.9453C84.7168-16.0645 82.4707-13.7695 79.5898-13.7695C78.0762-13.7695 76.8555-14.3066 75.8301-15.2832L63.3789-27.7344L50.9766-15.2832C49.9512-14.3066 48.6816-13.7695 47.168-13.7695Z"/>
  </g>
  <g id="Medium-M" transform="matrix(1 0 0 1 1683.96 1126)">
   <path d="M47.6562 12.8418L77.5391 12.8418C83.8867 12.8418 87.3535 10.7422 90.7227 6.98242L108.496-12.9883C111.865-16.7969 112.744-19.2383 112.744-24.4141L112.744-45.752C112.744-50.9277 111.865-53.3691 108.496-57.1777L90.7227-77.1484C87.3535-80.8594 83.8867-83.0078 77.5391-83.0078L47.6562-83.0078C41.3086-83.0078 37.8906-80.8594 34.4727-77.1484L16.748-57.1777C13.3301-53.3691 12.4512-50.9277 12.4512-45.752L12.4512-24.4141C12.4512-19.2383 13.3301-16.7969 16.748-12.9883L34.4727 6.98242C37.8906 10.7422 41.3086 12.8418 47.6562 12.8418ZM45.9961-13.7695C43.457-13.7695 41.4062-15.8691 41.4062-18.5059C41.4062-19.6777 41.8945-20.8496 42.7734-21.7285L56.0547-35.0098L42.7734-48.3398C41.8945-49.2188 41.4062-50.3906 41.4062-51.5625C41.4062-54.1992 43.457-56.2012 45.9961-56.2012C47.3633-56.2012 48.4375-55.7617 49.3164-54.834L62.6465-41.6016L76.0254-54.8828C77.002-55.8594 78.0273-56.25 79.3457-56.25C81.9336-56.25 83.9844-54.248 83.9844-51.6602C83.9844-50.3906 83.5449-49.3164 82.6172-48.3887L69.2871-35.0098L82.5684-21.7773C83.4473-20.8496 83.9355-19.7266 83.9355-18.5059C83.9355-15.8691 81.8848-13.7695 79.248-13.7695C77.9297-13.7695 76.8066-14.3066 75.8789-15.1367L62.6465-28.418L49.4141-15.1367C48.5352-14.2578 47.3633-13.7695 45.9961-13.7695Z"/>
  </g>
  <g id="Regular-M" transform="matrix(1 0 0 1 1388.2 1126)">
   <path d="M46.8262 12.2559L76.4648 12.2559C82.666 12.2559 85.5957 10.2539 88.8184 6.78711L106.787-13.1348C110.01-16.6992 110.84-19.043 110.84-23.877L110.84-46.1914C110.84-51.0742 110.01-53.3691 106.787-56.9336L88.8184-76.8555C85.5957-80.3223 82.666-82.373 76.4648-82.373L46.8262-82.373C40.625-82.373 37.6465-80.3223 34.4727-76.8555L16.5039-56.9336C13.2812-53.3691 12.4512-51.0742 12.4512-46.1914L12.4512-23.877C12.4512-19.043 13.2812-16.6992 16.5039-13.1348L34.4727 6.78711C37.6465 10.2539 40.625 12.2559 46.8262 12.2559ZM44.4824-13.7695C42.2852-13.7695 40.4785-15.625 40.4785-17.8711C40.4785-18.9453 40.8691-19.9219 41.6504-20.7031L55.957-35.0098L41.6504-49.3164C40.8691-50.0977 40.4785-51.0742 40.4785-52.1484C40.4785-54.3945 42.2852-56.1523 44.4824-56.1523C45.6055-56.1523 46.5332-55.7617 47.2656-54.9805L61.6699-40.6738L76.123-55.0293C76.9531-55.8594 77.8809-56.25 78.9551-56.25C81.1523-56.25 82.959-54.4434 82.959-52.2461C82.959-51.123 82.5684-50.2441 81.7871-49.3652L67.4316-35.0098L81.7383-20.752C82.4707-19.9219 82.9102-18.9941 82.9102-17.8711C82.9102-15.625 81.1035-13.7695 78.8574-13.7695C77.7344-13.7695 76.709-14.2578 75.9277-14.9902L61.6699-29.2969L47.4121-14.9902C46.6309-14.209 45.6055-13.7695 44.4824-13.7695Z"/>
  </g>
  <g id="Light-M" transform="matrix(1 0 0 1 1092.32 1126)">
   <path d="M46.9238 11.7188L74.707 11.7188C81.7383 11.7188 84.4238 9.375 87.8906 5.66406L105.322-13.3301C108.398-16.6504 109.18-18.7988 109.18-23.584L109.18-46.6309C109.18-51.416 108.398-53.5645 105.322-56.8848L87.8906-75.8789C84.4238-79.5898 81.7383-81.9336 74.707-81.9336L46.9238-81.9336C39.8438-81.9336 37.1582-79.5898 33.7402-75.8789L16.2598-56.8848C13.2324-53.5645 12.4512-51.416 12.4512-46.6309L12.4512-23.584C12.4512-18.7988 13.2324-16.6504 16.2598-13.3301L33.7402 5.66406C37.1582 9.375 39.8438 11.7188 46.9238 11.7188ZM43.457-14.5508C41.6992-14.5508 40.332-15.9668 40.332-17.6758C40.332-18.5547 40.625-19.3359 41.2598-19.9219L56.3965-35.0586L41.2598-50.1953C40.625-50.8301 40.332-51.6113 40.332-52.4414C40.332-54.1992 41.6992-55.5176 43.457-55.5176C44.3848-55.5176 45.0684-55.2246 45.7031-54.5898L60.8398-39.502L76.0254-54.5898C76.709-55.3223 77.4414-55.5664 78.2715-55.5664C80.0293-55.5664 81.3965-54.1992 81.3965-52.4902C81.3965-51.6113 81.1523-50.9277 80.4688-50.2441L65.332-35.0586L80.4199-19.9707C81.0547-19.3359 81.3965-18.6035 81.3965-17.6758C81.3965-15.9668 79.9805-14.5508 78.2227-14.5508C77.3438-14.5508 76.5625-14.8926 75.8789-15.5273L60.8398-30.6152L45.8008-15.5273C45.166-14.8438 44.3848-14.5508 43.457-14.5508Z"/>
  </g>
  <g id="Thin-M" transform="matrix(1 0 0 1 796.705 1126)">
   <path d="M47.0215 10.9375L72.3633 10.9375C80.5664 10.9375 82.9102 8.1543 86.6699 4.19922L103.467-13.623C106.25-16.6016 106.982-18.5547 106.982-23.2422L106.982-47.2168C106.982-51.8555 106.25-53.8574 103.467-56.7871L86.6699-74.6094C82.9102-78.6133 80.5664-81.3965 72.3633-81.3965L47.0215-81.3965C38.8672-81.3965 36.5234-78.6133 32.7148-74.6094L15.9668-56.7871C13.1836-53.8574 12.4512-51.8555 12.4512-47.2168L12.4512-23.2422C12.4512-18.5547 13.1836-16.6016 15.9668-13.623L32.7148 4.19922C36.5234 8.1543 38.8672 10.9375 47.0215 10.9375ZM42.0898-15.5762C41.0156-15.5762 40.1367-16.4062 40.1367-17.4805C40.1367-18.0664 40.332-18.5059 40.7715-18.9453L56.9824-35.1562L40.7715-51.3672C40.332-51.8066 40.1367-52.2461 40.1367-52.832C40.1367-53.9062 41.0156-54.7363 42.0898-54.7363C42.7246-54.7363 43.1152-54.541 43.6035-54.0527L59.7656-37.9395L75.8789-54.0527C76.416-54.541 76.8066-54.7363 77.3926-54.7363C78.5156-54.7363 79.3945-53.9062 79.3945-52.8809C79.3945-52.2949 79.1992-51.8555 78.7598-51.3672L62.5488-35.1562L78.7109-18.9941C79.1992-18.5059 79.3945-18.0664 79.3945-17.4805C79.3945-16.4062 78.5156-15.5762 77.3926-15.5762C76.8066-15.5762 76.3672-15.7715 75.8301-16.2598L59.7656-32.373L43.6523-16.2598C43.1641-15.7715 42.7246-15.5762 42.0898-15.5762Z"/>
  </g>
  <g id="Ultralight-M" transform="matrix(1 0 0 1 500.556 1126)">
   <path d="M47.1191 10.5957L71.1914 10.5957C79.9805 10.5957 82.1289 7.56836 86.084 3.4668L102.49-13.7695C105.176-16.5527 105.859-18.4082 105.859-23.0469L105.859-47.5098C105.859-52.0996 105.176-53.9551 102.49-56.7383L86.084-73.9746C82.1289-78.0762 79.9805-81.1035 71.1914-81.1035L47.1191-81.1035C38.3301-81.1035 36.1816-78.0762 32.2266-73.9746L15.8203-56.7383C13.1348-53.9551 12.4512-52.0996 12.4512-47.5098L12.4512-23.0469C12.4512-18.4082 13.1348-16.5527 15.8203-13.7695L32.2266 3.4668C36.1816 7.56836 38.3301 10.5957 47.1191 10.5957ZM41.4062-16.1133C40.625-16.1133 40.0391-16.6504 40.0391-17.3828C40.0391-17.7734 40.1367-18.0664 40.5273-18.457L57.2754-35.2051L40.5273-51.9531C40.1367-52.2949 40.0391-52.6367 40.0391-53.0273C40.0391-53.7598 40.625-54.2969 41.4062-54.2969C41.8945-54.2969 42.1387-54.1992 42.5781-53.7598L59.1797-37.1094L75.7812-53.7598C76.2207-54.1992 76.5137-54.2969 76.9531-54.2969C77.7344-54.2969 78.3203-53.7598 78.3203-53.0273C78.3203-52.6367 78.2227-52.2949 77.832-51.9531L61.084-35.2051L77.832-18.457C78.2227-18.0664 78.3203-17.7734 78.3203-17.3828C78.3203-16.6504 77.7344-16.1133 76.9531-16.1133C76.5137-16.1133 76.2207-16.2109 75.7812-16.6504L59.1797-33.3008L42.5781-16.6504C42.1387-16.2109 41.8945-16.1133 41.4062-16.1133Z"/>
  </g>
  <g id="Black-S" transform="matrix(1 0 0 1 2880.96 696)">
   <path d="M40.332 4.49219L64.5508 4.49219C70.0195 4.49219 74.4629 2.39258 77.7344-1.51367L90.9668-17.2363C94.2383-21.1426 95.1172-23.5352 95.1172-28.7109L95.1172-41.7969C95.1172-46.9727 94.2383-49.3652 90.9668-53.2715L77.7344-68.9941C74.4629-72.9004 70.0195-75 64.5508-75L40.332-75C34.8633-75 30.4199-72.9004 27.1484-68.9941L13.916-53.2715C10.6445-49.3652 9.76562-46.9727 9.76562-41.7969L9.76562-28.7109C9.76562-23.5352 10.6445-21.1426 13.916-17.2363L27.1484-1.51367C30.4199 2.39258 34.8633 4.49219 40.332 4.49219ZM41.3574-18.457C38.0859-18.457 35.5957-20.9473 35.5957-24.2676C35.5957-25.6836 36.2305-27.1484 37.3535-28.2227L44.2383-35.1562L37.3535-42.0898C36.2305-43.1641 35.5957-44.6289 35.5957-46.0449C35.5957-49.3652 38.0859-51.8555 41.3574-51.8555C43.1641-51.8555 44.5312-51.3184 45.7031-50.1465L52.4414-43.4082L59.2285-50.1465C60.4004-51.3184 61.7676-51.8555 63.5742-51.8555C66.8457-51.8555 69.3359-49.3652 69.3359-46.0449C69.3359-44.6289 68.7012-43.1641 67.5781-42.0898L60.7422-35.1562L67.5781-28.2227C68.7012-27.1484 69.3359-25.6836 69.3359-24.2676C69.3359-20.9473 66.8457-18.457 63.5742-18.457C61.7676-18.457 60.4004-18.9941 59.2285-20.166L52.4414-26.8555L45.7031-20.166C44.5312-18.9941 43.1641-18.457 41.3574-18.457Z"/>
  </g>
  <g id="Heavy-S" transform="matrix(1 0 0 1 2585.13 696)">
   <path d="M39.4531 3.95508L63.6719 3.95508C68.8965 3.95508 72.8516 2.00195 75.9277-1.5625L89.4043-17.3828C92.5293-21.0449 93.3594-23.3398 93.3594-28.1738L93.3594-42.2363C93.3594-47.0703 92.5293-49.3652 89.4043-53.0273L75.9277-68.8477C72.8516-72.4121 68.8965-74.3652 63.6719-74.3652L39.4531-74.3652C34.2285-74.3652 30.2734-72.4121 27.1973-68.8477L13.7207-53.0273C10.5957-49.3652 9.76562-47.0703 9.76562-42.2363L9.76562-28.1738C9.76562-23.3398 10.5957-21.0449 13.7207-17.3828L27.1973-1.5625C30.2734 2.00195 34.2285 3.95508 39.4531 3.95508ZM39.9414-18.3594C36.9629-18.3594 34.668-20.6543 34.668-23.6816C34.668-24.9512 35.2539-26.3184 36.2793-27.2949L44.0918-35.1074L36.2793-42.9688C35.2539-43.9453 34.668-45.2637 34.668-46.582C34.668-49.6094 36.9629-51.8555 39.9414-51.8555C41.5527-51.8555 42.7734-51.3672 43.8477-50.3418L51.5625-42.627L59.3262-50.3418C60.4004-51.416 61.6211-51.9043 63.2324-51.9043C66.2109-51.9043 68.5059-49.6094 68.5059-46.6309C68.5059-45.3125 67.9199-43.9941 66.8945-42.9688L59.1309-35.1074L66.8945-27.2949C67.9199-26.3184 68.457-25 68.457-23.6816C68.457-20.6543 66.2109-18.3594 63.2324-18.3594C61.6211-18.3594 60.3516-18.8477 59.2773-19.9219L51.5625-27.5879L43.8477-19.9219C42.8223-18.8477 41.5527-18.3594 39.9414-18.3594Z"/>
  </g>
  <g id="Bold-S" transform="matrix(1 0 0 1 2289.42 696)">
   <path d="M38.4766 3.36914L62.6465 3.36914C67.627 3.36914 71.0449 1.61133 73.877-1.66016L87.6465-17.5293C90.5762-20.9473 91.3574-23.0957 91.3574-27.5879L91.3574-42.7246C91.3574-47.2168 90.5762-49.3652 87.6465-52.7832L73.877-68.6523C71.0449-71.9238 67.627-73.6816 62.6465-73.6816L38.4766-73.6816C33.5449-73.6816 30.0781-71.9238 27.2461-68.6523L13.4766-52.7832C10.5469-49.3652 9.76562-47.2168 9.76562-42.7246L9.76562-27.5879C9.76562-23.0957 10.5469-20.9473 13.4766-17.5293L27.2461-1.66016C30.0781 1.61133 33.5449 3.36914 38.4766 3.36914ZM38.3301-18.2617C35.7422-18.2617 33.6914-20.3125 33.6914-22.998C33.6914-24.1699 34.1797-25.3418 35.0586-26.2207L43.9453-35.1074L35.0586-43.9453C34.1797-44.8242 33.6914-45.9961 33.6914-47.168C33.6914-49.8535 35.7422-51.9043 38.3301-51.9043C39.7461-51.9043 40.8691-51.4648 41.748-50.5371L50.5859-41.748L59.4727-50.5371C60.4004-51.5137 61.4746-51.9043 62.8418-51.9043C65.4785-51.9043 67.5293-49.9023 67.5293-47.2168C67.5293-46.0449 67.041-44.9219 66.1133-43.9941L57.2754-35.1074L66.1133-26.2207C66.9922-25.3418 67.5293-24.1699 67.5293-22.998C67.5293-20.3125 65.4785-18.2617 62.8418-18.2617C61.4258-18.2617 60.3027-18.75 59.375-19.6289L50.5859-28.418L41.7969-19.6289C40.918-18.7012 39.7461-18.2617 38.3301-18.2617Z"/>
  </g>
  <g id="Semibold-S" transform="matrix(1 0 0 1 1993.39 696)">
   <path d="M37.793 2.97852L61.9629 2.97852C66.748 2.97852 69.8242 1.31836 72.4609-1.70898L86.4746-17.627C89.2578-20.8496 89.9902-22.9004 89.9902-27.1973L89.9902-43.0176C89.9902-47.3145 89.2578-49.3652 86.4746-52.5879L72.4609-68.5059C69.8242-71.5332 66.748-73.1934 61.9629-73.1934L37.793-73.1934C33.0566-73.1934 29.9805-71.5332 27.2949-68.5059L13.3301-52.5879C10.498-49.3652 9.76562-47.3145 9.76562-43.0176L9.76562-27.1973C9.76562-22.9004 10.498-20.8496 13.3301-17.627L27.2949-1.70898C29.9805 1.31836 33.0566 2.97852 37.793 2.97852ZM37.2559-18.1641C34.8633-18.1641 32.959-20.0684 32.959-22.5098C32.959-23.6328 33.4473-24.707 34.2285-25.4883L43.7988-35.0586L34.2285-44.6289C33.4473-45.459 32.959-46.5332 32.959-47.6074C32.959-50.0488 34.8633-51.9043 37.2559-51.9043C38.5254-51.9043 39.502-51.5137 40.332-50.6836L49.9023-41.1133L59.5703-50.6836C60.4004-51.5625 61.377-51.9531 62.5977-51.9531C64.9902-51.9531 66.8945-50.0977 66.8945-47.6562C66.8945-46.5332 66.4551-45.5566 65.625-44.6777L56.0059-35.0586L65.5762-25.4883C66.4062-24.707 66.8457-23.6328 66.8457-22.5098C66.8457-20.0684 64.9414-18.1641 62.5488-18.1641C61.2793-18.1641 60.2539-18.6523 59.4238-19.4336L49.9023-28.9551L40.3809-19.4336C39.5996-18.6035 38.5254-18.1641 37.2559-18.1641Z"/>
  </g>
  <g id="Medium-S" transform="matrix(1 0 0 1 1697.19 696)">
   <path d="M37.3047 2.63672L61.4258 2.63672C66.0645 2.63672 68.8477 1.12305 71.4355-1.75781L85.5469-17.7246C88.2812-20.8008 88.9648-22.8027 88.9648-26.8555L88.9648-43.3105C88.9648-47.3633 88.2812-49.3652 85.5469-52.4414L71.4355-68.4082C68.8477-71.2891 66.0645-72.8027 61.4258-72.8027L37.3047-72.8027C32.666-72.8027 29.8828-71.2891 27.3438-68.4082L13.1836-52.4414C10.498-49.3652 9.76562-47.3633 9.76562-43.3105L9.76562-26.8555C9.76562-22.8027 10.498-20.8008 13.1836-17.7246L27.3438-1.75781C29.8828 1.12305 32.666 2.63672 37.3047 2.63672ZM36.4258-18.1152C34.2285-18.1152 32.4707-19.9219 32.4707-22.168C32.4707-23.1934 32.8613-24.1699 33.6426-24.9023L43.75-35.0586L33.6426-45.166C32.8613-45.8984 32.4707-46.875 32.4707-47.9004C32.4707-50.1953 34.2285-51.9043 36.4258-51.9043C37.5488-51.9043 38.4766-51.5137 39.209-50.7812L49.3652-40.6738L59.6191-50.8301C60.4004-51.6113 61.3281-51.9531 62.4023-51.9531C64.5996-51.9531 66.3574-50.1953 66.3574-47.998C66.3574-46.9238 66.0156-45.9961 65.1855-45.2148L55.0781-35.0586L65.1855-24.9512C65.918-24.1699 66.3574-23.2422 66.3574-22.168C66.3574-19.9219 64.5996-18.1152 62.3535-18.1152C61.1816-18.1152 60.2051-18.5547 59.4727-19.2871L49.3652-29.3945L39.3066-19.2871C38.5742-18.5059 37.5488-18.1152 36.4258-18.1152Z"/>
  </g>
  <g id="Regular-S" transform="matrix(1 0 0 1 1401.14 696)">
   <path d="M36.6211 2.24609L60.7422 2.24609C65.1855 2.24609 67.627 0.830078 70.0195-1.80664L84.3262-17.8223C86.9629-20.752 87.6465-22.6074 87.6465-26.4648L87.6465-43.6035C87.6465-47.4609 86.9629-49.3652 84.3262-52.2949L70.0195-68.3105C67.627-70.9473 65.1855-72.3633 60.7422-72.3633L36.6211-72.3633C32.2266-72.3633 29.7363-70.9473 27.3926-68.3105L13.0371-52.2949C10.4492-49.3652 9.76562-47.4609 9.76562-43.6035L9.76562-26.4648C9.76562-22.6074 10.4492-20.752 13.0371-17.8223L27.3926-1.80664C29.7363 0.830078 32.2266 2.24609 36.6211 2.24609ZM35.3516-18.0176C33.3496-18.0176 31.7871-19.6777 31.7871-21.6797C31.7871-22.6562 32.1289-23.5352 32.8125-24.2188L43.6035-35.0098L32.8125-45.8496C32.1289-46.4844 31.7871-47.4121 31.7871-48.3398C31.7871-50.3418 33.3496-51.9043 35.3516-51.9043C36.3281-51.9043 37.1582-51.5625 37.793-50.9277L48.6816-40.0391L59.7168-50.9766C60.4004-51.6602 61.2305-52.002 62.1582-52.002C64.1113-52.002 65.7227-50.3906 65.7227-48.4375C65.7227-47.4609 65.3809-46.6309 64.6973-45.8984L53.8086-35.0098L64.6484-24.2676C65.2832-23.5352 65.6738-22.7051 65.6738-21.6797C65.6738-19.6777 64.0625-18.0176 62.0605-18.0176C61.084-18.0176 60.1562-18.457 59.5215-19.0918L48.6816-29.9316L37.9395-19.0918C37.2559-18.4082 36.3281-18.0176 35.3516-18.0176Z"/>
  </g>
  <g id="Light-S" transform="matrix(1 0 0 1 1105.16 696)">
   <path d="M36.7188 1.75781L59.2285 1.75781C64.4043 1.75781 66.6016 0.0488281 69.2383-2.7832L83.1055-18.0176C85.5469-20.7031 86.1816-22.4609 86.1816-26.2207L86.1816-43.9941C86.1816-47.7539 85.5469-49.5117 83.1055-52.2461L69.2383-67.4805C66.6016-70.2637 64.4043-71.9727 59.2285-71.9727L36.7188-71.9727C31.543-71.9727 29.2969-70.2637 26.709-67.4805L12.8418-52.2461C10.4004-49.5117 9.76562-47.7539 9.76562-43.9941L9.76562-26.2207C9.76562-22.4609 10.4004-20.7031 12.8418-18.0176L26.709-2.7832C29.2969 0.0488281 31.543 1.75781 36.7188 1.75781ZM34.4238-18.75C32.8613-18.75 31.6406-19.9707 31.6406-21.5332C31.6406-22.3145 31.9336-22.998 32.4707-23.5352L43.9941-35.0586L32.4707-46.6309C31.9336-47.168 31.6406-47.8516 31.6406-48.584C31.6406-50.1465 32.8613-51.3672 34.4238-51.3672C35.2539-51.3672 35.8887-51.123 36.377-50.5371L47.9492-39.0137L59.6191-50.5859C60.2051-51.1719 60.791-51.416 61.5723-51.416C63.1348-51.416 64.3555-50.1953 64.3555-48.6816C64.3555-47.9004 64.1113-47.2656 63.5254-46.6309L51.9531-35.0586L63.4766-23.584C64.0625-22.998 64.3555-22.3633 64.3555-21.5332C64.3555-19.9707 63.0859-18.75 61.5234-18.75C60.7422-18.75 60.0098-19.043 59.4727-19.5801L47.9492-31.1035L36.4746-19.5801C35.9375-18.9941 35.2539-18.75 34.4238-18.75Z"/>
  </g>
  <g id="Thin-S" transform="matrix(1 0 0 1 809.425 696)">
   <path d="M36.8164 1.12305L57.1777 1.12305C63.3789 1.12305 65.2832-0.976562 68.1641-4.05273L81.4453-18.2617C83.6426-20.6543 84.2285-22.2168 84.2285-25.8789L84.2285-44.4824C84.2285-48.1934 83.6426-49.7559 81.4453-52.1484L68.1641-66.3574C65.2832-69.3848 63.3789-71.4844 57.1777-71.4844L36.8164-71.4844C30.6641-71.4844 28.7598-69.3848 25.8301-66.3574L12.5977-52.1484C10.3516-49.7559 9.76562-48.1934 9.76562-44.4824L9.76562-25.8789C9.76562-22.2168 10.3516-20.6543 12.5977-18.2617L25.8301-4.05273C28.7598-0.976562 30.6641 1.12305 36.8164 1.12305ZM33.252-19.6289C32.2266-19.6289 31.4453-20.4102 31.4453-21.3867C31.4453-21.875 31.6406-22.2656 32.0312-22.6562L44.4824-35.1562L32.0312-47.6562C31.6406-48.0469 31.4453-48.4375 31.4453-48.9258C31.4453-49.9023 32.2266-50.6348 33.252-50.6348C33.7891-50.6348 34.1309-50.4883 34.5703-50.0488L47.0215-37.6465L59.4727-50.0977C59.9121-50.5371 60.3027-50.6836 60.791-50.6836C61.7676-50.6836 62.5488-49.9512 62.5488-48.9746C62.5488-48.4375 62.4023-48.0469 62.0117-47.6562L49.5117-35.1562L62.0117-22.7051C62.4023-22.2656 62.5488-21.875 62.5488-21.3867C62.5488-20.4102 61.7676-19.6289 60.791-19.6289C60.2539-19.6289 59.8633-19.8242 59.4238-20.2148L47.0215-32.666L34.6191-20.2148C34.1797-19.8242 33.7891-19.6289 33.252-19.6289Z"/>
  </g>
  <g id="Ultralight-S" transform="matrix(1 0 0 1 513.202 696)">
   <path d="M36.9141 0.78125L56.1035 0.78125C62.8418 0.78125 64.5508-1.51367 67.627-4.73633L80.5664-18.3594C82.7148-20.6055 83.252-22.1191 83.252-25.7324L83.252-44.7754C83.252-48.3887 82.7148-49.8535 80.5664-52.0996L67.627-65.7715C64.5508-68.9453 62.8418-71.2402 56.1035-71.2402L36.9141-71.2402C30.1758-71.2402 28.418-68.9453 25.3906-65.7715L12.4512-52.0996C10.3027-49.8535 9.76562-48.3887 9.76562-44.7754L9.76562-25.7324C9.76562-22.1191 10.3027-20.6055 12.4512-18.3594L25.3906-4.73633C28.418-1.51367 30.1758 0.78125 36.9141 0.78125ZM32.6172-20.1172C31.9336-20.1172 31.3477-20.6055 31.3477-21.2402C31.3477-21.6309 31.4941-21.9238 31.7871-22.2168L44.7754-35.2051L31.7871-48.1934C31.4941-48.4863 31.3477-48.7793 31.3477-49.1211C31.3477-49.8047 31.9336-50.293 32.6172-50.293C33.0566-50.293 33.252-50.1465 33.5938-49.8047L46.4844-36.9141L59.375-49.8047C59.7656-50.1953 60.0098-50.293 60.4004-50.293C61.084-50.293 61.6211-49.8047 61.6211-49.1211C61.6211-48.7793 61.5234-48.4863 61.2305-48.1934L48.2422-35.2051L61.2305-22.2168C61.5234-21.9238 61.6211-21.6309 61.6211-21.2402C61.6211-20.6055 61.084-20.1172 60.4004-20.1172C60.0098-20.1172 59.7168-20.2148 59.375-20.5566L46.4844-33.4473L33.6426-20.5566C33.252-20.2148 33.0566-20.1172 32.6172-20.1172Z"/>
  </g>
 </g>
</svg>
