<?xml version="1.0" encoding="UTF-8"?>
<!--Generator: Apple Native CoreSVG 149-->
<!DOCTYPE svg
PUBLIC "-//W3C//DTD SVG 1.1//EN"
       "http://www.w3.org/Graphics/SVG/1.1/DTD/svg11.dtd">
<svg version="1.1" xmlns="http://www.w3.org/2000/svg" xmlns:xlink="http://www.w3.org/1999/xlink" width="3300" height="2200">
 <!--glyph: "uni100454.medium", point size: 100.000000, font version: "Version 16.0d12e3", template writer version: "8"-->
 <g id="Notes">
  <rect height="2200" id="artboard" style="fill:white;opacity:1" width="3300" x="0" y="0"/>
  <line id="" style="fill:none;stroke:black;opacity:1;stroke-width:0.5;" x1="263" x2="3036" y1="292" y2="292"/>
  <text style="stroke:none;fill:black;font-family:-apple-system,&quot;SF Pro Display&quot;,&quot;SF Pro Text&quot;,Helvetica,sans-serif;font-weight:bold;" transform="matrix(1 0 0 1 263 322)">Weight/Scale Variations</text>
  <text style="stroke:none;fill:black;font-family:-apple-system,&quot;SF Pro Display&quot;,&quot;SF Pro Text&quot;,Helvetica,sans-serif;text-anchor:middle;" transform="matrix(1 0 0 1 559.711 322)">Ultralight</text>
  <text style="stroke:none;fill:black;font-family:-apple-system,&quot;SF Pro Display&quot;,&quot;SF Pro Text&quot;,Helvetica,sans-serif;text-anchor:middle;" transform="matrix(1 0 0 1 856.422 322)">Thin</text>
  <text style="stroke:none;fill:black;font-family:-apple-system,&quot;SF Pro Display&quot;,&quot;SF Pro Text&quot;,Helvetica,sans-serif;text-anchor:middle;" transform="matrix(1 0 0 1 1153.13 322)">Light</text>
  <text style="stroke:none;fill:black;font-family:-apple-system,&quot;SF Pro Display&quot;,&quot;SF Pro Text&quot;,Helvetica,sans-serif;text-anchor:middle;" transform="matrix(1 0 0 1 1449.84 322)">Regular</text>
  <text style="stroke:none;fill:black;font-family:-apple-system,&quot;SF Pro Display&quot;,&quot;SF Pro Text&quot;,Helvetica,sans-serif;text-anchor:middle;" transform="matrix(1 0 0 1 1746.56 322)">Medium</text>
  <text style="stroke:none;fill:black;font-family:-apple-system,&quot;SF Pro Display&quot;,&quot;SF Pro Text&quot;,Helvetica,sans-serif;text-anchor:middle;" transform="matrix(1 0 0 1 2043.27 322)">Semibold</text>
  <text style="stroke:none;fill:black;font-family:-apple-system,&quot;SF Pro Display&quot;,&quot;SF Pro Text&quot;,Helvetica,sans-serif;text-anchor:middle;" transform="matrix(1 0 0 1 2339.98 322)">Bold</text>
  <text style="stroke:none;fill:black;font-family:-apple-system,&quot;SF Pro Display&quot;,&quot;SF Pro Text&quot;,Helvetica,sans-serif;text-anchor:middle;" transform="matrix(1 0 0 1 2636.69 322)">Heavy</text>
  <text style="stroke:none;fill:black;font-family:-apple-system,&quot;SF Pro Display&quot;,&quot;SF Pro Text&quot;,Helvetica,sans-serif;text-anchor:middle;" transform="matrix(1 0 0 1 2933.4 322)">Black</text>
  <line id="" style="fill:none;stroke:black;opacity:1;stroke-width:0.5;" x1="263" x2="3036" y1="1903" y2="1903"/>
  <g id="" transform="matrix(1 0 0 1 263 1933)">
   <path d="M9.24805 0.830078C13.5547 0.830078 17.1387-2.74414 17.1387-7.05078C17.1387-11.3574 13.5449-14.9316 9.23828-14.9316C4.94141-14.9316 1.36719-11.3574 1.36719-7.05078C1.36719-2.74414 4.95117 0.830078 9.24805 0.830078ZM9.24805-0.654297C5.70312-0.654297 2.87109-3.49609 2.87109-7.05078C2.87109-10.6055 5.69336-13.4473 9.23828-13.4473C12.793-13.4473 15.6348-10.6055 15.6445-7.05078C15.6543-3.49609 12.8027-0.654297 9.24805-0.654297ZM9.22852-3.62305C9.69727-3.62305 9.9707-3.93555 9.9707-4.45312L9.9707-6.31836L12.002-6.31836C12.5-6.31836 12.832-6.57227 12.832-7.04102C12.832-7.51953 12.5195-7.7832 12.002-7.7832L9.9707-7.7832L9.9707-9.81445C9.9707-10.332 9.69727-10.6543 9.22852-10.6543C8.75977-10.6543 8.50586-10.3125 8.50586-9.81445L8.50586-7.7832L6.49414-7.7832C5.97656-7.7832 5.64453-7.51953 5.64453-7.04102C5.64453-6.57227 5.99609-6.31836 6.49414-6.31836L8.50586-6.31836L8.50586-4.45312C8.50586-3.95508 8.75977-3.62305 9.22852-3.62305Z"/>
  </g>
  <g id="" transform="matrix(1 0 0 1 281.506 1933)">
   <path d="M11.709 2.91016C17.1582 2.91016 21.6699-1.61133 21.6699-7.05078C21.6699-12.5 17.1484-17.0117 11.6992-17.0117C6.25977-17.0117 1.74805-12.5 1.74805-7.05078C1.74805-1.61133 6.26953 2.91016 11.709 2.91016ZM11.709 1.25C7.09961 1.25 3.41797-2.44141 3.41797-7.05078C3.41797-11.6602 7.08984-15.3516 11.6992-15.3516C16.3086-15.3516 20-11.6602 20.0098-7.05078C20.0195-2.44141 16.3184 1.25 11.709 1.25ZM11.6797-2.66602C12.207-2.66602 12.5098-3.01758 12.5098-3.59375L12.5098-6.23047L15.3223-6.23047C15.8691-6.23047 16.25-6.51367 16.25-7.03125C16.25-7.55859 15.8887-7.86133 15.3223-7.86133L12.5098-7.86133L12.5098-10.6836C12.5098-11.25 12.207-11.6113 11.6797-11.6113C11.1621-11.6113 10.8789-11.2305 10.8789-10.6836L10.8789-7.86133L8.07617-7.86133C7.50977-7.86133 7.13867-7.55859 7.13867-7.03125C7.13867-6.51367 7.5293-6.23047 8.07617-6.23047L10.8789-6.23047L10.8789-3.59375C10.8789-3.03711 11.1621-2.66602 11.6797-2.66602Z"/>
  </g>
  <g id="" transform="matrix(1 0 0 1 304.924 1933)">
   <path d="M14.9707 5.66406C21.9336 5.66406 27.6953-0.0976562 27.6953-7.05078C27.6953-14.0137 21.9238-19.7754 14.9609-19.7754C8.00781-19.7754 2.25586-14.0137 2.25586-7.05078C2.25586-0.0976562 8.01758 5.66406 14.9707 5.66406ZM14.9707 3.84766C8.93555 3.84766 4.08203-1.01562 4.08203-7.05078C4.08203-13.0957 8.92578-17.9492 14.9609-17.9492C21.0059-17.9492 25.8594-13.0957 25.8691-7.05078C25.8789-1.01562 21.0156 3.84766 14.9707 3.84766ZM14.9414-1.38672C15.5176-1.38672 15.8594-1.77734 15.8594-2.38281L15.8594-6.13281L19.7754-6.13281C20.3711-6.13281 20.7812-6.46484 20.7812-7.02148C20.7812-7.59766 20.3906-7.93945 19.7754-7.93945L15.8594-7.93945L15.8594-11.8652C15.8594-12.4805 15.5176-12.8711 14.9414-12.8711C14.375-12.8711 14.0527-12.4609 14.0527-11.8652L14.0527-7.93945L10.1465-7.93945C9.53125-7.93945 9.13086-7.59766 9.13086-7.02148C9.13086-6.46484 9.55078-6.13281 10.1465-6.13281L14.0527-6.13281L14.0527-2.38281C14.0527-1.79688 14.375-1.38672 14.9414-1.38672Z"/>
  </g>
  <text style="stroke:none;fill:black;font-family:-apple-system,&quot;SF Pro Display&quot;,&quot;SF Pro Text&quot;,Helvetica,sans-serif;font-weight:bold;" transform="matrix(1 0 0 1 263 1953)">Design Variations</text>
  <text style="stroke:none;fill:black;font-family:-apple-system,&quot;SF Pro Display&quot;,&quot;SF Pro Text&quot;,Helvetica,sans-serif;" transform="matrix(1 0 0 1 263 1971)">Symbols are supported in up to nine weights and three scales.</text>
  <text style="stroke:none;fill:black;font-family:-apple-system,&quot;SF Pro Display&quot;,&quot;SF Pro Text&quot;,Helvetica,sans-serif;" transform="matrix(1 0 0 1 263 1989)">For optimal layout with text and other symbols, vertically align</text>
  <text style="stroke:none;fill:black;font-family:-apple-system,&quot;SF Pro Display&quot;,&quot;SF Pro Text&quot;,Helvetica,sans-serif;" transform="matrix(1 0 0 1 263 2007)">symbols with the adjacent text.</text>
  <line id="" style="fill:none;stroke:#00AEEF;stroke-width:0.5;opacity:1.0;" x1="776" x2="776" y1="1919" y2="1933"/>
  <g id="" transform="matrix(1 0 0 1 776 1933)">
   <path d="M3.31055 0.126953C3.82812 0.126953 4.08203-0.0683594 4.26758-0.605469L5.52734-4.0625L11.2891-4.0625L12.5488-0.605469C12.7344-0.0683594 12.9883 0.126953 13.4961 0.126953C14.0137 0.126953 14.3457-0.185547 14.3457-0.673828C14.3457-0.839844 14.3164-0.986328 14.2383-1.20117L9.6582-13.3887C9.43359-13.9941 9.0332-14.2871 8.4082-14.2871C7.80273-14.2871 7.39258-13.9941 7.17773-13.3984L2.59766-1.19141C2.51953-0.976562 2.49023-0.830078 2.49023-0.664062C2.49023-0.175781 2.80273 0.126953 3.31055 0.126953ZM6.00586-5.53711L8.37891-12.1094L8.42773-12.1094L10.8008-5.53711Z"/>
  </g>
  <line id="" style="fill:none;stroke:#00AEEF;stroke-width:0.5;opacity:1.0;" x1="792.836" x2="792.836" y1="1919" y2="1933"/>
  <text style="stroke:none;fill:black;font-family:-apple-system,&quot;SF Pro Display&quot;,&quot;SF Pro Text&quot;,Helvetica,sans-serif;font-weight:bold;" transform="matrix(1 0 0 1 776 1953)">Margins</text>
  <text style="stroke:none;fill:black;font-family:-apple-system,&quot;SF Pro Display&quot;,&quot;SF Pro Text&quot;,Helvetica,sans-serif;" transform="matrix(1 0 0 1 776 1971)">Leading and trailing margins on the left and right side of each symbol</text>
  <text style="stroke:none;fill:black;font-family:-apple-system,&quot;SF Pro Display&quot;,&quot;SF Pro Text&quot;,Helvetica,sans-serif;" transform="matrix(1 0 0 1 776 1989)">can be adjusted by modifying the x-location of the margin guidelines.</text>
  <text style="stroke:none;fill:black;font-family:-apple-system,&quot;SF Pro Display&quot;,&quot;SF Pro Text&quot;,Helvetica,sans-serif;" transform="matrix(1 0 0 1 776 2007)">Modifications are automatically applied proportionally to all</text>
  <text style="stroke:none;fill:black;font-family:-apple-system,&quot;SF Pro Display&quot;,&quot;SF Pro Text&quot;,Helvetica,sans-serif;" transform="matrix(1 0 0 1 776 2025)">scales and weights.</text>
  <g id="" transform="matrix(1 0 0 1 1289 1933)">
   <path d="M2.8418 1.86523L4.54102 3.57422C5.40039 4.44336 6.38672 4.38477 7.31445 3.35938L17.4902-7.85156C17.7539-7.76367 18.0273-7.7832 18.3398-7.8418L19.4043-8.03711L20.0684-7.36328L20.0293-6.80664C19.9902-6.30859 20.1172-5.92773 20.6055-5.44922L21.3672-4.70703C21.8457-4.22852 22.4609-4.19922 22.9297-4.66797L25.8398-7.58789C26.3086-8.05664 26.2891-8.65234 25.8105-9.13086L25.0391-9.89258C24.5605-10.3711 24.1895-10.5273 23.7109-10.4883L23.1348-10.4395L22.4902-11.0742L22.7344-12.1973C22.8613-12.7637 22.7051-13.2031 22.1191-13.7891L19.9219-15.9766C16.582-19.2969 12.1484-19.2188 9.25781-16.3281C8.83789-15.918 8.80859-15.3418 9.04297-14.9512C9.27734-14.5898 9.73633-14.3555 10.3809-14.5215C11.8457-14.8633 13.3691-14.9219 14.7949-13.9844L14.209-12.5293C14.0137-12.0508 13.9844-11.6504 14.1113-11.2891L3.04688-0.898438C2.06055 0.0195312 1.98242 0.996094 2.8418 1.86523ZM10.752-15.957C13.1836-17.7344 16.4746-17.4316 18.7012-15.2051L21.1328-12.793C21.3672-12.5586 21.4062-12.373 21.3379-12.0312L21.0156-10.5469L22.5195-9.0625L23.5059-9.12109C23.7598-9.13086 23.8379-9.11133 24.0332-8.91602L24.6094-8.33984L22.168-5.89844L21.5918-6.47461C21.3965-6.66992 21.3672-6.74805 21.377-7.01172L21.4453-7.98828L19.9512-9.47266L18.4277-9.21875C18.1055-9.15039 17.959-9.17969 17.7148-9.41406L15.7129-11.416C15.459-11.6504 15.4297-11.8164 15.5859-12.1875L16.4648-14.2773C14.9023-15.7324 12.8711-16.3574 10.8398-15.7617C10.6836-15.7227 10.625-15.8496 10.752-15.957ZM5.27344 2.30469L4.10156 1.14258C3.63281 0.683594 3.74023 0.341797 4.14062-0.0195312L14.9512-10.1953L16.416-8.71094L6.42578 2.27539C6.07422 2.67578 5.74219 2.77344 5.27344 2.30469Z"/>
  </g>
  <text style="stroke:none;fill:black;font-family:-apple-system,&quot;SF Pro Display&quot;,&quot;SF Pro Text&quot;,Helvetica,sans-serif;font-weight:bold;" transform="matrix(1 0 0 1 1289 1953)">Exporting</text>
  <text style="stroke:none;fill:black;font-family:-apple-system,&quot;SF Pro Display&quot;,&quot;SF Pro Text&quot;,Helvetica,sans-serif;" transform="matrix(1 0 0 1 1289 1971)">Symbols should be outlined when exporting to ensure the</text>
  <text style="stroke:none;fill:black;font-family:-apple-system,&quot;SF Pro Display&quot;,&quot;SF Pro Text&quot;,Helvetica,sans-serif;" transform="matrix(1 0 0 1 1289 1989)">design is preserved when submitting to Xcode.</text>
  <text id="template-version" style="stroke:none;fill:black;font-family:-apple-system,&quot;SF Pro Display&quot;,&quot;SF Pro Text&quot;,Helvetica,sans-serif;text-anchor:end;" transform="matrix(1 0 0 1 3036 1933)">Template v.2.0</text>
  <text style="stroke:none;fill:black;font-family:-apple-system,&quot;SF Pro Display&quot;,&quot;SF Pro Text&quot;,Helvetica,sans-serif;text-anchor:end;" transform="matrix(1 0 0 1 3036 1951)">Requires Xcode 12 or greater</text>
  <text style="stroke:none;fill:black;font-family:-apple-system,&quot;SF Pro Display&quot;,&quot;SF Pro Text&quot;,Helvetica,sans-serif;text-anchor:end;" transform="matrix(1 0 0 1 3036 1969)">Generated from studentdesk</text>
  <text style="stroke:none;fill:black;font-family:-apple-system,&quot;SF Pro Display&quot;,&quot;SF Pro Text&quot;,Helvetica,sans-serif;text-anchor:end;" transform="matrix(1 0 0 1 3036 1987)">Typeset at 100 points</text>
  <text style="stroke:none;fill:black;font-family:-apple-system,&quot;SF Pro Display&quot;,&quot;SF Pro Text&quot;,Helvetica,sans-serif;" transform="matrix(1 0 0 1 263 726)">Small</text>
  <text style="stroke:none;fill:black;font-family:-apple-system,&quot;SF Pro Display&quot;,&quot;SF Pro Text&quot;,Helvetica,sans-serif;" transform="matrix(1 0 0 1 263 1156)">Medium</text>
  <text style="stroke:none;fill:black;font-family:-apple-system,&quot;SF Pro Display&quot;,&quot;SF Pro Text&quot;,Helvetica,sans-serif;" transform="matrix(1 0 0 1 263 1586)">Large</text>
 </g>
 <g id="Guides">
  <g id="H-reference" style="fill:#27AAE1;stroke:none;" transform="matrix(1 0 0 1 339 696)">
   <path d="M0.976562 0L3.66211 0L12.9883-24.4629L45.752-24.4629L55.127 0L57.7637 0L30.6152-70.459L28.125-70.459ZM29.3457-67.1387L29.4434-67.1387L44.873-26.709L13.8672-26.709Z"/>
  </g>
  <line id="Baseline-S" style="fill:none;stroke:#27AAE1;opacity:1;stroke-width:0.5;" x1="263" x2="3036" y1="696" y2="696"/>
  <line id="Capline-S" style="fill:none;stroke:#27AAE1;opacity:1;stroke-width:0.5;" x1="263" x2="3036" y1="625.541" y2="625.541"/>
  <g id="H-reference" style="fill:#27AAE1;stroke:none;" transform="matrix(1 0 0 1 339 1126)">
   <path d="M0.976562 0L3.66211 0L12.9883-24.4629L45.752-24.4629L55.127 0L57.7637 0L30.6152-70.459L28.125-70.459ZM29.3457-67.1387L29.4434-67.1387L44.873-26.709L13.8672-26.709Z"/>
  </g>
  <line id="Baseline-M" style="fill:none;stroke:#27AAE1;opacity:1;stroke-width:0.5;" x1="263" x2="3036" y1="1126" y2="1126"/>
  <line id="Capline-M" style="fill:none;stroke:#27AAE1;opacity:1;stroke-width:0.5;" x1="263" x2="3036" y1="1055.54" y2="1055.54"/>
  <g id="H-reference" style="fill:#27AAE1;stroke:none;" transform="matrix(1 0 0 1 339 1556)">
   <path d="M0.976562 0L3.66211 0L12.9883-24.4629L45.752-24.4629L55.127 0L57.7637 0L30.6152-70.459L28.125-70.459ZM29.3457-67.1387L29.4434-67.1387L44.873-26.709L13.8672-26.709Z"/>
  </g>
  <line id="Baseline-L" style="fill:none;stroke:#27AAE1;opacity:1;stroke-width:0.5;" x1="263" x2="3036" y1="1556" y2="1556"/>
  <line id="Capline-L" style="fill:none;stroke:#27AAE1;opacity:1;stroke-width:0.5;" x1="263" x2="3036" y1="1485.54" y2="1485.54"/>
  <line id="left-margin" style="fill:none;stroke:#00AEEF;stroke-width:0.5;opacity:1.0;" x1="1390.45" x2="1390.45" y1="1030.79" y2="1150.12"/>
  <line id="right-margin" style="fill:none;stroke:#00AEEF;stroke-width:0.5;opacity:1.0;" x1="1509.24" x2="1509.24" y1="1030.79" y2="1150.12"/>
 </g>
 <g id="Symbols">
  <g id="Black-L" transform="matrix(1 0 0 1 2849.78 1556)">
   <path d="M59.4727-74.8047L109.424-74.8047C118.115-74.8047 122.168-78.8086 122.168-87.3047L122.168-107.129C122.168-115.527 118.115-119.531 109.424-119.531L59.4727-119.531C50.8301-119.531 46.6797-115.527 46.6797-107.129L46.6797-87.3047C46.6797-78.8086 50.8301-74.8047 59.4727-74.8047ZM45.6055 44.3848C50.5371 44.3848 53.125 42.2363 54.4434 37.4023L59.2773 18.9941L107.764 18.9941L112.646 37.4023C113.916 42.2363 116.602 44.3848 121.436 44.3848C126.758 44.3848 130.029 40.7227 130.029 35.7422C130.029 34.668 129.883 33.5938 129.59 32.4707L120.166-3.66211L125.146-3.66211C130.615-3.66211 134.863-8.10547 134.863-13.2812C134.863-18.7012 130.811-22.998 125.244-22.998L52.2949-22.998C44.9707-22.998 41.3086-26.5137 41.3086-33.5938L41.3086-46.875L45.8984-46.875L45.8984-43.0176C45.8984-35.3516 50.293-31.0059 58.2031-31.0059L110.01-31.0059C117.92-31.0059 122.363-35.3516 122.363-43.0176L122.363-46.875L142.041-46.875C147.266-46.875 151.172-51.123 151.172-56.0547C151.172-61.1816 147.363-65.2832 142.139-65.2832L25-65.2832C19.873-65.2832 16.0645-61.1816 16.0645-56.0547C16.0645-51.123 19.9707-46.875 25.0977-46.875L27.6367-46.875L27.6367-19.4824C27.6367-9.61914 33.6914-3.66211 43.7012-3.66211L46.875-3.66211L37.4512 32.4707C37.1582 33.5449 37.0117 34.5703 37.0117 35.6445C37.0117 40.625 40.1367 44.3848 45.6055 44.3848ZM63.5254 3.22266L65.332-3.66211L101.758-3.66211L103.516 3.22266Z"/>
  </g>
  <g id="Heavy-L" transform="matrix(1 0 0 1 2554.85 1556)">
   <path d="M58.4961-72.9004L106.641-72.9004C114.99-72.9004 118.945-76.7578 118.945-84.9121L118.945-104.248C118.945-112.354 114.99-116.211 106.641-116.211L58.4961-116.211C50.1465-116.211 46.1426-112.354 46.1426-104.248L46.1426-84.9121C46.1426-76.7578 50.1465-72.9004 58.4961-72.9004ZM43.5547 41.4062C47.9004 41.4062 50.1465 39.4531 51.2695 35.2051L56.2012 16.4551L107.52 16.4551L112.451 35.2051C113.574 39.4531 115.918 41.4062 120.166 41.4062C124.902 41.4062 127.734 38.2324 127.734 33.8379C127.734 32.9102 127.588 31.9336 127.344 30.957L117.725-5.61523L122.607-5.61523C127.588-5.61523 131.445-9.57031 131.445-14.209C131.445-19.1406 127.783-22.9004 122.754-22.9004L50-22.9004C43.1152-22.9004 39.6484-26.2207 39.6484-32.9102L39.6484-47.2168L45.6543-47.2168L45.6543-42.9688C45.6543-35.4492 49.8535-31.3477 57.6172-31.3477L106.982-31.3477C114.697-31.3477 118.945-35.4492 118.945-42.9688L118.945-47.2168L139.551-47.2168C144.189-47.2168 147.607-50.8301 147.607-55.1758C147.607-59.7168 144.287-63.2324 139.648-63.2324L23.877-63.2324C19.3359-63.2324 16.0645-59.7168 16.0645-55.1758C16.0645-50.8301 19.4824-47.2168 24.0234-47.2168L27.1973-47.2168L27.1973-20.8984C27.1973-11.3281 33.0566-5.61523 42.7246-5.61523L45.9961-5.61523L36.377 30.957C36.1328 31.9336 35.9863 32.8125 35.9863 33.7891C35.9863 38.1348 38.6719 41.4062 43.5547 41.4062ZM60.0098 2.39258L62.1094-5.61523L101.611-5.61523L103.711 2.39258Z"/>
  </g>
  <g id="Bold-L" transform="matrix(1 0 0 1 2260.12 1556)">
   <path d="M57.373-70.752L103.516-70.752C111.523-70.752 115.332-74.4629 115.332-82.2754L115.332-101.025C115.332-108.838 111.523-112.5 103.516-112.5L57.373-112.5C49.3652-112.5 45.5078-108.838 45.5078-101.025L45.5078-82.2754C45.5078-74.4629 49.3652-70.752 57.373-70.752ZM41.2598 38.0371C44.9707 38.0371 46.8262 36.2793 47.7539 32.7637L52.832 13.5742L107.227 13.5742L112.256 32.7637C113.232 36.2793 115.137 38.0371 118.75 38.0371C122.754 38.0371 125.146 35.4492 125.146 31.7383C125.146 30.957 125.049 30.127 124.805 29.2969L114.99-7.8125L119.775-7.8125C124.219-7.8125 127.588-11.1816 127.588-15.2344C127.588-19.5801 124.463-22.8027 119.971-22.8027L47.4609-22.8027C41.0156-22.8027 37.7441-25.8789 37.7441-32.1289L37.7441-47.5586L45.4102-47.5586L45.4102-42.9199C45.4102-35.5957 49.3652-31.7383 56.9336-31.7383L103.613-31.7383C111.133-31.7383 115.088-35.5957 115.088-42.9199L115.088-47.5586L136.768-47.5586C140.771-47.5586 143.652-50.4883 143.652-54.1992C143.652-58.0566 140.82-60.9375 136.914-60.9375L22.6562-60.9375C18.7988-60.9375 16.0645-58.0566 16.0645-54.1992C16.0645-50.4883 18.8965-47.5586 22.8027-47.5586L26.7578-47.5586L26.7578-22.5586C26.7578-13.2812 32.3242-7.8125 41.6504-7.8125L45.0195-7.8125L35.2051 29.2969C35.0098 30.0781 34.8633 30.8594 34.8633 31.7383C34.8633 35.3516 37.0605 38.0371 41.2598 38.0371ZM56.0547 1.51367L58.5449-7.8125L101.514-7.8125L103.955 1.51367Z"/>
  </g>
  <g id="Semibold-L" transform="matrix(1 0 0 1 1964.78 1556)">
   <path d="M56.5918-69.2871L101.367-69.2871C109.131-69.2871 112.842-72.8516 112.842-80.4688L112.842-98.8281C112.842-106.396 109.131-109.961 101.367-109.961L56.5918-109.961C48.8281-109.961 45.0684-106.396 45.0684-98.8281L45.0684-80.4688C45.0684-72.8516 48.8281-69.2871 56.5918-69.2871ZM39.6973 35.7422C42.9688 35.7422 44.4824 34.1309 45.3125 31.0547L50.4883 11.6211L106.982 11.6211L112.158 31.0547C112.939 34.1309 114.648 35.7422 117.773 35.7422C121.338 35.7422 123.34 33.4961 123.34 30.2734C123.34 29.5898 123.291 28.8574 123.047 28.125L113.135-9.32617L117.822-9.32617C121.924-9.32617 124.951-12.2559 124.951-15.9668C124.951-19.9219 122.119-22.7051 118.018-22.7051L45.7031-22.7051C39.5996-22.7051 36.4258-25.6836 36.4258-31.543L36.4258-47.8027L45.2637-47.8027L45.2637-42.8711C45.2637-35.6445 49.0234-31.9824 56.4453-31.9824L101.27-31.9824C108.691-31.9824 112.451-35.6445 112.451-42.8711L112.451-47.8027L134.814-47.8027C138.428-47.8027 140.918-50.293 140.918-53.5645C140.918-56.9336 138.477-59.3262 135.01-59.3262L21.7773-59.3262C18.4082-59.3262 16.0645-56.8848 16.0645-53.5645C16.0645-50.293 18.5059-47.8027 21.9727-47.8027L26.416-47.8027L26.416-23.6816C26.416-14.5996 31.8359-9.32617 40.918-9.32617L44.3359-9.32617L34.4238 28.125C34.2285 28.8574 34.1309 29.4922 34.1309 30.2734C34.1309 33.3984 35.9863 35.7422 39.6973 35.7422ZM53.3691 0.878906L56.0547-9.32617L101.416-9.32617L104.102 0.878906Z"/>
  </g>
  <g id="Medium-L" transform="matrix(1 0 0 1 1669.11 1556)">
   <path d="M56.0059-68.1641L99.7559-68.1641C107.275-68.1641 110.938-71.6797 110.938-79.0527L110.938-97.1191C110.938-104.541 107.275-108.008 99.7559-108.008L56.0059-108.008C48.4375-108.008 44.7754-104.541 44.7754-97.1191L44.7754-79.0527C44.7754-71.6797 48.4375-68.1641 56.0059-68.1641ZM38.5254 33.9844C41.4062 33.9844 42.7734 32.4707 43.5059 29.7363L48.6816 10.1074L106.836 10.1074L112.061 29.7363C112.744 32.4707 114.258 33.9844 116.992 33.9844C120.215 33.9844 122.021 32.0312 122.021 29.1504C122.021 28.5645 121.924 27.9297 121.729 27.2461L111.719-10.498L116.357-10.498C120.166-10.498 122.998-13.1348 122.998-16.5039C122.998-20.166 120.361-22.6562 116.602-22.6562L44.3359-22.6562C38.5254-22.6562 35.4492-25.4883 35.4492-31.1523L35.4492-47.998L45.166-47.998L45.166-42.8711C45.166-35.6934 48.7793-32.1777 56.1035-32.1777L99.4629-32.1777C106.787-32.1777 110.449-35.6934 110.449-42.8711L110.449-47.998L133.35-47.998C136.621-47.998 138.818-50.0977 138.818-53.0273C138.818-56.0547 136.67-58.1543 133.545-58.1543L21.1426-58.1543C18.1152-58.1543 16.0645-56.0547 16.0645-53.0273C16.0645-50.0977 18.2129-47.998 21.3379-47.998L26.2207-47.998L26.2207-24.5117C26.2207-15.625 31.4453-10.498 40.3809-10.498L43.8477-10.498L33.7891 27.2461C33.6426 27.8809 33.5449 28.4668 33.5449 29.1992C33.5449 31.9336 35.1074 33.9844 38.5254 33.9844ZM51.3184 0.390625L54.1992-10.498L101.318-10.498L104.199 0.390625Z"/>
  </g>
  <g id="Regular-L" transform="matrix(1 0 0 1 1373.75 1556)">
   <path d="M55.2246-66.6992L97.6074-66.6992C104.932-66.6992 108.496-70.1172 108.496-77.2461L108.496-94.9219C108.496-102.148 104.932-105.518 97.6074-105.518L55.2246-105.518C47.9004-105.518 44.3359-102.148 44.3359-94.9219L44.3359-77.2461C44.3359-70.1172 47.9004-66.6992 55.2246-66.6992ZM36.9629 31.6895C39.4043 31.6895 40.4785 30.3711 41.0645 28.0762L46.3867 8.1543L106.641 8.1543L111.914 28.0762C112.5 30.3711 113.721 31.6895 116.016 31.6895C118.75 31.6895 120.215 30.127 120.215 27.7344C120.215 27.2461 120.166 26.709 120.02 26.0742L109.814-12.0117L114.453-12.0117C117.871-12.0117 120.361-14.209 120.361-17.2363C120.361-20.459 118.115-22.5586 114.697-22.5586L42.5781-22.5586C37.1094-22.5586 34.1797-25.293 34.1797-30.6152L34.1797-48.2422L44.9707-48.2422L44.9707-42.8223C44.9707-35.791 48.4375-32.4707 55.6641-32.4707L97.168-32.4707C104.346-32.4707 107.812-35.791 107.812-42.8223L107.812-48.2422L131.445-48.2422C134.277-48.2422 136.133-49.8535 136.133-52.3926C136.133-54.9316 134.326-56.5918 131.641-56.5918L20.2637-56.5918C17.7246-56.5918 16.0645-54.8828 16.0645-52.3926C16.0645-49.8535 17.8223-48.2422 20.5078-48.2422L25.8789-48.2422L25.8789-25.6348C25.8789-16.9922 30.957-12.0117 39.6484-12.0117L43.1641-12.0117L33.0078 26.0742C32.8613 26.6602 32.7637 27.1484 32.7637 27.7832C32.7637 30.0293 34.0332 31.6895 36.9629 31.6895ZM48.6328-0.244141L51.7578-12.0117L101.27-12.0117L104.346-0.244141Z"/>
  </g>
  <g id="Light-L" transform="matrix(1 0 0 1 1077.79 1556)">
   <path d="M54.5898-65.5762L96.4844-65.5762C103.711-65.5762 107.227-68.9453 107.227-76.0254L107.227-93.5059C107.227-100.635 103.711-103.906 96.4844-103.906L54.5898-103.906C47.3633-103.906 43.8477-100.635 43.8477-93.5059L43.8477-76.0254C43.8477-68.9453 47.3633-65.5762 54.5898-65.5762ZM36.2305 30.127C38.0371 30.127 38.916 29.1504 39.3555 27.4902L44.6289 7.76367L107.422 7.76367L112.646 27.4902C113.086 29.1504 114.062 30.127 115.771 30.127C117.871 30.127 119.043 28.9551 119.043 27.0996C119.043 26.8066 119.043 26.3672 118.896 25.8789L108.545-12.6953L114.502-12.6953C116.943-12.6953 118.75-14.3555 118.75-16.5527C118.75-18.9453 117.09-20.5078 114.648-20.5078L42.2852-20.5078C35.791-20.5078 32.6172-23.5352 32.6172-29.9316L32.6172-48.0957L44.873-48.0957L44.873-41.6016C44.873-34.7656 48.2422-31.4941 55.2734-31.4941L95.8008-31.4941C102.832-31.4941 106.201-34.7656 106.201-41.6016L106.201-48.0957L131.152-48.0957C133.252-48.0957 134.619-49.3652 134.619-51.2695C134.619-53.2227 133.252-54.4922 131.299-54.4922L19.2383-54.4922C17.334-54.4922 16.0645-53.1738 16.0645-51.2695C16.0645-49.3652 17.4316-48.0957 19.3848-48.0957L26.2695-48.0957L26.2695-26.8066C26.2695-17.7246 31.2988-12.6953 40.4297-12.6953L43.5059-12.6953L33.1543 25.8789C33.0566 26.3672 33.0078 26.709 33.0078 27.1484C33.0078 28.9062 34.0332 30.127 36.2305 30.127ZM46.3867 1.26953L50.0977-12.6953L101.953-12.6953L105.664 1.26953Z"/>
  </g>
  <g id="Thin-L" transform="matrix(1 0 0 1 782.081 1556)">
   <path d="M53.7598-64.1113L95.0195-64.1113C102.148-64.1113 105.615-67.4316 105.615-74.3652L105.615-91.6016C105.615-98.6328 102.148-101.855 95.0195-101.855L53.7598-101.855C46.6309-101.855 43.1641-98.6328 43.1641-91.6016L43.1641-74.3652C43.1641-67.4316 46.6309-64.1113 53.7598-64.1113ZM35.3027 28.0762C36.2305 28.0762 36.8652 27.5391 37.1094 26.709L42.334 7.17773L108.447 7.17773L113.672 26.709C113.867 27.5391 114.551 28.0762 115.479 28.0762C116.65 28.0762 117.48 27.4414 117.48 26.3184C117.48 26.1719 117.48 25.9766 117.383 25.5859L106.836-13.623L114.551-13.623C115.723-13.623 116.602-14.5508 116.602-15.7227C116.602-16.8945 115.723-17.8223 114.6-17.8223L41.8945-17.8223C34.0332-17.8223 30.5176-21.2402 30.5176-29.0527L30.5176-47.9492L44.7266-47.9492L44.7266-40.0391C44.7266-33.3984 47.998-30.2246 54.7852-30.2246L93.9941-30.2246C100.781-30.2246 104.053-33.3984 104.053-40.0391L104.053-47.9492L130.762-47.9492C131.836-47.9492 132.617-48.7305 132.617-49.8047C132.617-50.9277 131.836-51.709 130.811-51.709L17.8711-51.709C16.8457-51.709 16.0645-50.9277 16.0645-49.8047C16.0645-48.7305 16.8457-47.9492 17.9199-47.9492L26.8066-47.9492L26.8066-28.418C26.8066-18.7012 31.7871-13.623 41.5039-13.623L43.9453-13.623L33.3984 25.5859C33.3008 25.9766 33.3008 26.1719 33.3008 26.3184C33.3008 27.4414 34.082 28.0762 35.3027 28.0762ZM43.4082 3.27148L47.9004-13.623L102.832-13.623L107.373 3.27148Z"/>
  </g>
  <g id="Ultralight-L" transform="matrix(1 0 0 1 485.859 1556)">
   <path d="M53.3203-63.3789L94.2871-63.3789C101.318-63.3789 104.785-66.6504 104.785-73.5352L104.785-90.625C104.785-97.5586 101.318-100.781 94.2871-100.781L53.3203-100.781C46.2891-100.781 42.8223-97.5586 42.8223-90.625L42.8223-73.5352C42.8223-66.6504 46.2891-63.3789 53.3203-63.3789ZM34.8145 27.0508C35.3027 27.0508 35.8398 26.7578 35.9375 26.3184L41.1621 6.88477L108.984 6.88477L114.16 26.3184C114.307 26.7578 114.795 27.0508 115.283 27.0508C116.064 27.0508 116.699 26.6602 116.699 25.8789C116.699 25.8789 116.699 25.7324 116.602 25.4395L105.957-14.1113L114.6-14.1113C115.088-14.1113 115.479-14.6484 115.479-15.2832C115.479-15.8691 115.039-16.4062 114.551-16.4062L41.6992-16.4062C33.1543-16.4062 29.4434-20.0684 29.4434-28.6133L29.4434-47.8516L44.6777-47.8516L44.6777-39.209C44.6777-32.666 47.8516-29.5898 54.541-29.5898L93.0664-29.5898C99.7559-29.5898 102.93-32.666 102.93-39.209L102.93-47.8516L130.566-47.8516C131.104-47.8516 131.641-48.3887 131.641-49.0723C131.641-49.7559 131.104-50.2441 130.518-50.2441L17.1875-50.2441C16.6016-50.2441 16.0645-49.7559 16.0645-49.0723C16.0645-48.3887 16.5527-47.8516 17.1387-47.8516L27.0508-47.8516L27.0508-29.248C27.0508-19.1895 32.0312-14.1113 42.041-14.1113L44.1406-14.1113L33.4961 25.4395C33.3984 25.7324 33.4473 25.8789 33.4473 25.8789C33.4473 26.709 34.082 27.0508 34.8145 27.0508ZM41.8457 4.29688L46.8262-14.1113L103.32-14.1113L108.252 4.29688Z"/>
  </g>
  <g id="Black-M" transform="matrix(1 0 0 1 2866.6 1126)">
   <path d="M47.1191-67.8711L87.9883-67.8711C95.0684-67.8711 98.3887-71.1426 98.3887-78.0762L98.3887-94.043C98.3887-100.928 95.0684-104.199 87.9883-104.199L47.1191-104.199C40.0391-104.199 36.6699-100.928 36.6699-94.043L36.6699-78.0762C36.6699-71.1426 40.0391-67.8711 47.1191-67.8711ZM37.6953 29.6875C41.9922 29.6875 44.3848 27.9297 45.5078 23.7305L49.1211 10.0098L84.3262 10.0098L87.9395 23.7305C89.0625 27.9297 91.4551 29.6875 95.7031 29.6875C100.293 29.6875 103.271 26.416 103.271 22.0215C103.271 21.0449 103.125 20.1172 102.881 19.1895L95.752-8.44727L100.439-8.44727C104.785-8.44727 108.252-12.3535 108.252-16.6016C108.252-21.0449 104.834-24.7559 100.439-24.7559L43.457-24.7559C36.6699-24.7559 33.4473-27.9297 33.4473-34.5703L33.4473-43.75L35.791-43.75L35.791-40.6738C35.791-34.6191 39.4531-31.0059 45.7031-31.0059L88.623-31.0059C94.873-31.0059 98.584-34.6191 98.584-40.6738L98.584-43.75L113.33-43.75C117.676-43.75 121.143-47.6562 121.143-51.9531C121.143-56.3965 117.773-60.1562 113.281-60.1562L20.3125-60.1562C15.8691-60.1562 12.4512-56.3965 12.4512-51.9531C12.4512-47.6562 15.918-43.75 20.3125-43.75L22.168-43.75L22.168-21.6797C22.168-13.4277 27.1973-8.44727 35.5957-8.44727L37.6953-8.44727L30.5176 19.1895C30.2734 20.1172 30.127 20.9961 30.127 21.875C30.127 26.3672 33.0566 29.6875 37.6953 29.6875ZM52.7344-3.51562L54.0527-8.44727L79.3457-8.44727L80.6641-3.51562Z"/>
  </g>
  <g id="Heavy-M" transform="matrix(1 0 0 1 2571.63 1126)">
   <path d="M46.1914-66.1133L85.2539-66.1133C91.9922-66.1133 95.166-69.1895 95.166-75.8301L95.166-91.2598C95.166-97.8516 91.9922-100.977 85.2539-100.977L46.1914-100.977C39.4531-100.977 36.1816-97.8516 36.1816-91.2598L36.1816-75.8301C36.1816-69.1895 39.4531-66.1133 46.1914-66.1133ZM35.6445 26.8066C39.4531 26.8066 41.5039 25.1953 42.5293 21.4844L46.2402 7.32422L83.8379 7.32422L87.5488 21.4844C88.5254 25.1953 90.625 26.8066 94.3848 26.8066C98.4863 26.8066 101.074 23.9746 101.074 20.1172C101.074 19.2871 100.928 18.4082 100.732 17.5781L93.4082-10.4492L97.6562-10.4492C101.758-10.4492 104.932-13.916 104.932-17.8223C104.932-21.9238 101.855-25.1953 97.7051-25.1953L41.0645-25.1953C34.9609-25.1953 32.0312-28.0762 32.0312-33.9844L32.0312-44.1406L35.5957-44.1406L35.5957-40.9668C35.5957-35.0098 39.0625-31.6406 45.166-31.6406L85.6934-31.6406C91.7969-31.6406 95.2637-35.0098 95.2637-40.9668L95.2637-44.1406L110.645-44.1406C114.6-44.1406 117.676-47.4609 117.676-51.2695C117.676-55.2734 114.697-58.4473 110.693-58.4473L19.3848-58.4473C15.4297-58.4473 12.4512-55.2246 12.4512-51.2695C12.4512-47.4609 15.4785-44.1406 19.4336-44.1406L21.6309-44.1406L21.6309-22.9492C21.6309-15.1367 26.3672-10.4492 34.3262-10.4492L36.6211-10.4492L29.3457 17.5781C29.1016 18.4082 29.0039 19.1895 29.0039 20.0195C29.0039 23.9258 31.4941 26.8066 35.6445 26.8066ZM49.5117-4.78516L50.9766-10.4492L79.0527-10.4492L80.5664-4.78516Z"/>
  </g>
  <g id="Bold-M" transform="matrix(1 0 0 1 2276.87 1126)">
   <path d="M45.1172-64.0625L82.1289-64.0625C88.5254-64.0625 91.6016-67.041 91.6016-73.291L91.6016-88.1836C91.6016-94.4336 88.5254-97.3633 82.1289-97.3633L45.1172-97.3633C38.7207-97.3633 35.6445-94.4336 35.6445-88.1836L35.6445-73.291C35.6445-67.041 38.7207-64.0625 45.1172-64.0625ZM33.3984 23.584C36.6699 23.584 38.3301 22.1191 39.1602 18.9453L43.0176 4.3457L83.252 4.3457L87.1094 18.9453C87.9395 22.1191 89.6973 23.584 92.8711 23.584C96.4355 23.584 98.584 21.2402 98.584 17.9688C98.584 17.2363 98.4863 16.5527 98.291 15.7715L90.8203-12.6465L94.5312-12.6465C98.3398-12.6465 101.221-15.625 101.221-19.1406C101.221-22.8516 98.4863-25.6836 94.6777-25.6836L38.3301-25.6836C33.0566-25.6836 30.4199-28.2227 30.4199-33.3008L30.4199-44.5801L35.3516-44.5801L35.3516-41.2598C35.3516-35.4492 38.5742-32.3242 44.5312-32.3242L82.373-32.3242C88.3301-32.3242 91.5527-35.4492 91.5527-41.2598L91.5527-44.5801L107.666-44.5801C111.182-44.5801 113.77-47.2656 113.77-50.5371C113.77-53.9551 111.23-56.543 107.764-56.543L18.3105-56.543C14.8926-56.543 12.4512-53.9551 12.4512-50.5371C12.4512-47.2656 14.9902-44.5801 18.4082-44.5801L20.9961-44.5801L20.9961-24.4141C20.9961-17.041 25.4883-12.6465 32.9102-12.6465L35.4492-12.6465L27.9785 15.7715C27.832 16.5039 27.6855 17.1875 27.6855 17.9199C27.6855 21.1426 29.6875 23.584 33.3984 23.584ZM45.8496-6.25L47.5586-12.6465L78.7109-12.6465L80.4199-6.25Z"/>
  </g>
  <g id="Semibold-M" transform="matrix(1 0 0 1 1981.52 1126)">
   <path d="M44.4336-62.6953L79.9805-62.6953C86.1328-62.6953 89.1113-65.5273 89.1113-71.582L89.1113-86.0352C89.1113-92.0898 86.1328-94.9219 79.9805-94.9219L44.4336-94.9219C38.2812-94.9219 35.3027-92.0898 35.3027-86.0352L35.3027-71.582C35.3027-65.5273 38.2812-62.6953 44.4336-62.6953ZM31.7871 21.3867C34.7168 21.3867 36.1328 19.9707 36.8652 17.1875L40.8203 2.24609L82.8613 2.24609L86.8164 17.1875C87.5488 19.9707 89.0625 21.3867 91.8457 21.3867C95.0195 21.3867 96.8262 19.3359 96.8262 16.5039C96.8262 15.8691 96.7773 15.2344 96.582 14.5508L89.0137-14.1602L92.3828-14.1602C95.9961-14.1602 98.6816-16.7969 98.6816-20.0195C98.6816-23.5352 96.1426-26.0254 92.5781-26.0254L36.4746-26.0254C31.7871-26.0254 29.2969-28.3203 29.2969-32.8125L29.2969-44.873L35.2051-44.873L35.2051-41.4551C35.2051-35.7422 38.2324-32.8125 44.0918-32.8125L80.0781-32.8125C85.9375-32.8125 88.9648-35.7422 88.9648-41.4551L88.9648-44.873L105.615-44.873C108.789-44.873 111.035-47.1191 111.035-50.0488C111.035-53.0762 108.887-55.2734 105.762-55.2734L17.5781-55.2734C14.5508-55.2734 12.4512-53.0273 12.4512-50.0488C12.4512-47.1191 14.6484-44.873 17.7246-44.873L20.6055-44.873L20.6055-25.3906C20.6055-18.3594 24.8535-14.1602 31.9336-14.1602L34.668-14.1602L27.0996 14.5508C26.9043 15.1855 26.8066 15.7715 26.8066 16.4551C26.8066 19.2871 28.4668 21.3867 31.7871 21.3867ZM43.3594-7.22656L45.166-14.1602L78.4668-14.1602L80.3223-7.22656Z"/>
  </g>
  <g id="Medium-M" transform="matrix(1 0 0 1 1685.84 1126)">
   <path d="M43.8477-61.6211L78.3691-61.6211C84.375-61.6211 87.207-64.4043 87.207-70.2148L87.207-84.4238C87.207-90.2832 84.375-93.0176 78.3691-93.0176L43.8477-93.0176C37.8906-93.0176 35.0098-90.2832 35.0098-84.4238L35.0098-70.2148C35.0098-64.4043 37.8906-61.6211 43.8477-61.6211ZM30.6152 19.7266C33.252 19.7266 34.4238 18.3594 35.1074 15.8691L39.1113 0.683594L82.5684 0.683594L86.5723 15.8691C87.2559 18.3594 88.5742 19.7266 91.0645 19.7266C93.9453 19.7266 95.5566 17.9199 95.5566 15.3809C95.5566 14.8438 95.5078 14.209 95.3125 13.623L87.6465-15.332L90.7715-15.332C94.1895-15.332 96.7285-17.6758 96.7285-20.752C96.7285-24.0234 94.3848-26.2695 90.9668-26.2695L35.0098-26.2695C30.8105-26.2695 28.4668-28.418 28.4668-32.4707L28.4668-45.1172L35.1074-45.1172L35.1074-41.6016C35.1074-35.9375 37.9883-33.1543 43.75-33.1543L78.3203-33.1543C84.1309-33.1543 87.0117-35.9375 87.0117-41.6016L87.0117-45.1172L104.053-45.1172C107.031-45.1172 108.984-47.0215 108.984-49.6582C108.984-52.3926 107.08-54.248 104.248-54.248L17.041-54.248C14.3066-54.248 12.4512-52.3438 12.4512-49.6582C12.4512-47.0215 14.4043-45.1172 17.2363-45.1172L20.2637-45.1172L20.2637-26.123C20.2637-19.3359 24.4141-15.332 31.2012-15.332L34.0332-15.332L26.3672 13.623C26.2695 14.209 26.123 14.7461 26.123 15.3809C26.123 17.8223 27.5879 19.7266 30.6152 19.7266ZM41.4551-8.00781L43.3594-15.332L78.3203-15.332L80.2246-8.00781Z"/>
  </g>
  <g id="Regular-M" transform="matrix(1 0 0 1 1390.45 1126)">
   <path d="M43.1641-60.2539L76.2695-60.2539C81.9824-60.2539 84.7656-62.8906 84.7656-68.5059L84.7656-82.3242C84.7656-87.9395 81.9824-90.5762 76.2695-90.5762L43.1641-90.5762C37.4023-90.5762 34.668-87.9395 34.668-82.3242L34.668-68.5059C34.668-62.8906 37.4023-60.2539 43.1641-60.2539ZM29.0527 17.5293C31.3477 17.5293 32.2754 16.2598 32.8125 14.1602L36.9141-1.36719L82.1777-1.36719L86.2793 14.1602C86.8652 16.2598 87.9395 17.5293 90.0391 17.5293C92.5781 17.5293 93.8477 16.0645 93.8477 13.916C93.8477 13.4277 93.7988 12.9395 93.6523 12.4023L85.8398-16.8457L88.6719-16.8457C91.8457-16.8457 94.2383-18.8477 94.2383-21.6309C94.2383-24.6582 92.0898-26.6113 88.916-26.6113L33.1543-26.6113C29.4922-26.6113 27.3926-28.5156 27.3926-32.0312L27.3926-45.4102L34.9121-45.4102L34.9121-41.7969C34.9121-36.2305 37.6465-33.6426 43.3594-33.6426L76.0742-33.6426C81.7383-33.6426 84.4727-36.2305 84.4727-41.7969L84.4727-45.4102L102.051-45.4102C104.688-45.4102 106.348-46.875 106.348-49.1699C106.348-51.5137 104.736-52.9785 102.246-52.9785L16.3086-52.9785C13.9648-52.9785 12.4512-51.4648 12.4512-49.1699C12.4512-46.875 14.0625-45.4102 16.5527-45.4102L19.8242-45.4102L19.8242-27.0996C19.8242-20.6543 23.7793-16.8457 30.2246-16.8457L33.252-16.8457L25.4883 12.4023C25.3418 12.8906 25.2441 13.3301 25.2441 13.9648C25.2441 15.9668 26.3672 17.5293 29.0527 17.5293ZM38.9648-8.98438L41.0156-16.8457L78.0762-16.8457L80.127-8.98438Z"/>
  </g>
  <g id="Light-M" transform="matrix(1 0 0 1 1094.42 1126)">
   <path d="M42.5781-59.2773L75.293-59.2773C80.9082-59.2773 83.6426-61.8652 83.6426-67.3828L83.6426-81.0059C83.6426-86.5723 80.9082-89.1602 75.293-89.1602L42.5781-89.1602C36.9629-89.1602 34.1797-86.5723 34.1797-81.0059L34.1797-67.3828C34.1797-61.8652 36.9629-59.2773 42.5781-59.2773ZM28.418 16.1133C30.127 16.1133 30.8594 15.1855 31.2988 13.623L35.3516-1.75781L82.9102-1.75781L86.9629 13.623C87.4023 15.1855 88.2324 16.1133 89.8438 16.1133C91.748 16.1133 92.7734 15.0391 92.7734 13.3789C92.7734 13.0371 92.7734 12.6465 92.627 12.207L84.7168-17.4805L88.7207-17.4805C91.0156-17.4805 92.7734-18.9941 92.7734-21.0449C92.7734-23.291 91.2109-24.7559 88.8672-24.7559L32.9102-24.7559C28.3203-24.7559 25.9766-26.9531 25.9766-31.4453L25.9766-45.2637L34.8145-45.2637L34.8145-40.7227C34.8145-35.3027 37.5-32.7637 43.0176-32.7637L74.8535-32.7637C80.3711-32.7637 83.0566-35.3027 83.0566-40.7227L83.0566-45.2637L101.758-45.2637C103.711-45.2637 104.98-46.4355 104.98-48.1445C104.98-49.9512 103.76-51.0742 101.904-51.0742L15.3809-51.0742C13.623-51.0742 12.4512-49.9023 12.4512-48.1445C12.4512-46.4355 13.6719-45.2637 15.5273-45.2637L20.166-45.2637L20.166-28.1738C20.166-21.3379 24.1211-17.4805 30.957-17.4805L33.5449-17.4805L25.6348 12.207C25.5371 12.5977 25.4883 12.9883 25.4883 13.3789C25.4883 14.9902 26.3672 16.1133 28.418 16.1133ZM36.9629-7.61719L39.5508-17.4805L78.7109-17.4805L81.2988-7.61719Z"/>
  </g>
  <g id="Thin-M" transform="matrix(1 0 0 1 798.585 1126)">
   <path d="M41.8457-57.959L73.9746-57.959C79.4922-57.959 82.1777-60.498 82.1777-65.918L82.1777-79.2969C82.1777-84.7656 79.4922-87.3047 73.9746-87.3047L41.8457-87.3047C36.3281-87.3047 33.5938-84.7656 33.5938-79.2969L33.5938-65.918C33.5938-60.498 36.3281-57.959 41.8457-57.959ZM27.5391 14.2578C28.4668 14.2578 29.0039 13.7695 29.248 12.9395L33.3008-2.24609L83.8379-2.24609L87.8906 12.9395C88.0859 13.7695 88.6719 14.2578 89.5508 14.2578C90.6738 14.2578 91.4062 13.6719 91.4062 12.6465C91.4062 12.5 91.3574 12.3047 91.3086 11.9629L83.1543-18.3105L88.7695-18.3105C89.9414-18.3105 90.8203-19.1406 90.8203-20.3125C90.8203-21.4844 89.9902-22.3145 88.8184-22.3145L32.5684-22.3145C26.7578-22.3145 24.1211-24.9023 24.1211-30.6641L24.1211-45.1172L34.7168-45.1172L34.7168-39.3066C34.7168-34.082 37.2559-31.6406 42.5781-31.6406L73.2422-31.6406C78.5645-31.6406 81.1035-34.082 81.1035-39.3066L81.1035-45.1172L101.416-45.1172C102.49-45.1172 103.223-45.8008 103.223-46.8262C103.223-47.9004 102.49-48.584 101.465-48.584L14.1602-48.584C13.1836-48.584 12.4512-47.8516 12.4512-46.8262C12.4512-45.8008 13.1836-45.1172 14.209-45.1172L20.6543-45.1172L20.6543-29.5898C20.6543-22.2168 24.5117-18.3105 31.9336-18.3105L33.9355-18.3105L25.8301 11.9629C25.7324 12.2559 25.7324 12.4512 25.7324 12.6465C25.7324 13.6719 26.416 14.2578 27.5391 14.2578ZM34.2773-5.81055L37.5977-18.3105L79.4922-18.3105L82.8613-5.81055Z"/>
  </g>
  <g id="Ultralight-M" transform="matrix(1 0 0 1 502.338 1126)">
   <path d="M41.4551-57.2754L73.291-57.2754C78.7598-57.2754 81.4453-59.8145 81.4453-65.1855L81.4453-78.4668C81.4453-83.8379 78.7598-86.3281 73.291-86.3281L41.4551-86.3281C35.9863-86.3281 33.3008-83.8379 33.3008-78.4668L33.3008-65.1855C33.3008-59.8145 35.9863-57.2754 41.4551-57.2754ZM27.1484 13.3301C27.6367 13.3301 28.0762 13.0371 28.1738 12.5977L32.2266-2.49023L84.2773-2.49023L88.3301 12.5977C88.4766 13.0371 88.8672 13.3301 89.4043 13.3301C90.1367 13.3301 90.6738 12.9883 90.6738 12.2559C90.6738 12.207 90.6738 12.1094 90.625 11.8652L82.373-18.7012L88.8184-18.7012C89.3555-18.7012 89.8438-19.2383 89.8438-19.873C89.8438-20.5566 89.3555-21.0938 88.8184-21.0938L32.373-21.0938C25.9766-21.0938 23.1445-23.8281 23.1445-30.2246L23.1445-45.0195L34.6191-45.0195L34.6191-38.5742C34.6191-33.4473 37.1094-31.0547 42.334-31.0547L72.4121-31.0547C77.6367-31.0547 80.127-33.4473 80.127-38.5742L80.127-45.0195L101.27-45.0195C101.855-45.0195 102.295-45.5078 102.295-46.1914C102.295-46.8262 101.855-47.3145 101.221-47.3145L13.5254-47.3145C12.9395-47.3145 12.4512-46.8262 12.4512-46.1914C12.4512-45.5078 12.9395-45.0195 13.5254-45.0195L20.8984-45.0195L20.8984-30.3223C20.8984-22.6562 24.7559-18.7012 32.4219-18.7012L34.1797-18.7012L25.9277 11.8652C25.8789 12.1094 25.8789 12.207 25.8789 12.2559C25.8789 12.9883 26.416 13.3301 27.1484 13.3301ZM32.9102-4.88281L36.6211-18.7012L79.9316-18.7012L83.6426-4.88281Z"/>
  </g>
  <g id="Black-S" transform="matrix(1 0 0 1 2881.18 696)">
   <path d="M36.8652-60.6934L68.75-60.6934C74.2676-60.6934 76.8555-63.2324 76.8555-68.6523L76.8555-81.1035C76.8555-86.4746 74.2676-89.0137 68.75-89.0137L36.8652-89.0137C31.3477-89.0137 28.7109-86.4746 28.7109-81.1035L28.7109-68.6523C28.7109-63.2324 31.3477-60.6934 36.8652-60.6934ZM29.3945 15.4297C32.7148 15.4297 34.5703 14.0625 35.4492 10.791L38.2812 0L66.0156 0L68.8477 10.791C69.7266 14.0625 71.582 15.4297 74.9023 15.4297C78.4668 15.4297 80.7617 12.8906 80.7617 9.47266C80.7617 8.74023 80.6641 8.00781 80.4688 7.27539L74.8535-14.4043L78.4668-14.4043C81.8848-14.4043 84.5703-17.4316 84.5703-20.752C84.5703-24.2188 81.9336-27.0996 78.4668-27.0996L33.8867-27.0996C28.6133-27.0996 26.123-29.541 26.123-34.668L26.123-41.9434L28.0273-41.9434L28.0273-39.5508C28.0273-34.8145 30.9082-31.9824 35.791-31.9824L69.2383-31.9824C74.1211-31.9824 77.002-34.8145 77.002-39.5508L77.002-41.9434L88.5742-41.9434C91.9922-41.9434 94.6777-44.9707 94.6777-48.291C94.6777-51.7578 92.041-54.6387 88.5742-54.6387L15.8691-54.6387C12.4023-54.6387 9.76562-51.7578 9.76562-48.291C9.76562-44.9707 12.4512-41.9434 15.8691-41.9434L17.334-41.9434L17.334-24.707C17.334-18.2617 21.2402-14.4043 27.7832-14.4043L29.4434-14.4043L23.8281 7.27539C23.6328 8.00781 23.5352 8.69141 23.5352 9.375C23.5352 12.8418 25.7812 15.4297 29.3945 15.4297ZM41.1133-10.498L42.1387-14.4043L62.1582-14.4043L63.1836-10.498Z"/>
  </g>
  <g id="Heavy-S" transform="matrix(1 0 0 1 2585.74 696)">
   <path d="M36.2305-59.4238L66.748-59.4238C72.0215-59.4238 74.5117-61.8652 74.5117-67.041L74.5117-79.1504C74.5117-84.2773 72.0215-86.7188 66.748-86.7188L36.2305-86.7188C30.9082-86.7188 28.418-84.2773 28.418-79.1504L28.418-67.041C28.418-61.8652 30.9082-59.4238 36.2305-59.4238ZM27.9297 13.3789C30.9082 13.3789 32.5195 12.0605 33.3496 9.13086L36.2305-2.00195L65.5762-2.00195L68.457 9.13086C69.2871 12.0605 70.8984 13.3789 73.9258 13.3789C77.1484 13.3789 79.1992 11.1328 79.1992 8.05664C79.1992 7.42188 79.1016 6.73828 78.9062 6.05469L73.1934-15.8691L76.3184-15.8691C79.6387-15.8691 82.1777-18.6035 82.1777-21.7285C82.1777-25 79.7363-27.6367 76.3672-27.6367L32.0801-27.6367C27.4414-27.6367 25.1953-29.834 25.1953-34.2773L25.1953-42.2363L27.8809-42.2363L27.8809-39.8926C27.8809-35.2051 30.6152-32.5684 35.4004-32.5684L67.0898-32.5684C71.9238-32.5684 74.6094-35.2051 74.6094-39.8926L74.6094-42.2363L86.5723-42.2363C89.7461-42.2363 92.1387-44.873 92.1387-47.9004C92.1387-51.0254 89.7949-53.5645 86.6211-53.5645L15.2344-53.5645C12.1094-53.5645 9.76562-51.0254 9.76562-47.9004C9.76562-44.873 12.1582-42.2363 15.2832-42.2363L16.8945-42.2363L16.8945-25.5859C16.8945-19.4824 20.6055-15.8691 26.7578-15.8691L28.6133-15.8691L22.9004 6.05469C22.7051 6.73828 22.6562 7.37305 22.6562 8.00781C22.6562 11.084 24.5605 13.3789 27.9297 13.3789ZM38.8672-11.6211L39.9414-15.8691L61.8652-15.8691L62.9395-11.6211Z"/>
  </g>
  <g id="Bold-S" transform="matrix(1 0 0 1 2290.44 696)">
   <path d="M35.498-58.0078L64.502-58.0078C69.5312-58.0078 71.9238-60.3027 71.9238-65.2344L71.9238-76.9043C71.9238-81.8359 69.5312-84.1309 64.502-84.1309L35.498-84.1309C30.4688-84.1309 28.0273-81.8359 28.0273-76.9043L28.0273-65.2344C28.0273-60.3027 30.4688-58.0078 35.498-58.0078ZM26.2207 11.084C28.9551 11.084 30.2734 9.86328 30.957 7.27539L33.9844-4.24805L65.0391-4.24805L68.0664 7.27539C68.75 9.86328 70.166 11.084 72.8027 11.084C75.6836 11.084 77.3926 9.17969 77.3926 6.49414C77.3926 5.9082 77.3438 5.32227 77.1484 4.73633L71.3379-17.4805L73.9746-17.4805C77.1484-17.4805 79.541-19.873 79.541-22.8027C79.541-25.9277 77.2949-28.2227 74.0723-28.2227L30.0293-28.2227C26.1719-28.2227 24.1211-30.127 24.1211-33.8379L24.1211-42.5781L27.7344-42.5781L27.7344-40.2344C27.7344-35.6445 30.2734-33.2031 34.9609-33.2031L64.7461-33.2031C69.4336-33.2031 71.9727-35.6445 71.9727-40.2344L71.9727-42.5781L84.3262-42.5781C87.2559-42.5781 89.3066-44.7754 89.3066-47.4609C89.3066-50.2441 87.2559-52.3438 84.4238-52.3438L14.5508-52.3438C11.7676-52.3438 9.76562-50.2441 9.76562-47.4609C9.76562-44.7754 11.8164-42.5781 14.6484-42.5781L16.3574-42.5781L16.3574-26.5137C16.3574-20.8984 19.873-17.4805 25.5859-17.4805L27.6855-17.4805L21.875 4.73633C21.7285 5.32227 21.6309 5.85938 21.6309 6.49414C21.6309 9.08203 23.2422 11.084 26.2207 11.084ZM36.3281-12.8906L37.5-17.4805L61.5234-17.4805L62.6953-12.8906Z"/>
  </g>
  <g id="Semibold-S" transform="matrix(1 0 0 1 1994.71 696)">
   <path d="M34.9609-57.0312L62.9395-57.0312C67.7734-57.0312 70.1172-59.2773 70.1172-64.0137L70.1172-75.3906C70.1172-80.127 67.7734-82.373 62.9395-82.373L34.9609-82.373C30.127-82.373 27.7832-80.127 27.7832-75.3906L27.7832-64.0137C27.7832-59.2773 30.127-57.0312 34.9609-57.0312ZM25.0977 9.52148C27.5391 9.52148 28.7109 8.30078 29.3457 5.95703L32.4219-5.81055L64.6973-5.81055L67.7734 5.95703C68.4082 8.30078 69.6289 9.52148 72.0215 9.52148C74.707 9.52148 76.1719 7.8125 76.1719 5.41992C76.1719 4.88281 76.123 4.3457 75.9766 3.80859L70.0684-18.5547L72.3145-18.5547C75.3906-18.5547 77.7344-20.752 77.7344-23.5352C77.7344-26.5137 75.5859-28.6133 72.4609-28.6133L28.6133-28.6133C25.2441-28.6133 23.3887-30.3223 23.3887-33.5449L23.3887-42.8223L27.6367-42.8223L27.6367-40.4785C27.6367-35.9375 30.0293-33.6426 34.668-33.6426L63.0859-33.6426C67.7246-33.6426 70.1172-35.9375 70.1172-40.4785L70.1172-42.8223L82.7637-42.8223C85.498-42.8223 87.3535-44.6777 87.3535-47.168C87.3535-49.707 85.5469-51.5137 82.9102-51.5137L14.0625-51.5137C11.5234-51.5137 9.76562-49.6582 9.76562-47.168C9.76562-44.6777 11.6211-42.8223 14.209-42.8223L16.0156-42.8223L16.0156-27.1973C16.0156-21.8262 19.3848-18.5547 24.7559-18.5547L27.0508-18.5547L21.1426 3.80859C20.9961 4.29688 20.9473 4.83398 20.9473 5.41992C20.9473 7.76367 22.2656 9.52148 25.0977 9.52148ZM34.5703-13.7695L35.8398-18.5547L61.2793-18.5547L62.5488-13.7695Z"/>
  </g>
  <g id="Medium-S" transform="matrix(1 0 0 1 1698.73 696)">
   <path d="M34.5703-56.2988L61.7676-56.2988C66.5039-56.2988 68.75-58.4473 68.75-63.0859L68.75-74.2676C68.75-78.8574 66.5039-81.0059 61.7676-81.0059L34.5703-81.0059C29.8828-81.0059 27.6367-78.8574 27.6367-74.2676L27.6367-63.0859C27.6367-58.4473 29.8828-56.2988 34.5703-56.2988ZM24.2188 8.34961C26.5137 8.34961 27.4902 7.17773 28.0762 4.98047L31.25-6.98242L64.4043-6.98242L67.5781 4.98047C68.1641 7.17773 69.2383 8.34961 71.4355 8.34961C73.9258 8.34961 75.2441 6.78711 75.2441 4.58984C75.2441 4.10156 75.1953 3.61328 75.0488 3.07617L69.0918-19.4336L71.0449-19.4336C74.0723-19.4336 76.3184-21.4355 76.3184-24.1211C76.3184-27.002 74.2676-28.9551 71.2402-28.9551L27.5391-28.9551C24.5605-28.9551 22.8516-30.5176 22.8516-33.3008L22.8516-43.0176L27.5391-43.0176L27.5391-40.6738C27.5391-36.1816 29.834-33.9355 34.4238-33.9355L61.8164-33.9355C66.4062-33.9355 68.75-36.1816 68.75-40.6738L68.75-43.0176L81.5918-43.0176C84.1797-43.0176 85.8887-44.6289 85.8887-46.9238C85.8887-49.2676 84.2285-50.8789 81.7871-50.8789L13.7207-50.8789C11.377-50.8789 9.76562-49.2188 9.76562-46.9238C9.76562-44.6289 11.4258-43.0176 13.916-43.0176L15.7227-43.0176L15.7227-27.6855C15.7227-22.5586 18.9941-19.4336 24.1699-19.4336L26.5625-19.4336L20.6055 3.07617C20.5078 3.56445 20.4102 4.05273 20.4102 4.63867C20.4102 6.68945 21.582 8.34961 24.2188 8.34961ZM33.252-14.4531L34.5215-19.4336L61.1328-19.4336L62.4023-14.4531Z"/>
  </g>
  <g id="Regular-S" transform="matrix(1 0 0 1 1402.97 696)">
   <path d="M34.082-55.3223L60.2539-55.3223C64.7949-55.3223 66.9434-57.4219 66.9434-61.8164L66.9434-72.7539C66.9434-77.1973 64.7949-79.2969 60.2539-79.2969L34.082-79.2969C29.541-79.2969 27.3926-77.1973 27.3926-72.7539L27.3926-61.8164C27.3926-57.4219 29.541-55.3223 34.082-55.3223ZM23.0957 6.78711C25.1465 6.78711 25.9766 5.66406 26.4648 3.71094L29.6875-8.49609L64.0625-8.49609L67.2852 3.71094C67.8223 5.66406 68.75 6.78711 70.6543 6.78711C72.9004 6.78711 74.0723 5.46875 74.0723 3.51562C74.0723 3.125 74.0234 2.63672 73.877 2.14844L67.8223-20.5078L69.4336-20.5078C72.3633-20.5078 74.5117-22.3145 74.5117-24.8535C74.5117-27.6367 72.6074-29.3457 69.6777-29.3457L26.123-29.3457C23.6816-29.3457 22.168-30.7129 22.168-33.0078L22.168-43.2617L27.4414-43.2617L27.4414-40.918C27.4414-36.4746 29.5898-34.375 34.1309-34.375L60.2051-34.375C64.7461-34.375 66.8945-36.4746 66.8945-40.918L66.8945-43.2617L80.0781-43.2617C82.4707-43.2617 83.9844-44.5801 83.9844-46.6309C83.9844-48.7305 82.5195-50.0488 80.2734-50.0488L13.2324-50.0488C11.1328-50.0488 9.76562-48.6816 9.76562-46.6309C9.76562-44.5801 11.2305-43.2617 13.4766-43.2617L15.3809-43.2617L15.3809-28.3203C15.3809-23.4863 18.5059-20.5078 23.3398-20.5078L25.9277-20.5078L19.873 2.14844C19.8242 2.58789 19.7266 3.02734 19.7266 3.56445C19.7266 5.37109 20.6543 6.78711 23.0957 6.78711ZM31.543-15.332L32.8613-20.5078L60.8887-20.5078L62.2559-15.332Z"/>
  </g>
  <g id="Light-S" transform="matrix(1 0 0 1 1106.87 696)">
   <path d="M33.5938-54.4434L59.375-54.4434C63.8184-54.4434 65.9668-56.4941 65.9668-60.8398L65.9668-71.582C65.9668-75.9766 63.8184-78.0273 59.375-78.0273L33.5938-78.0273C29.1504-78.0273 26.9531-75.9766 26.9531-71.582L26.9531-60.8398C26.9531-56.4941 29.1504-54.4434 33.5938-54.4434ZM22.5098 5.51758C24.0723 5.51758 24.707 4.6875 25.0977 3.27148L28.3203-8.83789L64.6973-8.83789L67.8711 3.27148C68.2617 4.6875 69.043 5.51758 70.459 5.51758C72.2168 5.51758 73.0957 4.54102 73.0957 3.02734C73.0957 2.73438 73.0957 2.39258 72.9492 2.00195L66.7969-21.0449L69.4824-21.0449C71.6309-21.0449 73.2422-22.4609 73.2422-24.3652C73.2422-26.416 71.8262-27.7344 69.6289-27.7344L25.8789-27.7344C22.6562-27.7344 20.8984-29.3457 20.8984-32.4707L20.8984-43.1641L27.3438-43.1641L27.3438-39.9414C27.3438-35.6445 29.4434-33.6426 33.8379-33.6426L59.1309-33.6426C63.5254-33.6426 65.625-35.6445 65.625-39.9414L65.625-43.1641L79.834-43.1641C81.6406-43.1641 82.7637-44.1406 82.7637-45.752C82.7637-47.3633 81.6895-48.3887 79.9805-48.3887L12.4023-48.3887C10.8398-48.3887 9.76562-47.3145 9.76562-45.752C9.76562-44.1406 10.8887-43.1641 12.5488-43.1641L15.6738-43.1641L15.6738-29.2969C15.6738-24.0723 18.7988-21.0449 24.0234-21.0449L26.1719-21.0449L20.0195 2.00195C19.9707 2.34375 19.873 2.68555 19.873 3.07617C19.873 4.49219 20.6543 5.51758 22.5098 5.51758ZM29.7363-14.1113L31.5918-21.0449L61.4258-21.0449L63.2812-14.1113Z"/>
  </g>
  <g id="Thin-S" transform="matrix(1 0 0 1 810.939 696)">
   <path d="M32.959-53.2715L58.2031-53.2715C62.5488-53.2715 64.6973-55.3223 64.6973-59.5703L64.6973-70.1172C64.6973-74.4141 62.5488-76.3672 58.2031-76.3672L32.959-76.3672C28.5645-76.3672 26.4648-74.4141 26.4648-70.1172L26.4648-59.5703C26.4648-55.3223 28.5645-53.2715 32.959-53.2715ZM21.7773 3.90625C22.6562 3.90625 23.0957 3.41797 23.291 2.63672L26.5137-9.27734L65.4785-9.27734L68.7012 2.63672C68.8965 3.41797 69.3848 3.90625 70.2148 3.90625C71.2402 3.90625 71.875 3.36914 71.875 2.39258C71.875 2.24609 71.875 2.05078 71.7773 1.80664L65.4785-21.7773L69.5312-21.7773C70.7031-21.7773 71.5332-22.6074 71.5332-23.6816C71.5332-24.8047 70.752-25.5859 69.6289-25.5859L25.5859-25.5859C21.2891-25.5859 19.2383-27.5391 19.2383-31.7871L19.2383-43.0176L27.2461-43.0176L27.2461-38.6719C27.2461-34.5703 29.248-32.6172 33.4473-32.6172L57.7148-32.6172C61.9141-32.6172 63.916-34.5703 63.916-38.6719L63.916-43.0176L79.541-43.0176C80.5176-43.0176 81.2012-43.6523 81.2012-44.5801C81.2012-45.5566 80.5664-46.1914 79.5898-46.1914L11.3281-46.1914C10.4004-46.1914 9.76562-45.5078 9.76562-44.5801C9.76562-43.6523 10.4492-43.0176 11.377-43.0176L16.1133-43.0176L16.1133-30.5664C16.1133-24.8535 19.1406-21.7773 24.8535-21.7773L26.5137-21.7773L20.2148 1.80664C20.1172 2.05078 20.1172 2.24609 20.1172 2.44141C20.1172 3.32031 20.7031 3.90625 21.7773 3.90625ZM27.3926-12.5488L29.834-21.7773L62.1582-21.7773L64.5996-12.5488Z"/>
  </g>
  <g id="Ultralight-S" transform="matrix(1 0 0 1 514.618 696)">
   <path d="M32.6172-52.6855L57.6172-52.6855C61.9141-52.6855 64.0137-54.6875 64.0137-58.8867L64.0137-69.3359C64.0137-73.584 61.9141-75.5371 57.6172-75.5371L32.6172-75.5371C28.2715-75.5371 26.1719-73.584 26.1719-69.3359L26.1719-58.8867C26.1719-54.6875 28.2715-52.6855 32.6172-52.6855ZM21.3867 3.07617C21.875 3.07617 22.2656 2.7832 22.3633 2.29492L25.5371-9.52148L65.918-9.52148L69.0918 2.29492C69.2383 2.7832 69.5801 3.07617 70.1172 3.07617C70.752 3.07617 71.2402 2.73438 71.2402 2.09961C71.2402 2.00195 71.2402 1.9043 71.1914 1.70898L64.7461-22.168L69.5801-22.168C70.166-22.168 70.6543-22.7051 70.6543-23.3398C70.6543-23.9746 70.2148-24.4629 69.5801-24.4629L25.4395-24.4629C20.5566-24.4629 18.4082-26.5625 18.4082-31.4453L18.4082-42.9199L27.1484-42.9199L27.1484-38.0371C27.1484-34.0332 29.1504-32.0801 33.252-32.0801L56.9336-32.0801C61.084-32.0801 63.0371-34.0332 63.0371-38.0371L63.0371-42.9199L79.3945-42.9199C79.9805-42.9199 80.4199-43.3594 80.4199-43.9941C80.4199-44.5801 79.9805-45.0195 79.3945-45.0195L10.791-45.0195C10.2051-45.0195 9.76562-44.5801 9.76562-43.9941C9.76562-43.3594 10.2051-42.9199 10.791-42.9199L16.3086-42.9199L16.3086-31.2012C16.3086-25.2441 19.3359-22.168 25.293-22.168L26.709-22.168L20.3125 1.70898C20.2637 1.9043 20.2148 2.00195 20.2148 2.09961C20.2148 2.73438 20.7031 3.07617 21.3867 3.07617ZM26.1719-11.7188L28.9551-22.168L62.5-22.168L65.332-11.7188Z"/>
  </g>
 </g>
</svg>
