<?xml version="1.0" encoding="UTF-8"?>
<!--Generator: Apple Native CoreSVG 149-->
<!DOCTYPE svg
PUBLIC "-//W3C//DTD SVG 1.1//EN"
       "http://www.w3.org/Graphics/SVG/1.1/DTD/svg11.dtd">
<svg version="1.1" xmlns="http://www.w3.org/2000/svg" xmlns:xlink="http://www.w3.org/1999/xlink" width="3300" height="2200">
 <!--glyph: "uni100B6D.medium", point size: 100.000000, font version: "Version 16.0d12e3", template writer version: "8"-->
 <g id="Notes">
  <rect height="2200" id="artboard" style="fill:white;opacity:1" width="3300" x="0" y="0"/>
  <line id="" style="fill:none;stroke:black;opacity:1;stroke-width:0.5;" x1="263" x2="3036" y1="292" y2="292"/>
  <text style="stroke:none;fill:black;font-family:-apple-system,&quot;SF Pro Display&quot;,&quot;SF Pro Text&quot;,Helvetica,sans-serif;font-weight:bold;" transform="matrix(1 0 0 1 263 322)">Weight/Scale Variations</text>
  <text style="stroke:none;fill:black;font-family:-apple-system,&quot;SF Pro Display&quot;,&quot;SF Pro Text&quot;,Helvetica,sans-serif;text-anchor:middle;" transform="matrix(1 0 0 1 559.711 322)">Ultralight</text>
  <text style="stroke:none;fill:black;font-family:-apple-system,&quot;SF Pro Display&quot;,&quot;SF Pro Text&quot;,Helvetica,sans-serif;text-anchor:middle;" transform="matrix(1 0 0 1 856.422 322)">Thin</text>
  <text style="stroke:none;fill:black;font-family:-apple-system,&quot;SF Pro Display&quot;,&quot;SF Pro Text&quot;,Helvetica,sans-serif;text-anchor:middle;" transform="matrix(1 0 0 1 1153.13 322)">Light</text>
  <text style="stroke:none;fill:black;font-family:-apple-system,&quot;SF Pro Display&quot;,&quot;SF Pro Text&quot;,Helvetica,sans-serif;text-anchor:middle;" transform="matrix(1 0 0 1 1449.84 322)">Regular</text>
  <text style="stroke:none;fill:black;font-family:-apple-system,&quot;SF Pro Display&quot;,&quot;SF Pro Text&quot;,Helvetica,sans-serif;text-anchor:middle;" transform="matrix(1 0 0 1 1746.56 322)">Medium</text>
  <text style="stroke:none;fill:black;font-family:-apple-system,&quot;SF Pro Display&quot;,&quot;SF Pro Text&quot;,Helvetica,sans-serif;text-anchor:middle;" transform="matrix(1 0 0 1 2043.27 322)">Semibold</text>
  <text style="stroke:none;fill:black;font-family:-apple-system,&quot;SF Pro Display&quot;,&quot;SF Pro Text&quot;,Helvetica,sans-serif;text-anchor:middle;" transform="matrix(1 0 0 1 2339.98 322)">Bold</text>
  <text style="stroke:none;fill:black;font-family:-apple-system,&quot;SF Pro Display&quot;,&quot;SF Pro Text&quot;,Helvetica,sans-serif;text-anchor:middle;" transform="matrix(1 0 0 1 2636.69 322)">Heavy</text>
  <text style="stroke:none;fill:black;font-family:-apple-system,&quot;SF Pro Display&quot;,&quot;SF Pro Text&quot;,Helvetica,sans-serif;text-anchor:middle;" transform="matrix(1 0 0 1 2933.4 322)">Black</text>
  <line id="" style="fill:none;stroke:black;opacity:1;stroke-width:0.5;" x1="263" x2="3036" y1="1903" y2="1903"/>
  <g id="" transform="matrix(1 0 0 1 263 1933)">
   <path d="M9.24805 0.830078C13.5547 0.830078 17.1387-2.74414 17.1387-7.05078C17.1387-11.3574 13.5449-14.9316 9.23828-14.9316C4.94141-14.9316 1.36719-11.3574 1.36719-7.05078C1.36719-2.74414 4.95117 0.830078 9.24805 0.830078ZM9.24805-0.654297C5.70312-0.654297 2.87109-3.49609 2.87109-7.05078C2.87109-10.6055 5.69336-13.4473 9.23828-13.4473C12.793-13.4473 15.6348-10.6055 15.6445-7.05078C15.6543-3.49609 12.8027-0.654297 9.24805-0.654297ZM9.22852-3.62305C9.69727-3.62305 9.9707-3.93555 9.9707-4.45312L9.9707-6.31836L12.002-6.31836C12.5-6.31836 12.832-6.57227 12.832-7.04102C12.832-7.51953 12.5195-7.7832 12.002-7.7832L9.9707-7.7832L9.9707-9.81445C9.9707-10.332 9.69727-10.6543 9.22852-10.6543C8.75977-10.6543 8.50586-10.3125 8.50586-9.81445L8.50586-7.7832L6.49414-7.7832C5.97656-7.7832 5.64453-7.51953 5.64453-7.04102C5.64453-6.57227 5.99609-6.31836 6.49414-6.31836L8.50586-6.31836L8.50586-4.45312C8.50586-3.95508 8.75977-3.62305 9.22852-3.62305Z"/>
  </g>
  <g id="" transform="matrix(1 0 0 1 281.506 1933)">
   <path d="M11.709 2.91016C17.1582 2.91016 21.6699-1.61133 21.6699-7.05078C21.6699-12.5 17.1484-17.0117 11.6992-17.0117C6.25977-17.0117 1.74805-12.5 1.74805-7.05078C1.74805-1.61133 6.26953 2.91016 11.709 2.91016ZM11.709 1.25C7.09961 1.25 3.41797-2.44141 3.41797-7.05078C3.41797-11.6602 7.08984-15.3516 11.6992-15.3516C16.3086-15.3516 20-11.6602 20.0098-7.05078C20.0195-2.44141 16.3184 1.25 11.709 1.25ZM11.6797-2.66602C12.207-2.66602 12.5098-3.01758 12.5098-3.59375L12.5098-6.23047L15.3223-6.23047C15.8691-6.23047 16.25-6.51367 16.25-7.03125C16.25-7.55859 15.8887-7.86133 15.3223-7.86133L12.5098-7.86133L12.5098-10.6836C12.5098-11.25 12.207-11.6113 11.6797-11.6113C11.1621-11.6113 10.8789-11.2305 10.8789-10.6836L10.8789-7.86133L8.07617-7.86133C7.50977-7.86133 7.13867-7.55859 7.13867-7.03125C7.13867-6.51367 7.5293-6.23047 8.07617-6.23047L10.8789-6.23047L10.8789-3.59375C10.8789-3.03711 11.1621-2.66602 11.6797-2.66602Z"/>
  </g>
  <g id="" transform="matrix(1 0 0 1 304.924 1933)">
   <path d="M14.9707 5.66406C21.9336 5.66406 27.6953-0.0976562 27.6953-7.05078C27.6953-14.0137 21.9238-19.7754 14.9609-19.7754C8.00781-19.7754 2.25586-14.0137 2.25586-7.05078C2.25586-0.0976562 8.01758 5.66406 14.9707 5.66406ZM14.9707 3.84766C8.93555 3.84766 4.08203-1.01562 4.08203-7.05078C4.08203-13.0957 8.92578-17.9492 14.9609-17.9492C21.0059-17.9492 25.8594-13.0957 25.8691-7.05078C25.8789-1.01562 21.0156 3.84766 14.9707 3.84766ZM14.9414-1.38672C15.5176-1.38672 15.8594-1.77734 15.8594-2.38281L15.8594-6.13281L19.7754-6.13281C20.3711-6.13281 20.7812-6.46484 20.7812-7.02148C20.7812-7.59766 20.3906-7.93945 19.7754-7.93945L15.8594-7.93945L15.8594-11.8652C15.8594-12.4805 15.5176-12.8711 14.9414-12.8711C14.375-12.8711 14.0527-12.4609 14.0527-11.8652L14.0527-7.93945L10.1465-7.93945C9.53125-7.93945 9.13086-7.59766 9.13086-7.02148C9.13086-6.46484 9.55078-6.13281 10.1465-6.13281L14.0527-6.13281L14.0527-2.38281C14.0527-1.79688 14.375-1.38672 14.9414-1.38672Z"/>
  </g>
  <text style="stroke:none;fill:black;font-family:-apple-system,&quot;SF Pro Display&quot;,&quot;SF Pro Text&quot;,Helvetica,sans-serif;font-weight:bold;" transform="matrix(1 0 0 1 263 1953)">Design Variations</text>
  <text style="stroke:none;fill:black;font-family:-apple-system,&quot;SF Pro Display&quot;,&quot;SF Pro Text&quot;,Helvetica,sans-serif;" transform="matrix(1 0 0 1 263 1971)">Symbols are supported in up to nine weights and three scales.</text>
  <text style="stroke:none;fill:black;font-family:-apple-system,&quot;SF Pro Display&quot;,&quot;SF Pro Text&quot;,Helvetica,sans-serif;" transform="matrix(1 0 0 1 263 1989)">For optimal layout with text and other symbols, vertically align</text>
  <text style="stroke:none;fill:black;font-family:-apple-system,&quot;SF Pro Display&quot;,&quot;SF Pro Text&quot;,Helvetica,sans-serif;" transform="matrix(1 0 0 1 263 2007)">symbols with the adjacent text.</text>
  <line id="" style="fill:none;stroke:#00AEEF;stroke-width:0.5;opacity:1.0;" x1="776" x2="776" y1="1919" y2="1933"/>
  <g id="" transform="matrix(1 0 0 1 776 1933)">
   <path d="M3.31055 0.126953C3.82812 0.126953 4.08203-0.0683594 4.26758-0.605469L5.52734-4.0625L11.2891-4.0625L12.5488-0.605469C12.7344-0.0683594 12.9883 0.126953 13.4961 0.126953C14.0137 0.126953 14.3457-0.185547 14.3457-0.673828C14.3457-0.839844 14.3164-0.986328 14.2383-1.20117L9.6582-13.3887C9.43359-13.9941 9.0332-14.2871 8.4082-14.2871C7.80273-14.2871 7.39258-13.9941 7.17773-13.3984L2.59766-1.19141C2.51953-0.976562 2.49023-0.830078 2.49023-0.664062C2.49023-0.175781 2.80273 0.126953 3.31055 0.126953ZM6.00586-5.53711L8.37891-12.1094L8.42773-12.1094L10.8008-5.53711Z"/>
  </g>
  <line id="" style="fill:none;stroke:#00AEEF;stroke-width:0.5;opacity:1.0;" x1="792.836" x2="792.836" y1="1919" y2="1933"/>
  <text style="stroke:none;fill:black;font-family:-apple-system,&quot;SF Pro Display&quot;,&quot;SF Pro Text&quot;,Helvetica,sans-serif;font-weight:bold;" transform="matrix(1 0 0 1 776 1953)">Margins</text>
  <text style="stroke:none;fill:black;font-family:-apple-system,&quot;SF Pro Display&quot;,&quot;SF Pro Text&quot;,Helvetica,sans-serif;" transform="matrix(1 0 0 1 776 1971)">Leading and trailing margins on the left and right side of each symbol</text>
  <text style="stroke:none;fill:black;font-family:-apple-system,&quot;SF Pro Display&quot;,&quot;SF Pro Text&quot;,Helvetica,sans-serif;" transform="matrix(1 0 0 1 776 1989)">can be adjusted by modifying the x-location of the margin guidelines.</text>
  <text style="stroke:none;fill:black;font-family:-apple-system,&quot;SF Pro Display&quot;,&quot;SF Pro Text&quot;,Helvetica,sans-serif;" transform="matrix(1 0 0 1 776 2007)">Modifications are automatically applied proportionally to all</text>
  <text style="stroke:none;fill:black;font-family:-apple-system,&quot;SF Pro Display&quot;,&quot;SF Pro Text&quot;,Helvetica,sans-serif;" transform="matrix(1 0 0 1 776 2025)">scales and weights.</text>
  <g id="" transform="matrix(1 0 0 1 1289 1933)">
   <path d="M2.8418 1.86523L4.54102 3.57422C5.40039 4.44336 6.38672 4.38477 7.31445 3.35938L17.4902-7.85156C17.7539-7.76367 18.0273-7.7832 18.3398-7.8418L19.4043-8.03711L20.0684-7.36328L20.0293-6.80664C19.9902-6.30859 20.1172-5.92773 20.6055-5.44922L21.3672-4.70703C21.8457-4.22852 22.4609-4.19922 22.9297-4.66797L25.8398-7.58789C26.3086-8.05664 26.2891-8.65234 25.8105-9.13086L25.0391-9.89258C24.5605-10.3711 24.1895-10.5273 23.7109-10.4883L23.1348-10.4395L22.4902-11.0742L22.7344-12.1973C22.8613-12.7637 22.7051-13.2031 22.1191-13.7891L19.9219-15.9766C16.582-19.2969 12.1484-19.2188 9.25781-16.3281C8.83789-15.918 8.80859-15.3418 9.04297-14.9512C9.27734-14.5898 9.73633-14.3555 10.3809-14.5215C11.8457-14.8633 13.3691-14.9219 14.7949-13.9844L14.209-12.5293C14.0137-12.0508 13.9844-11.6504 14.1113-11.2891L3.04688-0.898438C2.06055 0.0195312 1.98242 0.996094 2.8418 1.86523ZM10.752-15.957C13.1836-17.7344 16.4746-17.4316 18.7012-15.2051L21.1328-12.793C21.3672-12.5586 21.4062-12.373 21.3379-12.0312L21.0156-10.5469L22.5195-9.0625L23.5059-9.12109C23.7598-9.13086 23.8379-9.11133 24.0332-8.91602L24.6094-8.33984L22.168-5.89844L21.5918-6.47461C21.3965-6.66992 21.3672-6.74805 21.377-7.01172L21.4453-7.98828L19.9512-9.47266L18.4277-9.21875C18.1055-9.15039 17.959-9.17969 17.7148-9.41406L15.7129-11.416C15.459-11.6504 15.4297-11.8164 15.5859-12.1875L16.4648-14.2773C14.9023-15.7324 12.8711-16.3574 10.8398-15.7617C10.6836-15.7227 10.625-15.8496 10.752-15.957ZM5.27344 2.30469L4.10156 1.14258C3.63281 0.683594 3.74023 0.341797 4.14062-0.0195312L14.9512-10.1953L16.416-8.71094L6.42578 2.27539C6.07422 2.67578 5.74219 2.77344 5.27344 2.30469Z"/>
  </g>
  <text style="stroke:none;fill:black;font-family:-apple-system,&quot;SF Pro Display&quot;,&quot;SF Pro Text&quot;,Helvetica,sans-serif;font-weight:bold;" transform="matrix(1 0 0 1 1289 1953)">Exporting</text>
  <text style="stroke:none;fill:black;font-family:-apple-system,&quot;SF Pro Display&quot;,&quot;SF Pro Text&quot;,Helvetica,sans-serif;" transform="matrix(1 0 0 1 1289 1971)">Symbols should be outlined when exporting to ensure the</text>
  <text style="stroke:none;fill:black;font-family:-apple-system,&quot;SF Pro Display&quot;,&quot;SF Pro Text&quot;,Helvetica,sans-serif;" transform="matrix(1 0 0 1 1289 1989)">design is preserved when submitting to Xcode.</text>
  <text id="template-version" style="stroke:none;fill:black;font-family:-apple-system,&quot;SF Pro Display&quot;,&quot;SF Pro Text&quot;,Helvetica,sans-serif;text-anchor:end;" transform="matrix(1 0 0 1 3036 1933)">Template v.2.0</text>
  <text style="stroke:none;fill:black;font-family:-apple-system,&quot;SF Pro Display&quot;,&quot;SF Pro Text&quot;,Helvetica,sans-serif;text-anchor:end;" transform="matrix(1 0 0 1 3036 1951)">Requires Xcode 12 or greater</text>
  <text style="stroke:none;fill:black;font-family:-apple-system,&quot;SF Pro Display&quot;,&quot;SF Pro Text&quot;,Helvetica,sans-serif;text-anchor:end;" transform="matrix(1 0 0 1 3036 1969)">Generated from scalemass</text>
  <text style="stroke:none;fill:black;font-family:-apple-system,&quot;SF Pro Display&quot;,&quot;SF Pro Text&quot;,Helvetica,sans-serif;text-anchor:end;" transform="matrix(1 0 0 1 3036 1987)">Typeset at 100 points</text>
  <text style="stroke:none;fill:black;font-family:-apple-system,&quot;SF Pro Display&quot;,&quot;SF Pro Text&quot;,Helvetica,sans-serif;" transform="matrix(1 0 0 1 263 726)">Small</text>
  <text style="stroke:none;fill:black;font-family:-apple-system,&quot;SF Pro Display&quot;,&quot;SF Pro Text&quot;,Helvetica,sans-serif;" transform="matrix(1 0 0 1 263 1156)">Medium</text>
  <text style="stroke:none;fill:black;font-family:-apple-system,&quot;SF Pro Display&quot;,&quot;SF Pro Text&quot;,Helvetica,sans-serif;" transform="matrix(1 0 0 1 263 1586)">Large</text>
 </g>
 <g id="Guides">
  <g id="H-reference" style="fill:#27AAE1;stroke:none;" transform="matrix(1 0 0 1 339 696)">
   <path d="M0.976562 0L3.66211 0L12.9883-24.4629L45.752-24.4629L55.127 0L57.7637 0L30.6152-70.459L28.125-70.459ZM29.3457-67.1387L29.4434-67.1387L44.873-26.709L13.8672-26.709Z"/>
  </g>
  <line id="Baseline-S" style="fill:none;stroke:#27AAE1;opacity:1;stroke-width:0.5;" x1="263" x2="3036" y1="696" y2="696"/>
  <line id="Capline-S" style="fill:none;stroke:#27AAE1;opacity:1;stroke-width:0.5;" x1="263" x2="3036" y1="625.541" y2="625.541"/>
  <g id="H-reference" style="fill:#27AAE1;stroke:none;" transform="matrix(1 0 0 1 339 1126)">
   <path d="M0.976562 0L3.66211 0L12.9883-24.4629L45.752-24.4629L55.127 0L57.7637 0L30.6152-70.459L28.125-70.459ZM29.3457-67.1387L29.4434-67.1387L44.873-26.709L13.8672-26.709Z"/>
  </g>
  <line id="Baseline-M" style="fill:none;stroke:#27AAE1;opacity:1;stroke-width:0.5;" x1="263" x2="3036" y1="1126" y2="1126"/>
  <line id="Capline-M" style="fill:none;stroke:#27AAE1;opacity:1;stroke-width:0.5;" x1="263" x2="3036" y1="1055.54" y2="1055.54"/>
  <g id="H-reference" style="fill:#27AAE1;stroke:none;" transform="matrix(1 0 0 1 339 1556)">
   <path d="M0.976562 0L3.66211 0L12.9883-24.4629L45.752-24.4629L55.127 0L57.7637 0L30.6152-70.459L28.125-70.459ZM29.3457-67.1387L29.4434-67.1387L44.873-26.709L13.8672-26.709Z"/>
  </g>
  <line id="Baseline-L" style="fill:none;stroke:#27AAE1;opacity:1;stroke-width:0.5;" x1="263" x2="3036" y1="1556" y2="1556"/>
  <line id="Capline-L" style="fill:none;stroke:#27AAE1;opacity:1;stroke-width:0.5;" x1="263" x2="3036" y1="1485.54" y2="1485.54"/>
  <line id="left-margin" style="fill:none;stroke:#00AEEF;stroke-width:0.5;opacity:1.0;" x1="1389.05" x2="1389.05" y1="1030.79" y2="1150.12"/>
  <line id="right-margin" style="fill:none;stroke:#00AEEF;stroke-width:0.5;opacity:1.0;" x1="1510.64" x2="1510.64" y1="1030.79" y2="1150.12"/>
 </g>
 <g id="Symbols">
  <g id="Black-L" transform="matrix(1 0 0 1 2850.03 1556)">
   <path d="M17.1387 9.47266C13.0859 26.2207 20.6543 36.4746 36.9629 36.4746L129.785 36.4746C146.094 36.4746 153.662 26.2207 149.561 9.47266L135.986-46.2891C133.057-58.5938 124.316-65.1855 111.23-65.1855L93.5059-65.1855L93.5059-69.1895C100.781-72.9004 105.859-80.5176 105.859-89.1113C105.859-101.416 95.5566-111.621 83.3496-111.621C71.1426-111.621 60.9375-101.416 60.9375-89.1113C60.9375-80.5176 66.0156-72.9492 73.2422-69.1895L73.2422-65.1855L55.5176-65.1855C42.3828-65.1855 33.6914-58.5938 30.7129-46.2891ZM83.3496-82.7637C79.9805-82.7637 77.002-85.7422 77.002-89.1113C77.002-92.5293 79.9805-95.5566 83.3496-95.5566C86.8164-95.5566 89.7949-92.5293 89.7949-89.1113C89.7949-85.6934 86.8164-82.7637 83.3496-82.7637ZM37.0605 10.9863L50.1465-41.0156C50.7812-43.6523 52.4902-44.9219 55.3223-44.9219L111.426-44.9219C114.209-44.9219 115.967-43.6523 116.602-41.0156L129.688 10.9863C130.566 14.4043 129.15 16.2109 126.172 16.2109L40.5762 16.2109C37.5977 16.2109 36.1816 14.4043 37.0605 10.9863Z"/>
  </g>
  <g id="Heavy-L" transform="matrix(1 0 0 1 2554.66 1556)">
   <path d="M17.1387 9.76562C13.2812 25.5371 20.2637 35.0098 35.6445 35.0098L128.467 35.0098C143.799 35.0098 150.83 25.5371 146.973 9.76562L133.252-46.0938C130.469-57.666 122.314-63.8672 110.205-63.8672L90.7715-63.8672L90.7715-68.4082C98.1445-71.7773 103.369-79.248 103.369-87.7441C103.369-99.4141 93.6035-109.082 82.0312-109.082C70.459-109.082 60.7422-99.4141 60.7422-87.7441C60.7422-79.248 65.9668-71.8262 73.291-68.457L73.291-63.8672L53.9062-63.8672C41.748-63.8672 33.6426-57.666 30.8105-46.0938ZM82.0312-80.5176C78.1738-80.5176 74.8047-83.8867 74.8047-87.7441C74.8047-91.6504 78.1738-95.0195 82.0312-95.0195C85.9375-95.0195 89.3066-91.6504 89.3066-87.7441C89.3066-83.8379 85.9375-80.5176 82.0312-80.5176ZM34.3262 11.0352L47.5586-41.4062C48.3887-44.7266 50.4883-46.3379 53.9062-46.3379L110.205-46.3379C113.574-46.3379 115.674-44.7266 116.504-41.4062L129.785 11.0352C130.859 15.2832 129.199 17.5293 125.439 17.5293L38.623 17.5293C34.9121 17.5293 33.2031 15.2832 34.3262 11.0352Z"/>
  </g>
  <g id="Bold-L" transform="matrix(1 0 0 1 2259.41 1556)">
   <path d="M17.0898 10.1074C13.4766 24.7559 19.873 33.4473 34.1309 33.4473L126.953 33.4473C141.26 33.4473 147.656 24.7559 144.043 10.1074L130.176-45.8984C127.588-56.543 120.068-62.4023 109.033-62.4023L87.793-62.4023L87.793-67.627C95.2148-70.5566 100.586-77.832 100.586-86.1816C100.586-97.168 91.4551-106.299 80.5664-106.299C69.6777-106.299 60.5469-97.168 60.5469-86.1816C60.5469-77.832 65.918-70.5566 73.3398-67.627L73.3398-62.4023L52.0996-62.4023C41.0645-62.4023 33.5449-56.543 30.9082-45.8984ZM80.5664-78.0762C76.123-78.0762 72.3633-81.8359 72.3633-86.1816C72.3633-90.625 76.123-94.4824 80.5664-94.4824C85.0098-94.4824 88.7695-90.6738 88.7695-86.1816C88.7695-81.7871 85.0098-78.0762 80.5664-78.0762ZM31.25 11.084L44.6777-41.8457C45.7031-45.9473 48.2422-47.9492 52.2949-47.9492L108.789-47.9492C112.891-47.9492 115.381-45.9473 116.406-41.8457L129.883 11.084C131.201 16.2598 129.248 18.9941 124.707 18.9941L36.4258 18.9941C31.8848 18.9941 29.8828 16.2598 31.25 11.084Z"/>
  </g>
  <g id="Semibold-L" transform="matrix(1 0 0 1 1963.73 1556)">
   <path d="M17.041 10.3027C13.623 24.2188 19.5801 32.3242 33.1055 32.3242L125.977 32.3242C139.502 32.3242 145.459 24.2188 141.992 10.3027L128.076-45.752C125.586-55.8105 118.506-61.377 108.252-61.377L85.6934-61.377L85.6934-67.1387C93.2129-69.7266 98.6816-76.9043 98.6816-85.1562C98.6816-95.6543 89.9414-104.346 79.541-104.346C69.0918-104.346 60.4004-95.6055 60.4004-85.1562C60.4004-76.9043 65.918-69.7266 73.3398-67.1387L73.3398-61.377L50.8301-61.377C40.5762-61.377 33.4961-55.8105 31.0059-45.752ZM79.541-76.3672C74.7559-76.3672 70.7031-80.3711 70.7031-85.1562C70.7031-89.9414 74.707-94.043 79.541-94.043C84.3262-94.043 88.4277-89.9902 88.4277-85.1562C88.4277-80.3711 84.375-76.3672 79.541-76.3672ZM29.1016 11.084L42.6758-42.1387C43.8965-46.7773 46.6797-49.0723 51.2207-49.0723L107.861-49.0723C112.402-49.0723 115.186-46.7773 116.357-42.1387L129.932 11.084C131.445 16.9434 129.297 19.9707 124.17 19.9707L34.9121 19.9707C29.7852 19.9707 27.5879 16.9434 29.1016 11.084Z"/>
  </g>
  <g id="Medium-L" transform="matrix(1 0 0 1 1667.8 1556)">
   <path d="M17.041 10.498C13.7207 23.8281 19.3359 31.4941 32.3242 31.4941L125.195 31.4941C138.184 31.4941 143.799 23.8281 140.479 10.498L126.465-45.6055C124.072-55.2734 117.285-60.6445 107.617-60.6445L84.1309-60.6445L84.1309-66.7969C91.6504-69.0918 97.2656-76.1719 97.2656-84.375C97.2656-94.4824 88.7695-102.881 78.7598-102.881C68.7012-102.881 60.3027-94.4336 60.3027-84.375C60.3027-76.1719 65.8691-69.1406 73.3887-66.7969L73.3887-60.6445L49.9023-60.6445C40.1855-60.6445 33.4473-55.2734 31.0547-45.6055ZM78.7598-75.0488C73.6816-75.0488 69.4336-79.2969 69.4336-84.375C69.4336-89.4531 73.6328-93.75 78.7598-93.75C83.8379-93.75 88.1348-89.4531 88.1348-84.375C88.1348-79.2969 83.8867-75.0488 78.7598-75.0488ZM27.4902 11.1328L41.1621-42.3828C42.4805-47.4121 45.459-49.9023 50.3906-49.9023L107.129-49.9023C112.061-49.9023 115.039-47.4121 116.309-42.3828L129.98 11.1328C131.641 17.4805 129.297 20.752 123.779 20.752L33.7402 20.752C28.2227 20.752 25.8789 17.4805 27.4902 11.1328Z"/>
  </g>
  <g id="Regular-L" transform="matrix(1 0 0 1 1372.11 1556)">
   <path d="M17.041 10.6934C13.8672 23.291 19.043 30.4199 31.2988 30.4199L124.17 30.4199C136.426 30.4199 141.65 23.291 138.477 10.6934L124.365-45.459C122.119-54.541 115.771-59.6191 106.836-59.6191L82.0801-59.6191L82.0801-66.3574C89.6484-68.3105 95.3613-75.2441 95.3613-83.3008C95.3613-92.9688 87.3047-100.928 77.7344-100.928C68.1641-100.928 60.1562-92.9199 60.1562-83.3008C60.1562-75.1953 65.8691-68.3105 73.4375-66.3574L73.4375-59.6191L48.6328-59.6191C39.6973-59.6191 33.3984-54.541 31.1035-45.459ZM77.7344-73.3887C72.3145-73.3887 67.7734-77.8809 67.7734-83.3008C67.7734-88.7695 72.2656-93.3594 77.7344-93.3594C83.2031-93.3594 87.7441-88.7695 87.7441-83.3008C87.7441-77.9297 83.2031-73.3887 77.7344-73.3887ZM25.4395 11.1328L39.209-42.6758C40.6738-48.2422 43.9453-50.9766 49.3164-50.9766L106.201-50.9766C111.572-50.9766 114.844-48.2422 116.26-42.6758L130.078 11.1328C131.885 18.1641 129.346 21.7773 123.242 21.7773L32.2754 21.7773C26.123 21.7773 23.6328 18.1641 25.4395 11.1328Z"/>
  </g>
  <g id="Light-L" transform="matrix(1 0 0 1 1076.3 1556)">
   <path d="M16.9922 10.8398C13.9648 22.7051 18.75 29.248 30.3711 29.248L123.291 29.248C134.912 29.248 139.697 22.7051 136.621 10.8398L122.363-45.2637C120.117-53.9551 114.307-58.7402 105.957-58.7402L80.127-58.7402L80.127-65.918C87.8906-67.5293 93.9453-74.4629 93.9453-82.6172C93.9453-91.9434 86.084-99.707 76.8066-99.707C67.5293-99.707 59.7656-91.8945 59.7656-82.6172C59.7656-74.4141 65.7715-67.4805 73.5352-65.918L73.5352-58.7402L47.7051-58.7402C39.3555-58.7402 33.5449-53.9551 31.2988-45.2637ZM76.8066-71.5332C70.752-71.5332 65.7227-76.5137 65.7227-82.6172C65.7227-88.6719 70.7031-93.7988 76.8066-93.7988C82.8613-93.7988 87.9883-88.7207 87.9883-82.6172C87.9883-76.5625 82.9102-71.5332 76.8066-71.5332ZM23.4863 11.0352L37.5977-43.4082C39.1113-49.2188 42.627-52.1484 48.1445-52.1484L105.469-52.1484C111.035-52.1484 114.551-49.2188 116.064-43.4082L130.176 11.0352C132.178 18.7012 129.59 22.6074 122.754 22.6074L30.8594 22.6074C24.0234 22.6074 21.4844 18.7012 23.4863 11.0352Z"/>
  </g>
  <g id="Thin-L" transform="matrix(1 0 0 1 780.812 1556)">
   <path d="M16.9922 10.9863C14.1113 21.9727 18.3105 27.6855 29.1504 27.6855L122.07 27.6855C132.91 27.6855 137.109 21.9727 134.229 10.9863L119.678-44.9219C117.48-53.2227 112.402-57.6172 104.785-57.6172L77.5879-57.6172L77.5879-65.4785C85.6445-66.4551 92.041-73.4863 92.041-81.6895C92.041-90.625 84.4727-98.0957 75.6348-98.0957C66.6504-98.0957 59.2773-90.5762 59.2773-81.6895C59.2773-73.3887 65.6738-66.4551 73.6328-65.4785L73.6328-57.6172L46.4355-57.6172C38.8184-57.6172 33.7402-53.2227 31.543-44.9219ZM75.6348-69.1406C68.75-69.1406 63.0371-74.7559 63.0371-81.6895C63.0371-88.5254 68.6523-94.3359 75.6348-94.3359C82.4707-94.3359 88.2324-88.623 88.2324-81.6895C88.2324-74.8047 82.5684-69.1406 75.6348-69.1406ZM20.8984 10.9375L35.4004-44.3359C37.0605-50.5371 40.8691-53.6621 46.6797-53.6621L104.59-53.6621C110.352-53.6621 114.16-50.5371 115.82-44.3359L130.322 10.9375C132.52 19.3848 129.98 23.7793 122.168 23.7793L29.0527 23.7793C21.2402 23.7793 18.7012 19.3848 20.8984 10.9375Z"/>
  </g>
  <g id="Ultralight-L" transform="matrix(1 0 0 1 484.711 1556)">
   <path d="M16.9922 11.084C14.209 21.582 18.0664 26.9043 28.5156 26.9043L121.484 26.9043C131.885 26.9043 135.791 21.582 133.008 11.084L118.311-44.7754C116.113-52.8809 111.426-57.0312 104.199-57.0312L76.2695-57.0312L76.2695-65.2344C84.4238-65.918 91.0645-72.9492 91.0645-81.2012C91.0645-89.9414 83.6426-97.2656 75-97.2656C66.2109-97.2656 58.9844-89.8438 58.9844-81.2012C58.9844-72.9004 65.625-65.918 73.7305-65.2344L73.7305-57.0312L45.8008-57.0312C38.5742-57.0312 33.8379-52.8809 31.6895-44.7754ZM75-67.8711C67.7246-67.8711 61.6699-73.8281 61.6699-81.2012C61.6699-88.4766 67.627-94.5801 75-94.5801C82.2754-94.5801 88.3789-88.5742 88.3789-81.2012C88.3789-73.9258 82.373-67.8711 75-67.8711ZM19.5801 10.8398L34.3262-44.8242C36.0352-51.1719 39.9414-54.4922 45.8984-54.4922L104.102-54.4922C110.01-54.4922 113.965-51.1719 115.674-44.8242L130.42 10.8398C132.715 19.7754 130.127 24.3652 121.875 24.3652L28.125 24.3652C19.8242 24.3652 17.2363 19.7754 19.5801 10.8398Z"/>
  </g>
  <g id="Black-M" transform="matrix(1 0 0 1 2867.48 1126)">
   <path d="M13.3301-0.878906C9.96094 13.0371 16.3574 21.6309 29.9805 21.6309L101.904 21.6309C115.479 21.6309 121.875 13.0371 118.506-0.878906L108.057-43.9453C105.518-54.3457 98.3398-59.7168 87.1582-59.7168L75.0488-59.7168L75.0488-62.2559C80.7129-65.4785 84.6191-71.582 84.6191-78.4668C84.6191-88.6719 76.0742-97.168 65.918-97.168C55.7617-97.168 47.3145-88.6719 47.3145-78.4668C47.3145-71.582 51.1719-65.5273 56.7871-62.3047L56.7871-59.7168L44.6777-59.7168C33.5449-59.7168 26.3184-54.3457 23.8281-43.9453ZM65.918-74.0723C63.623-74.0723 61.5234-76.1719 61.5234-78.4668C61.5234-80.8105 63.623-82.9102 65.918-82.9102C68.2617-82.9102 70.3613-80.8105 70.3613-78.4668C70.3613-76.123 68.2617-74.0723 65.918-74.0723ZM31.3965 0.488281L41.4551-39.5508C41.748-40.7715 42.7246-41.4551 44.1895-41.4551L87.6953-41.4551C89.1113-41.4551 90.0879-40.7715 90.3809-39.5508L100.488 0.488281C100.928 2.29492 100.146 3.32031 98.4863 3.32031L33.3984 3.32031C31.6895 3.32031 30.9082 2.29492 31.3965 0.488281Z"/>
  </g>
  <g id="Heavy-M" transform="matrix(1 0 0 1 2571.97 1126)">
   <path d="M13.3301-0.585938C10.1074 12.4023 16.0156 20.3613 28.7598 20.3613L100.684 20.3613C113.379 20.3613 119.287 12.4023 116.113-0.585938L105.566-43.7988C103.223-53.4668 96.4844-58.5449 86.2305-58.5449L72.6074-58.5449L72.6074-61.5723C78.3203-64.502 82.2754-70.4102 82.2754-77.1484C82.2754-86.7188 74.2676-94.7266 64.6973-94.7266C55.1758-94.7266 47.2168-86.7188 47.2168-77.1484C47.2168-70.4102 51.123-64.502 56.7871-61.5723L56.7871-58.5449L43.1641-58.5449C32.9102-58.5449 26.1719-53.4668 23.877-43.7988ZM64.6973-72.1191C62.0605-72.1191 59.668-74.5117 59.668-77.1484C59.668-79.834 62.0605-82.2266 64.6973-82.2266C67.4316-82.2266 69.7754-79.834 69.7754-77.1484C69.7754-74.4629 67.4316-72.1191 64.6973-72.1191ZM28.9062 0.585938L39.0625-39.7949C39.5508-41.748 40.8691-42.7246 42.9199-42.7246L86.5234-42.7246C88.5742-42.7246 89.8438-41.748 90.332-39.7949L100.537 0.585938C101.221 3.125 100.146 4.54102 97.8516 4.54102L31.5918 4.54102C29.248 4.54102 28.2227 3.125 28.9062 0.585938Z"/>
  </g>
  <g id="Bold-M" transform="matrix(1 0 0 1 2276.62 1126)">
   <path d="M13.2812-0.292969C10.3027 11.7188 15.6738 18.9453 27.3926 18.9453L99.3164 18.9453C111.035 18.9453 116.406 11.7188 113.428-0.292969L102.783-43.6035C100.635-52.4414 94.4336-57.1777 85.2051-57.1777L69.873-57.1777L69.873-60.8398C75.6348-63.3789 79.6875-69.0918 79.6875-75.6836C79.6875-84.5703 72.2168-91.9922 63.3301-91.9922C54.4922-91.9922 47.0703-84.5703 47.0703-75.6836C47.0703-69.0918 51.123-63.3789 56.8359-60.8398L56.8359-57.1777L41.5039-57.1777C32.2754-57.1777 26.0742-52.4414 23.9258-43.6035ZM63.3301-69.9707C60.2539-69.9707 57.6172-72.6074 57.6172-75.6836C57.6172-78.7598 60.2539-81.4941 63.3301-81.4941C66.4551-81.4941 69.1406-78.7598 69.1406-75.6836C69.1406-72.6074 66.4551-69.9707 63.3301-69.9707ZM26.123 0.634766L36.4258-40.0879C37.1094-42.7734 38.7695-44.0918 41.5039-44.0918L85.2051-44.0918C87.9395-44.0918 89.5996-42.7734 90.2832-40.0879L100.586 0.634766C101.514 4.05273 100.146 5.9082 97.1191 5.9082L29.5898 5.9082C26.5625 5.9082 25.1953 4.05273 26.123 0.634766Z"/>
  </g>
  <g id="Semibold-M" transform="matrix(1 0 0 1 1980.84 1126)">
   <path d="M13.2324-0.0976562C10.4492 11.2793 15.4297 18.0176 26.4648 18.0176L98.3887 18.0176C109.424 18.0176 114.404 11.2793 111.572-0.0976562L100.879-43.5059C98.877-51.709 93.0176-56.25 84.5215-56.25L68.0176-56.25L68.0176-60.3516C73.7305-62.5977 77.8809-68.2129 77.8809-74.6582C77.8809-83.1055 70.8008-90.1367 62.4023-90.1367C54.0039-90.1367 46.9727-83.1055 46.9727-74.6582C46.9727-68.2129 51.123-62.6465 56.8359-60.3516L56.8359-56.25L40.332-56.25C31.7871-56.25 25.9766-51.709 23.9258-43.5059ZM62.4023-68.457C59.0332-68.457 56.2012-71.2891 56.2012-74.6582C56.2012-78.0273 59.0332-80.957 62.4023-80.957C65.8203-80.957 68.7012-78.0762 68.7012-74.6582C68.7012-71.2891 65.8203-68.457 62.4023-68.457ZM24.1699 0.683594L34.5703-40.2344C35.4004-43.5059 37.3535-45.0684 40.5762-45.0684L84.2773-45.0684C87.5-45.0684 89.4531-43.5059 90.2832-40.2344L100.635 0.683594C101.709 4.6875 100.146 6.83594 96.6309 6.83594L28.2227 6.83594C24.707 6.83594 23.1445 4.6875 24.1699 0.683594Z"/>
  </g>
  <g id="Medium-M" transform="matrix(1 0 0 1 1684.84 1126)">
   <path d="M13.2324 0.0976562C10.5469 10.8887 15.2344 17.2363 25.7324 17.2363L97.7051 17.2363C108.203 17.2363 112.842 10.8887 110.205 0.0976562L99.4629-43.4082C97.5098-51.1719 91.9434-55.5664 83.9844-55.5664L66.6016-55.5664L66.6016-60.0098C72.3145-62.0605 76.5137-67.5293 76.5137-73.877C76.5137-81.9824 69.7266-88.7207 61.7188-88.7207C53.6621-88.7207 46.9238-81.9824 46.9238-73.877C46.9238-67.5293 51.123-62.0605 56.8359-60.0098L56.8359-55.5664L39.4043-55.5664C31.4453-55.5664 25.8789-51.1719 23.9746-43.4082ZM61.7188-67.334C58.1055-67.334 55.0781-70.3125 55.0781-73.877C55.0781-77.4902 58.1055-80.5664 61.7188-80.5664C65.332-80.5664 68.3594-77.4902 68.3594-73.877C68.3594-70.3125 65.332-67.334 61.7188-67.334ZM22.7051 0.732422L33.1543-40.3809C34.082-44.043 36.2305-45.8008 39.8438-45.8008L83.5938-45.8008C87.207-45.8008 89.3066-44.043 90.2344-40.3809L100.684 0.732422C101.855 5.17578 100.098 7.51953 96.2402 7.51953L27.1484 7.51953C23.291 7.51953 21.582 5.17578 22.7051 0.732422Z"/>
  </g>
  <g id="Regular-M" transform="matrix(1 0 0 1 1389.05 1126)">
   <path d="M13.2324 0.292969C10.6934 10.4492 14.9902 16.3086 24.8047 16.3086L96.7773 16.3086C106.592 16.3086 110.889 10.4492 108.35 0.292969L97.5586-43.3105C95.752-50.4883 90.5762-54.6387 83.3008-54.6387L64.6973-54.6387L64.6973-59.6191C70.459-61.3281 74.7559-66.6504 74.7559-72.9004C74.7559-80.5176 68.3594-86.8652 60.791-86.8652C53.1738-86.8652 46.8262-80.5176 46.8262-72.9004C46.8262-66.6504 51.123-61.3281 56.8359-59.6191L56.8359-54.6387L38.2812-54.6387C31.0059-54.6387 25.7812-50.4883 24.0234-43.3105ZM60.791-65.8203C56.9336-65.8203 53.6621-69.043 53.6621-72.9004C53.6621-76.7578 56.8848-80.0781 60.791-80.0781C64.6484-80.0781 67.9199-76.7578 67.9199-72.9004C67.9199-69.043 64.6973-65.8203 60.791-65.8203ZM20.8496 0.78125L31.3477-40.5762C32.4219-44.7754 34.8145-46.7773 38.8672-46.7773L82.7148-46.7773C86.7676-46.7773 89.1602-44.7754 90.2344-40.5762L100.732 0.78125C102.051 5.81055 100.098 8.44727 95.752 8.44727L25.7812 8.44727C21.4844 8.44727 19.5312 5.81055 20.8496 0.78125Z"/>
  </g>
  <g id="Light-M" transform="matrix(1 0 0 1 1093.2 1126)">
   <path d="M13.1836 0.390625C10.791 9.91211 14.6484 15.2344 23.9746 15.2344L95.9473 15.2344C105.225 15.2344 109.131 9.91211 106.689 0.390625L95.7031-43.1152C93.9941-50 89.2578-53.8574 82.5195-53.8574L62.9883-53.8574L62.9883-59.2285C68.8965-60.5957 73.4375-65.9668 73.4375-72.2656C73.4375-79.6387 67.2363-85.7422 59.9609-85.7422C52.5879-85.7422 46.4844-79.5898 46.4844-72.2656C46.4844-65.9668 51.0254-60.5957 56.9336-59.2285L56.9336-53.8574L37.4023-53.8574C30.6641-53.8574 25.9277-50 24.1699-43.1152ZM59.9609-64.209C55.5176-64.209 51.8555-67.8223 51.8555-72.2656C51.8555-76.6602 55.5176-80.4199 59.9609-80.4199C64.3555-80.4199 68.0664-76.709 68.0664-72.2656C68.0664-67.8711 64.4043-64.209 59.9609-64.209ZM19.043 0.683594L29.834-41.2109C31.0059-45.6543 33.5938-47.8027 37.8418-47.8027L82.0801-47.8027C86.2793-47.8027 88.8672-45.6543 90.0391-41.2109L100.83 0.683594C102.295 6.29883 100.342 9.22852 95.3613 9.22852L24.5605 9.22852C19.5801 9.22852 17.627 6.29883 19.043 0.683594Z"/>
  </g>
  <g id="Thin-M" transform="matrix(1 0 0 1 797.584 1126)">
   <path d="M13.1348 0.585938C10.8887 9.22852 14.2578 13.8672 22.8027 13.8672L94.873 13.8672C103.418 13.8672 106.787 9.22852 104.541 0.585938L93.3105-42.8223C91.6016-49.3652 87.5-52.832 81.4453-52.832L60.6445-52.832L60.6445-58.7402C66.8457-59.668 71.7285-65.0879 71.7285-71.4355C71.7285-78.4668 65.8203-84.3262 58.8379-84.3262C51.8066-84.3262 45.9961-78.418 45.9961-71.4355C45.9961-65.0391 50.8789-59.668 57.0312-58.7402L57.0312-52.832L36.2305-52.832C30.1758-52.832 26.0742-49.3652 24.3652-42.8223ZM58.8379-62.0117C53.7109-62.0117 49.4141-66.2598 49.4141-71.4355C49.4141-76.5625 53.6621-80.9082 58.8379-80.9082C63.9648-80.9082 68.3105-76.6113 68.3105-71.4355C68.3105-66.3086 64.0137-62.0117 58.8379-62.0117ZM16.6992 0.585938L27.8809-42.0898C29.1504-46.8262 32.0312-49.2188 36.4746-49.2188L81.2012-49.2188C85.6445-49.2188 88.5254-46.8262 89.7949-42.0898L100.977 0.585938C102.588 6.93359 100.635 10.2539 94.7754 10.2539L22.9004 10.2539C17.041 10.2539 15.0879 6.93359 16.6992 0.585938Z"/>
  </g>
  <g id="Ultralight-M" transform="matrix(1 0 0 1 501.435 1126)">
   <path d="M13.1348 0.634766C10.9375 8.88672 14.0625 13.1836 22.2656 13.1836L94.2871 13.1836C102.49 13.1836 105.566 8.88672 103.418 0.634766L92.041-42.6758C90.3809-49.0234 86.6211-52.2949 80.9082-52.2949L59.4727-52.2949L59.4727-58.5449C65.7715-59.1797 70.8496-64.5996 70.8496-70.9961C70.8496-77.832 65.0391-83.5449 58.252-83.5449C51.416-83.5449 45.752-77.7832 45.752-70.9961C45.752-64.5508 50.8301-59.1797 57.0801-58.5449L57.0801-52.2949L35.6445-52.2949C29.9316-52.2949 26.1719-49.0234 24.4629-42.6758ZM58.252-60.8887C52.7344-60.8887 48.1934-65.4297 48.1934-70.9961C48.1934-76.5137 52.6855-81.1523 58.252-81.1523C63.7695-81.1523 68.4082-76.5625 68.4082-70.9961C68.4082-65.4785 63.8672-60.8887 58.252-60.8887ZM15.5273 0.488281L26.9043-42.5293C28.2227-47.4121 31.2012-49.9023 35.7422-49.9023L80.7617-49.9023C85.3516-49.9023 88.3301-47.4121 89.6484-42.5293L101.025 0.488281C102.783 7.27539 100.781 10.791 94.4824 10.791L22.0215 10.791C15.7715 10.791 13.7695 7.27539 15.5273 0.488281Z"/>
  </g>
  <g id="Black-S" transform="matrix(1 0 0 1 2881.84 696)">
   <path d="M10.4492-8.30078C7.8125 2.53906 12.793 9.22852 23.3887 9.22852L79.7363 9.22852C90.332 9.22852 95.3125 2.53906 92.6758-8.30078L84.4727-42.041C82.5195-50.1465 76.9043-54.3457 68.2129-54.3457L58.6426-54.3457L58.6426-56.3477C63.0859-58.8867 66.1133-63.623 66.1133-68.9941C66.1133-76.9531 59.4727-83.5938 51.5625-83.5938C43.6523-83.5938 37.0605-76.9531 37.0605-68.9941C37.0605-63.623 40.0879-58.8867 44.4824-56.3965L44.4824-54.3457L34.9121-54.3457C26.2207-54.3457 20.6055-50.1465 18.6523-42.041ZM51.5625-65.5273C49.7559-65.5273 48.0957-67.1875 48.0957-68.9941C48.0957-70.8496 49.7559-72.5098 51.5625-72.5098C53.418-72.5098 55.0781-70.8496 55.0781-68.9941C55.0781-67.1387 53.418-65.5273 51.5625-65.5273ZM24.4141-7.22656L32.3242-38.623C32.5684-39.6484 33.3496-40.1855 34.5215-40.1855L68.6035-40.1855C69.7754-40.1855 70.5566-39.6484 70.8008-38.623L78.7109-7.22656C79.1016-5.76172 78.4668-4.93164 77.0996-4.93164L26.0254-4.93164C24.6582-4.93164 24.0234-5.76172 24.4141-7.22656Z"/>
  </g>
  <g id="Heavy-S" transform="matrix(1 0 0 1 2585.96 696)">
   <path d="M10.4492-8.10547C7.95898 2.14844 12.5977 8.39844 22.5586 8.39844L78.9062 8.39844C88.8672 8.39844 93.5059 2.14844 91.0156-8.10547L82.7637-41.9434C80.957-49.5117 75.6348-53.5156 67.627-53.5156L56.9824-53.5156L56.9824-55.9082C61.4258-58.2031 64.502-62.793 64.502-68.0664C64.502-75.5859 58.2031-81.8359 50.7324-81.8359C43.2617-81.8359 37.0117-75.5859 37.0117-68.0664C37.0117-62.8418 40.0879-58.2031 44.4824-55.9082L44.4824-53.5156L33.8379-53.5156C25.8301-53.5156 20.5078-49.5117 18.6523-41.9434ZM50.7324-64.209C48.6816-64.209 46.875-66.0156 46.875-68.0664C46.875-70.1172 48.6816-71.9727 50.7324-71.9727C52.7832-71.9727 54.6387-70.1172 54.6387-68.0664C54.6387-66.0156 52.7832-64.209 50.7324-64.209ZM22.7051-7.17773L30.6641-38.7207C31.0547-40.2832 32.0312-41.0156 33.6914-41.0156L67.7734-41.0156C69.3848-41.0156 70.4102-40.2832 70.8008-38.7207L78.7598-7.17773C79.2969-5.17578 78.418-4.10156 76.6602-4.10156L24.8047-4.10156C23.0469-4.10156 22.168-5.17578 22.7051-7.17773Z"/>
  </g>
  <g id="Bold-S" transform="matrix(1 0 0 1 2290.2 696)">
   <path d="M10.4004-7.86133C8.05664 1.66016 12.3047 7.42188 21.6309 7.42188L77.9785 7.42188C87.2559 7.42188 91.5039 1.66016 89.1602-7.86133L80.9082-41.8457C79.1992-48.7793 74.2188-52.5879 66.9434-52.5879L55.0781-52.5879L55.0781-55.4199C59.5215-57.4219 62.6465-61.9141 62.6465-67.041C62.6465-74.0723 56.7871-79.8828 49.8047-79.8828C42.7734-79.8828 36.9629-74.0723 36.9629-67.041C36.9629-61.9141 40.0879-57.4219 44.4824-55.4199L44.4824-52.5879L32.666-52.5879C25.3418-52.5879 20.3613-48.7793 18.7012-41.8457ZM49.8047-62.7441C47.5098-62.7441 45.5078-64.7461 45.5078-67.041C45.5078-69.3359 47.5098-71.3379 49.8047-71.3379C52.0996-71.3379 54.1016-69.3359 54.1016-67.041C54.1016-64.7461 52.0996-62.7441 49.8047-62.7441ZM20.8008-7.12891L28.8086-38.8672C29.2969-40.9668 30.6152-41.9922 32.7148-41.9922L66.8457-41.9922C68.9941-41.9922 70.2637-40.9668 70.8008-38.8672L78.8086-7.12891C79.4434-4.54102 78.3691-3.17383 76.1719-3.17383L23.3887-3.17383C21.1914-3.17383 20.1172-4.54102 20.8008-7.12891Z"/>
  </g>
  <g id="Semibold-S" transform="matrix(1 0 0 1 1994.15 696)">
   <path d="M10.3516-7.71484C8.1543 1.36719 12.1582 6.78711 20.9473 6.78711L77.2949 6.78711C86.1328 6.78711 90.1367 1.36719 87.8906-7.71484L79.5898-41.7969C77.9785-48.291 73.2422-51.9531 66.4551-51.9531L53.8086-51.9531L53.8086-55.0781C58.2031-56.9336 61.377-61.2793 61.377-66.3086C61.377-72.998 55.7617-78.5645 49.1211-78.5645C42.4805-78.5645 36.9141-72.998 36.9141-66.3086C36.9141-61.2793 40.0879-56.9336 44.4824-55.0781L44.4824-51.9531L31.8359-51.9531C25-51.9531 20.2637-48.291 18.7012-41.7969ZM49.1211-61.7676C46.6797-61.7676 44.5801-63.8672 44.5801-66.3086C44.5801-68.7988 46.6797-70.8984 49.1211-70.8984C51.6113-70.8984 53.7109-68.7988 53.7109-66.3086C53.7109-63.8672 51.6113-61.7676 49.1211-61.7676ZM19.4336-7.08008L27.4902-38.9648C28.125-41.4551 29.5898-42.627 32.0801-42.627L66.2109-42.627C68.7012-42.627 70.166-41.4551 70.752-38.9648L78.8086-7.08008C79.5898-4.10156 78.3691-2.53906 75.8301-2.53906L22.4609-2.53906C19.9219-2.53906 18.7012-4.10156 19.4336-7.08008Z"/>
  </g>
  <g id="Medium-S" transform="matrix(1 0 0 1 1697.92 696)">
   <path d="M10.3516-7.61719C8.20312 1.12305 12.0117 6.29883 20.459 6.29883L76.8066 6.29883C85.2539 6.29883 89.0625 1.12305 86.9141-7.61719L78.5645-41.748C77.0508-47.9004 72.5098-51.4648 66.1133-51.4648L52.7832-51.4648L52.7832-54.834C57.2266-56.543 60.4004-60.791 60.4004-65.7715C60.4004-72.2168 55.0293-77.5391 48.6328-77.5391C42.2363-77.5391 36.8652-72.2168 36.8652-65.7715C36.8652-60.791 40.0879-56.543 44.4824-54.834L44.4824-51.4648L31.2012-51.4648C24.7559-51.4648 20.2148-47.9004 18.7012-41.748ZM48.6328-60.9863C46.0449-60.9863 43.8477-63.1836 43.8477-65.7715C43.8477-68.3594 46.0449-70.6055 48.6328-70.6055C51.2207-70.6055 53.4668-68.3594 53.4668-65.7715C53.4668-63.1836 51.2695-60.9863 48.6328-60.9863ZM18.457-7.03125L26.5137-39.0137C27.1973-41.7969 28.8086-43.1152 31.5918-43.1152L65.7227-43.1152C68.457-43.1152 70.0684-41.7969 70.752-39.0137L78.8086-7.03125C79.6875-3.75977 78.3203-2.05078 75.5371-2.05078L21.7285-2.05078C18.9453-2.05078 17.5781-3.75977 18.457-7.03125Z"/>
  </g>
  <g id="Regular-S" transform="matrix(1 0 0 1 1401.85 696)">
   <path d="M10.3516-7.4707C8.30078 0.78125 11.8652 5.66406 19.8242 5.66406L76.1719 5.66406C84.1309 5.66406 87.6953 0.78125 85.6445-7.4707L77.2949-41.6504C75.8789-47.4121 71.5332-50.8301 65.625-50.8301L51.5137-50.8301L51.5137-54.541C55.9082-56.0547 59.1309-60.2051 59.1309-65.0391C59.1309-71.1426 54.0527-76.2207 47.998-76.2207C41.9434-76.2207 36.8164-71.1426 36.8164-65.0391C36.8164-60.2051 40.0879-56.0547 44.4824-54.541L44.4824-50.8301L30.3711-50.8301C24.4141-50.8301 20.1172-47.4121 18.7012-41.6504ZM47.998-60.0098C45.2148-60.0098 42.9199-62.3047 42.9199-65.0391C42.9199-67.8223 45.2148-70.166 47.998-70.166C50.7812-70.166 53.0762-67.8223 53.0762-65.0391C53.0762-62.3047 50.7812-60.0098 47.998-60.0098ZM17.1387-6.98242L25.2441-39.1113C26.0254-42.2852 27.832-43.75 30.9082-43.75L65.0879-43.75C68.1641-43.75 69.9707-42.2852 70.752-39.1113L78.8574-6.98242C79.7852-3.27148 78.2715-1.41602 75.1953-1.41602L20.8008-1.41602C17.7246-1.41602 16.2109-3.27148 17.1387-6.98242Z"/>
  </g>
  <g id="Light-S" transform="matrix(1 0 0 1 1105.87 696)">
   <path d="M10.3027-7.37305C8.39844 0.341797 11.5723 4.73633 19.0918 4.73633L75.4395 4.73633C82.959 4.73633 86.1328 0.341797 84.2285-7.37305L75.6836-41.4551C74.3164-46.9727 70.4102-50.0977 64.9414-50.0977L50-50.0977L50-54.1504C54.541-55.3711 58.0078-59.5703 58.0078-64.502C58.0078-70.3613 53.0762-75.2441 47.2656-75.2441C41.4062-75.2441 36.5234-70.3613 36.5234-64.502C36.5234-59.5703 39.9902-55.3711 44.5312-54.1504L44.5312-50.0977L29.5898-50.0977C24.1211-50.0977 20.2148-46.9727 18.8477-41.4551ZM47.2656-58.5449C43.9941-58.5449 41.3086-61.2305 41.3086-64.502C41.3086-67.7246 43.9941-70.5078 47.2656-70.5078C50.5371-70.5078 53.2715-67.7734 53.2715-64.502C53.2715-61.2793 50.5371-58.5449 47.2656-58.5449ZM15.5762-7.08008L23.9258-39.6973C24.8047-43.0664 26.7578-44.6777 30.0293-44.6777L64.502-44.6777C67.7734-44.6777 69.7266-43.0664 70.6055-39.6973L78.9551-7.08008C80.0293-2.88086 78.5156-0.683594 74.8535-0.683594L19.6777-0.683594C16.0156-0.683594 14.502-2.88086 15.5762-7.08008Z"/>
  </g>
  <g id="Thin-S" transform="matrix(1 0 0 1 810.109 696)">
   <path d="M10.3027-7.22656C8.49609-0.244141 11.2305 3.51562 18.1152 3.51562L74.5117 3.51562C81.3477 3.51562 84.082-0.244141 82.3242-7.22656L73.5352-41.2109C72.2168-46.4355 68.8965-49.2188 64.0137-49.2188L47.9492-49.2188L47.9492-53.7598C52.7344-54.541 56.4941-58.7891 56.4941-63.7695C56.4941-69.3359 51.8066-73.9746 46.2891-73.9746C40.7715-73.9746 36.1328-69.2871 36.1328-63.7695C36.1328-58.7402 39.8926-54.541 44.6777-53.7598L44.6777-49.2188L28.6133-49.2188C23.7305-49.2188 20.4102-46.4355 19.043-41.2109ZM46.2891-56.6406C42.4316-56.6406 39.1602-59.8145 39.1602-63.7695C39.1602-67.627 42.3828-70.8984 46.2891-70.8984C50.1953-70.8984 53.4668-67.6758 53.4668-63.7695C53.4668-59.8633 50.2441-56.6406 46.2891-56.6406ZM13.5254-7.17773L22.2168-40.4297C23.1934-44.0918 25.3906-45.8984 28.8086-45.8984L63.7695-45.8984C67.2363-45.8984 69.4336-44.0918 70.4102-40.4297L79.0527-7.17773C80.3223-2.29492 78.7598 0.195312 74.3652 0.195312L18.2617 0.195312C13.8184 0.195312 12.3047-2.29492 13.5254-7.17773Z"/>
  </g>
  <g id="Ultralight-S" transform="matrix(1 0 0 1 513.91 696)">
   <path d="M10.3027-7.12891C8.59375-0.585938 11.084 2.88086 17.5781 2.88086L74.0234 2.88086C80.5664 2.88086 83.0566-0.585938 81.2988-7.12891L72.4609-41.1133C71.1426-46.0938 68.1152-48.7305 63.5254-48.7305L46.9238-48.7305L46.9238-53.5645C51.8066-54.1016 55.7129-58.3984 55.7129-63.3789C55.7129-68.7988 51.1719-73.291 45.8008-73.291C40.3809-73.291 35.9375-68.75 35.9375-63.3789C35.9375-58.3496 39.8438-54.1016 44.7266-53.5645L44.7266-48.7305L28.0762-48.7305C23.5352-48.7305 20.459-46.0938 19.1406-41.1133ZM45.8008-55.6641C41.6016-55.6641 38.0859-59.082 38.0859-63.3789C38.0859-67.5781 41.5527-71.1426 45.8008-71.1426C50.0488-71.1426 53.5645-67.627 53.5645-63.3789C53.5645-59.1309 50.0977-55.6641 45.8008-55.6641ZM12.5-7.22656L21.3379-40.8203C22.3633-44.6289 24.6582-46.5332 28.2227-46.5332L63.4277-46.5332C66.9434-46.5332 69.2871-44.6289 70.2637-40.8203L79.1504-7.22656C80.4688-2.00195 78.9062 0.683594 74.1211 0.683594L17.4805 0.683594C12.6953 0.683594 11.1328-2.00195 12.5-7.22656Z"/>
  </g>
 </g>
</svg>
