<?xml version="1.0" encoding="UTF-8" standalone="no"?>
<!DOCTYPE svg PUBLIC "-//W3C//DTD SVG 1.1//EN" "http://www.w3.org/Graphics/SVG/1.1/DTD/svg11.dtd">
<svg width="100%" height="100%" viewBox="0 0 1906 502" version="1.1" xmlns="http://www.w3.org/2000/svg" xmlns:xlink="http://www.w3.org/1999/xlink" xml:space="preserve" xmlns:serif="http://www.serif.com/" style="fill-rule:evenodd;clip-rule:evenodd;stroke-linejoin:round;stroke-miterlimit:2;">
    <g transform="matrix(0.989801,-0.142458,0.142458,0.989801,-255.408,119.944)">
        <path d="M1474.85,217.186C1475.04,216.585 1475.42,215.862 1476.12,215.134C1477.93,213.258 1482.37,210.019 1489.62,209.334C1495.31,208.796 1502.83,209.848 1512.22,214.654C1523.96,220.662 1531.7,224.732 1537.71,228.51C1543.86,232.378 1548.23,235.957 1553.13,240.928C1558.44,246.313 1568.49,258.611 1578.66,272.49C1586.85,283.662 1595.12,295.858 1601.07,306.276C1601.86,307.665 1602.64,309.065 1603.41,310.469C1620.9,314.463 1636.61,318.101 1648.64,320.993C1659.33,323.563 1667.14,325.561 1670.8,326.708L1671.37,326.894C1685.26,313.412 1698.02,298.728 1701.01,292.916C1704.62,285.899 1709.77,278.901 1718.83,274.47C1727.05,270.442 1738.68,268.522 1755.78,271.237C1772.6,273.929 1845.69,302.829 1918.06,334.777C1986.66,365.064 2054.58,398.119 2073.76,413.472C2074.35,413.952 2074.85,414.542 2075.23,415.209C2077.09,418.521 2077.14,421.585 2076.08,424.286C2075.02,426.961 2072.51,429.628 2068,431.405C2060.63,434.303 2045.81,435.33 2024.99,433.06C2018.83,433.593 2005.55,431.8 1987.55,428.052C1952.56,420.763 1898.71,406.485 1845.23,391.344C1780.74,373.089 1716.79,353.576 1687.08,343.828C1679.52,341.347 1674.13,339.475 1671.45,338.4L1669.92,339.774C1656.48,351.754 1642.99,360.86 1636.08,360.955C1629.08,361.047 1622.85,356.785 1617.23,349.464C1611.43,341.907 1606.09,331.005 1600.3,319.811C1560.39,310.346 1511.37,298.97 1475.71,290.441C1455.37,285.576 1439.36,281.627 1431.81,279.494C1429.38,278.808 1427.74,278.273 1426.99,277.945L1426.92,277.912C1422.46,282.739 1416.12,289.165 1409.85,291.473C1403.6,293.776 1397.28,292.539 1392.68,282.622C1390.38,277.654 1390.01,273.167 1390.89,269.163C1334.49,256.86 1227.5,235.074 1179.22,225.891C1168.61,223.873 1160.85,222.463 1157.11,221.904C1156.16,221.763 1155.18,221.663 1155.18,221.663C1155.18,221.663 1155.74,221.577 1155.85,221.539C1155.25,221.74 1146.31,220.868 1131.92,218.87C1088.1,212.786 990.777,198.276 927.786,190.019C898.337,186.159 876.425,183.649 871.088,184.059C870.503,184.107 869.99,183.672 869.941,183.088C869.893,182.503 870.328,181.99 870.912,181.941C876.288,181.465 898.408,183.688 928.134,187.237C991.222,194.768 1088.7,208.204 1132.6,213.806C1145.59,215.464 1153.6,216.647 1154.15,216.461C1154.74,216.259 1163.47,217.368 1177.5,219.865C1219.99,227.43 1314.36,245.539 1374.66,257.794C1381.66,259.215 1388.2,260.558 1394.15,261.801C1401.71,250.641 1418.66,244.994 1418.66,244.994C1419.21,244.806 1419.82,245.104 1420.01,245.659C1420.19,246.215 1419.9,246.818 1419.34,247.006C1419.34,247.006 1404.16,252.24 1396.89,262.373C1409.01,264.909 1418.42,266.967 1423.89,268.305C1426.56,268.959 1428.37,269.474 1429.2,269.792L1429.47,269.906C1429.61,269.776 1429.74,269.663 1429.85,269.569C1433.44,266.645 1460.32,235.04 1470.89,222.043C1472.76,219.747 1474.11,218.042 1474.71,217.197C1474.79,217.089 1474.88,216.939 1474.88,216.939L1474.85,217.186ZM2063.27,420.546C2041.19,404.571 1977.58,373.717 1913.54,344.928C1842.43,312.962 1770.77,283.556 1754.22,280.763C1742.77,278.815 1734.16,279.15 1727.57,281.049C1717.47,283.955 1712.44,290.575 1708.99,297.084C1705.95,302.844 1693.76,316.961 1679.97,330.39C1684.06,331.79 1689.95,333.693 1697.29,336.002C1742.17,350.111 1840.87,378.97 1919.03,399.234C1970.72,412.636 2013.16,422.551 2024.18,421.029C2024.67,420.961 2025.17,420.955 2025.67,421.01C2041.36,422.779 2053.25,422.731 2060.57,421.116C2061.41,420.93 2062.41,420.743 2063.27,420.546ZM2064.62,420.178C2065.22,419.964 2065.49,419.733 2065.13,419.474C2064.85,419.267 2064.65,419.683 2064.62,420.178ZM1609.58,322.019C1614.17,330.695 1618.57,338.824 1623.26,344.767C1627.18,349.729 1631.12,353.173 1635.92,353.045C1638.06,352.988 1640.9,351.531 1644.29,349.431C1649.67,346.094 1656.05,340.972 1662.57,335.123C1659.55,334.292 1655.66,333.279 1651.06,332.113C1640.4,329.416 1625.99,325.927 1609.58,322.019ZM1393.56,269.748C1392.86,273.229 1393.26,277.109 1395.32,281.378C1399.04,289.105 1403.84,290.35 1408.72,288.465C1414.07,286.4 1419.38,281.142 1423.44,276.643C1419.08,275.478 1411.01,273.605 1400.31,271.231L1393.56,269.748ZM1594.17,308.365C1588.54,298.373 1580.94,286.874 1573.4,276.29C1563.64,262.582 1553.99,250.408 1548.87,245.072C1544.36,240.374 1540.33,236.982 1534.65,233.297C1528.8,229.503 1521.24,225.408 1509.78,219.346C1503.32,215.93 1497.87,214.51 1493.39,214.267C1486.14,213.875 1481.6,216.568 1479.75,218.299C1479.46,218.561 1479.16,218.924 1479.16,218.924C1479.16,218.924 1479.22,218.529 1479.27,218.137C1479.17,218.726 1478.87,219.611 1478.1,220.602C1476.74,222.345 1473.76,225.905 1469.92,230.382C1458.35,243.891 1439.02,265.771 1433.35,271.328C1437,272.343 1443.06,273.844 1450.91,275.718C1482.85,283.343 1544.11,296.974 1594.17,308.365Z" style="fill:white;"/>
        <path d="M487.013,120.001L486.948,120.01C486.948,120.01 488.588,118.475 490.196,117.11C496.642,111.638 511.083,101.596 532.509,104.359C544.944,105.963 559.791,111.915 576.807,125.813C593.9,139.774 605.61,158.393 613.611,177.668C630.041,217.25 630.755,259.576 630.743,269.187C640.778,271.458 650.765,273.775 660.613,276.059C666.041,273.588 674.208,271.75 687.516,275.525C695.044,277.66 704.392,281.732 716.056,288.874L779.813,303.65L909.637,335.106C912.199,331.79 914.738,328.485 917.292,325.262C928.705,310.879 946.774,285.903 964.37,270.275C975.109,260.737 985.953,254.785 995.132,254.992C1004.28,255.198 1014.3,261.476 1023.73,271.282C1039.43,287.602 1054.27,313.473 1063.03,327.942C1070.18,339.757 1073.84,355.675 1079.94,368.032C1081.52,371.215 1083.25,374.147 1085.34,376.595L1094.48,378.625C1112.57,382.619 1130.04,386.4 1144.83,389.513L1146.66,389.414C1163.14,388.46 1185.03,378.358 1202.12,373.915C1208.11,372.361 1213.57,371.458 1218.15,371.601C1225.9,371.843 1236.22,374.732 1243.91,379.222C1251.48,383.636 1256.31,389.794 1256.29,396C1256.28,400.762 1252.54,405.47 1245.89,408.578C1237.99,412.275 1225.99,414.277 1217.95,414.172C1211.73,414.09 1203.98,412.974 1195.48,411.289C1180.9,408.397 1163.99,403.842 1148.92,400.461C1148.39,400.511 1147.86,400.553 1147.34,400.586C1135.08,401.361 1121.04,401.372 1108.43,399.23C1098.56,397.552 1089.54,394.516 1082.68,389.71C1080.48,388.17 1078.5,386.33 1076.69,384.241C1063.88,381.288 1051.07,378.292 1038.97,375.416L928.042,347.97L916.984,345.194C911.237,352.565 905.337,359.915 898.907,366.533C891.675,373.977 883.778,380.505 874.77,385.246C861.986,391.967 844.971,400.127 828.347,403.108C815.911,405.337 803.688,404.679 793.283,399.086C785.766,395.046 780.043,388.873 774.803,380.983C762.741,362.82 753.173,334.765 722.528,306.244C712.824,299.302 704.576,294.339 697.529,290.881L685.319,287.934C680.284,286.742 675.188,285.52 670.042,284.281C664.877,285.045 661.771,287.267 659.569,288.51C658.942,288.864 658.183,289.968 657.094,291.396C653.768,295.758 649.285,302.927 644.709,310.751C635.26,326.906 625.18,345.783 624.875,348.118C624.518,350.843 615.028,371.397 604.413,389.039C597.964,399.757 591.102,409.387 585.888,413.567C577.243,420.498 571.783,418.973 569.202,416.755C566.546,414.473 565.65,410.263 566.403,407.041C566.851,405.122 567.837,403.608 568.955,402.67C569.305,402.107 570.675,399.883 571.84,397.755C578.54,385.519 592.275,357.747 601.837,340.258C606.586,331.571 610.688,325.347 612.501,323.806C612.618,323.601 613.239,322.502 613.588,321.624C615.132,317.736 616.673,311.376 618.072,304.47C620.532,292.323 622.529,278.505 623.098,273.04C610.218,270.032 597.29,267.127 584.499,264.489C569.613,261.42 551.264,257.853 531.53,254.095C496.171,247.36 456.371,240.015 424.072,233.836C410.021,253.914 393.856,275.629 393.856,275.629C393.509,276.101 392.844,276.203 392.371,275.856C391.899,275.509 391.797,274.844 392.144,274.371C392.144,274.371 407.476,253.196 421.066,233.263L407.681,230.677C386.45,226.53 365.322,222.916 344.026,219.813C322.903,216.734 301.616,214.156 279.903,212.058C279.319,212.004 278.889,211.487 278.942,210.903C278.996,210.319 279.513,209.889 280.097,209.942C301.87,211.827 323.22,214.196 344.412,217.069C365.787,219.967 386.998,223.379 408.319,227.323C413.06,228.202 418.053,229.117 423.244,230.06C424.983,227.495 426.677,224.968 428.287,222.533C433.195,215.112 437.333,208.541 439.622,204.23C440.698,202.203 441.505,200.905 441.38,200.365C441.207,199.621 441.59,197.723 442.739,195.038C445.803,187.878 453.876,173.433 462.25,159.16C470.605,144.918 479.257,130.849 483.49,124.396C484.643,122.637 485.491,121.42 485.935,120.873C486.289,120.437 486.661,120.165 487.013,120.001ZM630.439,274.766C629.652,282.346 627.379,298.984 624.63,311.735C623.362,317.618 621.968,322.694 620.607,325.803C619.602,328.1 618.389,329.57 617.376,330.299L617.385,330.306C617.452,330.367 617.247,330.39 617.2,330.42L617.376,330.299C616.481,329.506 615.377,333.111 613.874,335.681C605.33,350.3 588.707,384.89 580.543,400.385C578.62,404.036 577.116,406.688 576.257,407.916C575.893,408.437 575.535,408.838 575.214,409.143L575.22,409.372C575.94,409.104 577.142,408.6 578.161,407.905C578.774,407.487 579.422,406.997 580.112,406.433C584.741,402.65 590.609,393.84 596.291,384.202C605.845,367.996 614.82,349.375 615.125,346.882C615.438,344.331 625.738,323.364 635.92,305.654C640.684,297.367 645.378,289.785 648.85,285.159C650.553,282.891 652.12,281.245 653.348,280.252L640.25,277.099C637.692,276.489 635.134,275.879 632.577,275.27L630.439,274.766ZM730.683,298.884C740.072,307.616 747.566,316.307 753.797,324.699C765.495,340.452 772.679,355.128 779.586,367.027C785.235,376.76 790.511,384.557 798.717,388.914C806.897,393.257 816.516,393.39 826.258,391.6C841.672,388.768 857.39,381.033 869.23,374.754C877.125,370.572 883.998,364.768 890.331,358.219C895.239,353.144 899.824,347.623 904.267,342.002L778.187,310.35L730.683,298.884ZM1171.01,395.438C1180.05,397.575 1189.12,399.698 1197.43,401.285C1205.24,402.776 1212.34,403.794 1218.05,403.828C1222.88,403.858 1229.4,402.978 1235.16,401.339C1238.58,400.369 1241.72,399.151 1243.96,397.618C1244.78,397.051 1245.71,396.746 1245.71,396C1245.7,394.685 1244.86,393.537 1243.79,392.4C1241.75,390.226 1238.72,388.361 1235.37,386.81C1229.7,384.192 1223.05,382.534 1217.85,382.399C1214.13,382.303 1209.73,383.154 1204.89,384.438C1194.59,387.172 1182.6,391.816 1171.01,395.438ZM1069.46,373.047C1063.49,361.025 1059.96,345.526 1052.97,334.058C1045.65,322.062 1034.02,301.908 1021.24,286.49C1016.2,280.409 1011,275.072 1005.8,271.433C1002.08,268.83 998.44,267.084 994.868,267.008C991.132,266.929 987.123,268.642 982.889,271.258C977.159,274.798 971.212,280.049 965.302,286.063C950.589,301.037 936.27,320.703 926.708,332.738C925.276,334.538 923.848,336.363 922.419,338.203L929.958,340.03L1041.03,366.584C1050.2,368.696 1059.78,370.873 1069.46,373.047ZM623.305,267.512C623.353,255.667 622.422,216.753 607.692,180.086C600.27,161.61 589.345,143.692 573.193,130.187C557.343,116.935 543.498,111.08 531.824,109.432C512.33,106.682 499.075,115.709 493.137,120.62C491.513,121.963 490.412,123.013 489.854,123.475C489.68,123.618 489.509,123.737 489.343,123.832L489.292,123.893C488.644,124.722 487.393,126.546 485.709,129.099C478.038,140.728 461.637,167.108 451.984,184.495C447.552,192.477 444.328,198.295 444.62,199.635C444.733,200.151 444.656,201.09 444.157,202.346C443.073,205.073 439.976,210.253 435.787,216.65C433.016,220.881 429.765,225.658 426.321,230.616C458.382,236.433 497.526,243.283 532.367,249.586C552.162,253.168 570.568,256.574 585.501,259.511C598.027,261.975 610.686,264.692 623.305,267.512Z" style="fill:white;"/>
    </g>
</svg>
