<?xml version="1.0" encoding="UTF-8"?>
<!--Generator: Apple Native CoreSVG 149-->
<!DOCTYPE svg
PUBLIC "-//W3C//DTD SVG 1.1//EN"
       "http://www.w3.org/Graphics/SVG/1.1/DTD/svg11.dtd">
<svg version="1.1" xmlns="http://www.w3.org/2000/svg" xmlns:xlink="http://www.w3.org/1999/xlink" width="3300" height="2200">
 <!--glyph: "uni1001FF.medium", point size: 100.000000, font version: "Version 16.0d12e3", template writer version: "8"-->
 <g id="Notes">
  <rect height="2200" id="artboard" style="fill:white;opacity:1" width="3300" x="0" y="0"/>
  <line id="" style="fill:none;stroke:black;opacity:1;stroke-width:0.5;" x1="263" x2="3036" y1="292" y2="292"/>
  <text style="stroke:none;fill:black;font-family:-apple-system,&quot;SF Pro Display&quot;,&quot;SF Pro Text&quot;,Helvetica,sans-serif;font-weight:bold;" transform="matrix(1 0 0 1 263 322)">Weight/Scale Variations</text>
  <text style="stroke:none;fill:black;font-family:-apple-system,&quot;SF Pro Display&quot;,&quot;SF Pro Text&quot;,Helvetica,sans-serif;text-anchor:middle;" transform="matrix(1 0 0 1 559.711 322)">Ultralight</text>
  <text style="stroke:none;fill:black;font-family:-apple-system,&quot;SF Pro Display&quot;,&quot;SF Pro Text&quot;,Helvetica,sans-serif;text-anchor:middle;" transform="matrix(1 0 0 1 856.422 322)">Thin</text>
  <text style="stroke:none;fill:black;font-family:-apple-system,&quot;SF Pro Display&quot;,&quot;SF Pro Text&quot;,Helvetica,sans-serif;text-anchor:middle;" transform="matrix(1 0 0 1 1153.13 322)">Light</text>
  <text style="stroke:none;fill:black;font-family:-apple-system,&quot;SF Pro Display&quot;,&quot;SF Pro Text&quot;,Helvetica,sans-serif;text-anchor:middle;" transform="matrix(1 0 0 1 1449.84 322)">Regular</text>
  <text style="stroke:none;fill:black;font-family:-apple-system,&quot;SF Pro Display&quot;,&quot;SF Pro Text&quot;,Helvetica,sans-serif;text-anchor:middle;" transform="matrix(1 0 0 1 1746.56 322)">Medium</text>
  <text style="stroke:none;fill:black;font-family:-apple-system,&quot;SF Pro Display&quot;,&quot;SF Pro Text&quot;,Helvetica,sans-serif;text-anchor:middle;" transform="matrix(1 0 0 1 2043.27 322)">Semibold</text>
  <text style="stroke:none;fill:black;font-family:-apple-system,&quot;SF Pro Display&quot;,&quot;SF Pro Text&quot;,Helvetica,sans-serif;text-anchor:middle;" transform="matrix(1 0 0 1 2339.98 322)">Bold</text>
  <text style="stroke:none;fill:black;font-family:-apple-system,&quot;SF Pro Display&quot;,&quot;SF Pro Text&quot;,Helvetica,sans-serif;text-anchor:middle;" transform="matrix(1 0 0 1 2636.69 322)">Heavy</text>
  <text style="stroke:none;fill:black;font-family:-apple-system,&quot;SF Pro Display&quot;,&quot;SF Pro Text&quot;,Helvetica,sans-serif;text-anchor:middle;" transform="matrix(1 0 0 1 2933.4 322)">Black</text>
  <line id="" style="fill:none;stroke:black;opacity:1;stroke-width:0.5;" x1="263" x2="3036" y1="1903" y2="1903"/>
  <g id="" transform="matrix(1 0 0 1 263 1933)">
   <path d="M9.24805 0.830078C13.5547 0.830078 17.1387-2.74414 17.1387-7.05078C17.1387-11.3574 13.5449-14.9316 9.23828-14.9316C4.94141-14.9316 1.36719-11.3574 1.36719-7.05078C1.36719-2.74414 4.95117 0.830078 9.24805 0.830078ZM9.24805-0.654297C5.70312-0.654297 2.87109-3.49609 2.87109-7.05078C2.87109-10.6055 5.69336-13.4473 9.23828-13.4473C12.793-13.4473 15.6348-10.6055 15.6445-7.05078C15.6543-3.49609 12.8027-0.654297 9.24805-0.654297ZM9.22852-3.62305C9.69727-3.62305 9.9707-3.93555 9.9707-4.45312L9.9707-6.31836L12.002-6.31836C12.5-6.31836 12.832-6.57227 12.832-7.04102C12.832-7.51953 12.5195-7.7832 12.002-7.7832L9.9707-7.7832L9.9707-9.81445C9.9707-10.332 9.69727-10.6543 9.22852-10.6543C8.75977-10.6543 8.50586-10.3125 8.50586-9.81445L8.50586-7.7832L6.49414-7.7832C5.97656-7.7832 5.64453-7.51953 5.64453-7.04102C5.64453-6.57227 5.99609-6.31836 6.49414-6.31836L8.50586-6.31836L8.50586-4.45312C8.50586-3.95508 8.75977-3.62305 9.22852-3.62305Z"/>
  </g>
  <g id="" transform="matrix(1 0 0 1 281.506 1933)">
   <path d="M11.709 2.91016C17.1582 2.91016 21.6699-1.61133 21.6699-7.05078C21.6699-12.5 17.1484-17.0117 11.6992-17.0117C6.25977-17.0117 1.74805-12.5 1.74805-7.05078C1.74805-1.61133 6.26953 2.91016 11.709 2.91016ZM11.709 1.25C7.09961 1.25 3.41797-2.44141 3.41797-7.05078C3.41797-11.6602 7.08984-15.3516 11.6992-15.3516C16.3086-15.3516 20-11.6602 20.0098-7.05078C20.0195-2.44141 16.3184 1.25 11.709 1.25ZM11.6797-2.66602C12.207-2.66602 12.5098-3.01758 12.5098-3.59375L12.5098-6.23047L15.3223-6.23047C15.8691-6.23047 16.25-6.51367 16.25-7.03125C16.25-7.55859 15.8887-7.86133 15.3223-7.86133L12.5098-7.86133L12.5098-10.6836C12.5098-11.25 12.207-11.6113 11.6797-11.6113C11.1621-11.6113 10.8789-11.2305 10.8789-10.6836L10.8789-7.86133L8.07617-7.86133C7.50977-7.86133 7.13867-7.55859 7.13867-7.03125C7.13867-6.51367 7.5293-6.23047 8.07617-6.23047L10.8789-6.23047L10.8789-3.59375C10.8789-3.03711 11.1621-2.66602 11.6797-2.66602Z"/>
  </g>
  <g id="" transform="matrix(1 0 0 1 304.924 1933)">
   <path d="M14.9707 5.66406C21.9336 5.66406 27.6953-0.0976562 27.6953-7.05078C27.6953-14.0137 21.9238-19.7754 14.9609-19.7754C8.00781-19.7754 2.25586-14.0137 2.25586-7.05078C2.25586-0.0976562 8.01758 5.66406 14.9707 5.66406ZM14.9707 3.84766C8.93555 3.84766 4.08203-1.01562 4.08203-7.05078C4.08203-13.0957 8.92578-17.9492 14.9609-17.9492C21.0059-17.9492 25.8594-13.0957 25.8691-7.05078C25.8789-1.01562 21.0156 3.84766 14.9707 3.84766ZM14.9414-1.38672C15.5176-1.38672 15.8594-1.77734 15.8594-2.38281L15.8594-6.13281L19.7754-6.13281C20.3711-6.13281 20.7812-6.46484 20.7812-7.02148C20.7812-7.59766 20.3906-7.93945 19.7754-7.93945L15.8594-7.93945L15.8594-11.8652C15.8594-12.4805 15.5176-12.8711 14.9414-12.8711C14.375-12.8711 14.0527-12.4609 14.0527-11.8652L14.0527-7.93945L10.1465-7.93945C9.53125-7.93945 9.13086-7.59766 9.13086-7.02148C9.13086-6.46484 9.55078-6.13281 10.1465-6.13281L14.0527-6.13281L14.0527-2.38281C14.0527-1.79688 14.375-1.38672 14.9414-1.38672Z"/>
  </g>
  <text style="stroke:none;fill:black;font-family:-apple-system,&quot;SF Pro Display&quot;,&quot;SF Pro Text&quot;,Helvetica,sans-serif;font-weight:bold;" transform="matrix(1 0 0 1 263 1953)">Design Variations</text>
  <text style="stroke:none;fill:black;font-family:-apple-system,&quot;SF Pro Display&quot;,&quot;SF Pro Text&quot;,Helvetica,sans-serif;" transform="matrix(1 0 0 1 263 1971)">Symbols are supported in up to nine weights and three scales.</text>
  <text style="stroke:none;fill:black;font-family:-apple-system,&quot;SF Pro Display&quot;,&quot;SF Pro Text&quot;,Helvetica,sans-serif;" transform="matrix(1 0 0 1 263 1989)">For optimal layout with text and other symbols, vertically align</text>
  <text style="stroke:none;fill:black;font-family:-apple-system,&quot;SF Pro Display&quot;,&quot;SF Pro Text&quot;,Helvetica,sans-serif;" transform="matrix(1 0 0 1 263 2007)">symbols with the adjacent text.</text>
  <line id="" style="fill:none;stroke:#00AEEF;stroke-width:0.5;opacity:1.0;" x1="776" x2="776" y1="1919" y2="1933"/>
  <g id="" transform="matrix(1 0 0 1 776 1933)">
   <path d="M3.31055 0.126953C3.82812 0.126953 4.08203-0.0683594 4.26758-0.605469L5.52734-4.0625L11.2891-4.0625L12.5488-0.605469C12.7344-0.0683594 12.9883 0.126953 13.4961 0.126953C14.0137 0.126953 14.3457-0.185547 14.3457-0.673828C14.3457-0.839844 14.3164-0.986328 14.2383-1.20117L9.6582-13.3887C9.43359-13.9941 9.0332-14.2871 8.4082-14.2871C7.80273-14.2871 7.39258-13.9941 7.17773-13.3984L2.59766-1.19141C2.51953-0.976562 2.49023-0.830078 2.49023-0.664062C2.49023-0.175781 2.80273 0.126953 3.31055 0.126953ZM6.00586-5.53711L8.37891-12.1094L8.42773-12.1094L10.8008-5.53711Z"/>
  </g>
  <line id="" style="fill:none;stroke:#00AEEF;stroke-width:0.5;opacity:1.0;" x1="792.836" x2="792.836" y1="1919" y2="1933"/>
  <text style="stroke:none;fill:black;font-family:-apple-system,&quot;SF Pro Display&quot;,&quot;SF Pro Text&quot;,Helvetica,sans-serif;font-weight:bold;" transform="matrix(1 0 0 1 776 1953)">Margins</text>
  <text style="stroke:none;fill:black;font-family:-apple-system,&quot;SF Pro Display&quot;,&quot;SF Pro Text&quot;,Helvetica,sans-serif;" transform="matrix(1 0 0 1 776 1971)">Leading and trailing margins on the left and right side of each symbol</text>
  <text style="stroke:none;fill:black;font-family:-apple-system,&quot;SF Pro Display&quot;,&quot;SF Pro Text&quot;,Helvetica,sans-serif;" transform="matrix(1 0 0 1 776 1989)">can be adjusted by modifying the x-location of the margin guidelines.</text>
  <text style="stroke:none;fill:black;font-family:-apple-system,&quot;SF Pro Display&quot;,&quot;SF Pro Text&quot;,Helvetica,sans-serif;" transform="matrix(1 0 0 1 776 2007)">Modifications are automatically applied proportionally to all</text>
  <text style="stroke:none;fill:black;font-family:-apple-system,&quot;SF Pro Display&quot;,&quot;SF Pro Text&quot;,Helvetica,sans-serif;" transform="matrix(1 0 0 1 776 2025)">scales and weights.</text>
  <g id="" transform="matrix(1 0 0 1 1289 1933)">
   <path d="M2.8418 1.86523L4.54102 3.57422C5.40039 4.44336 6.38672 4.38477 7.31445 3.35938L17.4902-7.85156C17.7539-7.76367 18.0273-7.7832 18.3398-7.8418L19.4043-8.03711L20.0684-7.36328L20.0293-6.80664C19.9902-6.30859 20.1172-5.92773 20.6055-5.44922L21.3672-4.70703C21.8457-4.22852 22.4609-4.19922 22.9297-4.66797L25.8398-7.58789C26.3086-8.05664 26.2891-8.65234 25.8105-9.13086L25.0391-9.89258C24.5605-10.3711 24.1895-10.5273 23.7109-10.4883L23.1348-10.4395L22.4902-11.0742L22.7344-12.1973C22.8613-12.7637 22.7051-13.2031 22.1191-13.7891L19.9219-15.9766C16.582-19.2969 12.1484-19.2188 9.25781-16.3281C8.83789-15.918 8.80859-15.3418 9.04297-14.9512C9.27734-14.5898 9.73633-14.3555 10.3809-14.5215C11.8457-14.8633 13.3691-14.9219 14.7949-13.9844L14.209-12.5293C14.0137-12.0508 13.9844-11.6504 14.1113-11.2891L3.04688-0.898438C2.06055 0.0195312 1.98242 0.996094 2.8418 1.86523ZM10.752-15.957C13.1836-17.7344 16.4746-17.4316 18.7012-15.2051L21.1328-12.793C21.3672-12.5586 21.4062-12.373 21.3379-12.0312L21.0156-10.5469L22.5195-9.0625L23.5059-9.12109C23.7598-9.13086 23.8379-9.11133 24.0332-8.91602L24.6094-8.33984L22.168-5.89844L21.5918-6.47461C21.3965-6.66992 21.3672-6.74805 21.377-7.01172L21.4453-7.98828L19.9512-9.47266L18.4277-9.21875C18.1055-9.15039 17.959-9.17969 17.7148-9.41406L15.7129-11.416C15.459-11.6504 15.4297-11.8164 15.5859-12.1875L16.4648-14.2773C14.9023-15.7324 12.8711-16.3574 10.8398-15.7617C10.6836-15.7227 10.625-15.8496 10.752-15.957ZM5.27344 2.30469L4.10156 1.14258C3.63281 0.683594 3.74023 0.341797 4.14062-0.0195312L14.9512-10.1953L16.416-8.71094L6.42578 2.27539C6.07422 2.67578 5.74219 2.77344 5.27344 2.30469Z"/>
  </g>
  <text style="stroke:none;fill:black;font-family:-apple-system,&quot;SF Pro Display&quot;,&quot;SF Pro Text&quot;,Helvetica,sans-serif;font-weight:bold;" transform="matrix(1 0 0 1 1289 1953)">Exporting</text>
  <text style="stroke:none;fill:black;font-family:-apple-system,&quot;SF Pro Display&quot;,&quot;SF Pro Text&quot;,Helvetica,sans-serif;" transform="matrix(1 0 0 1 1289 1971)">Symbols should be outlined when exporting to ensure the</text>
  <text style="stroke:none;fill:black;font-family:-apple-system,&quot;SF Pro Display&quot;,&quot;SF Pro Text&quot;,Helvetica,sans-serif;" transform="matrix(1 0 0 1 1289 1989)">design is preserved when submitting to Xcode.</text>
  <text id="template-version" style="stroke:none;fill:black;font-family:-apple-system,&quot;SF Pro Display&quot;,&quot;SF Pro Text&quot;,Helvetica,sans-serif;text-anchor:end;" transform="matrix(1 0 0 1 3036 1933)">Template v.2.0</text>
  <text style="stroke:none;fill:black;font-family:-apple-system,&quot;SF Pro Display&quot;,&quot;SF Pro Text&quot;,Helvetica,sans-serif;text-anchor:end;" transform="matrix(1 0 0 1 3036 1951)">Requires Xcode 12 or greater</text>
  <text style="stroke:none;fill:black;font-family:-apple-system,&quot;SF Pro Display&quot;,&quot;SF Pro Text&quot;,Helvetica,sans-serif;text-anchor:end;" transform="matrix(1 0 0 1 3036 1969)">Generated from exclamationmark.triangle.fill</text>
  <text style="stroke:none;fill:black;font-family:-apple-system,&quot;SF Pro Display&quot;,&quot;SF Pro Text&quot;,Helvetica,sans-serif;text-anchor:end;" transform="matrix(1 0 0 1 3036 1987)">Typeset at 100 points</text>
  <text style="stroke:none;fill:black;font-family:-apple-system,&quot;SF Pro Display&quot;,&quot;SF Pro Text&quot;,Helvetica,sans-serif;" transform="matrix(1 0 0 1 263 726)">Small</text>
  <text style="stroke:none;fill:black;font-family:-apple-system,&quot;SF Pro Display&quot;,&quot;SF Pro Text&quot;,Helvetica,sans-serif;" transform="matrix(1 0 0 1 263 1156)">Medium</text>
  <text style="stroke:none;fill:black;font-family:-apple-system,&quot;SF Pro Display&quot;,&quot;SF Pro Text&quot;,Helvetica,sans-serif;" transform="matrix(1 0 0 1 263 1586)">Large</text>
 </g>
 <g id="Guides">
  <g id="H-reference" style="fill:#27AAE1;stroke:none;" transform="matrix(1 0 0 1 339 696)">
   <path d="M0.976562 0L3.66211 0L12.9883-24.4629L45.752-24.4629L55.127 0L57.7637 0L30.6152-70.459L28.125-70.459ZM29.3457-67.1387L29.4434-67.1387L44.873-26.709L13.8672-26.709Z"/>
  </g>
  <line id="Baseline-S" style="fill:none;stroke:#27AAE1;opacity:1;stroke-width:0.5;" x1="263" x2="3036" y1="696" y2="696"/>
  <line id="Capline-S" style="fill:none;stroke:#27AAE1;opacity:1;stroke-width:0.5;" x1="263" x2="3036" y1="625.541" y2="625.541"/>
  <g id="H-reference" style="fill:#27AAE1;stroke:none;" transform="matrix(1 0 0 1 339 1126)">
   <path d="M0.976562 0L3.66211 0L12.9883-24.4629L45.752-24.4629L55.127 0L57.7637 0L30.6152-70.459L28.125-70.459ZM29.3457-67.1387L29.4434-67.1387L44.873-26.709L13.8672-26.709Z"/>
  </g>
  <line id="Baseline-M" style="fill:none;stroke:#27AAE1;opacity:1;stroke-width:0.5;" x1="263" x2="3036" y1="1126" y2="1126"/>
  <line id="Capline-M" style="fill:none;stroke:#27AAE1;opacity:1;stroke-width:0.5;" x1="263" x2="3036" y1="1055.54" y2="1055.54"/>
  <g id="H-reference" style="fill:#27AAE1;stroke:none;" transform="matrix(1 0 0 1 339 1556)">
   <path d="M0.976562 0L3.66211 0L12.9883-24.4629L45.752-24.4629L55.127 0L57.7637 0L30.6152-70.459L28.125-70.459ZM29.3457-67.1387L29.4434-67.1387L44.873-26.709L13.8672-26.709Z"/>
  </g>
  <line id="Baseline-L" style="fill:none;stroke:#27AAE1;opacity:1;stroke-width:0.5;" x1="263" x2="3036" y1="1556" y2="1556"/>
  <line id="Capline-L" style="fill:none;stroke:#27AAE1;opacity:1;stroke-width:0.5;" x1="263" x2="3036" y1="1485.54" y2="1485.54"/>
  <line id="left-margin" style="fill:none;stroke:#00AEEF;stroke-width:0.5;opacity:1.0;" x1="1389.61" x2="1389.61" y1="1030.79" y2="1150.12"/>
  <line id="right-margin" style="fill:none;stroke:#00AEEF;stroke-width:0.5;opacity:1.0;" x1="1510.07" x2="1510.07" y1="1030.79" y2="1150.12"/>
 </g>
 <g id="Symbols">
  <g id="Black-L" transform="matrix(1 0 0 1 2853.05 1556)">
   <path d="M31.1523 28.2715L129.59 28.2715C140.381 28.2715 147.803 19.7754 147.803 10.0586C147.803 6.98242 147.021 3.95508 145.41 1.07422L96.0938-87.3047C92.4805-93.7988 86.5723-96.7773 80.3711-96.7773C74.1699-96.7773 68.1152-93.7012 64.5996-87.3047L15.2832 1.12305C13.6719 3.95508 12.8906 6.98242 12.8906 10.0586C12.8906 19.7754 20.3125 28.2715 31.1523 28.2715ZM80.4199-18.6035C75.1465-18.6035 72.0703-21.4844 71.7773-26.6602L70.6055-49.7559C70.3125-55.4199 74.3164-59.2285 80.3223-59.2285C86.3281-59.2285 90.3809-55.4199 90.0879-49.7559L88.916-26.8066C88.623-21.4355 85.5957-18.6035 80.4199-18.6035ZM80.4199 5.37109C74.6094 5.37109 70.2148 2.00195 70.2148-3.51562C70.2148-8.98438 74.5605-12.3535 80.4199-12.3535C86.2793-12.3535 90.5273-8.98438 90.5273-3.51562C90.5273 2.00195 86.2305 5.37109 80.4199 5.37109Z"/>
  </g>
  <g id="Heavy-L" transform="matrix(1 0 0 1 2557 1556)">
   <path d="M30.4199 27.2461L129.004 27.2461C139.404 27.2461 146.484 19.1406 146.484 9.7168C146.484 6.83594 145.703 3.85742 144.189 1.12305L94.8242-87.2559C91.4062-93.4082 85.6445-96.2891 79.6875-96.2891C73.7793-96.2891 67.9199-93.3105 64.5508-87.2559L15.1855 1.17188C13.6719 3.90625 12.8906 6.83594 12.8906 9.7168C12.8906 19.1406 19.9707 27.2461 30.4199 27.2461ZM79.7363-18.457C75.0488-18.457 72.3145-20.9961 72.0703-25.6836L71.0449-51.416C70.752-56.4453 74.3164-59.8633 79.6875-59.8633C84.9609-59.8633 88.5742-56.4453 88.3301-51.416L87.2559-25.7812C87.0117-20.9961 84.3262-18.457 79.7363-18.457ZM79.7363 4.6875C74.4629 4.6875 70.4102 1.46484 70.4102-3.56445C70.4102-8.54492 74.4629-11.7676 79.7363-11.7676C85.0098-11.7676 88.9648-8.54492 88.9648-3.56445C88.9648 1.46484 85.0098 4.6875 79.7363 4.6875Z"/>
  </g>
  <g id="Bold-L" transform="matrix(1 0 0 1 2261.02 1556)">
   <path d="M29.5898 26.123L128.32 26.123C138.33 26.123 145.02 18.457 145.02 9.375C145.02 6.64062 144.287 3.80859 142.822 1.17188L93.3594-87.207C90.1367-92.9688 84.6191-95.752 78.9551-95.752C73.3398-95.752 67.7246-92.9199 64.5508-87.207L15.0879 1.2207C13.6719 3.85742 12.8906 6.64062 12.8906 9.375C12.8906 18.457 19.5801 26.123 29.5898 26.123ZM79.0039-18.2617C74.9512-18.2617 72.6074-20.5078 72.4121-24.5605L71.4844-53.3203C71.2891-57.6172 74.3652-60.5469 78.9062-60.5469C83.4473-60.5469 86.5723-57.5684 86.377-53.2715L85.4004-24.6094C85.2539-20.459 82.9102-18.2617 79.0039-18.2617ZM79.0039 3.90625C74.3652 3.90625 70.7031 0.830078 70.7031-3.61328C70.7031-8.05664 74.3164-11.1328 79.0039-11.1328C83.6426-11.1328 87.2559-8.05664 87.2559-3.61328C87.2559 0.878906 83.5938 3.90625 79.0039 3.90625Z"/>
  </g>
  <g id="Semibold-L" transform="matrix(1 0 0 1 1964.82 1556)">
   <path d="M29.0527 25.3418L127.881 25.3418C137.598 25.3418 143.994 17.9688 143.994 9.17969C143.994 6.49414 143.311 3.75977 141.846 1.2207L92.334-87.1582C89.3066-92.6758 83.9355-95.4102 78.4668-95.4102C72.998-95.4102 67.5293-92.627 64.502-87.1582L15.0391 1.26953C13.623 3.80859 12.8906 6.49414 12.8906 9.17969C12.8906 17.9688 19.2871 25.3418 29.0527 25.3418ZM78.4668-18.1152C74.9023-18.1152 72.8027-20.166 72.6562-23.8281L71.8262-54.5898C71.6797-58.3984 74.4141-61.0352 78.418-61.0352C82.373-61.0352 85.2051-58.3496 85.0586-54.541L84.1309-23.8281C83.9844-20.1172 81.9336-18.1152 78.4668-18.1152ZM78.4668 3.36914C74.2676 3.36914 70.8496 0.439453 70.8496-3.61328C70.8496-7.71484 74.2188-10.6934 78.4668-10.6934C82.7148-10.6934 86.0352-7.71484 86.0352-3.61328C86.0352 0.488281 82.666 3.36914 78.4668 3.36914Z"/>
  </g>
  <g id="Medium-L" transform="matrix(1 0 0 1 1668.5 1556)">
   <path d="M28.6133 24.707L127.539 24.707C137.012 24.707 143.213 17.627 143.213 8.98438C143.213 6.39648 142.578 3.71094 141.162 1.26953L91.6016-87.1094C88.6719-92.4316 83.3984-95.1172 78.0762-95.1172C72.8027-95.1172 67.4316-92.4316 64.502-87.1094L14.9902 1.31836C13.623 3.75977 12.8906 6.39648 12.8906 8.98438C12.8906 17.627 19.0918 24.707 28.6133 24.707ZM78.0762-18.0176C74.8047-18.0176 72.9492-19.873 72.8516-23.2422L72.0215-55.5664C71.9727-58.9844 74.4141-61.377 78.0273-61.377C81.5918-61.377 84.1309-58.9355 84.0332-55.5176L83.1543-23.2422C83.0566-19.873 81.2012-18.0176 78.0762-18.0176ZM78.0762 2.97852C74.2188 2.97852 70.9961 0.0976562 70.9961-3.66211C70.9961-7.42188 74.1699-10.3027 78.0762-10.3027C81.9824-10.3027 85.1074-7.4707 85.1074-3.66211C85.1074 0.146484 81.9336 2.97852 78.0762 2.97852Z"/>
  </g>
  <g id="Regular-L" transform="matrix(1 0 0 1 1372.31 1556)">
   <path d="M28.0273 23.9258L127.1 23.9258C136.279 23.9258 142.188 17.1387 142.188 8.74023C142.188 6.25 141.602 3.71094 140.234 1.31836L90.625-87.0605C87.793-92.1387 82.666-94.7266 77.5879-94.7266C72.4609-94.7266 67.2852-92.1387 64.502-87.0605L14.8926 1.36719C13.623 3.75977 12.8906 6.25 12.8906 8.74023C12.8906 17.1387 18.8477 23.9258 28.0273 23.9258ZM77.5391-17.8711C74.7559-17.8711 73.1445-19.5312 73.0957-22.4609L72.3633-56.8359C72.3145-59.7656 74.4141-61.8652 77.4902-61.8652C80.5176-61.8652 82.7637-59.7168 82.7148-56.7871L81.8848-22.4609C81.8359-19.4824 80.2734-17.8711 77.5391-17.8711ZM77.5391 2.49023C74.1211 2.49023 71.1426-0.292969 71.1426-3.66211C71.1426-7.08008 74.0723-9.86328 77.5391-9.86328C81.0547-9.86328 83.9355-7.12891 83.9355-3.66211C83.9355-0.244141 81.0059 2.49023 77.5391 2.49023Z"/>
  </g>
  <g id="Light-L" transform="matrix(1 0 0 1 1075.86 1556)">
   <path d="M27.7344 23.4863L126.855 23.4863C135.742 23.4863 141.65 16.6504 141.65 8.59375C141.65 6.10352 141.064 3.61328 139.697 1.26953L90.0391-86.9629C87.3047-91.8945 82.2754-94.4336 77.2949-94.4336C72.3145-94.4336 67.2363-91.8945 64.4531-86.9629L14.7949 1.36719C13.5254 3.66211 12.8906 6.10352 12.8906 8.59375C12.8906 16.6504 18.8477 23.4863 27.7344 23.4863ZM77.2949-17.9688C75.0977-17.9688 73.7793-19.3848 73.7793-21.7773L73.1445-56.1523C73.1445-58.5449 74.8047-60.2051 77.2461-60.2051C79.6875-60.2051 81.3965-58.4961 81.3965-56.1523L80.7129-21.7773C80.7129-19.3359 79.3945-17.9688 77.2949-17.9688ZM77.2949 1.36719C74.2676 1.36719 71.7773-1.07422 71.7773-3.95508C71.7773-6.93359 74.2676-9.375 77.2949-9.375C80.3223-9.375 82.7637-6.93359 82.7637-3.95508C82.7637-1.02539 80.2734 1.36719 77.2949 1.36719Z"/>
  </g>
  <g id="Thin-L" transform="matrix(1 0 0 1 779.542 1556)">
   <path d="M27.2949 22.8516L126.514 22.8516C135.01 22.8516 140.869 15.9668 140.869 8.39844C140.869 5.95703 140.381 3.51562 139.014 1.17188L89.3066-86.7676C86.6699-91.5527 81.7871-93.9941 76.9043-93.9941C72.1191-93.9941 67.1387-91.5527 64.4531-86.7676L14.6973 1.31836C13.4766 3.51562 12.8906 5.95703 12.8906 8.39844C12.8906 15.9668 18.8477 22.8516 27.2949 22.8516ZM76.9043-18.1152C75.5859-18.1152 74.6582-19.1406 74.6582-20.8008L74.2188-55.2734C74.2188-56.9336 75.2441-58.0566 76.9043-58.0566C78.5645-58.0566 79.6387-56.9336 79.5898-55.2734L79.1504-20.8008C79.1504-19.1406 78.2227-18.1152 76.9043-18.1152ZM76.9043-0.0488281C74.5117-0.0488281 72.5586-2.09961 72.5586-4.3457C72.5586-6.68945 74.5117-8.69141 76.9043-8.69141C79.3457-8.69141 81.25-6.68945 81.25-4.3457C81.25-2.09961 79.2969-0.0488281 76.9043-0.0488281Z"/>
  </g>
  <g id="Ultralight-L" transform="matrix(1 0 0 1 483.027 1556)">
   <path d="M27.0996 22.5586L126.367 22.5586C134.619 22.5586 140.479 15.625 140.479 8.25195C140.479 5.85938 140.039 3.4668 138.672 1.12305L88.9648-86.7188C86.3281-91.4062 81.543-93.7988 76.7578-93.7988C72.0215-93.7988 67.0898-91.4062 64.4531-86.7188L14.6484 1.31836C13.4277 3.4668 12.8906 5.85938 12.8906 8.25195C12.8906 15.625 18.8477 22.5586 27.0996 22.5586ZM76.709-18.1641C75.7812-18.1641 75.0977-19.043 75.0977-20.3125L74.7559-54.834C74.7559-56.1035 75.4883-56.9336 76.709-56.9336C77.9785-56.9336 78.7109-56.1035 78.7109-54.834L78.3691-20.3125C78.3691-19.043 77.6367-18.1641 76.709-18.1641ZM76.709-0.78125C74.6094-0.78125 72.998-2.63672 72.998-4.58984C72.998-6.5918 74.6094-8.30078 76.709-8.30078C78.8086-8.30078 80.4688-6.5918 80.4688-4.58984C80.4688-2.63672 78.8086-0.78125 76.709-0.78125Z"/>
  </g>
  <g id="Black-M" transform="matrix(1 0 0 1 2870.44 1126)">
   <path d="M24.9023 15.1367L101.074 15.1367C109.766 15.1367 115.967 7.95898 115.967 0.146484C115.967-2.34375 115.332-4.83398 114.014-7.22656L75.8789-75.5859C72.9004-81.0547 68.0664-83.3984 62.9883-83.3984C57.9102-83.3984 52.9785-80.9082 50.0488-75.5859L11.9141-7.17773C10.5957-4.83398 9.96094-2.34375 9.96094 0.146484C9.96094 7.95898 16.1621 15.1367 24.9023 15.1367ZM63.0859-22.6074C58.5449-22.6074 55.8594-25.0977 55.5664-29.541L54.5898-43.8965C54.2969-48.877 57.7637-52.1484 63.0371-52.1484C68.3105-52.1484 71.7773-48.877 71.4355-43.8965L70.5078-29.6875C70.2148-25.0977 67.5293-22.6074 63.0859-22.6074ZM63.0859-3.4668C58.0566-3.4668 54.4434-6.05469 54.4434-10.791C54.4434-15.4297 58.0566-18.0176 63.0859-18.0176C68.1152-18.0176 71.6309-15.3809 71.6309-10.791C71.6309-6.05469 68.1152-3.4668 63.0859-3.4668Z"/>
  </g>
  <g id="Heavy-M" transform="matrix(1 0 0 1 2574.36 1126)">
   <path d="M24.2188 14.1113L100.488 14.1113C108.838 14.1113 114.697 7.42188 114.697-0.0976562C114.697-2.49023 114.062-4.88281 112.842-7.12891L74.6094-75.5859C71.8262-80.6641 67.1875-82.959 62.3535-82.959C57.5195-82.959 52.7832-80.5664 50-75.5859L11.8164-7.08008C10.5957-4.88281 9.96094-2.49023 9.96094-0.0976562C9.96094 7.42188 15.7715 14.1113 24.2188 14.1113ZM62.4023-22.4121C58.3496-22.4121 55.957-24.6094 55.7129-28.6621L54.834-45.8984C54.5898-50.293 57.666-53.2227 62.3535-53.2227C67.041-53.2227 70.166-50.293 69.873-45.8984L68.9941-28.7598C68.75-24.6094 66.4062-22.4121 62.4023-22.4121ZM62.4023-3.90625C57.9102-3.90625 54.541-6.44531 54.541-10.7422C54.541-14.9902 57.8613-17.5293 62.4023-17.5293C66.9434-17.5293 70.2148-14.9414 70.2148-10.7422C70.2148-6.44531 66.9434-3.90625 62.4023-3.90625Z"/>
  </g>
  <g id="Bold-M" transform="matrix(1 0 0 1 2278.38 1126)">
   <path d="M23.3887 12.9883L99.8535 12.9883C107.812 12.9883 113.232 6.78711 113.232-0.439453C113.232-2.68555 112.646-4.93164 111.475-7.03125L73.1934-75.5371C70.6055-80.2734 66.1621-82.4707 61.6211-82.4707C57.0801-82.4707 52.5879-80.1758 50-75.5371L11.7188-7.03125C10.5469-4.93164 9.96094-2.68555 9.96094-0.439453C9.96094 6.78711 15.3809 12.9883 23.3887 12.9883ZM61.6699-22.168C58.1543-22.168 56.1035-24.1211 55.9082-27.6367L55.127-48.1445C54.9316-51.9043 57.6172-54.4922 61.6211-54.4922C65.625-54.4922 68.3594-51.8555 68.1641-48.0957L67.334-27.7344C67.1387-24.1211 65.1367-22.168 61.6699-22.168ZM61.6699-4.44336C57.7148-4.44336 54.6387-6.88477 54.6387-10.6934C54.6387-14.4531 57.666-16.9434 61.6699-16.9434C65.6738-16.9434 68.6523-14.4531 68.6523-10.6934C68.6523-6.88477 65.6738-4.44336 61.6699-4.44336Z"/>
  </g>
  <g id="Semibold-M" transform="matrix(1 0 0 1 1982.16 1126)">
   <path d="M22.8516 12.2559L99.3652 12.2559C107.129 12.2559 112.256 6.39648 112.256-0.634766C112.256-2.7832 111.67-4.98047 110.547-6.98242L72.2168-75.5371C69.7754-79.9805 65.4785-82.1289 61.1328-82.1289C56.7871-82.1289 52.4414-79.9316 50-75.5371L11.6699-6.93359C10.5469-4.93164 9.96094-2.7832 9.96094-0.634766C9.96094 6.39648 15.0879 12.2559 22.8516 12.2559ZM61.1816-22.0215C58.0078-22.0215 56.2012-23.7793 56.0547-26.9531L55.3223-49.6582C55.1758-53.0273 57.5684-55.3223 61.1328-55.3223C64.6484-55.3223 67.0898-52.9785 66.9434-49.6094L66.1621-27.002C66.0645-23.7305 64.2578-22.0215 61.1816-22.0215ZM61.1816-4.78516C57.5684-4.78516 54.6875-7.17773 54.6875-10.6445C54.6875-14.1113 57.5684-16.5527 61.1816-16.5527C64.7949-16.5527 67.627-14.1113 67.627-10.6445C67.627-7.17773 64.7461-4.78516 61.1816-4.78516Z"/>
  </g>
  <g id="Medium-M" transform="matrix(1 0 0 1 1685.84 1126)">
   <path d="M22.4121 11.6699L99.0234 11.6699C106.592 11.6699 111.475 6.05469 111.475-0.830078C111.475-2.88086 110.938-4.98047 109.863-6.93359L71.4844-75.4883C69.1406-79.7363 64.9414-81.8848 60.7422-81.8848C56.543-81.8848 52.2949-79.7363 49.9512-75.4883L11.6211-6.93359C10.5469-4.93164 9.96094-2.88086 9.96094-0.830078C9.96094 6.05469 14.8438 11.6699 22.4121 11.6699ZM60.791-21.9238C57.9102-21.9238 56.25-23.5352 56.1523-26.416L55.4688-50.8301C55.3711-53.8574 57.5195-55.957 60.7422-55.957C63.8672-55.957 66.1621-53.8086 66.0645-50.7812L65.2832-26.4648C65.1855-23.4863 63.5742-21.9238 60.791-21.9238ZM60.791-5.0293C57.4707-5.0293 54.7363-7.42188 54.7363-10.6445C54.7363-13.8672 57.4219-16.2598 60.791-16.2598C64.1113-16.2598 66.7969-13.8672 66.7969-10.6445C66.7969-7.37305 64.0625-5.0293 60.791-5.0293Z"/>
  </g>
  <g id="Regular-M" transform="matrix(1 0 0 1 1389.61 1126)">
   <path d="M21.875 10.8887L98.584 10.8887C105.908 10.8887 110.498 5.61523 110.498-1.02539C110.498-3.02734 110.01-5.0293 108.936-6.88477L70.5078-75.4883C68.3105-79.4434 64.2578-81.543 60.2539-81.543C56.2012-81.543 52.1484-79.4434 49.9512-75.4883L11.5723-6.83594C10.5469-4.98047 9.96094-3.02734 9.96094-1.02539C9.96094 5.61523 14.5508 10.8887 21.875 10.8887ZM60.2539-21.7285C57.7148-21.7285 56.3477-23.1934 56.2988-25.7812L55.6152-52.3438C55.5664-54.9316 57.4707-56.7871 60.2051-56.7871C62.8906-56.7871 64.8926-54.8828 64.8438-52.2949L64.1602-25.7812C64.1113-23.1445 62.6953-21.7285 60.2539-21.7285ZM60.2539-5.37109C57.373-5.37109 54.834-7.71484 54.834-10.5957C54.834-13.5254 57.3242-15.8691 60.2539-15.8691C63.2324-15.8691 65.7227-13.5742 65.7227-10.5957C65.7227-7.66602 63.1836-5.37109 60.2539-5.37109Z"/>
  </g>
  <g id="Light-M" transform="matrix(1 0 0 1 1093.15 1126)">
   <path d="M21.582 10.498L98.3887 10.498C105.42 10.498 110.01 5.17578 110.01-1.17188C110.01-3.125 109.521-5.07812 108.447-6.93359L70.0195-75.3906C67.8711-79.248 63.916-81.25 60.0098-81.25C56.1035-81.25 52.0996-79.248 49.9512-75.3906L11.4746-6.88477C10.498-5.07812 9.96094-3.125 9.96094-1.17188C9.96094 5.17578 14.5508 10.498 21.582 10.498ZM60.0098-21.8262C58.0566-21.8262 56.9336-23.0469 56.8848-25.0977L56.3477-51.7578C56.2988-53.8574 57.8125-55.3223 60.0098-55.3223C62.1582-55.3223 63.7207-53.8086 63.6719-51.709L63.0859-25.0977C63.0859-22.998 61.9141-21.8262 60.0098-21.8262ZM60.0098-6.39648C57.5195-6.39648 55.3711-8.39844 55.3711-10.8887C55.3711-13.3789 57.4707-15.4297 60.0098-15.4297C62.5488-15.4297 64.6973-13.3789 64.6973-10.8887C64.6973-8.39844 62.5488-6.39648 60.0098-6.39648Z"/>
  </g>
  <g id="Thin-M" transform="matrix(1 0 0 1 796.779 1126)">
   <path d="M21.2402 9.91211L98.0957 9.91211C104.736 9.91211 109.326 4.58984 109.326-1.36719C109.326-3.27148 108.887-5.17578 107.861-6.98242L69.3359-75.2441C67.2852-78.9551 63.4766-80.8594 59.668-80.8594C55.9082-80.8594 52.002-78.9551 49.9023-75.2441L11.377-6.88477C10.4492-5.17578 9.96094-3.27148 9.96094-1.36719C9.96094 4.58984 14.5508 9.91211 21.2402 9.91211ZM59.668-21.9238C58.4473-21.9238 57.666-22.8027 57.666-24.2676L57.2754-50.9766C57.2754-52.3926 58.2031-53.3691 59.668-53.3691C61.1328-53.3691 62.1094-52.3926 62.1094-50.9766L61.6699-24.2676C61.6699-22.8027 60.8887-21.9238 59.668-21.9238ZM59.668-7.66602C57.7148-7.66602 56.1035-9.32617 56.1035-11.2305C56.1035-13.1836 57.666-14.7949 59.668-14.7949C61.7188-14.7949 63.2812-13.1836 63.2812-11.2305C63.2812-9.32617 61.6699-7.66602 59.668-7.66602Z"/>
  </g>
  <g id="Ultralight-M" transform="matrix(1 0 0 1 500.238 1126)">
   <path d="M21.0449 9.66797L97.9492 9.66797C104.395 9.66797 108.984 4.29688 108.984-1.46484C108.984-3.36914 108.594-5.22461 107.52-7.03125L68.9941-75.1465C66.9434-78.8086 63.2324-80.6641 59.4727-80.6641C55.8105-80.6641 51.9531-78.8086 49.9023-75.1465L11.3281-6.88477C10.4004-5.22461 9.96094-3.36914 9.96094-1.46484C9.96094 4.29688 14.5508 9.66797 21.0449 9.66797ZM59.5215-21.9727C58.6914-21.9727 58.0566-22.7051 58.0566-23.8281L57.7637-50.5371C57.7637-51.6602 58.4473-52.3926 59.5215-52.3926C60.5957-52.3926 61.2793-51.6602 61.2793-50.5371L60.9863-23.8281C60.9863-22.7051 60.3516-21.9727 59.5215-21.9727ZM59.5215-8.34961C57.8125-8.34961 56.4453-9.81445 56.4453-11.4258C56.4453-13.0859 57.8125-14.502 59.5215-14.502C61.2305-14.502 62.5977-13.0859 62.5977-11.4258C62.5977-9.81445 61.2305-8.34961 59.5215-8.34961Z"/>
  </g>
  <g id="Black-S" transform="matrix(1 0 0 1 2884.11 696)">
   <path d="M19.4824 4.15039L79.1504 4.15039C85.9375 4.15039 90.7715-1.41602 90.7715-7.51953C90.7715-9.47266 90.2832-11.4258 89.2578-13.2812L59.375-66.8457C57.0312-71.0938 53.2715-72.9492 49.3164-72.9492C45.3613-72.9492 41.5039-70.9961 39.209-66.8457L9.32617-13.2324C8.30078-11.4258 7.8125-9.47266 7.8125-7.51953C7.8125-1.41602 12.6465 4.15039 19.4824 4.15039ZM49.3652-25.3418C45.8496-25.3418 43.75-27.2461 43.5059-30.7129L42.7734-42.1875C42.5293-46.0449 45.2148-48.584 49.3164-48.584C53.418-48.584 56.1035-46.0449 55.8594-42.1875L55.127-30.8105C54.8828-27.2461 52.832-25.3418 49.3652-25.3418ZM49.3652-10.3516C45.459-10.3516 42.627-12.4023 42.627-16.0645C42.627-19.6777 45.459-21.7285 49.3652-21.7285C53.2715-21.7285 56.0059-19.6289 56.0059-16.0645C56.0059-12.4023 53.2715-10.3516 49.3652-10.3516Z"/>
  </g>
  <g id="Heavy-S" transform="matrix(1 0 0 1 2587.86 696)">
   <path d="M18.9453 3.41797L78.7109 3.41797C85.3027 3.41797 89.8438-1.80664 89.8438-7.71484C89.8438-9.57031 89.3555-11.4746 88.3789-13.2324L58.4473-66.8457C56.25-70.8496 52.6367-72.6562 48.8281-72.6562C45.0684-72.6562 41.3574-70.752 39.209-66.8457L9.27734-13.1836C8.30078-11.4258 7.8125-9.57031 7.8125-7.71484C7.8125-1.80664 12.3535 3.41797 18.9453 3.41797ZM48.877-25.1953C45.6543-25.1953 43.75-26.9043 43.5547-30.0781L42.8711-43.7988C42.6758-47.2656 45.1172-49.6094 48.8281-49.6094C52.5391-49.6094 54.9805-47.2656 54.7852-43.75L54.1016-30.1758C53.9062-26.9043 52.0508-25.1953 48.877-25.1953ZM48.877-10.5957C45.3125-10.5957 42.627-12.6465 42.627-16.0156C42.627-19.3359 45.3125-21.3867 48.877-21.3867C52.4414-21.3867 55.0781-19.3359 55.0781-16.0156C55.0781-12.5977 52.4414-10.5957 48.877-10.5957Z"/>
  </g>
  <g id="Bold-S" transform="matrix(1 0 0 1 2291.66 696)">
   <path d="M18.4082 2.63672L78.2715 2.63672C84.5703 2.63672 88.8184-2.19727 88.8184-7.95898C88.8184-9.7168 88.3301-11.4746 87.4023-13.1348L57.4219-66.8457C55.3711-70.5566 51.9043-72.3145 48.3398-72.3145C44.7266-72.3145 41.2109-70.5078 39.1602-66.8457L9.22852-13.1348C8.30078-11.4746 7.8125-9.7168 7.8125-7.95898C7.8125-2.19727 12.0605 2.63672 18.4082 2.63672ZM48.3398-25C45.459-25 43.7988-26.5625 43.6523-29.3945L43.0176-45.5566C42.8711-48.6328 45.0684-50.7324 48.291-50.7324C51.5137-50.7324 53.7598-48.584 53.6133-45.5566L52.9297-29.4434C52.7832-26.5137 51.1719-25 48.3398-25ZM48.3398-10.8887C45.166-10.8887 42.627-12.8906 42.627-15.918C42.627-18.9941 45.1172-20.9961 48.3398-20.9961C51.5625-20.9961 54.0039-18.9941 54.0039-15.918C54.0039-12.8418 51.5137-10.8887 48.3398-10.8887Z"/>
  </g>
  <g id="Semibold-S" transform="matrix(1 0 0 1 1995.32 696)">
   <path d="M17.9688 2.09961L77.9297 2.09961C84.082 2.09961 88.0859-2.49023 88.0859-8.10547C88.0859-9.76562 87.6465-11.5234 86.7676-13.0859L56.7383-66.8457C54.7852-70.3613 51.416-72.0703 47.9492-72.0703C44.5312-72.0703 41.1133-70.3125 39.1602-66.8457L9.17969-13.0859C8.30078-11.4746 7.8125-9.76562 7.8125-8.10547C7.8125-2.49023 11.8164 2.09961 17.9688 2.09961ZM47.9492-24.8535C45.3125-24.8535 43.7988-26.3184 43.7012-28.9551L43.0664-46.7773C42.9688-49.5605 44.9707-51.5137 47.9492-51.5137C50.8301-51.5137 52.9297-49.5117 52.7832-46.7773L52.1484-28.9551C52.0508-26.2695 50.5371-24.8535 47.9492-24.8535ZM47.9492-11.0352C45.0195-11.0352 42.6758-13.0371 42.6758-15.8691C42.6758-18.75 45.0195-20.752 47.9492-20.752C50.9277-20.752 53.2715-18.75 53.2715-15.8691C53.2715-12.9883 50.9277-11.0352 47.9492-11.0352Z"/>
  </g>
  <g id="Medium-S" transform="matrix(1 0 0 1 1698.87 696)">
   <path d="M17.6758 1.66016L77.6855 1.66016C83.6914 1.66016 87.5488-2.73438 87.5488-8.20312C87.5488-9.86328 87.1094-11.5234 86.2305-13.0371L56.2012-66.8457C54.3457-70.166 51.0254-71.875 47.7051-71.875C44.3359-71.875 41.0156-70.166 39.1602-66.8457L9.17969-13.0371C8.30078-11.4746 7.8125-9.86328 7.8125-8.20312C7.8125-2.73438 11.6699 1.66016 17.6758 1.66016ZM47.7051-24.7559C45.2148-24.7559 43.8477-26.123 43.75-28.5645L43.1641-47.7051C43.0664-50.293 44.9219-52.0996 47.6562-52.0996C50.3418-52.0996 52.2461-50.2441 52.1973-47.6562L51.5625-28.6133C51.4648-26.0742 50.0977-24.7559 47.7051-24.7559ZM47.7051-11.1816C44.9707-11.1816 42.6758-13.1836 42.6758-15.8691C42.6758-18.5547 44.9219-20.5566 47.7051-20.5566C50.4883-20.5566 52.7344-18.5547 52.7344-15.8691C52.7344-13.1348 50.4395-11.1816 47.7051-11.1816Z"/>
  </g>
  <g id="Regular-S" transform="matrix(1 0 0 1 1402.53 696)">
   <path d="M17.2852 1.12305L77.3438 1.12305C83.2031 1.12305 86.8164-2.97852 86.8164-8.34961C86.8164-9.91211 86.4258-11.5234 85.5957-12.9883L55.4688-66.8457C53.7598-69.9707 50.5371-71.6309 47.3145-71.6309C44.1406-71.6309 40.918-69.9707 39.1602-66.8457L9.13086-12.9883C8.30078-11.4746 7.8125-9.91211 7.8125-8.34961C7.8125-2.97852 11.4258 1.12305 17.2852 1.12305ZM47.3145-24.6094C45.0684-24.6094 43.8477-25.8789 43.7988-28.125L43.2129-48.9258C43.1641-51.2207 44.873-52.832 47.2656-52.832C49.6582-52.832 51.416-51.1719 51.3672-48.877L50.7812-28.125C50.7324-25.8301 49.5117-24.6094 47.3145-24.6094ZM47.3145-11.377C44.8242-11.377 42.6758-13.3301 42.6758-15.8203C42.6758-18.3105 44.8242-20.3125 47.3145-20.3125C49.8535-20.3125 52.002-18.3105 52.002-15.8203C52.002-13.2812 49.8047-11.377 47.3145-11.377Z"/>
  </g>
  <g id="Light-S" transform="matrix(1 0 0 1 1106.04 696)">
   <path d="M17.041 0.732422L77.1484 0.732422C82.7637 0.732422 86.377-3.41797 86.377-8.49609C86.377-10.0098 85.9863-11.5723 85.1562-13.0371L55.0293-66.748C53.3203-69.7754 50.2441-71.3867 47.1191-71.3867C43.9941-71.3867 40.8691-69.7754 39.1602-66.748L9.0332-12.9883C8.25195-11.5723 7.8125-10.0098 7.8125-8.49609C7.8125-3.41797 11.4258 0.732422 17.041 0.732422ZM47.1191-24.707C45.3613-24.707 44.3359-25.7324 44.3359-27.5391L43.8477-48.3887C43.8477-50.2441 45.166-51.5625 47.0703-51.5625C48.9746-51.5625 50.3418-50.1953 50.3418-48.3887L49.8047-27.5391C49.8047-25.6836 48.7793-24.707 47.1191-24.707ZM47.1191-12.2559C44.9707-12.2559 43.1641-13.9648 43.1641-16.0645C43.1641-18.1641 44.9707-19.873 47.1191-19.873C49.2676-19.873 51.0742-18.1641 51.0742-16.0645C51.0742-13.916 49.2188-12.2559 47.1191-12.2559Z"/>
  </g>
  <g id="Thin-S" transform="matrix(1 0 0 1 809.62 696)">
   <path d="M16.6992 0.244141L76.9043 0.244141C82.2266 0.244141 85.791-3.90625 85.791-8.69141C85.791-10.1562 85.4492-11.6699 84.6191-13.0859L54.4922-66.6016C52.832-69.5312 49.8047-71.0449 46.8262-71.0449C43.8477-71.0449 40.7715-69.5312 39.1113-66.6016L8.93555-13.0371C8.20312-11.6699 7.8125-10.1562 7.8125-8.69141C7.8125-3.90625 11.4258 0.244141 16.6992 0.244141ZM46.8262-24.8047C45.7031-24.8047 45.0195-25.5371 45.0195-26.8066L44.6777-47.7051C44.6777-48.9746 45.5078-49.8047 46.8262-49.8047C48.0957-49.8047 48.9258-48.9258 48.9258-47.7051L48.584-26.8066C48.584-25.5371 47.9004-24.8047 46.8262-24.8047ZM46.8262-13.3789C45.166-13.3789 43.7988-14.7461 43.7988-16.3574C43.7988-17.9688 45.1172-19.3359 46.8262-19.3359C48.4863-19.3359 49.8535-18.0176 49.8535-16.3574C49.8535-14.7461 48.4863-13.3789 46.8262-13.3789Z"/>
  </g>
  <g id="Ultralight-S" transform="matrix(1 0 0 1 513.08 696)">
   <path d="M16.5527 0L76.8066 0C81.8848 0 85.4492-4.19922 85.4492-8.78906C85.4492-10.2539 85.1562-11.7188 84.3262-13.1348L54.1504-66.5039C52.5391-69.4336 49.6094-70.8984 46.6797-70.8984C43.75-70.8984 40.7227-69.4336 39.1113-66.5039L8.88672-13.0371C8.1543-11.7188 7.8125-10.2539 7.8125-8.78906C7.8125-4.19922 11.4258 0 16.5527 0ZM46.6797-24.8535C45.8984-24.8535 45.3613-25.4395 45.3613-26.416L45.1172-47.3633C45.1172-48.291 45.7031-48.9258 46.6797-48.9258C47.6074-48.9258 48.1934-48.291 48.1934-47.3633L47.9492-26.416C47.9492-25.4395 47.4121-24.8535 46.6797-24.8535ZM46.6797-13.9648C45.2637-13.9648 44.0918-15.1855 44.0918-16.5039C44.0918-17.8711 45.2637-19.043 46.6797-19.043C48.0957-19.043 49.2188-17.8711 49.2188-16.5039C49.2188-15.1855 48.0957-13.9648 46.6797-13.9648Z"/>
  </g>
 </g>
</svg>
