<?xml version="1.0" encoding="UTF-8"?>
<!--Generator: Apple Native CoreSVG 149-->
<!DOCTYPE svg
PUBLIC "-//W3C//DTD SVG 1.1//EN"
       "http://www.w3.org/Graphics/SVG/1.1/DTD/svg11.dtd">
<svg version="1.1" xmlns="http://www.w3.org/2000/svg" xmlns:xlink="http://www.w3.org/1999/xlink" width="3300" height="2200">
 <!--glyph: "uni10031D.medium", point size: 100.000000, font version: "Version 16.0d12e3", template writer version: "8"-->
 <g id="Notes">
  <rect height="2200" id="artboard" style="fill:white;opacity:1" width="3300" x="0" y="0"/>
  <line id="" style="fill:none;stroke:black;opacity:1;stroke-width:0.5;" x1="263" x2="3036" y1="292" y2="292"/>
  <text style="stroke:none;fill:black;font-family:-apple-system,&quot;SF Pro Display&quot;,&quot;SF Pro Text&quot;,Helvetica,sans-serif;font-weight:bold;" transform="matrix(1 0 0 1 263 322)">Weight/Scale Variations</text>
  <text style="stroke:none;fill:black;font-family:-apple-system,&quot;SF Pro Display&quot;,&quot;SF Pro Text&quot;,Helvetica,sans-serif;text-anchor:middle;" transform="matrix(1 0 0 1 559.711 322)">Ultralight</text>
  <text style="stroke:none;fill:black;font-family:-apple-system,&quot;SF Pro Display&quot;,&quot;SF Pro Text&quot;,Helvetica,sans-serif;text-anchor:middle;" transform="matrix(1 0 0 1 856.422 322)">Thin</text>
  <text style="stroke:none;fill:black;font-family:-apple-system,&quot;SF Pro Display&quot;,&quot;SF Pro Text&quot;,Helvetica,sans-serif;text-anchor:middle;" transform="matrix(1 0 0 1 1153.13 322)">Light</text>
  <text style="stroke:none;fill:black;font-family:-apple-system,&quot;SF Pro Display&quot;,&quot;SF Pro Text&quot;,Helvetica,sans-serif;text-anchor:middle;" transform="matrix(1 0 0 1 1449.84 322)">Regular</text>
  <text style="stroke:none;fill:black;font-family:-apple-system,&quot;SF Pro Display&quot;,&quot;SF Pro Text&quot;,Helvetica,sans-serif;text-anchor:middle;" transform="matrix(1 0 0 1 1746.56 322)">Medium</text>
  <text style="stroke:none;fill:black;font-family:-apple-system,&quot;SF Pro Display&quot;,&quot;SF Pro Text&quot;,Helvetica,sans-serif;text-anchor:middle;" transform="matrix(1 0 0 1 2043.27 322)">Semibold</text>
  <text style="stroke:none;fill:black;font-family:-apple-system,&quot;SF Pro Display&quot;,&quot;SF Pro Text&quot;,Helvetica,sans-serif;text-anchor:middle;" transform="matrix(1 0 0 1 2339.98 322)">Bold</text>
  <text style="stroke:none;fill:black;font-family:-apple-system,&quot;SF Pro Display&quot;,&quot;SF Pro Text&quot;,Helvetica,sans-serif;text-anchor:middle;" transform="matrix(1 0 0 1 2636.69 322)">Heavy</text>
  <text style="stroke:none;fill:black;font-family:-apple-system,&quot;SF Pro Display&quot;,&quot;SF Pro Text&quot;,Helvetica,sans-serif;text-anchor:middle;" transform="matrix(1 0 0 1 2933.4 322)">Black</text>
  <line id="" style="fill:none;stroke:black;opacity:1;stroke-width:0.5;" x1="263" x2="3036" y1="1903" y2="1903"/>
  <g id="" transform="matrix(1 0 0 1 263 1933)">
   <path d="M9.24805 0.830078C13.5547 0.830078 17.1387-2.74414 17.1387-7.05078C17.1387-11.3574 13.5449-14.9316 9.23828-14.9316C4.94141-14.9316 1.36719-11.3574 1.36719-7.05078C1.36719-2.74414 4.95117 0.830078 9.24805 0.830078ZM9.24805-0.654297C5.70312-0.654297 2.87109-3.49609 2.87109-7.05078C2.87109-10.6055 5.69336-13.4473 9.23828-13.4473C12.793-13.4473 15.6348-10.6055 15.6445-7.05078C15.6543-3.49609 12.8027-0.654297 9.24805-0.654297ZM9.22852-3.62305C9.69727-3.62305 9.9707-3.93555 9.9707-4.45312L9.9707-6.31836L12.002-6.31836C12.5-6.31836 12.832-6.57227 12.832-7.04102C12.832-7.51953 12.5195-7.7832 12.002-7.7832L9.9707-7.7832L9.9707-9.81445C9.9707-10.332 9.69727-10.6543 9.22852-10.6543C8.75977-10.6543 8.50586-10.3125 8.50586-9.81445L8.50586-7.7832L6.49414-7.7832C5.97656-7.7832 5.64453-7.51953 5.64453-7.04102C5.64453-6.57227 5.99609-6.31836 6.49414-6.31836L8.50586-6.31836L8.50586-4.45312C8.50586-3.95508 8.75977-3.62305 9.22852-3.62305Z"/>
  </g>
  <g id="" transform="matrix(1 0 0 1 281.506 1933)">
   <path d="M11.709 2.91016C17.1582 2.91016 21.6699-1.61133 21.6699-7.05078C21.6699-12.5 17.1484-17.0117 11.6992-17.0117C6.25977-17.0117 1.74805-12.5 1.74805-7.05078C1.74805-1.61133 6.26953 2.91016 11.709 2.91016ZM11.709 1.25C7.09961 1.25 3.41797-2.44141 3.41797-7.05078C3.41797-11.6602 7.08984-15.3516 11.6992-15.3516C16.3086-15.3516 20-11.6602 20.0098-7.05078C20.0195-2.44141 16.3184 1.25 11.709 1.25ZM11.6797-2.66602C12.207-2.66602 12.5098-3.01758 12.5098-3.59375L12.5098-6.23047L15.3223-6.23047C15.8691-6.23047 16.25-6.51367 16.25-7.03125C16.25-7.55859 15.8887-7.86133 15.3223-7.86133L12.5098-7.86133L12.5098-10.6836C12.5098-11.25 12.207-11.6113 11.6797-11.6113C11.1621-11.6113 10.8789-11.2305 10.8789-10.6836L10.8789-7.86133L8.07617-7.86133C7.50977-7.86133 7.13867-7.55859 7.13867-7.03125C7.13867-6.51367 7.5293-6.23047 8.07617-6.23047L10.8789-6.23047L10.8789-3.59375C10.8789-3.03711 11.1621-2.66602 11.6797-2.66602Z"/>
  </g>
  <g id="" transform="matrix(1 0 0 1 304.924 1933)">
   <path d="M14.9707 5.66406C21.9336 5.66406 27.6953-0.0976562 27.6953-7.05078C27.6953-14.0137 21.9238-19.7754 14.9609-19.7754C8.00781-19.7754 2.25586-14.0137 2.25586-7.05078C2.25586-0.0976562 8.01758 5.66406 14.9707 5.66406ZM14.9707 3.84766C8.93555 3.84766 4.08203-1.01562 4.08203-7.05078C4.08203-13.0957 8.92578-17.9492 14.9609-17.9492C21.0059-17.9492 25.8594-13.0957 25.8691-7.05078C25.8789-1.01562 21.0156 3.84766 14.9707 3.84766ZM14.9414-1.38672C15.5176-1.38672 15.8594-1.77734 15.8594-2.38281L15.8594-6.13281L19.7754-6.13281C20.3711-6.13281 20.7812-6.46484 20.7812-7.02148C20.7812-7.59766 20.3906-7.93945 19.7754-7.93945L15.8594-7.93945L15.8594-11.8652C15.8594-12.4805 15.5176-12.8711 14.9414-12.8711C14.375-12.8711 14.0527-12.4609 14.0527-11.8652L14.0527-7.93945L10.1465-7.93945C9.53125-7.93945 9.13086-7.59766 9.13086-7.02148C9.13086-6.46484 9.55078-6.13281 10.1465-6.13281L14.0527-6.13281L14.0527-2.38281C14.0527-1.79688 14.375-1.38672 14.9414-1.38672Z"/>
  </g>
  <text style="stroke:none;fill:black;font-family:-apple-system,&quot;SF Pro Display&quot;,&quot;SF Pro Text&quot;,Helvetica,sans-serif;font-weight:bold;" transform="matrix(1 0 0 1 263 1953)">Design Variations</text>
  <text style="stroke:none;fill:black;font-family:-apple-system,&quot;SF Pro Display&quot;,&quot;SF Pro Text&quot;,Helvetica,sans-serif;" transform="matrix(1 0 0 1 263 1971)">Symbols are supported in up to nine weights and three scales.</text>
  <text style="stroke:none;fill:black;font-family:-apple-system,&quot;SF Pro Display&quot;,&quot;SF Pro Text&quot;,Helvetica,sans-serif;" transform="matrix(1 0 0 1 263 1989)">For optimal layout with text and other symbols, vertically align</text>
  <text style="stroke:none;fill:black;font-family:-apple-system,&quot;SF Pro Display&quot;,&quot;SF Pro Text&quot;,Helvetica,sans-serif;" transform="matrix(1 0 0 1 263 2007)">symbols with the adjacent text.</text>
  <line id="" style="fill:none;stroke:#00AEEF;stroke-width:0.5;opacity:1.0;" x1="776" x2="776" y1="1919" y2="1933"/>
  <g id="" transform="matrix(1 0 0 1 776 1933)">
   <path d="M3.31055 0.126953C3.82812 0.126953 4.08203-0.0683594 4.26758-0.605469L5.52734-4.0625L11.2891-4.0625L12.5488-0.605469C12.7344-0.0683594 12.9883 0.126953 13.4961 0.126953C14.0137 0.126953 14.3457-0.185547 14.3457-0.673828C14.3457-0.839844 14.3164-0.986328 14.2383-1.20117L9.6582-13.3887C9.43359-13.9941 9.0332-14.2871 8.4082-14.2871C7.80273-14.2871 7.39258-13.9941 7.17773-13.3984L2.59766-1.19141C2.51953-0.976562 2.49023-0.830078 2.49023-0.664062C2.49023-0.175781 2.80273 0.126953 3.31055 0.126953ZM6.00586-5.53711L8.37891-12.1094L8.42773-12.1094L10.8008-5.53711Z"/>
  </g>
  <line id="" style="fill:none;stroke:#00AEEF;stroke-width:0.5;opacity:1.0;" x1="792.836" x2="792.836" y1="1919" y2="1933"/>
  <text style="stroke:none;fill:black;font-family:-apple-system,&quot;SF Pro Display&quot;,&quot;SF Pro Text&quot;,Helvetica,sans-serif;font-weight:bold;" transform="matrix(1 0 0 1 776 1953)">Margins</text>
  <text style="stroke:none;fill:black;font-family:-apple-system,&quot;SF Pro Display&quot;,&quot;SF Pro Text&quot;,Helvetica,sans-serif;" transform="matrix(1 0 0 1 776 1971)">Leading and trailing margins on the left and right side of each symbol</text>
  <text style="stroke:none;fill:black;font-family:-apple-system,&quot;SF Pro Display&quot;,&quot;SF Pro Text&quot;,Helvetica,sans-serif;" transform="matrix(1 0 0 1 776 1989)">can be adjusted by modifying the x-location of the margin guidelines.</text>
  <text style="stroke:none;fill:black;font-family:-apple-system,&quot;SF Pro Display&quot;,&quot;SF Pro Text&quot;,Helvetica,sans-serif;" transform="matrix(1 0 0 1 776 2007)">Modifications are automatically applied proportionally to all</text>
  <text style="stroke:none;fill:black;font-family:-apple-system,&quot;SF Pro Display&quot;,&quot;SF Pro Text&quot;,Helvetica,sans-serif;" transform="matrix(1 0 0 1 776 2025)">scales and weights.</text>
  <g id="" transform="matrix(1 0 0 1 1289 1933)">
   <path d="M2.8418 1.86523L4.54102 3.57422C5.40039 4.44336 6.38672 4.38477 7.31445 3.35938L17.4902-7.85156C17.7539-7.76367 18.0273-7.7832 18.3398-7.8418L19.4043-8.03711L20.0684-7.36328L20.0293-6.80664C19.9902-6.30859 20.1172-5.92773 20.6055-5.44922L21.3672-4.70703C21.8457-4.22852 22.4609-4.19922 22.9297-4.66797L25.8398-7.58789C26.3086-8.05664 26.2891-8.65234 25.8105-9.13086L25.0391-9.89258C24.5605-10.3711 24.1895-10.5273 23.7109-10.4883L23.1348-10.4395L22.4902-11.0742L22.7344-12.1973C22.8613-12.7637 22.7051-13.2031 22.1191-13.7891L19.9219-15.9766C16.582-19.2969 12.1484-19.2188 9.25781-16.3281C8.83789-15.918 8.80859-15.3418 9.04297-14.9512C9.27734-14.5898 9.73633-14.3555 10.3809-14.5215C11.8457-14.8633 13.3691-14.9219 14.7949-13.9844L14.209-12.5293C14.0137-12.0508 13.9844-11.6504 14.1113-11.2891L3.04688-0.898438C2.06055 0.0195312 1.98242 0.996094 2.8418 1.86523ZM10.752-15.957C13.1836-17.7344 16.4746-17.4316 18.7012-15.2051L21.1328-12.793C21.3672-12.5586 21.4062-12.373 21.3379-12.0312L21.0156-10.5469L22.5195-9.0625L23.5059-9.12109C23.7598-9.13086 23.8379-9.11133 24.0332-8.91602L24.6094-8.33984L22.168-5.89844L21.5918-6.47461C21.3965-6.66992 21.3672-6.74805 21.377-7.01172L21.4453-7.98828L19.9512-9.47266L18.4277-9.21875C18.1055-9.15039 17.959-9.17969 17.7148-9.41406L15.7129-11.416C15.459-11.6504 15.4297-11.8164 15.5859-12.1875L16.4648-14.2773C14.9023-15.7324 12.8711-16.3574 10.8398-15.7617C10.6836-15.7227 10.625-15.8496 10.752-15.957ZM5.27344 2.30469L4.10156 1.14258C3.63281 0.683594 3.74023 0.341797 4.14062-0.0195312L14.9512-10.1953L16.416-8.71094L6.42578 2.27539C6.07422 2.67578 5.74219 2.77344 5.27344 2.30469Z"/>
  </g>
  <text style="stroke:none;fill:black;font-family:-apple-system,&quot;SF Pro Display&quot;,&quot;SF Pro Text&quot;,Helvetica,sans-serif;font-weight:bold;" transform="matrix(1 0 0 1 1289 1953)">Exporting</text>
  <text style="stroke:none;fill:black;font-family:-apple-system,&quot;SF Pro Display&quot;,&quot;SF Pro Text&quot;,Helvetica,sans-serif;" transform="matrix(1 0 0 1 1289 1971)">Symbols should be outlined when exporting to ensure the</text>
  <text style="stroke:none;fill:black;font-family:-apple-system,&quot;SF Pro Display&quot;,&quot;SF Pro Text&quot;,Helvetica,sans-serif;" transform="matrix(1 0 0 1 1289 1989)">design is preserved when submitting to Xcode.</text>
  <text id="template-version" style="stroke:none;fill:black;font-family:-apple-system,&quot;SF Pro Display&quot;,&quot;SF Pro Text&quot;,Helvetica,sans-serif;text-anchor:end;" transform="matrix(1 0 0 1 3036 1933)">Template v.2.0</text>
  <text style="stroke:none;fill:black;font-family:-apple-system,&quot;SF Pro Display&quot;,&quot;SF Pro Text&quot;,Helvetica,sans-serif;text-anchor:end;" transform="matrix(1 0 0 1 3036 1951)">Requires Xcode 12 or greater</text>
  <text style="stroke:none;fill:black;font-family:-apple-system,&quot;SF Pro Display&quot;,&quot;SF Pro Text&quot;,Helvetica,sans-serif;text-anchor:end;" transform="matrix(1 0 0 1 3036 1969)">Generated from ant.circle.fill</text>
  <text style="stroke:none;fill:black;font-family:-apple-system,&quot;SF Pro Display&quot;,&quot;SF Pro Text&quot;,Helvetica,sans-serif;text-anchor:end;" transform="matrix(1 0 0 1 3036 1987)">Typeset at 100 points</text>
  <text style="stroke:none;fill:black;font-family:-apple-system,&quot;SF Pro Display&quot;,&quot;SF Pro Text&quot;,Helvetica,sans-serif;" transform="matrix(1 0 0 1 263 726)">Small</text>
  <text style="stroke:none;fill:black;font-family:-apple-system,&quot;SF Pro Display&quot;,&quot;SF Pro Text&quot;,Helvetica,sans-serif;" transform="matrix(1 0 0 1 263 1156)">Medium</text>
  <text style="stroke:none;fill:black;font-family:-apple-system,&quot;SF Pro Display&quot;,&quot;SF Pro Text&quot;,Helvetica,sans-serif;" transform="matrix(1 0 0 1 263 1586)">Large</text>
 </g>
 <g id="Guides">
  <g id="H-reference" style="fill:#27AAE1;stroke:none;" transform="matrix(1 0 0 1 339 696)">
   <path d="M0.976562 0L3.66211 0L12.9883-24.4629L45.752-24.4629L55.127 0L57.7637 0L30.6152-70.459L28.125-70.459ZM29.3457-67.1387L29.4434-67.1387L44.873-26.709L13.8672-26.709Z"/>
  </g>
  <line id="Baseline-S" style="fill:none;stroke:#27AAE1;opacity:1;stroke-width:0.5;" x1="263" x2="3036" y1="696" y2="696"/>
  <line id="Capline-S" style="fill:none;stroke:#27AAE1;opacity:1;stroke-width:0.5;" x1="263" x2="3036" y1="625.541" y2="625.541"/>
  <g id="H-reference" style="fill:#27AAE1;stroke:none;" transform="matrix(1 0 0 1 339 1126)">
   <path d="M0.976562 0L3.66211 0L12.9883-24.4629L45.752-24.4629L55.127 0L57.7637 0L30.6152-70.459L28.125-70.459ZM29.3457-67.1387L29.4434-67.1387L44.873-26.709L13.8672-26.709Z"/>
  </g>
  <line id="Baseline-M" style="fill:none;stroke:#27AAE1;opacity:1;stroke-width:0.5;" x1="263" x2="3036" y1="1126" y2="1126"/>
  <line id="Capline-M" style="fill:none;stroke:#27AAE1;opacity:1;stroke-width:0.5;" x1="263" x2="3036" y1="1055.54" y2="1055.54"/>
  <g id="H-reference" style="fill:#27AAE1;stroke:none;" transform="matrix(1 0 0 1 339 1556)">
   <path d="M0.976562 0L3.66211 0L12.9883-24.4629L45.752-24.4629L55.127 0L57.7637 0L30.6152-70.459L28.125-70.459ZM29.3457-67.1387L29.4434-67.1387L44.873-26.709L13.8672-26.709Z"/>
  </g>
  <line id="Baseline-L" style="fill:none;stroke:#27AAE1;opacity:1;stroke-width:0.5;" x1="263" x2="3036" y1="1556" y2="1556"/>
  <line id="Capline-L" style="fill:none;stroke:#27AAE1;opacity:1;stroke-width:0.5;" x1="263" x2="3036" y1="1485.54" y2="1485.54"/>
  <line id="left-margin" style="fill:none;stroke:#00AEEF;stroke-width:0.5;opacity:1.0;" x1="1391.3" x2="1391.3" y1="1030.79" y2="1150.12"/>
  <line id="right-margin" style="fill:none;stroke:#00AEEF;stroke-width:0.5;opacity:1.0;" x1="1508.39" x2="1508.39" y1="1030.79" y2="1150.12"/>
 </g>
 <g id="Symbols">
  <g id="Black-L" transform="matrix(1 0 0 1 2854.05 1556)">
   <path d="M79.3457 32.9102C116.748 32.9102 147.412 2.29492 147.412-35.1074C147.412-72.5586 116.748-103.174 79.2969-103.174C41.8945-103.174 11.2793-72.5586 11.2793-35.1074C11.2793 2.29492 41.9434 32.9102 79.3457 32.9102ZM49.8535-16.2598C49.0723-21.1914 50.9766-24.0234 56.4453-25.2441L71.3379-28.5156C70.459-28.8574 69.4824-29.7363 68.9941-30.9082L58.3496-31.9336C53.125-32.4219 50.6348-35.7422 50.6348-41.1621L50.6348-51.8555C50.6348-54.1992 52.0996-55.6641 54.4922-55.6641C56.8848-55.6641 58.2031-54.1992 58.2031-51.8555L58.2031-42.7246C58.2031-39.7949 59.8633-38.916 62.4023-38.7207L68.4082-38.1348C68.6523-39.1113 69.3848-40.2344 70.166-40.7227C64.3066-41.748 61.4746-45.3125 61.4746-50.4883C61.4746-53.9551 62.4023-57.1777 64.1602-59.8633L63.4277-60.4492C59.4727-63.1836 58.6914-67.041 61.1816-71.7285L62.7441-74.7559C63.5742-76.416 64.5996-77.0996 66.1133-77.0996C67.9688-77.0996 69.4336-75.7324 69.4336-73.9258C69.4336-73.0469 69.3359-72.5586 68.8477-71.7773L67.6758-69.6289C66.7969-68.0176 66.8457-66.3574 67.9199-65.5273L68.7988-64.9414C71.7773-67.0898 75.5371-68.4082 79.3457-68.4082C83.1543-68.4082 86.8652-67.0898 89.8926-64.9414L90.7227-65.5273C91.8457-66.3574 91.8945-68.0176 91.0156-69.6289L89.8438-71.7773C89.3066-72.5586 89.2578-73.0469 89.2578-73.9258C89.2578-75.7324 90.6738-77.0996 92.5781-77.0996C94.043-77.0996 95.0684-76.3672 95.9473-74.7559L97.4609-71.7285C100-67.0898 99.2188-63.1836 95.2637-60.4492L94.4824-59.8633C96.2891-57.1777 97.2168-53.9551 97.2168-50.4883C97.2168-45.3125 94.3359-41.748 88.4766-40.7227C89.2578-40.2344 89.9902-39.1113 90.2832-38.1348L96.2402-38.7207C98.8281-38.916 100.439-39.7949 100.439-42.7246L100.439-51.8555C100.439-54.1992 101.758-55.6641 104.15-55.6641C106.543-55.6641 108.057-54.1992 108.057-51.8555L108.057-41.1621C108.057-35.7422 105.566-32.4219 100.293-31.9336L89.6484-30.9082C89.1602-29.7363 88.1836-28.8574 87.3047-28.5156L102.197-25.2441C107.666-23.9746 109.619-21.1914 108.838-16.2598L106.348-0.146484C105.957 2.29492 104.834 3.80859 102.393 3.80859C100.098 3.80859 98.291 2.09961 98.6816-0.78125L100.83-14.7949C101.123-16.5527 100.635-17.5781 98.9258-18.2617C98.4375-18.457 97.9492-18.5547 97.5098-18.7012C97.6562-18.0664 97.6562-17.334 97.6562-16.6992C97.6562-5.51758 89.2578 5.0293 79.3457 5.0293C69.4336 5.0293 60.9863-5.51758 60.9863-16.6992C60.9863-17.334 61.0352-18.0664 61.1328-18.7012C60.6934-18.5547 60.2539-18.457 59.7168-18.2617C58.0566-17.5781 57.5195-16.5527 57.8613-14.7949L59.9609-0.78125C60.3516 2.09961 58.5449 3.80859 56.25 3.80859C53.8574 3.80859 52.6855 2.29492 52.3438-0.146484Z"/>
  </g>
  <g id="Heavy-L" transform="matrix(1 0 0 1 2558.39 1556)">
   <path d="M78.2715 31.8848C115.088 31.8848 145.312 1.66016 145.312-35.1562C145.312-71.9238 115.039-102.148 78.2715-102.148C41.4551-102.148 11.2793-71.9238 11.2793-35.1562C11.2793 1.66016 41.5039 31.8848 78.2715 31.8848ZM49.0234-16.748C48.291-21.4844 50.1953-24.1699 55.4199-25.3906L70.166-28.6621C69.1895-29.1016 68.2129-30.127 67.6758-31.4941L57.373-32.6172C52.2949-33.1055 49.9023-36.2305 49.9023-41.3574L49.9023-52.3438C49.9023-54.541 51.2695-55.8594 53.5156-55.8594C55.7129-55.8594 56.9336-54.541 56.9336-52.3438L56.9336-42.8223C56.9336-39.9902 58.4473-39.1113 60.9375-38.916L67.2852-38.1836C67.5293-39.209 68.2617-40.332 69.043-40.8691C63.2324-41.8945 60.3516-45.459 60.3516-50.6836C60.3516-54.3457 61.4746-57.8613 63.5254-60.6445L62.8906-61.1328C59.082-63.8184 58.3496-67.5781 60.8398-72.0703L62.5488-75.293C63.3789-76.8066 64.3066-77.4414 65.7227-77.4414C67.4805-77.4414 68.8477-76.1719 68.8477-74.4629C68.8477-73.6816 68.75-73.1934 68.2617-72.4609L66.8457-70.0195C65.918-68.3594 65.8691-66.7969 66.9922-65.918L67.8711-65.332C70.8496-67.4316 74.5605-68.6523 78.2715-68.6523C81.9824-68.6523 85.6934-67.4316 88.6719-65.332L89.5508-65.918C90.6738-66.7969 90.6738-68.3594 89.6973-70.0195L88.2812-72.4609C87.793-73.1934 87.7441-73.6816 87.7441-74.4629C87.7441-76.1719 89.0625-77.4414 90.8203-77.4414C92.2363-77.4414 93.1641-76.8066 93.9941-75.293L95.752-72.0703C98.2422-67.627 97.4609-63.8184 93.6523-61.1328L93.0664-60.6445C95.0684-57.8613 96.1914-54.3457 96.1914-50.6836C96.1914-45.459 93.3105-41.8457 87.5-40.8691C88.2812-40.2832 89.0137-39.209 89.2578-38.1836L95.6055-38.916C98.0957-39.1602 99.6094-39.9902 99.6094-42.8223L99.6094-52.3438C99.6094-54.541 100.83-55.8594 103.027-55.8594C105.273-55.8594 106.641-54.541 106.641-52.3438L106.641-41.3574C106.641-36.2305 104.248-33.1055 99.1699-32.6172L88.8672-31.4941C88.3789-30.127 87.3535-29.1016 86.377-28.6621L101.123-25.3906C106.396-24.1699 108.252-21.4844 107.52-16.748L104.932-0.146484C104.59 2.09961 103.516 3.51562 101.318 3.51562C99.1699 3.51562 97.5098 1.95312 97.8516-0.683594L100.098-15.4297C100.439-17.2363 99.9023-18.2617 98.0469-18.9453C97.4609-19.1406 96.875-19.2871 96.3379-19.4336C96.5332-18.6523 96.6309-17.7246 96.6309-16.7969C96.6309-5.56641 88.1836 5.0293 78.2715 5.0293C68.3594 5.0293 59.9121-5.56641 59.9121-16.7969C59.9121-17.7246 60.0098-18.6523 60.2539-19.4336C59.668-19.2871 59.1309-19.1406 58.4961-18.9453C56.6406-18.2617 56.1035-17.2363 56.4453-15.4297L58.6914-0.683594C59.0332 1.95312 57.373 3.51562 55.2246 3.51562C53.0273 3.51562 51.9531 2.09961 51.6113-0.146484Z"/>
  </g>
  <g id="Bold-L" transform="matrix(1 0 0 1 2262.88 1556)">
   <path d="M77.0996 30.6641C113.232 30.6641 142.92 0.927734 142.92-35.1562C142.92-71.2891 113.184-100.977 77.0508-100.977C40.9668-100.977 11.2793-71.2891 11.2793-35.1562C11.2793 0.927734 41.0156 30.6641 77.0996 30.6641ZM48.1445-17.2363C47.4121-21.7773 49.2676-24.3652 54.248-25.5371L68.8965-28.8574C67.8223-29.3457 66.6992-30.5664 66.2109-32.1777L56.2012-33.3496C51.3672-33.8867 49.1211-36.7676 49.1211-41.6016L49.1211-52.9297C49.1211-54.9316 50.3418-56.1035 52.3926-56.1035C54.3457-56.1035 55.4688-54.8828 55.4688-52.9297L55.4688-42.8711C55.4688-40.2344 56.9336-39.3555 59.3262-39.1113L66.0156-38.2812C66.3086-39.3555 66.9922-40.4297 67.7246-40.9668C61.9629-42.041 59.1309-45.6055 59.1309-50.8301C59.1309-54.834 60.4004-58.5938 62.7441-61.5234L62.3047-61.9141C58.6426-64.502 58.0078-68.2129 60.4004-72.4609L62.3535-75.8789C63.0859-77.2461 64.0137-77.832 65.2832-77.832C66.9434-77.832 68.1641-76.6602 68.1641-75.0977C68.1641-74.3652 68.0664-73.9258 67.627-73.1934L65.8691-70.459C64.8926-68.7988 64.7461-67.2852 66.0156-66.3574L66.8457-65.7227C69.8242-67.7734 73.5352-68.9453 77.0996-68.9453C80.6641-68.9453 84.3262-67.7734 87.3535-65.7227L88.1836-66.3574C89.4043-67.2852 89.3066-68.7988 88.2812-70.459L86.5723-73.1934C86.1328-73.9258 86.0352-74.3652 86.0352-75.0977C86.0352-76.6602 87.2559-77.832 88.8672-77.832C90.1855-77.832 91.0156-77.2461 91.7969-75.8789L93.75-72.4609C96.2402-68.2129 95.5566-64.502 91.8457-61.9141L91.4062-61.5234C93.75-58.5938 95.0684-54.834 95.0684-50.8301C95.0684-45.6055 92.1875-41.9922 86.4258-40.9668C87.1582-40.3809 87.8906-39.3555 88.1836-38.2812L94.8242-39.1113C97.2656-39.4043 98.6816-40.2344 98.6816-42.8711L98.6816-52.9297C98.6816-54.8828 99.8047-56.1035 101.807-56.1035C103.857-56.1035 105.078-54.8828 105.078-52.9297L105.078-41.6016C105.078-36.7676 102.832-33.8867 97.9492-33.3496L87.9395-32.1777C87.4512-30.5664 86.377-29.3457 85.3027-28.8574L99.9512-25.5371C104.932-24.3164 106.787-21.7773 106.055-17.2363L103.369-0.0976562C103.076 1.95312 102.1 3.22266 100.098 3.22266C98.1445 3.22266 96.582 1.75781 96.9727-0.634766L99.3164-16.0645C99.6582-18.0176 99.0723-19.043 97.0703-19.6777C96.3379-19.9219 95.6543-20.0684 94.9707-20.2637C95.3613-19.2871 95.5078-18.1152 95.5078-16.8945C95.5078-5.61523 86.9629 4.98047 77.0996 4.98047C67.1875 4.98047 58.6914-5.61523 58.6914-16.8945C58.6914-18.1152 58.8379-19.2871 59.1797-20.2637C58.4961-20.0684 57.8125-19.9219 57.1289-19.6777C55.127-19.043 54.4922-18.0176 54.834-16.0645L57.2266-0.634766C57.5195 1.75781 56.0547 3.22266 54.1016 3.22266C52.0996 3.22266 51.123 1.95312 50.7812-0.0976562Z"/>
  </g>
  <g id="Semibold-L" transform="matrix(1 0 0 1 1966.97 1556)">
   <path d="M76.2695 29.834C111.914 29.834 141.309 0.439453 141.309-35.1562C141.309-70.8008 111.865-100.195 76.2695-100.195C40.625-100.195 11.2793-70.8008 11.2793-35.1562C11.2793 0.439453 40.6738 29.834 76.2695 29.834ZM47.5098-17.5781C46.8262-22.0215 48.6328-24.5117 53.418-25.6348L67.9688-28.9551C66.8457-29.541 65.7227-30.8594 65.1855-32.6172L55.4199-33.8379C50.7324-34.4727 48.584-37.1094 48.584-41.7969L48.584-53.2715C48.584-55.1758 49.707-56.25 51.6113-56.25C53.418-56.25 54.4922-55.127 54.4922-53.2715L54.4922-42.9199C54.4922-40.3809 55.8594-39.502 58.2031-39.2578L65.1367-38.3301C65.4297-39.4531 66.1133-40.4785 66.8457-41.0645C61.1328-42.1387 58.252-45.752 58.252-50.9766C58.252-55.1758 59.7168-59.082 62.2559-62.1582L61.9141-62.4512C58.3496-65.0391 57.7637-68.6035 60.1074-72.7539L62.2559-76.2695C62.9395-77.5879 63.7695-78.125 64.9902-78.125C66.5527-78.125 67.6758-77.002 67.6758-75.5371C67.6758-74.8535 67.5781-74.3652 67.1875-73.7305L65.2344-70.752C64.209-69.0918 64.0137-67.627 65.2832-66.6504L66.1133-66.0156C69.0918-67.9688 72.8027-69.1406 76.2695-69.1406C79.7363-69.1406 83.4473-67.9688 86.4258-66.0156L87.2559-66.6504C88.5254-67.627 88.3301-69.0918 87.3047-70.752L85.3516-73.7305C84.9609-74.3652 84.8633-74.8535 84.8633-75.5371C84.8633-77.002 85.9863-78.125 87.5488-78.125C88.7695-78.125 89.5508-77.5391 90.2832-76.2695L92.4316-72.7539C94.873-68.6523 94.1895-65.0391 90.625-62.4512L90.2832-62.1582C92.8223-59.082 94.2871-55.1758 94.2871-50.9766C94.2871-45.7031 91.4062-42.1387 85.6934-41.0645C86.4258-40.4785 87.1094-39.4043 87.4023-38.3301L94.3359-39.2578C96.6797-39.5508 98.0469-40.3809 98.0469-42.9199L98.0469-53.2715C98.0469-55.127 99.1211-56.25 100.928-56.25C102.832-56.25 104.004-55.127 104.004-53.2715L104.004-41.7969C104.004-37.1094 101.807-34.4727 97.1191-33.8379L87.3535-32.6172C86.8164-30.8594 85.6934-29.4922 84.5703-28.9551L99.1211-25.6348C103.955-24.4629 105.713-22.0215 105.029-17.5781L102.295-0.0976562C102.002 1.80664 101.074 3.02734 99.2188 3.02734C97.4121 3.02734 95.9961 1.61133 96.3379-0.585938L98.7793-16.5527C99.1211-18.5547 98.4863-19.5801 96.3867-20.2148C95.6055-20.459 94.8242-20.6055 94.043-20.8496C94.5312-19.7266 94.7266-18.4082 94.7266-16.9434C94.7266-5.61523 86.1816 4.98047 76.2695 4.98047C66.4062 4.98047 57.8125-5.61523 57.8125-16.9434C57.8125-18.4082 58.0078-19.7266 58.4961-20.8496C57.7148-20.6055 56.9336-20.459 56.1523-20.2148C54.0527-19.5801 53.418-18.5547 53.7598-16.5527L56.2012-0.585938C56.4941 1.61133 55.127 3.02734 53.3203 3.02734C51.4648 3.02734 50.5371 1.80664 50.2441-0.0976562Z"/>
  </g>
  <g id="Medium-L" transform="matrix(1 0 0 1 1670.87 1556)">
   <path d="M75.6836 29.1992C110.938 29.1992 140.088 0.0976562 140.088-35.1562C140.088-70.459 110.889-99.5605 75.6348-99.5605C40.3809-99.5605 11.2793-70.459 11.2793-35.1562C11.2793 0.0976562 40.3809 29.1992 75.6836 29.1992ZM47.0703-17.8711C46.3867-22.168 48.1445-24.6094 52.832-25.7324L67.2852-29.0527C66.1133-29.6875 64.9414-31.1035 64.4531-32.959L54.834-34.2285C50.2441-34.8633 48.1445-37.4023 48.1445-41.9434L48.1445-53.5645C48.1445-55.3711 49.2188-56.3965 51.0254-56.3965C52.7344-56.3965 53.7598-55.3223 53.7598-53.5645L53.7598-42.9688C53.7598-40.4785 55.0293-39.6484 57.373-39.4043L64.4531-38.3789C64.7949-39.502 65.4785-40.5273 66.1621-41.1133C60.498-42.2363 57.6172-45.8008 57.6172-51.0742C57.6172-55.4199 59.1797-59.4727 61.8652-62.5977L61.6211-62.8418C58.1055-65.3809 57.5684-68.9453 59.9121-72.9492L62.1582-76.5625C62.793-77.7832 63.623-78.3203 64.7949-78.3203C66.2598-78.3203 67.334-77.2461 67.334-75.8301C67.334-75.1953 67.2363-74.7559 66.8457-74.1211L64.7461-70.9961C63.7207-69.3359 63.4766-67.8711 64.7461-66.8457L65.5762-66.2109C68.5547-68.1641 72.2656-69.2871 75.6348-69.2871C79.0527-69.2871 82.7148-68.1641 85.7422-66.2109L86.5234-66.8457C87.8418-67.8711 87.6465-69.3359 86.5723-70.9961L84.4727-74.1211C84.082-74.7559 83.9844-75.1953 83.9844-75.8301C83.9844-77.2949 85.0586-78.3203 86.5234-78.3203C87.6953-78.3203 88.4766-77.7832 89.1602-76.5625L91.4062-72.9492C93.7988-68.9941 93.1641-65.3809 89.6973-62.8418L89.4531-62.5977C92.1387-59.4727 93.7012-55.4199 93.7012-51.0742C93.7012-45.752 90.7715-42.1875 85.1562-41.1133C85.8398-40.5273 86.5234-39.502 86.8164-38.3789L93.9453-39.4043C96.2402-39.6973 97.5586-40.4785 97.5586-42.9688L97.5586-53.5645C97.5586-55.3223 98.584-56.3965 100.293-56.3965C102.1-56.3965 103.174-55.3223 103.174-53.5645L103.174-41.9434C103.174-37.4023 101.074-34.8633 96.4355-34.2285L86.8652-32.959C86.377-31.1035 85.1562-29.6387 84.0332-29.0527L98.4863-25.7324C103.174-24.5605 104.932-22.168 104.248-17.8711L101.465-0.0976562C101.172 1.70898 100.342 2.83203 98.584 2.83203C96.875 2.83203 95.5566 1.51367 95.8496-0.537109L98.3887-16.8945C98.7305-18.9941 98.0469-19.9707 95.8496-20.6055C95.0195-20.8496 94.1895-21.0449 93.3594-21.2891C93.8965-20.0684 94.0918-18.6523 94.0918-16.9922C94.0918-5.66406 85.5469 4.98047 75.6348 4.98047C65.7715 4.98047 57.1777-5.66406 57.1777-16.9922C57.1777-18.6523 57.4219-20.0684 57.959-21.2891C57.1289-21.0449 56.2988-20.8496 55.4688-20.6055C53.2227-19.9707 52.5879-18.9941 52.9297-16.8945L55.4199-0.537109C55.7129 1.51367 54.4434 2.83203 52.6855 2.83203C50.9766 2.83203 50.0977 1.70898 49.8535-0.0976562Z"/>
  </g>
  <g id="Regular-L" transform="matrix(1 0 0 1 1374.97 1556)">
   <path d="M74.8535 28.418C109.668 28.418 138.477-0.390625 138.477-35.2051C138.477-69.9707 109.619-98.7793 74.8047-98.7793C40.0391-98.7793 11.2793-69.9707 11.2793-35.2051C11.2793-0.390625 40.0879 28.418 74.8535 28.418ZM46.4355-18.2129C45.752-22.3633 47.5098-24.707 52.002-25.8301L66.4062-29.1504C65.1367-29.8828 63.916-31.3965 63.4277-33.4473L54.1016-34.7656C49.6094-35.4004 47.6074-37.7441 47.6074-42.0898L47.6074-53.9551C47.6074-55.6152 48.584-56.543 50.2441-56.543C51.8066-56.543 52.7832-55.5664 52.7832-53.9551L52.7832-43.0176C52.7832-40.625 54.0039-39.7949 56.25-39.502L63.623-38.4766C63.916-39.5996 64.5996-40.625 65.2832-41.2109C59.6191-42.334 56.7383-45.9473 56.7383-51.2207C56.7383-55.7129 58.4473-59.9609 61.377-63.2324L61.1816-63.3789C57.8125-65.8691 57.3242-69.3359 59.6191-73.2422L62.0117-76.9531C62.6465-78.125 63.4277-78.5645 64.502-78.5645C65.8691-78.5645 66.8945-77.5879 66.8945-76.2695C66.8945-75.6836 66.748-75.2441 66.4062-74.6094L64.1113-71.3379C63.0371-69.6289 62.6953-68.2129 64.0625-67.1387L64.8926-66.5039C67.8711-68.4082 71.5332-69.4336 74.8535-69.4336C78.125-69.4336 81.8359-68.4082 84.8145-66.5039L85.5957-67.1387C86.9629-68.2129 86.7188-69.6289 85.5957-71.3379L83.3008-74.6094C82.9102-75.2441 82.8125-75.6836 82.8125-76.2695C82.8125-77.6367 83.7891-78.5645 85.2051-78.5645C86.2793-78.5645 87.0117-78.0762 87.6953-76.9531L90.0879-73.2422C92.4316-69.3848 91.8457-65.8691 88.4766-63.3789L88.3301-63.2324C91.2109-59.9609 92.9199-55.7129 92.9199-51.2207C92.9199-45.8496 90.0391-42.2852 84.4238-41.2109C85.0586-40.5762 85.7422-39.5508 86.084-38.4766L93.4082-39.502C95.7031-39.8438 96.9238-40.625 96.9238-43.0176L96.9238-53.9551C96.9238-55.5664 97.9004-56.543 99.4629-56.543C101.123-56.543 102.1-55.5664 102.1-53.9551L102.1-42.0898C102.1-37.7441 100.098-35.4004 95.6055-34.7656L86.2793-33.4473C85.7422-31.3965 84.5215-29.7852 83.3008-29.1504L97.6562-25.8301C102.197-24.6582 103.906-22.3633 103.223-18.2129L100.391-0.0488281C100.146 1.61133 99.3164 2.63672 97.7539 2.63672C96.1426 2.63672 94.9219 1.36719 95.2637-0.488281L97.8516-17.3828C98.1934-19.5312 97.5098-20.5078 95.166-21.1426C94.2871-21.3867 93.3594-21.582 92.4316-21.8262C93.0664-20.5078 93.3105-18.8965 93.3105-17.041C93.3105-5.66406 84.7168 4.98047 74.8535 4.98047C64.9414 4.98047 56.3477-5.66406 56.3477-17.041C56.3477-18.8965 56.6406-20.5078 57.2266-21.8262C56.3477-21.582 55.4199-21.3867 54.4922-21.1426C52.1973-20.5078 51.5137-19.5312 51.8555-17.3828L54.4434-0.488281C54.6875 1.36719 53.5156 2.63672 51.9043 2.63672C50.3418 2.63672 49.5605 1.61133 49.2676-0.0488281Z"/>
  </g>
  <g id="Light-L" transform="matrix(1 0 0 1 1079.18 1556)">
   <path d="M73.9258 27.4902C108.301 27.4902 136.621-0.830078 136.621-35.2051C136.621-69.5312 108.252-97.8516 73.9258-97.8516C39.5508-97.8516 11.2793-69.5312 11.2793-35.2051C11.2793-0.830078 39.5996 27.4902 73.9258 27.4902ZM46.9238-18.7988C46.2402-22.9004 47.9492-25.293 52.4414-26.3672L65.4785-29.3945C64.1602-30.2734 63.0371-31.9824 62.6465-34.0332L54.3945-35.2051C49.9023-35.8398 47.9492-38.0371 47.9492-42.2852L47.9492-53.6621C47.9492-55.0781 48.7793-55.8594 50.1953-55.8594C51.5137-55.8594 52.3438-55.0293 52.3438-53.6621L52.3438-42.9688C52.3438-40.5762 53.4668-39.6484 55.8105-39.3555L62.8906-38.3301C63.2324-39.4531 63.8184-40.3809 64.4531-40.9668C59.0332-42.1875 56.25-45.6543 56.25-50.8301C56.25-55.5176 58.0566-59.9609 61.2793-63.1836L61.1328-63.3789C57.9102-65.8691 57.5195-69.043 59.8633-72.7051L62.8906-76.9531C63.3789-77.9297 64.0625-78.3203 64.9902-78.3203C66.1621-78.3203 66.9922-77.4414 66.9922-76.3672C66.9922-75.8301 66.8945-75.3906 66.5527-74.9023L63.5254-70.8008C62.3047-69.043 62.1094-67.6758 63.623-66.5039L64.3555-65.9668C67.2363-67.7734 70.7031-68.7988 73.9258-68.7988C77.1484-68.7988 80.6152-67.7734 83.4961-65.9668L84.2285-66.5039C85.7422-67.6758 85.5469-69.043 84.3262-70.8008L81.2988-74.9023C80.957-75.3906 80.8105-75.8301 80.8105-76.3672C80.8105-77.5391 81.6895-78.3203 82.8613-78.3203C83.7891-78.3203 84.4238-77.8809 84.9609-76.9531L87.9883-72.7051C90.4297-69.0918 89.9414-65.8691 86.7188-63.3789L86.5723-63.1836C89.7949-59.9609 91.6016-55.5176 91.6016-50.8301C91.6016-45.5566 88.7695-42.0898 83.3984-40.918C84.0332-40.332 84.6191-39.4043 84.9609-38.3301L92.041-39.3555C94.3848-39.6973 95.5078-40.5762 95.5078-42.9688L95.5078-53.6621C95.5078-55.0293 96.3379-55.8594 97.6562-55.8594C99.1211-55.8594 99.9023-55.0293 99.9023-53.6621L99.9023-42.2852C99.9023-38.0371 97.9492-35.8398 93.457-35.2051L85.2051-34.0332C84.8145-31.9336 83.6426-30.1758 82.373-29.3945L95.4102-26.3672C99.9023-25.293 101.611-22.9004 100.928-18.7988L98.1445-0.830078C97.9004 0.537109 97.2168 1.36719 95.8984 1.36719C94.5312 1.36719 93.457 0.292969 93.75-1.2207L96.3867-18.2129C96.7285-20.5566 96.0449-21.6309 93.7012-22.2168C92.7734-22.4609 91.748-22.7539 90.8203-22.998C91.6504-21.4844 92.041-19.6289 92.041-17.4316C92.041-6.29883 83.4961 4.10156 73.9258 4.10156C64.3555 4.10156 55.8105-6.29883 55.8105-17.4316C55.8105-19.6289 56.2012-21.4844 57.0312-22.998C56.1035-22.7539 55.0781-22.4609 54.1504-22.2168C51.8066-21.6309 51.123-20.5566 51.4648-18.2129L54.1016-1.2207C54.3457 0.292969 53.3203 1.36719 51.9531 1.36719C50.6348 1.36719 49.9512 0.537109 49.707-0.830078Z"/>
  </g>
  <g id="Thin-L" transform="matrix(1 0 0 1 783.693 1556)">
   <path d="M72.7051 26.2695C106.494 26.2695 134.18-1.41602 134.18-35.2051C134.18-68.9453 106.494-96.6309 72.7051-96.6309C38.9648-96.6309 11.2793-68.9453 11.2793-35.2051C11.2793-1.41602 38.9648 26.2695 72.7051 26.2695ZM47.5586-19.5312C46.8262-23.6328 48.584-26.0742 53.0273-27.0996L64.2578-29.7363C62.8418-30.8594 61.8652-32.7148 61.6211-34.9121L54.834-35.8398C50.2441-36.4746 48.3887-38.3789 48.3887-42.5293L48.3887-53.2227C48.3887-54.3457 49.0723-54.9805 50.1465-54.9805C51.1719-54.9805 51.8066-54.2969 51.8066-53.2227L51.8066-42.8711C51.8066-40.5273 52.7344-39.502 55.2734-39.1602L61.9629-38.1836C62.2559-39.2578 62.793-40.0879 63.3301-40.6738C58.3008-41.9434 55.5176-45.3125 55.5176-50.3418C55.5176-55.2246 57.5684-59.9121 61.1816-63.1836L60.9863-63.3301C57.959-65.8203 57.7148-68.6523 60.2539-72.0215L64.0625-77.002C64.4043-77.6367 64.9414-77.9785 65.625-77.9785C66.5039-77.9785 67.1875-77.2949 67.1875-76.5137C67.1875-76.0742 67.041-75.6348 66.6992-75.2441L62.6953-70.1172C61.377-68.2617 61.2793-66.9922 63.0371-65.7227L63.6719-65.2832C66.4062-66.9434 69.6289-67.9199 72.7051-67.9199C75.7812-67.9199 79.0039-66.9434 81.7871-65.2832L82.373-65.7227C84.1309-66.9922 84.0332-68.2617 82.7148-70.1172L78.7109-75.2441C78.3691-75.6348 78.2227-76.0742 78.2227-76.5137C78.2227-77.3926 78.9062-77.9785 79.7852-77.9785C80.5176-77.9785 81.0059-77.6367 81.3965-77.002L85.2051-72.0215C87.7441-68.6523 87.4512-65.8203 84.4238-63.3301L84.2773-63.1836C87.8418-59.9121 89.8926-55.2246 89.8926-50.3418C89.8926-45.166 87.0605-41.7969 82.0801-40.5762C82.666-40.0391 83.1543-39.209 83.4961-38.1836L90.1855-39.1602C92.7246-39.502 93.6523-40.5273 93.6523-42.8711L93.6523-53.2227C93.6523-54.2969 94.2383-54.9805 95.3125-54.9805C96.4355-54.9805 97.0215-54.2969 97.0215-53.2227L97.0215-42.5293C97.0215-38.3789 95.166-36.4746 90.5762-35.8398L83.7891-34.9121C83.5938-32.666 82.5195-30.7129 81.1523-29.7363L92.3828-27.0996C96.8262-26.0742 98.5352-23.6328 97.9004-19.5312L95.1172-1.85547C94.9707-0.830078 94.3848-0.244141 93.4082-0.244141C92.334-0.244141 91.5527-1.12305 91.748-2.19727L94.4336-19.2871C94.8242-21.875 94.1406-23.1445 91.7969-23.6816C90.7715-23.9258 89.6484-24.2676 88.623-24.5117C89.7949-22.7051 90.2832-20.5566 90.2832-17.9199C90.2832-7.12891 81.8848 2.97852 72.7051 2.97852C63.5254 2.97852 55.127-7.12891 55.127-17.9199C55.127-20.5566 55.6641-22.7051 56.7871-24.5117C55.7617-24.2676 54.6387-23.9258 53.6133-23.6816C51.2695-23.1445 50.5859-21.875 50.9766-19.2871L53.6621-2.19727C53.8574-1.12305 53.0762-0.244141 52.0508-0.244141C51.0742-0.244141 50.4395-0.830078 50.293-1.85547Z"/>
  </g>
  <g id="Ultralight-L" transform="matrix(1 0 0 1 487.616 1556)">
   <path d="M72.1191 25.6348C105.566 25.6348 132.91-1.70898 132.91-35.2051C132.91-68.6523 105.566-95.9961 72.1191-95.9961C38.623-95.9961 11.2793-68.6523 11.2793-35.2051C11.2793-1.70898 38.623 25.6348 72.1191 25.6348ZM47.8516-19.9219C47.1191-24.0234 48.877-26.4648 53.3203-27.4902L63.623-29.8828C62.1582-31.1523 61.2305-33.1055 61.1328-35.3027L55.0293-36.1328C50.4395-36.7676 48.6328-38.5742 48.6328-42.627L48.6328-53.0273C48.6328-54.0039 49.2188-54.4922 50.0977-54.4922C50.9766-54.4922 51.5137-53.9062 51.5137-53.0273L51.5137-42.8223C51.5137-40.4785 52.3438-39.4043 54.9316-39.0625L61.4746-38.1348C61.7676-39.1602 62.2559-39.9414 62.793-40.4785C57.8613-41.7969 55.1758-45.166 55.1758-50.0977C55.1758-55.0781 57.3242-59.8633 61.084-63.1836L60.9375-63.3301C58.0078-65.8203 57.8125-68.457 60.4004-71.6797L64.6484-77.002C64.9414-77.4902 65.3809-77.832 65.9668-77.832C66.6992-77.832 67.2852-77.1973 67.2852-76.5625C67.2852-76.1719 67.1387-75.7812 66.7969-75.3906L62.3047-69.7754C60.8887-67.8711 60.8398-66.6016 62.7441-65.332L63.2812-64.9414C66.0156-66.5039 69.043-67.4805 72.0703-67.4805C75.0977-67.4805 78.1738-66.5039 80.9082-64.9414L81.4453-65.332C83.3496-66.6016 83.252-67.8711 81.8848-69.7754L77.3926-75.3906C77.0508-75.7812 76.9043-76.1719 76.9043-76.5625C76.9043-77.2949 77.4902-77.832 78.2227-77.832C78.8086-77.832 79.248-77.4902 79.541-77.002L83.7891-71.6797C86.377-68.457 86.1816-65.8203 83.252-63.3301L83.0566-63.1836C86.8652-59.8633 89.0137-55.0781 89.0137-50.0977C89.0137-44.9707 86.2305-41.6504 81.3965-40.4297C81.9336-39.8438 82.373-39.0625 82.7148-38.1348L89.209-39.0625C91.8457-39.4043 92.6758-40.4785 92.6758-42.8223L92.6758-53.0273C92.6758-53.9062 93.1641-54.4922 94.0918-54.4922C95.0684-54.4922 95.5566-53.9062 95.5566-53.0273L95.5566-42.627C95.5566-38.5742 93.75-36.7676 89.1113-36.1328L83.0566-35.3027C82.959-33.0566 81.9336-30.957 80.5176-29.8828L90.8691-27.4902C95.2637-26.4648 96.9727-24.0234 96.3379-19.9219L93.6035-2.39258C93.457-1.51367 92.9199-1.07422 92.1387-1.07422C91.2109-1.07422 90.5762-1.85547 90.7227-2.68555L93.457-19.873C93.8965-22.5586 93.1641-23.877 90.8203-24.4629C89.7461-24.707 88.5742-25.0488 87.5488-25.293C88.8184-23.3398 89.4043-21.0449 89.4043-18.1641C89.4043-7.56836 81.1035 2.39258 72.0703 2.39258C63.0859 2.39258 54.7852-7.56836 54.7852-18.1641C54.7852-21.0449 55.3711-23.3398 56.6406-25.293C55.5664-25.0488 54.4434-24.707 53.3691-24.4629C51.0254-23.877 50.293-22.5586 50.7324-19.873L53.4668-2.68555C53.6133-1.85547 52.9297-1.07422 52.0508-1.07422C51.2695-1.07422 50.7324-1.51367 50.5859-2.39258Z"/>
  </g>
  <g id="Black-M" transform="matrix(1 0 0 1 2870.97 1126)">
   <path d="M62.4023 18.5547C91.9922 18.5547 116.113-5.56641 116.113-35.1562C116.113-64.7461 91.9922-88.8184 62.4023-88.8184C32.8125-88.8184 8.74023-64.7461 8.74023-35.1562C8.74023-5.56641 32.8125 18.5547 62.4023 18.5547ZM39.8926-20.2148C39.3066-24.2676 40.8691-26.6113 45.3613-27.5879L56.3477-29.9805C55.7129-30.2246 55.127-30.7617 54.7852-31.3965L46.7285-32.0312C42.3828-32.3242 40.332-35.1562 40.332-39.5996L40.332-47.2656C40.332-49.2188 41.6016-50.3906 43.5059-50.3906C45.5078-50.3906 46.582-49.2188 46.582-47.2656L46.582-40.918C46.582-38.4766 47.9004-37.7441 50.0488-37.5977L54.1016-37.3047C54.2969-37.9883 54.834-38.8672 55.4688-39.209C50.9766-39.9902 48.8281-42.7246 48.8281-46.6309C48.8281-49.0234 49.3652-51.3184 50.5371-53.2227L49.7559-53.8086C46.582-56.0059 45.9473-58.9844 47.998-62.7441L49.2676-65.1855C49.9512-66.5039 50.7812-67.041 51.9531-67.041C53.4668-67.041 54.6387-65.918 54.6387-64.502C54.6387-63.8184 54.5898-63.4277 54.1504-62.793L53.2227-61.0352C52.5391-59.8145 52.7344-58.4961 53.6133-57.8613L54.1992-57.5195C56.4941-59.1797 59.3262-60.2539 62.3535-60.2539C65.4297-60.2539 68.2129-59.1797 70.5566-57.5195L71.1426-57.8613C72.0215-58.4961 72.2168-59.8145 71.5332-61.0352L70.6055-62.793C70.166-63.4277 70.1172-63.8184 70.1172-64.502C70.1172-65.918 71.2891-67.041 72.8027-67.041C73.9746-67.041 74.8047-66.5039 75.4883-65.1855L76.7578-62.7441C78.8086-58.9844 78.1738-56.0059 75-53.8086L74.2188-53.2227C75.3906-51.3184 75.9277-49.0234 75.9277-46.6309C75.9277-42.7246 73.7793-39.9902 69.2871-39.209C69.9219-38.8672 70.459-37.9883 70.6543-37.3047L74.707-37.5977C76.8555-37.7441 78.1738-38.4766 78.1738-40.918L78.1738-47.2656C78.1738-49.2188 79.1992-50.3906 81.25-50.3906C83.1543-50.3906 84.4238-49.2188 84.4238-47.2656L84.4238-39.5996C84.4238-35.1562 82.373-32.3242 78.0273-32.0312L69.9219-31.3965C69.6289-30.7617 69.043-30.2246 68.4082-29.9805L79.3945-27.5879C83.8867-26.6113 85.4492-24.2676 84.8633-20.2148L83.0566-8.49609C82.7148-6.49414 81.7871-5.22461 79.7852-5.22461C77.9297-5.22461 76.416-6.64062 76.709-8.98438L78.2715-19.043C78.5156-20.3125 78.125-21.1914 77.0508-21.7773C76.7578-21.875 76.5137-21.9727 76.2695-22.0215C76.3184-21.6309 76.3184-21.2402 76.3184-20.9961C76.3184-12.4512 69.9219-4.44336 62.3535-4.44336C54.834-4.44336 48.4375-12.4512 48.4375-20.9961C48.4375-21.2402 48.4375-21.6309 48.4863-22.0215C48.2422-21.9727 47.998-21.875 47.7051-21.7773C46.582-21.1914 46.2402-20.3125 46.4844-19.043L48.0469-8.98438C48.3398-6.64062 46.8262-5.22461 44.9707-5.22461C42.9688-5.22461 42.041-6.49414 41.6992-8.49609Z"/>
  </g>
  <g id="Heavy-M" transform="matrix(1 0 0 1 2575.19 1126)">
   <path d="M61.5234 17.627C90.5273 17.627 114.258-6.10352 114.258-35.1562C114.258-64.1602 90.5273-87.8906 61.4746-87.8906C32.4707-87.8906 8.74023-64.1602 8.74023-35.1562C8.74023-6.10352 32.4707 17.627 61.5234 17.627ZM38.916-20.5566C38.3301-24.4629 39.8438-26.6602 44.0918-27.5879L55.3223-30.0781C54.6387-30.3711 53.9062-31.0547 53.5645-31.8848L45.5566-32.6172C41.4062-33.0078 39.4531-35.5957 39.4531-39.7949L39.4531-47.9004C39.4531-49.707 40.625-50.8301 42.4316-50.8301C44.2871-50.8301 45.3125-49.707 45.3125-47.9004L45.3125-41.0156C45.3125-38.7207 46.5332-37.9883 48.584-37.8418L53.0762-37.4023C53.2715-38.1348 53.8086-39.0137 54.4434-39.4043C49.9512-40.1855 47.7539-42.9199 47.7539-46.9238C47.7539-49.5605 48.4375-52.0508 49.8535-54.1016L49.2188-54.5898C46.1426-56.6895 45.5566-59.668 47.5586-63.2812L48.877-65.7227C49.5117-66.9922 50.293-67.5293 51.416-67.5293C52.832-67.5293 53.9551-66.4551 53.9551-65.0879C53.9551-64.4531 53.9062-64.0625 53.5156-63.4766L52.4414-61.6211C51.7578-60.3516 51.8555-59.1309 52.7344-58.4473L53.3691-58.0566C55.6641-59.668 58.4961-60.6934 61.4746-60.6934C64.4043-60.6934 67.2852-59.668 69.5801-58.0566L70.2148-58.4473C71.0938-59.1309 71.1914-60.3516 70.459-61.6211L69.4336-63.4766C69.043-64.0625 68.9941-64.4531 68.9941-65.0879C68.9941-66.4551 70.0684-67.5293 71.5332-67.5293C72.6562-67.5293 73.3887-66.9922 74.0723-65.7227L75.3906-63.2812C77.3926-59.668 76.8066-56.6895 73.7305-54.5898L73.0957-54.1016C74.4629-52.0508 75.1953-49.5605 75.1953-46.9238C75.1953-42.9199 72.998-40.1855 68.5059-39.4043C69.0918-39.0137 69.6777-38.1348 69.873-37.4023L74.3652-37.8418C76.3672-37.9883 77.6367-38.7207 77.6367-41.0156L77.6367-47.9004C77.6367-49.707 78.6621-50.8301 80.4688-50.8301C82.3242-50.8301 83.4473-49.707 83.4473-47.9004L83.4473-39.7949C83.4473-35.5957 81.4941-33.0078 77.3926-32.6172L69.3359-31.8848C68.9941-31.0547 68.3105-30.3711 67.627-30.0781L78.8086-27.5879C83.1055-26.6113 84.6191-24.4629 84.0332-20.5566L82.1289-8.25195C81.8359-6.39648 80.957-5.22461 79.1016-5.22461C77.3438-5.22461 75.9277-6.54297 76.2207-8.74023L77.8809-19.4824C78.125-20.8496 77.7344-21.6797 76.4648-22.2168C76.0742-22.3633 75.7324-22.4609 75.3906-22.5098C75.5371-22.0215 75.5371-21.4355 75.5371-20.9961C75.5371-12.3535 69.0918-4.24805 61.4746-4.24805C53.8574-4.24805 47.3633-12.3535 47.3633-20.9961C47.3633-21.4355 47.4121-22.0215 47.5586-22.5098C47.2168-22.4609 46.875-22.3633 46.4844-22.2168C45.2148-21.6797 44.7754-20.8496 45.0684-19.4824L46.6797-8.74023C46.9727-6.54297 45.6055-5.22461 43.8477-5.22461C41.9922-5.22461 41.1133-6.39648 40.8203-8.25195Z"/>
  </g>
  <g id="Bold-M" transform="matrix(1 0 0 1 2279.5 1126)">
   <path d="M60.498 16.5527C88.8672 16.5527 112.207-6.73828 112.207-35.1562C112.207-63.5742 88.8672-86.9141 60.4492-86.9141C32.0312-86.9141 8.74023-63.5742 8.74023-35.1562C8.74023-6.73828 32.0801 16.5527 60.498 16.5527ZM37.8418-20.9473C37.2559-24.6094 38.7207-26.709 42.7246-27.6367L54.1504-30.1758C53.3691-30.5176 52.5879-31.3477 52.1973-32.4707L44.2383-33.3008C40.332-33.7402 38.5254-36.084 38.5254-40.0391L38.5254-48.584C38.5254-50.293 39.5508-51.2695 41.2598-51.2695C42.9199-51.2695 43.8477-50.2441 43.8477-48.584L43.8477-41.1133C43.8477-38.9648 45.0195-38.2812 46.9727-38.1348L51.9043-37.5488C52.0996-38.3301 52.6855-39.209 53.2715-39.5996C48.7793-40.4297 46.5332-43.2129 46.5332-47.2168C46.5332-50.1465 47.4609-52.8809 49.0723-55.0781L48.6328-55.4199C45.7031-57.5195 45.166-60.4004 47.0215-63.8672L48.4375-66.3574C49.0234-67.5293 49.7559-68.0176 50.8301-68.0176C52.1973-68.0176 53.2227-67.041 53.2227-65.7227C53.2227-65.1367 53.125-64.7949 52.7832-64.209L51.6113-62.2559C50.8789-60.9863 50.8301-59.8145 51.7578-59.082L52.3926-58.6426C54.7363-60.2539 57.6172-61.1816 60.4492-61.1816C63.2812-61.1816 66.1621-60.2539 68.5059-58.6426L69.1406-59.082C70.0684-59.8145 70.0195-60.9863 69.2871-62.2559L68.1641-64.209C67.7734-64.7949 67.7246-65.1367 67.7246-65.7227C67.7246-67.041 68.7012-68.0176 70.0684-68.0176C71.1426-68.0176 71.875-67.5293 72.5098-66.3574L73.877-63.8672C75.7812-60.4492 75.2441-57.5195 72.2656-55.4199L71.8262-55.0781C73.4863-52.8809 74.3652-50.1465 74.3652-47.2168C74.3652-43.1641 72.1191-40.3809 67.627-39.5996C68.2129-39.1602 68.7988-38.3301 68.9941-37.5488L73.9746-38.1348C75.8789-38.3301 77.0508-38.9648 77.0508-41.1133L77.0508-48.584C77.0508-50.2441 77.9785-51.2695 79.6387-51.2695C81.3477-51.2695 82.373-50.2441 82.373-48.584L82.373-40.0391C82.373-36.084 80.5664-33.7402 76.6602-33.3008L68.7012-32.4707C68.3105-31.3477 67.5293-30.5176 66.748-30.1758L78.1738-27.6367C82.2266-26.6602 83.6914-24.6094 83.1055-20.9473L81.0547-8.00781C80.8105-6.29883 79.9805-5.22461 78.3203-5.22461C76.6602-5.22461 75.3906-6.44531 75.6836-8.44727L77.4414-19.9707C77.7344-21.3867 77.2949-22.2168 75.8301-22.7051C75.3418-22.9004 74.8535-22.998 74.4141-23.0957C74.6094-22.4609 74.707-21.7285 74.707-20.9473C74.707-12.207 68.1152-4.00391 60.4492-4.00391C52.7832-4.00391 46.1914-12.207 46.1914-20.9473C46.1914-21.7285 46.2891-22.4609 46.4844-23.0957C46.0449-22.998 45.5566-22.9004 45.0684-22.7051C43.6523-22.2168 43.2129-21.3867 43.457-19.9707L45.2148-8.44727C45.459-6.44531 44.2383-5.22461 42.5781-5.22461C40.918-5.22461 40.0879-6.29883 39.8438-8.00781Z"/>
  </g>
  <g id="Semibold-M" transform="matrix(1 0 0 1 1983.5 1126)">
   <path d="M59.7656 15.8691C87.7441 15.8691 110.791-7.22656 110.791-35.1562C110.791-63.1348 87.6953-86.2305 59.7656-86.2305C31.7871-86.2305 8.74023-63.1348 8.74023-35.1562C8.74023-7.22656 31.7871 15.8691 59.7656 15.8691ZM37.0605-21.2402C36.5234-24.7559 37.9395-26.709 41.748-27.6367L53.3691-30.2734C52.5391-30.6152 51.6602-31.543 51.2695-32.8125L43.3105-33.7891C39.5996-34.2285 37.8418-36.4258 37.8418-40.1855L37.8418-49.0723C37.8418-50.6348 38.8184-51.6113 40.4297-51.6113C41.9922-51.6113 42.8711-50.6348 42.8711-49.0723L42.8711-41.2109C42.8711-39.1602 43.9941-38.4766 45.8496-38.3301L51.123-37.6465C51.3184-38.4766 51.9043-39.3066 52.4414-39.7461C47.9492-40.5762 45.752-43.3594 45.752-47.4609C45.752-50.5371 46.7285-53.4668 48.5352-55.7617L48.1934-56.0059C45.3613-58.0566 44.873-60.9375 46.6797-64.2578L48.0957-66.7969C48.6816-67.9199 49.4141-68.3594 50.4395-68.3594C51.709-68.3594 52.6855-67.4316 52.6855-66.2109C52.6855-65.625 52.5879-65.2832 52.2461-64.7461L51.0254-62.6953C50.293-61.4258 50.1465-60.2539 51.0742-59.5215L51.7578-59.0332C54.1016-60.6445 56.9824-61.5234 59.7656-61.5234C62.5-61.5234 65.4297-60.6445 67.7734-59.0332L68.4082-59.5215C69.3359-60.2539 69.2383-61.4258 68.457-62.6953L67.2363-64.7461C66.8945-65.2832 66.8457-65.625 66.8457-66.2109C66.8457-67.4316 67.7734-68.3594 69.0918-68.3594C70.1172-68.3594 70.8008-67.8711 71.3867-66.7969L72.8027-64.2578C74.707-60.9863 74.1699-58.0566 71.2891-56.0059L70.9473-55.7617C72.7539-53.4668 73.7793-50.5371 73.7793-47.4609C73.7793-43.3594 71.5332-40.5762 67.041-39.7461C67.627-39.3066 68.1641-38.4766 68.4082-37.6465L73.6816-38.3301C75.5371-38.5254 76.6602-39.1602 76.6602-41.2109L76.6602-49.0723C76.6602-50.6348 77.5391-51.6113 79.1016-51.6113C80.7129-51.6113 81.6406-50.6348 81.6406-49.0723L81.6406-40.1855C81.6406-36.4258 79.9316-34.2285 76.1719-33.7891L68.2617-32.8125C67.8223-31.543 66.9434-30.6152 66.1133-30.2734L77.7344-27.6367C81.5918-26.6602 83.0078-24.7559 82.4219-21.2402L80.3711-7.86133C80.127-6.25 79.3457-5.22461 77.7832-5.22461C76.2207-5.22461 75.0488-6.34766 75.3418-8.25195L77.1484-20.3125C77.4414-21.7773 76.9531-22.5586 75.3906-23.0469C74.8047-23.2422 74.2676-23.3398 73.7305-23.4863C74.0234-22.7539 74.1211-21.875 74.1211-20.9473C74.1211-12.1094 67.4805-3.85742 59.7656-3.85742C52.002-3.85742 45.4102-12.1094 45.4102-20.9473C45.4102-21.875 45.5078-22.7539 45.752-23.4863C45.2148-23.3398 44.6777-23.2422 44.1406-23.0469C42.5293-22.5586 42.0898-21.7773 42.334-20.3125L44.1895-8.25195C44.4336-6.34766 43.2617-5.22461 41.748-5.22461C40.1855-5.22461 39.4043-6.25 39.1602-7.86133Z"/>
  </g>
  <g id="Medium-M" transform="matrix(1 0 0 1 1687.3 1126)">
   <path d="M59.2285 15.332C86.9141 15.332 109.766-7.51953 109.766-35.2051C109.766-62.8418 86.8652-85.6934 59.1797-85.6934C31.543-85.6934 8.74023-62.8418 8.74023-35.2051C8.74023-7.51953 31.5918 15.332 59.2285 15.332ZM36.4746-21.4355C35.9375-24.8047 37.3047-26.7578 41.0156-27.6367L52.7832-30.3223C51.9043-30.7129 50.9766-31.7383 50.5371-33.1055L42.627-34.1309C39.0137-34.6191 37.3535-36.6699 37.3535-40.2832L37.3535-49.4629C37.3535-50.9277 38.2812-51.8555 39.7949-51.8555C41.2598-51.8555 42.1387-50.9277 42.1387-49.4629L42.1387-41.2598C42.1387-39.2578 43.2129-38.623 44.9707-38.4766L50.4883-37.6953C50.7324-38.5742 51.3184-39.4043 51.8555-39.8438C47.3633-40.7227 45.1172-43.5059 45.1172-47.6074C45.1172-50.8301 46.1914-53.8574 48.1445-56.25L47.9004-56.4941C45.1172-58.4473 44.6289-61.3281 46.4355-64.5996L47.8516-67.1387C48.4375-68.2129 49.1211-68.6523 50.0977-68.6523C51.3672-68.6523 52.2949-67.7246 52.2949-66.5527C52.2949-66.0156 52.1973-65.625 51.9043-65.0879L50.5859-63.0371C49.8535-61.7676 49.6582-60.6445 50.5859-59.8633L51.2207-59.3262C53.6133-60.8887 56.543-61.8164 59.2285-61.8164C61.9141-61.8164 64.8438-60.8887 67.1875-59.3262L67.8711-59.8633C68.7988-60.6445 68.6523-61.7676 67.8223-63.0371L66.5527-65.0879C66.2598-65.625 66.1621-66.0156 66.1621-66.5527C66.1621-67.7734 67.0898-68.6523 68.3105-68.6523C69.3359-68.6523 69.9707-68.1641 70.5566-67.1387L72.0215-64.5996C73.877-61.377 73.3398-58.4473 70.5566-56.4941L70.3125-56.25C72.2168-53.8574 73.3398-50.8301 73.3398-47.6074C73.3398-43.457 71.0938-40.6738 66.6016-39.8438C67.1387-39.4043 67.7246-38.5742 67.9688-37.6953L73.4863-38.4766C75.2441-38.6719 76.3184-39.2578 76.3184-41.2598L76.3184-49.4629C76.3184-50.9277 77.1973-51.8555 78.6621-51.8555C80.1758-51.8555 81.1035-50.9277 81.1035-49.4629L81.1035-40.2832C81.1035-36.6699 79.4434-34.6191 75.8301-34.1309L67.9199-33.1055C67.4805-31.7383 66.5527-30.7129 65.6738-30.3223L77.4414-27.6367C81.1035-26.709 82.5195-24.8047 81.9336-21.4355L79.834-7.71484C79.5898-6.15234 78.8574-5.22461 77.3438-5.22461C75.8789-5.22461 74.7559-6.29883 75.0488-8.10547L76.9531-20.5566C77.1973-22.0703 76.709-22.8516 75.0488-23.3398C74.4141-23.4863 73.8281-23.6328 73.2422-23.7793C73.5352-22.998 73.6816-22.0215 73.6816-20.8984C73.6816-12.0605 66.9922-3.75977 59.2285-3.75977C51.4648-3.75977 44.7754-12.0605 44.7754-20.8984C44.7754-22.0215 44.9219-22.998 45.2148-23.7793C44.6289-23.6328 43.9941-23.4863 43.4082-23.3398C41.748-22.8516 41.2598-22.0703 41.5039-20.5566L43.4082-8.10547C43.6523-6.29883 42.5293-5.22461 41.0645-5.22461C39.5996-5.22461 38.8672-6.15234 38.623-7.71484Z"/>
  </g>
  <g id="Regular-M" transform="matrix(1 0 0 1 1391.3 1126)">
   <path d="M58.5449 14.5996C85.791 14.5996 108.35-7.95898 108.35-35.2051C108.35-62.4023 85.7422-85.0098 58.4961-85.0098C31.2988-85.0098 8.74023-62.4023 8.74023-35.2051C8.74023-7.95898 31.3477 14.5996 58.5449 14.5996ZM35.7422-21.7285C35.2051-24.9512 36.5234-26.7578 40.0879-27.6367L52.002-30.3711C51.0742-30.8594 50.0488-31.9336 49.6094-33.4961L41.748-34.6191C38.2812-35.1074 36.7188-37.0117 36.7188-40.4297L36.7188-49.9023C36.7188-51.3184 37.5488-52.1484 38.9648-52.1484C40.2832-52.1484 41.1133-51.3184 41.1133-49.9023L41.1133-41.3086C41.1133-39.4531 42.1387-38.8672 43.8477-38.623L49.707-37.793C49.9512-38.7207 50.5371-39.502 51.0742-39.9902C46.582-40.8691 44.2871-43.6523 44.2871-47.8516C44.2871-51.2207 45.5078-54.4434 47.6074-56.9336L47.4609-57.0801C44.7754-58.9844 44.3359-61.8652 46.0449-64.9902L47.5586-67.5781C48.0957-68.6035 48.7793-68.9941 49.707-68.9941C50.9277-68.9941 51.7578-68.1152 51.7578-66.9922C51.7578-66.5039 51.709-66.1133 51.3672-65.625L50.0488-63.4766C49.2676-62.207 48.9746-61.084 49.9023-60.3027L50.5859-59.7656C52.9297-61.2793 55.9082-62.1582 58.5449-62.1582C61.1328-62.1582 64.1113-61.2793 66.4551-59.7656L67.1387-60.3027C68.1152-61.084 67.8223-62.207 67.041-63.4766L65.6738-65.625C65.3809-66.1133 65.2832-66.5039 65.2832-66.9922C65.2832-68.1641 66.1621-68.9941 67.334-68.9941C68.3105-68.9941 68.8965-68.5547 69.4824-67.5781L70.9961-64.9902C72.8027-61.9141 72.2656-58.9844 69.5801-57.0801L69.4336-56.9336C71.5332-54.4434 72.7539-51.2207 72.7539-47.8516C72.7539-43.6523 70.5078-40.8203 66.0156-39.9902C66.5527-39.502 67.0898-38.6719 67.334-37.793L73.1934-38.623C74.9023-38.916 75.9277-39.4531 75.9277-41.3086L75.9277-49.9023C75.9277-51.3184 76.7578-52.1484 78.0762-52.1484C79.541-52.1484 80.3711-51.3184 80.3711-49.9023L80.3711-40.4297C80.3711-37.0117 78.7598-35.1074 75.3418-34.6191L67.4805-33.4961C66.9922-31.9336 65.9668-30.8105 65.0879-30.3711L77.002-27.6367C80.5176-26.709 81.8848-24.9512 81.3477-21.7285L79.1016-7.51953C78.9062-6.10352 78.2227-5.17578 76.8555-5.17578C75.4395-5.17578 74.4141-6.25 74.6582-7.86133L76.6602-20.8984C76.9043-22.4609 76.416-23.1934 74.6094-23.6816C73.9258-23.877 73.2422-24.0234 72.6074-24.2188C72.9492-23.291 73.0957-22.168 73.0957-20.8984C73.0957-11.9629 66.3574-3.61328 58.5449-3.61328C50.6836-3.61328 43.9941-11.9629 43.9941-20.8984C43.9941-22.168 44.1406-23.291 44.4824-24.2188C43.7988-24.0234 43.1152-23.877 42.4805-23.6816C40.6738-23.1934 40.1367-22.4609 40.4297-20.8984L42.3828-7.86133C42.627-6.25 41.6016-5.17578 40.2344-5.17578C38.8672-5.17578 38.1836-6.10352 37.9395-7.51953Z"/>
  </g>
  <g id="Light-M" transform="matrix(1 0 0 1 1095.42 1126)">
   <path d="M57.7148 13.7695C84.5215 13.7695 106.689-8.34961 106.689-35.2051C106.689-62.0117 84.5215-84.1797 57.666-84.1797C30.8594-84.1797 8.74023-62.0117 8.74023-35.2051C8.74023-8.34961 30.9082 13.7695 57.7148 13.7695ZM36.1328-22.2168C35.6445-25.4395 36.9629-27.2949 40.4785-28.125L51.1719-30.6152C50.1465-31.2012 49.2676-32.4707 48.9258-34.0332L42.041-35.0098C38.5254-35.498 37.0117-37.2559 37.0117-40.625L37.0117-49.6582C37.0117-50.8301 37.7441-51.5137 38.916-51.5137C40.0879-51.5137 40.7715-50.8301 40.7715-49.6582L40.7715-41.2598C40.7715-39.4043 41.6504-38.7207 43.457-38.5254L49.0723-37.6953C49.3164-38.5742 49.8047-39.3066 50.293-39.7949C46.0449-40.6738 43.7988-43.457 43.7988-47.5098C43.7988-51.0254 45.166-54.3945 47.5098-56.9336L47.4121-57.0312C44.8242-58.9844 44.4824-61.5723 46.2891-64.502L48.3398-67.5781C48.7793-68.4082 49.3652-68.75 50.1465-68.75C51.1719-68.75 51.9043-68.0176 51.9043-67.0898C51.9043-66.6504 51.8066-66.3086 51.5137-65.8691L49.5117-63.0371C48.6328-61.6699 48.3887-60.6445 49.5117-59.7656L50.0977-59.2773C52.3926-60.7422 55.1758-61.5234 57.7148-61.5234C60.2539-61.5234 63.0371-60.7422 65.2832-59.2773L65.918-59.7656C66.9922-60.6445 66.7969-61.6699 65.918-63.0371L63.916-65.8691C63.623-66.3086 63.5254-66.6504 63.5254-67.0898C63.5254-68.0664 64.2578-68.75 65.2832-68.75C66.0645-68.75 66.6016-68.3594 67.0898-67.5781L69.1406-64.502C70.9961-61.6211 70.5566-58.9844 68.0176-57.0312L67.8711-56.9336C70.2148-54.3945 71.582-51.0254 71.582-47.5098C71.582-43.3594 69.3359-40.625 65.0879-39.7461C65.5762-39.3066 66.1133-38.5254 66.3574-37.6953L71.9238-38.5254C73.7305-38.7695 74.6582-39.4043 74.6582-41.2598L74.6582-49.6582C74.6582-50.8301 75.3418-51.5137 76.4648-51.5137C77.7344-51.5137 78.418-50.8301 78.418-49.6582L78.418-40.625C78.418-37.2559 76.8555-35.498 73.3887-35.0098L66.5039-34.0332C66.1621-32.4219 65.2344-31.1523 64.2578-30.6152L74.9512-28.125C78.4668-27.2461 79.7852-25.4395 79.248-22.2168L77.0508-8.25195C76.9043-7.03125 76.2695-6.29883 75.1465-6.29883C73.9746-6.29883 73.0957-7.22656 73.3398-8.54492L75.3418-21.6797C75.6348-23.3887 75.0977-24.2188 73.291-24.6582C72.5586-24.8535 71.8262-25.0488 71.0938-25.2441C71.6797-24.1211 71.9238-22.8027 71.9238-21.2402C71.9238-12.5488 65.2832-4.3457 57.7148-4.3457C50.1465-4.3457 43.5059-12.5488 43.5059-21.2402C43.5059-22.8027 43.75-24.1211 44.2871-25.2441C43.6035-25.0488 42.8223-24.8535 42.1387-24.6582C40.332-24.2188 39.7949-23.3887 40.0879-21.6797L42.0898-8.54492C42.2852-7.22656 41.4062-6.29883 40.2832-6.29883C39.1113-6.29883 38.5254-7.03125 38.3301-8.25195Z"/>
  </g>
  <g id="Thin-M" transform="matrix(1 0 0 1 799.806 1126)">
   <path d="M56.6406 12.6953C82.9102 12.6953 104.492-8.88672 104.492-35.2051C104.492-61.4746 82.9102-83.0566 56.5918-83.0566C30.3223-83.0566 8.74023-61.4746 8.74023-35.2051C8.74023-8.88672 30.3223 12.6953 56.6406 12.6953ZM36.7188-22.9004C36.1816-26.123 37.5-27.9785 40.9668-28.7598L50.0977-30.9082C48.9746-31.7383 48.1934-33.1543 47.998-34.7656L42.3828-35.5469C38.8672-36.084 37.4023-37.5977 37.4023-40.8203L37.4023-49.2676C37.4023-50.1953 37.9883-50.7324 38.8672-50.7324C39.7461-50.7324 40.2832-50.1465 40.2832-49.2676L40.2832-41.1621C40.2832-39.3555 41.0156-38.5742 42.9688-38.3301L48.1934-37.5488C48.4863-38.3789 48.877-39.0625 49.3164-39.502C45.3613-40.4785 43.2129-43.1152 43.2129-47.0703C43.2129-50.7812 44.7266-54.3457 47.4121-56.8848L47.3145-57.0312C44.9219-58.9355 44.6777-61.2305 46.6309-63.916L49.3652-67.5781C49.707-68.1641 50.1465-68.457 50.7324-68.457C51.4648-68.457 52.0508-67.8711 52.0508-67.1875C52.0508-66.8457 51.9043-66.5039 51.6602-66.1621L48.7793-62.4023C47.8027-60.9863 47.6562-60.0098 48.9746-59.0332L49.4629-58.6914C51.6602-59.9609 54.1992-60.7422 56.6406-60.7422C59.0332-60.7422 61.5723-59.9609 63.7695-58.6914L64.2578-59.0332C65.5762-60.0098 65.4785-60.9863 64.4531-62.4023L61.5723-66.1621C61.3281-66.5039 61.1816-66.8457 61.1816-67.1875C61.1816-67.9199 61.7676-68.457 62.5-68.457C63.0859-68.457 63.5254-68.1641 63.8672-67.5781L66.6504-63.916C68.6035-61.2305 68.3105-58.9355 65.918-57.0312L65.8203-56.8848C68.5059-54.3457 70.0684-50.7812 70.0684-47.0703C70.0684-43.0176 67.8223-40.3809 63.916-39.4531C64.3555-39.0137 64.7949-38.3301 65.0391-37.5488L70.2637-38.3301C72.2168-38.5742 72.998-39.3555 72.998-41.1621L72.998-49.2676C72.998-50.1465 73.4863-50.7324 74.3652-50.7324C75.293-50.7324 75.8301-50.1465 75.8301-49.2676L75.8301-40.8203C75.8301-37.5977 74.3652-36.084 70.8496-35.5469L65.2344-34.7656C65.0391-33.1055 64.209-31.6406 63.1836-30.9082L72.2656-28.7598C75.7324-27.9297 77.0508-26.123 76.5137-22.9004L74.3652-9.13086C74.2188-8.25195 73.7305-7.76367 72.9004-7.76367C72.0215-7.76367 71.3867-8.49609 71.5332-9.42383L73.6328-22.6562C73.9258-24.6094 73.3887-25.5371 71.582-25.9766C70.8008-26.1719 69.9707-26.416 69.1895-26.5625C69.9707-25.2441 70.3613-23.6328 70.3613-21.7285C70.3613-13.2812 63.8184-5.37109 56.6406-5.37109C49.4141-5.37109 42.8711-13.2812 42.8711-21.7285C42.8711-23.6328 43.2617-25.2441 44.043-26.5625C43.2617-26.416 42.4316-26.1719 41.6504-25.9766C39.8438-25.5371 39.3066-24.6094 39.5996-22.6562L41.6992-9.42383C41.8457-8.49609 41.2109-7.76367 40.332-7.76367C39.502-7.76367 39.0137-8.25195 38.8672-9.13086Z"/>
  </g>
  <g id="Ultralight-M" transform="matrix(1 0 0 1 503.656 1126)">
   <path d="M56.0547 12.1094C82.0801 12.1094 103.369-9.17969 103.369-35.2051C103.369-61.2305 82.0801-82.5195 56.0547-82.5195C30.0293-82.5195 8.74023-61.2305 8.74023-35.2051C8.74023-9.17969 30.0293 12.1094 56.0547 12.1094ZM37.0117-23.2422C36.4258-26.416 37.793-28.3203 41.2109-29.1016L49.5117-31.0547C48.3887-31.9824 47.6562-33.4961 47.5098-35.1562L42.5781-35.8398C39.0625-36.3281 37.5977-37.7441 37.5977-40.918L37.5977-49.0723C37.5977-49.9023 38.0859-50.293 38.8184-50.293C39.5996-50.293 39.9902-49.8047 39.9902-49.0723L39.9902-41.1133C39.9902-39.3066 40.6738-38.4766 42.6758-38.2324L47.8027-37.5C48.0469-38.3301 48.3887-38.916 48.8281-39.3555C44.9707-40.3809 42.8711-42.9688 42.8711-46.8262C42.8711-50.6348 44.4824-54.3457 47.3633-56.8848L47.2656-57.0312C44.9707-58.9355 44.7754-61.0352 46.7773-63.5742L49.9023-67.627C50.1465-68.0176 50.5371-68.2617 51.0254-68.2617C51.6113-68.2617 52.1484-67.7734 52.1484-67.2363C52.1484-66.9434 52.002-66.6016 51.7578-66.3086L48.3887-62.1094C47.3633-60.6445 47.2656-59.668 48.7305-58.6426L49.1699-58.3496C51.2695-59.6191 53.7109-60.3516 56.0547-60.3516C58.4473-60.3516 60.8398-59.6191 62.9395-58.3496L63.3789-58.6426C64.8438-59.668 64.7949-60.6445 63.7207-62.1094L60.3516-66.3086C60.1074-66.6016 60.0098-66.9434 60.0098-67.2363C60.0098-67.8711 60.498-68.2617 61.084-68.2617C61.5723-68.2617 61.9629-68.0176 62.207-67.627L65.332-63.5742C67.334-61.0352 67.1875-58.9355 64.8926-57.0312L64.7461-56.8848C67.627-54.3457 69.2383-50.6348 69.2383-46.8262C69.2383-42.8711 67.0898-40.2344 63.2812-39.3066C63.7207-38.8672 64.1113-38.2324 64.3555-37.5L69.4336-38.2324C71.4355-38.4766 72.1191-39.3066 72.1191-41.1133L72.1191-49.0723C72.1191-49.8047 72.5586-50.293 73.291-50.293C74.0723-50.293 74.5117-49.8047 74.5117-49.0723L74.5117-40.918C74.5117-37.7441 73.0957-36.3281 69.5312-35.8398L64.5996-35.1562C64.4531-33.3984 63.6719-31.8359 62.5977-31.0547L70.8984-29.1016C74.3164-28.3203 75.6348-26.416 75.1465-23.2422L72.998-9.61914C72.9004-8.88672 72.4609-8.54492 71.7773-8.54492C71.0449-8.54492 70.5078-9.13086 70.6055-9.86328L72.7539-23.1445C73.0469-25.1953 72.5098-26.2207 70.7031-26.6602C69.873-26.8555 68.9941-27.0996 68.1641-27.2949C69.1406-25.8301 69.5801-24.0723 69.5801-21.9238C69.5801-13.6719 63.0859-5.9082 56.0547-5.9082C49.0234-5.9082 42.5781-13.6719 42.5781-21.9238C42.5781-24.0723 43.0176-25.8301 43.9453-27.2949C43.1152-27.0996 42.2363-26.8555 41.4551-26.6602C39.6484-26.2207 39.0625-25.1953 39.4043-23.1445L41.5039-9.86328C41.6504-9.13086 41.0645-8.54492 40.332-8.54492C39.6484-8.54492 39.2578-8.88672 39.1113-9.61914Z"/>
  </g>
  <g id="Black-S" transform="matrix(1 0 0 1 2884.57 696)">
   <path d="M48.8281 6.83594C71.9727 6.83594 90.8203-12.0117 90.8203-35.1562C90.8203-58.3008 71.9727-77.1484 48.8281-77.1484C25.6836-77.1484 6.83594-58.3008 6.83594-35.1562C6.83594-12.0117 25.6836 6.83594 48.8281 6.83594ZM31.2012-23.4863C30.7129-26.6602 31.9336-28.4668 35.4492-29.248L44.0918-31.1035C43.6035-31.2988 43.1152-31.7383 42.8711-32.2754L36.5234-32.7637C33.1543-33.0078 31.543-35.2051 31.543-38.6719L31.543-44.7266C31.543-46.2402 32.5195-47.168 34.0332-47.168C35.5957-47.168 36.4258-46.2402 36.4258-44.7266L36.4258-39.6973C36.4258-37.793 37.4512-37.207 39.1113-37.1094L42.334-36.8652C42.4805-37.4023 42.9199-38.0859 43.4082-38.3789C39.8926-38.9648 38.1836-41.1133 38.1836-44.1895C38.1836-46.0938 38.623-47.9004 39.5508-49.4141L38.9648-49.8535C36.4746-51.5625 35.9863-53.9062 37.5977-56.8359L38.5742-58.7402C39.1113-59.7656 39.7461-60.2051 40.6738-60.2051C41.8457-60.2051 42.7734-59.3262 42.7734-58.2031C42.7734-57.666 42.7246-57.373 42.3828-56.8848L41.6504-55.5176C41.1133-54.541 41.2598-53.5156 41.9434-53.0273L42.4316-52.7344C44.2383-54.0527 46.4355-54.8828 48.8281-54.8828C51.2207-54.8828 53.418-54.0527 55.2246-52.7344L55.7129-53.0273C56.3965-53.5156 56.543-54.541 56.0059-55.5176L55.2734-56.8848C54.9316-57.373 54.8828-57.666 54.8828-58.2031C54.8828-59.3262 55.8105-60.2051 56.9824-60.2051C57.9102-60.2051 58.5449-59.7656 59.082-58.7402L60.0586-56.8359C61.6699-53.9062 61.1816-51.5625 58.6914-49.8535L58.1055-49.4141C59.0332-47.9004 59.4727-46.0938 59.4727-44.1895C59.4727-41.1133 57.7637-38.9648 54.248-38.3789C54.7363-38.0859 55.1758-37.4023 55.3223-36.8652L58.5449-37.1094C60.2051-37.207 61.2305-37.793 61.2305-39.6973L61.2305-44.7266C61.2305-46.2402 62.0605-47.168 63.623-47.168C65.1367-47.168 66.1133-46.2402 66.1133-44.7266L66.1133-38.6719C66.1133-35.2051 64.502-33.0078 61.1328-32.7637L54.7852-32.2754C54.541-31.7383 54.0527-31.2988 53.5645-31.1035L62.207-29.248C65.7227-28.4668 66.9434-26.6602 66.4551-23.4863L65.0391-14.2578C64.7949-12.6953 64.0625-11.7188 62.5-11.7188C61.0352-11.7188 59.8633-12.793 60.1074-14.6484L61.3281-22.5586C61.5234-23.584 61.2305-24.2676 60.3516-24.707C60.1074-24.8047 59.9121-24.8535 59.7168-24.9023C59.7656-24.6094 59.7656-24.2676 59.7656-24.0723C59.7656-17.3828 54.7363-11.084 48.8281-11.084C42.9199-11.084 37.8906-17.3828 37.8906-24.0723C37.8906-24.2676 37.8906-24.6094 37.9395-24.9023C37.7441-24.8535 37.5488-24.8047 37.3047-24.707C36.4258-24.2676 36.1328-23.584 36.3281-22.5586L37.5488-14.6484C37.793-12.793 36.6211-11.7188 35.1562-11.7188C33.5938-11.7188 32.8613-12.6953 32.6172-14.2578Z"/>
  </g>
  <g id="Heavy-S" transform="matrix(1 0 0 1 2588.47 696)">
   <path d="M48.2422 6.20117C70.9961 6.20117 89.5996-12.4023 89.5996-35.1562C89.5996-57.9102 70.9961-76.5625 48.1934-76.5625C25.4395-76.5625 6.83594-57.9102 6.83594-35.1562C6.83594-12.4023 25.4395 6.20117 48.2422 6.20117ZM30.4199-23.6816C29.9316-26.709 31.1035-28.418 34.4727-29.1992L43.4082-31.1523C42.8711-31.3477 42.2852-31.8848 41.9922-32.5684L35.5957-33.2031C32.373-33.4473 30.8594-35.498 30.8594-38.8184L30.8594-45.2148C30.8594-46.6797 31.7871-47.5586 33.2031-47.5586C34.668-47.5586 35.498-46.6797 35.498-45.2148L35.498-39.7949C35.498-37.9883 36.4746-37.4023 38.0371-37.3047L41.6016-36.9629C41.748-37.5488 42.2363-38.2324 42.6758-38.5254C39.1602-39.1602 37.4023-41.3086 37.4023-44.4336C37.4023-46.5332 37.9883-48.4863 39.0137-50.0977L38.5742-50.4395C36.1328-52.0996 35.6934-54.4434 37.207-57.2754L38.1836-59.1797C38.7207-60.1562 39.3066-60.5957 40.2344-60.5957C41.3574-60.5957 42.2363-59.7168 42.2363-58.6426C42.2363-58.1543 42.1875-57.8613 41.8457-57.373L41.1133-56.0059C40.5762-55.0293 40.625-54.0527 41.3086-53.5156L41.8457-53.1738C43.6523-54.4922 45.8984-55.2734 48.2422-55.2734C50.5371-55.2734 52.7832-54.4922 54.6387-53.1738L55.127-53.5156C55.8105-54.0527 55.8594-55.0293 55.3223-56.0059L54.5898-57.373C54.248-57.8613 54.1992-58.1543 54.1992-58.6426C54.1992-59.7168 55.0781-60.5957 56.25-60.5957C57.1289-60.5957 57.7148-60.1562 58.252-59.1797L59.2285-57.2754C60.791-54.4434 60.3027-52.0996 57.8613-50.4395L57.4219-50.0977C58.4961-48.4863 59.0332-46.5332 59.0332-44.4336C59.0332-41.3086 57.2754-39.1602 53.7598-38.5254C54.248-38.2324 54.6875-37.5488 54.834-36.9629L58.3984-37.3047C59.9609-37.4512 60.9863-37.9883 60.9863-39.7949L60.9863-45.2148C60.9863-46.6797 61.7676-47.5586 63.2324-47.5586C64.6973-47.5586 65.5762-46.6797 65.5762-45.2148L65.5762-38.8184C65.5762-35.498 64.0625-33.4473 60.8398-33.2031L54.4434-32.5684C54.1504-31.8848 53.5645-31.3477 53.0273-31.1523L62.0117-29.1992C65.332-28.418 66.5039-26.709 66.0645-23.6816L64.5508-14.0137C64.3066-12.5 63.623-11.5723 62.1582-11.5723C60.7422-11.5723 59.6191-12.5977 59.8633-14.3555L61.1816-22.8027C61.377-23.877 61.0352-24.5117 60.0586-24.9512C59.7656-25.0488 59.4727-25.0977 59.2285-25.1953C59.2773-24.8047 59.3262-24.3652 59.3262-24.0234C59.3262-17.2363 54.1992-10.8398 48.2422-10.8398C42.2363-10.8398 37.1582-17.2363 37.1582-24.0234C37.1582-24.3652 37.1582-24.8047 37.207-25.1953C36.9629-25.0977 36.7188-25.0488 36.377-24.9512C35.4004-24.5117 35.0586-23.877 35.2539-22.8027L36.5723-14.3555C36.7676-12.5977 35.6934-11.5723 34.2773-11.5723C32.8125-11.5723 32.1289-12.5 31.8848-14.0137Z"/>
  </g>
  <g id="Bold-S" transform="matrix(1 0 0 1 2292.44 696)">
   <path d="M47.5586 5.51758C69.873 5.51758 88.2324-12.8418 88.2324-35.2051C88.2324-57.5195 69.873-75.8789 47.5098-75.8789C25.1953-75.8789 6.83594-57.5195 6.83594-35.2051C6.83594-12.8418 25.1953 5.51758 47.5586 5.51758ZM29.4922-23.9258C29.0527-26.8066 30.1758-28.418 33.3008-29.1504L42.627-31.2012C41.9922-31.4453 41.3574-32.0801 41.0156-32.9102L34.5215-33.6426C31.4941-33.9844 30.0781-35.8398 30.0781-38.9648L30.0781-45.8008C30.0781-47.168 30.9082-47.998 32.2754-47.998C33.6426-47.998 34.4238-47.168 34.4238-45.8008L34.4238-39.8438C34.4238-38.1836 35.3516-37.6465 36.8164-37.5488L40.7715-37.0605C40.9668-37.6953 41.4062-38.3789 41.8945-38.7207C38.3301-39.3555 36.5723-41.5527 36.5723-44.7266C36.5723-46.9727 37.207-49.0723 38.4277-50.8301L38.0859-51.0742C35.7422-52.6855 35.3516-55.0781 36.7676-57.8125L37.7441-59.668C38.2324-60.5957 38.8184-60.9863 39.6973-60.9863C40.8203-60.9863 41.6504-60.2051 41.6504-59.1309C41.6504-58.6426 41.6016-58.3496 41.3086-57.9102L40.5762-56.543C39.9902-55.5664 39.9414-54.6387 40.625-54.1016L41.1621-53.7109C42.9688-54.9805 45.3125-55.7617 47.5586-55.7617C49.7559-55.7617 52.0996-54.9805 53.9551-53.7109L54.4434-54.1016C55.127-54.6387 55.0781-55.5664 54.541-56.543L53.8086-57.9102C53.5156-58.3496 53.4668-58.6426 53.4668-59.1309C53.4668-60.2051 54.248-60.9863 55.3711-60.9863C56.25-60.9863 56.8359-60.5957 57.373-59.668L58.3008-57.8125C59.7656-55.0781 59.3262-52.6855 56.9824-51.0742L56.6406-50.8301C57.8613-49.0723 58.5449-46.9727 58.5449-44.7266C58.5449-41.5527 56.7871-39.3555 53.1738-38.7207C53.6621-38.3789 54.1016-37.6953 54.2969-37.0605L58.252-37.5488C59.7168-37.6953 60.6445-38.1836 60.6445-39.8438L60.6445-45.8008C60.6445-47.168 61.4258-47.998 62.793-47.998C64.1602-47.998 64.9902-47.168 64.9902-45.8008L64.9902-38.9648C64.9902-35.8398 63.5742-33.9844 60.5469-33.6426L54.0527-32.9102C53.7109-32.0801 53.0762-31.4453 52.4902-31.2012L61.7676-29.1504C64.8926-28.3691 66.0645-26.8066 65.5762-23.9258L64.0137-13.7207C63.7695-12.3047 63.1348-11.4258 61.7676-11.4258C60.4492-11.4258 59.375-12.4512 59.6191-14.0625L60.9863-23.0957C61.1816-24.1699 60.8398-24.8047 59.7168-25.1953C59.3262-25.3418 58.9844-25.3906 58.6426-25.4883C58.7402-25.0488 58.7891-24.5117 58.7891-23.9746C58.7891-17.041 53.6133-10.5957 47.5586-10.5957C41.4551-10.5957 36.2793-17.041 36.2793-23.9746C36.2793-24.5117 36.3281-25.0488 36.4258-25.4883C36.084-25.3906 35.7422-25.3418 35.3516-25.1953C34.2285-24.8047 33.8867-24.1699 34.082-23.0957L35.4492-14.0625C35.6445-12.4512 34.668-11.4258 33.3008-11.4258C31.9336-11.4258 31.2988-12.3047 31.0547-13.7207Z"/>
  </g>
  <g id="Semibold-S" transform="matrix(1 0 0 1 1996.2 696)">
   <path d="M47.0703 5.0293C69.0918 5.0293 87.3047-13.1348 87.3047-35.2051C87.3047-57.2266 69.0918-75.4395 47.0215-75.4395C25-75.4395 6.83594-57.2266 6.83594-35.2051C6.83594-13.1348 25.0488 5.0293 47.0703 5.0293ZM28.8574-24.1211C28.4668-26.8555 29.541-28.3691 32.5684-29.1016L42.041-31.25C41.4551-31.4941 40.7227-32.1777 40.3809-33.1543L33.7891-33.9844C30.9082-34.3262 29.541-36.084 29.541-39.0625L29.541-46.1914C29.541-47.5098 30.3223-48.291 31.6406-48.291C32.9102-48.291 33.6914-47.5098 33.6914-46.1914L33.6914-39.9414C33.6914-38.3301 34.5703-37.8418 35.9863-37.6953L40.2344-37.1582C40.3809-37.8418 40.8691-38.4766 41.3086-38.8672C37.7441-39.502 35.9375-41.6992 35.9375-44.9219C35.9375-47.3145 36.7188-49.5117 38.0371-51.3672L37.793-51.5625C35.498-53.125 35.1074-55.4688 36.4746-58.1543L37.4023-59.9609C37.8906-60.8887 38.4766-61.2793 39.3555-61.2793C40.4297-61.2793 41.2109-60.498 41.2109-59.4727C41.2109-59.0332 41.1621-58.7402 40.8691-58.252L40.1367-56.9336C39.5996-55.957 39.4531-55.0293 40.1367-54.4922L40.6738-54.0527C42.5293-55.3223 44.873-56.0547 47.0703-56.0547C49.2676-56.0547 51.6113-55.3223 53.4668-54.0527L54.0039-54.4922C54.6875-55.0293 54.541-55.957 54.0039-56.9336L53.2227-58.252C52.9785-58.7402 52.9297-59.0332 52.9297-59.4727C52.9297-60.498 53.7109-61.2793 54.7852-61.2793C55.6152-61.2793 56.2012-60.8887 56.7383-59.9609L57.666-58.1543C59.082-55.5176 58.6426-53.125 56.3477-51.5625L56.1035-51.3672C57.4219-49.5117 58.1543-47.3145 58.1543-44.9219C58.1543-41.6992 56.3965-39.4531 52.832-38.8672C53.2715-38.4766 53.7109-37.8418 53.9062-37.1582L58.1543-37.6953C59.5215-37.8418 60.4492-38.3301 60.4492-39.9414L60.4492-46.1914C60.4492-47.5098 61.1816-48.291 62.5-48.291C63.8184-48.291 64.5996-47.5098 64.5996-46.1914L64.5996-39.0625C64.5996-36.084 63.2324-34.3262 60.3027-33.9844L53.7598-33.1543C53.418-32.1777 52.6855-31.4941 52.0508-31.25L61.5723-29.1016C64.5996-28.3691 65.7227-26.8555 65.2832-24.1211L63.623-13.5254C63.4277-12.207 62.793-11.3281 61.4746-11.3281C60.2051-11.3281 59.2285-12.3047 59.4727-13.8672L60.8887-23.291C61.084-24.4141 60.6934-24.9512 59.4727-25.3906C59.0332-25.4883 58.6426-25.5859 58.252-25.7324C58.3984-25.1953 58.4473-24.5605 58.4473-23.9258C58.4473-16.9434 53.2227-10.4004 47.0703-10.4004C40.918-10.4004 35.6934-16.9434 35.6934-23.9258C35.6934-24.5605 35.7422-25.1953 35.8887-25.7324C35.498-25.5859 35.0586-25.4883 34.668-25.3906C33.3984-24.9512 33.0566-24.4141 33.252-23.291L34.668-13.8672C34.8633-12.3047 33.9355-11.3281 32.666-11.3281C31.3477-11.3281 30.7129-12.207 30.5176-13.5254Z"/>
  </g>
  <g id="Medium-S" transform="matrix(1 0 0 1 1699.83 696)">
   <path d="M46.7285 4.6875C68.5547 4.6875 86.6211-13.3789 86.6211-35.2051C86.6211-57.0312 68.5059-75.0977 46.6797-75.0977C24.8535-75.0977 6.83594-57.0312 6.83594-35.2051C6.83594-13.3789 24.9023 4.6875 46.7285 4.6875ZM28.418-24.2188C27.9785-26.9043 29.0527-28.3691 31.9824-29.0527L41.6504-31.2988C41.0156-31.543 40.2344-32.2754 39.8438-33.3496L33.252-34.2285C30.4688-34.5703 29.1016-36.2793 29.1016-39.1113L29.1016-46.4844C29.1016-47.7539 29.8828-48.4863 31.1523-48.4863C32.373-48.4863 33.1055-47.7539 33.1055-46.4844L33.1055-39.9902C33.1055-38.4277 34.0332-37.9395 35.3516-37.793L39.7949-37.207C39.9902-37.8906 40.4297-38.5742 40.918-38.9648C37.3047-39.5996 35.498-41.7969 35.498-45.0684C35.498-47.5586 36.3281-49.8535 37.7441-51.7578L37.5488-51.9043C35.3027-53.418 34.9121-55.8105 36.2305-58.3984L37.1582-60.2051C37.6465-61.1328 38.2324-61.4746 39.0625-61.4746C40.1367-61.4746 40.8691-60.7422 40.8691-59.7168C40.8691-59.2773 40.8203-58.9844 40.5762-58.5449L39.8438-57.2266C39.3066-56.25 39.1113-55.3223 39.7461-54.7363L40.332-54.2969C42.1875-55.5664 44.5801-56.2988 46.7285-56.2988C48.8281-56.2988 51.2207-55.5664 53.0762-54.2969L53.6621-54.7363C54.3457-55.3223 54.1504-56.25 53.5645-57.2266L52.832-58.5449C52.5879-58.9844 52.5391-59.2773 52.5391-59.7168C52.5391-60.7422 53.2715-61.4746 54.3457-61.4746C55.1758-61.4746 55.7129-61.084 56.25-60.2051L57.1777-58.3984C58.5938-55.8105 58.1055-53.418 55.8594-51.9043L55.7129-51.7578C57.0801-49.8535 57.9102-47.5586 57.9102-45.0684C57.9102-41.7969 56.1035-39.5996 52.5391-38.9648C52.9785-38.5742 53.418-37.8906 53.6133-37.207L58.0566-37.793C59.4238-37.9883 60.3027-38.4277 60.3027-39.9902L60.3027-46.4844C60.3027-47.7539 61.0352-48.4863 62.2559-48.4863C63.5254-48.4863 64.3066-47.7539 64.3066-46.4844L64.3066-39.1113C64.3066-36.2793 62.9883-34.5703 60.1562-34.2285L53.5645-33.3496C53.1738-32.2754 52.4414-31.543 51.7578-31.2988L61.4746-29.0527C64.3555-28.3203 65.4785-26.9043 65.0391-24.2188L63.3301-13.3789C63.1348-12.1094 62.5-11.2793 61.2793-11.2793C60.0098-11.2793 59.082-12.207 59.3262-13.6719L60.791-23.4375C60.9863-24.5605 60.5957-25.0977 59.2773-25.5371C58.8379-25.6348 58.3984-25.7324 57.959-25.8789C58.1055-25.3418 58.1543-24.6094 58.1543-23.877C58.1543-16.8457 52.8809-10.2539 46.7285-10.2539C40.5273-10.2539 35.2539-16.8457 35.2539-23.877C35.2539-24.6094 35.3027-25.3418 35.4492-25.8789C35.0098-25.7324 34.5703-25.6348 34.1309-25.5371C32.8125-25.0977 32.4219-24.5605 32.6172-23.4375L34.082-13.6719C34.2773-12.207 33.3984-11.2793 32.1289-11.2793C30.9082-11.2793 30.2734-12.1094 30.0781-13.3789Z"/>
  </g>
  <g id="Regular-S" transform="matrix(1 0 0 1 1403.58 696)">
   <path d="M46.2402 4.19922C67.7734 4.19922 85.6934-13.6719 85.6934-35.2051C85.6934-56.7383 67.7246-74.6094 46.1914-74.6094C24.707-74.6094 6.83594-56.7383 6.83594-35.2051C6.83594-13.6719 24.7559 4.19922 46.2402 4.19922ZM27.7832-24.4141C27.3926-26.9531 28.418-28.3691 31.2012-29.0527L41.1133-31.3477C40.4297-31.5918 39.5996-32.4219 39.1602-33.5938L32.5684-34.5215C29.834-34.9121 28.6133-36.5234 28.6133-39.2578L28.6133-46.875C28.6133-48.0469 29.2969-48.7793 30.5176-48.7793C31.6895-48.7793 32.373-48.0469 32.373-46.875L32.373-40.0391C32.373-38.5742 33.252-38.1348 34.5215-37.9883L39.2578-37.3047C39.4531-38.0371 39.8926-38.6719 40.332-39.0625C36.7188-39.6973 34.9121-41.9434 34.9121-45.2637C34.9121-47.8516 35.8398-50.293 37.3047-52.2461L37.207-52.3438C35.0586-53.8574 34.668-56.2012 35.9375-58.7891L36.8652-60.5469C37.3535-61.4258 37.8906-61.7676 38.7207-61.7676C39.7461-61.7676 40.4785-61.084 40.4785-60.0586C40.4785-59.6191 40.4297-59.375 40.1855-58.9355L39.4531-57.6172C38.916-56.5918 38.623-55.7129 39.2578-55.127L39.8438-54.6875C41.748-55.9082 44.1406-56.5918 46.2402-56.5918C48.3398-56.5918 50.7324-55.9082 52.6367-54.6875L53.2227-55.127C53.8574-55.7129 53.6133-56.5918 53.0273-57.6172L52.2949-58.9355C52.0508-59.375 52.002-59.6191 52.002-60.0586C52.002-61.084 52.7344-61.7676 53.7598-61.7676C54.5898-61.7676 55.0781-61.377 55.6152-60.5469L56.543-58.7891C57.9102-56.25 57.4219-53.8574 55.2734-52.3438L55.1758-52.2461C56.6406-50.293 57.5684-47.8516 57.5684-45.2637C57.5684-41.9434 55.7617-39.6973 52.1484-39.0625C52.5879-38.6719 53.0273-38.0371 53.2227-37.3047L57.959-37.9883C59.2285-38.1836 60.1074-38.5742 60.1074-40.0391L60.1074-46.875C60.1074-48.0469 60.791-48.7793 61.9629-48.7793C63.1836-48.7793 63.8672-48.0469 63.8672-46.875L63.8672-39.2578C63.8672-36.5234 62.6465-34.9121 59.9121-34.5215L53.3203-33.5938C52.8809-32.4219 52.0508-31.5918 51.3672-31.3477L61.2793-29.0527C64.0625-28.3203 65.1367-26.9531 64.6973-24.4141L62.9395-13.1836C62.7441-11.9629 62.207-11.1816 60.9863-11.1816C59.8145-11.1816 58.8867-12.0605 59.1309-13.4766L60.6445-23.6328C60.8887-24.8047 60.4492-25.293 59.0332-25.6836C58.5449-25.8301 58.0566-25.9277 57.5684-26.0742C57.7637-25.4883 57.8125-24.707 57.8125-23.8281C57.8125-16.748 52.4902-10.0586 46.2402-10.0586C39.9902-10.0586 34.668-16.748 34.668-23.8281C34.668-24.707 34.7168-25.4883 34.9121-26.0742C34.4238-25.9277 33.9355-25.8301 33.4473-25.6836C32.0312-25.293 31.5918-24.8047 31.8359-23.6328L33.3496-13.4766C33.5449-12.0605 32.666-11.1816 31.4941-11.1816C30.2734-11.1816 29.7363-11.9629 29.541-13.1836Z"/>
  </g>
  <g id="Light-S" transform="matrix(1 0 0 1 1107.6 696)">
   <path d="M45.5078 3.4668C66.6992 3.4668 84.2285-14.0137 84.2285-35.2051C84.2285-56.3965 66.6504-73.877 45.5078-73.877C24.3164-73.877 6.83594-56.3965 6.83594-35.2051C6.83594-14.0137 24.3652 3.4668 45.5078 3.4668ZM28.1738-24.8535C27.7344-27.3926 28.8086-28.8086 31.543-29.4922L40.3809-31.543C39.6484-31.9336 38.8672-32.8613 38.5742-34.082L32.8125-34.9121C30.0781-35.3027 28.8574-36.7188 28.8574-39.4043L28.8574-46.6309C28.8574-47.6562 29.4922-48.2422 30.5176-48.2422C31.4453-48.2422 32.0801-47.6074 32.0801-46.6309L32.0801-39.9902C32.0801-38.5254 32.8125-38.0371 34.1797-37.8418L38.6719-37.207C38.8672-37.8906 39.3066-38.5254 39.6973-38.8672C36.2305-39.5508 34.5215-41.748 34.5215-44.9707C34.5215-47.7051 35.498-50.2441 37.2559-52.2461L37.1582-52.3438C35.1074-53.8574 34.8145-55.957 36.1816-58.3496L37.5488-60.5469C37.9395-61.2793 38.4277-61.5723 39.1113-61.5723C39.9902-61.5723 40.5762-60.9863 40.5762-60.1562C40.5762-59.7656 40.5273-59.5215 40.2832-59.1309L38.9648-57.1777C38.3301-56.1523 38.1348-55.3223 38.916-54.6387L39.4531-54.248C41.2598-55.4199 43.5059-56.0547 45.5078-56.0547C47.5098-56.0547 49.7559-55.4199 51.6113-54.248L52.0996-54.6387C52.8809-55.3223 52.7344-56.1523 52.0508-57.1777L50.7324-59.1309C50.4883-59.5215 50.4395-59.7656 50.4395-60.1562C50.4395-60.9863 51.0742-61.5723 51.9043-61.5723C52.5879-61.5723 53.0273-61.2305 53.4668-60.5469L54.8828-58.3496C56.2988-56.0059 55.9082-53.8574 53.8574-52.3438L53.7598-52.2461C55.5176-50.2441 56.543-47.7051 56.543-44.9707C56.543-41.6992 54.7363-39.5508 51.3184-38.8672C51.7578-38.4766 52.1484-37.8906 52.3438-37.207L56.8359-37.8418C58.2031-38.0371 58.9844-38.5254 58.9844-39.9902L58.9844-46.6309C58.9844-47.6074 59.5703-48.2422 60.5469-48.2422C61.5723-48.2422 62.1582-47.6074 62.1582-46.6309L62.1582-39.4043C62.1582-36.7188 60.9375-35.3027 58.2031-34.9121L52.4414-34.082C52.1484-32.8613 51.3672-31.8848 50.6348-31.543L59.4727-29.4922C62.2559-28.7598 63.2812-27.3926 62.8906-24.8535L61.1328-13.8184C60.9863-12.793 60.498-12.1582 59.5215-12.1582C58.4961-12.1582 57.7637-12.8906 57.959-14.0625L59.5215-24.3164C59.7168-25.5859 59.3262-26.2207 57.9102-26.5625C57.373-26.709 56.7871-26.8555 56.25-27.002C56.6406-26.2207 56.7871-25.2441 56.7871-24.1211C56.7871-17.2363 51.5137-10.7422 45.5078-10.7422C39.502-10.7422 34.2773-17.2363 34.2773-24.1211C34.2773-25.2441 34.4238-26.2207 34.7656-27.002C34.2285-26.8555 33.6426-26.709 33.1055-26.5625C31.6895-26.2207 31.2988-25.5859 31.4941-24.3164L33.0566-14.0625C33.252-12.8906 32.5195-12.1582 31.4941-12.1582C30.5176-12.1582 30.0293-12.793 29.8828-13.8184Z"/>
  </g>
  <g id="Thin-S" transform="matrix(1 0 0 1 811.867 696)">
   <path d="M44.5801 2.53906C65.2832 2.53906 82.2754-14.502 82.2754-35.2051C82.2754-55.9082 65.2344-72.9492 44.5312-72.9492C23.8281-72.9492 6.83594-55.9082 6.83594-35.2051C6.83594-14.502 23.877 2.53906 44.5801 2.53906ZM28.6621-25.4395C28.2227-27.9297 29.2969-29.3945 31.9824-30.0293L39.4043-31.7871C38.5742-32.373 37.9395-33.4473 37.7441-34.7168L33.1543-35.4004C30.3711-35.791 29.1992-37.0117 29.1992-39.5508L29.1992-46.2891C29.1992-47.0703 29.6875-47.5098 30.4688-47.5098C31.2012-47.5098 31.6406-47.0703 31.6406-46.2891L31.6406-39.8926C31.6406-38.4766 32.2266-37.8906 33.7402-37.6953L37.9395-37.1094C38.1348-37.7441 38.4766-38.2812 38.8184-38.623C35.6445-39.4043 33.9355-41.5039 33.9355-44.5801C33.9355-47.4609 35.1074-50.2441 37.1582-52.1973L37.0605-52.2949C35.1562-53.8086 34.9609-55.6641 36.4258-57.8125L38.4766-60.5957C38.7695-61.084 39.1113-61.3281 39.5996-61.3281C40.2344-61.3281 40.7227-60.8398 40.7227-60.2539C40.7227-59.9609 40.625-59.668 40.4297-59.375L38.3301-56.6406C37.5977-55.5664 37.4512-54.7363 38.4766-54.0039L38.8672-53.7109C40.5762-54.7852 42.627-55.3711 44.5312-55.3711C46.4844-55.3711 48.4863-54.7852 50.2441-53.7109L50.6348-54.0039C51.6113-54.7363 51.5137-55.5664 50.7812-56.6406L48.6816-59.375C48.4375-59.668 48.3887-59.9609 48.3887-60.2539C48.3887-60.8887 48.8281-61.3281 49.4629-61.3281C50-61.3281 50.3418-61.084 50.6348-60.5957L52.6367-57.8125C54.1504-55.6641 53.9551-53.8086 52.0508-52.2949L51.9531-52.1973C54.0039-50.2441 55.1758-47.4609 55.1758-44.5801C55.1758-41.4062 53.418-39.3066 50.293-38.623C50.6348-38.2324 50.9766-37.6953 51.1719-37.1094L55.3711-37.6953C56.8359-37.8906 57.4707-38.4766 57.4707-39.8926L57.4707-46.2891C57.4707-47.0703 57.9102-47.5098 58.6426-47.5098C59.4238-47.5098 59.8633-47.0703 59.8633-46.2891L59.8633-39.5508C59.8633-37.0117 58.7402-35.791 55.957-35.4004L51.3184-34.7168C51.1719-33.3984 50.4883-32.3242 49.6582-31.7871L57.1289-30.0293C59.8145-29.3945 60.8398-27.9297 60.4492-25.4395L58.7891-14.5996C58.6426-13.8672 58.252-13.4277 57.5195-13.4277C56.7871-13.4277 56.25-14.0137 56.3477-14.8438L58.0078-25.1953C58.2031-26.6602 57.8125-27.3926 56.3965-27.7344C55.7617-27.8809 55.127-28.0273 54.541-28.1738C55.127-27.1973 55.4199-25.9766 55.4199-24.5605C55.4199-17.8711 50.2441-11.6211 44.5312-11.6211C38.8184-11.6211 33.6914-17.8711 33.6914-24.5605C33.6914-25.9766 33.9844-27.1973 34.5703-28.1738C33.9355-28.0273 33.3008-27.8809 32.7148-27.7344C31.2988-27.3926 30.8594-26.6602 31.1035-25.1953L32.7148-14.8438C32.8613-14.0137 32.3242-13.4277 31.543-13.4277C30.8594-13.4277 30.4688-13.8672 30.3223-14.5996Z"/>
  </g>
  <g id="Ultralight-S" transform="matrix(1 0 0 1 515.644 696)">
   <path d="M44.043 2.00195C64.502 2.00195 81.2988-14.7461 81.2988-35.2051C81.2988-55.6641 64.502-72.4121 44.043-72.4121C23.584-72.4121 6.83594-55.6641 6.83594-35.2051C6.83594-14.7461 23.584 2.00195 44.043 2.00195ZM28.9062-25.7812C28.4668-28.2715 29.541-29.7363 32.2266-30.3711L38.916-31.8848C38.0371-32.6172 37.4512-33.7891 37.3535-35.0586L33.3008-35.6445C30.5176-36.0352 29.3945-37.1582 29.3945-39.6973L29.3945-46.1426C29.3945-46.7773 29.7852-47.168 30.4199-47.168C31.0547-47.168 31.3965-46.7285 31.3965-46.1426L31.3965-39.8438C31.3965-38.4277 31.9336-37.793 33.4961-37.5977L37.5488-37.0117C37.7441-37.6465 38.0371-38.1836 38.3789-38.5254C35.3027-39.2578 33.6426-41.3574 33.6426-44.3848C33.6426-47.3633 34.9121-50.1953 37.1094-52.1973L37.0117-52.2949C35.2051-53.8086 35.0586-55.5176 36.5723-57.5195L38.9648-60.5957C39.1602-60.9863 39.4531-61.1816 39.8926-61.1816C40.3809-61.1816 40.8203-60.7422 40.8203-60.3027C40.8203-60.0586 40.7227-59.8145 40.5273-59.5215L37.9883-56.3477C37.207-55.2246 37.1582-54.4434 38.2324-53.7109L38.5742-53.418C40.2832-54.4434 42.1875-55.0293 44.043-55.0293C45.9473-55.0293 47.8516-54.4434 49.5117-53.418L49.8535-53.7109C50.9766-54.4434 50.9277-55.2246 50.0977-56.3477L47.6074-59.5215C47.4121-59.8145 47.3145-60.0586 47.3145-60.3027C47.3145-60.791 47.7051-61.1816 48.2422-61.1816C48.6328-61.1816 48.9258-60.9375 49.1699-60.5957L51.5137-57.5195C53.0762-55.5176 52.9297-53.8086 51.0742-52.2949L50.9766-52.1973C53.2227-50.1953 54.4434-47.3633 54.4434-44.3848C54.4434-41.2598 52.7344-39.209 49.7559-38.4766C50.0977-38.1348 50.3906-37.5977 50.5859-37.0117L54.5898-37.5977C56.1523-37.793 56.7383-38.4277 56.7383-39.8438L56.7383-46.1426C56.7383-46.7285 57.0801-47.168 57.666-47.168C58.3496-47.168 58.6914-46.7285 58.6914-46.1426L58.6914-39.6973C58.6914-37.1582 57.5684-36.0352 54.7852-35.6445L50.7812-35.0586C50.6348-33.7402 50-32.5195 49.1699-31.8848L55.9082-30.3711C58.5938-29.7363 59.6191-28.2715 59.2285-25.7812L57.5684-15.0391C57.4707-14.4043 57.0801-14.1113 56.543-14.1113C55.9082-14.1113 55.4688-14.5996 55.5664-15.2344L57.2266-25.6348C57.4707-27.1973 57.0312-27.9785 55.6152-28.3203C54.9805-28.4668 54.2969-28.6621 53.6621-28.8086C54.3945-27.7344 54.6875-26.3672 54.6875-24.7559C54.6875-18.2129 49.6094-12.1094 44.043-12.1094C38.5254-12.1094 33.3984-18.2129 33.3984-24.7559C33.3984-26.3672 33.7402-27.7344 34.4238-28.8086C33.8379-28.6621 33.1543-28.4668 32.5195-28.3203C31.1035-27.9785 30.6641-27.1973 30.9082-25.6348L32.5684-15.2344C32.666-14.5996 32.1777-14.1113 31.5918-14.1113C31.0059-14.1113 30.6641-14.4043 30.5664-15.0391Z"/>
  </g>
 </g>
</svg>
