<?xml version="1.0" encoding="UTF-8"?>
<!--Generator: Apple Native CoreSVG 149-->
<!DOCTYPE svg
PUBLIC "-//W3C//DTD SVG 1.1//EN"
       "http://www.w3.org/Graphics/SVG/1.1/DTD/svg11.dtd">
<svg version="1.1" xmlns="http://www.w3.org/2000/svg" xmlns:xlink="http://www.w3.org/1999/xlink" width="3300" height="2200">
 <!--glyph: "uni1008AF.medium", point size: 100.000000, font version: "Version 16.0d12e3", template writer version: "8"-->
 <g id="Notes">
  <rect height="2200" id="artboard" style="fill:white;opacity:1" width="3300" x="0" y="0"/>
  <line id="" style="fill:none;stroke:black;opacity:1;stroke-width:0.5;" x1="263" x2="3036" y1="292" y2="292"/>
  <text style="stroke:none;fill:black;font-family:-apple-system,&quot;SF Pro Display&quot;,&quot;SF Pro Text&quot;,Helvetica,sans-serif;font-weight:bold;" transform="matrix(1 0 0 1 263 322)">Weight/Scale Variations</text>
  <text style="stroke:none;fill:black;font-family:-apple-system,&quot;SF Pro Display&quot;,&quot;SF Pro Text&quot;,Helvetica,sans-serif;text-anchor:middle;" transform="matrix(1 0 0 1 559.711 322)">Ultralight</text>
  <text style="stroke:none;fill:black;font-family:-apple-system,&quot;SF Pro Display&quot;,&quot;SF Pro Text&quot;,Helvetica,sans-serif;text-anchor:middle;" transform="matrix(1 0 0 1 856.422 322)">Thin</text>
  <text style="stroke:none;fill:black;font-family:-apple-system,&quot;SF Pro Display&quot;,&quot;SF Pro Text&quot;,Helvetica,sans-serif;text-anchor:middle;" transform="matrix(1 0 0 1 1153.13 322)">Light</text>
  <text style="stroke:none;fill:black;font-family:-apple-system,&quot;SF Pro Display&quot;,&quot;SF Pro Text&quot;,Helvetica,sans-serif;text-anchor:middle;" transform="matrix(1 0 0 1 1449.84 322)">Regular</text>
  <text style="stroke:none;fill:black;font-family:-apple-system,&quot;SF Pro Display&quot;,&quot;SF Pro Text&quot;,Helvetica,sans-serif;text-anchor:middle;" transform="matrix(1 0 0 1 1746.56 322)">Medium</text>
  <text style="stroke:none;fill:black;font-family:-apple-system,&quot;SF Pro Display&quot;,&quot;SF Pro Text&quot;,Helvetica,sans-serif;text-anchor:middle;" transform="matrix(1 0 0 1 2043.27 322)">Semibold</text>
  <text style="stroke:none;fill:black;font-family:-apple-system,&quot;SF Pro Display&quot;,&quot;SF Pro Text&quot;,Helvetica,sans-serif;text-anchor:middle;" transform="matrix(1 0 0 1 2339.98 322)">Bold</text>
  <text style="stroke:none;fill:black;font-family:-apple-system,&quot;SF Pro Display&quot;,&quot;SF Pro Text&quot;,Helvetica,sans-serif;text-anchor:middle;" transform="matrix(1 0 0 1 2636.69 322)">Heavy</text>
  <text style="stroke:none;fill:black;font-family:-apple-system,&quot;SF Pro Display&quot;,&quot;SF Pro Text&quot;,Helvetica,sans-serif;text-anchor:middle;" transform="matrix(1 0 0 1 2933.4 322)">Black</text>
  <line id="" style="fill:none;stroke:black;opacity:1;stroke-width:0.5;" x1="263" x2="3036" y1="1903" y2="1903"/>
  <g id="" transform="matrix(1 0 0 1 263 1933)">
   <path d="M9.24805 0.830078C13.5547 0.830078 17.1387-2.74414 17.1387-7.05078C17.1387-11.3574 13.5449-14.9316 9.23828-14.9316C4.94141-14.9316 1.36719-11.3574 1.36719-7.05078C1.36719-2.74414 4.95117 0.830078 9.24805 0.830078ZM9.24805-0.654297C5.70312-0.654297 2.87109-3.49609 2.87109-7.05078C2.87109-10.6055 5.69336-13.4473 9.23828-13.4473C12.793-13.4473 15.6348-10.6055 15.6445-7.05078C15.6543-3.49609 12.8027-0.654297 9.24805-0.654297ZM9.22852-3.62305C9.69727-3.62305 9.9707-3.93555 9.9707-4.45312L9.9707-6.31836L12.002-6.31836C12.5-6.31836 12.832-6.57227 12.832-7.04102C12.832-7.51953 12.5195-7.7832 12.002-7.7832L9.9707-7.7832L9.9707-9.81445C9.9707-10.332 9.69727-10.6543 9.22852-10.6543C8.75977-10.6543 8.50586-10.3125 8.50586-9.81445L8.50586-7.7832L6.49414-7.7832C5.97656-7.7832 5.64453-7.51953 5.64453-7.04102C5.64453-6.57227 5.99609-6.31836 6.49414-6.31836L8.50586-6.31836L8.50586-4.45312C8.50586-3.95508 8.75977-3.62305 9.22852-3.62305Z"/>
  </g>
  <g id="" transform="matrix(1 0 0 1 281.506 1933)">
   <path d="M11.709 2.91016C17.1582 2.91016 21.6699-1.61133 21.6699-7.05078C21.6699-12.5 17.1484-17.0117 11.6992-17.0117C6.25977-17.0117 1.74805-12.5 1.74805-7.05078C1.74805-1.61133 6.26953 2.91016 11.709 2.91016ZM11.709 1.25C7.09961 1.25 3.41797-2.44141 3.41797-7.05078C3.41797-11.6602 7.08984-15.3516 11.6992-15.3516C16.3086-15.3516 20-11.6602 20.0098-7.05078C20.0195-2.44141 16.3184 1.25 11.709 1.25ZM11.6797-2.66602C12.207-2.66602 12.5098-3.01758 12.5098-3.59375L12.5098-6.23047L15.3223-6.23047C15.8691-6.23047 16.25-6.51367 16.25-7.03125C16.25-7.55859 15.8887-7.86133 15.3223-7.86133L12.5098-7.86133L12.5098-10.6836C12.5098-11.25 12.207-11.6113 11.6797-11.6113C11.1621-11.6113 10.8789-11.2305 10.8789-10.6836L10.8789-7.86133L8.07617-7.86133C7.50977-7.86133 7.13867-7.55859 7.13867-7.03125C7.13867-6.51367 7.5293-6.23047 8.07617-6.23047L10.8789-6.23047L10.8789-3.59375C10.8789-3.03711 11.1621-2.66602 11.6797-2.66602Z"/>
  </g>
  <g id="" transform="matrix(1 0 0 1 304.924 1933)">
   <path d="M14.9707 5.66406C21.9336 5.66406 27.6953-0.0976562 27.6953-7.05078C27.6953-14.0137 21.9238-19.7754 14.9609-19.7754C8.00781-19.7754 2.25586-14.0137 2.25586-7.05078C2.25586-0.0976562 8.01758 5.66406 14.9707 5.66406ZM14.9707 3.84766C8.93555 3.84766 4.08203-1.01562 4.08203-7.05078C4.08203-13.0957 8.92578-17.9492 14.9609-17.9492C21.0059-17.9492 25.8594-13.0957 25.8691-7.05078C25.8789-1.01562 21.0156 3.84766 14.9707 3.84766ZM14.9414-1.38672C15.5176-1.38672 15.8594-1.77734 15.8594-2.38281L15.8594-6.13281L19.7754-6.13281C20.3711-6.13281 20.7812-6.46484 20.7812-7.02148C20.7812-7.59766 20.3906-7.93945 19.7754-7.93945L15.8594-7.93945L15.8594-11.8652C15.8594-12.4805 15.5176-12.8711 14.9414-12.8711C14.375-12.8711 14.0527-12.4609 14.0527-11.8652L14.0527-7.93945L10.1465-7.93945C9.53125-7.93945 9.13086-7.59766 9.13086-7.02148C9.13086-6.46484 9.55078-6.13281 10.1465-6.13281L14.0527-6.13281L14.0527-2.38281C14.0527-1.79688 14.375-1.38672 14.9414-1.38672Z"/>
  </g>
  <text style="stroke:none;fill:black;font-family:-apple-system,&quot;SF Pro Display&quot;,&quot;SF Pro Text&quot;,Helvetica,sans-serif;font-weight:bold;" transform="matrix(1 0 0 1 263 1953)">Design Variations</text>
  <text style="stroke:none;fill:black;font-family:-apple-system,&quot;SF Pro Display&quot;,&quot;SF Pro Text&quot;,Helvetica,sans-serif;" transform="matrix(1 0 0 1 263 1971)">Symbols are supported in up to nine weights and three scales.</text>
  <text style="stroke:none;fill:black;font-family:-apple-system,&quot;SF Pro Display&quot;,&quot;SF Pro Text&quot;,Helvetica,sans-serif;" transform="matrix(1 0 0 1 263 1989)">For optimal layout with text and other symbols, vertically align</text>
  <text style="stroke:none;fill:black;font-family:-apple-system,&quot;SF Pro Display&quot;,&quot;SF Pro Text&quot;,Helvetica,sans-serif;" transform="matrix(1 0 0 1 263 2007)">symbols with the adjacent text.</text>
  <line id="" style="fill:none;stroke:#00AEEF;stroke-width:0.5;opacity:1.0;" x1="776" x2="776" y1="1919" y2="1933"/>
  <g id="" transform="matrix(1 0 0 1 776 1933)">
   <path d="M3.31055 0.126953C3.82812 0.126953 4.08203-0.0683594 4.26758-0.605469L5.52734-4.0625L11.2891-4.0625L12.5488-0.605469C12.7344-0.0683594 12.9883 0.126953 13.4961 0.126953C14.0137 0.126953 14.3457-0.185547 14.3457-0.673828C14.3457-0.839844 14.3164-0.986328 14.2383-1.20117L9.6582-13.3887C9.43359-13.9941 9.0332-14.2871 8.4082-14.2871C7.80273-14.2871 7.39258-13.9941 7.17773-13.3984L2.59766-1.19141C2.51953-0.976562 2.49023-0.830078 2.49023-0.664062C2.49023-0.175781 2.80273 0.126953 3.31055 0.126953ZM6.00586-5.53711L8.37891-12.1094L8.42773-12.1094L10.8008-5.53711Z"/>
  </g>
  <line id="" style="fill:none;stroke:#00AEEF;stroke-width:0.5;opacity:1.0;" x1="792.836" x2="792.836" y1="1919" y2="1933"/>
  <text style="stroke:none;fill:black;font-family:-apple-system,&quot;SF Pro Display&quot;,&quot;SF Pro Text&quot;,Helvetica,sans-serif;font-weight:bold;" transform="matrix(1 0 0 1 776 1953)">Margins</text>
  <text style="stroke:none;fill:black;font-family:-apple-system,&quot;SF Pro Display&quot;,&quot;SF Pro Text&quot;,Helvetica,sans-serif;" transform="matrix(1 0 0 1 776 1971)">Leading and trailing margins on the left and right side of each symbol</text>
  <text style="stroke:none;fill:black;font-family:-apple-system,&quot;SF Pro Display&quot;,&quot;SF Pro Text&quot;,Helvetica,sans-serif;" transform="matrix(1 0 0 1 776 1989)">can be adjusted by modifying the x-location of the margin guidelines.</text>
  <text style="stroke:none;fill:black;font-family:-apple-system,&quot;SF Pro Display&quot;,&quot;SF Pro Text&quot;,Helvetica,sans-serif;" transform="matrix(1 0 0 1 776 2007)">Modifications are automatically applied proportionally to all</text>
  <text style="stroke:none;fill:black;font-family:-apple-system,&quot;SF Pro Display&quot;,&quot;SF Pro Text&quot;,Helvetica,sans-serif;" transform="matrix(1 0 0 1 776 2025)">scales and weights.</text>
  <g id="" transform="matrix(1 0 0 1 1289 1933)">
   <path d="M2.8418 1.86523L4.54102 3.57422C5.40039 4.44336 6.38672 4.38477 7.31445 3.35938L17.4902-7.85156C17.7539-7.76367 18.0273-7.7832 18.3398-7.8418L19.4043-8.03711L20.0684-7.36328L20.0293-6.80664C19.9902-6.30859 20.1172-5.92773 20.6055-5.44922L21.3672-4.70703C21.8457-4.22852 22.4609-4.19922 22.9297-4.66797L25.8398-7.58789C26.3086-8.05664 26.2891-8.65234 25.8105-9.13086L25.0391-9.89258C24.5605-10.3711 24.1895-10.5273 23.7109-10.4883L23.1348-10.4395L22.4902-11.0742L22.7344-12.1973C22.8613-12.7637 22.7051-13.2031 22.1191-13.7891L19.9219-15.9766C16.582-19.2969 12.1484-19.2188 9.25781-16.3281C8.83789-15.918 8.80859-15.3418 9.04297-14.9512C9.27734-14.5898 9.73633-14.3555 10.3809-14.5215C11.8457-14.8633 13.3691-14.9219 14.7949-13.9844L14.209-12.5293C14.0137-12.0508 13.9844-11.6504 14.1113-11.2891L3.04688-0.898438C2.06055 0.0195312 1.98242 0.996094 2.8418 1.86523ZM10.752-15.957C13.1836-17.7344 16.4746-17.4316 18.7012-15.2051L21.1328-12.793C21.3672-12.5586 21.4062-12.373 21.3379-12.0312L21.0156-10.5469L22.5195-9.0625L23.5059-9.12109C23.7598-9.13086 23.8379-9.11133 24.0332-8.91602L24.6094-8.33984L22.168-5.89844L21.5918-6.47461C21.3965-6.66992 21.3672-6.74805 21.377-7.01172L21.4453-7.98828L19.9512-9.47266L18.4277-9.21875C18.1055-9.15039 17.959-9.17969 17.7148-9.41406L15.7129-11.416C15.459-11.6504 15.4297-11.8164 15.5859-12.1875L16.4648-14.2773C14.9023-15.7324 12.8711-16.3574 10.8398-15.7617C10.6836-15.7227 10.625-15.8496 10.752-15.957ZM5.27344 2.30469L4.10156 1.14258C3.63281 0.683594 3.74023 0.341797 4.14062-0.0195312L14.9512-10.1953L16.416-8.71094L6.42578 2.27539C6.07422 2.67578 5.74219 2.77344 5.27344 2.30469Z"/>
  </g>
  <text style="stroke:none;fill:black;font-family:-apple-system,&quot;SF Pro Display&quot;,&quot;SF Pro Text&quot;,Helvetica,sans-serif;font-weight:bold;" transform="matrix(1 0 0 1 1289 1953)">Exporting</text>
  <text style="stroke:none;fill:black;font-family:-apple-system,&quot;SF Pro Display&quot;,&quot;SF Pro Text&quot;,Helvetica,sans-serif;" transform="matrix(1 0 0 1 1289 1971)">Symbols should be outlined when exporting to ensure the</text>
  <text style="stroke:none;fill:black;font-family:-apple-system,&quot;SF Pro Display&quot;,&quot;SF Pro Text&quot;,Helvetica,sans-serif;" transform="matrix(1 0 0 1 1289 1989)">design is preserved when submitting to Xcode.</text>
  <text id="template-version" style="stroke:none;fill:black;font-family:-apple-system,&quot;SF Pro Display&quot;,&quot;SF Pro Text&quot;,Helvetica,sans-serif;text-anchor:end;" transform="matrix(1 0 0 1 3036 1933)">Template v.2.0</text>
  <text style="stroke:none;fill:black;font-family:-apple-system,&quot;SF Pro Display&quot;,&quot;SF Pro Text&quot;,Helvetica,sans-serif;text-anchor:end;" transform="matrix(1 0 0 1 3036 1951)">Requires Xcode 12 or greater</text>
  <text style="stroke:none;fill:black;font-family:-apple-system,&quot;SF Pro Display&quot;,&quot;SF Pro Text&quot;,Helvetica,sans-serif;text-anchor:end;" transform="matrix(1 0 0 1 3036 1969)">Generated from camera.metering.spot</text>
  <text style="stroke:none;fill:black;font-family:-apple-system,&quot;SF Pro Display&quot;,&quot;SF Pro Text&quot;,Helvetica,sans-serif;text-anchor:end;" transform="matrix(1 0 0 1 3036 1987)">Typeset at 100 points</text>
  <text style="stroke:none;fill:black;font-family:-apple-system,&quot;SF Pro Display&quot;,&quot;SF Pro Text&quot;,Helvetica,sans-serif;" transform="matrix(1 0 0 1 263 726)">Small</text>
  <text style="stroke:none;fill:black;font-family:-apple-system,&quot;SF Pro Display&quot;,&quot;SF Pro Text&quot;,Helvetica,sans-serif;" transform="matrix(1 0 0 1 263 1156)">Medium</text>
  <text style="stroke:none;fill:black;font-family:-apple-system,&quot;SF Pro Display&quot;,&quot;SF Pro Text&quot;,Helvetica,sans-serif;" transform="matrix(1 0 0 1 263 1586)">Large</text>
 </g>
 <g id="Guides">
  <g id="H-reference" style="fill:#27AAE1;stroke:none;" transform="matrix(1 0 0 1 339 696)">
   <path d="M0.976562 0L3.66211 0L12.9883-24.4629L45.752-24.4629L55.127 0L57.7637 0L30.6152-70.459L28.125-70.459ZM29.3457-67.1387L29.4434-67.1387L44.873-26.709L13.8672-26.709Z"/>
  </g>
  <line id="Baseline-S" style="fill:none;stroke:#27AAE1;opacity:1;stroke-width:0.5;" x1="263" x2="3036" y1="696" y2="696"/>
  <line id="Capline-S" style="fill:none;stroke:#27AAE1;opacity:1;stroke-width:0.5;" x1="263" x2="3036" y1="625.541" y2="625.541"/>
  <g id="H-reference" style="fill:#27AAE1;stroke:none;" transform="matrix(1 0 0 1 339 1126)">
   <path d="M0.976562 0L3.66211 0L12.9883-24.4629L45.752-24.4629L55.127 0L57.7637 0L30.6152-70.459L28.125-70.459ZM29.3457-67.1387L29.4434-67.1387L44.873-26.709L13.8672-26.709Z"/>
  </g>
  <line id="Baseline-M" style="fill:none;stroke:#27AAE1;opacity:1;stroke-width:0.5;" x1="263" x2="3036" y1="1126" y2="1126"/>
  <line id="Capline-M" style="fill:none;stroke:#27AAE1;opacity:1;stroke-width:0.5;" x1="263" x2="3036" y1="1055.54" y2="1055.54"/>
  <g id="H-reference" style="fill:#27AAE1;stroke:none;" transform="matrix(1 0 0 1 339 1556)">
   <path d="M0.976562 0L3.66211 0L12.9883-24.4629L45.752-24.4629L55.127 0L57.7637 0L30.6152-70.459L28.125-70.459ZM29.3457-67.1387L29.4434-67.1387L44.873-26.709L13.8672-26.709Z"/>
  </g>
  <line id="Baseline-L" style="fill:none;stroke:#27AAE1;opacity:1;stroke-width:0.5;" x1="263" x2="3036" y1="1556" y2="1556"/>
  <line id="Capline-L" style="fill:none;stroke:#27AAE1;opacity:1;stroke-width:0.5;" x1="263" x2="3036" y1="1485.54" y2="1485.54"/>
  <line id="left-margin" style="fill:none;stroke:#00AEEF;stroke-width:0.5;opacity:1.0;" x1="1379.82" x2="1379.82" y1="1030.79" y2="1150.12"/>
  <line id="right-margin" style="fill:none;stroke:#00AEEF;stroke-width:0.5;opacity:1.0;" x1="1519.86" x2="1519.86" y1="1030.79" y2="1150.12"/>
 </g>
 <g id="Symbols">
  <g id="Black-L" transform="matrix(1 0 0 1 2841.51 1556)">
   <path d="M147.461-40.8691L167.725-40.8691L167.725-73.0957C167.725-88.2812 159.082-96.875 143.799-96.875L97.6074-96.875L97.6074-76.6602L141.064-76.6602C145.312-76.6602 147.461-74.7559 147.461-70.2148ZM16.0645-40.8691L36.3281-40.8691L36.3281-70.2148C36.3281-74.7559 38.4766-76.6602 42.6758-76.6602L86.1816-76.6602L86.1816-96.875L39.9902-96.875C24.7559-96.875 16.0645-88.2812 16.0645-73.0957ZM91.8945-14.3555C103.223-14.3555 112.646-23.7793 112.646-35.2539C112.646-46.6309 103.223-56.0059 91.8945-56.0059C80.4199-56.0059 70.9961-46.6309 70.9961-35.2539C70.9961-23.7793 80.4199-14.3555 91.8945-14.3555ZM39.9902 26.5137L86.1816 26.5137L86.1816 6.29883L42.6758 6.29883C38.4766 6.29883 36.3281 4.39453 36.3281-0.146484L36.3281-29.4922L16.0645-29.4922L16.0645 2.68555C16.0645 17.8711 24.7559 26.5137 39.9902 26.5137ZM97.6074 26.5137L143.799 26.5137C159.082 26.5137 167.725 17.8711 167.725 2.68555L167.725-29.4922L147.461-29.4922L147.461-0.146484C147.461 4.39453 145.312 6.29883 141.064 6.29883L97.6074 6.29883Z"/>
  </g>
  <g id="Heavy-L" transform="matrix(1 0 0 1 2545.23 1556)">
   <path d="M149.316-40.4785L166.846-40.4785L166.846-73.2422C166.846-87.793 158.74-95.8496 144.092-95.8496L96.7285-95.8496L96.7285-78.3691L141.943-78.3691C146.777-78.3691 149.316-76.0742 149.316-70.9473ZM16.0645-40.4785L33.5938-40.4785L33.5938-70.9473C33.5938-76.0742 36.084-78.3691 40.918-78.3691L86.1816-78.3691L86.1816-95.8496L38.8184-95.8496C24.2188-95.8496 16.0645-87.793 16.0645-73.2422ZM91.4551-14.3555C102.832-14.3555 112.207-23.7793 112.207-35.2539C112.207-46.582 102.832-56.0059 91.4551-56.0059C79.9805-56.0059 70.5566-46.582 70.5566-35.2539C70.5566-23.7793 79.9805-14.3555 91.4551-14.3555ZM38.8184 25.4883L86.1816 25.4883L86.1816 8.00781L40.918 8.00781C36.084 8.00781 33.5938 5.71289 33.5938 0.585938L33.5938-29.8828L16.0645-29.8828L16.0645 2.88086C16.0645 17.4316 24.2188 25.4883 38.8184 25.4883ZM96.7285 25.4883L144.092 25.4883C158.74 25.4883 166.846 17.4316 166.846 2.88086L166.846-29.8828L149.316-29.8828L149.316 0.585938C149.316 5.71289 146.777 8.00781 141.943 8.00781L96.7285 8.00781Z"/>
  </g>
  <g id="Bold-L" transform="matrix(1 0 0 1 2249.01 1556)">
   <path d="M151.416-39.9902L165.869-39.9902L165.869-73.3887C165.869-87.207 158.35-94.7266 144.385-94.7266L95.752-94.7266L95.752-80.2734L142.969-80.2734C148.389-80.2734 151.416-77.5391 151.416-71.7285ZM16.0645-39.9902L30.5176-39.9902L30.5176-71.7285C30.5176-77.5391 33.4473-80.2734 38.9648-80.2734L86.1816-80.2734L86.1816-94.7266L37.5-94.7266C23.6328-94.7266 16.0645-87.2559 16.0645-73.3887ZM91.0156-14.3555C102.344-14.3555 111.719-23.7305 111.719-35.2539C111.719-46.582 102.344-56.0059 91.0156-56.0059C79.4922-56.0059 70.0684-46.582 70.0684-35.2539C70.0684-23.7305 79.4922-14.3555 91.0156-14.3555ZM37.5 24.3652L86.1816 24.3652L86.1816 9.91211L38.9648 9.91211C33.4473 9.91211 30.5176 7.17773 30.5176 1.41602L30.5176-30.3711L16.0645-30.3711L16.0645 3.07617C16.0645 16.8945 23.6328 24.3652 37.5 24.3652ZM95.752 24.3652L144.385 24.3652C158.35 24.3652 165.869 16.8945 165.869 3.07617L165.869-30.3711L151.416-30.3711L151.416 1.41602C151.416 7.17773 148.389 9.91211 142.969 9.91211L95.752 9.91211Z"/>
  </g>
  <g id="Semibold-L" transform="matrix(1 0 0 1 1952.64 1556)">
   <path d="M152.832-39.6484L165.186-39.6484L165.186-73.5352C165.186-86.8164 158.057-93.9453 144.629-93.9453L95.0684-93.9453L95.0684-81.5918L143.652-81.5918C149.512-81.5918 152.832-78.5156 152.832-72.3145ZM16.0645-39.6484L28.418-39.6484L28.418-72.3145C28.418-78.5156 31.6406-81.5918 37.5977-81.5918L86.1328-81.5918L86.1328-93.9453L36.6211-93.9453C23.1934-93.9453 16.0645-86.8652 16.0645-73.5352ZM90.6738-14.3555C102.002-14.3555 111.426-23.7305 111.426-35.2539C111.426-46.582 102.002-56.0059 90.6738-56.0059C79.1504-56.0059 69.7754-46.582 69.7754-35.2539C69.7754-23.7305 79.1504-14.3555 90.6738-14.3555ZM36.6211 23.584L86.1328 23.584L86.1328 11.2793L37.5977 11.2793C31.6406 11.2793 28.418 8.20312 28.418 1.95312L28.418-30.7129L16.0645-30.7129L16.0645 3.17383C16.0645 16.5527 23.1934 23.584 36.6211 23.584ZM95.0684 23.584L144.629 23.584C158.057 23.584 165.186 16.5039 165.186 3.17383L165.186-30.7129L152.832-30.7129L152.832 1.95312C152.832 8.20312 149.512 11.2793 143.652 11.2793L95.0684 11.2793Z"/>
  </g>
  <g id="Medium-L" transform="matrix(1 0 0 1 1656.2 1556)">
   <path d="M153.906-39.4043L164.648-39.4043L164.648-73.6328C164.648-86.5234 157.861-93.3105 144.775-93.3105L94.5801-93.3105L94.5801-82.6172L144.141-82.6172C150.391-82.6172 153.906-79.2969 153.906-72.7051ZM16.0645-39.4043L26.8066-39.4043L26.8066-72.7051C26.8066-79.2969 30.2246-82.6172 36.5723-82.6172L86.1328-82.6172L86.1328-93.3105L35.9375-93.3105C22.9004-93.3105 16.0645-86.5723 16.0645-73.6328ZM90.4297-14.3555C101.758-14.3555 111.133-23.7305 111.133-35.2539C111.133-46.582 101.758-56.0059 90.4297-56.0059C78.9062-56.0059 69.4824-46.582 69.4824-35.2539C69.4824-23.7305 78.9062-14.3555 90.4297-14.3555ZM35.9375 22.998L86.1328 22.998L86.1328 12.2559L36.5723 12.2559C30.2246 12.2559 26.8066 8.98438 26.8066 2.39258L26.8066-30.957L16.0645-30.957L16.0645 3.27148C16.0645 16.2598 22.9004 22.998 35.9375 22.998ZM94.5801 22.998L144.775 22.998C157.861 22.998 164.648 16.2109 164.648 3.27148L164.648-30.957L153.906-30.957L153.906 2.39258C153.906 8.98438 150.391 12.2559 144.141 12.2559L94.5801 12.2559Z"/>
  </g>
  <g id="Regular-L" transform="matrix(1 0 0 1 1359.81 1556)">
   <path d="M155.322-39.0625L164.014-39.0625L164.014-73.7305C164.014-86.1816 157.617-92.5293 144.971-92.5293L93.9453-92.5293L93.9453-83.8867L144.824-83.8867C151.514-83.8867 155.322-80.2734 155.322-73.291ZM16.0645-39.0625L24.707-39.0625L24.707-73.291C24.707-80.2734 28.418-83.8867 35.2539-83.8867L86.1328-83.8867L86.1328-92.5293L35.0586-92.5293C22.4609-92.5293 16.0645-86.2305 16.0645-73.7305ZM90.0879-14.3066C101.416-14.3066 110.84-23.7305 110.84-35.2539C110.84-46.582 101.416-56.0059 90.0879-56.0059C78.5645-56.0059 69.1895-46.582 69.1895-35.2539C69.1895-23.7305 78.5645-14.3066 90.0879-14.3066ZM35.0586 22.2168L86.1328 22.2168L86.1328 13.5742L35.2539 13.5742C28.418 13.5742 24.707 9.96094 24.707 2.97852L24.707-31.25L16.0645-31.25L16.0645 3.41797C16.0645 15.918 22.4609 22.2168 35.0586 22.2168ZM93.9453 22.2168L144.971 22.2168C157.617 22.2168 164.014 15.8691 164.014 3.41797L164.014-31.25L155.322-31.25L155.322 2.97852C155.322 9.96094 151.514 13.5742 144.824 13.5742L93.9453 13.5742Z"/>
  </g>
  <g id="Light-L" transform="matrix(1 0 0 1 1063.56 1556)">
   <path d="M156.494-38.4766L163.086-38.4766L163.086-73.8281C163.086-85.5469 157.031-91.6992 145.117-91.6992L92.9199-91.6992L92.9199-85.0586L144.971-85.0586C152.295-85.0586 156.494-81.1523 156.494-73.4863ZM16.0645-38.4766L22.7051-38.4766L22.7051-73.4863C22.7051-81.1523 26.709-85.0586 34.1797-85.0586L86.2305-85.0586L86.2305-91.6992L34.0332-91.6992C22.168-91.6992 16.0645-85.6445 16.0645-73.8281ZM89.5996-14.3066C100.977-14.3066 110.352-23.7305 110.352-35.2051C110.352-46.582 100.977-55.957 89.5996-55.957C78.125-55.957 68.7012-46.582 68.7012-35.2051C68.7012-23.7305 78.125-14.3066 89.5996-14.3066ZM34.0332 21.4355L86.2305 21.4355L86.2305 14.7949L34.1797 14.7949C26.709 14.7949 22.7051 10.8398 22.7051 3.22266L22.7051-31.7871L16.0645-31.7871L16.0645 3.56445C16.0645 15.3809 22.168 21.4355 34.0332 21.4355ZM92.9199 21.4355L145.117 21.4355C157.031 21.4355 163.086 15.2344 163.086 3.56445L163.086-31.7871L156.494-31.7871L156.494 3.22266C156.494 10.8398 152.295 14.7949 144.971 14.7949L92.9199 14.7949Z"/>
  </g>
  <g id="Thin-L" transform="matrix(1 0 0 1 767.433 1556)">
   <path d="M158.008-37.7441L161.914-37.7441L161.914-73.9746C161.914-84.7168 156.201-90.5762 145.312-90.5762L91.6016-90.5762L91.6016-86.6699L145.166-86.6699C153.32-86.6699 158.008-82.2754 158.008-73.7793ZM16.0645-37.7441L19.9707-37.7441L19.9707-73.7793C19.9707-82.2754 24.4141-86.6699 32.8125-86.6699L86.377-86.6699L86.377-90.5762L32.666-90.5762C21.7773-90.5762 16.0645-84.8633 16.0645-73.9746ZM89.0137-14.3066C100.342-14.3066 109.766-23.6816 109.766-35.2051C109.766-46.5332 100.342-55.957 89.0137-55.957C77.4902-55.957 68.1152-46.5332 68.1152-35.2051C68.1152-23.6816 77.4902-14.3066 89.0137-14.3066ZM32.666 20.3613L86.377 20.3613L86.377 16.4062L32.8125 16.4062C24.4141 16.4062 19.9707 12.0117 19.9707 3.56445L19.9707-32.5195L16.0645-32.5195L16.0645 3.75977C16.0645 14.6484 21.7773 20.3613 32.666 20.3613ZM91.6016 20.3613L145.312 20.3613C156.201 20.3613 161.914 14.4531 161.914 3.75977L161.914-32.5195L158.008-32.5195L158.008 3.56445C158.008 12.0117 153.32 16.4062 145.166 16.4062L91.6016 16.4062Z"/>
  </g>
  <g id="Ultralight-L" transform="matrix(1 0 0 1 471.015 1556)">
   <path d="M158.789-37.3535L161.328-37.3535L161.328-74.0723C161.328-84.2773 155.811-89.9902 145.41-89.9902L90.918-89.9902L90.918-87.4512L145.264-87.4512C153.857-87.4512 158.789-82.8125 158.789-73.9258ZM16.0645-37.3535L18.6035-37.3535L18.6035-73.9258C18.6035-82.8125 23.1934-87.4512 32.1289-87.4512L86.4746-87.4512L86.4746-89.9902L31.9824-89.9902C21.582-89.9902 16.0645-84.4727 16.0645-74.0723ZM88.6719-14.2578C100.049-14.2578 109.424-23.6816 109.424-35.2051C109.424-46.5332 100.049-55.9082 88.6719-55.9082C77.1973-55.9082 67.7734-46.5332 67.7734-35.2051C67.7734-23.6816 77.1973-14.2578 88.6719-14.2578ZM31.9824 19.7754L86.4746 19.7754L86.4746 17.2363L32.1289 17.2363C23.1934 17.2363 18.6035 12.6465 18.6035 3.75977L18.6035-32.8613L16.0645-32.8613L16.0645 3.85742C16.0645 14.2578 21.582 19.7754 31.9824 19.7754ZM90.918 19.7754L145.41 19.7754C155.811 19.7754 161.328 14.0625 161.328 3.85742L161.328-32.8613L158.789-32.8613L158.789 3.75977C158.789 12.6465 153.857 17.2363 145.264 17.2363L90.918 17.2363Z"/>
  </g>
  <g id="Black-M" transform="matrix(1 0 0 1 2861.84 1126)">
   <path d="M112.402-39.8926L130.664-39.8926L130.664-64.4043C130.664-76.6602 123.389-83.9355 111.133-83.9355L76.2695-83.9355L76.2695-65.6738L108.203-65.6738C111.035-65.6738 112.402-64.5508 112.402-61.4746ZM12.4512-39.8926L30.7617-39.8926L30.7617-61.4746C30.7617-64.5508 32.0801-65.6738 34.9121-65.6738L66.8457-65.6738L66.8457-83.9355L31.9824-83.9355C19.7266-83.9355 12.4512-76.6602 12.4512-64.4043ZM71.582-19.043C80.3711-19.043 87.6465-26.3672 87.6465-35.2539C87.6465-44.043 80.3711-51.3184 71.582-51.3184C62.6465-51.3184 55.3711-44.043 55.3711-35.2539C55.3711-26.3672 62.6465-19.043 71.582-19.043ZM31.9824 13.5742L66.8457 13.5742L66.8457-4.73633L34.9121-4.73633C32.0801-4.73633 30.7617-5.81055 30.7617-8.88672L30.7617-30.5176L12.4512-30.5176L12.4512-5.95703C12.4512 6.29883 19.7266 13.5742 31.9824 13.5742ZM76.2695 13.5742L111.133 13.5742C123.389 13.5742 130.664 6.29883 130.664-5.95703L130.664-30.5176L112.402-30.5176L112.402-8.88672C112.402-5.81055 111.035-4.73633 108.203-4.73633L76.2695-4.73633Z"/>
  </g>
  <g id="Heavy-M" transform="matrix(1 0 0 1 2565.5 1126)">
   <path d="M114.111-39.5508L129.932-39.5508L129.932-64.5508C129.932-76.2695 123.193-83.0566 111.426-83.0566L75.5859-83.0566L75.5859-67.2363L109.131-67.2363C112.451-67.2363 114.111-65.7715 114.111-62.207ZM12.4512-39.5508L28.2715-39.5508L28.2715-62.207C28.2715-65.7715 29.9316-67.2363 33.252-67.2363L66.8457-67.2363L66.8457-83.0566L31.0059-83.0566C19.2383-83.0566 12.4512-76.3184 12.4512-64.5508ZM71.1914-19.043C79.9805-19.043 87.3047-26.3672 87.3047-35.2539C87.3047-44.043 79.9805-51.3184 71.1914-51.3184C62.3047-51.3184 55.0293-44.043 55.0293-35.2539C55.0293-26.3672 62.3047-19.043 71.1914-19.043ZM31.0059 12.6465L66.8457 12.6465L66.8457-3.17383L33.252-3.17383C29.9316-3.17383 28.2715-4.63867 28.2715-8.1543L28.2715-30.8105L12.4512-30.8105L12.4512-5.81055C12.4512 5.9082 19.2383 12.6465 31.0059 12.6465ZM75.5859 12.6465L111.426 12.6465C123.193 12.6465 129.932 5.9082 129.932-5.81055L129.932-30.8105L114.111-30.8105L114.111-8.1543C114.111-4.63867 112.451-3.17383 109.131-3.17383L75.5859-3.17383Z"/>
  </g>
  <g id="Bold-M" transform="matrix(1 0 0 1 2269.18 1126)">
   <path d="M116.064-39.209L129.15-39.209L129.15-64.6973C129.15-75.8789 122.949-82.0312 111.719-82.0312L74.8047-82.0312L74.8047-68.9453L110.205-68.9453C114.014-68.9453 116.064-67.1387 116.064-63.0371ZM12.4512-39.209L25.5371-39.209L25.5371-63.0371C25.5371-67.1387 27.5391-68.9453 31.3965-68.9453L66.7969-68.9453L66.7969-82.0312L29.8828-82.0312C18.6523-82.0312 12.4512-75.8789 12.4512-64.6973ZM70.8008-19.043C79.5898-19.043 86.9141-26.3184 86.9141-35.2539C86.9141-44.043 79.5898-51.3184 70.8008-51.3184C61.9141-51.3184 54.5898-44.043 54.5898-35.2539C54.5898-26.3184 61.9141-19.043 70.8008-19.043ZM29.8828 11.6699L66.7969 11.6699L66.7969-1.41602L31.3965-1.41602C27.5391-1.41602 25.5371-3.27148 25.5371-7.32422L25.5371-31.1523L12.4512-31.1523L12.4512-5.66406C12.4512 5.51758 18.6523 11.6699 29.8828 11.6699ZM74.8047 11.6699L111.719 11.6699C122.949 11.6699 129.15 5.46875 129.15-5.66406L129.15-31.1523L116.064-31.1523L116.064-7.32422C116.064-3.27148 114.014-1.41602 110.205-1.41602L74.8047-1.41602Z"/>
  </g>
  <g id="Semibold-M" transform="matrix(1 0 0 1 1972.76 1126)">
   <path d="M117.383-38.9648L128.564-38.9648L128.564-64.8438C128.564-75.5859 122.803-81.3477 111.914-81.3477L74.2676-81.3477L74.2676-70.166L110.889-70.166C115.088-70.166 117.383-68.0664 117.383-63.623ZM12.4512-38.9648L23.6328-38.9648L23.6328-63.623C23.6328-68.0664 25.8789-70.166 30.127-70.166L66.748-70.166L66.748-81.3477L29.1016-81.3477C18.2617-81.3477 12.4512-75.5859 12.4512-64.8438ZM70.5566-19.043C79.3457-19.043 86.6211-26.3184 86.6211-35.2539C86.6211-44.043 79.3457-51.3184 70.5566-51.3184C61.6211-51.3184 54.3457-44.043 54.3457-35.2539C54.3457-26.3184 61.6211-19.043 70.5566-19.043ZM29.1016 10.9863L66.748 10.9863L66.748-0.195312L30.127-0.195312C25.8789-0.195312 23.6328-2.34375 23.6328-6.78711L23.6328-31.4453L12.4512-31.4453L12.4512-5.56641C12.4512 5.22461 18.2617 10.9863 29.1016 10.9863ZM74.2676 10.9863L111.914 10.9863C122.803 10.9863 128.564 5.17578 128.564-5.56641L128.564-31.4453L117.383-31.4453L117.383-6.78711C117.383-2.34375 115.088-0.195312 110.889-0.195312L74.2676-0.195312Z"/>
  </g>
  <g id="Medium-M" transform="matrix(1 0 0 1 1676.24 1126)">
   <path d="M118.408-38.7695L128.174-38.7695L128.174-64.8926C128.174-75.3418 122.656-80.8105 112.061-80.8105L73.877-80.8105L73.877-71.0938L111.426-71.0938C115.918-71.0938 118.408-68.75 118.408-64.0137ZM12.4512-38.7695L22.168-38.7695L22.168-64.0137C22.168-68.75 24.6582-71.0938 29.1504-71.0938L66.6992-71.0938L66.6992-80.8105L28.5156-80.8105C17.9688-80.8105 12.4512-75.3906 12.4512-64.8926ZM70.3613-19.043C79.1504-19.043 86.4258-26.3184 86.4258-35.2539C86.4258-44.043 79.1504-51.3184 70.3613-51.3184C61.4258-51.3184 54.1504-44.043 54.1504-35.2539C54.1504-26.3184 61.4258-19.043 70.3613-19.043ZM28.5156 10.4492L66.6992 10.4492L66.6992 0.732422L29.1504 0.732422C24.6582 0.732422 22.168-1.61133 22.168-6.34766L22.168-31.5918L12.4512-31.5918L12.4512-5.46875C12.4512 4.98047 17.9688 10.4492 28.5156 10.4492ZM73.877 10.4492L112.061 10.4492C122.656 10.4492 128.174 4.98047 128.174-5.46875L128.174-31.5918L118.408-31.5918L118.408-6.34766C118.408-1.61133 115.918 0.732422 111.426 0.732422L73.877 0.732422Z"/>
  </g>
  <g id="Regular-M" transform="matrix(1 0 0 1 1379.82 1126)">
   <path d="M119.727-38.5254L127.588-38.5254L127.588-64.9902C127.588-75.0488 122.51-80.127 112.256-80.127L73.3398-80.127L73.3398-72.2656L112.158-72.2656C116.992-72.2656 119.727-69.6777 119.727-64.5996ZM12.4512-38.5254L20.3125-38.5254L20.3125-64.5996C20.3125-69.6777 22.998-72.2656 27.8809-72.2656L66.6992-72.2656L66.6992-80.127L27.7832-80.127C17.5781-80.127 12.4512-75.0977 12.4512-64.9902ZM70.0684-19.043C78.8574-19.043 86.1328-26.3184 86.1328-35.2539C86.1328-44.043 78.8574-51.3184 70.0684-51.3184C61.1816-51.3184 53.8574-44.043 53.8574-35.2539C53.8574-26.3184 61.1816-19.043 70.0684-19.043ZM27.7832 9.76562L66.6992 9.76562L66.6992 1.9043L27.8809 1.9043C22.998 1.9043 20.3125-0.683594 20.3125-5.76172L20.3125-31.8359L12.4512-31.8359L12.4512-5.37109C12.4512 4.73633 17.5781 9.76562 27.7832 9.76562ZM73.3398 9.76562L112.256 9.76562C122.51 9.76562 127.588 4.6875 127.588-5.37109L127.588-31.8359L119.727-31.8359L119.727-5.76172C119.727-0.683594 116.992 1.9043 112.158 1.9043L73.3398 1.9043Z"/>
  </g>
  <g id="Light-M" transform="matrix(1 0 0 1 1083.5 1126)">
   <path d="M120.752-37.9883L126.807-37.9883L126.807-65.0879C126.807-74.5117 121.973-79.3945 112.402-79.3945L72.4609-79.3945L72.4609-73.3398L112.305-73.3398C117.676-73.3398 120.752-70.4102 120.752-64.7949ZM12.4512-37.9883L18.5059-37.9883L18.5059-64.7949C18.5059-70.4102 21.4844-73.3398 26.9531-73.3398L66.7969-73.3398L66.7969-79.3945L26.8555-79.3945C17.334-79.3945 12.4512-74.5605 12.4512-65.0879ZM69.6777-19.043C78.4668-19.043 85.7422-26.3184 85.7422-35.2539C85.7422-43.9941 78.4668-51.3184 69.6777-51.3184C60.7422-51.3184 53.4668-43.9941 53.4668-35.2539C53.4668-26.3184 60.7422-19.043 69.6777-19.043ZM26.8555 9.0332L66.7969 9.0332L66.7969 2.97852L26.9531 2.97852C21.4844 2.97852 18.5059 0.0976562 18.5059-5.56641L18.5059-32.3242L12.4512-32.3242L12.4512-5.22461C12.4512 4.19922 17.334 9.0332 26.8555 9.0332ZM72.4609 9.0332L112.402 9.0332C121.973 9.0332 126.807 4.15039 126.807-5.22461L126.807-32.3242L120.752-32.3242L120.752-5.56641C120.752 0.0976562 117.676 2.97852 112.305 2.97852L72.4609 2.97852Z"/>
  </g>
  <g id="Thin-M" transform="matrix(1 0 0 1 787.33 1126)">
   <path d="M122.119-37.3047L125.732-37.3047L125.732-65.2344C125.732-73.7305 121.24-78.3691 112.598-78.3691L71.2891-78.3691L71.2891-74.7559L112.451-74.7559C118.604-74.7559 122.119-71.4355 122.119-65.0391ZM12.4512-37.3047L16.0645-37.3047L16.0645-65.0391C16.0645-71.4355 19.3848-74.7559 25.7324-74.7559L66.9434-74.7559L66.9434-78.3691L25.6348-78.3691C16.9922-78.3691 12.4512-73.877 12.4512-65.2344ZM69.0918-18.9941C77.8809-18.9941 85.2051-26.3184 85.2051-35.2051C85.2051-43.9941 77.8809-51.2695 69.0918-51.2695C60.2051-51.2695 52.9297-43.9941 52.9297-35.2051C52.9297-26.3184 60.2051-18.9941 69.0918-18.9941ZM25.6348 8.05664L66.9434 8.05664L66.9434 4.44336L25.7324 4.44336C19.3848 4.44336 16.0645 1.12305 16.0645-5.22461L16.0645-32.959L12.4512-32.959L12.4512-5.0293C12.4512 3.56445 16.9922 8.05664 25.6348 8.05664ZM71.2891 8.05664L112.598 8.05664C121.24 8.05664 125.732 3.4668 125.732-5.0293L125.732-32.959L122.119-32.959L122.119-5.22461C122.119 1.12305 118.604 4.44336 112.451 4.44336L71.2891 4.44336Z"/>
  </g>
  <g id="Ultralight-M" transform="matrix(1 0 0 1 490.888 1126)">
   <path d="M122.803-36.9629L125.195-36.9629L125.195-65.2832C125.195-73.3887 120.85-77.832 112.695-77.832L70.6543-77.832L70.6543-75.4395L112.549-75.4395C119.043-75.4395 122.803-71.9727 122.803-65.1855ZM12.4512-36.9629L14.8438-36.9629L14.8438-65.1855C14.8438-71.9727 18.3594-75.4395 25.0977-75.4395L66.9922-75.4395L66.9922-77.832L25-77.832C16.7969-77.832 12.4512-73.4863 12.4512-65.2832ZM68.8477-18.9941C77.6367-18.9941 84.9121-26.2695 84.9121-35.2051C84.9121-43.9941 77.6367-51.2695 68.8477-51.2695C59.9121-51.2695 52.6367-43.9941 52.6367-35.2051C52.6367-26.2695 59.9121-18.9941 68.8477-18.9941ZM25 7.56836L66.9922 7.56836L66.9922 5.17578L25.0977 5.17578C18.3594 5.17578 14.8438 1.66016 14.8438-5.07812L14.8438-33.3008L12.4512-33.3008L12.4512-4.98047C12.4512 3.22266 16.7969 7.56836 25 7.56836ZM70.6543 7.56836L112.695 7.56836C120.85 7.56836 125.195 3.125 125.195-4.98047L125.195-33.3008L122.803-33.3008L122.803-5.07812C122.803 1.66016 119.043 5.17578 112.549 5.17578L70.6543 5.17578Z"/>
  </g>
  <g id="Black-S" transform="matrix(1 0 0 1 2877.35 696)">
   <path d="M88.1836-38.8672L102.344-38.8672L102.344-58.1055C102.344-67.6758 96.6797-73.3398 87.1094-73.3398L59.7168-73.3398L59.7168-59.1797L84.8633-59.1797C87.1094-59.1797 88.1836-58.3008 88.1836-55.8594ZM9.76562-38.8672L23.9258-38.8672L23.9258-55.8594C23.9258-58.3008 25-59.1797 27.2461-59.1797L52.3926-59.1797L52.3926-73.3398L25-73.3398C15.4297-73.3398 9.76562-67.6758 9.76562-58.1055ZM56.0547-22.5586C62.9395-22.5586 68.6523-28.2715 68.6523-35.2539C68.6523-42.1387 62.9395-47.8516 56.0547-47.8516C49.0723-47.8516 43.3594-42.1387 43.3594-35.2539C43.3594-28.2715 49.0723-22.5586 56.0547-22.5586ZM25 2.92969L52.3926 2.92969L52.3926-11.2305L27.2461-11.2305C25-11.2305 23.9258-12.1094 23.9258-14.5508L23.9258-31.543L9.76562-31.543L9.76562-12.3047C9.76562-2.73438 15.4297 2.92969 25 2.92969ZM59.7168 2.92969L87.1094 2.92969C96.6797 2.92969 102.344-2.73438 102.344-12.3047L102.344-31.543L88.1836-31.543L88.1836-14.5508C88.1836-12.1094 87.1094-11.2305 84.8633-11.2305L59.7168-11.2305Z"/>
  </g>
  <g id="Heavy-S" transform="matrix(1 0 0 1 2580.88 696)">
   <path d="M89.4043-38.6719L101.855-38.6719L101.855-58.2031C101.855-67.4316 96.582-72.7539 87.3047-72.7539L59.2773-72.7539L59.2773-60.2539L85.5469-60.2539C88.0859-60.2539 89.4043-59.1309 89.4043-56.3965ZM9.76562-38.6719L22.2656-38.6719L22.2656-56.3965C22.2656-59.1309 23.5352-60.2539 26.0742-60.2539L52.3438-60.2539L52.3438-72.7539L24.3652-72.7539C15.0879-72.7539 9.76562-67.4316 9.76562-58.2031ZM55.8105-22.5586C62.6953-22.5586 68.4082-28.2715 68.4082-35.2539C68.4082-42.1387 62.6953-47.8516 55.8105-47.8516C48.8281-47.8516 43.1152-42.1387 43.1152-35.2539C43.1152-28.2715 48.8281-22.5586 55.8105-22.5586ZM24.3652 2.34375L52.3438 2.34375L52.3438-10.1562L26.0742-10.1562C23.5352-10.1562 22.2656-11.2793 22.2656-14.0137L22.2656-31.7383L9.76562-31.7383L9.76562-12.207C9.76562-2.97852 15.0879 2.34375 24.3652 2.34375ZM59.2773 2.34375L87.3047 2.34375C96.582 2.34375 101.855-2.97852 101.855-12.207L101.855-31.7383L89.4043-31.7383L89.4043-14.0137C89.4043-11.2793 88.0859-10.1562 85.5469-10.1562L59.2773-10.1562Z"/>
  </g>
  <g id="Bold-S" transform="matrix(1 0 0 1 2284.41 696)">
   <path d="M90.7715-38.4766L101.367-38.4766L101.367-58.3008C101.367-67.1875 96.4844-72.0703 87.5-72.0703L58.8379-72.0703L58.8379-61.4746L86.3281-61.4746C89.209-61.4746 90.7715-60.0586 90.7715-56.9824ZM9.76562-38.4766L20.3613-38.4766L20.3613-56.9824C20.3613-60.0586 21.9238-61.4746 24.8047-61.4746L52.2949-61.4746L52.2949-72.0703L23.6328-72.0703C14.6973-72.0703 9.76562-67.1875 9.76562-58.3008ZM55.5664-22.5586C62.4512-22.5586 68.1641-28.2715 68.1641-35.2539C68.1641-42.1387 62.4512-47.8516 55.5664-47.8516C48.584-47.8516 42.8711-42.1387 42.8711-35.2539C42.8711-28.2715 48.584-22.5586 55.5664-22.5586ZM23.6328 1.66016L52.2949 1.66016L52.2949-8.93555L24.8047-8.93555C21.9238-8.93555 20.3613-10.3516 20.3613-13.4277L20.3613-31.9336L9.76562-31.9336L9.76562-12.1094C9.76562-3.22266 14.6973 1.66016 23.6328 1.66016ZM58.8379 1.66016L87.5 1.66016C96.4844 1.66016 101.367-3.22266 101.367-12.1094L101.367-31.9336L90.7715-31.9336L90.7715-13.4277C90.7715-10.3516 89.209-8.93555 86.3281-8.93555L58.8379-8.93555Z"/>
  </g>
  <g id="Semibold-S" transform="matrix(1 0 0 1 1987.9 696)">
   <path d="M91.6992-38.3301L100.977-38.3301L100.977-58.3984C100.977-67.041 96.3867-71.582 87.6465-71.582L58.4961-71.582L58.4961-62.3047L86.8652-62.3047C89.9902-62.3047 91.6992-60.6934 91.6992-57.4219ZM9.76562-38.3301L19.0918-38.3301L19.0918-57.4219C19.0918-60.6934 20.752-62.3047 23.877-62.3047L52.2461-62.3047L52.2461-71.582L23.0957-71.582C14.4043-71.582 9.76562-67.041 9.76562-58.3984ZM55.4199-22.5586C62.3047-22.5586 68.0176-28.2715 68.0176-35.2539C68.0176-42.1387 62.3047-47.8516 55.4199-47.8516C48.4375-47.8516 42.7246-42.1387 42.7246-35.2539C42.7246-28.2715 48.4375-22.5586 55.4199-22.5586ZM23.0957 1.17188L52.2461 1.17188L52.2461-8.10547L23.877-8.10547C20.752-8.10547 19.0918-9.7168 19.0918-12.9883L19.0918-32.0801L9.76562-32.0801L9.76562-12.0117C9.76562-3.36914 14.4043 1.17188 23.0957 1.17188ZM58.4961 1.17188L87.6465 1.17188C96.3867 1.17188 100.977-3.36914 100.977-12.0117L100.977-32.0801L91.6992-32.0801L91.6992-12.9883C91.6992-9.7168 89.9902-8.10547 86.8652-8.10547L58.4961-8.10547Z"/>
  </g>
  <g id="Medium-S" transform="matrix(1 0 0 1 1691.31 696)">
   <path d="M92.3828-38.1836L100.732-38.1836L100.732-58.4473C100.732-66.8945 96.3379-71.2402 87.7441-71.2402L58.252-71.2402L58.252-62.9395L87.3047-62.9395C90.5762-62.9395 92.3828-61.1816 92.3828-57.7148ZM9.76562-38.1836L18.0664-38.1836L18.0664-57.7148C18.0664-61.1816 19.9219-62.9395 23.1934-62.9395L52.2461-62.9395L52.2461-71.2402L22.7051-71.2402C14.209-71.2402 9.76562-66.8945 9.76562-58.4473ZM55.2734-22.5586C62.1582-22.5586 67.8711-28.2715 67.8711-35.2539C67.8711-42.1387 62.1582-47.8516 55.2734-47.8516C48.291-47.8516 42.5781-42.1387 42.5781-35.2539C42.5781-28.2715 48.291-22.5586 55.2734-22.5586ZM22.7051 0.830078L52.2461 0.830078L52.2461-7.4707L23.1934-7.4707C19.9219-7.4707 18.0664-9.22852 18.0664-12.6953L18.0664-32.2266L9.76562-32.2266L9.76562-11.9629C9.76562-3.51562 14.209 0.830078 22.7051 0.830078ZM58.252 0.830078L87.7441 0.830078C96.3379 0.830078 100.732-3.51562 100.732-11.9629L100.732-32.2266L92.3828-32.2266L92.3828-12.6953C92.3828-9.22852 90.5762-7.4707 87.3047-7.4707L58.252-7.4707Z"/>
  </g>
  <g id="Regular-S" transform="matrix(1 0 0 1 1394.79 696)">
   <path d="M93.3105-38.0371L100.342-38.0371L100.342-58.4961C100.342-66.6992 96.2402-70.8008 87.8906-70.8008L57.9102-70.8008L57.9102-63.7207L87.793-63.7207C91.3086-63.7207 93.3105-61.8164 93.3105-58.1543ZM9.76562-38.0371L16.7969-38.0371L16.7969-58.1543C16.7969-61.8164 18.7988-63.7207 22.3145-63.7207L52.1973-63.7207L52.1973-70.8008L22.2168-70.8008C13.916-70.8008 9.76562-66.6992 9.76562-58.4961ZM55.127-22.5586C62.0117-22.5586 67.7246-28.2715 67.7246-35.2539C67.7246-42.1387 62.0117-47.8516 55.127-47.8516C48.1445-47.8516 42.4316-42.1387 42.4316-35.2539C42.4316-28.2715 48.1445-22.5586 55.127-22.5586ZM22.2168 0.390625L52.1973 0.390625L52.1973-6.68945L22.3145-6.68945C18.7988-6.68945 16.7969-8.54492 16.7969-12.2559L16.7969-32.373L9.76562-32.373L9.76562-11.9141C9.76562-3.71094 13.916 0.390625 22.2168 0.390625ZM57.9102 0.390625L87.8906 0.390625C96.2402 0.390625 100.342-3.71094 100.342-11.9141L100.342-32.373L93.3105-32.373L93.3105-12.2559C93.3105-8.54492 91.3086-6.68945 87.793-6.68945L57.9102-6.68945Z"/>
  </g>
  <g id="Light-S" transform="matrix(1 0 0 1 1098.42 696)">
   <path d="M94.2383-37.5977L99.6582-37.5977L99.6582-58.5938C99.6582-66.2109 95.752-70.1172 88.0371-70.1172L57.1289-70.1172L57.1289-64.6973L87.9395-64.6973C91.9434-64.6973 94.2383-62.5 94.2383-58.3008ZM9.76562-37.5977L15.1855-37.5977L15.1855-58.3008C15.1855-62.5 17.4316-64.6973 21.4844-64.6973L52.2949-64.6973L52.2949-70.1172L21.3867-70.1172C13.6719-70.1172 9.76562-66.2598 9.76562-58.5938ZM54.7363-22.5586C61.6211-22.5586 67.334-28.2715 67.334-35.2539C67.334-42.1387 61.6211-47.8516 54.7363-47.8516C47.7539-47.8516 42.041-42.1387 42.041-35.2539C42.041-28.2715 47.7539-22.5586 54.7363-22.5586ZM21.3867-0.292969L52.2949-0.292969L52.2949-5.71289L21.4844-5.71289C17.4316-5.71289 15.1855-7.86133 15.1855-12.0605L15.1855-32.7637L9.76562-32.7637L9.76562-11.7676C9.76562-4.15039 13.6719-0.292969 21.3867-0.292969ZM57.1289-0.292969L88.0371-0.292969C95.752-0.292969 99.6582-4.15039 99.6582-11.7676L99.6582-32.7637L94.2383-32.7637L94.2383-12.0605C94.2383-7.86133 91.9434-5.71289 87.9395-5.71289L57.1289-5.71289Z"/>
  </g>
  <g id="Thin-S" transform="matrix(1 0 0 1 802.174 696)">
   <path d="M95.4102-37.0117L98.7305-37.0117L98.7305-58.6914C98.7305-65.5762 95.1172-69.2383 88.1836-69.2383L56.1035-69.2383L56.1035-65.918L88.0859-65.918C92.7246-65.918 95.4102-63.3789 95.4102-58.5449ZM9.76562-37.0117L13.0859-37.0117L13.0859-58.5449C13.0859-63.3789 15.625-65.918 20.4102-65.918L52.3926-65.918L52.3926-69.2383L20.3125-69.2383C13.3789-69.2383 9.76562-65.625 9.76562-58.6914ZM54.248-22.5098C61.1328-22.5098 66.8457-28.2227 66.8457-35.2051C66.8457-42.0898 61.1328-47.8027 54.248-47.8027C47.2656-47.8027 41.5527-42.0898 41.5527-35.2051C41.5527-28.2227 47.2656-22.5098 54.248-22.5098ZM20.3125-1.12305L52.3926-1.12305L52.3926-4.44336L20.4102-4.44336C15.625-4.44336 13.0859-6.93359 13.0859-11.8164L13.0859-33.3496L9.76562-33.3496L9.76562-11.6211C9.76562-4.6875 13.3789-1.12305 20.3125-1.12305ZM56.1035-1.12305L88.1836-1.12305C95.1172-1.12305 98.7305-4.78516 98.7305-11.6211L98.7305-33.3496L95.4102-33.3496L95.4102-11.8164C95.4102-6.93359 92.7246-4.44336 88.0859-4.44336L56.1035-4.44336Z"/>
  </g>
  <g id="Ultralight-S" transform="matrix(1 0 0 1 505.707 696)">
   <path d="M96.0449-36.6699L98.2422-36.6699L98.2422-58.7891C98.2422-65.2344 94.8242-68.75 88.2812-68.75L55.5664-68.75L55.5664-66.5527L88.1836-66.5527C93.1641-66.5527 96.0449-63.8672 96.0449-58.6426ZM9.76562-36.6699L11.9629-36.6699L11.9629-58.6426C11.9629-63.8672 14.6484-66.5527 19.873-66.5527L52.4902-66.5527L52.4902-68.75L19.7754-68.75C13.2324-68.75 9.76562-65.2832 9.76562-58.7891ZM54.0039-22.5098C60.8887-22.5098 66.6016-28.2227 66.6016-35.2051C66.6016-42.0898 60.8887-47.8027 54.0039-47.8027C47.0215-47.8027 41.3086-42.0898 41.3086-35.2051C41.3086-28.2227 47.0215-22.5098 54.0039-22.5098ZM19.7754-1.5625L52.4902-1.5625L52.4902-3.75977L19.873-3.75977C14.6484-3.75977 11.9629-6.44531 11.9629-11.6699L11.9629-33.6426L9.76562-33.6426L9.76562-11.5234C9.76562-5.0293 13.2324-1.5625 19.7754-1.5625ZM55.5664-1.5625L88.2812-1.5625C94.8242-1.5625 98.2422-5.12695 98.2422-11.5234L98.2422-33.6426L96.0449-33.6426L96.0449-11.6699C96.0449-6.44531 93.1641-3.75977 88.1836-3.75977L55.5664-3.75977Z"/>
  </g>
 </g>
</svg>
