<?xml version="1.0" encoding="UTF-8"?>
<!--Generator: Apple Native CoreSVG 149-->
<!DOCTYPE svg
PUBLIC "-//W3C//DTD SVG 1.1//EN"
       "http://www.w3.org/Graphics/SVG/1.1/DTD/svg11.dtd">
<svg version="1.1" xmlns="http://www.w3.org/2000/svg" xmlns:xlink="http://www.w3.org/1999/xlink" width="3300" height="2200">
 <!--glyph: "uni1001FE.medium", point size: 100.000000, font version: "Version 16.0d12e3", template writer version: "8"-->
 <g id="Notes">
  <rect height="2200" id="artboard" style="fill:white;opacity:1" width="3300" x="0" y="0"/>
  <line id="" style="fill:none;stroke:black;opacity:1;stroke-width:0.5;" x1="263" x2="3036" y1="292" y2="292"/>
  <text style="stroke:none;fill:black;font-family:-apple-system,&quot;SF Pro Display&quot;,&quot;SF Pro Text&quot;,Helvetica,sans-serif;font-weight:bold;" transform="matrix(1 0 0 1 263 322)">Weight/Scale Variations</text>
  <text style="stroke:none;fill:black;font-family:-apple-system,&quot;SF Pro Display&quot;,&quot;SF Pro Text&quot;,Helvetica,sans-serif;text-anchor:middle;" transform="matrix(1 0 0 1 559.711 322)">Ultralight</text>
  <text style="stroke:none;fill:black;font-family:-apple-system,&quot;SF Pro Display&quot;,&quot;SF Pro Text&quot;,Helvetica,sans-serif;text-anchor:middle;" transform="matrix(1 0 0 1 856.422 322)">Thin</text>
  <text style="stroke:none;fill:black;font-family:-apple-system,&quot;SF Pro Display&quot;,&quot;SF Pro Text&quot;,Helvetica,sans-serif;text-anchor:middle;" transform="matrix(1 0 0 1 1153.13 322)">Light</text>
  <text style="stroke:none;fill:black;font-family:-apple-system,&quot;SF Pro Display&quot;,&quot;SF Pro Text&quot;,Helvetica,sans-serif;text-anchor:middle;" transform="matrix(1 0 0 1 1449.84 322)">Regular</text>
  <text style="stroke:none;fill:black;font-family:-apple-system,&quot;SF Pro Display&quot;,&quot;SF Pro Text&quot;,Helvetica,sans-serif;text-anchor:middle;" transform="matrix(1 0 0 1 1746.56 322)">Medium</text>
  <text style="stroke:none;fill:black;font-family:-apple-system,&quot;SF Pro Display&quot;,&quot;SF Pro Text&quot;,Helvetica,sans-serif;text-anchor:middle;" transform="matrix(1 0 0 1 2043.27 322)">Semibold</text>
  <text style="stroke:none;fill:black;font-family:-apple-system,&quot;SF Pro Display&quot;,&quot;SF Pro Text&quot;,Helvetica,sans-serif;text-anchor:middle;" transform="matrix(1 0 0 1 2339.98 322)">Bold</text>
  <text style="stroke:none;fill:black;font-family:-apple-system,&quot;SF Pro Display&quot;,&quot;SF Pro Text&quot;,Helvetica,sans-serif;text-anchor:middle;" transform="matrix(1 0 0 1 2636.69 322)">Heavy</text>
  <text style="stroke:none;fill:black;font-family:-apple-system,&quot;SF Pro Display&quot;,&quot;SF Pro Text&quot;,Helvetica,sans-serif;text-anchor:middle;" transform="matrix(1 0 0 1 2933.4 322)">Black</text>
  <line id="" style="fill:none;stroke:black;opacity:1;stroke-width:0.5;" x1="263" x2="3036" y1="1903" y2="1903"/>
  <g id="" transform="matrix(1 0 0 1 263 1933)">
   <path d="M9.24805 0.830078C13.5547 0.830078 17.1387-2.74414 17.1387-7.05078C17.1387-11.3574 13.5449-14.9316 9.23828-14.9316C4.94141-14.9316 1.36719-11.3574 1.36719-7.05078C1.36719-2.74414 4.95117 0.830078 9.24805 0.830078ZM9.24805-0.654297C5.70312-0.654297 2.87109-3.49609 2.87109-7.05078C2.87109-10.6055 5.69336-13.4473 9.23828-13.4473C12.793-13.4473 15.6348-10.6055 15.6445-7.05078C15.6543-3.49609 12.8027-0.654297 9.24805-0.654297ZM9.22852-3.62305C9.69727-3.62305 9.9707-3.93555 9.9707-4.45312L9.9707-6.31836L12.002-6.31836C12.5-6.31836 12.832-6.57227 12.832-7.04102C12.832-7.51953 12.5195-7.7832 12.002-7.7832L9.9707-7.7832L9.9707-9.81445C9.9707-10.332 9.69727-10.6543 9.22852-10.6543C8.75977-10.6543 8.50586-10.3125 8.50586-9.81445L8.50586-7.7832L6.49414-7.7832C5.97656-7.7832 5.64453-7.51953 5.64453-7.04102C5.64453-6.57227 5.99609-6.31836 6.49414-6.31836L8.50586-6.31836L8.50586-4.45312C8.50586-3.95508 8.75977-3.62305 9.22852-3.62305Z"/>
  </g>
  <g id="" transform="matrix(1 0 0 1 281.506 1933)">
   <path d="M11.709 2.91016C17.1582 2.91016 21.6699-1.61133 21.6699-7.05078C21.6699-12.5 17.1484-17.0117 11.6992-17.0117C6.25977-17.0117 1.74805-12.5 1.74805-7.05078C1.74805-1.61133 6.26953 2.91016 11.709 2.91016ZM11.709 1.25C7.09961 1.25 3.41797-2.44141 3.41797-7.05078C3.41797-11.6602 7.08984-15.3516 11.6992-15.3516C16.3086-15.3516 20-11.6602 20.0098-7.05078C20.0195-2.44141 16.3184 1.25 11.709 1.25ZM11.6797-2.66602C12.207-2.66602 12.5098-3.01758 12.5098-3.59375L12.5098-6.23047L15.3223-6.23047C15.8691-6.23047 16.25-6.51367 16.25-7.03125C16.25-7.55859 15.8887-7.86133 15.3223-7.86133L12.5098-7.86133L12.5098-10.6836C12.5098-11.25 12.207-11.6113 11.6797-11.6113C11.1621-11.6113 10.8789-11.2305 10.8789-10.6836L10.8789-7.86133L8.07617-7.86133C7.50977-7.86133 7.13867-7.55859 7.13867-7.03125C7.13867-6.51367 7.5293-6.23047 8.07617-6.23047L10.8789-6.23047L10.8789-3.59375C10.8789-3.03711 11.1621-2.66602 11.6797-2.66602Z"/>
  </g>
  <g id="" transform="matrix(1 0 0 1 304.924 1933)">
   <path d="M14.9707 5.66406C21.9336 5.66406 27.6953-0.0976562 27.6953-7.05078C27.6953-14.0137 21.9238-19.7754 14.9609-19.7754C8.00781-19.7754 2.25586-14.0137 2.25586-7.05078C2.25586-0.0976562 8.01758 5.66406 14.9707 5.66406ZM14.9707 3.84766C8.93555 3.84766 4.08203-1.01562 4.08203-7.05078C4.08203-13.0957 8.92578-17.9492 14.9609-17.9492C21.0059-17.9492 25.8594-13.0957 25.8691-7.05078C25.8789-1.01562 21.0156 3.84766 14.9707 3.84766ZM14.9414-1.38672C15.5176-1.38672 15.8594-1.77734 15.8594-2.38281L15.8594-6.13281L19.7754-6.13281C20.3711-6.13281 20.7812-6.46484 20.7812-7.02148C20.7812-7.59766 20.3906-7.93945 19.7754-7.93945L15.8594-7.93945L15.8594-11.8652C15.8594-12.4805 15.5176-12.8711 14.9414-12.8711C14.375-12.8711 14.0527-12.4609 14.0527-11.8652L14.0527-7.93945L10.1465-7.93945C9.53125-7.93945 9.13086-7.59766 9.13086-7.02148C9.13086-6.46484 9.55078-6.13281 10.1465-6.13281L14.0527-6.13281L14.0527-2.38281C14.0527-1.79688 14.375-1.38672 14.9414-1.38672Z"/>
  </g>
  <text style="stroke:none;fill:black;font-family:-apple-system,&quot;SF Pro Display&quot;,&quot;SF Pro Text&quot;,Helvetica,sans-serif;font-weight:bold;" transform="matrix(1 0 0 1 263 1953)">Design Variations</text>
  <text style="stroke:none;fill:black;font-family:-apple-system,&quot;SF Pro Display&quot;,&quot;SF Pro Text&quot;,Helvetica,sans-serif;" transform="matrix(1 0 0 1 263 1971)">Symbols are supported in up to nine weights and three scales.</text>
  <text style="stroke:none;fill:black;font-family:-apple-system,&quot;SF Pro Display&quot;,&quot;SF Pro Text&quot;,Helvetica,sans-serif;" transform="matrix(1 0 0 1 263 1989)">For optimal layout with text and other symbols, vertically align</text>
  <text style="stroke:none;fill:black;font-family:-apple-system,&quot;SF Pro Display&quot;,&quot;SF Pro Text&quot;,Helvetica,sans-serif;" transform="matrix(1 0 0 1 263 2007)">symbols with the adjacent text.</text>
  <line id="" style="fill:none;stroke:#00AEEF;stroke-width:0.5;opacity:1.0;" x1="776" x2="776" y1="1919" y2="1933"/>
  <g id="" transform="matrix(1 0 0 1 776 1933)">
   <path d="M3.31055 0.126953C3.82812 0.126953 4.08203-0.0683594 4.26758-0.605469L5.52734-4.0625L11.2891-4.0625L12.5488-0.605469C12.7344-0.0683594 12.9883 0.126953 13.4961 0.126953C14.0137 0.126953 14.3457-0.185547 14.3457-0.673828C14.3457-0.839844 14.3164-0.986328 14.2383-1.20117L9.6582-13.3887C9.43359-13.9941 9.0332-14.2871 8.4082-14.2871C7.80273-14.2871 7.39258-13.9941 7.17773-13.3984L2.59766-1.19141C2.51953-0.976562 2.49023-0.830078 2.49023-0.664062C2.49023-0.175781 2.80273 0.126953 3.31055 0.126953ZM6.00586-5.53711L8.37891-12.1094L8.42773-12.1094L10.8008-5.53711Z"/>
  </g>
  <line id="" style="fill:none;stroke:#00AEEF;stroke-width:0.5;opacity:1.0;" x1="792.836" x2="792.836" y1="1919" y2="1933"/>
  <text style="stroke:none;fill:black;font-family:-apple-system,&quot;SF Pro Display&quot;,&quot;SF Pro Text&quot;,Helvetica,sans-serif;font-weight:bold;" transform="matrix(1 0 0 1 776 1953)">Margins</text>
  <text style="stroke:none;fill:black;font-family:-apple-system,&quot;SF Pro Display&quot;,&quot;SF Pro Text&quot;,Helvetica,sans-serif;" transform="matrix(1 0 0 1 776 1971)">Leading and trailing margins on the left and right side of each symbol</text>
  <text style="stroke:none;fill:black;font-family:-apple-system,&quot;SF Pro Display&quot;,&quot;SF Pro Text&quot;,Helvetica,sans-serif;" transform="matrix(1 0 0 1 776 1989)">can be adjusted by modifying the x-location of the margin guidelines.</text>
  <text style="stroke:none;fill:black;font-family:-apple-system,&quot;SF Pro Display&quot;,&quot;SF Pro Text&quot;,Helvetica,sans-serif;" transform="matrix(1 0 0 1 776 2007)">Modifications are automatically applied proportionally to all</text>
  <text style="stroke:none;fill:black;font-family:-apple-system,&quot;SF Pro Display&quot;,&quot;SF Pro Text&quot;,Helvetica,sans-serif;" transform="matrix(1 0 0 1 776 2025)">scales and weights.</text>
  <g id="" transform="matrix(1 0 0 1 1289 1933)">
   <path d="M2.8418 1.86523L4.54102 3.57422C5.40039 4.44336 6.38672 4.38477 7.31445 3.35938L17.4902-7.85156C17.7539-7.76367 18.0273-7.7832 18.3398-7.8418L19.4043-8.03711L20.0684-7.36328L20.0293-6.80664C19.9902-6.30859 20.1172-5.92773 20.6055-5.44922L21.3672-4.70703C21.8457-4.22852 22.4609-4.19922 22.9297-4.66797L25.8398-7.58789C26.3086-8.05664 26.2891-8.65234 25.8105-9.13086L25.0391-9.89258C24.5605-10.3711 24.1895-10.5273 23.7109-10.4883L23.1348-10.4395L22.4902-11.0742L22.7344-12.1973C22.8613-12.7637 22.7051-13.2031 22.1191-13.7891L19.9219-15.9766C16.582-19.2969 12.1484-19.2188 9.25781-16.3281C8.83789-15.918 8.80859-15.3418 9.04297-14.9512C9.27734-14.5898 9.73633-14.3555 10.3809-14.5215C11.8457-14.8633 13.3691-14.9219 14.7949-13.9844L14.209-12.5293C14.0137-12.0508 13.9844-11.6504 14.1113-11.2891L3.04688-0.898438C2.06055 0.0195312 1.98242 0.996094 2.8418 1.86523ZM10.752-15.957C13.1836-17.7344 16.4746-17.4316 18.7012-15.2051L21.1328-12.793C21.3672-12.5586 21.4062-12.373 21.3379-12.0312L21.0156-10.5469L22.5195-9.0625L23.5059-9.12109C23.7598-9.13086 23.8379-9.11133 24.0332-8.91602L24.6094-8.33984L22.168-5.89844L21.5918-6.47461C21.3965-6.66992 21.3672-6.74805 21.377-7.01172L21.4453-7.98828L19.9512-9.47266L18.4277-9.21875C18.1055-9.15039 17.959-9.17969 17.7148-9.41406L15.7129-11.416C15.459-11.6504 15.4297-11.8164 15.5859-12.1875L16.4648-14.2773C14.9023-15.7324 12.8711-16.3574 10.8398-15.7617C10.6836-15.7227 10.625-15.8496 10.752-15.957ZM5.27344 2.30469L4.10156 1.14258C3.63281 0.683594 3.74023 0.341797 4.14062-0.0195312L14.9512-10.1953L16.416-8.71094L6.42578 2.27539C6.07422 2.67578 5.74219 2.77344 5.27344 2.30469Z"/>
  </g>
  <text style="stroke:none;fill:black;font-family:-apple-system,&quot;SF Pro Display&quot;,&quot;SF Pro Text&quot;,Helvetica,sans-serif;font-weight:bold;" transform="matrix(1 0 0 1 1289 1953)">Exporting</text>
  <text style="stroke:none;fill:black;font-family:-apple-system,&quot;SF Pro Display&quot;,&quot;SF Pro Text&quot;,Helvetica,sans-serif;" transform="matrix(1 0 0 1 1289 1971)">Symbols should be outlined when exporting to ensure the</text>
  <text style="stroke:none;fill:black;font-family:-apple-system,&quot;SF Pro Display&quot;,&quot;SF Pro Text&quot;,Helvetica,sans-serif;" transform="matrix(1 0 0 1 1289 1989)">design is preserved when submitting to Xcode.</text>
  <text id="template-version" style="stroke:none;fill:black;font-family:-apple-system,&quot;SF Pro Display&quot;,&quot;SF Pro Text&quot;,Helvetica,sans-serif;text-anchor:end;" transform="matrix(1 0 0 1 3036 1933)">Template v.2.0</text>
  <text style="stroke:none;fill:black;font-family:-apple-system,&quot;SF Pro Display&quot;,&quot;SF Pro Text&quot;,Helvetica,sans-serif;text-anchor:end;" transform="matrix(1 0 0 1 3036 1951)">Requires Xcode 12 or greater</text>
  <text style="stroke:none;fill:black;font-family:-apple-system,&quot;SF Pro Display&quot;,&quot;SF Pro Text&quot;,Helvetica,sans-serif;text-anchor:end;" transform="matrix(1 0 0 1 3036 1969)">Generated from exclamationmark.triangle</text>
  <text style="stroke:none;fill:black;font-family:-apple-system,&quot;SF Pro Display&quot;,&quot;SF Pro Text&quot;,Helvetica,sans-serif;text-anchor:end;" transform="matrix(1 0 0 1 3036 1987)">Typeset at 100 points</text>
  <text style="stroke:none;fill:black;font-family:-apple-system,&quot;SF Pro Display&quot;,&quot;SF Pro Text&quot;,Helvetica,sans-serif;" transform="matrix(1 0 0 1 263 726)">Small</text>
  <text style="stroke:none;fill:black;font-family:-apple-system,&quot;SF Pro Display&quot;,&quot;SF Pro Text&quot;,Helvetica,sans-serif;" transform="matrix(1 0 0 1 263 1156)">Medium</text>
  <text style="stroke:none;fill:black;font-family:-apple-system,&quot;SF Pro Display&quot;,&quot;SF Pro Text&quot;,Helvetica,sans-serif;" transform="matrix(1 0 0 1 263 1586)">Large</text>
 </g>
 <g id="Guides">
  <g id="H-reference" style="fill:#27AAE1;stroke:none;" transform="matrix(1 0 0 1 339 696)">
   <path d="M0.976562 0L3.66211 0L12.9883-24.4629L45.752-24.4629L55.127 0L57.7637 0L30.6152-70.459L28.125-70.459ZM29.3457-67.1387L29.4434-67.1387L44.873-26.709L13.8672-26.709Z"/>
  </g>
  <line id="Baseline-S" style="fill:none;stroke:#27AAE1;opacity:1;stroke-width:0.5;" x1="263" x2="3036" y1="696" y2="696"/>
  <line id="Capline-S" style="fill:none;stroke:#27AAE1;opacity:1;stroke-width:0.5;" x1="263" x2="3036" y1="625.541" y2="625.541"/>
  <g id="H-reference" style="fill:#27AAE1;stroke:none;" transform="matrix(1 0 0 1 339 1126)">
   <path d="M0.976562 0L3.66211 0L12.9883-24.4629L45.752-24.4629L55.127 0L57.7637 0L30.6152-70.459L28.125-70.459ZM29.3457-67.1387L29.4434-67.1387L44.873-26.709L13.8672-26.709Z"/>
  </g>
  <line id="Baseline-M" style="fill:none;stroke:#27AAE1;opacity:1;stroke-width:0.5;" x1="263" x2="3036" y1="1126" y2="1126"/>
  <line id="Capline-M" style="fill:none;stroke:#27AAE1;opacity:1;stroke-width:0.5;" x1="263" x2="3036" y1="1055.54" y2="1055.54"/>
  <g id="H-reference" style="fill:#27AAE1;stroke:none;" transform="matrix(1 0 0 1 339 1556)">
   <path d="M0.976562 0L3.66211 0L12.9883-24.4629L45.752-24.4629L55.127 0L57.7637 0L30.6152-70.459L28.125-70.459ZM29.3457-67.1387L29.4434-67.1387L44.873-26.709L13.8672-26.709Z"/>
  </g>
  <line id="Baseline-L" style="fill:none;stroke:#27AAE1;opacity:1;stroke-width:0.5;" x1="263" x2="3036" y1="1556" y2="1556"/>
  <line id="Capline-L" style="fill:none;stroke:#27AAE1;opacity:1;stroke-width:0.5;" x1="263" x2="3036" y1="1485.54" y2="1485.54"/>
  <line id="left-margin" style="fill:none;stroke:#00AEEF;stroke-width:0.5;opacity:1.0;" x1="1388.83" x2="1388.83" y1="1030.79" y2="1150.12"/>
  <line id="right-margin" style="fill:none;stroke:#00AEEF;stroke-width:0.5;opacity:1.0;" x1="1510.86" x2="1510.86" y1="1030.79" y2="1150.12"/>
 </g>
 <g id="Symbols">
  <g id="Black-L" transform="matrix(1 0 0 1 2851.95 1556)">
   <path d="M33.3496 28.2715L129.59 28.2715C141.699 28.2715 150 18.7012 150 7.76367C150 4.3457 149.17 0.878906 147.363-2.34375L99.1699-86.5234C95.166-93.457 88.4277-96.8262 81.4941-96.8262C74.5117-96.8262 67.627-93.3105 63.7695-86.5234L15.5762-2.29492C13.7695 0.927734 12.8906 4.3457 12.8906 7.76367C12.8906 18.7012 21.1914 28.2715 33.3496 28.2715ZM37.8906 9.32617C35.5469 9.32617 33.9844 7.37305 33.9844 5.22461C33.9844 4.6875 34.1309 3.80859 34.4238 3.17383L78.125-73.877C78.8086-75.0977 80.2246-75.5859 81.4941-75.5859C82.7637-75.5859 84.082-75 84.7656-73.8281L128.516 3.32031C128.809 3.95508 128.955 4.73633 128.955 5.22461C128.955 7.37305 127.393 9.32617 125.049 9.32617ZM81.543-19.0918C86.3281-19.0918 89.1602-21.7285 89.4531-26.7578L90.5273-48.3398C90.8691-53.6133 87.0605-57.2266 81.4453-57.2266C75.8301-57.2266 72.0703-53.6621 72.3633-48.3887L73.4375-26.6113C73.7305-21.7285 76.6113-19.0918 81.543-19.0918ZM81.543 3.32031C86.9629 3.32031 90.9668 0.146484 90.9668-4.98047C90.9668-10.0586 86.9629-13.2812 81.543-13.2812C76.0742-13.2812 71.9727-10.1074 71.9727-4.98047C71.9727 0.146484 76.123 3.32031 81.543 3.32031Z"/>
  </g>
  <g id="Heavy-L" transform="matrix(1 0 0 1 2555.98 1556)">
   <path d="M32.4707 27.2461L129.004 27.2461C140.625 27.2461 148.535 18.1641 148.535 7.61719C148.535 4.39453 147.754 1.02539 145.996-2.05078L97.6562-86.4746C93.8477-93.0664 87.4023-96.3379 80.7617-96.3379C74.1211-96.3379 67.4805-92.9688 63.8184-86.4746L15.4297-2.00195C13.7207 1.07422 12.8906 4.39453 12.8906 7.61719C12.8906 18.1641 20.8008 27.2461 32.4707 27.2461ZM35.9375 10.7422C33.0566 10.7422 31.1035 8.34961 31.1035 5.71289C31.1035 4.98047 31.2012 4.00391 31.6406 3.17383L76.5137-75.8789C77.3926-77.3926 79.1016-78.0762 80.7617-78.0762C82.373-78.0762 83.9844-77.3926 84.9121-75.8301L129.785 3.27148C130.225 4.10156 130.42 5.0293 130.42 5.71289C130.42 8.34961 128.418 10.7422 125.488 10.7422ZM80.7617-18.8965C85.0586-18.8965 87.5977-21.2402 87.793-25.7812L88.8184-50.1953C89.0625-54.8828 85.6934-58.1055 80.7129-58.1055C75.6836-58.1055 72.3145-54.9316 72.6074-50.1953L73.584-25.6836C73.7793-21.2891 76.3672-18.8965 80.7617-18.8965ZM80.7617 2.92969C85.6934 2.92969 89.4531-0.0976562 89.4531-4.83398C89.4531-9.52148 85.7422-12.5977 80.7617-12.5977C75.8301-12.5977 72.0215-9.52148 72.0215-4.83398C72.0215-0.146484 75.8301 2.92969 80.7617 2.92969Z"/>
  </g>
  <g id="Bold-L" transform="matrix(1 0 0 1 2260.09 1556)">
   <path d="M31.4941 26.123L128.32 26.123C139.502 26.123 146.875 17.5781 146.875 7.4707C146.875 4.39453 146.143 1.2207 144.434-1.70898L95.9473-86.4746C92.3828-92.6758 86.2305-95.8496 79.9316-95.8496C73.6328-95.8496 67.334-92.627 63.8672-86.4746L15.332-1.66016C13.6719 1.26953 12.8906 4.39453 12.8906 7.4707C12.8906 17.5781 20.3125 26.123 31.4941 26.123ZM33.7891 12.4023C30.2246 12.4023 27.832 9.47266 27.832 6.20117C27.832 5.32227 27.9785 4.15039 28.5156 3.125L74.707-78.0762C75.8301-80.0293 77.9297-80.9082 79.9316-80.9082C81.9336-80.9082 83.9355-80.0293 85.0098-78.0273L131.25 3.22266C131.787 4.19922 132.031 5.32227 132.031 6.20117C132.031 9.47266 129.541 12.4023 126.025 12.4023ZM79.9316-18.6523C83.6426-18.6523 85.8398-20.752 85.9863-24.6582L86.9141-52.2461C87.1094-56.2988 84.1309-59.1309 79.834-59.1309C75.5371-59.1309 72.6562-56.3477 72.8027-52.2949L73.7305-24.6094C73.877-20.752 76.123-18.6523 79.9316-18.6523ZM79.9316 2.49023C84.2773 2.49023 87.7441-0.390625 87.7441-4.63867C87.7441-8.88672 84.3262-11.8164 79.9316-11.8164C75.4883-11.8164 72.0703-8.88672 72.0703-4.63867C72.0703-0.439453 75.5371 2.49023 79.9316 2.49023Z"/>
  </g>
  <g id="Semibold-L" transform="matrix(1 0 0 1 1963.95 1556)">
   <path d="M30.8105 25.3418L127.881 25.3418C138.672 25.3418 145.752 17.1387 145.752 7.37305C145.752 4.39453 145.02 1.36719 143.408-1.46484L94.7754-86.4258C91.3574-92.3828 85.4004-95.459 79.3457-95.459C73.291-95.459 67.2852-92.3828 63.8672-86.4258L15.2344-1.41602C13.6719 1.36719 12.8906 4.39453 12.8906 7.37305C12.8906 17.1387 20.0195 25.3418 30.8105 25.3418ZM32.3242 13.5254C28.2715 13.5254 25.5859 10.2051 25.5859 6.54297C25.5859 5.51758 25.7324 4.29688 26.3672 3.07617L73.4863-79.6387C74.7559-81.8359 77.0508-82.8613 79.3457-82.8613C81.6406-82.8613 83.8379-81.8359 85.1074-79.5898L132.227 3.17383C132.861 4.29688 133.105 5.51758 133.105 6.54297C133.105 10.2051 130.371 13.5254 126.367 13.5254ZM79.3457-18.457C82.666-18.457 84.6191-20.3613 84.7168-23.9258L85.5957-53.6621C85.7422-57.2754 83.0566-59.8633 79.2969-59.8633C75.4395-59.8633 72.8516-57.3242 72.998-53.7109L73.8281-23.877C73.9746-20.4102 75.9277-18.457 79.3457-18.457ZM79.3457 2.19727C83.3496 2.19727 86.5723-0.634766 86.5723-4.54102C86.5723-8.44727 83.3984-11.2793 79.3457-11.2793C75.293-11.2793 72.0703-8.39844 72.0703-4.54102C72.0703-0.683594 75.3418 2.19727 79.3457 2.19727Z"/>
  </g>
  <g id="Medium-L" transform="matrix(1 0 0 1 1667.65 1556)">
   <path d="M30.3223 24.707L127.539 24.707C138.086 24.707 144.922 16.8457 144.922 7.27539C144.922 4.39453 144.141 1.46484 142.578-1.26953L93.8965-86.4258C90.5762-92.1875 84.8145-95.2148 78.9062-95.2148C73.0469-95.2148 67.1875-92.1875 63.916-86.4258L15.1855-1.2207C13.623 1.46484 12.8906 4.39453 12.8906 7.27539C12.8906 16.8457 19.7754 24.707 30.3223 24.707ZM31.2012 14.3555C26.8066 14.3555 23.877 10.791 23.877 6.83594C23.877 5.71289 24.0723 4.3457 24.707 3.07617L72.5586-80.7617C73.9258-83.2031 76.416-84.3262 78.9062-84.3262C81.3965-84.3262 83.7891-83.2031 85.2051-80.7617L133.008 3.125C133.691 4.3457 133.984 5.71289 133.984 6.83594C133.984 10.791 130.957 14.3555 126.611 14.3555ZM78.9062-18.3594C81.8848-18.3594 83.6914-20.1172 83.7402-23.3887L84.6191-54.7363C84.7168-58.0078 82.2266-60.3516 78.8574-60.3516C75.3906-60.3516 72.998-58.0566 73.0957-54.7852L73.9258-23.3398C73.9746-20.166 75.7812-18.3594 78.9062-18.3594ZM78.9062 1.95312C82.6172 1.95312 85.6445-0.78125 85.6445-4.44336C85.6445-8.10547 82.666-10.8398 78.9062-10.8398C75.1465-10.8398 72.0703-8.05664 72.0703-4.44336C72.0703-0.830078 75.1953 1.95312 78.9062 1.95312Z"/>
  </g>
  <g id="Regular-L" transform="matrix(1 0 0 1 1371.5 1556)">
   <path d="M29.6387 23.9258L127.1 23.9258C137.256 23.9258 143.799 16.4551 143.799 7.17773C143.799 4.44336 143.066 1.5625 141.553-1.07422L92.7246-86.377C89.5996-91.9434 84.0332-94.8242 78.3691-94.8242C72.7051-94.8242 67.0898-91.9434 63.9648-86.377L15.0879-0.976562C13.623 1.61133 12.8906 4.44336 12.8906 7.17773C12.8906 16.4551 19.4336 23.9258 29.6387 23.9258ZM29.6875 15.4785C24.8535 15.4785 21.6309 11.5234 21.6309 7.17773C21.6309 5.95703 21.875 4.49219 22.5586 3.02734L71.3379-82.2754C72.8516-84.9609 75.6348-86.2305 78.3691-86.2305C81.1035-86.2305 83.7402-85.0098 85.3027-82.2754L133.984 3.07617C134.766 4.44336 135.059 5.9082 135.059 7.17773C135.059 11.5234 131.738 15.4785 126.953 15.4785ZM78.3203-18.2129C80.9082-18.2129 82.4707-19.7266 82.5195-22.6074L83.3008-56.1523C83.3496-58.9844 81.2012-61.084 78.2715-61.084C75.293-61.084 73.1934-59.0332 73.2422-56.2012L74.0234-22.6074C74.0723-19.7754 75.5859-18.2129 78.3203-18.2129ZM78.3203 1.66016C81.6406 1.66016 84.5215-0.976562 84.5215-4.29688C84.5215-7.66602 81.6895-10.3027 78.3203-10.3027C74.9023-10.3027 72.1191-7.61719 72.1191-4.29688C72.1191-1.02539 74.9512 1.66016 78.3203 1.66016Z"/>
  </g>
  <g id="Light-L" transform="matrix(1 0 0 1 1075.37 1556)">
   <path d="M28.7109 23.4863L126.855 23.4863C136.377 23.4863 142.627 16.2109 142.627 7.61719C142.627 4.98047 141.992 2.29492 140.527-0.244141L91.4062-86.5234C88.4277-91.748 83.1543-94.4824 77.7832-94.4824C72.4609-94.4824 67.0898-91.748 64.1113-86.5234L14.9414-0.146484C13.5254 2.29492 12.8906 4.98047 12.8906 7.61719C12.8906 16.2109 19.1895 23.4863 28.7109 23.4863ZM28.8086 16.9434C23.3398 16.9434 19.6777 12.5 19.6777 7.61719C19.6777 6.20117 19.9219 4.58984 20.7031 2.88086L69.8242-83.3984C71.5332-86.4258 74.6582-87.8906 77.7832-87.8906C80.9082-87.8906 83.8867-86.4746 85.6445-83.3984L134.668 2.92969C135.498 4.49219 135.889 6.15234 135.889 7.61719C135.889 12.5 132.129 16.9434 126.758 16.9434ZM77.7344-18.1641C79.7852-18.1641 81.0547-19.5312 81.1035-21.875L81.7383-55.7129C81.7871-58.0566 80.0781-59.7168 77.7344-59.7168C75.293-59.7168 73.6816-58.0566 73.7305-55.7617L74.3164-21.875C74.3652-19.5312 75.6348-18.1641 77.7344-18.1641ZM77.7344 0.878906C80.6641 0.878906 83.1543-1.51367 83.1543-4.39453C83.1543-7.27539 80.7129-9.61914 77.7344-9.61914C74.8047-9.61914 72.3633-7.27539 72.3633-4.39453C72.3633-1.5625 74.8047 0.878906 77.7344 0.878906Z"/>
  </g>
  <g id="Thin-L" transform="matrix(1 0 0 1 779.445 1556)">
   <path d="M27.5391 22.8516L126.514 22.8516C135.107 22.8516 141.064 15.8691 141.064 8.1543C141.064 5.71289 140.576 3.22266 139.16 0.878906L89.5996-86.6699C86.8652-91.5527 81.9824-94.043 77.002-94.043C72.168-94.043 67.0898-91.5527 64.3555-86.6699L14.6973 1.02539C13.4766 3.22266 12.8906 5.71289 12.8906 8.1543C12.8906 15.8691 18.8965 22.8516 27.5391 22.8516ZM27.5879 18.8965C21.2891 18.8965 17.041 13.8184 17.041 8.1543C17.041 6.54297 17.334 4.73633 18.2617 2.73438L67.8711-84.8145C69.8242-88.3301 73.3887-90.0391 77.002-90.0391C80.6641-90.0391 84.082-88.3789 86.1328-84.8145L135.547 2.73438C136.523 4.54102 137.012 6.44531 137.012 8.1543C137.012 13.8184 132.666 18.8965 126.465 18.8965ZM77.002-18.1641C78.3203-18.1641 79.248-19.1895 79.248-20.8008L79.6875-55.1758C79.6875-56.8359 78.6621-57.959 77.002-57.959C75.3418-57.959 74.3164-56.8359 74.3164-55.2246L74.7559-20.8008C74.7559-19.1895 75.6836-18.1641 77.002-18.1641ZM77.002-0.146484C79.3945-0.146484 81.2988-2.19727 81.2988-4.44336C81.2988-6.78711 79.3945-8.74023 77.002-8.74023C74.6094-8.74023 72.7051-6.78711 72.7051-4.44336C72.7051-2.19727 74.6094-0.146484 77.002-0.146484Z"/>
  </g>
  <g id="Ultralight-L" transform="matrix(1 0 0 1 483.124 1556)">
   <path d="M26.9043 22.5586L126.367 22.5586C134.521 22.5586 140.283 15.7227 140.283 8.44727C140.283 6.10352 139.844 3.71094 138.477 1.41602L88.6719-86.7676C86.084-91.4062 81.3477-93.7988 76.6602-93.7988C72.0215-93.7988 67.0898-91.4062 64.502-86.7676L14.5996 1.61133C13.4277 3.71094 12.8906 6.10352 12.8906 8.44727C12.8906 15.7227 18.75 22.5586 26.9043 22.5586ZM27.002 19.9219C20.2637 19.9219 15.7227 14.502 15.7227 8.44727C15.7227 6.68945 16.0156 4.83398 17.041 2.63672L66.8457-85.5469C68.8965-89.3066 72.7539-91.1133 76.6602-91.1133C80.5664-91.1133 84.1797-89.4043 86.3281-85.5469L135.986 2.63672C137.061 4.54102 137.549 6.64062 137.549 8.44727C137.549 14.502 132.91 19.9219 126.27 19.9219ZM76.6113-18.1152C77.5879-18.1152 78.2715-19.043 78.2715-20.3125L78.6133-54.9316C78.6133-56.2012 77.8809-57.0312 76.6113-57.0312C75.3418-57.0312 74.6094-56.2012 74.6094-54.9316L75-20.3125C74.9512-19.043 75.6836-18.1152 76.6113-18.1152ZM76.6113-0.683594C78.7598-0.683594 80.3711-2.53906 80.3711-4.49219C80.3711-6.49414 78.7109-8.25195 76.6113-8.25195C74.5117-8.25195 72.8516-6.54297 72.8516-4.49219C72.8516-2.53906 74.5117-0.683594 76.6113-0.683594Z"/>
  </g>
  <g id="Black-M" transform="matrix(1 0 0 1 2869.63 1126)">
   <path d="M26.5137 15.1367L101.074 15.1367C110.693 15.1367 117.578 7.17773 117.578-1.51367C117.578-4.24805 116.943-7.08008 115.479-9.7168L78.125-75.0977C74.8535-80.7129 69.4336-83.3984 63.8184-83.3984C58.1543-83.3984 52.5391-80.6152 49.4141-75.0977L12.0605-9.61914C10.6445-7.08008 9.96094-4.24805 9.96094-1.51367C9.96094 7.17773 16.8457 15.1367 26.5137 15.1367ZM31.4453-1.9043C30.127-1.9043 29.1992-2.97852 29.1992-4.24805C29.1992-4.54102 29.248-5.12695 29.4434-5.46875L61.8652-63.0859C62.207-63.7207 63.0859-63.9648 63.8184-63.9648C64.5508-63.9648 65.332-63.6719 65.6738-62.9883L98.1445-5.32227C98.3398-4.98047 98.3887-4.49219 98.3887-4.24805C98.3887-2.97852 97.5098-1.9043 96.1426-1.9043ZM63.916-22.998C68.0664-22.998 70.5078-25.2441 70.752-29.541L71.6309-42.7246C71.9238-47.3145 68.75-50.293 63.8184-50.293C58.9355-50.293 55.7129-47.3145 56.0547-42.7246L56.9336-29.3945C57.1777-25.2441 59.668-22.998 63.916-22.998ZM63.916-5.27344C68.5547-5.27344 71.7773-7.71484 71.7773-12.0117C71.7773-16.3086 68.5547-18.7988 63.916-18.7988C59.2285-18.7988 55.8594-16.3574 55.8594-12.0117C55.8594-7.71484 59.2285-5.27344 63.916-5.27344Z"/>
  </g>
  <g id="Heavy-M" transform="matrix(1 0 0 1 2573.58 1126)">
   <path d="M25.8301 14.1113L100.488 14.1113C109.814 14.1113 116.26 6.64062 116.26-1.75781C116.26-4.39453 115.674-7.08008 114.209-9.57031L76.8066-75.0488C73.7305-80.3711 68.5059-83.0078 63.1348-83.0078C57.7637-83.0078 52.3926-80.2734 49.4141-75.0488L12.0117-9.52148C10.6445-7.08008 9.96094-4.39453 9.96094-1.75781C9.96094 6.64062 16.4551 14.1113 25.8301 14.1113ZM29.5898-0.683594C27.7344-0.683594 26.5137-2.19727 26.5137-3.85742C26.5137-4.29688 26.6113-4.98047 26.8555-5.46875L60.498-64.9414C61.0352-65.918 62.1582-66.3086 63.1348-66.3086C64.1602-66.3086 65.1855-65.8691 65.7227-64.8926L99.4141-5.37109C99.6582-4.88281 99.7559-4.24805 99.7559-3.85742C99.7559-2.19727 98.5352-0.683594 96.7285-0.683594ZM63.2324-22.7539C66.9434-22.7539 69.1406-24.8047 69.3359-28.6621L70.166-44.8242C70.4102-48.9258 67.5293-51.6602 63.1348-51.6602C58.7891-51.6602 55.9082-48.9258 56.1523-44.8242L56.9824-28.5645C57.1777-24.8535 59.4238-22.7539 63.2324-22.7539ZM63.2324-5.46875C67.4316-5.46875 70.5078-7.86133 70.5078-11.8652C70.5078-15.7715 67.4316-18.2129 63.2324-18.2129C58.9844-18.2129 55.8594-15.8203 55.8594-11.8652C55.8594-7.86133 58.9844-5.46875 63.2324-5.46875Z"/>
  </g>
  <g id="Bold-M" transform="matrix(1 0 0 1 2277.58 1126)">
   <path d="M25 12.9883L99.8535 12.9883C108.789 12.9883 114.844 6.05469 114.844-2.05078C114.844-4.54102 114.209-7.08008 112.842-9.47266L75.3906-74.9512C72.4609-79.9805 67.5293-82.5195 62.4023-82.5195C57.3242-82.5195 52.2461-79.9316 49.4141-74.9512L11.9141-9.42383C10.5957-7.08008 9.96094-4.54102 9.96094-2.05078C9.96094 6.05469 16.0156 12.9883 25 12.9883ZM27.4902 0.683594C25.0977 0.683594 23.5352-1.26953 23.5352-3.41797C23.5352-4.00391 23.6328-4.83398 23.9746-5.46875L58.9844-67.0898C59.7168-68.3594 61.084-68.8965 62.4023-68.8965C63.7207-68.8965 65.0391-68.3105 65.7715-67.041L100.781-5.41992C101.123-4.73633 101.27-4.00391 101.27-3.41797C101.27-1.26953 99.6582 0.683594 97.3145 0.683594ZM62.4512-22.5098C65.7227-22.5098 67.627-24.3164 67.7734-27.7344L68.5547-47.168C68.75-50.7324 66.1621-53.1738 62.4023-53.1738C58.6426-53.1738 56.1035-50.7324 56.2988-47.2168L57.0312-27.6367C57.2266-24.3652 59.1309-22.5098 62.4512-22.5098ZM62.4512-5.71289C66.2109-5.71289 69.043-8.05664 69.043-11.6211C69.043-15.1855 66.2109-17.5293 62.4512-17.5293C58.6914-17.5293 55.8105-15.1855 55.8105-11.6211C55.8105-8.05664 58.7402-5.71289 62.4512-5.71289Z"/>
  </g>
  <g id="Semibold-M" transform="matrix(1 0 0 1 1981.38 1126)">
   <path d="M24.4141 12.2559L99.3652 12.2559C108.105 12.2559 113.818 5.66406 113.818-2.24609C113.818-4.63867 113.184-7.12891 111.914-9.375L74.3652-74.9023C71.582-79.7363 66.7969-82.1777 61.9141-82.1777C57.0312-82.1777 52.1484-79.6875 49.4141-74.9023L11.8652-9.32617C10.5957-7.08008 9.96094-4.63867 9.96094-2.24609C9.96094 5.66406 15.6738 12.2559 24.4141 12.2559ZM26.0254 1.61133C23.291 1.61133 21.4844-0.634766 21.4844-3.125C21.4844-3.80859 21.582-4.6875 21.9727-5.46875L57.959-68.5547C58.7891-70.0195 60.4004-70.7031 61.9141-70.7031C63.4277-70.7031 64.9414-70.0195 65.8203-68.5059L101.758-5.41992C102.148-4.63867 102.344-3.80859 102.344-3.125C102.344-0.634766 100.488 1.61133 97.7539 1.61133ZM61.9141-22.3633C64.8438-22.3633 66.5527-23.9746 66.6504-27.0508L67.4316-48.8281C67.5781-51.9531 65.1855-54.1992 61.8652-54.1992C58.5449-54.1992 56.25-52.002 56.3965-48.8281L57.0801-27.002C57.2266-24.0234 58.9355-22.3633 61.9141-22.3633ZM61.9141-5.9082C65.332-5.9082 68.0176-8.20312 68.0176-11.4746C68.0176-14.7949 65.3809-17.0898 61.9141-17.0898C58.4961-17.0898 55.8105-14.7949 55.8105-11.4746C55.8105-8.20312 58.5449-5.9082 61.9141-5.9082Z"/>
  </g>
  <g id="Medium-M" transform="matrix(1 0 0 1 1685.06 1126)">
   <path d="M24.0234 11.6699L99.0234 11.6699C107.568 11.6699 113.037 5.37109 113.037-2.39258C113.037-4.73633 112.451-7.12891 111.182-9.32617L73.584-74.8535C70.9473-79.541 66.2598-81.9336 61.5234-81.9336C56.7871-81.9336 52.0508-79.4922 49.4141-74.8535L11.8164-9.27734C10.5469-7.08008 9.96094-4.73633 9.96094-2.39258C9.96094 5.37109 15.4785 11.6699 24.0234 11.6699ZM24.9512 2.29492C21.9238 2.29492 19.9219-0.195312 19.9219-2.88086C19.9219-3.66211 20.0195-4.63867 20.5078-5.51758L57.1289-69.6289C58.1055-71.2891 59.8145-72.0703 61.5234-72.0703C63.2324-72.0703 64.8926-71.2891 65.8203-69.6289L102.49-5.41992C102.93-4.58984 103.125-3.66211 103.125-2.88086C103.125-0.195312 101.074 2.29492 98.0469 2.29492ZM61.5234-22.2168C64.209-22.2168 65.7715-23.7305 65.8203-26.5625L66.5527-50.0488C66.6504-52.9297 64.502-54.9805 61.4746-54.9805C58.4473-54.9805 56.3477-52.9785 56.4453-50.0977L57.1289-26.5137C57.2266-23.7305 58.7891-22.2168 61.5234-22.2168ZM61.5234-6.00586C64.6973-6.00586 67.2852-8.30078 67.2852-11.377C67.2852-14.502 64.7461-16.748 61.5234-16.748C58.3496-16.748 55.7617-14.4531 55.7617-11.377C55.7617-8.30078 58.3984-6.00586 61.5234-6.00586Z"/>
  </g>
  <g id="Regular-M" transform="matrix(1 0 0 1 1388.83 1126)">
   <path d="M23.4375 10.8887L98.584 10.8887C106.885 10.8887 112.061 4.93164 112.061-2.58789C112.061-4.83398 111.475-7.12891 110.254-9.22852L72.6074-74.8047C70.0684-79.248 65.5762-81.6406 61.0352-81.6406C56.4453-81.6406 51.9531-79.248 49.4141-74.8047L11.7676-9.17969C10.5469-7.08008 9.96094-4.83398 9.96094-2.58789C9.96094 4.93164 15.1367 10.8887 23.4375 10.8887ZM23.4863 3.22266C20.1172 3.22266 17.8711 0.439453 17.8711-2.58789C17.8711-3.4668 18.0176-4.49219 18.5059-5.51758L56.1035-71.0938C57.1777-72.9492 59.1309-73.8281 61.0352-73.8281C62.9395-73.8281 64.7949-72.998 65.8691-71.0938L103.418-5.46875C103.955-4.49219 104.199-3.4668 104.199-2.58789C104.199 0.439453 101.855 3.22266 98.4863 3.22266ZM61.0352-22.0215C63.3789-22.0215 64.6973-23.3887 64.7461-25.9277L65.4785-51.6602C65.5273-54.1504 63.5742-56.0059 60.9863-56.0059C58.3496-56.0059 56.4941-54.1992 56.543-51.709L57.1777-25.9277C57.2266-23.4375 58.5938-22.0215 61.0352-22.0215ZM61.0352-6.15234C63.8184-6.15234 66.3086-8.39844 66.3086-11.2305C66.3086-14.1113 63.8672-16.3086 61.0352-16.3086C58.1543-16.3086 55.7617-14.0625 55.7617-11.2305C55.7617-8.44727 58.2031-6.15234 61.0352-6.15234Z"/>
  </g>
  <g id="Light-M" transform="matrix(1 0 0 1 1092.64 1126)">
   <path d="M22.6562 10.498L98.3887 10.498C106.055 10.498 111.035 4.73633 111.035-2.24609C111.035-4.29688 110.498-6.49414 109.326-8.49609L71.3867-74.9023C68.9941-79.1016 64.7949-81.2988 60.498-81.2988C56.25-81.2988 51.9531-79.1016 49.6094-74.9023L11.6211-8.39844C10.498-6.44531 9.96094-4.29688 9.96094-2.24609C9.96094 4.73633 14.9414 10.498 22.6562 10.498ZM22.7051 4.54102C18.75 4.54102 16.1133 1.31836 16.1133-2.24609C16.1133-3.22266 16.2598-4.39453 16.8457-5.61523L54.7852-72.0703C56.0059-74.2676 58.252-75.293 60.498-75.293C62.7441-75.293 64.9414-74.2676 66.2109-72.0703L104.053-5.56641C104.639-4.49219 104.932-3.27148 104.932-2.24609C104.932 1.31836 102.197 4.54102 98.291 4.54102ZM60.498-22.0215C62.3535-22.0215 63.4766-23.1445 63.4766-25.1953L64.0625-51.3184C64.1113-53.3203 62.5488-54.834 60.498-54.834C58.3496-54.834 56.8848-53.3691 56.9336-51.3184L57.4707-25.1953C57.5195-23.1934 58.5938-22.0215 60.498-22.0215ZM60.498-6.88477C62.9883-6.88477 65.0391-8.88672 65.0391-11.2793C65.0391-13.7695 62.9883-15.7227 60.498-15.7227C58.0078-15.7227 55.957-13.7207 55.957-11.2793C55.957-8.88672 58.0566-6.88477 60.498-6.88477Z"/>
  </g>
  <g id="Thin-M" transform="matrix(1 0 0 1 796.608 1126)">
   <path d="M21.582 9.91211L98.0957 9.91211C104.98 9.91211 109.668 4.44336 109.668-1.70898C109.668-3.66211 109.229-5.61523 108.105-7.4707L69.7754-75.0977C67.627-78.9062 63.7207-80.9082 59.8145-80.9082C55.957-80.9082 51.9531-78.9062 49.8047-75.0977L11.4258-7.37305C10.4492-5.61523 9.96094-3.66211 9.96094-1.70898C9.96094 4.44336 14.6973 9.91211 21.582 9.91211ZM21.6309 6.29883C16.9434 6.29883 13.7207 2.49023 13.7207-1.70898C13.7207-2.92969 13.9648-4.29688 14.6484-5.76172L52.9785-73.3398C54.4434-75.9766 57.1289-77.2461 59.8145-77.2461C62.5488-77.2461 65.0879-76.0254 66.6016-73.3398L104.834-5.76172C105.566-4.44336 105.908-2.97852 105.908-1.70898C105.908 2.49023 102.686 6.29883 98.0469 6.29883ZM59.8145-21.9727C61.0352-21.9727 61.8164-22.8516 61.8164-24.2676L62.207-50.8301C62.207-52.2461 61.2793-53.2227 59.8145-53.2227C58.3984-53.2227 57.4707-52.2461 57.4707-50.8301L57.8613-24.2676C57.8613-22.9004 58.6426-21.9727 59.8145-21.9727ZM59.8145-7.8125C61.8164-7.8125 63.4277-9.47266 63.4277-11.377C63.4277-13.2812 61.8164-14.8926 59.8145-14.8926C57.8613-14.8926 56.25-13.2812 56.25-11.377C56.25-9.47266 57.8613-7.8125 59.8145-7.8125Z"/>
  </g>
  <g id="Ultralight-M" transform="matrix(1 0 0 1 500.263 1126)">
   <path d="M20.9961 9.66797L97.9492 9.66797C104.395 9.66797 108.936 4.29688 108.936-1.46484C108.936-3.32031 108.545-5.17578 107.52-6.98242L68.9941-75.1465C66.9434-78.8086 63.1836-80.6641 59.4727-80.6641C55.8105-80.6641 51.9531-78.8086 49.9023-75.1465L11.3281-6.83594C10.4004-5.17578 9.96094-3.32031 9.96094-1.46484C9.96094 4.29688 14.5508 9.66797 20.9961 9.66797ZM21.0938 7.17773C16.0156 7.17773 12.5488 3.125 12.5488-1.46484C12.5488-2.7832 12.793-4.19922 13.5254-5.85938L52.0996-74.0234C53.6621-76.8555 56.543-78.2227 59.4727-78.2227C62.4512-78.2227 65.1855-76.9043 66.7969-74.0234L105.225-5.85938C106.055-4.39453 106.396-2.83203 106.396-1.46484C106.396 3.125 102.93 7.17773 97.9004 7.17773ZM59.4727-21.9727C60.3516-21.9727 60.9375-22.7051 60.9375-23.8281L61.2305-50.5859C61.2305-51.6602 60.5957-52.3926 59.4727-52.3926C58.3984-52.3926 57.7148-51.6602 57.7148-50.5859L58.0566-23.8281C58.0566-22.7051 58.6426-21.9727 59.4727-21.9727ZM59.4727-8.30078C61.2305-8.30078 62.5488-9.81445 62.5488-11.377C62.5488-13.0371 61.2305-14.4531 59.4727-14.4531C57.7637-14.4531 56.3965-13.0371 56.3965-11.377C56.3965-9.81445 57.7637-8.30078 59.4727-8.30078Z"/>
  </g>
  <g id="Black-S" transform="matrix(1 0 0 1 2883.47 696)">
   <path d="M20.752 4.15039L79.1504 4.15039C86.6699 4.15039 92.041-2.05078 92.041-8.83789C92.041-10.9863 91.5527-13.1836 90.3809-15.2344L61.1328-66.4551C58.5938-70.8496 54.3457-72.9492 49.9512-72.9492C45.5566-72.9492 41.1621-70.752 38.7207-66.4551L9.47266-15.1855C8.34961-13.1836 7.8125-10.9863 7.8125-8.83789C7.8125-2.05078 13.1836 4.15039 20.752 4.15039ZM24.5117-9.0332C23.4375-9.0332 22.7051-9.91211 22.7051-10.9375C22.7051-11.1816 22.7539-11.6211 22.9004-11.9141L48.3887-57.1777C48.6816-57.7148 49.3652-57.9102 49.9512-57.9102C50.5371-57.9102 51.1719-57.666 51.4648-57.1289L77.002-11.8164C77.1484-11.5234 77.1973-11.1328 77.1973-10.9375C77.1973-9.91211 76.4648-9.0332 75.3906-9.0332ZM50-25.6348C53.2227-25.6348 55.127-27.3926 55.3223-30.7129L56.0059-41.2598C56.25-44.8242 53.7598-47.168 49.9512-47.168C46.1426-47.168 43.6523-44.8242 43.8965-41.2598L44.5801-30.6152C44.7754-27.3926 46.7285-25.6348 50-25.6348ZM50-11.7676C53.6133-11.7676 56.1523-13.6719 56.1523-17.041C56.1523-20.3613 53.6133-22.3145 50-22.3145C46.3867-22.3145 43.75-20.4102 43.75-17.041C43.75-13.6719 46.3867-11.7676 50-11.7676Z"/>
  </g>
  <g id="Heavy-S" transform="matrix(1 0 0 1 2587.2 696)">
   <path d="M20.2637 3.41797L78.7109 3.41797C86.084 3.41797 91.1621-2.44141 91.1621-9.08203C91.1621-11.1328 90.6738-13.2812 89.5508-15.2344L60.2539-66.4062C57.8613-70.6055 53.7598-72.6562 49.5117-72.6562C45.2637-72.6562 41.0645-70.5078 38.7207-66.4062L9.42383-15.1855C8.34961-13.2324 7.8125-11.1328 7.8125-9.08203C7.8125-2.44141 12.8906 3.41797 20.2637 3.41797ZM23.1445-8.25195C21.7773-8.25195 20.8496-9.375 20.8496-10.6934C20.8496-11.0352 20.8984-11.5234 21.0938-11.9141L47.5098-58.4961C47.9004-59.2285 48.7305-59.5215 49.5117-59.5215C50.2441-59.5215 51.0742-59.1797 51.4648-58.4961L77.8809-11.8164C78.0762-11.4258 78.1738-10.9863 78.1738-10.6934C78.1738-9.375 77.1973-8.25195 75.8301-8.25195ZM49.5605-25.4395C52.4902-25.4395 54.248-27.0508 54.3945-30.127L55.0781-42.9199C55.2734-46.1426 52.9297-48.3398 49.5117-48.3398C46.0449-48.3398 43.75-46.1426 43.9453-42.9199L44.5801-30.0781C44.7754-27.0996 46.5332-25.4395 49.5605-25.4395ZM49.5605-11.8652C52.8809-11.8652 55.3223-13.7695 55.3223-16.8945C55.3223-20.0195 52.8809-21.9238 49.5605-21.9238C46.1914-21.9238 43.7012-20.0195 43.7012-16.8945C43.7012-13.7695 46.2402-11.8652 49.5605-11.8652Z"/>
  </g>
  <g id="Bold-S" transform="matrix(1 0 0 1 2290.98 696)">
   <path d="M19.7754 2.63672L78.2715 2.63672C85.4004 2.63672 90.1855-2.83203 90.1855-9.32617C90.1855-11.3281 89.6484-13.3301 88.623-15.2344L59.3262-66.3086C56.9824-70.3125 53.0762-72.3633 49.0234-72.3633C44.9707-72.3633 40.9668-70.2637 38.6719-66.3086L9.375-15.1855C8.30078-13.3301 7.8125-11.3281 7.8125-9.32617C7.8125-2.83203 12.5977 2.63672 19.7754 2.63672ZM21.6797-7.37305C19.9219-7.37305 18.7988-8.83789 18.7988-10.4004C18.7988-10.8398 18.8477-11.4258 19.0918-11.9141L46.4844-60.0098C47.0215-60.9375 48.0469-61.3281 49.0234-61.3281C49.9512-61.3281 50.9277-60.9375 51.4648-60.0098L78.8574-11.8164C79.1504-11.3281 79.248-10.791 79.248-10.4004C79.248-8.83789 78.0762-7.37305 76.3184-7.37305ZM49.0234-25.2441C51.6602-25.2441 53.2227-26.709 53.3203-29.4922L54.0039-44.7754C54.1504-47.6562 52.002-49.6582 48.9746-49.6582C45.9473-49.6582 43.8477-47.6562 43.9941-44.7754L44.6289-29.4434C44.7266-26.7578 46.3379-25.2441 49.0234-25.2441ZM49.0234-11.9629C52.0508-11.9629 54.3457-13.8184 54.3457-16.748C54.3457-19.5801 52.0508-21.5332 49.0234-21.5332C45.9961-21.5332 43.6523-19.5801 43.6523-16.748C43.6523-13.8672 46.0449-11.9629 49.0234-11.9629Z"/>
  </g>
  <g id="Semibold-S" transform="matrix(1 0 0 1 1994.61 696)">
   <path d="M19.3848 2.09961L77.9297 2.09961C84.9609 2.09961 89.502-3.125 89.502-9.52148C89.502-11.4258 88.9648-13.4277 87.9395-15.2344L58.6426-66.2598C56.3965-70.1172 52.5879-72.1191 48.6816-72.1191C44.7266-72.1191 40.8691-70.1172 38.6719-66.2598L9.375-15.1855C8.30078-13.3789 7.8125-11.4258 7.8125-9.52148C7.8125-3.125 12.3535 2.09961 19.3848 2.09961ZM20.6055-6.78711C18.6523-6.78711 17.334-8.39844 17.334-10.2051C17.334-10.6934 17.4316-11.3281 17.7246-11.9141L45.8008-61.0352C46.4355-62.1094 47.5586-62.5977 48.6816-62.5977C49.7559-62.5977 50.8301-62.1094 51.4648-61.0352L79.541-11.8164C79.834-11.2793 79.9805-10.6934 79.9805-10.2051C79.9805-8.39844 78.6133-6.78711 76.6602-6.78711ZM48.6816-25.1465C51.123-25.1465 52.5391-26.4648 52.6367-29.0527L53.2715-46.0449C53.3691-48.6816 51.3672-50.5371 48.6328-50.5371C45.8496-50.5371 43.9453-48.6816 44.043-46.0938L44.6289-29.0039C44.7266-26.5137 46.1426-25.1465 48.6816-25.1465ZM48.6816-12.0117C51.4648-12.0117 53.7109-13.8672 53.7109-16.6016C53.7109-19.3359 51.4648-21.2402 48.6816-21.2402C45.8496-21.2402 43.6523-19.2871 43.6523-16.6016C43.6523-13.916 45.8984-12.0117 48.6816-12.0117Z"/>
  </g>
  <g id="Medium-S" transform="matrix(1 0 0 1 1698.17 696)">
   <path d="M19.1406 1.66016L77.6855 1.66016C84.6191 1.66016 88.9648-3.36914 88.9648-9.66797C88.9648-11.5234 88.4766-13.4766 87.4512-15.2344L58.1543-66.2109C55.957-69.9707 52.2461-71.9727 48.3887-71.9727C44.5801-71.9727 40.8203-69.9707 38.6719-66.2109L9.32617-15.1855C8.30078-13.4277 7.8125-11.5234 7.8125-9.66797C7.8125-3.36914 12.207 1.66016 19.1406 1.66016ZM19.8242-6.34766C17.6758-6.34766 16.2598-8.10547 16.2598-10.0586C16.2598-10.5957 16.3574-11.2793 16.6992-11.8652L45.3125-61.8164C45.9473-62.9883 47.2168-63.5254 48.3887-63.5254C49.6094-63.5254 50.7812-62.9883 51.4648-61.8164L80.0781-11.8164C80.4199-11.2305 80.5176-10.5957 80.5176-10.0586C80.5176-8.10547 79.0527-6.34766 76.9043-6.34766ZM48.3887-25.0488C50.6836-25.0488 52.002-26.2695 52.0508-28.7109L52.6855-47.0215C52.7832-49.4629 50.9277-51.2207 48.3887-51.2207C45.8008-51.2207 43.9941-49.4629 44.043-47.0703L44.6777-28.6621C44.7266-26.3184 46.0449-25.0488 48.3887-25.0488ZM48.3887-12.0605C51.0254-12.0605 53.1738-13.916 53.1738-16.5039C53.1738-19.0918 51.0742-20.9961 48.3887-20.9961C45.752-20.9961 43.6035-19.0918 43.6035-16.5039C43.6035-13.9648 45.8008-12.0605 48.3887-12.0605Z"/>
  </g>
  <g id="Regular-S" transform="matrix(1 0 0 1 1401.77 696)">
   <path d="M18.75 1.12305L77.3438 1.12305C84.1309 1.12305 88.3301-3.66211 88.3301-9.86328C88.3301-11.6211 87.793-13.5254 86.8164-15.2344L57.4707-66.1621C55.4199-69.8242 51.7578-71.7285 48.0469-71.7285C44.3359-71.7285 40.7227-69.8242 38.6719-66.1621L9.32617-15.2344C8.30078-13.4766 7.8125-11.6211 7.8125-9.86328C7.8125-3.66211 11.9629 1.12305 18.75 1.12305ZM18.7988-5.76172C16.4551-5.76172 14.8438-7.71484 14.8438-9.86328C14.8438-10.4492 14.9414-11.2305 15.332-11.8652L44.6289-62.8418C45.3613-64.1602 46.7285-64.7949 48.0469-64.7949C49.3652-64.7949 50.6836-64.1602 51.4648-62.8418L80.7617-11.8164C81.1035-11.1816 81.25-10.4492 81.25-9.86328C81.25-7.71484 79.6387-5.76172 77.2461-5.76172ZM48.0469-24.9023C50.1465-24.9023 51.3184-26.0254 51.3672-28.2715L51.9531-48.291C52.002-50.4395 50.293-52.0996 47.998-52.0996C45.7031-52.0996 44.043-50.4883 44.0918-48.3398L44.6777-28.2715C44.7266-26.0742 45.8984-24.9023 48.0469-24.9023ZM48.0469-12.1094C50.4395-12.1094 52.5391-13.9648 52.5391-16.4062C52.5391-18.8477 50.4883-20.7031 48.0469-20.7031C45.6543-20.7031 43.6035-18.7988 43.6035-16.4062C43.6035-14.0137 45.6543-12.1094 48.0469-12.1094Z"/>
  </g>
  <g id="Light-S" transform="matrix(1 0 0 1 1105.53 696)">
   <path d="M18.0664 0.732422L77.1484 0.732422C83.3984 0.732422 87.4023-3.85742 87.4023-9.52148C87.4023-11.1816 86.9629-12.9395 86.0352-14.5508L56.3965-66.2598C54.4922-69.6777 51.0742-71.4355 47.6074-71.4355C44.1406-71.4355 40.7227-69.6777 38.8184-66.2598L9.17969-14.502C8.25195-12.9395 7.8125-11.1816 7.8125-9.52148C7.8125-3.85742 11.8164 0.732422 18.0664 0.732422ZM18.1152-4.58984C15.2344-4.58984 13.2812-6.93359 13.2812-9.52148C13.2812-10.2539 13.4277-11.1328 13.8672-11.9629L43.4082-63.7207C44.3359-65.332 45.9961-66.0645 47.6074-66.0645C49.2188-66.0645 50.8301-65.332 51.7578-63.7207L81.2988-11.9629C81.7383-11.1328 81.9336-10.2539 81.9336-9.52148C81.9336-6.93359 79.9316-4.58984 77.0996-4.58984ZM47.6074-24.9023C49.2188-24.9023 50.1953-25.8301 50.2441-27.6367L50.7324-47.9492C50.7324-49.707 49.4141-51.0254 47.5586-51.0254C45.7031-51.0254 44.4336-49.7559 44.4336-47.998L44.9219-27.6367C44.9219-25.8789 45.8984-24.9023 47.6074-24.9023ZM47.6074-12.7441C49.6582-12.7441 51.416-14.4043 51.416-16.4551C51.416-18.5547 49.707-20.166 47.6074-20.166C45.5078-20.166 43.75-18.5059 43.75-16.4551C43.75-14.4531 45.5566-12.7441 47.6074-12.7441Z"/>
  </g>
  <g id="Thin-S" transform="matrix(1 0 0 1 809.425 696)">
   <path d="M17.0898 0.244141L76.9043 0.244141C82.4707 0.244141 86.1816-4.10156 86.1816-9.08203C86.1816-10.6445 85.8398-12.207 84.9609-13.6719L54.9805-66.4062C53.2715-69.4824 50.1465-71.0938 47.0215-71.0938C43.8965-71.0938 40.7227-69.4824 38.9648-66.4062L8.98438-13.623C8.20312-12.207 7.8125-10.6445 7.8125-9.08203C7.8125-4.10156 11.5723 0.244141 17.0898 0.244141ZM17.1387-3.02734C13.623-3.02734 11.2305-5.9082 11.2305-9.08203C11.2305-10.0098 11.377-11.0352 11.9141-12.1094L41.8457-64.8438C42.9688-66.7969 44.9707-67.7734 47.0215-67.7734C49.0723-67.7734 50.9766-66.8457 52.0996-64.8438L81.9824-12.1094C82.5195-11.1328 82.8125-10.0098 82.8125-9.08203C82.8125-5.9082 80.3711-3.02734 76.8555-3.02734ZM46.9727-24.8535C48.0469-24.8535 48.7305-25.5859 48.7305-26.8555L49.0723-47.5586C49.0723-48.7793 48.2422-49.6094 46.9727-49.6094C45.7031-49.6094 44.873-48.7793 44.9219-47.5586L45.2148-26.8555C45.2637-25.6348 45.8984-24.8535 46.9727-24.8535ZM46.9727-13.5742C48.6328-13.5742 49.9512-14.9414 49.9512-16.5039C49.9512-18.1152 48.6328-19.4336 46.9727-19.4336C45.3613-19.4336 43.9941-18.1152 43.9941-16.5039C43.9941-14.9414 45.3613-13.5742 46.9727-13.5742Z"/>
  </g>
  <g id="Ultralight-S" transform="matrix(1 0 0 1 513.031 696)">
   <path d="M16.6016 0L76.8066 0C81.9336 0 85.5469-4.19922 85.5469-8.83789C85.5469-10.3027 85.2539-11.8164 84.4238-13.2324L54.248-66.5039C52.6367-69.3848 49.6582-70.8984 46.6797-70.8984C43.7988-70.8984 40.7227-69.3848 39.1113-66.5039L8.88672-13.1348C8.1543-11.8164 7.8125-10.3027 7.8125-8.83789C7.8125-4.19922 11.4746 0 16.6016 0ZM16.6504-2.24609C12.793-2.24609 10.1562-5.37109 10.1562-8.83789C10.1562-9.86328 10.3516-10.9375 10.9375-12.207L41.0645-65.4297C42.2363-67.5781 44.4336-68.6523 46.6797-68.6523C48.9258-68.6523 51.0742-67.627 52.2949-65.4297L82.3242-12.207C82.959-11.084 83.252-9.91211 83.252-8.83789C83.252-5.37109 80.5664-2.24609 76.7578-2.24609ZM46.6797-24.8535C47.4121-24.8535 47.9492-25.4883 47.9492-26.416L48.2422-47.3145C48.2422-48.2422 47.6074-48.877 46.6797-48.877C45.752-48.877 45.1172-48.2422 45.1172-47.3145L45.4102-26.416C45.4102-25.4883 45.9473-24.8535 46.6797-24.8535ZM46.6797-14.0137C48.0957-14.0137 49.2188-15.2344 49.2188-16.5527C49.2188-17.9199 48.0957-19.0918 46.6797-19.0918C45.2637-19.0918 44.1406-17.9199 44.1406-16.5527C44.1406-15.2344 45.2637-14.0137 46.6797-14.0137Z"/>
  </g>
 </g>
</svg>
