<?xml version="1.0" encoding="UTF-8"?>
<!--Generator: Apple Native CoreSVG 149-->
<!DOCTYPE svg
PUBLIC "-//W3C//DTD SVG 1.1//EN"
       "http://www.w3.org/Graphics/SVG/1.1/DTD/svg11.dtd">
<svg version="1.1" xmlns="http://www.w3.org/2000/svg" xmlns:xlink="http://www.w3.org/1999/xlink" width="3300" height="2200">
 <!--glyph: "uni1009EB.medium", point size: 100.000000, font version: "Version 16.0d12e3", template writer version: "8"-->
 <g id="Notes">
  <rect height="2200" id="artboard" style="fill:white;opacity:1" width="3300" x="0" y="0"/>
  <line id="" style="fill:none;stroke:black;opacity:1;stroke-width:0.5;" x1="263" x2="3036" y1="292" y2="292"/>
  <text style="stroke:none;fill:black;font-family:-apple-system,&quot;SF Pro Display&quot;,&quot;SF Pro Text&quot;,Helvetica,sans-serif;font-weight:bold;" transform="matrix(1 0 0 1 263 322)">Weight/Scale Variations</text>
  <text style="stroke:none;fill:black;font-family:-apple-system,&quot;SF Pro Display&quot;,&quot;SF Pro Text&quot;,Helvetica,sans-serif;text-anchor:middle;" transform="matrix(1 0 0 1 559.711 322)">Ultralight</text>
  <text style="stroke:none;fill:black;font-family:-apple-system,&quot;SF Pro Display&quot;,&quot;SF Pro Text&quot;,Helvetica,sans-serif;text-anchor:middle;" transform="matrix(1 0 0 1 856.422 322)">Thin</text>
  <text style="stroke:none;fill:black;font-family:-apple-system,&quot;SF Pro Display&quot;,&quot;SF Pro Text&quot;,Helvetica,sans-serif;text-anchor:middle;" transform="matrix(1 0 0 1 1153.13 322)">Light</text>
  <text style="stroke:none;fill:black;font-family:-apple-system,&quot;SF Pro Display&quot;,&quot;SF Pro Text&quot;,Helvetica,sans-serif;text-anchor:middle;" transform="matrix(1 0 0 1 1449.84 322)">Regular</text>
  <text style="stroke:none;fill:black;font-family:-apple-system,&quot;SF Pro Display&quot;,&quot;SF Pro Text&quot;,Helvetica,sans-serif;text-anchor:middle;" transform="matrix(1 0 0 1 1746.56 322)">Medium</text>
  <text style="stroke:none;fill:black;font-family:-apple-system,&quot;SF Pro Display&quot;,&quot;SF Pro Text&quot;,Helvetica,sans-serif;text-anchor:middle;" transform="matrix(1 0 0 1 2043.27 322)">Semibold</text>
  <text style="stroke:none;fill:black;font-family:-apple-system,&quot;SF Pro Display&quot;,&quot;SF Pro Text&quot;,Helvetica,sans-serif;text-anchor:middle;" transform="matrix(1 0 0 1 2339.98 322)">Bold</text>
  <text style="stroke:none;fill:black;font-family:-apple-system,&quot;SF Pro Display&quot;,&quot;SF Pro Text&quot;,Helvetica,sans-serif;text-anchor:middle;" transform="matrix(1 0 0 1 2636.69 322)">Heavy</text>
  <text style="stroke:none;fill:black;font-family:-apple-system,&quot;SF Pro Display&quot;,&quot;SF Pro Text&quot;,Helvetica,sans-serif;text-anchor:middle;" transform="matrix(1 0 0 1 2933.4 322)">Black</text>
  <line id="" style="fill:none;stroke:black;opacity:1;stroke-width:0.5;" x1="263" x2="3036" y1="1903" y2="1903"/>
  <g id="" transform="matrix(1 0 0 1 263 1933)">
   <path d="M9.24805 0.830078C13.5547 0.830078 17.1387-2.74414 17.1387-7.05078C17.1387-11.3574 13.5449-14.9316 9.23828-14.9316C4.94141-14.9316 1.36719-11.3574 1.36719-7.05078C1.36719-2.74414 4.95117 0.830078 9.24805 0.830078ZM9.24805-0.654297C5.70312-0.654297 2.87109-3.49609 2.87109-7.05078C2.87109-10.6055 5.69336-13.4473 9.23828-13.4473C12.793-13.4473 15.6348-10.6055 15.6445-7.05078C15.6543-3.49609 12.8027-0.654297 9.24805-0.654297ZM9.22852-3.62305C9.69727-3.62305 9.9707-3.93555 9.9707-4.45312L9.9707-6.31836L12.002-6.31836C12.5-6.31836 12.832-6.57227 12.832-7.04102C12.832-7.51953 12.5195-7.7832 12.002-7.7832L9.9707-7.7832L9.9707-9.81445C9.9707-10.332 9.69727-10.6543 9.22852-10.6543C8.75977-10.6543 8.50586-10.3125 8.50586-9.81445L8.50586-7.7832L6.49414-7.7832C5.97656-7.7832 5.64453-7.51953 5.64453-7.04102C5.64453-6.57227 5.99609-6.31836 6.49414-6.31836L8.50586-6.31836L8.50586-4.45312C8.50586-3.95508 8.75977-3.62305 9.22852-3.62305Z"/>
  </g>
  <g id="" transform="matrix(1 0 0 1 281.506 1933)">
   <path d="M11.709 2.91016C17.1582 2.91016 21.6699-1.61133 21.6699-7.05078C21.6699-12.5 17.1484-17.0117 11.6992-17.0117C6.25977-17.0117 1.74805-12.5 1.74805-7.05078C1.74805-1.61133 6.26953 2.91016 11.709 2.91016ZM11.709 1.25C7.09961 1.25 3.41797-2.44141 3.41797-7.05078C3.41797-11.6602 7.08984-15.3516 11.6992-15.3516C16.3086-15.3516 20-11.6602 20.0098-7.05078C20.0195-2.44141 16.3184 1.25 11.709 1.25ZM11.6797-2.66602C12.207-2.66602 12.5098-3.01758 12.5098-3.59375L12.5098-6.23047L15.3223-6.23047C15.8691-6.23047 16.25-6.51367 16.25-7.03125C16.25-7.55859 15.8887-7.86133 15.3223-7.86133L12.5098-7.86133L12.5098-10.6836C12.5098-11.25 12.207-11.6113 11.6797-11.6113C11.1621-11.6113 10.8789-11.2305 10.8789-10.6836L10.8789-7.86133L8.07617-7.86133C7.50977-7.86133 7.13867-7.55859 7.13867-7.03125C7.13867-6.51367 7.5293-6.23047 8.07617-6.23047L10.8789-6.23047L10.8789-3.59375C10.8789-3.03711 11.1621-2.66602 11.6797-2.66602Z"/>
  </g>
  <g id="" transform="matrix(1 0 0 1 304.924 1933)">
   <path d="M14.9707 5.66406C21.9336 5.66406 27.6953-0.0976562 27.6953-7.05078C27.6953-14.0137 21.9238-19.7754 14.9609-19.7754C8.00781-19.7754 2.25586-14.0137 2.25586-7.05078C2.25586-0.0976562 8.01758 5.66406 14.9707 5.66406ZM14.9707 3.84766C8.93555 3.84766 4.08203-1.01562 4.08203-7.05078C4.08203-13.0957 8.92578-17.9492 14.9609-17.9492C21.0059-17.9492 25.8594-13.0957 25.8691-7.05078C25.8789-1.01562 21.0156 3.84766 14.9707 3.84766ZM14.9414-1.38672C15.5176-1.38672 15.8594-1.77734 15.8594-2.38281L15.8594-6.13281L19.7754-6.13281C20.3711-6.13281 20.7812-6.46484 20.7812-7.02148C20.7812-7.59766 20.3906-7.93945 19.7754-7.93945L15.8594-7.93945L15.8594-11.8652C15.8594-12.4805 15.5176-12.8711 14.9414-12.8711C14.375-12.8711 14.0527-12.4609 14.0527-11.8652L14.0527-7.93945L10.1465-7.93945C9.53125-7.93945 9.13086-7.59766 9.13086-7.02148C9.13086-6.46484 9.55078-6.13281 10.1465-6.13281L14.0527-6.13281L14.0527-2.38281C14.0527-1.79688 14.375-1.38672 14.9414-1.38672Z"/>
  </g>
  <text style="stroke:none;fill:black;font-family:-apple-system,&quot;SF Pro Display&quot;,&quot;SF Pro Text&quot;,Helvetica,sans-serif;font-weight:bold;" transform="matrix(1 0 0 1 263 1953)">Design Variations</text>
  <text style="stroke:none;fill:black;font-family:-apple-system,&quot;SF Pro Display&quot;,&quot;SF Pro Text&quot;,Helvetica,sans-serif;" transform="matrix(1 0 0 1 263 1971)">Symbols are supported in up to nine weights and three scales.</text>
  <text style="stroke:none;fill:black;font-family:-apple-system,&quot;SF Pro Display&quot;,&quot;SF Pro Text&quot;,Helvetica,sans-serif;" transform="matrix(1 0 0 1 263 1989)">For optimal layout with text and other symbols, vertically align</text>
  <text style="stroke:none;fill:black;font-family:-apple-system,&quot;SF Pro Display&quot;,&quot;SF Pro Text&quot;,Helvetica,sans-serif;" transform="matrix(1 0 0 1 263 2007)">symbols with the adjacent text.</text>
  <line id="" style="fill:none;stroke:#00AEEF;stroke-width:0.5;opacity:1.0;" x1="776" x2="776" y1="1919" y2="1933"/>
  <g id="" transform="matrix(1 0 0 1 776 1933)">
   <path d="M3.31055 0.126953C3.82812 0.126953 4.08203-0.0683594 4.26758-0.605469L5.52734-4.0625L11.2891-4.0625L12.5488-0.605469C12.7344-0.0683594 12.9883 0.126953 13.4961 0.126953C14.0137 0.126953 14.3457-0.185547 14.3457-0.673828C14.3457-0.839844 14.3164-0.986328 14.2383-1.20117L9.6582-13.3887C9.43359-13.9941 9.0332-14.2871 8.4082-14.2871C7.80273-14.2871 7.39258-13.9941 7.17773-13.3984L2.59766-1.19141C2.51953-0.976562 2.49023-0.830078 2.49023-0.664062C2.49023-0.175781 2.80273 0.126953 3.31055 0.126953ZM6.00586-5.53711L8.37891-12.1094L8.42773-12.1094L10.8008-5.53711Z"/>
  </g>
  <line id="" style="fill:none;stroke:#00AEEF;stroke-width:0.5;opacity:1.0;" x1="792.836" x2="792.836" y1="1919" y2="1933"/>
  <text style="stroke:none;fill:black;font-family:-apple-system,&quot;SF Pro Display&quot;,&quot;SF Pro Text&quot;,Helvetica,sans-serif;font-weight:bold;" transform="matrix(1 0 0 1 776 1953)">Margins</text>
  <text style="stroke:none;fill:black;font-family:-apple-system,&quot;SF Pro Display&quot;,&quot;SF Pro Text&quot;,Helvetica,sans-serif;" transform="matrix(1 0 0 1 776 1971)">Leading and trailing margins on the left and right side of each symbol</text>
  <text style="stroke:none;fill:black;font-family:-apple-system,&quot;SF Pro Display&quot;,&quot;SF Pro Text&quot;,Helvetica,sans-serif;" transform="matrix(1 0 0 1 776 1989)">can be adjusted by modifying the x-location of the margin guidelines.</text>
  <text style="stroke:none;fill:black;font-family:-apple-system,&quot;SF Pro Display&quot;,&quot;SF Pro Text&quot;,Helvetica,sans-serif;" transform="matrix(1 0 0 1 776 2007)">Modifications are automatically applied proportionally to all</text>
  <text style="stroke:none;fill:black;font-family:-apple-system,&quot;SF Pro Display&quot;,&quot;SF Pro Text&quot;,Helvetica,sans-serif;" transform="matrix(1 0 0 1 776 2025)">scales and weights.</text>
  <g id="" transform="matrix(1 0 0 1 1289 1933)">
   <path d="M2.8418 1.86523L4.54102 3.57422C5.40039 4.44336 6.38672 4.38477 7.31445 3.35938L17.4902-7.85156C17.7539-7.76367 18.0273-7.7832 18.3398-7.8418L19.4043-8.03711L20.0684-7.36328L20.0293-6.80664C19.9902-6.30859 20.1172-5.92773 20.6055-5.44922L21.3672-4.70703C21.8457-4.22852 22.4609-4.19922 22.9297-4.66797L25.8398-7.58789C26.3086-8.05664 26.2891-8.65234 25.8105-9.13086L25.0391-9.89258C24.5605-10.3711 24.1895-10.5273 23.7109-10.4883L23.1348-10.4395L22.4902-11.0742L22.7344-12.1973C22.8613-12.7637 22.7051-13.2031 22.1191-13.7891L19.9219-15.9766C16.582-19.2969 12.1484-19.2188 9.25781-16.3281C8.83789-15.918 8.80859-15.3418 9.04297-14.9512C9.27734-14.5898 9.73633-14.3555 10.3809-14.5215C11.8457-14.8633 13.3691-14.9219 14.7949-13.9844L14.209-12.5293C14.0137-12.0508 13.9844-11.6504 14.1113-11.2891L3.04688-0.898438C2.06055 0.0195312 1.98242 0.996094 2.8418 1.86523ZM10.752-15.957C13.1836-17.7344 16.4746-17.4316 18.7012-15.2051L21.1328-12.793C21.3672-12.5586 21.4062-12.373 21.3379-12.0312L21.0156-10.5469L22.5195-9.0625L23.5059-9.12109C23.7598-9.13086 23.8379-9.11133 24.0332-8.91602L24.6094-8.33984L22.168-5.89844L21.5918-6.47461C21.3965-6.66992 21.3672-6.74805 21.377-7.01172L21.4453-7.98828L19.9512-9.47266L18.4277-9.21875C18.1055-9.15039 17.959-9.17969 17.7148-9.41406L15.7129-11.416C15.459-11.6504 15.4297-11.8164 15.5859-12.1875L16.4648-14.2773C14.9023-15.7324 12.8711-16.3574 10.8398-15.7617C10.6836-15.7227 10.625-15.8496 10.752-15.957ZM5.27344 2.30469L4.10156 1.14258C3.63281 0.683594 3.74023 0.341797 4.14062-0.0195312L14.9512-10.1953L16.416-8.71094L6.42578 2.27539C6.07422 2.67578 5.74219 2.77344 5.27344 2.30469Z"/>
  </g>
  <text style="stroke:none;fill:black;font-family:-apple-system,&quot;SF Pro Display&quot;,&quot;SF Pro Text&quot;,Helvetica,sans-serif;font-weight:bold;" transform="matrix(1 0 0 1 1289 1953)">Exporting</text>
  <text style="stroke:none;fill:black;font-family:-apple-system,&quot;SF Pro Display&quot;,&quot;SF Pro Text&quot;,Helvetica,sans-serif;" transform="matrix(1 0 0 1 1289 1971)">Symbols should be outlined when exporting to ensure the</text>
  <text style="stroke:none;fill:black;font-family:-apple-system,&quot;SF Pro Display&quot;,&quot;SF Pro Text&quot;,Helvetica,sans-serif;" transform="matrix(1 0 0 1 1289 1989)">design is preserved when submitting to Xcode.</text>
  <text id="template-version" style="stroke:none;fill:black;font-family:-apple-system,&quot;SF Pro Display&quot;,&quot;SF Pro Text&quot;,Helvetica,sans-serif;text-anchor:end;" transform="matrix(1 0 0 1 3036 1933)">Template v.2.0</text>
  <text style="stroke:none;fill:black;font-family:-apple-system,&quot;SF Pro Display&quot;,&quot;SF Pro Text&quot;,Helvetica,sans-serif;text-anchor:end;" transform="matrix(1 0 0 1 3036 1951)">Requires Xcode 12 or greater</text>
  <text style="stroke:none;fill:black;font-family:-apple-system,&quot;SF Pro Display&quot;,&quot;SF Pro Text&quot;,Helvetica,sans-serif;text-anchor:end;" transform="matrix(1 0 0 1 3036 1969)">Generated from die.face.5</text>
  <text style="stroke:none;fill:black;font-family:-apple-system,&quot;SF Pro Display&quot;,&quot;SF Pro Text&quot;,Helvetica,sans-serif;text-anchor:end;" transform="matrix(1 0 0 1 3036 1987)">Typeset at 100 points</text>
  <text style="stroke:none;fill:black;font-family:-apple-system,&quot;SF Pro Display&quot;,&quot;SF Pro Text&quot;,Helvetica,sans-serif;" transform="matrix(1 0 0 1 263 726)">Small</text>
  <text style="stroke:none;fill:black;font-family:-apple-system,&quot;SF Pro Display&quot;,&quot;SF Pro Text&quot;,Helvetica,sans-serif;" transform="matrix(1 0 0 1 263 1156)">Medium</text>
  <text style="stroke:none;fill:black;font-family:-apple-system,&quot;SF Pro Display&quot;,&quot;SF Pro Text&quot;,Helvetica,sans-serif;" transform="matrix(1 0 0 1 263 1586)">Large</text>
 </g>
 <g id="Guides">
  <g id="H-reference" style="fill:#27AAE1;stroke:none;" transform="matrix(1 0 0 1 339 696)">
   <path d="M0.976562 0L3.66211 0L12.9883-24.4629L45.752-24.4629L55.127 0L57.7637 0L30.6152-70.459L28.125-70.459ZM29.3457-67.1387L29.4434-67.1387L44.873-26.709L13.8672-26.709Z"/>
  </g>
  <line id="Baseline-S" style="fill:none;stroke:#27AAE1;opacity:1;stroke-width:0.5;" x1="263" x2="3036" y1="696" y2="696"/>
  <line id="Capline-S" style="fill:none;stroke:#27AAE1;opacity:1;stroke-width:0.5;" x1="263" x2="3036" y1="625.541" y2="625.541"/>
  <g id="H-reference" style="fill:#27AAE1;stroke:none;" transform="matrix(1 0 0 1 339 1126)">
   <path d="M0.976562 0L3.66211 0L12.9883-24.4629L45.752-24.4629L55.127 0L57.7637 0L30.6152-70.459L28.125-70.459ZM29.3457-67.1387L29.4434-67.1387L44.873-26.709L13.8672-26.709Z"/>
  </g>
  <line id="Baseline-M" style="fill:none;stroke:#27AAE1;opacity:1;stroke-width:0.5;" x1="263" x2="3036" y1="1126" y2="1126"/>
  <line id="Capline-M" style="fill:none;stroke:#27AAE1;opacity:1;stroke-width:0.5;" x1="263" x2="3036" y1="1055.54" y2="1055.54"/>
  <g id="H-reference" style="fill:#27AAE1;stroke:none;" transform="matrix(1 0 0 1 339 1556)">
   <path d="M0.976562 0L3.66211 0L12.9883-24.4629L45.752-24.4629L55.127 0L57.7637 0L30.6152-70.459L28.125-70.459ZM29.3457-67.1387L29.4434-67.1387L44.873-26.709L13.8672-26.709Z"/>
  </g>
  <line id="Baseline-L" style="fill:none;stroke:#27AAE1;opacity:1;stroke-width:0.5;" x1="263" x2="3036" y1="1556" y2="1556"/>
  <line id="Capline-L" style="fill:none;stroke:#27AAE1;opacity:1;stroke-width:0.5;" x1="263" x2="3036" y1="1485.54" y2="1485.54"/>
  <line id="left-margin" style="fill:none;stroke:#00AEEF;stroke-width:0.5;opacity:1.0;" x1="1392.45" x2="1392.45" y1="1030.79" y2="1150.12"/>
  <line id="right-margin" style="fill:none;stroke:#00AEEF;stroke-width:0.5;opacity:1.0;" x1="1507.24" x2="1507.24" y1="1030.79" y2="1150.12"/>
 </g>
 <g id="Symbols">
  <g id="Black-L" transform="matrix(1 0 0 1 2855.62 1556)">
   <path d="M39.9902 26.5137L115.576 26.5137C130.811 26.5137 139.502 17.8711 139.502 2.68555L139.502-73.0957C139.502-88.2812 130.811-96.875 115.576-96.875L39.9902-96.875C24.7559-96.875 16.0645-88.2812 16.0645-73.0957L16.0645 2.68555C16.0645 17.8711 24.7559 26.5137 39.9902 26.5137ZM42.6758 6.29883C38.4766 6.29883 36.3281 4.39453 36.3281-0.146484L36.3281-70.2148C36.3281-74.7559 38.4766-76.6602 42.6758-76.6602L112.842-76.6602C117.09-76.6602 119.238-74.7559 119.238-70.2148L119.238-0.146484C119.238 4.39453 117.09 6.29883 112.842 6.29883ZM53.4668-49.5117C58.8867-49.4141 63.4766-54.0039 63.4766-59.5703C63.4766-65.0879 58.9355-69.6289 53.4668-69.6289C47.8516-69.6289 43.3594-65.1367 43.3594-59.5703C43.3594-54.0527 47.8516-49.6094 53.4668-49.5117ZM102.197-49.5117C107.666-49.4141 112.256-54.0039 112.256-59.5703C112.256-65.1367 107.715-69.6289 102.197-69.6289C96.6309-69.6289 92.1387-65.1367 92.1387-59.5703C92.1387-54.0527 96.6309-49.6094 102.197-49.5117ZM77.832-25.0977C83.3496-25.0977 87.8418-29.6875 87.8418-35.2539C87.8418-40.6738 83.252-45.166 77.832-45.166C72.3145-45.166 67.8223-40.7227 67.8223-35.2539C67.8223-29.6387 72.2168-25.0977 77.832-25.0977ZM53.418-0.683594C58.8867-0.683594 63.4277-5.22461 63.4277-10.791C63.4277-16.2598 58.8379-20.8008 53.418-20.8008C47.8516-20.8008 43.3594-16.3086 43.3594-10.791C43.3594-5.17578 47.8516-0.683594 53.418-0.683594ZM102.197-0.683594C107.715-0.683594 112.256-5.22461 112.256-10.791C112.256-16.3086 107.666-20.8008 102.197-20.8008C96.6797-20.8008 92.1875-16.3086 92.1875-10.791C92.1875-5.22461 96.6797-0.683594 102.197-0.683594Z"/>
  </g>
  <g id="Heavy-L" transform="matrix(1 0 0 1 2559.93 1556)">
   <path d="M38.8184 25.4883L114.697 25.4883C129.346 25.4883 137.451 17.4316 137.451 2.88086L137.451-73.2422C137.451-87.793 129.346-95.8496 114.697-95.8496L38.8184-95.8496C24.2188-95.8496 16.0645-87.793 16.0645-73.2422L16.0645 2.88086C16.0645 17.4316 24.2188 25.4883 38.8184 25.4883ZM40.918 8.00781C36.084 8.00781 33.5938 5.71289 33.5938 0.585938L33.5938-70.9473C33.5938-76.0742 36.084-78.3691 40.918-78.3691L112.549-78.3691C117.383-78.3691 119.922-76.0742 119.922-70.9473L119.922 0.585938C119.922 5.71289 117.383 8.00781 112.549 8.00781ZM51.416-50.5859C56.8359-50.4883 61.377-55.0781 61.377-60.6445C61.377-66.1621 56.8848-70.7031 51.416-70.7031C45.8008-70.7031 41.3086-66.2109 41.3086-60.6445C41.3086-55.127 45.8008-50.6836 51.416-50.5859ZM102.246-50.5859C107.715-50.4883 112.256-55.0781 112.256-60.6445C112.256-66.2109 107.764-70.7031 102.246-70.7031C96.6797-70.7031 92.1387-66.2109 92.1387-60.6445C92.1387-55.127 96.6797-50.6836 102.246-50.5859ZM76.8066-25.0977C82.2754-25.0977 86.8164-29.6875 86.8164-35.2539C86.8164-40.6738 82.2266-45.166 76.8066-45.166C71.2891-45.166 66.7969-40.7227 66.7969-35.2539C66.7969-29.6387 71.2402-25.0977 76.8066-25.0977ZM51.3672 0.390625C56.8359 0.390625 61.3281-4.19922 61.3281-9.7168C61.3281-15.1855 56.7871-19.7266 51.3672-19.7266C45.8008-19.7266 41.3086-15.2344 41.3086-9.7168C41.3086-4.15039 45.8008 0.390625 51.3672 0.390625ZM102.246 0.390625C107.764 0.390625 112.256-4.19922 112.256-9.7168C112.256-15.2344 107.715-19.7266 102.246-19.7266C96.7285-19.7266 92.2363-15.2344 92.2363-9.7168C92.2363-4.19922 96.7285 0.390625 102.246 0.390625Z"/>
  </g>
  <g id="Bold-L" transform="matrix(1 0 0 1 2264.37 1556)">
   <path d="M37.5 24.3652L113.721 24.3652C127.637 24.3652 135.156 16.8945 135.156 3.07617L135.156-73.3887C135.156-87.207 127.637-94.7266 113.721-94.7266L37.5-94.7266C23.6328-94.7266 16.0645-87.2559 16.0645-73.3887L16.0645 3.07617C16.0645 16.8945 23.6328 24.3652 37.5 24.3652ZM38.9648 9.91211C33.4473 9.91211 30.5176 7.17773 30.5176 1.41602L30.5176-71.7285C30.5176-77.5391 33.4473-80.2734 38.9648-80.2734L112.256-80.2734C117.725-80.2734 120.703-77.5391 120.703-71.7285L120.703 1.41602C120.703 7.17773 117.725 9.91211 112.256 9.91211ZM49.0723-51.8066C54.4922-51.709 59.082-56.25 59.082-61.8652C59.082-67.3828 54.541-71.875 49.0723-71.875C43.5059-71.875 38.9648-67.4316 38.9648-61.8652C38.9648-56.2988 43.5059-51.8555 49.0723-51.8066ZM102.246-51.8066C107.715-51.709 112.305-56.25 112.305-61.8652C112.305-67.4316 107.764-71.875 102.246-71.875C96.7285-71.875 92.1875-67.4316 92.1875-61.8652C92.1875-56.2988 96.7285-51.8555 102.246-51.8066ZM75.6836-25.0977C81.1523-25.0977 85.6445-29.6875 85.6445-35.2539C85.6445-40.7227 81.1035-45.2148 75.6836-45.2148C70.1172-45.2148 65.625-40.7227 65.625-35.2539C65.625-29.6387 70.0684-25.0977 75.6836-25.0977ZM49.0234 1.5625C54.4922 1.5625 59.0332-3.02734 59.0332-8.54492C59.0332-14.0625 54.4922-18.5547 49.0234-18.5547C43.5059-18.5547 39.0137-14.0625 39.0137-8.54492C39.0137-2.97852 43.5059 1.5625 49.0234 1.5625ZM102.246 1.5625C107.764 1.5625 112.305-3.02734 112.305-8.54492C112.305-14.0625 107.715-18.5547 102.246-18.5547C96.7285-18.5547 92.2852-14.0625 92.2852-8.54492C92.2852-3.02734 96.7285 1.5625 102.246 1.5625Z"/>
  </g>
  <g id="Semibold-L" transform="matrix(1 0 0 1 1968.44 1556)">
   <path d="M36.6211 23.584L113.037 23.584C126.514 23.584 133.594 16.5039 133.594 3.17383L133.594-73.5352C133.594-86.8164 126.514-93.9453 113.037-93.9453L36.6211-93.9453C23.1934-93.9453 16.0645-86.8652 16.0645-73.5352L16.0645 3.17383C16.0645 16.5527 23.1934 23.584 36.6211 23.584ZM37.5977 11.2793C31.6406 11.2793 28.418 8.20312 28.418 1.95312L28.418-72.3145C28.418-78.5156 31.6406-81.5918 37.5977-81.5918L112.061-81.5918C117.969-81.5918 121.24-78.5156 121.24-72.3145L121.24 1.95312C121.24 8.20312 117.969 11.2793 112.061 11.2793ZM47.4609-52.5879C52.9297-52.5391 57.4707-57.0801 57.4707-62.6953C57.4707-68.2129 52.9297-72.7051 47.4609-72.7051C41.8945-72.7051 37.3535-68.2617 37.3535-62.6953C37.3535-57.1289 41.8945-52.6855 47.4609-52.5879ZM102.295-52.5879C107.764-52.5391 112.305-57.0801 112.305-62.6953C112.305-68.2617 107.764-72.7051 102.295-72.7051C96.7285-72.7051 92.1875-68.2617 92.1875-62.6953C92.1875-57.1289 96.7285-52.6855 102.295-52.5879ZM74.8535-25.0977C80.3223-25.0977 84.8633-29.6387 84.8633-35.2539C84.8633-40.7227 80.3223-45.2148 74.8535-45.2148C69.3359-45.2148 64.8438-40.7227 64.8438-35.2539C64.8438-29.6387 69.2871-25.0977 74.8535-25.0977ZM47.4609 2.34375C52.9297 2.34375 57.4219-2.19727 57.4219-7.76367C57.4219-13.2324 52.8809-17.7734 47.4609-17.7734C41.8945-17.7734 37.4023-13.2812 37.4023-7.76367C37.4023-2.19727 41.8945 2.34375 47.4609 2.34375ZM102.295 2.34375C107.764 2.34375 112.305-2.19727 112.305-7.76367C112.305-13.2812 107.764-17.7734 102.295-17.7734C96.7773-17.7734 92.2852-13.2812 92.2852-7.76367C92.2852-2.19727 96.7773 2.34375 102.295 2.34375Z"/>
  </g>
  <g id="Medium-L" transform="matrix(1 0 0 1 1672.31 1556)">
   <path d="M35.9375 22.998L112.5 22.998C125.635 22.998 132.422 16.2109 132.422 3.27148L132.422-73.6328C132.422-86.5234 125.635-93.3105 112.5-93.3105L35.9375-93.3105C22.9004-93.3105 16.0645-86.5723 16.0645-73.6328L16.0645 3.27148C16.0645 16.2598 22.9004 22.998 35.9375 22.998ZM36.5723 12.2559C30.2246 12.2559 26.8066 8.98438 26.8066 2.39258L26.8066-72.7051C26.8066-79.2969 30.2246-82.6172 36.5723-82.6172L111.865-82.6172C118.115-82.6172 121.68-79.2969 121.68-72.7051L121.68 2.39258C121.68 8.98438 118.115 12.2559 111.865 12.2559ZM46.2402-53.2227C51.709-53.1738 56.25-57.7148 56.25-63.3301C56.25-68.8477 51.709-73.3398 46.2402-73.3398C40.6738-73.3398 36.1816-68.8965 36.1816-63.3301C36.1816-57.7148 40.6738-53.3203 46.2402-53.2227ZM102.344-53.2227C107.764-53.1738 112.305-57.7148 112.305-63.3301C112.305-68.8965 107.812-73.3398 102.344-73.3398C96.7773-73.3398 92.2363-68.8965 92.2363-63.3301C92.2363-57.7148 96.7773-53.3203 102.344-53.2227ZM74.2676-25.0977C79.7363-25.0977 84.2773-29.6387 84.2773-35.2539C84.2773-40.7227 79.7363-45.2148 74.2676-45.2148C68.7012-45.2148 64.2578-40.7227 64.2578-35.2539C64.2578-29.6387 68.7012-25.0977 74.2676-25.0977ZM46.2402 2.97852C51.709 2.97852 56.2012-1.5625 56.2012-7.12891C56.2012-12.6465 51.6602-17.1387 46.2402-17.1387C40.6738-17.1387 36.1816-12.6465 36.1816-7.12891C36.1816-1.5625 40.6738 2.97852 46.2402 2.97852ZM102.344 2.97852C107.812 2.97852 112.305-1.5625 112.305-7.12891C112.305-12.6465 107.764-17.1387 102.344-17.1387C96.7773-17.1387 92.2852-12.6465 92.2852-7.12891C92.2852-1.5625 96.7773 2.97852 102.344 2.97852Z"/>
  </g>
  <g id="Regular-L" transform="matrix(1 0 0 1 1376.38 1556)">
   <path d="M35.0586 22.2168L111.816 22.2168C124.463 22.2168 130.859 15.8691 130.859 3.41797L130.859-73.7305C130.859-86.1816 124.463-92.5293 111.816-92.5293L35.0586-92.5293C22.4609-92.5293 16.0645-86.2305 16.0645-73.7305L16.0645 3.41797C16.0645 15.918 22.4609 22.2168 35.0586 22.2168ZM35.2539 13.5742C28.418 13.5742 24.707 9.96094 24.707 2.97852L24.707-73.291C24.707-80.2734 28.418-83.8867 35.2539-83.8867L111.67-83.8867C118.359-83.8867 122.217-80.2734 122.217-73.291L122.217 2.97852C122.217 9.96094 118.359 13.5742 111.67 13.5742ZM44.6289-54.0527C50.0977-53.9551 54.6875-58.5449 54.6875-64.1602C54.6875-69.6777 50.0977-74.1699 44.6289-74.1699C39.1113-74.1699 34.5703-69.6777 34.5703-64.1602C34.5703-58.5449 39.1113-54.1504 44.6289-54.0527ZM102.344-54.0527C107.812-53.9551 112.354-58.5449 112.354-64.1602C112.354-69.6777 107.812-74.1699 102.344-74.1699C96.8262-74.1699 92.2363-69.6777 92.2363-64.1602C92.2363-58.5449 96.8262-54.1504 102.344-54.0527ZM73.4863-25.0977C78.9551-25.0977 83.4961-29.6387 83.4961-35.2539C83.4961-40.7227 78.9551-45.2148 73.4863-45.2148C67.9199-45.2148 63.4766-40.7227 63.4766-35.2539C63.4766-29.6387 67.9199-25.0977 73.4863-25.0977ZM44.6289 3.75977C50.0977 3.75977 54.6387-0.78125 54.6387-6.29883C54.6387-11.8652 50.0977-16.3574 44.6289-16.3574C39.1113-16.3574 34.6191-11.8652 34.6191-6.29883C34.6191-0.78125 39.1113 3.75977 44.6289 3.75977ZM102.344 3.75977C107.812 3.75977 112.354-0.78125 112.354-6.29883C112.354-11.8652 107.812-16.3574 102.344-16.3574C96.8262-16.3574 92.334-11.8652 92.334-6.29883C92.334-0.78125 96.8262 3.75977 102.344 3.75977Z"/>
  </g>
  <g id="Light-L" transform="matrix(1 0 0 1 1080.5 1556)">
   <path d="M34.0332 21.4355L111.23 21.4355C123.096 21.4355 129.199 15.2344 129.199 3.56445L129.199-73.8281C129.199-85.5469 123.096-91.6992 111.23-91.6992L34.0332-91.6992C22.168-91.6992 16.0645-85.6445 16.0645-73.8281L16.0645 3.56445C16.0645 15.3809 22.168 21.4355 34.0332 21.4355ZM34.1797 14.7949C26.709 14.7949 22.7051 10.8398 22.7051 3.22266L22.7051-73.4863C22.7051-81.1523 26.709-85.0586 34.1797-85.0586L111.035-85.0586C118.359-85.0586 122.559-81.1523 122.559-73.4863L122.559 3.22266C122.559 10.8398 118.359 14.7949 111.035 14.7949ZM43.0664-55.0781C48.3887-55.0293 52.832-59.4727 52.832-64.9414C52.832-70.3125 48.3887-74.6582 43.0664-74.6582C37.6953-74.6582 33.3008-70.3125 33.3008-64.9414C33.3008-59.4727 37.6953-55.1758 43.0664-55.0781ZM102.246-55.0781C107.568-55.0293 111.963-59.4727 111.963-64.9414C111.963-70.3125 107.568-74.6582 102.246-74.6582C96.8262-74.6582 92.3828-70.3125 92.3828-64.9414C92.3828-59.4727 96.8262-55.1758 102.246-55.0781ZM72.6562-25.3418C77.9785-25.3418 82.4219-29.7852 82.4219-35.2539C82.4219-40.5762 77.9785-44.9707 72.6562-44.9707C67.2363-44.9707 62.8906-40.5762 62.8906-35.2539C62.8906-29.7852 67.2363-25.3418 72.6562-25.3418ZM43.0664 4.19922C48.3887 4.19922 52.7832-0.195312 52.7832-5.61523C52.7832-10.9863 48.3887-15.332 43.0664-15.332C37.6953-15.332 33.3008-10.9863 33.3008-5.61523C33.3008-0.195312 37.6953 4.19922 43.0664 4.19922ZM102.246 4.19922C107.568 4.19922 111.963-0.195312 111.963-5.61523C111.963-10.9863 107.568-15.332 102.246-15.332C96.8262-15.332 92.4805-10.9863 92.4805-5.61523C92.4805-0.195312 96.8262 4.19922 102.246 4.19922Z"/>
  </g>
  <g id="Thin-L" transform="matrix(1 0 0 1 784.889 1556)">
   <path d="M32.666 20.3613L110.352 20.3613C121.24 20.3613 127.002 14.4531 127.002 3.75977L127.002-73.9746C127.002-84.7168 121.24-90.5762 110.352-90.5762L32.666-90.5762C21.7773-90.5762 16.0645-84.8633 16.0645-73.9746L16.0645 3.75977C16.0645 14.6484 21.7773 20.3613 32.666 20.3613ZM32.8125 16.4062C24.4141 16.4062 19.9707 12.0117 19.9707 3.56445L19.9707-73.7793C19.9707-82.2754 24.4141-86.6699 32.8125-86.6699L110.205-86.6699C118.359-86.6699 123.047-82.2754 123.047-73.7793L123.047 3.56445C123.047 12.0117 118.359 16.4062 110.205 16.4062ZM41.0156-56.4453C46.1426-56.3965 50.4395-60.6934 50.4395-65.9668C50.4395-71.1426 46.1426-75.293 41.0156-75.293C35.791-75.293 31.5918-71.1426 31.5918-65.9668C31.5918-60.6934 35.791-56.543 41.0156-56.4453ZM102.1-56.4453C107.227-56.3965 111.426-60.6934 111.426-65.9668C111.426-71.1426 107.227-75.293 102.1-75.293C96.875-75.293 92.5781-71.1426 92.5781-65.9668C92.5781-60.6934 96.875-56.543 102.1-56.4453ZM71.5332-25.6836C76.6602-25.6836 80.957-29.9805 80.957-35.2539C80.957-40.3809 76.6602-44.6289 71.5332-44.6289C66.3574-44.6289 62.1094-40.3809 62.1094-35.2539C62.1094-29.9805 66.3574-25.6836 71.5332-25.6836ZM41.0156 4.78516C46.1426 4.78516 50.3418 0.537109 50.3418-4.63867C50.3418-9.86328 46.1426-14.0625 41.0156-14.0625C35.791-14.0625 31.5918-9.86328 31.5918-4.63867C31.5918 0.537109 35.791 4.78516 41.0156 4.78516ZM102.1 4.78516C107.227 4.78516 111.426 0.537109 111.426-4.63867C111.426-9.86328 107.227-14.0625 102.1-14.0625C96.875-14.0625 92.6758-9.86328 92.6758-4.63867C92.6758 0.537109 96.875 4.78516 102.1 4.78516Z"/>
  </g>
  <g id="Ultralight-L" transform="matrix(1 0 0 1 488.739 1556)">
   <path d="M31.9824 19.7754L109.961 19.7754C120.312 19.7754 125.879 14.0625 125.879 3.85742L125.879-74.0723C125.879-84.2773 120.312-89.9902 109.961-89.9902L31.9824-89.9902C21.582-89.9902 16.0645-84.4727 16.0645-74.0723L16.0645 3.85742C16.0645 14.2578 21.582 19.7754 31.9824 19.7754ZM32.1289 17.2363C23.1934 17.2363 18.6035 12.6465 18.6035 3.75977L18.6035-73.9258C18.6035-82.8125 23.1934-87.4512 32.1289-87.4512L109.766-87.4512C118.359-87.4512 123.291-82.8125 123.291-73.9258L123.291 3.75977C123.291 12.6465 118.359 17.2363 109.766 17.2363ZM39.9414-57.1777C44.9707-57.0801 49.1699-61.3281 49.1699-66.5039C49.1699-71.582 44.9707-75.6348 39.9414-75.6348C34.8633-75.6348 30.7129-71.582 30.7129-66.5039C30.7129-61.3281 34.8633-57.2266 39.9414-57.1777ZM102.002-57.1777C107.031-57.0801 111.182-61.3281 111.182-66.5039C111.182-71.582 107.031-75.6348 102.002-75.6348C96.9238-75.6348 92.6758-71.582 92.6758-66.5039C92.6758-61.3281 96.9238-57.2266 102.002-57.1777ZM70.9961-25.8789C75.9766-25.8789 80.2246-30.0781 80.2246-35.2539C80.2246-40.2832 75.9766-44.4336 70.9961-44.4336C65.8691-44.4336 61.7188-40.2832 61.7188-35.2539C61.7188-30.0781 65.8691-25.8789 70.9961-25.8789ZM39.9414 5.07812C44.9707 5.07812 49.0723 0.927734 49.0723-4.15039C49.0723-9.22852 44.9707-13.3789 39.9414-13.3789C34.8633-13.3789 30.7129-9.22852 30.7129-4.15039C30.7129 0.927734 34.8633 5.07812 39.9414 5.07812ZM102.002 5.07812C107.031 5.07812 111.182 0.927734 111.182-4.15039C111.182-9.22852 107.031-13.3789 102.002-13.3789C96.9238-13.3789 92.7734-9.22852 92.7734-4.15039C92.7734 0.927734 96.9238 5.07812 102.002 5.07812Z"/>
  </g>
  <g id="Black-M" transform="matrix(1 0 0 1 2872.19 1126)">
   <path d="M31.9824 13.5742L90.4297 13.5742C102.686 13.5742 109.961 6.29883 109.961-5.95703L109.961-64.4043C109.961-76.6602 102.686-83.9355 90.4297-83.9355L31.9824-83.9355C19.7266-83.9355 12.4512-76.6602 12.4512-64.4043L12.4512-5.95703C12.4512 6.29883 19.7266 13.5742 31.9824 13.5742ZM34.9121-4.73633C32.0801-4.73633 30.7617-5.81055 30.7617-8.88672L30.7617-61.4746C30.7617-64.5508 32.0801-65.6738 34.9121-65.6738L87.5-65.6738C90.332-65.6738 91.6504-64.5508 91.6504-61.4746L91.6504-8.88672C91.6504-5.81055 90.332-4.73633 87.5-4.73633ZM43.4082-45.4102C47.5098-45.3613 50.9766-48.8281 50.9766-53.0762C50.9766-57.2266 47.5586-60.6934 43.4082-60.6934C39.1113-60.6934 35.6934-57.2754 35.6934-53.0762C35.6934-48.877 39.1113-45.459 43.4082-45.4102ZM79.0527-45.4102C83.252-45.3613 86.7188-48.8281 86.7188-53.0762C86.7188-57.2754 83.3008-60.6934 79.0527-60.6934C74.8535-60.6934 71.4355-57.2754 71.4355-53.0762C71.4355-48.877 74.8535-45.459 79.0527-45.4102ZM61.2793-27.5391C65.4297-27.5391 68.8477-31.0059 68.8477-35.2539C68.8477-39.3555 65.3809-42.7734 61.2793-42.7734C57.0312-42.7734 53.6133-39.4531 53.6133-35.2539C53.6133-30.957 56.9824-27.5391 61.2793-27.5391ZM43.3594-9.61914C47.5098-9.61914 50.9277-13.0859 50.9277-17.334C50.9277-21.4355 47.4609-24.9023 43.3594-24.9023C39.1113-24.9023 35.6934-21.4844 35.6934-17.334C35.6934-13.0371 39.1113-9.61914 43.3594-9.61914ZM79.0527-9.61914C83.3008-9.61914 86.7188-13.0859 86.7188-17.334C86.7188-21.4844 83.252-24.9023 79.0527-24.9023C74.9023-24.9023 71.4844-21.4844 71.4844-17.334C71.4844-13.0859 74.9023-9.61914 79.0527-9.61914Z"/>
  </g>
  <g id="Heavy-M" transform="matrix(1 0 0 1 2576.39 1126)">
   <path d="M31.0059 12.6465L89.6484 12.6465C101.416 12.6465 108.154 5.9082 108.154-5.81055L108.154-64.5508C108.154-76.2695 101.416-83.0566 89.6484-83.0566L31.0059-83.0566C19.2383-83.0566 12.4512-76.3184 12.4512-64.5508L12.4512-5.81055C12.4512 5.9082 19.2383 12.6465 31.0059 12.6465ZM33.252-3.17383C29.9316-3.17383 28.2715-4.63867 28.2715-8.1543L28.2715-62.207C28.2715-65.7715 29.9316-67.2363 33.252-67.2363L87.3535-67.2363C90.6738-67.2363 92.334-65.7715 92.334-62.207L92.334-8.1543C92.334-4.63867 90.6738-3.17383 87.3535-3.17383ZM41.5527-46.2891C45.7031-46.2402 49.2188-49.7559 49.2188-54.0527C49.2188-58.252 45.752-61.7676 41.5527-61.7676C37.207-61.7676 33.7402-58.3008 33.7402-54.0527C33.7402-49.8047 37.207-46.3867 41.5527-46.2891ZM79.1504-46.2891C83.3496-46.2402 86.8652-49.7559 86.8652-54.0527C86.8652-58.3008 83.3984-61.7676 79.1504-61.7676C74.8535-61.7676 71.4355-58.3008 71.4355-54.0527C71.4355-49.8047 74.8535-46.3867 79.1504-46.2891ZM60.3516-27.4902C64.5508-27.4902 68.0176-30.957 68.0176-35.2539C68.0176-39.4043 64.502-42.8711 60.3516-42.8711C56.1035-42.8711 52.6367-39.4531 52.6367-35.2539C52.6367-30.9082 56.0547-27.4902 60.3516-27.4902ZM41.5039-8.59375C45.7031-8.59375 49.1699-12.1094 49.1699-16.3574C49.1699-20.5566 45.6543-24.0234 41.5039-24.0234C37.207-24.0234 33.7891-20.6055 33.7891-16.3574C33.7891-12.0605 37.207-8.59375 41.5039-8.59375ZM79.1504-8.59375C83.3984-8.59375 86.8652-12.1094 86.8652-16.3574C86.8652-20.6055 83.3496-24.0234 79.1504-24.0234C74.9023-24.0234 71.4844-20.6055 71.4844-16.3574C71.4844-12.1094 74.9023-8.59375 79.1504-8.59375Z"/>
  </g>
  <g id="Bold-M" transform="matrix(1 0 0 1 2280.68 1126)">
   <path d="M29.8828 11.6699L88.7207 11.6699C99.9512 11.6699 106.152 5.46875 106.152-5.66406L106.152-64.6973C106.152-75.8789 99.9512-82.0312 88.7207-82.0312L29.8828-82.0312C18.6523-82.0312 12.4512-75.8789 12.4512-64.6973L12.4512-5.66406C12.4512 5.51758 18.6523 11.6699 29.8828 11.6699ZM31.3965-1.41602C27.5391-1.41602 25.5371-3.27148 25.5371-7.32422L25.5371-63.0371C25.5371-67.1387 27.5391-68.9453 31.3965-68.9453L87.207-68.9453C91.0156-68.9453 93.0664-67.1387 93.0664-63.0371L93.0664-7.32422C93.0664-3.27148 91.0156-1.41602 87.207-1.41602ZM39.4531-47.3145C43.6523-47.2656 47.2168-50.7812 47.2168-55.127C47.2168-59.4238 43.7012-62.8906 39.4531-62.8906C35.1074-62.8906 31.5918-59.4238 31.5918-55.127C31.5918-50.8301 35.1074-47.3633 39.4531-47.3145ZM79.1992-47.3145C83.4473-47.2656 87.0117-50.7812 87.0117-55.127C87.0117-59.4238 83.4961-62.8906 79.1992-62.8906C74.9023-62.8906 71.3867-59.4238 71.3867-55.127C71.3867-50.8301 74.9023-47.3633 79.1992-47.3145ZM59.3262-27.3926C63.5742-27.3926 67.0898-30.9082 67.0898-35.2539C67.0898-39.4531 63.5742-42.9688 59.3262-42.9688C55.0293-42.9688 51.5625-39.502 51.5625-35.2539C51.5625-30.9082 54.9805-27.3926 59.3262-27.3926ZM39.4043-7.42188C43.6523-7.42188 47.168-10.9863 47.168-15.2832C47.168-19.5312 43.6035-23.0469 39.4043-23.0469C35.1074-23.0469 31.6406-19.5801 31.6406-15.2832C31.6406-10.9375 35.1074-7.42188 39.4043-7.42188ZM79.1992-7.42188C83.4961-7.42188 87.0117-10.9863 87.0117-15.2832C87.0117-19.5801 83.4473-23.0469 79.1992-23.0469C74.9512-23.0469 71.4844-19.5801 71.4844-15.2832C71.4844-10.9863 74.9512-7.42188 79.1992-7.42188Z"/>
  </g>
  <g id="Semibold-M" transform="matrix(1 0 0 1 1984.65 1126)">
   <path d="M29.1016 10.9863L88.0859 10.9863C98.9746 10.9863 104.785 5.17578 104.785-5.56641L104.785-64.8438C104.785-75.5859 98.9746-81.3477 88.0859-81.3477L29.1016-81.3477C18.2617-81.3477 12.4512-75.5859 12.4512-64.8438L12.4512-5.56641C12.4512 5.22461 18.2617 10.9863 29.1016 10.9863ZM30.127-0.195312C25.8789-0.195312 23.6328-2.34375 23.6328-6.78711L23.6328-63.623C23.6328-68.0664 25.8789-70.166 30.127-70.166L87.1094-70.166C91.2598-70.166 93.6035-68.0664 93.6035-63.623L93.6035-6.78711C93.6035-2.34375 91.2598-0.195312 87.1094-0.195312ZM37.9883-47.998C42.2363-47.9492 45.8008-51.5137 45.8008-55.9082C45.8008-60.2051 42.2852-63.7207 37.9883-63.7207C33.6426-63.7207 30.127-60.2051 30.127-55.9082C30.127-51.5137 33.6426-48.0957 37.9883-47.998ZM79.2969-47.998C83.5449-47.9492 87.1094-51.5137 87.1094-55.9082C87.1094-60.2051 83.5449-63.7207 79.2969-63.7207C74.9512-63.7207 71.3867-60.2051 71.3867-55.9082C71.3867-51.5137 74.9512-48.0957 79.2969-47.998ZM58.6426-27.3438C62.8906-27.3438 66.4551-30.9082 66.4551-35.2539C66.4551-39.502 62.8906-43.0176 58.6426-43.0176C54.2969-43.0176 50.8301-39.5508 50.8301-35.2539C50.8301-30.8594 54.2969-27.3438 58.6426-27.3438ZM37.9883-6.64062C42.2363-6.64062 45.8008-10.2051 45.8008-14.5508C45.8008-18.8477 42.2363-22.3633 37.9883-22.3633C33.6426-22.3633 30.1758-18.8477 30.1758-14.5508C30.1758-10.2051 33.6426-6.64062 37.9883-6.64062ZM79.2969-6.64062C83.5449-6.64062 87.1094-10.2051 87.1094-14.5508C87.1094-18.8477 83.5449-22.3633 79.2969-22.3633C74.9512-22.3633 71.4844-18.8477 71.4844-14.5508C71.4844-10.2051 74.9512-6.64062 79.2969-6.64062Z"/>
  </g>
  <g id="Medium-M" transform="matrix(1 0 0 1 1688.47 1126)">
   <path d="M28.5156 10.4492L87.6465 10.4492C98.2422 10.4492 103.711 4.98047 103.711-5.46875L103.711-64.8926C103.711-75.3418 98.2422-80.8105 87.6465-80.8105L28.5156-80.8105C17.9688-80.8105 12.4512-75.3906 12.4512-64.8926L12.4512-5.46875C12.4512 4.98047 17.9688 10.4492 28.5156 10.4492ZM29.1504 0.732422C24.6582 0.732422 22.168-1.61133 22.168-6.34766L22.168-64.0137C22.168-68.75 24.6582-71.0938 29.1504-71.0938L87.0117-71.0938C91.4551-71.0938 93.9941-68.75 93.9941-64.0137L93.9941-6.34766C93.9941-1.61133 91.4551 0.732422 87.0117 0.732422ZM36.9141-48.5352C41.2109-48.4863 44.7754-52.0508 44.7754-56.4453C44.7754-60.791 41.2109-64.3066 36.9141-64.3066C32.5684-64.3066 29.0039-60.791 29.0039-56.4453C29.0039-52.0508 32.5684-48.584 36.9141-48.5352ZM79.2969-48.5352C83.5938-48.4863 87.1582-52.0508 87.1582-56.4453C87.1582-60.791 83.6426-64.3066 79.2969-64.3066C74.9512-64.3066 71.3867-60.791 71.3867-56.4453C71.3867-52.0508 74.9512-48.584 79.2969-48.5352ZM58.1055-27.2949C62.4023-27.2949 65.9668-30.8594 65.9668-35.2539C65.9668-39.5508 62.4023-43.0664 58.1055-43.0664C53.7598-43.0664 50.2441-39.5508 50.2441-35.2539C50.2441-30.8594 53.7598-27.2949 58.1055-27.2949ZM36.9141-6.05469C41.2109-6.05469 44.7266-9.61914 44.7266-13.9648C44.7266-18.3105 41.1621-21.8262 36.9141-21.8262C32.5684-21.8262 29.0527-18.3105 29.0527-13.9648C29.0527-9.61914 32.5684-6.05469 36.9141-6.05469ZM79.2969-6.05469C83.6426-6.05469 87.1582-9.61914 87.1582-13.9648C87.1582-18.3105 83.5938-21.8262 79.2969-21.8262C75-21.8262 71.4844-18.3105 71.4844-13.9648C71.4844-9.61914 75-6.05469 79.2969-6.05469Z"/>
  </g>
  <g id="Regular-M" transform="matrix(1 0 0 1 1392.45 1126)">
   <path d="M27.7832 9.76562L87.0117 9.76562C97.2656 9.76562 102.344 4.6875 102.344-5.37109L102.344-64.9902C102.344-75.0488 97.2656-80.127 87.0117-80.127L27.7832-80.127C17.5781-80.127 12.4512-75.0977 12.4512-64.9902L12.4512-5.37109C12.4512 4.73633 17.5781 9.76562 27.7832 9.76562ZM27.8809 1.9043C22.998 1.9043 20.3125-0.683594 20.3125-5.76172L20.3125-64.5996C20.3125-69.6777 22.998-72.2656 27.8809-72.2656L86.9141-72.2656C91.748-72.2656 94.4824-69.6777 94.4824-64.5996L94.4824-5.76172C94.4824-0.683594 91.748 1.9043 86.9141 1.9043ZM35.498-49.2188C39.7949-49.1699 43.4082-52.7832 43.4082-57.2266C43.4082-61.5723 39.7949-65.0879 35.498-65.0879C31.1035-65.0879 27.5391-61.5723 27.5391-57.2266C27.5391-52.7832 31.1035-49.3164 35.498-49.2188ZM79.3945-49.2188C83.6914-49.1699 87.2559-52.7832 87.2559-57.2266C87.2559-61.5723 83.6914-65.0879 79.3945-65.0879C75-65.0879 71.3867-61.5723 71.3867-57.2266C71.3867-52.7832 75-49.3164 79.3945-49.2188ZM57.4219-27.2461C61.7188-27.2461 65.332-30.8105 65.332-35.2539C65.332-39.5996 61.7188-43.1152 57.4219-43.1152C53.0273-43.1152 49.5117-39.5996 49.5117-35.2539C49.5117-30.8105 53.0273-27.2461 57.4219-27.2461ZM35.498-5.27344C39.7949-5.27344 43.4082-8.83789 43.4082-13.2324C43.4082-17.627 39.7949-21.1426 35.498-21.1426C31.1035-21.1426 27.5879-17.627 27.5879-13.2324C27.5879-8.83789 31.1035-5.27344 35.498-5.27344ZM79.3945-5.27344C83.6914-5.27344 87.2559-8.83789 87.2559-13.2324C87.2559-17.627 83.6914-21.1426 79.3945-21.1426C75-21.1426 71.4844-17.627 71.4844-13.2324C71.4844-8.83789 75-5.27344 79.3945-5.27344Z"/>
  </g>
  <g id="Light-M" transform="matrix(1 0 0 1 1096.47 1126)">
   <path d="M26.8555 9.0332L86.4746 9.0332C95.9961 9.0332 100.879 4.15039 100.879-5.22461L100.879-65.0879C100.879-74.5117 95.9961-79.3945 86.4746-79.3945L26.8555-79.3945C17.334-79.3945 12.4512-74.5605 12.4512-65.0879L12.4512-5.22461C12.4512 4.19922 17.334 9.0332 26.8555 9.0332ZM26.9531 2.97852C21.4844 2.97852 18.5059 0.0976562 18.5059-5.56641L18.5059-64.7949C18.5059-70.4102 21.4844-73.3398 26.9531-73.3398L86.3281-73.3398C91.748-73.3398 94.8242-70.4102 94.8242-64.7949L94.8242-5.56641C94.8242 0.0976562 91.748 2.97852 86.3281 2.97852ZM34.082-50.1465C38.2812-50.0977 41.7969-53.6133 41.7969-57.9102C41.7969-62.1582 38.2812-65.5762 34.082-65.5762C29.834-65.5762 26.3672-62.1582 26.3672-57.9102C26.3672-53.6133 29.834-50.2441 34.082-50.1465ZM79.2969-50.1465C83.4961-50.0977 86.9629-53.6133 86.9629-57.9102C86.9629-62.1582 83.4961-65.5762 79.2969-65.5762C75.0488-65.5762 71.5332-62.1582 71.5332-57.9102C71.5332-53.6133 75.0488-50.2441 79.2969-50.1465ZM56.6895-27.4414C60.8398-27.4414 64.3555-30.957 64.3555-35.2539C64.3555-39.4531 60.8398-42.8711 56.6895-42.8711C52.4414-42.8711 48.9746-39.4531 48.9746-35.2539C48.9746-30.957 52.4414-27.4414 56.6895-27.4414ZM34.082-4.88281C38.2812-4.88281 41.748-8.34961 41.748-12.5977C41.748-16.8457 38.2812-20.2637 34.082-20.2637C29.834-20.2637 26.416-16.8457 26.416-12.5977C26.416-8.34961 29.834-4.88281 34.082-4.88281ZM79.2969-4.88281C83.4961-4.88281 86.9629-8.34961 86.9629-12.5977C86.9629-16.8457 83.4961-20.2637 79.2969-20.2637C75.0488-20.2637 71.6309-16.8457 71.6309-12.5977C71.6309-8.34961 75.0488-4.88281 79.2969-4.88281Z"/>
  </g>
  <g id="Thin-M" transform="matrix(1 0 0 1 800.758 1126)">
   <path d="M25.6348 8.05664L85.7422 8.05664C94.3848 8.05664 98.877 3.4668 98.877-5.0293L98.877-65.2344C98.877-73.7305 94.3848-78.3691 85.7422-78.3691L25.6348-78.3691C16.9922-78.3691 12.4512-73.877 12.4512-65.2344L12.4512-5.0293C12.4512 3.56445 16.9922 8.05664 25.6348 8.05664ZM25.7324 4.44336C19.3848 4.44336 16.0645 1.12305 16.0645-5.22461L16.0645-65.0391C16.0645-71.4355 19.3848-74.7559 25.7324-74.7559L85.5957-74.7559C91.748-74.7559 95.2637-71.4355 95.2637-65.0391L95.2637-5.22461C95.2637 1.12305 91.748 4.44336 85.5957 4.44336ZM32.2266-51.3672C36.2793-51.3184 39.6484-54.6875 39.6484-58.8379C39.6484-62.8906 36.2793-66.1621 32.2266-66.1621C28.1738-66.1621 24.8535-62.8906 24.8535-58.8379C24.8535-54.6875 28.1738-51.4648 32.2266-51.3672ZM79.1992-51.3672C83.2031-51.3184 86.4746-54.6875 86.4746-58.8379C86.4746-62.8906 83.2031-66.1621 79.1992-66.1621C75.0977-66.1621 71.7285-62.8906 71.7285-58.8379C71.7285-54.6875 75.0977-51.4648 79.1992-51.3672ZM55.7129-27.7832C59.7168-27.7832 63.0859-31.1035 63.0859-35.2539C63.0859-39.2578 59.7168-42.5781 55.7129-42.5781C51.6602-42.5781 48.3398-39.2578 48.3398-35.2539C48.3398-31.1035 51.6602-27.7832 55.7129-27.7832ZM32.2266-4.3457C36.2793-4.3457 39.5508-7.66602 39.5508-11.7188C39.5508-15.8203 36.2793-19.0918 32.2266-19.0918C28.1738-19.0918 24.8535-15.8203 24.8535-11.7188C24.8535-7.66602 28.1738-4.3457 32.2266-4.3457ZM79.1992-4.3457C83.2031-4.3457 86.4746-7.66602 86.4746-11.7188C86.4746-15.8203 83.2031-19.0918 79.1992-19.0918C75.0977-19.0918 71.8262-15.8203 71.8262-11.7188C71.8262-7.66602 75.0977-4.3457 79.1992-4.3457Z"/>
  </g>
  <g id="Ultralight-M" transform="matrix(1 0 0 1 504.535 1126)">
   <path d="M25 7.56836L85.3516 7.56836C93.5059 7.56836 97.9004 3.125 97.9004-4.98047L97.9004-65.2832C97.9004-73.3887 93.5059-77.832 85.3516-77.832L25-77.832C16.7969-77.832 12.4512-73.4863 12.4512-65.2832L12.4512-4.98047C12.4512 3.22266 16.7969 7.56836 25 7.56836ZM25.0977 5.17578C18.3594 5.17578 14.8438 1.66016 14.8438-5.07812L14.8438-65.1855C14.8438-71.9727 18.3594-75.4395 25.0977-75.4395L85.2051-75.4395C91.748-75.4395 95.5078-71.9727 95.5078-65.1855L95.5078-5.07812C95.5078 1.66016 91.748 5.17578 85.2051 5.17578ZM31.2988-52.002C35.2051-51.9531 38.5254-55.2734 38.5254-59.2773C38.5254-63.2812 35.2051-66.4551 31.2988-66.4551C27.3438-66.4551 24.0723-63.2812 24.0723-59.2773C24.0723-55.2734 27.3438-52.0996 31.2988-52.002ZM79.1016-52.002C83.0566-51.9531 86.2793-55.2734 86.2793-59.2773C86.2793-63.2812 83.0566-66.4551 79.1016-66.4551C75.1465-66.4551 71.8262-63.2812 71.8262-59.2773C71.8262-55.2734 75.1465-52.0996 79.1016-52.002ZM55.2246-27.9297C59.1309-27.9297 62.4512-31.2012 62.4512-35.2539C62.4512-39.1602 59.1309-42.4316 55.2246-42.4316C51.2207-42.4316 47.998-39.1602 47.998-35.2539C47.998-31.2012 51.2207-27.9297 55.2246-27.9297ZM31.2988-4.05273C35.2051-4.05273 38.4766-7.32422 38.4766-11.2793C38.4766-15.2832 35.2051-18.5059 31.2988-18.5059C27.3438-18.5059 24.0723-15.2832 24.0723-11.2793C24.0723-7.32422 27.3438-4.05273 31.2988-4.05273ZM79.1016-4.05273C83.0566-4.05273 86.2793-7.32422 86.2793-11.2793C86.2793-15.2832 83.0566-18.5059 79.1016-18.5059C75.1465-18.5059 71.9238-15.2832 71.9238-11.2793C71.9238-7.32422 75.1465-4.05273 79.1016-4.05273Z"/>
  </g>
  <g id="Black-S" transform="matrix(1 0 0 1 2885.5 696)">
   <path d="M25 2.92969L70.8008 2.92969C80.3711 2.92969 86.0352-2.73438 86.0352-12.3047L86.0352-58.1055C86.0352-67.6758 80.3711-73.3398 70.8008-73.3398L25-73.3398C15.4297-73.3398 9.76562-67.6758 9.76562-58.1055L9.76562-12.3047C9.76562-2.73438 15.4297 2.92969 25 2.92969ZM27.2461-11.2305C25-11.2305 23.9258-12.1094 23.9258-14.5508L23.9258-55.8594C23.9258-58.3008 25-59.1797 27.2461-59.1797L68.5547-59.1797C70.8008-59.1797 71.875-58.3008 71.875-55.8594L71.875-14.5508C71.875-12.1094 70.8008-11.2305 68.5547-11.2305ZM33.8867-43.2617C37.1094-43.2129 39.8438-45.9473 39.8438-49.2676C39.8438-52.5391 37.1582-55.2734 33.8867-55.2734C30.5176-55.2734 27.832-52.5879 27.832-49.2676C27.832-45.9961 30.5176-43.3105 33.8867-43.2617ZM61.9629-43.2617C65.2344-43.2129 67.9688-45.9473 67.9688-49.2676C67.9688-52.5879 65.2832-55.2734 61.9629-55.2734C58.6426-55.2734 55.957-52.5879 55.957-49.2676C55.957-45.9961 58.6426-43.3105 61.9629-43.2617ZM47.9492-29.1992C51.2207-29.1992 53.9062-31.9336 53.9062-35.2539C53.9062-38.4766 51.1719-41.1621 47.9492-41.1621C44.6289-41.1621 41.9434-38.5254 41.9434-35.2539C41.9434-31.8848 44.5801-29.1992 47.9492-29.1992ZM33.8379-15.0879C37.1094-15.0879 39.7949-17.8223 39.7949-21.1426C39.7949-24.3652 37.0605-27.0996 33.8379-27.0996C30.5176-27.0996 27.832-24.4141 27.832-21.1426C27.832-17.7734 30.5176-15.0879 33.8379-15.0879ZM61.9629-15.0879C65.2832-15.0879 67.9688-17.8223 67.9688-21.1426C67.9688-24.4141 65.2344-27.0996 61.9629-27.0996C58.6914-27.0996 56.0059-24.4141 56.0059-21.1426C56.0059-17.8223 58.6914-15.0879 61.9629-15.0879Z"/>
  </g>
  <g id="Heavy-S" transform="matrix(1 0 0 1 2589.4 696)">
   <path d="M24.3652 2.34375L70.2637 2.34375C79.541 2.34375 84.8145-2.97852 84.8145-12.207L84.8145-58.2031C84.8145-67.4316 79.541-72.7539 70.2637-72.7539L24.3652-72.7539C15.0879-72.7539 9.76562-67.4316 9.76562-58.2031L9.76562-12.207C9.76562-2.97852 15.0879 2.34375 24.3652 2.34375ZM26.0742-10.1562C23.5352-10.1562 22.2656-11.2793 22.2656-14.0137L22.2656-56.3965C22.2656-59.1309 23.5352-60.2539 26.0742-60.2539L68.5059-60.2539C71.0449-60.2539 72.3633-59.1309 72.3633-56.3965L72.3633-14.0137C72.3633-11.2793 71.0449-10.1562 68.5059-10.1562ZM32.6172-43.8477C35.8887-43.7988 38.6719-46.582 38.6719-49.9512C38.6719-53.2715 35.9375-56.0059 32.6172-56.0059C29.1992-56.0059 26.4648-53.3203 26.4648-49.9512C26.4648-46.582 29.1992-43.8965 32.6172-43.8477ZM62.0117-43.8477C65.332-43.7988 68.1152-46.582 68.1152-49.9512C68.1152-53.3203 65.3809-56.0059 62.0117-56.0059C58.6426-56.0059 55.957-53.3203 55.957-49.9512C55.957-46.582 58.6426-43.8965 62.0117-43.8477ZM47.3145-29.1016C50.6348-29.1016 53.3691-31.8848 53.3691-35.2539C53.3691-38.5254 50.5859-41.2598 47.3145-41.2598C43.9941-41.2598 41.2598-38.5742 41.2598-35.2539C41.2598-31.8359 43.9453-29.1016 47.3145-29.1016ZM32.5684-14.3555C35.8887-14.3555 38.623-17.0898 38.623-20.459C38.623-23.7793 35.8398-26.5137 32.5684-26.5137C29.1992-26.5137 26.5137-23.7793 26.5137-20.459C26.5137-17.0898 29.1992-14.3555 32.5684-14.3555ZM62.0117-14.3555C65.3809-14.3555 68.1152-17.0898 68.1152-20.459C68.1152-23.7793 65.332-26.5137 62.0117-26.5137C58.6914-26.5137 56.0059-23.7793 56.0059-20.459C56.0059-17.0898 58.6914-14.3555 62.0117-14.3555Z"/>
  </g>
  <g id="Bold-S" transform="matrix(1 0 0 1 2293.35 696)">
   <path d="M23.6328 1.66016L69.6289 1.66016C78.6133 1.66016 83.4961-3.22266 83.4961-12.1094L83.4961-58.3008C83.4961-67.1875 78.6133-72.0703 69.6289-72.0703L23.6328-72.0703C14.6973-72.0703 9.76562-67.1875 9.76562-58.3008L9.76562-12.1094C9.76562-3.22266 14.6973 1.66016 23.6328 1.66016ZM24.8047-8.93555C21.9238-8.93555 20.3613-10.3516 20.3613-13.4277L20.3613-56.9824C20.3613-60.0586 21.9238-61.4746 24.8047-61.4746L68.457-61.4746C71.3379-61.4746 72.9004-60.0586 72.9004-56.9824L72.9004-13.4277C72.9004-10.3516 71.3379-8.93555 68.457-8.93555ZM31.2012-44.4824C34.5215-44.4336 37.3047-47.2656 37.3047-50.6836C37.3047-54.0527 34.5703-56.8359 31.2012-56.8359C27.7344-56.8359 25-54.1016 25-50.6836C25-47.2656 27.7344-44.5312 31.2012-44.4824ZM62.1094-44.4824C65.4785-44.4336 68.2617-47.2656 68.2617-50.6836C68.2617-54.1016 65.4785-56.8359 62.1094-56.8359C58.6914-56.8359 55.9082-54.1016 55.9082-50.6836C55.9082-47.2656 58.6914-44.5312 62.1094-44.4824ZM46.6309-29.0039C50-29.0039 52.7832-31.8359 52.7832-35.2539C52.7832-38.5742 50-41.3574 46.6309-41.3574C43.2129-41.3574 40.4785-38.623 40.4785-35.2539C40.4785-31.7871 43.2129-29.0039 46.6309-29.0039ZM31.1523-13.5254C34.5215-13.5254 37.3047-16.3086 37.3047-19.7266C37.3047-23.0957 34.5215-25.8789 31.1523-25.8789C27.7344-25.8789 25-23.0957 25-19.7266C25-16.3086 27.7344-13.5254 31.1523-13.5254ZM62.1094-13.5254C65.4785-13.5254 68.2617-16.3086 68.2617-19.7266C68.2617-23.0957 65.4785-25.8789 62.1094-25.8789C58.7402-25.8789 55.957-23.0957 55.957-19.7266C55.957-16.3086 58.7402-13.5254 62.1094-13.5254Z"/>
  </g>
  <g id="Semibold-S" transform="matrix(1 0 0 1 1997.1 696)">
   <path d="M23.0957 1.17188L69.1895 1.17188C77.9297 1.17188 82.5684-3.36914 82.5684-12.0117L82.5684-58.3984C82.5684-67.041 77.9297-71.582 69.1895-71.582L23.0957-71.582C14.4043-71.582 9.76562-67.041 9.76562-58.3984L9.76562-12.0117C9.76562-3.36914 14.4043 1.17188 23.0957 1.17188ZM23.877-8.10547C20.752-8.10547 19.0918-9.7168 19.0918-12.9883L19.0918-57.4219C19.0918-60.6934 20.752-62.3047 23.877-62.3047L68.4082-62.3047C71.5332-62.3047 73.2422-60.6934 73.2422-57.4219L73.2422-12.9883C73.2422-9.7168 71.5332-8.10547 68.4082-8.10547ZM30.2246-44.9707C33.5938-44.9219 36.4258-47.7539 36.4258-51.2207C36.4258-54.6387 33.5938-57.4219 30.2246-57.4219C26.7578-57.4219 23.9258-54.6387 23.9258-51.2207C23.9258-47.7539 26.7578-45.0195 30.2246-44.9707ZM62.1582-44.9707C65.5273-44.9219 68.3594-47.7539 68.3594-51.2207C68.3594-54.6387 65.5762-57.4219 62.1582-57.4219C58.6914-57.4219 55.9082-54.6387 55.9082-51.2207C55.9082-47.7539 58.6914-45.0195 62.1582-44.9707ZM46.1914-28.9551C49.5605-28.9551 52.3438-31.7871 52.3438-35.2539C52.3438-38.623 49.5605-41.4062 46.1914-41.4062C42.7246-41.4062 39.9414-38.623 39.9414-35.2539C39.9414-31.7871 42.7246-28.9551 46.1914-28.9551ZM30.1758-12.9395C33.5938-12.9395 36.377-15.7715 36.377-19.1895C36.377-22.6074 33.5449-25.3906 30.1758-25.3906C26.7578-25.3906 23.9746-22.6562 23.9746-19.1895C23.9746-15.7715 26.7578-12.9395 30.1758-12.9395ZM62.1582-12.9395C65.5762-12.9395 68.3594-15.7715 68.3594-19.1895C68.3594-22.6562 65.5273-25.3906 62.1582-25.3906C58.7402-25.3906 55.957-22.6562 55.957-19.1895C55.957-15.7715 58.7402-12.9395 62.1582-12.9395Z"/>
  </g>
  <g id="Medium-S" transform="matrix(1 0 0 1 1700.75 696)">
   <path d="M22.7051 0.830078L68.8965 0.830078C77.4414 0.830078 81.8359-3.51562 81.8359-11.9629L81.8359-58.4473C81.8359-66.8945 77.4414-71.2402 68.8965-71.2402L22.7051-71.2402C14.209-71.2402 9.76562-66.8945 9.76562-58.4473L9.76562-11.9629C9.76562-3.51562 14.209 0.830078 22.7051 0.830078ZM23.1934-7.4707C19.9219-7.4707 18.0664-9.22852 18.0664-12.6953L18.0664-57.7148C18.0664-61.1816 19.9219-62.9395 23.1934-62.9395L68.4082-62.9395C71.6797-62.9395 73.5352-61.1816 73.5352-57.7148L73.5352-12.6953C73.5352-9.22852 71.6797-7.4707 68.4082-7.4707ZM29.4434-45.3125C32.8613-45.2637 35.6934-48.0957 35.6934-51.6113C35.6934-55.0293 32.8613-57.8613 29.4434-57.8613C25.9766-57.8613 23.1445-55.0781 23.1445-51.6113C23.1445-48.0957 25.9766-45.3613 29.4434-45.3125ZM62.207-45.3125C65.625-45.2637 68.457-48.0957 68.457-51.6113C68.457-55.0781 65.625-57.8613 62.207-57.8613C58.7402-57.8613 55.9082-55.0781 55.9082-51.6113C55.9082-48.0957 58.7402-45.3613 62.207-45.3125ZM45.8008-28.9062C49.2188-28.9062 52.0508-31.7383 52.0508-35.2539C52.0508-38.6719 49.2188-41.4551 45.8008-41.4551C42.334-41.4551 39.5508-38.6719 39.5508-35.2539C39.5508-31.7383 42.334-28.9062 45.8008-28.9062ZM29.4434-12.5C32.8613-12.5 35.6934-15.332 35.6934-18.7988C35.6934-22.2656 32.8613-25.0488 29.4434-25.0488C25.9766-25.0488 23.1934-22.2656 23.1934-18.7988C23.1934-15.332 25.9766-12.5 29.4434-12.5ZM62.207-12.5C65.625-12.5 68.457-15.332 68.457-18.7988C68.457-22.2656 65.625-25.0488 62.207-25.0488C58.7402-25.0488 55.957-22.2656 55.957-18.7988C55.957-15.332 58.7402-12.5 62.207-12.5Z"/>
  </g>
  <g id="Regular-S" transform="matrix(1 0 0 1 1404.51 696)">
   <path d="M22.2168 0.390625L68.457 0.390625C76.8066 0.390625 80.9082-3.71094 80.9082-11.9141L80.9082-58.4961C80.9082-66.6992 76.8066-70.8008 68.457-70.8008L22.2168-70.8008C13.916-70.8008 9.76562-66.6992 9.76562-58.4961L9.76562-11.9141C9.76562-3.71094 13.916 0.390625 22.2168 0.390625ZM22.3145-6.68945C18.7988-6.68945 16.7969-8.54492 16.7969-12.2559L16.7969-58.1543C16.7969-61.8164 18.7988-63.7207 22.3145-63.7207L68.3594-63.7207C71.875-63.7207 73.877-61.8164 73.877-58.1543L73.877-12.2559C73.877-8.54492 71.875-6.68945 68.3594-6.68945ZM28.4668-45.752C31.9336-45.7031 34.8145-48.584 34.8145-52.0996C34.8145-55.6152 31.9336-58.3984 28.4668-58.3984C25-58.3984 22.1191-55.6152 22.1191-52.0996C22.1191-48.584 25-45.8008 28.4668-45.752ZM62.2559-45.752C65.6738-45.7031 68.5547-48.584 68.5547-52.0996C68.5547-55.6152 65.6738-58.3984 62.2559-58.3984C58.7402-58.3984 55.8594-55.6152 55.8594-52.0996C55.8594-48.584 58.7402-45.8008 62.2559-45.752ZM45.3613-28.8574C48.7793-28.8574 51.6602-31.6895 51.6602-35.2539C51.6602-38.7207 48.7793-41.5039 45.3613-41.5039C41.8457-41.5039 39.0137-38.7207 39.0137-35.2539C39.0137-31.6895 41.8457-28.8574 45.3613-28.8574ZM28.4668-11.9629C31.9336-11.9629 34.8145-14.7949 34.8145-18.3105C34.8145-21.8262 31.9336-24.6094 28.4668-24.6094C25-24.6094 22.168-21.8262 22.168-18.3105C22.168-14.7949 25-11.9629 28.4668-11.9629ZM62.2559-11.9629C65.6738-11.9629 68.5547-14.7949 68.5547-18.3105C68.5547-21.8262 65.6738-24.6094 62.2559-24.6094C58.7402-24.6094 55.9082-21.8262 55.9082-18.3105C55.9082-14.7949 58.7402-11.9629 62.2559-11.9629Z"/>
  </g>
  <g id="Light-S" transform="matrix(1 0 0 1 1108.46 696)">
   <path d="M21.3867-0.292969L67.9688-0.292969C75.7324-0.292969 79.5898-4.15039 79.5898-11.7676L79.5898-58.5938C79.5898-66.2109 75.7324-70.1172 67.9688-70.1172L21.3867-70.1172C13.6719-70.1172 9.76562-66.2598 9.76562-58.5938L9.76562-11.7676C9.76562-4.15039 13.6719-0.292969 21.3867-0.292969ZM21.4844-5.71289C17.4316-5.71289 15.1855-7.86133 15.1855-12.0605L15.1855-58.3008C15.1855-62.5 17.4316-64.6973 21.4844-64.6973L67.8711-64.6973C71.875-64.6973 74.1699-62.5 74.1699-58.3008L74.1699-12.0605C74.1699-7.86133 71.875-5.71289 67.8711-5.71289ZM27.2461-46.582C30.5664-46.5332 33.3496-49.3164 33.3496-52.7344C33.3496-56.1035 30.5664-58.8379 27.2461-58.8379C23.877-58.8379 21.1426-56.1035 21.1426-52.7344C21.1426-49.3164 23.877-46.6309 27.2461-46.582ZM62.1582-46.582C65.4785-46.5332 68.2617-49.3164 68.2617-52.7344C68.2617-56.1035 65.4785-58.8379 62.1582-58.8379C58.7891-58.8379 56.0059-56.1035 56.0059-52.7344C56.0059-49.3164 58.7891-46.6309 62.1582-46.582ZM44.6777-29.0527C48.0469-29.0527 50.7812-31.8359 50.7812-35.2539C50.7812-38.5742 48.0469-41.3086 44.6777-41.3086C41.3086-41.3086 38.5742-38.5742 38.5742-35.2539C38.5742-31.8359 41.3086-29.0527 44.6777-29.0527ZM27.2461-11.6211C30.5664-11.6211 33.3496-14.3555 33.3496-17.7246C33.3496-21.0938 30.5664-23.8281 27.2461-23.8281C23.877-23.8281 21.1426-21.0938 21.1426-17.7246C21.1426-14.3555 23.877-11.6211 27.2461-11.6211ZM62.1582-11.6211C65.4785-11.6211 68.2617-14.3555 68.2617-17.7246C68.2617-21.0938 65.4785-23.8281 62.1582-23.8281C58.7891-23.8281 56.0547-21.0938 56.0547-17.7246C56.0547-14.3555 58.7891-11.6211 62.1582-11.6211Z"/>
  </g>
  <g id="Thin-S" transform="matrix(1 0 0 1 812.599 696)">
   <path d="M20.3125-1.12305L67.334-1.12305C74.2676-1.12305 77.8809-4.78516 77.8809-11.6211L77.8809-58.6914C77.8809-65.5762 74.2676-69.2383 67.334-69.2383L20.3125-69.2383C13.3789-69.2383 9.76562-65.625 9.76562-58.6914L9.76562-11.6211C9.76562-4.6875 13.3789-1.12305 20.3125-1.12305ZM20.4102-4.44336C15.625-4.44336 13.0859-6.93359 13.0859-11.8164L13.0859-58.5449C13.0859-63.3789 15.625-65.918 20.4102-65.918L67.2363-65.918C71.875-65.918 74.5605-63.3789 74.5605-58.5449L74.5605-11.8164C74.5605-6.93359 71.875-4.44336 67.2363-4.44336ZM25.6348-47.6562C28.8086-47.6074 31.4453-50.2441 31.4453-53.5156C31.4453-56.7383 28.8086-59.3262 25.6348-59.3262C22.4121-59.3262 19.7754-56.7383 19.7754-53.5156C19.7754-50.2441 22.4121-47.7051 25.6348-47.6562ZM62.0605-47.6562C65.2344-47.6074 67.8711-50.2441 67.8711-53.5156C67.8711-56.7383 65.2344-59.3262 62.0605-59.3262C58.8379-59.3262 56.2012-56.7383 56.2012-53.5156C56.2012-50.2441 58.8379-47.7051 62.0605-47.6562ZM43.8477-29.2969C47.0215-29.2969 49.6582-31.9824 49.6582-35.2539C49.6582-38.4277 47.0215-41.0645 43.8477-41.0645C40.625-41.0645 37.9883-38.4277 37.9883-35.2539C37.9883-31.9824 40.625-29.2969 43.8477-29.2969ZM25.6348-11.1328C28.8086-11.1328 31.4453-13.7695 31.4453-16.9922C31.4453-20.2148 28.8086-22.8027 25.6348-22.8027C22.4121-22.8027 19.7754-20.2148 19.7754-16.9922C19.7754-13.7695 22.4121-11.1328 25.6348-11.1328ZM62.0605-11.1328C65.2344-11.1328 67.8711-13.7695 67.8711-16.9922C67.8711-20.2148 65.2344-22.8027 62.0605-22.8027C58.8379-22.8027 56.25-20.2148 56.25-16.9922C56.25-13.7695 58.8379-11.1328 62.0605-11.1328Z"/>
  </g>
  <g id="Ultralight-S" transform="matrix(1 0 0 1 516.352 696)">
   <path d="M19.7754-1.5625L66.9922-1.5625C73.5352-1.5625 76.9531-5.12695 76.9531-11.5234L76.9531-58.7891C76.9531-65.2344 73.5352-68.75 66.9922-68.75L19.7754-68.75C13.2324-68.75 9.76562-65.2832 9.76562-58.7891L9.76562-11.5234C9.76562-5.0293 13.2324-1.5625 19.7754-1.5625ZM19.873-3.75977C14.6484-3.75977 11.9629-6.44531 11.9629-11.6699L11.9629-58.6426C11.9629-63.8672 14.6484-66.5527 19.873-66.5527L66.8945-66.5527C71.875-66.5527 74.7559-63.8672 74.7559-58.6426L74.7559-11.6699C74.7559-6.44531 71.875-3.75977 66.8945-3.75977ZM24.8047-48.1934C27.8809-48.1445 30.5176-50.7812 30.5176-53.9551C30.5176-57.0801 27.8809-59.6191 24.8047-59.6191C21.6797-59.6191 19.0918-57.0801 19.0918-53.9551C19.0918-50.7812 21.6797-48.2422 24.8047-48.1934ZM62.0117-48.1934C65.1367-48.1445 67.6758-50.7812 67.6758-53.9551C67.6758-57.0801 65.1367-59.6191 62.0117-59.6191C58.8867-59.6191 56.2988-57.0801 56.2988-53.9551C56.2988-50.7812 58.8867-48.2422 62.0117-48.1934ZM43.4082-29.4434C46.4844-29.4434 49.1211-32.0801 49.1211-35.2539C49.1211-38.3301 46.4844-40.918 43.4082-40.918C40.2832-40.918 37.6953-38.3301 37.6953-35.2539C37.6953-32.0801 40.2832-29.4434 43.4082-29.4434ZM24.8047-10.8887C27.8809-10.8887 30.4688-13.4277 30.4688-16.6016C30.4688-19.7266 27.8809-22.2656 24.8047-22.2656C21.6797-22.2656 19.0918-19.7266 19.0918-16.6016C19.0918-13.4277 21.6797-10.8887 24.8047-10.8887ZM62.0117-10.8887C65.1367-10.8887 67.6758-13.4277 67.6758-16.6016C67.6758-19.7266 65.1367-22.2656 62.0117-22.2656C58.8867-22.2656 56.3477-19.7266 56.3477-16.6016C56.3477-13.4277 58.8867-10.8887 62.0117-10.8887Z"/>
  </g>
 </g>
</svg>
