<?xml version="1.0" encoding="UTF-8"?>
<!--Generator: Apple Native CoreSVG 149-->
<!DOCTYPE svg
PUBLIC "-//W3C//DTD SVG 1.1//EN"
       "http://www.w3.org/Graphics/SVG/1.1/DTD/svg11.dtd">
<svg version="1.1" xmlns="http://www.w3.org/2000/svg" xmlns:xlink="http://www.w3.org/1999/xlink" width="3300" height="2200">
 <!--glyph: "uni1009FC.medium", point size: 100.000000, font version: "Version 16.0d12e3", template writer version: "8"-->
 <g id="Notes">
  <rect height="2200" id="artboard" style="fill:white;opacity:1" width="3300" x="0" y="0"/>
  <line id="" style="fill:none;stroke:black;opacity:1;stroke-width:0.5;" x1="263" x2="3036" y1="292" y2="292"/>
  <text style="stroke:none;fill:black;font-family:-apple-system,&quot;SF Pro Display&quot;,&quot;SF Pro Text&quot;,Helvetica,sans-serif;font-weight:bold;" transform="matrix(1 0 0 1 263 322)">Weight/Scale Variations</text>
  <text style="stroke:none;fill:black;font-family:-apple-system,&quot;SF Pro Display&quot;,&quot;SF Pro Text&quot;,Helvetica,sans-serif;text-anchor:middle;" transform="matrix(1 0 0 1 559.711 322)">Ultralight</text>
  <text style="stroke:none;fill:black;font-family:-apple-system,&quot;SF Pro Display&quot;,&quot;SF Pro Text&quot;,Helvetica,sans-serif;text-anchor:middle;" transform="matrix(1 0 0 1 856.422 322)">Thin</text>
  <text style="stroke:none;fill:black;font-family:-apple-system,&quot;SF Pro Display&quot;,&quot;SF Pro Text&quot;,Helvetica,sans-serif;text-anchor:middle;" transform="matrix(1 0 0 1 1153.13 322)">Light</text>
  <text style="stroke:none;fill:black;font-family:-apple-system,&quot;SF Pro Display&quot;,&quot;SF Pro Text&quot;,Helvetica,sans-serif;text-anchor:middle;" transform="matrix(1 0 0 1 1449.84 322)">Regular</text>
  <text style="stroke:none;fill:black;font-family:-apple-system,&quot;SF Pro Display&quot;,&quot;SF Pro Text&quot;,Helvetica,sans-serif;text-anchor:middle;" transform="matrix(1 0 0 1 1746.56 322)">Medium</text>
  <text style="stroke:none;fill:black;font-family:-apple-system,&quot;SF Pro Display&quot;,&quot;SF Pro Text&quot;,Helvetica,sans-serif;text-anchor:middle;" transform="matrix(1 0 0 1 2043.27 322)">Semibold</text>
  <text style="stroke:none;fill:black;font-family:-apple-system,&quot;SF Pro Display&quot;,&quot;SF Pro Text&quot;,Helvetica,sans-serif;text-anchor:middle;" transform="matrix(1 0 0 1 2339.98 322)">Bold</text>
  <text style="stroke:none;fill:black;font-family:-apple-system,&quot;SF Pro Display&quot;,&quot;SF Pro Text&quot;,Helvetica,sans-serif;text-anchor:middle;" transform="matrix(1 0 0 1 2636.69 322)">Heavy</text>
  <text style="stroke:none;fill:black;font-family:-apple-system,&quot;SF Pro Display&quot;,&quot;SF Pro Text&quot;,Helvetica,sans-serif;text-anchor:middle;" transform="matrix(1 0 0 1 2933.4 322)">Black</text>
  <line id="" style="fill:none;stroke:black;opacity:1;stroke-width:0.5;" x1="263" x2="3036" y1="1903" y2="1903"/>
  <g id="" transform="matrix(1 0 0 1 263 1933)">
   <path d="M9.24805 0.830078C13.5547 0.830078 17.1387-2.74414 17.1387-7.05078C17.1387-11.3574 13.5449-14.9316 9.23828-14.9316C4.94141-14.9316 1.36719-11.3574 1.36719-7.05078C1.36719-2.74414 4.95117 0.830078 9.24805 0.830078ZM9.24805-0.654297C5.70312-0.654297 2.87109-3.49609 2.87109-7.05078C2.87109-10.6055 5.69336-13.4473 9.23828-13.4473C12.793-13.4473 15.6348-10.6055 15.6445-7.05078C15.6543-3.49609 12.8027-0.654297 9.24805-0.654297ZM9.22852-3.62305C9.69727-3.62305 9.9707-3.93555 9.9707-4.45312L9.9707-6.31836L12.002-6.31836C12.5-6.31836 12.832-6.57227 12.832-7.04102C12.832-7.51953 12.5195-7.7832 12.002-7.7832L9.9707-7.7832L9.9707-9.81445C9.9707-10.332 9.69727-10.6543 9.22852-10.6543C8.75977-10.6543 8.50586-10.3125 8.50586-9.81445L8.50586-7.7832L6.49414-7.7832C5.97656-7.7832 5.64453-7.51953 5.64453-7.04102C5.64453-6.57227 5.99609-6.31836 6.49414-6.31836L8.50586-6.31836L8.50586-4.45312C8.50586-3.95508 8.75977-3.62305 9.22852-3.62305Z"/>
  </g>
  <g id="" transform="matrix(1 0 0 1 281.506 1933)">
   <path d="M11.709 2.91016C17.1582 2.91016 21.6699-1.61133 21.6699-7.05078C21.6699-12.5 17.1484-17.0117 11.6992-17.0117C6.25977-17.0117 1.74805-12.5 1.74805-7.05078C1.74805-1.61133 6.26953 2.91016 11.709 2.91016ZM11.709 1.25C7.09961 1.25 3.41797-2.44141 3.41797-7.05078C3.41797-11.6602 7.08984-15.3516 11.6992-15.3516C16.3086-15.3516 20-11.6602 20.0098-7.05078C20.0195-2.44141 16.3184 1.25 11.709 1.25ZM11.6797-2.66602C12.207-2.66602 12.5098-3.01758 12.5098-3.59375L12.5098-6.23047L15.3223-6.23047C15.8691-6.23047 16.25-6.51367 16.25-7.03125C16.25-7.55859 15.8887-7.86133 15.3223-7.86133L12.5098-7.86133L12.5098-10.6836C12.5098-11.25 12.207-11.6113 11.6797-11.6113C11.1621-11.6113 10.8789-11.2305 10.8789-10.6836L10.8789-7.86133L8.07617-7.86133C7.50977-7.86133 7.13867-7.55859 7.13867-7.03125C7.13867-6.51367 7.5293-6.23047 8.07617-6.23047L10.8789-6.23047L10.8789-3.59375C10.8789-3.03711 11.1621-2.66602 11.6797-2.66602Z"/>
  </g>
  <g id="" transform="matrix(1 0 0 1 304.924 1933)">
   <path d="M14.9707 5.66406C21.9336 5.66406 27.6953-0.0976562 27.6953-7.05078C27.6953-14.0137 21.9238-19.7754 14.9609-19.7754C8.00781-19.7754 2.25586-14.0137 2.25586-7.05078C2.25586-0.0976562 8.01758 5.66406 14.9707 5.66406ZM14.9707 3.84766C8.93555 3.84766 4.08203-1.01562 4.08203-7.05078C4.08203-13.0957 8.92578-17.9492 14.9609-17.9492C21.0059-17.9492 25.8594-13.0957 25.8691-7.05078C25.8789-1.01562 21.0156 3.84766 14.9707 3.84766ZM14.9414-1.38672C15.5176-1.38672 15.8594-1.77734 15.8594-2.38281L15.8594-6.13281L19.7754-6.13281C20.3711-6.13281 20.7812-6.46484 20.7812-7.02148C20.7812-7.59766 20.3906-7.93945 19.7754-7.93945L15.8594-7.93945L15.8594-11.8652C15.8594-12.4805 15.5176-12.8711 14.9414-12.8711C14.375-12.8711 14.0527-12.4609 14.0527-11.8652L14.0527-7.93945L10.1465-7.93945C9.53125-7.93945 9.13086-7.59766 9.13086-7.02148C9.13086-6.46484 9.55078-6.13281 10.1465-6.13281L14.0527-6.13281L14.0527-2.38281C14.0527-1.79688 14.375-1.38672 14.9414-1.38672Z"/>
  </g>
  <text style="stroke:none;fill:black;font-family:-apple-system,&quot;SF Pro Display&quot;,&quot;SF Pro Text&quot;,Helvetica,sans-serif;font-weight:bold;" transform="matrix(1 0 0 1 263 1953)">Design Variations</text>
  <text style="stroke:none;fill:black;font-family:-apple-system,&quot;SF Pro Display&quot;,&quot;SF Pro Text&quot;,Helvetica,sans-serif;" transform="matrix(1 0 0 1 263 1971)">Symbols are supported in up to nine weights and three scales.</text>
  <text style="stroke:none;fill:black;font-family:-apple-system,&quot;SF Pro Display&quot;,&quot;SF Pro Text&quot;,Helvetica,sans-serif;" transform="matrix(1 0 0 1 263 1989)">For optimal layout with text and other symbols, vertically align</text>
  <text style="stroke:none;fill:black;font-family:-apple-system,&quot;SF Pro Display&quot;,&quot;SF Pro Text&quot;,Helvetica,sans-serif;" transform="matrix(1 0 0 1 263 2007)">symbols with the adjacent text.</text>
  <line id="" style="fill:none;stroke:#00AEEF;stroke-width:0.5;opacity:1.0;" x1="776" x2="776" y1="1919" y2="1933"/>
  <g id="" transform="matrix(1 0 0 1 776 1933)">
   <path d="M3.31055 0.126953C3.82812 0.126953 4.08203-0.0683594 4.26758-0.605469L5.52734-4.0625L11.2891-4.0625L12.5488-0.605469C12.7344-0.0683594 12.9883 0.126953 13.4961 0.126953C14.0137 0.126953 14.3457-0.185547 14.3457-0.673828C14.3457-0.839844 14.3164-0.986328 14.2383-1.20117L9.6582-13.3887C9.43359-13.9941 9.0332-14.2871 8.4082-14.2871C7.80273-14.2871 7.39258-13.9941 7.17773-13.3984L2.59766-1.19141C2.51953-0.976562 2.49023-0.830078 2.49023-0.664062C2.49023-0.175781 2.80273 0.126953 3.31055 0.126953ZM6.00586-5.53711L8.37891-12.1094L8.42773-12.1094L10.8008-5.53711Z"/>
  </g>
  <line id="" style="fill:none;stroke:#00AEEF;stroke-width:0.5;opacity:1.0;" x1="792.836" x2="792.836" y1="1919" y2="1933"/>
  <text style="stroke:none;fill:black;font-family:-apple-system,&quot;SF Pro Display&quot;,&quot;SF Pro Text&quot;,Helvetica,sans-serif;font-weight:bold;" transform="matrix(1 0 0 1 776 1953)">Margins</text>
  <text style="stroke:none;fill:black;font-family:-apple-system,&quot;SF Pro Display&quot;,&quot;SF Pro Text&quot;,Helvetica,sans-serif;" transform="matrix(1 0 0 1 776 1971)">Leading and trailing margins on the left and right side of each symbol</text>
  <text style="stroke:none;fill:black;font-family:-apple-system,&quot;SF Pro Display&quot;,&quot;SF Pro Text&quot;,Helvetica,sans-serif;" transform="matrix(1 0 0 1 776 1989)">can be adjusted by modifying the x-location of the margin guidelines.</text>
  <text style="stroke:none;fill:black;font-family:-apple-system,&quot;SF Pro Display&quot;,&quot;SF Pro Text&quot;,Helvetica,sans-serif;" transform="matrix(1 0 0 1 776 2007)">Modifications are automatically applied proportionally to all</text>
  <text style="stroke:none;fill:black;font-family:-apple-system,&quot;SF Pro Display&quot;,&quot;SF Pro Text&quot;,Helvetica,sans-serif;" transform="matrix(1 0 0 1 776 2025)">scales and weights.</text>
  <g id="" transform="matrix(1 0 0 1 1289 1933)">
   <path d="M2.8418 1.86523L4.54102 3.57422C5.40039 4.44336 6.38672 4.38477 7.31445 3.35938L17.4902-7.85156C17.7539-7.76367 18.0273-7.7832 18.3398-7.8418L19.4043-8.03711L20.0684-7.36328L20.0293-6.80664C19.9902-6.30859 20.1172-5.92773 20.6055-5.44922L21.3672-4.70703C21.8457-4.22852 22.4609-4.19922 22.9297-4.66797L25.8398-7.58789C26.3086-8.05664 26.2891-8.65234 25.8105-9.13086L25.0391-9.89258C24.5605-10.3711 24.1895-10.5273 23.7109-10.4883L23.1348-10.4395L22.4902-11.0742L22.7344-12.1973C22.8613-12.7637 22.7051-13.2031 22.1191-13.7891L19.9219-15.9766C16.582-19.2969 12.1484-19.2188 9.25781-16.3281C8.83789-15.918 8.80859-15.3418 9.04297-14.9512C9.27734-14.5898 9.73633-14.3555 10.3809-14.5215C11.8457-14.8633 13.3691-14.9219 14.7949-13.9844L14.209-12.5293C14.0137-12.0508 13.9844-11.6504 14.1113-11.2891L3.04688-0.898438C2.06055 0.0195312 1.98242 0.996094 2.8418 1.86523ZM10.752-15.957C13.1836-17.7344 16.4746-17.4316 18.7012-15.2051L21.1328-12.793C21.3672-12.5586 21.4062-12.373 21.3379-12.0312L21.0156-10.5469L22.5195-9.0625L23.5059-9.12109C23.7598-9.13086 23.8379-9.11133 24.0332-8.91602L24.6094-8.33984L22.168-5.89844L21.5918-6.47461C21.3965-6.66992 21.3672-6.74805 21.377-7.01172L21.4453-7.98828L19.9512-9.47266L18.4277-9.21875C18.1055-9.15039 17.959-9.17969 17.7148-9.41406L15.7129-11.416C15.459-11.6504 15.4297-11.8164 15.5859-12.1875L16.4648-14.2773C14.9023-15.7324 12.8711-16.3574 10.8398-15.7617C10.6836-15.7227 10.625-15.8496 10.752-15.957ZM5.27344 2.30469L4.10156 1.14258C3.63281 0.683594 3.74023 0.341797 4.14062-0.0195312L14.9512-10.1953L16.416-8.71094L6.42578 2.27539C6.07422 2.67578 5.74219 2.77344 5.27344 2.30469Z"/>
  </g>
  <text style="stroke:none;fill:black;font-family:-apple-system,&quot;SF Pro Display&quot;,&quot;SF Pro Text&quot;,Helvetica,sans-serif;font-weight:bold;" transform="matrix(1 0 0 1 1289 1953)">Exporting</text>
  <text style="stroke:none;fill:black;font-family:-apple-system,&quot;SF Pro Display&quot;,&quot;SF Pro Text&quot;,Helvetica,sans-serif;" transform="matrix(1 0 0 1 1289 1971)">Symbols should be outlined when exporting to ensure the</text>
  <text style="stroke:none;fill:black;font-family:-apple-system,&quot;SF Pro Display&quot;,&quot;SF Pro Text&quot;,Helvetica,sans-serif;" transform="matrix(1 0 0 1 1289 1989)">design is preserved when submitting to Xcode.</text>
  <text id="template-version" style="stroke:none;fill:black;font-family:-apple-system,&quot;SF Pro Display&quot;,&quot;SF Pro Text&quot;,Helvetica,sans-serif;text-anchor:end;" transform="matrix(1 0 0 1 3036 1933)">Template v.2.0</text>
  <text style="stroke:none;fill:black;font-family:-apple-system,&quot;SF Pro Display&quot;,&quot;SF Pro Text&quot;,Helvetica,sans-serif;text-anchor:end;" transform="matrix(1 0 0 1 3036 1951)">Requires Xcode 12 or greater</text>
  <text style="stroke:none;fill:black;font-family:-apple-system,&quot;SF Pro Display&quot;,&quot;SF Pro Text&quot;,Helvetica,sans-serif;text-anchor:end;" transform="matrix(1 0 0 1 3036 1969)">Generated from dpad.fill</text>
  <text style="stroke:none;fill:black;font-family:-apple-system,&quot;SF Pro Display&quot;,&quot;SF Pro Text&quot;,Helvetica,sans-serif;text-anchor:end;" transform="matrix(1 0 0 1 3036 1987)">Typeset at 100 points</text>
  <text style="stroke:none;fill:black;font-family:-apple-system,&quot;SF Pro Display&quot;,&quot;SF Pro Text&quot;,Helvetica,sans-serif;" transform="matrix(1 0 0 1 263 726)">Small</text>
  <text style="stroke:none;fill:black;font-family:-apple-system,&quot;SF Pro Display&quot;,&quot;SF Pro Text&quot;,Helvetica,sans-serif;" transform="matrix(1 0 0 1 263 1156)">Medium</text>
  <text style="stroke:none;fill:black;font-family:-apple-system,&quot;SF Pro Display&quot;,&quot;SF Pro Text&quot;,Helvetica,sans-serif;" transform="matrix(1 0 0 1 263 1586)">Large</text>
 </g>
 <g id="Guides">
  <g id="H-reference" style="fill:#27AAE1;stroke:none;" transform="matrix(1 0 0 1 339 696)">
   <path d="M0.976562 0L3.66211 0L12.9883-24.4629L45.752-24.4629L55.127 0L57.7637 0L30.6152-70.459L28.125-70.459ZM29.3457-67.1387L29.4434-67.1387L44.873-26.709L13.8672-26.709Z"/>
  </g>
  <line id="Baseline-S" style="fill:none;stroke:#27AAE1;opacity:1;stroke-width:0.5;" x1="263" x2="3036" y1="696" y2="696"/>
  <line id="Capline-S" style="fill:none;stroke:#27AAE1;opacity:1;stroke-width:0.5;" x1="263" x2="3036" y1="625.541" y2="625.541"/>
  <g id="H-reference" style="fill:#27AAE1;stroke:none;" transform="matrix(1 0 0 1 339 1126)">
   <path d="M0.976562 0L3.66211 0L12.9883-24.4629L45.752-24.4629L55.127 0L57.7637 0L30.6152-70.459L28.125-70.459ZM29.3457-67.1387L29.4434-67.1387L44.873-26.709L13.8672-26.709Z"/>
  </g>
  <line id="Baseline-M" style="fill:none;stroke:#27AAE1;opacity:1;stroke-width:0.5;" x1="263" x2="3036" y1="1126" y2="1126"/>
  <line id="Capline-M" style="fill:none;stroke:#27AAE1;opacity:1;stroke-width:0.5;" x1="263" x2="3036" y1="1055.54" y2="1055.54"/>
  <g id="H-reference" style="fill:#27AAE1;stroke:none;" transform="matrix(1 0 0 1 339 1556)">
   <path d="M0.976562 0L3.66211 0L12.9883-24.4629L45.752-24.4629L55.127 0L57.7637 0L30.6152-70.459L28.125-70.459ZM29.3457-67.1387L29.4434-67.1387L44.873-26.709L13.8672-26.709Z"/>
  </g>
  <line id="Baseline-L" style="fill:none;stroke:#27AAE1;opacity:1;stroke-width:0.5;" x1="263" x2="3036" y1="1556" y2="1556"/>
  <line id="Capline-L" style="fill:none;stroke:#27AAE1;opacity:1;stroke-width:0.5;" x1="263" x2="3036" y1="1485.54" y2="1485.54"/>
  <line id="left-margin" style="fill:none;stroke:#00AEEF;stroke-width:0.5;opacity:1.0;" x1="1384.02" x2="1384.02" y1="1030.79" y2="1150.12"/>
  <line id="right-margin" style="fill:none;stroke:#00AEEF;stroke-width:0.5;opacity:1.0;" x1="1515.66" x2="1515.66" y1="1030.79" y2="1150.12"/>
 </g>
 <g id="Symbols">
  <g id="Black-L" transform="matrix(1 0 0 1 2842.48 1556)">
   <path d="M63.3789-78.5156C63.3789-70.8008 63.8184-68.2129 69.3359-62.6953L81.5918-50.4395C87.0605-44.9707 94.9219-44.9707 100.391-50.4395L112.695-62.6953C118.164-68.2129 118.604-70.8008 118.604-78.5156L118.604-94.043C118.604-104.346 113.525-110.156 104.297-110.156L77.6855-110.156C68.5059-110.156 63.3789-104.346 63.3789-94.043ZM47.7539-7.66602C55.4688-7.66602 58.0566-8.10547 63.5254-13.5742L75.8301-25.8789C81.2988-31.3477 81.2988-39.209 75.8301-44.6777L63.5254-56.9336C58.0566-62.4512 55.4688-62.8906 47.7539-62.8906L32.2266-62.8906C21.875-62.8906 16.0645-57.7637 16.0645-48.584L16.0645-21.9727C16.0645-12.7441 21.875-7.66602 32.2266-7.66602ZM134.131-62.8906C126.416-62.8906 123.828-62.4512 118.311-56.9336L106.055-44.6777C100.586-39.209 100.586-31.3477 106.055-25.8789L118.311-13.5742C123.828-8.10547 126.416-7.66602 134.131-7.66602L149.609-7.66602C159.961-7.66602 165.771-12.7441 165.771-21.9727L165.771-48.584C165.771-57.7637 159.961-62.8906 149.609-62.8906ZM118.604 7.86133C118.604 0.146484 118.164-2.44141 112.695-7.95898L100.391-20.2148C94.9219-25.6836 87.0605-25.6836 81.5918-20.2148L69.3359-7.95898C63.8184-2.44141 63.3789 0.146484 63.3789 7.86133L63.3789 23.3887C63.3789 33.6914 68.5059 39.502 77.6855 39.502L104.297 39.502C113.525 39.502 118.604 33.6914 118.604 23.3887Z"/>
  </g>
  <g id="Heavy-L" transform="matrix(1 0 0 1 2547.48 1556)">
   <path d="M62.4512-77.4414C62.4512-70.1172 62.9883-67.5781 68.1152-62.4023L80.4199-50.1465C85.5957-44.9707 92.9199-44.9707 98.0957-50.1465L110.4-62.4023C115.527-67.5781 116.064-70.1172 116.064-77.4414L116.064-93.2617C116.064-102.93 111.182-108.447 102.539-108.447L76.0254-108.447C67.334-108.447 62.4512-102.93 62.4512-93.2617ZM47.0215-8.44727C54.3945-8.44727 56.9336-8.98438 62.0605-14.1602L74.3652-26.416C79.541-31.5918 79.541-38.9648 74.3652-44.1406L62.0605-56.3965C56.9336-61.5723 54.3945-62.0605 47.0215-62.0605L31.25-62.0605C21.582-62.0605 16.0645-57.1777 16.0645-48.5352L16.0645-22.0215C16.0645-13.3789 21.582-8.44727 31.25-8.44727ZM131.348-62.0605C124.023-62.0605 121.484-61.5234 116.309-56.3965L104.053-44.0918C98.877-38.9648 98.877-31.5918 104.053-26.416L116.309-14.1113C121.484-8.98438 124.023-8.44727 131.348-8.44727L147.119-8.44727C156.787-8.44727 162.354-13.3301 162.354-22.0215L162.354-48.5352C162.354-57.1777 156.787-62.0605 147.119-62.0605ZM116.064 6.83594C116.064-0.537109 115.527-3.07617 110.4-8.20312L98.0957-20.5078C92.9199-25.6348 85.5957-25.6348 80.4199-20.5078L68.1152-8.20312C62.9883-3.07617 62.4512-0.537109 62.4512 6.83594L62.4512 22.6074C62.4512 32.2754 67.334 37.793 76.0254 37.793L102.539 37.793C111.182 37.793 116.064 32.2754 116.064 22.6074Z"/>
  </g>
  <g id="Bold-L" transform="matrix(1 0 0 1 2252.72 1556)">
   <path d="M61.4258-76.2695C61.4258-69.3848 62.0605-66.8457 66.8457-62.1094L79.1016-49.8047C83.9355-44.9707 90.7227-44.9707 95.5566-49.8047L107.812-62.1094C112.598-66.8457 113.232-69.3848 113.232-76.2695L113.232-92.3828C113.232-101.27 108.594-106.494 100.537-106.494L74.1211-106.494C66.1133-106.494 61.4258-101.27 61.4258-92.3828ZM46.2402-9.375C53.1738-9.375 55.6641-10.0098 60.4492-14.7461L72.7051-27.0508C77.5879-31.8848 77.5879-38.6719 72.7051-43.5059L60.4492-55.7617C55.6641-60.5469 53.1738-61.1816 46.2402-61.1816L30.1758-61.1816C21.2891-61.1816 16.0645-56.4941 16.0645-48.4863L16.0645-22.0215C16.0645-14.0137 21.2891-9.375 30.1758-9.375ZM128.271-61.1328C121.338-61.1328 118.848-60.5469 114.062-55.7617L101.807-43.5059C96.9727-38.623 96.9727-31.8848 101.807-27.002L114.062-14.7461C118.848-9.96094 121.338-9.375 128.271-9.375L144.336-9.375C153.271-9.375 158.447-14.0137 158.447-22.0215L158.447-48.4863C158.447-56.4941 153.271-61.1328 144.336-61.1328ZM113.232 5.71289C113.232-1.2207 112.598-3.71094 107.812-8.49609L95.5566-20.752C90.7227-25.6348 83.9355-25.6348 79.0527-20.752L66.7969-8.49609C62.0605-3.71094 61.4258-1.2207 61.4258 5.71289L61.4258 21.7773C61.4258 30.6641 66.0645 35.8887 74.1211 35.8887L100.537 35.8887C108.545 35.8887 113.232 30.6641 113.232 21.7773Z"/>
  </g>
  <g id="Semibold-L" transform="matrix(1 0 0 1 1957.33 1556)">
   <path d="M60.7422-75.4883C60.7422-68.8477 61.4258-66.3574 65.918-61.8652L78.1738-49.6094C82.8125-44.9707 89.1602-44.9707 93.7988-49.6094L106.055-61.8652C110.596-66.3574 111.279-68.8477 111.279-75.4883L111.279-91.748C111.279-100.146 106.787-105.127 99.1699-105.127L72.8027-105.127C65.2344-105.127 60.7422-100.146 60.7422-91.748ZM45.7031-10.0098C52.3438-10.0098 54.834-10.6934 59.3262-15.1855L71.582-27.4414C76.2207-32.0801 76.2207-38.4766 71.582-43.0664L59.3262-55.3711C54.834-59.8633 52.3438-60.5469 45.7031-60.5469L29.4434-60.5469C21.0449-60.5469 16.0645-56.0547 16.0645-48.4375L16.0645-22.0703C16.0645-14.502 21.0449-10.0098 29.4434-10.0098ZM126.172-60.498C119.531-60.498 117.041-59.8145 112.549-55.3223L100.293-43.0664C95.6543-38.4277 95.6543-32.0801 100.293-27.4414L112.549-15.1855C117.041-10.6934 119.531-9.96094 126.172-9.96094L142.432-9.96094C150.83-9.96094 155.811-14.4531 155.811-22.0703L155.811-48.4375C155.811-56.0059 150.83-60.498 142.432-60.498ZM111.23 4.93164C111.23-1.70898 110.547-4.19922 106.055-8.69141L93.7988-20.9473C89.1602-25.5859 82.8125-25.5859 78.1738-20.9473L65.918-8.69141C61.377-4.19922 60.6934-1.70898 60.6934 4.93164L60.6934 21.1914C60.6934 29.5898 65.1855 34.5703 72.8027 34.5703L99.1699 34.5703C106.738 34.5703 111.23 29.5898 111.23 21.1914Z"/>
  </g>
  <g id="Medium-L" transform="matrix(1 0 0 1 1661.62 1556)">
   <path d="M60.2051-74.8535C60.2051-68.457 60.9375-66.0156 65.2344-61.7188L77.4902-49.4629C81.9336-44.9707 88.0371-44.9707 92.4805-49.4629L104.736-61.7188C109.033-66.0156 109.766-68.457 109.766-74.8535L109.766-91.3086C109.766-99.3164 105.42-104.102 98.1445-104.102L71.7773-104.102C64.5508-104.102 60.2051-99.3164 60.2051-91.3086ZM45.3125-10.4492C51.709-10.4492 54.1992-11.2305 58.4961-15.5273L70.752-27.7832C75.1953-32.2266 75.1953-38.2812 70.752-42.7734L58.4961-55.0293C54.1992-59.3262 51.709-60.0586 45.3125-60.0586L28.9062-60.0586C20.8984-60.0586 16.0645-55.7129 16.0645-48.4375L16.0645-22.0703C16.0645-14.8438 20.8984-10.4492 28.9062-10.4492ZM124.561-60.0586C118.115-60.0586 115.674-59.2773 111.377-54.9805L99.1211-42.7246C94.6289-38.2812 94.6289-32.2266 99.1211-27.7344L111.377-15.4785C115.674-11.1816 118.115-10.4492 124.561-10.4492L140.967-10.4492C148.975-10.4492 153.809-14.7949 153.809-22.0703L153.809-48.4375C153.809-55.6641 148.975-60.0586 140.967-60.0586ZM109.766 4.29688C109.766-2.09961 108.984-4.54102 104.688-8.83789L92.4316-21.0938C87.9883-25.5859 81.9336-25.5859 77.4414-21.0938L65.1855-8.83789C60.8887-4.54102 60.1562-2.09961 60.1562 4.29688L60.1562 20.752C60.1562 28.7598 64.5508 33.5449 71.7773 33.5449L98.1445 33.5449C105.371 33.5449 109.766 28.7598 109.766 20.752Z"/>
  </g>
  <g id="Regular-L" transform="matrix(1 0 0 1 1366.23 1556)">
   <path d="M59.4727-74.0723C59.4727-67.9199 60.3027-65.5273 64.3555-61.4746L76.6113-49.2188C80.8105-44.9707 86.4746-44.9707 90.7227-49.2188L102.979-61.4746C107.031-65.5273 107.861-67.9199 107.861-74.0723L107.861-90.6738C107.861-98.1934 103.662-102.783 96.8262-102.783L70.5078-102.783C63.6719-102.783 59.4727-98.1934 59.4727-90.6738ZM44.7754-11.084C50.9277-11.084 53.3203-11.9141 57.373-15.918L69.6289-28.1738C73.877-32.4219 73.877-38.0859 69.6289-42.334L57.373-54.5898C53.3203-58.6426 50.9277-59.4238 44.7754-59.4238L28.1738-59.4238C20.6543-59.4238 16.0645-55.2246 16.0645-48.3887L16.0645-22.1191C16.0645-15.2832 20.6543-11.084 28.1738-11.084ZM122.461-59.4238C116.309-59.4238 113.867-58.5938 109.863-54.5898L97.6074-42.334C93.3594-38.0859 93.3594-32.4219 97.6074-28.1738L109.863-15.918C113.867-11.8652 116.309-11.084 122.461-11.084L139.062-11.084C146.533-11.084 151.172-15.2832 151.172-22.1191L151.172-48.3887C151.172-55.2246 146.533-59.4238 139.062-59.4238ZM107.812 3.56445C107.812-2.58789 106.982-5.0293 102.979-9.0332L90.7227-21.2891C86.4746-25.5371 80.8105-25.5371 76.5625-21.2891L64.3066-9.0332C60.2539-5.0293 59.4727-2.58789 59.4727 3.56445L59.4727 20.166C59.4727 27.6367 63.6719 32.2266 70.5078 32.2266L96.8262 32.2266C103.613 32.2266 107.812 27.6367 107.812 20.166Z"/>
  </g>
  <g id="Light-L" transform="matrix(1 0 0 1 1071.32 1556)">
   <path d="M58.5449-72.7539C58.5449-67.5781 59.375-64.8438 62.9883-61.2305L75.293-48.9746C79.2969-44.9219 84.4238-44.9219 88.4766-48.9746L100.732-61.2305C104.346-64.8438 105.225-67.5781 105.225-72.7539L105.225-90.4297C105.225-97.168 101.611-100.977 95.2637-100.977L68.4082-100.977C62.1094-100.977 58.5449-97.168 58.5449-90.4297ZM44.2871-11.9141C49.5117-11.9141 52.1973-12.793 55.8105-16.4062L68.0664-28.6621C72.1191-32.7148 72.1191-37.8418 68.0664-41.8457L55.8105-54.1504C52.1973-57.7637 49.5117-58.5938 44.2871-58.5938L26.6602-58.5938C19.9219-58.5938 16.0645-55.0293 16.0645-48.6816L16.0645-21.8262C16.0645-15.5273 19.9219-11.9141 26.6602-11.9141ZM119.336-58.5449C114.111-58.5449 111.426-57.7148 107.812-54.1016L95.5078-41.7969C91.5039-37.793 91.5039-32.666 95.5078-28.6133L107.812-16.3574C111.426-12.7441 114.111-11.8652 119.336-11.8652L136.963-11.8652C143.701-11.8652 147.559-15.4785 147.559-21.8262L147.559-48.6816C147.559-54.9805 143.701-58.5449 136.963-58.5449ZM105.127 2.24609C105.127-2.97852 104.248-5.66406 100.684-9.27734L88.3789-21.582C84.3262-25.5859 79.248-25.5859 75.1953-21.582L62.9395-9.27734C59.3262-5.66406 58.4473-2.97852 58.4473 2.24609L58.4473 19.873C58.4473 26.6113 62.0605 30.4688 68.4082 30.4688L95.2637 30.4688C101.562 30.4688 105.127 26.6113 105.127 19.873Z"/>
  </g>
  <g id="Thin-L" transform="matrix(1 0 0 1 777.003 1556)">
   <path d="M57.2754-71.0449C57.2754-67.0898 58.2031-63.9648 61.2305-60.9375L73.5352-48.6328C77.2949-44.873 81.6895-44.873 85.4492-48.6328L97.7539-60.9375C100.781-63.9648 101.758-67.0898 101.758-71.0449L101.758-90.0391C101.758-95.8008 98.9746-98.6328 93.2617-98.6328L65.6738-98.6328C60.0586-98.6328 57.2754-95.8008 57.2754-90.0391ZM43.6523-13.0371C47.6074-13.0371 50.7324-13.9648 53.7598-16.9922L66.0645-29.2969C69.8242-33.1055 69.8242-37.4512 66.0645-41.2109L53.7598-53.5156C50.7324-56.5918 47.6074-57.5195 43.6523-57.5195L24.6582-57.5195C18.8965-57.5195 16.0645-54.7363 16.0645-49.0234L16.0645-21.4355C16.0645-15.8203 18.8965-13.0371 24.6582-13.0371ZM115.186-57.4219C111.23-57.4219 108.105-56.4941 105.078-53.4668L92.7734-41.1621C89.0137-37.4023 89.0137-33.0078 92.7734-29.248L105.078-16.9434C108.105-13.916 111.23-12.9395 115.186-12.9395L134.229-12.9395C139.941-12.9395 142.773-15.7227 142.773-21.4355L142.773-49.0234C142.773-54.6387 139.941-57.4219 134.229-57.4219ZM101.611 0.488281C101.611-3.4668 100.684-6.5918 97.6074-9.61914L85.3027-21.9238C81.543-25.6836 77.1484-25.6836 73.3887-21.9238L61.084-9.61914C58.0566-6.5918 57.1289-3.4668 57.1289 0.488281L57.1289 19.5312C57.1289 25.2441 59.9121 28.0762 65.625 28.0762L93.1641 28.0762C98.8281 28.0762 101.611 25.2441 101.611 19.5312Z"/>
  </g>
  <g id="Ultralight-L" transform="matrix(1 0 0 1 481.513 1556)">
   <path d="M56.5918-70.166C56.5918-66.8457 57.5684-63.5254 60.3516-60.7422L72.6562-48.4375C76.2695-44.8242 80.2734-44.8242 83.9355-48.4375L96.2402-60.7422C98.9746-63.5254 99.9512-66.8457 99.9512-70.166L99.9512-89.8438C99.9512-95.0684 97.6074-97.4121 92.1875-97.4121L64.3066-97.4121C58.9844-97.4121 56.5918-95.0684 56.5918-89.8438ZM43.3105-13.5742C46.6309-13.5742 49.9512-14.5508 52.7344-17.334L65.0391-29.6387C68.6523-33.252 68.6523-37.2559 65.0391-40.918L52.7344-53.2227C49.9512-55.957 46.6309-56.9336 43.3105-56.9336L23.6328-56.9336C18.4082-56.9336 16.0645-54.5898 16.0645-49.1699L16.0645-21.2891C16.0645-15.9668 18.4082-13.5742 23.6328-13.5742ZM113.086-56.8848C109.766-56.8848 106.445-55.8594 103.711-53.125L91.4062-40.8203C87.7441-37.207 87.7441-33.2031 91.4062-29.541L103.711-17.2363C106.445-14.502 109.766-13.4766 113.086-13.4766L132.812-13.4766C138.037-13.4766 140.332-15.8691 140.332-21.2891L140.332-49.1699C140.332-54.4922 138.037-56.8848 132.812-56.8848ZM99.8047-0.390625C99.8047-3.71094 98.8281-7.03125 96.0449-9.76562L83.7402-22.0703C80.127-25.7324 76.123-25.7324 72.4609-22.0703L60.1562-9.76562C57.4219-7.03125 56.4453-3.71094 56.4453-0.390625L56.4453 19.3359C56.4453 24.5605 58.7891 26.8555 64.209 26.8555L92.1387 26.8555C97.4121 26.8555 99.8047 24.5605 99.8047 19.3359Z"/>
  </g>
  <g id="Black-M" transform="matrix(1 0 0 1 2861.57 1126)">
   <path d="M49.8535-69.4824C49.8535-63.4766 50.0977-61.2793 54.5898-56.7871L64.1113-47.2656C68.6523-42.7246 75.1465-42.7246 79.6875-47.2656L89.209-56.7871C93.7012-61.2793 93.9453-63.4766 93.9453-69.4824L93.9453-81.6895C93.9453-90.2344 90.0391-94.7266 82.373-94.7266L61.4258-94.7266C53.7598-94.7266 49.8535-90.2344 49.8535-81.6895ZM37.6953-13.1836C43.6523-13.1836 45.8496-13.4277 50.3906-17.9688L59.9121-27.4902C64.4043-31.9824 64.4043-38.5254 59.9121-43.0176L50.3906-52.5879C45.8496-57.0801 43.6523-57.3242 37.6953-57.3242L25.4395-57.3242C16.9434-57.3242 12.4512-53.3691 12.4512-45.752L12.4512-24.7559C12.4512-17.1387 16.9434-13.1836 25.4395-13.1836ZM105.957-57.3242C100-57.3242 97.8027-57.0801 93.3105-52.5879L83.7402-43.0176C79.248-38.5254 79.248-31.9824 83.7402-27.4902L93.3105-17.9688C97.8027-13.4277 100-13.1836 105.957-13.1836L118.213-13.1836C126.709-13.1836 131.201-17.1387 131.201-24.7559L131.201-45.752C131.201-53.3691 126.709-57.3242 118.213-57.3242ZM93.9453-1.17188C93.9453-7.17773 93.7012-9.375 89.209-13.8672L79.6875-23.3887C75.1465-27.9297 68.6523-27.9297 64.1113-23.3887L54.5898-13.8672C50.0977-9.375 49.8535-7.17773 49.8535-1.17188L49.8535 11.0352C49.8535 19.5801 53.7598 24.0723 61.4258 24.0723L82.373 24.0723C90.0391 24.0723 93.9453 19.5801 93.9453 11.0352Z"/>
  </g>
  <g id="Heavy-M" transform="matrix(1 0 0 1 2566.28 1126)">
   <path d="M49.0723-68.6523C49.0723-62.8418 49.4141-60.791 53.6621-56.543L63.1836-47.0215C67.4316-42.7734 73.4863-42.7734 77.7344-47.0215L87.3047-56.543C91.5039-60.791 91.8457-62.8418 91.8457-68.6523L91.8457-80.9082C91.8457-88.916 87.9883-93.2617 80.8594-93.2617L60.0586-93.2617C52.9297-93.2617 49.0723-88.916 49.0723-80.9082ZM37.0605-13.8672C42.8711-13.8672 44.9707-14.209 49.1699-18.457L58.6914-27.9785C62.9395-32.2266 62.9395-38.2812 58.6914-42.5781L49.1699-52.0996C44.9707-56.2988 42.8711-56.6406 37.0605-56.6406L24.8047-56.6406C16.7969-56.6406 12.4512-52.7832 12.4512-45.6543L12.4512-24.8535C12.4512-17.7246 16.7969-13.8672 24.8047-13.8672ZM103.76-56.6406C97.9492-56.6406 95.8984-56.2988 91.6504-52.0996L82.1289-42.5293C77.8809-38.2812 77.8809-32.2266 82.1289-27.9785L91.6504-18.457C95.8984-14.209 97.9492-13.8672 103.76-13.8672L116.016-13.8672C124.023-13.8672 128.369-17.7246 128.369-24.8535L128.369-45.6543C128.369-52.7832 124.023-56.6406 116.016-56.6406ZM91.8457-1.95312C91.8457-7.76367 91.5039-9.86328 87.3047-14.1113L77.7344-23.6328C73.4863-27.8809 67.4316-27.8809 63.1836-23.6328L53.6621-14.1113C49.4141-9.86328 49.0723-7.76367 49.0723-1.95312L49.0723 10.3027C49.0723 18.2617 52.9297 22.6562 60.1074 22.6562L80.8594 22.6562C87.9883 22.6562 91.8457 18.2617 91.8457 10.3027Z"/>
  </g>
  <g id="Bold-M" transform="matrix(1 0 0 1 2271.15 1126)">
   <path d="M48.2422-67.7734C48.2422-62.1582 48.6328-60.2051 52.5879-56.25L62.1094-46.7285C66.0645-42.7734 71.6797-42.7734 75.6348-46.7285L85.1562-56.25C89.0625-60.2051 89.502-62.1582 89.502-67.7734L89.502-80.0293C89.502-87.4023 85.7422-91.6504 79.1016-91.6504L58.5938-91.6504C52.002-91.6504 48.2422-87.4023 48.2422-80.0293ZM36.3281-14.6484C41.9922-14.6484 43.9453-15.0391 47.8516-18.9941L57.373-28.5156C61.3281-32.4707 61.3281-38.0859 57.373-42.041L47.8516-51.5137C43.9453-55.4688 41.9922-55.9082 36.3281-55.9082L24.0723-55.9082C16.6992-55.9082 12.4512-52.1484 12.4512-45.5078L12.4512-25C12.4512-18.4082 16.6992-14.6484 24.0723-14.6484ZM101.318-55.9082C95.7031-55.9082 93.75-55.4688 89.7949-51.5137L80.2734-41.9922C76.3184-38.0371 76.3184-32.4707 80.2734-28.5156L89.7949-18.9941C93.75-15.0391 95.7031-14.5996 101.318-14.5996L113.574-14.5996C120.947-14.5996 125.195-18.4082 125.195-25L125.195-45.5078C125.195-52.0996 120.947-55.9082 113.574-55.9082ZM89.502-2.7832C89.502-8.44727 89.0625-10.4004 85.1562-14.3555L75.6348-23.8281C71.6797-27.7832 66.0645-27.7832 62.1094-23.8281L52.5879-14.3555C48.6328-10.4004 48.2422-8.44727 48.2422-2.7832L48.2422 9.47266C48.2422 16.8457 52.002 21.0938 58.5938 21.0938L79.1504 21.0938C85.7422 21.0938 89.502 16.8457 89.502 9.47266Z"/>
  </g>
  <g id="Semibold-M" transform="matrix(1 0 0 1 1975.54 1126)">
   <path d="M47.6562-67.1387C47.6562-61.6699 48.1445-59.7656 51.8555-56.0547L61.377-46.5332C65.1367-42.7734 70.4102-42.7734 74.1699-46.5332L83.6426-56.0547C87.4023-59.7656 87.8906-61.6699 87.8906-67.1387L87.8906-79.4434C87.8906-86.377 84.1797-90.5273 77.9297-90.5273L57.5684-90.5273C51.3672-90.5273 47.6562-86.377 47.6562-79.4434ZM35.8398-15.1367C41.3574-15.1367 43.2129-15.625 46.9238-19.3848L56.4453-28.8574C60.2051-32.6172 60.2051-37.8906 56.4453-41.6504L46.9238-51.1719C43.2129-54.8828 41.3574-55.3711 35.8398-55.3711L23.584-55.3711C16.6016-55.3711 12.4512-51.6602 12.4512-45.459L12.4512-25.0488C12.4512-18.8477 16.6016-15.1367 23.584-15.1367ZM99.6094-55.3711C94.1406-55.3711 92.2363-54.8828 88.5254-51.1719L79.0039-41.6504C75.2441-37.8906 75.2441-32.6172 79.0039-28.8574L88.5254-19.3359C92.2363-15.625 94.1406-15.1367 99.6094-15.1367L111.914-15.1367C118.848-15.1367 122.998-18.8477 122.998-25.0488L122.998-45.459C122.998-51.6602 118.848-55.3711 111.914-55.3711ZM87.8906-3.41797C87.8906-8.93555 87.4023-10.791 83.6426-14.502L74.1699-24.0234C70.4102-27.7832 65.1367-27.7832 61.377-24.0234L51.8555-14.502C48.1445-10.791 47.6562-8.93555 47.6562-3.41797L47.6562 8.88672C47.6562 15.8203 51.3672 19.9707 57.5684 19.9707L77.9297 19.9707C84.1797 19.9707 87.8906 15.8203 87.8906 8.88672Z"/>
  </g>
  <g id="Medium-M" transform="matrix(1 0 0 1 1679.66 1126)">
   <path d="M47.2168-66.6992C47.2168-61.2793 47.7539-59.4727 51.3184-55.9082L60.791-46.3867C64.4043-42.8223 69.4336-42.8223 73.0469-46.3867L82.5195-55.9082C86.084-59.4727 86.6211-61.2793 86.6211-66.6992L86.6211-78.9551C86.6211-85.6445 82.959-89.6973 77.0508-89.6973L56.7871-89.6973C50.8789-89.6973 47.2168-85.6445 47.2168-78.9551ZM35.4492-15.5273C40.8691-15.5273 42.6758-16.0645 46.2402-19.6289L55.7617-29.1504C59.3262-32.7637 59.3262-37.793 55.7617-41.3574L46.2402-50.8789C42.6758-54.4434 40.8691-54.9805 35.4492-54.9805L23.1934-54.9805C16.5527-54.9805 12.4512-51.3184 12.4512-45.3613L12.4512-25.1465C12.4512-19.1895 16.5527-15.5273 23.1934-15.5273ZM98.3398-54.9805C92.9199-54.9805 91.1133-54.4434 87.5488-50.8789L78.0762-41.3574C74.4629-37.7441 74.4629-32.7148 78.0762-29.1504L87.5488-19.6289C91.1133-16.0645 92.9199-15.5273 98.3398-15.5273L110.645-15.5273C117.285-15.5273 121.338-19.1895 121.338-25.1465L121.338-45.3613C121.338-51.3184 117.285-54.9805 110.645-54.9805ZM86.6211-3.85742C86.6211-9.27734 86.084-11.084 82.5195-14.6484L73.0469-24.1211C69.4336-27.7344 64.4043-27.7344 60.791-24.1211L51.3184-14.6484C47.7539-11.084 47.2168-9.27734 47.2168-3.85742L47.2168 8.44727C47.2168 15.0879 50.8789 19.1406 56.7871 19.1406L77.0508 19.1406C82.959 19.1406 86.6211 15.0879 86.6211 8.44727Z"/>
  </g>
  <g id="Regular-M" transform="matrix(1 0 0 1 1384.02 1126)">
   <path d="M46.6309-66.0645C46.6309-60.791 47.2168-59.082 50.5859-55.7129L60.0586-46.2402C63.4766-42.8223 68.1641-42.8223 71.582-46.2402L81.0547-55.7129C84.4238-59.082 85.0586-60.791 85.0586-66.0645L85.0586-78.3691C85.0586-84.6191 81.4453-88.623 75.8789-88.623L55.7617-88.623C50.2441-88.623 46.6309-84.6191 46.6309-78.3691ZM34.9609-16.0645C40.2832-16.0645 41.9922-16.6504 45.3613-20.0195L54.834-29.4922C58.252-32.9102 58.252-37.5977 54.834-41.0156L45.3613-50.4883C41.9922-53.8574 40.2832-54.4922 34.9609-54.4922L22.7051-54.4922C16.4551-54.4922 12.4512-50.8789 12.4512-45.3125L12.4512-25.1953C12.4512-19.6777 16.4551-16.0645 22.7051-16.0645ZM96.6797-54.4434C91.3574-54.4434 89.6484-53.8574 86.2793-50.4883L76.8066-41.0156C73.3887-37.5977 73.3887-32.9102 76.8066-29.4922L86.2793-20.0195C89.6484-16.6504 91.3574-16.0156 96.6797-16.0156L108.936-16.0156C115.186-16.0156 119.189-19.6289 119.189-25.1953L119.189-45.3125C119.189-50.8301 115.186-54.4434 108.936-54.4434ZM85.0586-4.44336C85.0586-9.7168 84.4238-11.4258 81.0547-14.7949L71.582-24.3164C68.1641-27.6855 63.4766-27.6855 60.0586-24.3164L50.5859-14.7949C47.2168-11.4258 46.6309-9.7168 46.6309-4.44336L46.6309 7.86133C46.6309 14.1113 50.2441 18.0664 55.8105 18.0664L75.8789 18.0664C81.4453 18.0664 85.0586 14.1113 85.0586 7.86133Z"/>
  </g>
  <g id="Light-M" transform="matrix(1 0 0 1 1088.92 1126)">
   <path d="M45.752-64.8926C45.752-60.4492 46.4355-58.4961 49.4141-55.5176L58.8867-45.9961C62.1094-42.7734 66.3574-42.7734 69.5312-45.9961L79.0527-55.5176C82.0312-58.4961 82.7148-60.4492 82.7148-64.8926L82.7148-78.125C82.7148-83.6914 79.6387-87.0117 74.5117-87.0117L53.9551-87.0117C48.8281-87.0117 45.752-83.6914 45.752-78.125ZM34.5215-16.7969C39.0137-16.7969 40.9668-17.4316 43.9453-20.4102L53.4668-29.9316C56.6895-33.1543 56.6895-37.3535 53.4668-40.5762L43.9453-50.0977C40.9668-53.0762 39.0137-53.7109 34.5215-53.7109L21.3379-53.7109C15.7715-53.7109 12.4512-50.6836 12.4512-45.5078L12.4512-24.9512C12.4512-19.873 15.7715-16.7969 21.3379-16.7969ZM93.8477-53.7109C89.4043-53.7109 87.4512-53.0273 84.4727-50.0488L74.9512-40.5762C71.7285-37.3535 71.7285-33.1055 74.9512-29.8828L84.4727-20.4102C87.4512-17.4316 89.4043-16.748 93.8477-16.748L107.08-16.748C112.646-16.748 115.967-19.8242 115.967-24.9512L115.967-45.5078C115.967-50.6348 112.646-53.7109 107.08-53.7109ZM82.666-5.61523C82.666-10.0586 81.9824-12.0605 79.0039-15.0391L69.5312-24.5117C66.3086-27.7344 62.0605-27.7344 58.8867-24.5117L49.3652-15.0391C46.3867-12.0605 45.7031-10.0586 45.7031-5.61523L45.7031 7.61719C45.7031 13.1836 48.7793 16.4551 53.9062 16.4551L74.5117 16.4551C79.5898 16.4551 82.666 13.1836 82.666 7.61719Z"/>
  </g>
  <g id="Thin-M" transform="matrix(1 0 0 1 794.362 1126)">
   <path d="M44.6289-63.3301C44.6289-60.0098 45.3613-57.7148 47.8516-55.2246L57.373-45.7031C60.3516-42.7246 63.916-42.7246 66.8945-45.7031L76.416-55.2246C78.8574-57.7148 79.5898-60.0098 79.5898-63.3301L79.5898-77.7832C79.5898-82.4707 77.2461-84.8633 72.7051-84.8633L51.5137-84.8633C46.9727-84.8633 44.6289-82.4707 44.6289-77.7832ZM33.9844-17.7734C37.3047-17.7734 39.6484-18.5059 42.0898-20.9961L51.6602-30.5176C54.6387-33.4961 54.6387-37.0117 51.6602-40.0391L42.0898-49.5605C39.6484-52.002 37.3047-52.7344 33.9844-52.7344L19.5312-52.7344C14.8926-52.7344 12.4512-50.3906 12.4512-45.8496L12.4512-24.6094C12.4512-20.1172 14.8926-17.7734 19.5312-17.7734ZM90.1855-52.6855C86.8164-52.6855 84.5215-51.9531 82.0312-49.5117L72.5098-39.9414C69.5312-36.9629 69.5312-33.4473 72.5098-30.4688L82.0312-20.9473C84.5215-18.457 86.8164-17.7246 90.1855-17.7246L104.59-17.7246C109.277-17.7246 111.67-20.0684 111.67-24.6094L111.67-45.8496C111.67-50.3418 109.277-52.6855 104.59-52.6855ZM79.4922-7.17773C79.4922-10.498 78.7598-12.8418 76.3184-15.2832L66.7969-24.8535C63.8184-27.832 60.2539-27.832 57.2754-24.8535L47.7539-15.2832C45.2637-12.8418 44.5312-10.498 44.5312-7.17773L44.5312 7.27539C44.5312 11.9141 46.875 14.3555 51.4648 14.3555L72.6562 14.3555C77.1484 14.3555 79.4922 11.9141 79.4922 7.27539Z"/>
  </g>
  <g id="Ultralight-M" transform="matrix(1 0 0 1 498.725 1126)">
   <path d="M44.043-62.5488C44.043-59.8145 44.8242-57.2754 47.0215-55.0781L56.5918-45.5078C59.4238-42.6758 62.6465-42.6758 65.4785-45.5078L75.0488-55.0781C77.2461-57.2754 78.0273-59.8145 78.0273-62.5488L78.0273-77.6367C78.0273-81.8359 76.0254-83.7891 71.7773-83.7891L50.2441-83.7891C46.0449-83.7891 44.043-81.8359 44.043-77.6367ZM33.6914-18.3105C36.4258-18.3105 38.9648-19.043 41.1621-21.2402L50.6836-30.8105C53.5645-33.6426 53.5645-36.8652 50.6836-39.7461L41.1621-49.2676C38.9648-51.4648 36.4258-52.2461 33.6914-52.2461L18.6035-52.2461C14.4043-52.2461 12.4512-50.293 12.4512-45.9961L12.4512-24.4629C12.4512-20.2637 14.4043-18.3105 18.6035-18.3105ZM88.2812-52.1484C85.498-52.1484 83.0078-51.416 80.7617-49.2188L71.2402-39.6484C68.4082-36.8164 68.4082-33.5938 71.2402-30.7129L80.7617-21.1914C83.0078-18.9941 85.498-18.2129 88.2812-18.2129L103.32-18.2129C107.52-18.2129 109.521-20.166 109.521-24.4629L109.521-45.9961C109.521-50.1953 107.52-52.1484 103.32-52.1484ZM77.8809-7.95898C77.8809-10.7422 77.1484-13.2324 74.9023-15.4297L65.3809-25C62.5-27.832 59.3262-27.832 56.4453-25L46.9238-15.4297C44.6777-13.2324 43.9453-10.7422 43.9453-7.95898L43.9453 7.12891C43.9453 11.3281 45.8984 13.2812 50.1953 13.2812L71.7285 13.2812C75.9277 13.2812 77.8809 11.3281 77.8809 7.12891Z"/>
  </g>
  <g id="Black-S" transform="matrix(1 0 0 1 2877.2 696)">
   <path d="M38.9648-62.0117C38.9648-57.3242 39.1602-55.6152 42.6758-52.0996L50.1465-44.6289C53.6621-41.1133 58.7402-41.1133 62.2559-44.6289L69.7266-52.0996C73.2422-55.6152 73.4375-57.3242 73.4375-62.0117L73.4375-71.582C73.4375-78.2227 70.3613-81.7383 64.4043-81.7383L47.998-81.7383C42.041-81.7383 38.9648-78.2227 38.9648-71.582ZM29.4922-18.0176C34.1797-18.0176 35.8887-18.2129 39.4043-21.7285L46.875-29.1992C50.3906-32.7148 50.3906-37.793 46.875-41.3086L39.4043-48.7793C35.8887-52.2949 34.1797-52.4902 29.4922-52.4902L19.9219-52.4902C13.2812-52.4902 9.76562-49.4141 9.76562-43.457L9.76562-27.0508C9.76562-21.0938 13.2812-18.0176 19.9219-18.0176ZM82.9102-52.4902C78.2227-52.4902 76.5137-52.2949 72.998-48.7793L65.5273-41.3086C62.0117-37.793 62.0117-32.7148 65.5273-29.1992L72.998-21.7285C76.5137-18.2129 78.2227-18.0176 82.9102-18.0176L92.4805-18.0176C99.1211-18.0176 102.637-21.0938 102.637-27.0508L102.637-43.457C102.637-49.4141 99.1211-52.4902 92.4805-52.4902ZM73.4375-8.59375C73.4375-13.2812 73.2422-14.9902 69.7266-18.5059L62.2559-25.9766C58.7402-29.4922 53.6621-29.4922 50.1465-25.9766L42.6758-18.5059C39.1602-14.9902 38.9648-13.2812 38.9648-8.59375L38.9648 0.976562C38.9648 7.61719 42.041 11.1328 47.998 11.1328L64.4043 11.1328C70.3613 11.1328 73.4375 7.61719 73.4375 0.976562Z"/>
  </g>
  <g id="Heavy-S" transform="matrix(1 0 0 1 2581.39 696)">
   <path d="M38.4766-61.5234C38.4766-56.8848 38.7695-55.2734 42.0898-51.9531L49.5605-44.4824C52.8809-41.1133 57.7148-41.1133 61.0352-44.4824L68.5059-51.9531C71.8262-55.2734 72.1191-56.8848 72.1191-61.5234L72.1191-70.9961C72.1191-77.2949 69.043-80.8105 63.3789-80.8105L47.2168-80.8105C41.5527-80.8105 38.4766-77.2949 38.4766-70.9961ZM29.0527-18.457C33.6914-18.457 35.3027-18.7012 38.6719-22.0703L46.0938-29.4922C49.4629-32.8613 49.4629-37.6465 46.0938-41.0156L38.6719-48.4375C35.3027-51.8066 33.6914-52.0508 29.0527-52.0508L19.5801-52.0508C13.2812-52.0508 9.76562-48.9746 9.76562-43.3594L9.76562-27.1484C9.76562-21.5332 13.2812-18.457 19.5801-18.457ZM81.543-52.0508C76.9043-52.0508 75.293-51.8066 71.9238-48.4375L64.502-41.0156C61.1328-37.6465 61.1328-32.8613 64.502-29.4922L71.9238-22.0703C75.293-18.7012 76.9043-18.457 81.543-18.457L91.0156-18.457C97.3145-18.457 100.83-21.5332 100.83-27.1484L100.83-43.3594C100.83-48.9746 97.3145-52.0508 91.0156-52.0508ZM72.1191-9.0332C72.1191-13.7207 71.8262-15.2832 68.5059-18.6523L61.0352-26.123C57.7148-29.4434 52.8809-29.4434 49.5605-26.123L42.0898-18.6523C38.7695-15.2832 38.4766-13.7207 38.4766-9.0332L38.4766 0.439453C38.4766 6.73828 41.5527 10.2539 47.2168 10.2539L63.3789 10.2539C69.043 10.2539 72.1191 6.73828 72.1191 0.439453Z"/>
  </g>
  <g id="Bold-S" transform="matrix(1 0 0 1 2285.71 696)">
   <path d="M37.9883-60.9863C37.9883-56.3477 38.2812-54.9316 41.4551-51.7578L48.9258-44.2871C52.0508-41.1621 56.543-41.1621 59.668-44.2871L67.1387-51.7578C70.3125-54.9316 70.6055-56.3477 70.6055-60.9863L70.6055-70.3613C70.6055-76.3184 67.5293-79.7852 62.2559-79.7852L46.2891-79.7852C41.0645-79.7852 37.9883-76.3184 37.9883-70.3613ZM28.5645-18.9453C33.1543-18.9453 34.6191-19.2383 37.793-22.4121L45.2637-29.8828C48.3887-33.0078 48.3887-37.5 45.2637-40.625L37.793-48.0957C34.6191-51.2695 33.1543-51.5625 28.5645-51.5625L19.1895-51.5625C13.2324-51.5625 9.76562-48.4863 9.76562-43.2129L9.76562-27.2949C9.76562-22.0215 13.2324-18.9453 19.1895-18.9453ZM80.0293-51.5625C75.3906-51.5625 73.9258-51.2695 70.752-48.0957L63.3301-40.625C60.1562-37.5 60.1562-33.0078 63.3301-29.8828L70.752-22.4121C73.9258-19.2383 75.3906-18.9453 80.0293-18.9453L89.4043-18.9453C95.3125-18.9453 98.7793-22.0215 98.7793-27.2949L98.7793-43.2129C98.7793-48.4863 95.3125-51.5625 89.4043-51.5625ZM70.6055-9.57031C70.6055-14.209 70.3125-15.625 67.1387-18.7988L59.668-26.2695C56.543-29.3945 52.0508-29.3945 48.9258-26.2695L41.4551-18.7988C38.2812-15.625 37.9883-14.209 37.9883-9.57031L37.9883-0.195312C37.9883 5.76172 41.0645 9.22852 46.2891 9.22852L62.2559 9.22852C67.5293 9.22852 70.6055 5.76172 70.6055-0.195312Z"/>
  </g>
  <g id="Semibold-S" transform="matrix(1 0 0 1 1989.68 696)">
   <path d="M37.5977-60.6445C37.5977-56.0059 37.9883-54.6387 41.0156-51.6113L48.4375-44.1895C51.4648-41.1621 55.7617-41.1621 58.7402-44.1895L66.1621-51.6113C69.2383-54.6387 69.5801-56.0059 69.5801-60.6445L69.5801-69.9219C69.5801-75.5859 66.5039-79.0527 61.4746-79.0527L45.7031-79.0527C40.6738-79.0527 37.5977-75.5859 37.5977-69.9219ZM28.2227-19.2383C32.8125-19.2383 34.1797-19.6289 37.207-22.6562L44.6777-30.127C47.6562-33.1055 47.6562-37.4023 44.6777-40.3809L37.207-47.8516C34.1797-50.8789 32.8125-51.2695 28.2227-51.2695L18.8965-51.2695C13.2324-51.2695 9.76562-48.1445 9.76562-43.1641L9.76562-27.3438C9.76562-22.3633 13.2324-19.2383 18.8965-19.2383ZM78.9551-51.2207C74.3652-51.2207 72.998-50.8789 69.9219-47.8516L62.5-40.3809C59.5215-37.4023 59.5215-33.1055 62.5-30.127L69.9219-22.6562C72.998-19.6289 74.3652-19.2383 78.9551-19.2383L88.2324-19.2383C93.9453-19.2383 97.4121-22.3633 97.4121-27.3438L97.4121-43.1641C97.4121-48.1445 93.9453-51.2207 88.2324-51.2207ZM69.5801-9.91211C69.5801-14.502 69.2383-15.8691 66.1621-18.9453L58.7402-26.3672C55.7617-29.3457 51.4648-29.3457 48.4375-26.3672L41.0156-18.9453C37.9883-15.8691 37.5977-14.502 37.5977-9.91211L37.5977-0.634766C37.5977 5.07812 40.6738 8.54492 45.7031 8.54492L61.4746 8.54492C66.5039 8.54492 69.5801 5.07812 69.5801-0.634766Z"/>
  </g>
  <g id="Medium-S" transform="matrix(1 0 0 1 1693.5 696)">
   <path d="M37.3047-60.3516C37.3047-55.7617 37.7441-54.4434 40.6738-51.5137L48.0957-44.0918C50.9766-41.2109 55.127-41.2109 58.0078-44.0918L65.4785-51.5137C68.4082-54.4434 68.7988-55.7617 68.7988-60.3516L68.7988-69.5801C68.7988-75.0488 65.7227-78.5156 60.8887-78.5156L45.2148-78.5156C40.4297-78.5156 37.3047-75.0488 37.3047-69.5801ZM27.9785-19.5312C32.5195-19.5312 33.8379-19.9219 36.7676-22.8516L44.2383-30.2734C47.1191-33.2031 47.1191-37.3047 44.2383-40.2344L36.7676-47.6562C33.8379-50.5859 32.5195-50.9766 27.9785-50.9766L18.7012-50.9766C13.2324-50.9766 9.76562-47.9004 9.76562-43.0664L9.76562-27.4414C9.76562-22.6074 13.2324-19.5312 18.7012-19.5312ZM78.1738-50.9766C73.584-50.9766 72.2656-50.5859 69.3359-47.6562L61.8652-40.2344C58.9844-37.3047 58.9844-33.2031 61.8652-30.2734L69.3359-22.8516C72.2656-19.9219 73.584-19.5312 78.1738-19.5312L87.4023-19.5312C92.8711-19.5312 96.3379-22.6074 96.3379-27.4414L96.3379-43.0664C96.3379-47.9004 92.8711-50.9766 87.4023-50.9766ZM68.7988-10.2051C68.7988-14.7461 68.4082-16.0645 65.4785-18.9941L58.0078-26.4648C55.127-29.3457 50.9766-29.3457 48.0957-26.4648L40.6738-18.9941C37.7441-16.0645 37.3047-14.7461 37.3047-10.2051L37.3047-0.927734C37.3047 4.54102 40.4297 8.00781 45.2148 8.00781L60.8887 8.00781C65.7227 8.00781 68.7988 4.54102 68.7988-0.927734Z"/>
  </g>
  <g id="Regular-S" transform="matrix(1 0 0 1 1397.48 696)">
   <path d="M36.9629-59.9609C36.9629-55.4199 37.4023-54.1992 40.2344-51.3672L47.6562-43.9453C50.3906-41.2109 54.3457-41.2109 57.0801-43.9453L64.502-51.3672C67.334-54.1992 67.7734-55.4199 67.7734-59.9609L67.7734-69.1406C67.7734-74.3652 64.6973-77.832 60.1074-77.832L44.6289-77.832C40.0391-77.832 36.9629-74.3652 36.9629-69.1406ZM27.6367-19.8242C32.1777-19.8242 33.3984-20.3125 36.2305-23.0957L43.6523-30.5176C46.3867-33.3008 46.3867-37.207 43.6523-39.9902L36.2305-47.4121C33.3984-50.1953 32.1777-50.6836 27.6367-50.6836L18.457-50.6836C13.2324-50.6836 9.76562-47.5586 9.76562-43.0176L9.76562-27.4902C9.76562-22.9492 13.2324-19.8242 18.457-19.8242ZM77.0996-50.6836C72.5586-50.6836 71.3379-50.1953 68.5059-47.4121L61.084-39.9902C58.3496-37.207 58.3496-33.3008 61.084-30.5176L68.5059-23.0957C71.3379-20.2637 72.5586-19.8242 77.0996-19.8242L86.2793-19.8242C91.5039-19.8242 94.9707-22.9492 94.9707-27.4902L94.9707-43.0176C94.9707-47.5586 91.5039-50.6836 86.2793-50.6836ZM67.7734-10.5469C67.7734-15.0879 67.334-16.3086 64.502-19.1406L57.0801-26.5625C54.3457-29.2969 50.3906-29.2969 47.6562-26.5625L40.2344-19.1406C37.4023-16.3086 36.9629-15.0879 36.9629-10.5469L36.9629-1.36719C36.9629 3.85742 40.0391 7.32422 44.6289 7.32422L60.1074 7.32422C64.6973 7.32422 67.7734 3.85742 67.7734-1.36719Z"/>
  </g>
  <g id="Light-S" transform="matrix(1 0 0 1 1102.21 696)">
   <path d="M36.1816-58.9355C36.1816-55.127 36.7188-53.6621 39.1602-51.1719L46.6309-43.75C49.2188-41.1621 52.6855-41.1621 55.2734-43.75L62.7441-51.1719C65.2344-53.6621 65.7227-55.127 65.7227-58.9355L65.7227-68.9453C65.7227-73.5352 63.0859-76.416 58.9355-76.416L42.9688-76.416C38.8184-76.416 36.1816-73.5352 36.1816-68.9453ZM27.2461-20.5078C31.0547-20.5078 32.4707-20.9961 34.9609-23.4863L42.4316-30.9082C45.0195-33.4961 45.0195-37.0117 42.4316-39.5996L34.9609-47.0215C32.4707-49.5117 31.0547-50 27.2461-50L17.2363-50C12.6465-50 9.76562-47.4121 9.76562-43.2129L9.76562-27.2949C9.76562-23.0957 12.6465-20.5078 17.2363-20.5078ZM74.6094-50C70.8008-50 69.3848-49.5117 66.8945-47.0215L59.4238-39.5508C56.8359-36.9629 56.8359-33.4961 59.4238-30.9082L66.8945-23.4375C69.3848-20.9961 70.8008-20.5078 74.6094-20.5078L84.6191-20.5078C89.2578-20.5078 92.0898-23.0957 92.0898-27.2949L92.0898-43.2129C92.0898-47.3633 89.2578-50 84.6191-50ZM65.6738-11.5723C65.6738-15.3809 65.1855-16.8457 62.6953-19.3359L55.2734-26.7578C52.6855-29.3457 49.1699-29.3457 46.582-26.7578L39.1602-19.3359C36.6699-16.8457 36.1816-15.3809 36.1816-11.5723L36.1816-1.5625C36.1816 3.02734 38.7695 5.9082 42.9688 5.9082L58.8867 5.9082C63.0859 5.9082 65.6738 3.02734 65.6738-1.5625Z"/>
  </g>
  <g id="Thin-S" transform="matrix(1 0 0 1 807.374 696)">
   <path d="M35.2051-57.5684C35.2051-54.7363 35.7422-52.9785 37.793-50.9277L45.2637-43.5059C47.6074-41.1133 50.5371-41.1133 52.9297-43.5059L60.3516-50.9277C62.4023-52.9785 62.9395-54.7363 62.9395-57.5684L62.9395-68.6523C62.9395-72.4609 60.9863-74.5117 57.3242-74.5117L40.8203-74.5117C37.1582-74.5117 35.2051-72.4609 35.2051-68.6523ZM26.7578-21.3867C29.541-21.3867 31.2988-21.9238 33.3496-23.9746L40.8203-31.3965C43.2129-33.7891 43.2129-36.7188 40.8203-39.1113L33.3496-46.5332C31.2988-48.584 29.541-49.1211 26.7578-49.1211L15.6738-49.1211C11.8164-49.1211 9.76562-47.168 9.76562-43.457L9.76562-27.002C9.76562-23.3398 11.8164-21.3867 15.6738-21.3867ZM71.3379-49.1211C68.5547-49.1211 66.7969-48.5352 64.7461-46.5332L57.2754-39.0625C54.8828-36.6699 54.8828-33.7402 57.2754-31.3965L64.7461-23.9258C66.7969-21.875 68.5547-21.3379 71.3379-21.3379L82.4219-21.3379C86.2793-21.3379 88.3301-23.291 88.3301-27.002L88.3301-43.457C88.3301-47.1191 86.2793-49.1211 82.4219-49.1211ZM62.8906-12.9395C62.8906-15.7715 62.3535-17.5293 60.3027-19.5801L52.832-27.002C50.4395-29.3945 47.5586-29.3945 45.166-27.002L37.6953-19.5801C35.6934-17.5293 35.1074-15.7715 35.1074-12.9395L35.1074-1.85547C35.1074 1.95312 37.1094 4.00391 40.7715 4.00391L57.2754 4.00391C60.9375 4.00391 62.8906 1.95312 62.8906-1.85547Z"/>
  </g>
  <g id="Ultralight-S" transform="matrix(1 0 0 1 511.64 696)">
   <path d="M34.668-56.8359C34.668-54.541 35.2539-52.6367 37.0605-50.8301L44.5312-43.3594C46.8262-41.0645 49.4141-41.0645 51.709-43.3594L59.1797-50.8301C60.9863-52.6367 61.5723-54.541 61.5723-56.8359L61.5723-68.5059C61.5723-71.9238 59.9121-73.584 56.4941-73.584L39.6973-73.584C36.3281-73.584 34.668-71.9238 34.668-68.5059ZM26.4648-21.8262C28.8086-21.8262 30.7129-22.4121 32.5195-24.2188L39.9902-31.6895C42.2363-33.9355 42.2363-36.5723 39.9902-38.8184L32.5195-46.2891C30.7129-48.0957 28.8086-48.6816 26.4648-48.6816L14.8438-48.6816C11.4258-48.6816 9.76562-47.0703 9.76562-43.6035L9.76562-26.8555C9.76562-23.4375 11.4258-21.8262 14.8438-21.8262ZM69.6777-48.6328C67.3828-48.6328 65.4297-48.0469 63.623-46.2402L56.1523-38.7695C53.9062-36.5234 53.9062-33.8867 56.1523-31.6406L63.623-24.1699C65.4297-22.3633 67.3828-21.7773 69.6777-21.7773L81.2988-21.7773C84.7168-21.7773 86.377-23.3887 86.377-26.8555L86.377-43.6035C86.377-47.0215 84.7168-48.6328 81.2988-48.6328ZM61.4746-13.6719C61.4746-15.9668 60.8887-17.8711 59.082-19.6777L51.6113-27.1484C49.3164-29.4434 46.7285-29.4434 44.4336-27.1484L36.9629-19.6777C35.1562-17.8711 34.6191-15.9668 34.6191-13.6719L34.6191-2.00195C34.6191 1.41602 36.2305 3.07617 39.6484 3.07617L56.4453 3.07617C59.8145 3.07617 61.4746 1.41602 61.4746-2.00195Z"/>
  </g>
 </g>
</svg>
