<?xml version="1.0" encoding="UTF-8"?>
<!--Generator: Apple Native CoreSVG 129-->
<!DOCTYPE svg
PUBLIC "-//W3C//DTD SVG 1.1//EN"
       "http://www.w3.org/Graphics/SVG/1.1/DTD/svg11.dtd">
<svg version="1.1" xmlns="http://www.w3.org/2000/svg" xmlns:xlink="http://www.w3.org/1999/xlink" width="3300" height="2200">
 <!--glyph: "uni1002A9.medium", point size: 100.000000, font version: "Version 16.0d9e1", template writer version: "8"-->
 <g id="Notes">
  <rect height="2200" id="artboard" style="fill:white;opacity:1" width="3300" x="0" y="0"/>
  <line id="" style="fill:none;stroke:black;opacity:1;stroke-width:0.5;" x1="263" x2="3036" y1="292" y2="292"/>
  <text style="stroke:none;fill:black;font-family:-apple-system,&quot;SF Pro Display&quot;,&quot;SF Pro Text&quot;,Helvetica,sans-serif;font-weight:bold;" transform="matrix(1 0 0 1 263 322)">Weight/Scale Variations</text>
  <text style="stroke:none;fill:black;font-family:-apple-system,&quot;SF Pro Display&quot;,&quot;SF Pro Text&quot;,Helvetica,sans-serif;text-anchor:middle;" transform="matrix(1 0 0 1 559.711 322)">Ultralight</text>
  <text style="stroke:none;fill:black;font-family:-apple-system,&quot;SF Pro Display&quot;,&quot;SF Pro Text&quot;,Helvetica,sans-serif;text-anchor:middle;" transform="matrix(1 0 0 1 856.422 322)">Thin</text>
  <text style="stroke:none;fill:black;font-family:-apple-system,&quot;SF Pro Display&quot;,&quot;SF Pro Text&quot;,Helvetica,sans-serif;text-anchor:middle;" transform="matrix(1 0 0 1 1153.13 322)">Light</text>
  <text style="stroke:none;fill:black;font-family:-apple-system,&quot;SF Pro Display&quot;,&quot;SF Pro Text&quot;,Helvetica,sans-serif;text-anchor:middle;" transform="matrix(1 0 0 1 1449.84 322)">Regular</text>
  <text style="stroke:none;fill:black;font-family:-apple-system,&quot;SF Pro Display&quot;,&quot;SF Pro Text&quot;,Helvetica,sans-serif;text-anchor:middle;" transform="matrix(1 0 0 1 1746.56 322)">Medium</text>
  <text style="stroke:none;fill:black;font-family:-apple-system,&quot;SF Pro Display&quot;,&quot;SF Pro Text&quot;,Helvetica,sans-serif;text-anchor:middle;" transform="matrix(1 0 0 1 2043.27 322)">Semibold</text>
  <text style="stroke:none;fill:black;font-family:-apple-system,&quot;SF Pro Display&quot;,&quot;SF Pro Text&quot;,Helvetica,sans-serif;text-anchor:middle;" transform="matrix(1 0 0 1 2339.98 322)">Bold</text>
  <text style="stroke:none;fill:black;font-family:-apple-system,&quot;SF Pro Display&quot;,&quot;SF Pro Text&quot;,Helvetica,sans-serif;text-anchor:middle;" transform="matrix(1 0 0 1 2636.69 322)">Heavy</text>
  <text style="stroke:none;fill:black;font-family:-apple-system,&quot;SF Pro Display&quot;,&quot;SF Pro Text&quot;,Helvetica,sans-serif;text-anchor:middle;" transform="matrix(1 0 0 1 2933.4 322)">Black</text>
  <line id="" style="fill:none;stroke:black;opacity:1;stroke-width:0.5;" x1="263" x2="3036" y1="1903" y2="1903"/>
  <g id="" transform="matrix(1 0 0 1 263 1933)">
   <path d="M 9.24805 0.830078 C 13.5547 0.830078 17.1387 -2.74414 17.1387 -7.05078 C 17.1387 -11.3574 13.5449 -14.9316 9.23828 -14.9316 C 4.94141 -14.9316 1.36719 -11.3574 1.36719 -7.05078 C 1.36719 -2.74414 4.95117 0.830078 9.24805 0.830078 Z M 9.24805 -0.654297 C 5.70312 -0.654297 2.87109 -3.49609 2.87109 -7.05078 C 2.87109 -10.6055 5.69336 -13.4473 9.23828 -13.4473 C 12.793 -13.4473 15.6348 -10.6055 15.6445 -7.05078 C 15.6543 -3.49609 12.8027 -0.654297 9.24805 -0.654297 Z M 9.22852 -3.62305 C 9.69727 -3.62305 9.9707 -3.93555 9.9707 -4.45312 L 9.9707 -6.31836 L 12.002 -6.31836 C 12.5 -6.31836 12.832 -6.57227 12.832 -7.04102 C 12.832 -7.51953 12.5195 -7.7832 12.002 -7.7832 L 9.9707 -7.7832 L 9.9707 -9.81445 C 9.9707 -10.332 9.69727 -10.6543 9.22852 -10.6543 C 8.75977 -10.6543 8.50586 -10.3125 8.50586 -9.81445 L 8.50586 -7.7832 L 6.49414 -7.7832 C 5.97656 -7.7832 5.64453 -7.51953 5.64453 -7.04102 C 5.64453 -6.57227 5.99609 -6.31836 6.49414 -6.31836 L 8.50586 -6.31836 L 8.50586 -4.45312 C 8.50586 -3.95508 8.75977 -3.62305 9.22852 -3.62305 Z"/>
  </g>
  <g id="" transform="matrix(1 0 0 1 281.506 1933)">
   <path d="M 11.709 2.91016 C 17.1582 2.91016 21.6699 -1.61133 21.6699 -7.05078 C 21.6699 -12.5 17.1484 -17.0117 11.6992 -17.0117 C 6.25977 -17.0117 1.74805 -12.5 1.74805 -7.05078 C 1.74805 -1.61133 6.26953 2.91016 11.709 2.91016 Z M 11.709 1.25 C 7.09961 1.25 3.41797 -2.44141 3.41797 -7.05078 C 3.41797 -11.6602 7.08984 -15.3516 11.6992 -15.3516 C 16.3086 -15.3516 20 -11.6602 20.0098 -7.05078 C 20.0195 -2.44141 16.3184 1.25 11.709 1.25 Z M 11.6797 -2.66602 C 12.207 -2.66602 12.5098 -3.01758 12.5098 -3.59375 L 12.5098 -6.23047 L 15.3223 -6.23047 C 15.8691 -6.23047 16.25 -6.51367 16.25 -7.03125 C 16.25 -7.55859 15.8887 -7.86133 15.3223 -7.86133 L 12.5098 -7.86133 L 12.5098 -10.6836 C 12.5098 -11.25 12.207 -11.6113 11.6797 -11.6113 C 11.1621 -11.6113 10.8789 -11.2305 10.8789 -10.6836 L 10.8789 -7.86133 L 8.07617 -7.86133 C 7.50977 -7.86133 7.13867 -7.55859 7.13867 -7.03125 C 7.13867 -6.51367 7.5293 -6.23047 8.07617 -6.23047 L 10.8789 -6.23047 L 10.8789 -3.59375 C 10.8789 -3.03711 11.1621 -2.66602 11.6797 -2.66602 Z"/>
  </g>
  <g id="" transform="matrix(1 0 0 1 304.924 1933)">
   <path d="M 14.9707 5.66406 C 21.9336 5.66406 27.6953 -0.0976562 27.6953 -7.05078 C 27.6953 -14.0137 21.9238 -19.7754 14.9609 -19.7754 C 8.00781 -19.7754 2.25586 -14.0137 2.25586 -7.05078 C 2.25586 -0.0976562 8.01758 5.66406 14.9707 5.66406 Z M 14.9707 3.84766 C 8.93555 3.84766 4.08203 -1.01562 4.08203 -7.05078 C 4.08203 -13.0957 8.92578 -17.9492 14.9609 -17.9492 C 21.0059 -17.9492 25.8594 -13.0957 25.8691 -7.05078 C 25.8789 -1.01562 21.0156 3.84766 14.9707 3.84766 Z M 14.9414 -1.38672 C 15.5176 -1.38672 15.8594 -1.77734 15.8594 -2.38281 L 15.8594 -6.13281 L 19.7754 -6.13281 C 20.3711 -6.13281 20.7812 -6.46484 20.7812 -7.02148 C 20.7812 -7.59766 20.3906 -7.93945 19.7754 -7.93945 L 15.8594 -7.93945 L 15.8594 -11.8652 C 15.8594 -12.4805 15.5176 -12.8711 14.9414 -12.8711 C 14.375 -12.8711 14.0527 -12.4609 14.0527 -11.8652 L 14.0527 -7.93945 L 10.1465 -7.93945 C 9.53125 -7.93945 9.13086 -7.59766 9.13086 -7.02148 C 9.13086 -6.46484 9.55078 -6.13281 10.1465 -6.13281 L 14.0527 -6.13281 L 14.0527 -2.38281 C 14.0527 -1.79688 14.375 -1.38672 14.9414 -1.38672 Z"/>
  </g>
  <text style="stroke:none;fill:black;font-family:-apple-system,&quot;SF Pro Display&quot;,&quot;SF Pro Text&quot;,Helvetica,sans-serif;font-weight:bold;" transform="matrix(1 0 0 1 263 1953)">Design Variations</text>
  <text style="stroke:none;fill:black;font-family:-apple-system,&quot;SF Pro Display&quot;,&quot;SF Pro Text&quot;,Helvetica,sans-serif;" transform="matrix(1 0 0 1 263 1971)">Symbols are supported in up to nine weights and three scales.</text>
  <text style="stroke:none;fill:black;font-family:-apple-system,&quot;SF Pro Display&quot;,&quot;SF Pro Text&quot;,Helvetica,sans-serif;" transform="matrix(1 0 0 1 263 1989)">For optimal layout with text and other symbols, vertically align</text>
  <text style="stroke:none;fill:black;font-family:-apple-system,&quot;SF Pro Display&quot;,&quot;SF Pro Text&quot;,Helvetica,sans-serif;" transform="matrix(1 0 0 1 263 2007)">symbols with the adjacent text.</text>
  <line id="" style="fill:none;stroke:#00AEEF;stroke-width:0.5;opacity:1.0;" x1="776" x2="776" y1="1919" y2="1933"/>
  <g id="" transform="matrix(1 0 0 1 776 1933)">
   <path d="M 3.31055 0.126953 C 3.82812 0.126953 4.08203 -0.0683594 4.26758 -0.605469 L 5.52734 -4.0625 L 11.2891 -4.0625 L 12.5488 -0.605469 C 12.7344 -0.0683594 12.9883 0.126953 13.4961 0.126953 C 14.0137 0.126953 14.3457 -0.185547 14.3457 -0.673828 C 14.3457 -0.839844 14.3164 -0.986328 14.2383 -1.20117 L 9.6582 -13.3887 C 9.43359 -13.9941 9.0332 -14.2871 8.4082 -14.2871 C 7.80273 -14.2871 7.39258 -13.9941 7.17773 -13.3984 L 2.59766 -1.19141 C 2.51953 -0.976562 2.49023 -0.830078 2.49023 -0.664062 C 2.49023 -0.175781 2.80273 0.126953 3.31055 0.126953 Z M 6.00586 -5.53711 L 8.37891 -12.1094 L 8.42773 -12.1094 L 10.8008 -5.53711 Z"/>
  </g>
  <line id="" style="fill:none;stroke:#00AEEF;stroke-width:0.5;opacity:1.0;" x1="792.836" x2="792.836" y1="1919" y2="1933"/>
  <text style="stroke:none;fill:black;font-family:-apple-system,&quot;SF Pro Display&quot;,&quot;SF Pro Text&quot;,Helvetica,sans-serif;font-weight:bold;" transform="matrix(1 0 0 1 776 1953)">Margins</text>
  <text style="stroke:none;fill:black;font-family:-apple-system,&quot;SF Pro Display&quot;,&quot;SF Pro Text&quot;,Helvetica,sans-serif;" transform="matrix(1 0 0 1 776 1971)">Leading and trailing margins on the left and right side of each symbol</text>
  <text style="stroke:none;fill:black;font-family:-apple-system,&quot;SF Pro Display&quot;,&quot;SF Pro Text&quot;,Helvetica,sans-serif;" transform="matrix(1 0 0 1 776 1989)">can be adjusted by modifying the x-location of the margin guidelines.</text>
  <text style="stroke:none;fill:black;font-family:-apple-system,&quot;SF Pro Display&quot;,&quot;SF Pro Text&quot;,Helvetica,sans-serif;" transform="matrix(1 0 0 1 776 2007)">Modifications are automatically applied proportionally to all</text>
  <text style="stroke:none;fill:black;font-family:-apple-system,&quot;SF Pro Display&quot;,&quot;SF Pro Text&quot;,Helvetica,sans-serif;" transform="matrix(1 0 0 1 776 2025)">scales and weights.</text>
  <g id="" transform="matrix(1 0 0 1 1289 1933)">
   <path d="M 2.8418 1.86523 L 4.54102 3.57422 C 5.40039 4.44336 6.38672 4.38477 7.31445 3.35938 L 17.4902 -7.85156 C 17.7539 -7.76367 18.0273 -7.7832 18.3398 -7.8418 L 19.4043 -8.03711 L 20.0684 -7.36328 L 20.0293 -6.80664 C 19.9902 -6.30859 20.1172 -5.92773 20.6055 -5.44922 L 21.3672 -4.70703 C 21.8457 -4.22852 22.4609 -4.19922 22.9297 -4.66797 L 25.8398 -7.58789 C 26.3086 -8.05664 26.2891 -8.65234 25.8105 -9.13086 L 25.0391 -9.89258 C 24.5605 -10.3711 24.1895 -10.5273 23.7109 -10.4883 L 23.1348 -10.4395 L 22.4902 -11.0742 L 22.7344 -12.1973 C 22.8613 -12.7637 22.7051 -13.2031 22.1191 -13.7891 L 19.9219 -15.9766 C 16.582 -19.2969 12.1484 -19.2188 9.25781 -16.3281 C 8.83789 -15.918 8.80859 -15.3418 9.04297 -14.9512 C 9.27734 -14.5898 9.73633 -14.3555 10.3809 -14.5215 C 11.8457 -14.8633 13.3691 -14.9219 14.7949 -13.9844 L 14.209 -12.5293 C 14.0137 -12.0508 13.9844 -11.6504 14.1113 -11.2891 L 3.04688 -0.898438 C 2.06055 0.0195312 1.98242 0.996094 2.8418 1.86523 Z M 10.752 -15.957 C 13.1836 -17.7344 16.4746 -17.4316 18.7012 -15.2051 L 21.1328 -12.793 C 21.3672 -12.5586 21.4062 -12.373 21.3379 -12.0312 L 21.0156 -10.5469 L 22.5195 -9.0625 L 23.5059 -9.12109 C 23.7598 -9.13086 23.8379 -9.11133 24.0332 -8.91602 L 24.6094 -8.33984 L 22.168 -5.89844 L 21.5918 -6.47461 C 21.3965 -6.66992 21.3672 -6.74805 21.377 -7.01172 L 21.4453 -7.98828 L 19.9512 -9.47266 L 18.4277 -9.21875 C 18.1055 -9.15039 17.959 -9.17969 17.7148 -9.41406 L 15.7129 -11.416 C 15.459 -11.6504 15.4297 -11.8164 15.5859 -12.1875 L 16.4648 -14.2773 C 14.9023 -15.7324 12.8711 -16.3574 10.8398 -15.7617 C 10.6836 -15.7227 10.625 -15.8496 10.752 -15.957 Z M 5.27344 2.30469 L 4.10156 1.14258 C 3.63281 0.683594 3.74023 0.341797 4.14062 -0.0195312 L 14.9512 -10.1953 L 16.416 -8.71094 L 6.42578 2.27539 C 6.07422 2.67578 5.74219 2.77344 5.27344 2.30469 Z"/>
  </g>
  <text style="stroke:none;fill:black;font-family:-apple-system,&quot;SF Pro Display&quot;,&quot;SF Pro Text&quot;,Helvetica,sans-serif;font-weight:bold;" transform="matrix(1 0 0 1 1289 1953)">Exporting</text>
  <text style="stroke:none;fill:black;font-family:-apple-system,&quot;SF Pro Display&quot;,&quot;SF Pro Text&quot;,Helvetica,sans-serif;" transform="matrix(1 0 0 1 1289 1971)">Symbols should be outlined when exporting to ensure the</text>
  <text style="stroke:none;fill:black;font-family:-apple-system,&quot;SF Pro Display&quot;,&quot;SF Pro Text&quot;,Helvetica,sans-serif;" transform="matrix(1 0 0 1 1289 1989)">design is preserved when submitting to Xcode.</text>
  <text id="template-version" style="stroke:none;fill:black;font-family:-apple-system,&quot;SF Pro Display&quot;,&quot;SF Pro Text&quot;,Helvetica,sans-serif;text-anchor:end;" transform="matrix(1 0 0 1 3036 1933)">Template v.2.0</text>
  <text style="stroke:none;fill:black;font-family:-apple-system,&quot;SF Pro Display&quot;,&quot;SF Pro Text&quot;,Helvetica,sans-serif;text-anchor:end;" transform="matrix(1 0 0 1 3036 1951)">Requires Xcode 12 or greater</text>
  <text style="stroke:none;fill:black;font-family:-apple-system,&quot;SF Pro Display&quot;,&quot;SF Pro Text&quot;,Helvetica,sans-serif;text-anchor:end;" transform="matrix(1 0 0 1 3036 1969)">Generated from speaker.wave.3.fill</text>
  <text style="stroke:none;fill:black;font-family:-apple-system,&quot;SF Pro Display&quot;,&quot;SF Pro Text&quot;,Helvetica,sans-serif;text-anchor:end;" transform="matrix(1 0 0 1 3036 1987)">Typeset at 100 points</text>
  <text style="stroke:none;fill:black;font-family:-apple-system,&quot;SF Pro Display&quot;,&quot;SF Pro Text&quot;,Helvetica,sans-serif;" transform="matrix(1 0 0 1 263 726)">Small</text>
  <text style="stroke:none;fill:black;font-family:-apple-system,&quot;SF Pro Display&quot;,&quot;SF Pro Text&quot;,Helvetica,sans-serif;" transform="matrix(1 0 0 1 263 1156)">Medium</text>
  <text style="stroke:none;fill:black;font-family:-apple-system,&quot;SF Pro Display&quot;,&quot;SF Pro Text&quot;,Helvetica,sans-serif;" transform="matrix(1 0 0 1 263 1586)">Large</text>
 </g>
 <g id="Guides">
  <g id="H-reference" style="fill:#27AAE1;stroke:none;" transform="matrix(1 0 0 1 339 696)">
   <path d="M 0.976562 0 L 3.66211 0 L 12.9883 -24.4629 L 45.7031 -24.4629 L 55.0781 0 L 57.7148 0 L 30.6152 -70.459 L 28.125 -70.459 Z M 29.2969 -67.1387 L 29.3945 -67.1387 L 44.873 -26.709 L 13.8672 -26.709 Z"/>
  </g>
  <line id="Baseline-S" style="fill:none;stroke:#27AAE1;opacity:1;stroke-width:0.5;" x1="263" x2="3036" y1="696" y2="696"/>
  <line id="Capline-S" style="fill:none;stroke:#27AAE1;opacity:1;stroke-width:0.5;" x1="263" x2="3036" y1="625.541" y2="625.541"/>
  <g id="H-reference" style="fill:#27AAE1;stroke:none;" transform="matrix(1 0 0 1 339 1126)">
   <path d="M 0.976562 0 L 3.66211 0 L 12.9883 -24.4629 L 45.7031 -24.4629 L 55.0781 0 L 57.7148 0 L 30.6152 -70.459 L 28.125 -70.459 Z M 29.2969 -67.1387 L 29.3945 -67.1387 L 44.873 -26.709 L 13.8672 -26.709 Z"/>
  </g>
  <line id="Baseline-M" style="fill:none;stroke:#27AAE1;opacity:1;stroke-width:0.5;" x1="263" x2="3036" y1="1126" y2="1126"/>
  <line id="Capline-M" style="fill:none;stroke:#27AAE1;opacity:1;stroke-width:0.5;" x1="263" x2="3036" y1="1055.54" y2="1055.54"/>
  <g id="H-reference" style="fill:#27AAE1;stroke:none;" transform="matrix(1 0 0 1 339 1556)">
   <path d="M 0.976562 0 L 3.66211 0 L 12.9883 -24.4629 L 45.7031 -24.4629 L 55.0781 0 L 57.7148 0 L 30.6152 -70.459 L 28.125 -70.459 Z M 29.2969 -67.1387 L 29.3945 -67.1387 L 44.873 -26.709 L 13.8672 -26.709 Z"/>
  </g>
  <line id="Baseline-L" style="fill:none;stroke:#27AAE1;opacity:1;stroke-width:0.5;" x1="263" x2="3036" y1="1556" y2="1556"/>
  <line id="Capline-L" style="fill:none;stroke:#27AAE1;opacity:1;stroke-width:0.5;" x1="263" x2="3036" y1="1485.54" y2="1485.54"/>
  <line id="left-margin" style="fill:none;stroke:#00AEEF;stroke-width:0.5;opacity:1.0;" x1="1366.42" x2="1366.42" y1="1030.79" y2="1150.12"/>
  <line id="right-margin" style="fill:none;stroke:#00AEEF;stroke-width:0.5;opacity:1.0;" x1="1533.27" x2="1533.27" y1="1030.79" y2="1150.12"/>
 </g>
 <g id="Symbols">
  <g id="Black-L" transform="matrix(1 0 0 1 2807.62 1556)">
   <path d="M 197.314 35.6445 C 202.246 38.5254 208.301 37.0605 211.279 32.1289 C 223.193 12.7441 230.127 -10.4492 230.127 -35.1074 C 230.127 -59.7656 223.145 -82.9102 211.279 -102.344 C 208.301 -107.275 202.246 -108.691 197.314 -105.859 C 192.09 -102.832 191.26 -96.4355 194.678 -90.6738 C 204.297 -74.6582 209.912 -55.4199 209.912 -35.1074 C 209.912 -14.7461 204.297 4.49219 194.678 20.5078 C 191.26 26.2695 192.09 32.666 197.314 35.6445 Z M 96.9238 26.416 C 103.857 26.416 109.18 21.1426 109.18 14.209 L 109.18 -84.4727 C 109.18 -91.3574 103.857 -96.7773 96.875 -96.7773 C 92.627 -96.7773 89.2578 -95.1172 84.668 -90.918 L 57.8613 -66.6504 C 57.4707 -66.3574 57.2266 -66.2598 56.8848 -66.2598 L 40.1855 -66.2598 C 28.0273 -66.2598 21.4355 -59.375 21.4355 -46.6797 L 21.4355 -23.7305 C 21.4355 -10.9863 28.0273 -4.15039 40.1855 -4.15039 L 56.8848 -4.15039 C 57.2266 -4.15039 57.5195 -4.10156 57.8613 -3.75977 L 84.668 20.7031 C 89.0137 24.6094 92.4316 26.416 96.9238 26.416 Z M 164.746 16.8945 C 169.58 19.6289 175.439 18.457 178.467 13.7207 C 187.451 -0.195312 192.48 -17.1387 192.48 -35.1074 C 192.48 -53.0273 187.5 -70.0684 178.467 -83.9355 C 175.391 -88.623 169.58 -89.8438 164.746 -87.1094 C 159.326 -83.9844 158.74 -77.4902 162.305 -71.5332 C 168.652 -61.1328 172.266 -48.3887 172.266 -35.1074 C 172.266 -21.7773 168.604 -9.08203 162.305 1.31836 C 158.74 7.27539 159.326 13.8184 164.746 16.8945 Z M 132.08 -2.00195 C 136.768 0.78125 142.432 -0.292969 145.264 -4.29688 C 151.367 -12.8418 154.834 -23.6328 154.834 -35.1074 C 154.834 -46.5332 151.367 -57.3242 145.264 -65.8691 C 142.432 -69.9219 136.768 -70.9961 132.08 -68.1641 C 127.051 -65.0879 125.879 -59.1797 130.029 -52.0996 C 132.959 -47.3145 134.619 -41.2598 134.619 -35.1074 C 134.619 -28.9062 132.959 -22.9004 130.029 -18.1152 C 125.879 -10.9863 127.051 -5.07812 132.08 -2.00195 Z"/>
  </g>
  <g id="Heavy-L" transform="matrix(1 0 0 1 2515.62 1556)">
   <path d="M 190.625 33.3984 C 194.873 35.8887 200.146 34.668 202.783 30.3711 C 214.502 11.6699 221.436 -10.791 221.436 -35.1562 C 221.436 -59.4727 214.404 -81.9336 202.783 -100.635 C 200.146 -104.98 194.873 -106.152 190.625 -103.662 C 186.182 -101.025 185.449 -95.5078 188.428 -90.5762 C 198.145 -74.8047 204.004 -55.7617 204.004 -35.1562 C 204.004 -14.502 198.145 4.54102 188.428 20.3125 C 185.449 25.2441 186.182 30.7617 190.625 33.3984 Z M 94.873 25.293 C 101.074 25.293 105.762 20.6055 105.762 14.4531 L 105.762 -84.668 C 105.762 -90.8203 101.074 -95.7031 94.8242 -95.7031 C 90.8691 -95.7031 87.8418 -94.1406 83.6914 -90.2832 L 56.4941 -65.4297 C 56.1035 -65.0391 55.7617 -64.9414 55.3223 -64.9414 L 38.0371 -64.9414 C 26.8066 -64.9414 20.6543 -58.5938 20.6543 -46.8262 L 20.6543 -23.4863 C 20.6543 -11.7676 26.8066 -5.37109 38.0371 -5.37109 L 55.3223 -5.37109 C 55.7617 -5.37109 56.1523 -5.32227 56.4941 -4.93164 L 83.6914 20.0684 C 87.6465 23.6816 90.7715 25.293 94.873 25.293 Z M 159.766 15.0391 C 163.965 17.4316 169.043 16.4062 171.68 12.3047 C 180.518 -0.976562 185.547 -17.627 185.547 -35.1562 C 185.547 -52.6367 180.566 -69.3848 171.68 -82.5684 C 168.994 -86.6699 163.965 -87.6953 159.766 -85.3027 C 155.127 -82.5684 154.59 -77.002 157.764 -71.9238 C 164.307 -61.5723 168.066 -48.6328 168.066 -35.1562 C 168.066 -21.6309 164.258 -8.74023 157.764 1.61133 C 154.639 6.73828 155.127 12.3047 159.766 15.0391 Z M 128.906 -3.41797 C 132.91 -0.976562 137.842 -1.9043 140.43 -5.46875 C 146.24 -13.5254 149.609 -24.0234 149.609 -35.1562 C 149.609 -46.2402 146.24 -56.7383 140.43 -64.7949 C 137.842 -68.3594 132.91 -69.2871 128.906 -66.8457 C 124.561 -64.1113 123.535 -58.9355 127.148 -52.9785 C 130.371 -47.998 132.08 -41.6992 132.08 -35.1562 C 132.08 -28.5645 130.322 -22.2656 127.148 -17.2852 C 123.584 -11.2793 124.561 -6.15234 128.906 -3.41797 Z"/>
  </g>
  <g id="Bold-L" transform="matrix(1 0 0 1 2224.18 1556)">
   <path d="M 183.203 30.8594 C 186.67 33.0078 191.016 31.9824 193.262 28.418 C 204.736 10.498 211.768 -11.1816 211.768 -35.2051 C 211.768 -59.1797 204.639 -80.8105 193.262 -98.7793 C 191.016 -102.393 186.67 -103.369 183.203 -101.221 C 179.541 -99.0234 178.955 -94.4824 181.445 -90.4785 C 191.26 -74.9023 197.363 -56.1035 197.363 -35.2051 C 197.363 -14.2578 191.26 4.58984 181.445 20.1172 C 178.955 24.1211 179.541 28.6621 183.203 30.8594 Z M 92.5781 24.1211 C 97.998 24.1211 102.002 20.0195 102.002 14.6484 L 102.002 -84.8633 C 102.002 -90.2344 97.998 -94.5312 92.4805 -94.5312 C 88.9648 -94.5312 86.3281 -93.0176 82.5684 -89.5996 L 54.9805 -64.0137 C 54.541 -63.623 54.1504 -63.4766 53.5645 -63.4766 L 35.5957 -63.4766 C 25.4883 -63.4766 19.8242 -57.666 19.8242 -47.0215 L 19.8242 -23.2422 C 19.8242 -12.5977 25.4883 -6.78711 35.5957 -6.78711 L 53.5645 -6.78711 C 54.1504 -6.78711 54.5898 -6.64062 54.9805 -6.29883 L 82.5684 19.3848 C 86.084 22.6074 88.916 24.1211 92.5781 24.1211 Z M 154.199 12.8906 C 157.666 14.9902 161.865 14.1602 164.16 10.7422 C 172.754 -1.85547 177.783 -18.1641 177.783 -35.2051 C 177.783 -52.1973 172.803 -68.6035 164.16 -81.1035 C 161.865 -84.5215 157.666 -85.3516 154.199 -83.252 C 150.488 -81.0059 150 -76.4648 152.637 -72.3145 C 159.473 -62.0605 163.33 -48.877 163.33 -35.2051 C 163.33 -21.4844 159.375 -8.34961 152.637 1.95312 C 150.049 6.10352 150.488 10.6445 154.199 12.8906 Z M 125.391 -5.0293 C 128.662 -2.92969 132.764 -3.71094 135.01 -6.78711 C 140.479 -14.3066 143.75 -24.4141 143.75 -35.2051 C 143.75 -45.9473 140.479 -56.0547 135.01 -63.623 C 132.764 -66.6504 128.662 -67.4316 125.391 -65.332 C 121.729 -63.0371 120.947 -58.6914 123.926 -54.0039 C 127.441 -48.8281 129.297 -42.2363 129.297 -35.2051 C 129.297 -28.125 127.393 -21.582 123.926 -16.3574 C 120.996 -11.6211 121.729 -7.32422 125.391 -5.0293 Z"/>
  </g>
  <g id="Semibold-L" transform="matrix(1 0 0 1 1931.11 1556)">
   <path d="M 178.027 29.1016 C 180.957 30.957 184.717 30.127 186.67 27.0508 C 198.047 9.66797 205.078 -11.4258 205.078 -35.2051 C 205.078 -58.9844 197.9 -80.0293 186.67 -97.4609 C 184.717 -100.586 180.957 -101.416 178.027 -99.5117 C 174.951 -97.6074 174.512 -93.75 176.66 -90.3809 C 186.475 -75 192.822 -56.3477 192.822 -35.2051 C 192.822 -14.0625 186.475 4.58984 176.66 19.9707 C 174.512 23.3398 174.951 27.1973 178.027 29.1016 Z M 90.9668 23.2422 C 95.8496 23.2422 99.3652 19.6289 99.3652 14.7949 L 99.3652 -85.0098 C 99.3652 -89.7949 95.8496 -93.7012 90.918 -93.7012 C 87.6465 -93.7012 85.2051 -92.2852 81.7871 -89.1113 L 53.9551 -63.0371 C 53.5156 -62.6465 53.0273 -62.4512 52.3926 -62.4512 L 33.9355 -62.4512 C 24.5117 -62.4512 19.2383 -57.0312 19.2383 -47.168 L 19.2383 -23.0469 C 19.2383 -13.1836 24.5117 -7.76367 33.9355 -7.76367 L 52.3926 -7.76367 C 53.0273 -7.76367 53.5156 -7.61719 53.9551 -7.17773 L 81.7871 18.9453 C 85.0098 21.875 87.6465 23.2422 90.9668 23.2422 Z M 150.391 11.4746 C 153.32 13.2812 156.934 12.5488 158.936 9.61914 C 167.383 -2.44141 172.412 -18.5547 172.412 -35.2051 C 172.412 -51.8555 167.48 -68.0664 158.936 -80.0293 C 156.885 -83.0078 153.32 -83.7402 150.391 -81.8848 C 147.266 -79.9316 146.826 -76.0742 149.121 -72.6074 C 156.104 -62.4023 160.107 -49.0723 160.107 -35.2051 C 160.107 -21.3379 156.006 -8.10547 149.121 2.19727 C 146.875 5.66406 147.266 9.52148 150.391 11.4746 Z M 122.949 -6.10352 C 125.732 -4.29688 129.248 -4.93164 131.25 -7.66602 C 136.523 -14.8438 139.746 -24.707 139.746 -35.2051 C 139.746 -45.752 136.523 -55.5664 131.25 -62.793 C 129.248 -65.4785 125.732 -66.1133 122.949 -64.3066 C 119.824 -62.2559 119.189 -58.5449 121.68 -54.6875 C 125.439 -49.3652 127.393 -42.5781 127.393 -35.2051 C 127.393 -27.8809 125.391 -21.0938 121.68 -15.7227 C 119.238 -11.8652 119.824 -8.1543 122.949 -6.10352 Z"/>
  </g>
  <g id="Medium-L" transform="matrix(1 0 0 1 1637.16 1556)">
   <path d="M 174.121 27.7832 C 176.66 29.4434 179.932 28.7109 181.689 26.0254 C 192.92 9.0332 200 -11.6211 200 -35.2539 C 200 -58.8379 192.822 -79.4922 181.689 -96.4844 C 179.932 -99.2188 176.66 -99.9023 174.121 -98.2422 C 171.484 -96.5332 171.094 -93.2129 172.998 -90.332 C 182.861 -75.0488 189.355 -56.543 189.355 -35.2539 C 189.355 -13.916 182.861 4.63867 172.998 19.8242 C 171.094 22.7539 171.484 26.0742 174.121 27.7832 Z M 89.7949 22.6074 C 94.2383 22.6074 97.4121 19.3359 97.4121 14.9414 L 97.4121 -85.1074 C 97.4121 -89.502 94.2383 -93.0664 89.6973 -93.0664 C 86.6211 -93.0664 84.4238 -91.6992 81.2012 -88.7695 L 53.1738 -62.3047 C 52.6855 -61.8652 52.1484 -61.6699 51.5137 -61.6699 L 32.666 -61.6699 C 23.8281 -61.6699 18.7988 -56.543 18.7988 -47.2656 L 18.7988 -22.9492 C 18.7988 -13.623 23.8281 -8.49609 32.666 -8.49609 L 51.5137 -8.49609 C 52.1484 -8.49609 52.7344 -8.30078 53.1738 -7.86133 L 81.2012 18.6035 C 84.1797 21.3379 86.6699 22.6074 89.7949 22.6074 Z M 147.461 10.3516 C 150.049 12.0117 153.223 11.377 154.98 8.78906 C 163.33 -2.88086 168.359 -18.8477 168.359 -35.2539 C 168.359 -51.6113 163.428 -67.6758 154.98 -79.248 C 153.174 -81.8359 150.049 -82.4707 147.461 -80.8105 C 144.824 -79.1016 144.434 -75.8301 146.436 -72.8516 C 153.564 -62.6465 157.617 -49.2188 157.617 -35.2539 C 157.617 -21.2891 153.467 -7.86133 146.436 2.34375 C 144.482 5.32227 144.824 8.64258 147.461 10.3516 Z M 121.094 -6.93359 C 123.486 -5.37109 126.611 -5.85938 128.418 -8.34961 C 133.545 -15.2344 136.67 -24.9023 136.67 -35.2539 C 136.67 -45.5566 133.545 -55.2246 128.418 -62.1582 C 126.611 -64.5996 123.486 -65.1367 121.094 -63.5254 C 118.359 -61.6699 117.822 -58.3984 120.02 -55.2246 C 123.877 -49.8047 125.928 -42.8223 125.928 -35.2539 C 125.928 -27.6367 123.877 -20.752 120.02 -15.2344 C 117.871 -12.0117 118.359 -8.78906 121.094 -6.93359 Z"/>
  </g>
  <g id="Regular-L" transform="matrix(1 0 0 1 1344.03 1556)">
   <path d="M 169.043 26.0742 C 171.045 27.4414 173.682 26.8555 175.195 24.707 C 186.279 8.25195 193.408 -11.9141 193.408 -35.2539 C 193.408 -58.6426 186.133 -78.7109 175.195 -95.2148 C 173.682 -97.4609 171.045 -97.998 169.043 -96.582 C 166.992 -95.166 166.699 -92.4805 168.213 -90.2344 C 178.174 -75.1465 184.863 -56.7871 184.863 -35.2539 C 184.863 -13.7207 178.174 4.63867 168.213 19.6777 C 166.699 21.9727 166.992 24.6582 169.043 26.0742 Z M 88.1836 21.7773 C 92.0898 21.7773 94.8242 18.9453 94.8242 15.0879 L 94.8242 -85.2051 C 94.8242 -89.0625 92.0898 -92.2363 88.0859 -92.2363 C 85.3027 -92.2363 83.3496 -90.9668 80.4688 -88.2812 L 52.1484 -61.3281 C 51.6602 -60.8887 51.0254 -60.6934 50.293 -60.6934 L 31.0059 -60.6934 C 22.9004 -60.6934 18.2129 -55.957 18.2129 -47.3633 L 18.2129 -22.7539 C 18.2129 -14.209 22.9004 -9.42383 31.0059 -9.42383 L 50.293 -9.42383 C 51.0254 -9.42383 51.6602 -9.22852 52.1484 -8.78906 L 80.4688 18.1152 C 83.1055 20.6055 85.4004 21.7773 88.1836 21.7773 Z M 143.652 8.93555 C 145.752 10.3027 148.34 9.81445 149.854 7.71484 C 158.057 -3.51562 163.086 -19.2383 163.086 -35.2539 C 163.086 -51.3184 158.154 -67.1387 149.854 -78.2715 C 148.291 -80.3711 145.752 -80.8594 143.652 -79.4434 C 141.65 -78.0762 141.309 -75.4395 142.92 -73.1445 C 150.244 -62.9395 154.395 -49.3652 154.395 -35.2539 C 154.395 -21.1426 150.146 -7.61719 142.92 2.58789 C 141.357 4.88281 141.65 7.51953 143.652 8.93555 Z M 118.701 -8.00781 C 120.557 -6.68945 123.145 -7.12891 124.707 -9.22852 C 129.639 -15.7715 132.666 -25.1953 132.666 -35.2539 C 132.666 -45.3613 129.639 -54.7363 124.707 -61.3281 C 123.145 -63.4277 120.557 -63.8184 118.701 -62.5488 C 116.406 -60.9375 116.064 -58.252 117.822 -55.9082 C 121.924 -50.3418 124.023 -43.1641 124.023 -35.2539 C 124.023 -27.3926 121.875 -20.2637 117.822 -14.5996 C 116.113 -12.2559 116.406 -9.61914 118.701 -8.00781 Z"/>
  </g>
  <g id="Light-L" transform="matrix(1 0 0 1 1049.81 1556)">
   <path d="M 166.602 25.293 C 168.164 26.416 170.166 25.9277 171.289 24.2676 C 182.031 7.86133 189.551 -11.3281 189.551 -35.2539 C 189.551 -59.1797 181.934 -78.3691 171.289 -94.8242 C 170.166 -96.5332 168.164 -96.9238 166.602 -95.8496 C 165.039 -94.7754 164.795 -92.7246 165.967 -90.9668 C 175.83 -75.5859 182.959 -57.8125 182.959 -35.2539 C 182.959 -12.7441 175.83 5.07812 165.967 20.4102 C 164.795 22.168 165.039 24.2676 166.602 25.293 Z M 86.2305 20.7031 C 89.6484 20.7031 91.7969 18.2129 91.7969 14.8926 L 91.7969 -85.2051 C 91.7969 -88.5254 89.6484 -91.2109 86.1816 -91.2109 C 83.7402 -91.2109 81.9824 -90.0391 79.7363 -87.9395 L 50.8301 -60.1562 C 50.2441 -59.668 49.5605 -59.375 48.6816 -59.375 L 28.7109 -59.375 C 21.6309 -59.375 17.0898 -54.7852 17.0898 -47.4609 L 17.0898 -22.5098 C 17.0898 -15.1855 21.6309 -10.5957 28.7109 -10.5957 L 48.6816 -10.5957 C 49.5605 -10.5957 50.2441 -10.3516 50.8301 -9.81445 L 79.7363 17.627 C 81.8359 19.6289 83.7891 20.7031 86.2305 20.7031 Z M 141.406 8.25195 C 143.018 9.375 144.971 8.98438 146.094 7.37305 C 154.297 -3.51562 159.424 -19.2383 159.424 -35.2539 C 159.424 -51.3184 154.346 -67.0898 146.094 -77.9297 C 144.922 -79.541 143.018 -79.8828 141.406 -78.8086 C 139.844 -77.7344 139.6 -75.7812 140.869 -73.9746 C 148.486 -63.5742 152.783 -49.8047 152.783 -35.2539 C 152.783 -20.752 148.438 -7.03125 140.869 3.41797 C 139.648 5.22461 139.844 7.17773 141.406 8.25195 Z M 116.602 -8.59375 C 118.115 -7.56836 120.02 -7.86133 121.24 -9.47266 C 126.123 -15.8691 129.297 -25 129.297 -35.2539 C 129.297 -45.5078 126.123 -54.6387 121.24 -61.084 C 120.02 -62.6953 118.115 -62.9883 116.602 -61.9629 C 114.941 -60.7422 114.648 -58.6914 115.967 -56.9336 C 120.459 -50.7812 122.705 -43.7012 122.705 -35.2539 C 122.705 -26.8555 120.459 -19.7754 115.967 -13.623 C 114.697 -11.8164 114.941 -9.76562 116.602 -8.59375 Z"/>
  </g>
  <g id="Thin-L" transform="matrix(1 0 0 1 756.422 1556)">
   <path d="M 163.379 24.3164 C 164.355 25 165.527 24.707 166.162 23.7305 C 176.367 7.32422 184.424 -10.5957 184.424 -35.2539 C 184.424 -59.9121 176.318 -77.8809 166.162 -94.2871 C 165.527 -95.2637 164.355 -95.5566 163.379 -94.873 C 162.5 -94.2871 162.305 -93.0176 163.037 -91.9434 C 172.754 -76.123 180.518 -59.1309 180.518 -35.2539 C 180.518 -11.4258 172.754 5.61523 163.037 21.3867 C 162.305 22.4609 162.5 23.7305 163.379 24.3164 Z M 83.6426 19.2871 C 86.377 19.2871 87.8418 17.2363 87.8418 14.6484 L 87.8418 -85.1562 C 87.8418 -87.7441 86.377 -89.8438 83.5938 -89.8438 C 81.6895 -89.8438 80.1758 -88.8184 78.7598 -87.5 L 49.0723 -58.5938 C 48.3887 -58.0078 47.6074 -57.666 46.5332 -57.666 L 25.6836 -57.666 C 20.0195 -57.666 15.625 -53.2715 15.625 -47.5586 L 15.625 -22.2168 C 15.625 -16.5039 20.0195 -12.1094 25.6836 -12.1094 L 46.5332 -12.1094 C 47.6074 -12.1094 48.3887 -11.8164 49.0723 -11.1816 L 78.7598 16.9922 C 80.1758 18.3105 81.7383 19.2871 83.6426 19.2871 Z M 138.428 7.42188 C 139.404 8.10547 140.479 7.86133 141.162 6.98242 C 149.316 -3.51562 154.59 -19.2383 154.59 -35.2539 C 154.59 -51.2695 149.316 -67.041 141.162 -77.5391 C 140.479 -78.418 139.404 -78.6133 138.428 -77.9785 C 137.451 -77.2949 137.354 -76.1719 138.086 -75.0977 C 146.191 -64.3555 150.635 -50.3418 150.635 -35.2539 C 150.635 -20.2148 146.191 -6.20117 138.086 4.54102 C 137.354 5.61523 137.451 6.73828 138.428 7.42188 Z M 113.916 -9.32617 C 114.844 -8.69141 115.967 -8.88672 116.65 -9.76562 C 121.484 -16.0156 124.902 -24.8047 124.902 -35.2539 C 124.902 -45.752 121.484 -54.541 116.65 -60.7422 C 115.967 -61.6699 114.844 -61.8652 113.916 -61.1816 C 112.988 -60.498 112.793 -59.3262 113.574 -58.252 C 118.555 -51.3672 120.947 -44.4336 120.947 -35.2539 C 120.947 -26.123 118.555 -19.1895 113.574 -12.3047 C 112.793 -11.2305 112.988 -10.0098 113.916 -9.32617 Z"/>
  </g>
  <g id="Ultralight-L" transform="matrix(1 0 0 1 461.396 1556)">
   <path d="M 161.768 23.8281 C 162.402 24.3164 163.184 24.1211 163.525 23.4863 C 173.438 7.08008 181.787 -10.2539 181.787 -35.2539 C 181.787 -60.3027 173.486 -77.5879 163.525 -93.9941 C 163.184 -94.6289 162.402 -94.8242 161.768 -94.3848 C 161.182 -93.9941 161.035 -93.1641 161.475 -92.4316 C 171.191 -76.416 179.248 -59.8145 179.248 -35.2539 C 179.248 -10.7422 171.191 5.85938 161.475 21.9238 C 161.035 22.6074 161.182 23.4863 161.768 23.8281 Z M 82.2754 18.6035 C 84.7168 18.6035 85.791 16.748 85.791 14.5508 L 85.791 -85.1074 C 85.791 -87.3535 84.7168 -89.1113 82.3242 -89.1113 C 80.6641 -89.1113 79.248 -88.1836 78.2715 -87.2559 L 48.1445 -57.8125 C 47.4121 -57.1289 46.582 -56.7871 45.4102 -56.7871 L 24.1211 -56.7871 C 19.1406 -56.7871 14.8438 -52.4902 14.8438 -47.6074 L 14.8438 -22.0703 C 14.8438 -17.1875 19.1406 -12.8906 24.1211 -12.8906 L 45.4102 -12.8906 C 46.582 -12.8906 47.4121 -12.5488 48.1445 -11.8652 L 78.2715 16.6992 C 79.2969 17.627 80.6641 18.6035 82.2754 18.6035 Z M 136.865 6.98242 C 137.5 7.42188 138.184 7.32422 138.672 6.78711 C 146.777 -3.51562 152.1 -19.2871 152.1 -35.2539 C 152.1 -51.2695 146.729 -67.041 138.672 -77.2949 C 138.232 -77.8809 137.5 -77.9785 136.865 -77.5391 C 136.23 -77.0508 136.182 -76.3672 136.719 -75.6836 C 145.02 -64.7461 149.561 -50.5859 149.561 -35.2539 C 149.561 -19.9219 145.02 -5.81055 136.719 5.12695 C 136.182 5.85938 136.23 6.54297 136.865 6.98242 Z M 112.5 -9.7168 C 113.184 -9.22852 113.867 -9.375 114.307 -9.91211 C 119.092 -16.0645 122.607 -24.6582 122.607 -35.2539 C 122.607 -45.8496 119.092 -54.4434 114.307 -60.5957 C 113.867 -61.1816 113.184 -61.2793 112.5 -60.8398 C 111.963 -60.4004 111.816 -59.6191 112.354 -58.9355 C 117.627 -51.6602 120.068 -44.7754 120.068 -35.2539 C 120.068 -25.7812 117.627 -18.8965 112.354 -11.6211 C 111.816 -10.9375 111.963 -10.1562 112.5 -9.7168 Z"/>
  </g>
  <g id="Black-M" transform="matrix(1 0 0 1 2830.91 1126)">
   <path d="M 160.596 22.3633 C 165.137 24.8535 170.557 23.5352 173.145 19.1406 C 182.422 3.17383 187.939 -15.2344 187.939 -35.0586 C 187.939 -54.8828 182.471 -73.291 173.145 -89.2578 C 170.557 -93.7012 165.137 -95.0195 160.596 -92.4805 C 155.811 -89.8438 155.029 -84.0332 158.057 -78.7598 C 165.43 -65.8691 169.629 -50.9766 169.629 -35.0586 C 169.629 -19.1406 165.43 -4.24805 158.057 8.59375 C 155.029 13.916 155.811 19.7266 160.596 22.3633 Z M 76.8555 13.4277 C 82.9102 13.4277 87.5488 8.78906 87.5488 2.73438 L 87.5488 -73.1445 C 87.5488 -79.1504 82.9102 -83.8379 76.8555 -83.8379 C 73.291 -83.8379 70.3125 -82.4219 66.5527 -79.0527 L 45.9473 -60.6445 C 45.6543 -60.4004 45.5078 -60.3516 45.2637 -60.3516 L 32.8613 -60.3516 C 22.7051 -60.3516 17.041 -54.4434 17.041 -43.8965 L 17.041 -26.4648 C 17.041 -15.9668 22.7051 -10.0586 32.8613 -10.0586 L 45.2637 -10.0586 C 45.5078 -10.0586 45.7031 -10.0586 45.9473 -9.81445 L 66.5527 8.64258 C 70.2148 11.9141 73.0469 13.4277 76.8555 13.4277 Z M 133.203 7.37305 C 137.549 9.76562 142.773 8.69141 145.41 4.44336 C 152.588 -6.98242 156.592 -20.5566 156.592 -35.0586 C 156.592 -49.5605 152.588 -63.1348 145.41 -74.6094 C 142.773 -78.8086 137.549 -79.8828 133.203 -77.4902 C 128.125 -74.707 127.637 -68.7988 130.859 -63.2812 C 135.645 -55.0781 138.33 -45.3613 138.33 -35.0586 C 138.33 -24.8047 135.645 -15.0879 130.859 -6.83594 C 127.637 -1.31836 128.125 4.58984 133.203 7.37305 Z M 105.518 -7.91016 C 109.814 -5.37109 114.844 -6.39648 117.285 -9.86328 C 122.363 -16.9922 125.244 -25.6836 125.244 -35.0586 C 125.244 -44.4824 122.363 -53.125 117.285 -60.3027 C 114.844 -63.7695 109.814 -64.7461 105.518 -62.2559 C 101.025 -59.6191 99.9023 -54.2969 103.711 -47.6074 C 105.811 -43.8477 106.982 -39.5996 106.982 -35.0586 C 106.982 -30.5176 105.811 -26.2695 103.711 -22.5098 C 99.9023 -15.8203 101.025 -10.5469 105.518 -7.91016 Z"/>
  </g>
  <g id="Heavy-M" transform="matrix(1 0 0 1 2538.69 1126)">
   <path d="M 153.955 20.0684 C 157.861 22.3145 162.549 21.1426 164.844 17.334 C 174.023 2.09961 179.492 -15.7715 179.492 -35.1074 C 179.492 -54.4434 174.023 -72.3145 164.844 -87.5488 C 162.549 -91.4062 157.861 -92.5293 153.955 -90.2832 C 149.854 -87.9883 149.219 -82.959 151.855 -78.418 C 159.277 -65.8691 163.672 -51.0742 163.672 -35.1074 C 163.672 -19.1406 159.277 -4.3457 151.855 8.20312 C 149.219 12.7441 149.854 17.7246 153.955 20.0684 Z M 75.0977 12.5 C 80.5176 12.5 84.6191 8.39844 84.6191 2.97852 L 84.6191 -73.3398 C 84.6191 -78.7109 80.5176 -82.9102 75.0977 -82.9102 C 71.7773 -82.9102 69.1406 -81.6406 65.6738 -78.4668 L 44.8242 -59.5703 C 44.4824 -59.3262 44.3359 -59.2285 43.9941 -59.2285 L 31.1035 -59.2285 C 21.6797 -59.2285 16.5039 -53.8574 16.5039 -44.0918 L 16.5039 -26.3184 C 16.5039 -16.5039 21.6797 -11.1328 31.1035 -11.1328 L 43.9941 -11.1328 C 44.3359 -11.1328 44.5312 -11.084 44.8242 -10.8398 L 65.6738 8.10547 C 68.9941 11.1328 71.6309 12.5 75.0977 12.5 Z M 128.32 5.46875 C 132.129 7.61719 136.67 6.68945 139.014 2.97852 C 145.996 -7.86133 149.951 -21.0938 149.951 -35.1074 C 149.951 -49.1211 145.996 -62.4023 139.014 -73.1934 C 136.67 -76.9043 132.129 -77.832 128.32 -75.6836 C 124.023 -73.291 123.584 -68.1641 126.367 -63.4766 C 131.348 -55.3711 134.131 -45.5078 134.131 -35.1074 C 134.131 -24.7559 131.299 -14.8438 126.367 -6.73828 C 123.584 -2.05078 124.023 3.07617 128.32 5.46875 Z M 102.588 -9.27734 C 106.299 -7.08008 110.693 -7.95898 112.891 -11.0352 C 117.676 -17.7246 120.41 -26.123 120.41 -35.1074 C 120.41 -44.0918 117.676 -52.4902 112.891 -59.1797 C 110.693 -62.3047 106.299 -63.1348 102.588 -60.9375 C 98.6816 -58.5938 97.7539 -53.9551 101.025 -48.3398 C 103.32 -44.5312 104.59 -39.9414 104.59 -35.1074 C 104.59 -30.2734 103.32 -25.7324 101.025 -21.875 C 97.7539 -16.2598 98.6816 -11.6699 102.588 -9.27734 Z"/>
  </g>
  <g id="Bold-M" transform="matrix(1 0 0 1 2247.03 1126)">
   <path d="M 146.484 17.5293 C 149.658 19.4336 153.564 18.5059 155.566 15.2832 C 164.6 0.927734 170.02 -16.3574 170.02 -35.1562 C 170.02 -53.9551 164.551 -71.2402 155.566 -85.5957 C 153.564 -88.8184 149.658 -89.7461 146.484 -87.8418 C 143.164 -85.8887 142.627 -81.7871 144.873 -78.0762 C 152.393 -65.918 156.982 -51.1719 156.982 -35.1562 C 156.982 -19.1406 152.393 -4.39453 144.873 7.76367 C 142.627 11.4258 143.164 15.5273 146.484 17.5293 Z M 73.1445 11.5234 C 77.832 11.5234 81.3477 7.95898 81.3477 3.32031 L 81.3477 -73.584 C 81.3477 -78.2227 77.832 -81.9336 73.0957 -81.9336 C 70.1172 -81.9336 67.8223 -80.7129 64.6484 -77.7832 L 43.5547 -58.3984 C 43.2129 -58.1055 42.9688 -58.0078 42.5781 -58.0078 L 29.1016 -58.0078 C 20.5566 -58.0078 15.918 -53.1738 15.918 -44.2383 L 15.918 -26.0742 C 15.918 -17.1387 20.5566 -12.3047 29.1016 -12.3047 L 42.5781 -12.3047 C 42.9688 -12.3047 43.2617 -12.2559 43.5547 -11.9629 L 64.6484 7.51953 C 67.6758 10.2539 70.0684 11.5234 73.1445 11.5234 Z M 122.9 3.36914 C 126.025 5.17578 129.834 4.39453 131.836 1.31836 C 138.623 -8.83789 142.529 -21.6797 142.529 -35.1562 C 142.529 -48.6328 138.672 -61.5723 131.836 -71.6797 C 129.785 -74.7559 126.025 -75.5371 122.9 -73.6816 C 119.482 -71.6797 119.043 -67.5293 121.387 -63.7207 C 126.514 -55.7129 129.443 -45.6543 129.443 -35.1562 C 129.443 -24.6582 126.465 -14.6484 121.387 -6.64062 C 119.092 -2.83203 119.482 1.31836 122.9 3.36914 Z M 99.3164 -10.8398 C 102.344 -8.98438 106.006 -9.7168 107.959 -12.4023 C 112.402 -18.5547 114.99 -26.6113 114.99 -35.1562 C 114.99 -43.7012 112.402 -51.7578 107.959 -57.959 C 106.006 -60.6445 102.344 -61.3281 99.3164 -59.4727 C 96.0449 -57.4219 95.3125 -53.5645 97.998 -49.1699 C 100.537 -45.2637 101.904 -40.332 101.904 -35.1562 C 101.904 -29.9805 100.537 -25.0977 97.998 -21.1914 C 95.3613 -16.748 96.0449 -12.8906 99.3164 -10.8398 Z"/>
  </g>
  <g id="Semibold-M" transform="matrix(1 0 0 1 1953.79 1126)">
   <path d="M 141.357 15.7715 C 144.043 17.4316 147.412 16.6504 149.17 13.8672 C 158.154 0.0976562 163.477 -16.748 163.477 -35.2051 C 163.477 -53.6133 158.057 -70.459 149.17 -84.2773 C 147.412 -87.0605 144.043 -87.8418 141.357 -86.1816 C 138.574 -84.4238 138.135 -80.957 140.039 -77.832 C 147.656 -65.918 152.393 -51.2695 152.393 -35.2051 C 152.393 -19.1406 147.656 -4.44336 140.039 7.4707 C 138.135 10.5469 138.574 14.0137 141.357 15.7715 Z M 71.8262 10.791 C 75.9766 10.791 79.1016 7.66602 79.1016 3.51562 L 79.1016 -73.7305 C 79.1016 -77.8809 75.9766 -81.2012 71.7285 -81.2012 C 68.9941 -81.2012 66.9434 -80.0781 63.9648 -77.3438 L 42.6758 -57.5684 C 42.3828 -57.2754 42.041 -57.1777 41.6016 -57.1777 L 27.7344 -57.1777 C 19.8242 -57.1777 15.4785 -52.7344 15.4785 -44.3848 L 15.4785 -25.9277 C 15.4785 -17.5781 19.8242 -13.1348 27.7344 -13.1348 L 41.6016 -13.1348 C 42.041 -13.1348 42.3828 -13.0371 42.6758 -12.7441 L 63.9648 7.12891 C 66.748 9.66797 68.9453 10.791 71.8262 10.791 Z M 119.189 1.9043 C 121.826 3.51562 125.098 2.88086 126.855 0.195312 C 133.496 -9.47266 137.402 -22.0703 137.402 -35.2051 C 137.402 -48.291 133.594 -60.9863 126.855 -70.6055 C 125.049 -73.2422 121.826 -73.9258 119.189 -72.3145 C 116.309 -70.5566 115.918 -67.041 117.969 -63.8672 C 123.242 -55.957 126.221 -45.752 126.221 -35.2051 C 126.221 -24.6094 123.145 -14.4531 117.969 -6.54297 C 115.967 -3.36914 116.309 0.146484 119.189 1.9043 Z M 97.0703 -11.9141 C 99.6094 -10.3027 102.783 -10.8887 104.541 -13.3301 C 108.789 -19.0918 111.279 -26.9531 111.279 -35.2051 C 111.279 -43.457 108.789 -51.2695 104.541 -57.0801 C 102.783 -59.5215 99.6094 -60.0586 97.0703 -58.4961 C 94.2383 -56.6406 93.6523 -53.2715 95.9473 -49.707 C 98.6328 -45.8008 100.098 -40.625 100.098 -35.2051 C 100.098 -29.7852 98.584 -24.6582 95.9473 -20.7031 C 93.7012 -17.0898 94.2383 -13.7695 97.0703 -11.9141 Z"/>
  </g>
  <g id="Medium-M" transform="matrix(1 0 0 1 1659.71 1126)">
   <path d="M 137.451 14.4043 C 139.746 15.918 142.725 15.2344 144.336 12.8418 C 153.223 -0.537109 158.545 -17.0898 158.545 -35.2051 C 158.545 -53.3691 153.076 -69.873 144.336 -83.252 C 142.725 -85.7422 139.746 -86.377 137.451 -84.8633 C 135.059 -83.3496 134.717 -80.3223 136.426 -77.6855 C 144.092 -65.918 148.877 -51.3184 148.877 -35.2051 C 148.877 -19.1406 144.092 -4.49219 136.426 7.22656 C 134.717 9.86328 135.059 12.8906 137.451 14.4043 Z M 70.8008 10.2539 C 74.6094 10.2539 77.3926 7.42188 77.3926 3.66211 L 77.3926 -73.8281 C 77.3926 -77.6367 74.6094 -80.6641 70.7031 -80.6641 C 68.1152 -80.6641 66.2598 -79.5898 63.4766 -77.002 L 41.9922 -56.9336 C 41.6992 -56.6406 41.3086 -56.543 40.8691 -56.543 L 26.709 -56.543 C 19.2383 -56.543 15.1367 -52.3926 15.1367 -44.4824 L 15.1367 -25.8301 C 15.1367 -17.9199 19.2383 -13.7695 26.709 -13.7695 L 40.8691 -13.7695 C 41.3086 -13.7695 41.6992 -13.6719 41.9922 -13.3789 L 63.4766 6.78711 C 66.0156 9.17969 68.1641 10.2539 70.8008 10.2539 Z M 116.309 0.78125 C 118.652 2.24609 121.533 1.70898 123.145 -0.634766 C 129.639 -10.0098 133.496 -22.4121 133.496 -35.2051 C 133.496 -48.0469 129.736 -60.5469 123.145 -69.8242 C 121.484 -72.1191 118.652 -72.7051 116.309 -71.2402 C 113.916 -69.7266 113.574 -66.6992 115.332 -63.9648 C 120.703 -56.1523 123.779 -45.8496 123.779 -35.2051 C 123.779 -24.6094 120.654 -14.3555 115.332 -6.49414 C 113.623 -3.75977 113.916 -0.732422 116.309 0.78125 Z M 95.3613 -12.7441 C 97.5586 -11.3281 100.391 -11.8164 101.953 -14.0137 C 106.006 -19.5312 108.398 -27.1973 108.398 -35.2051 C 108.398 -43.2617 106.006 -50.8789 101.953 -56.4453 C 100.391 -58.6426 97.5586 -59.1309 95.3613 -57.7148 C 92.8711 -56.0547 92.3828 -53.0762 94.3848 -50.1465 C 97.168 -46.1914 98.6816 -40.8203 98.6816 -35.2051 C 98.6816 -29.6387 97.1191 -24.3164 94.3848 -20.3125 C 92.4316 -17.334 92.8711 -14.4043 95.3613 -12.7441 Z"/>
  </g>
  <g id="Regular-M" transform="matrix(1 0 0 1 1366.42 1126)">
   <path d="M 132.373 12.6953 C 134.18 13.9648 136.572 13.4277 137.988 11.4258 C 146.826 -1.31836 152.1 -17.4805 152.1 -35.2539 C 152.1 -53.0762 146.68 -69.1406 137.988 -81.9336 C 136.572 -83.9844 134.18 -84.4727 132.373 -83.2031 C 130.518 -81.8848 130.225 -79.4922 131.641 -77.4414 C 139.404 -65.918 144.336 -51.3672 144.336 -35.2539 C 144.336 -19.1406 139.404 -4.54102 131.641 6.93359 C 130.225 8.98438 130.518 11.377 132.373 12.6953 Z M 69.4824 9.57031 C 72.8027 9.57031 75.1953 7.12891 75.1953 3.85742 L 75.1953 -74.0234 C 75.1953 -77.2949 72.8027 -79.9805 69.3848 -79.9805 C 66.9922 -79.9805 65.3809 -78.9551 62.793 -76.5137 L 41.1621 -56.1523 C 40.8203 -55.8594 40.3809 -55.7129 39.9414 -55.7129 L 25.3418 -55.7129 C 18.457 -55.7129 14.7461 -51.9531 14.7461 -44.5801 L 14.7461 -25.6836 C 14.7461 -18.3594 18.457 -14.5996 25.3418 -14.5996 L 39.9414 -14.5996 C 40.3809 -14.5996 40.8203 -14.4531 41.1621 -14.1602 L 62.793 6.39648 C 65.1367 8.59375 67.0898 9.57031 69.4824 9.57031 Z M 112.646 -0.634766 C 114.502 0.634766 116.846 0.146484 118.213 -1.75781 C 124.609 -10.6445 128.418 -22.8027 128.418 -35.2539 C 128.418 -47.7051 124.707 -59.9609 118.213 -68.75 C 116.797 -70.6543 114.502 -71.1426 112.646 -69.873 C 110.791 -68.6035 110.498 -66.2109 111.963 -64.1113 C 117.432 -56.3965 120.605 -45.9473 120.605 -35.2539 C 120.605 -24.5605 117.334 -14.209 111.963 -6.39648 C 110.547 -4.29688 110.791 -1.9043 112.646 -0.634766 Z M 93.1641 -13.8184 C 94.8242 -12.6465 97.168 -12.9883 98.584 -14.9414 C 102.441 -20.0684 104.736 -27.5391 104.736 -35.2539 C 104.736 -42.9688 102.441 -50.3906 98.584 -55.5664 C 97.168 -57.5195 94.8242 -57.8613 93.1641 -56.7383 C 91.0645 -55.2734 90.7715 -52.7832 92.334 -50.6836 C 95.3125 -46.6797 96.875 -41.0645 96.875 -35.2539 C 96.875 -29.4434 95.2637 -23.877 92.334 -19.8242 C 90.8203 -17.6758 91.0645 -15.2832 93.1641 -13.8184 Z"/>
  </g>
  <g id="Light-M" transform="matrix(1 0 0 1 1071.96 1126)">
   <path d="M 130.176 12.0117 C 131.592 12.9883 133.447 12.5977 134.473 11.084 C 142.969 -1.66016 148.584 -16.9922 148.584 -35.2539 C 148.584 -53.5645 142.871 -68.7988 134.473 -81.5918 C 133.447 -83.1543 131.592 -83.5449 130.176 -82.5684 C 128.76 -81.543 128.564 -79.6875 129.639 -78.0762 C 137.305 -66.3086 142.627 -52.2949 142.627 -35.2539 C 142.627 -18.2617 137.305 -4.19922 129.639 7.56836 C 128.564 9.17969 128.76 11.0352 130.176 12.0117 Z M 67.6758 8.59375 C 70.5566 8.59375 72.5098 6.49414 72.5098 3.71094 L 72.5098 -73.9746 C 72.5098 -76.7578 70.5566 -79.0527 67.627 -79.0527 C 65.5762 -79.0527 64.1113 -78.125 62.1094 -76.2207 L 39.9414 -55.0781 C 39.5508 -54.7363 39.0625 -54.541 38.4277 -54.541 L 23.291 -54.541 C 17.334 -54.541 13.7207 -50.9277 13.7207 -44.6777 L 13.7207 -25.4883 C 13.7207 -19.2383 17.334 -15.625 23.291 -15.625 L 38.4277 -15.625 C 39.0625 -15.625 39.5508 -15.4297 39.9414 -15.0879 L 62.1094 5.95703 C 63.9648 7.71484 65.625 8.59375 67.6758 8.59375 Z M 110.596 -1.2207 C 112.061 -0.244141 113.818 -0.585938 114.893 -2.05078 C 121.24 -10.6445 125.146 -22.8027 125.146 -35.2539 C 125.146 -47.7051 121.289 -59.9609 114.893 -68.457 C 113.818 -69.9219 112.061 -70.2637 110.596 -69.2871 C 109.18 -68.3105 108.936 -66.5039 110.059 -64.8926 C 115.869 -56.9336 119.141 -46.3379 119.141 -35.2539 C 119.141 -24.1699 115.771 -13.623 110.059 -5.66406 C 108.984 -4.00391 109.18 -2.19727 110.596 -1.2207 Z M 91.3086 -14.3066 C 92.627 -13.3789 94.3848 -13.6719 95.459 -15.1367 C 99.2676 -20.166 101.709 -27.3926 101.709 -35.2539 C 101.709 -43.1152 99.2676 -50.293 95.459 -55.3711 C 94.3848 -56.8359 92.627 -57.1289 91.3086 -56.2012 C 89.7461 -55.0781 89.4531 -53.2227 90.6738 -51.6113 C 93.9941 -47.0703 95.6543 -41.5527 95.6543 -35.2539 C 95.6543 -28.9551 93.9453 -23.4863 90.6738 -18.9453 C 89.502 -17.2852 89.7461 -15.4297 91.3086 -14.3066 Z"/>
  </g>
  <g id="Thin-M" transform="matrix(1 0 0 1 778.224 1126)">
   <path d="M 127.295 11.1328 C 128.174 11.7676 129.248 11.5234 129.883 10.5957 C 137.891 -2.14844 143.994 -16.3086 143.994 -35.2539 C 143.994 -54.1992 137.842 -68.3594 129.883 -81.1035 C 129.248 -82.0312 128.174 -82.2754 127.295 -81.6895 C 126.465 -81.1035 126.318 -79.9316 126.953 -78.9551 C 134.521 -66.7969 140.381 -53.4668 140.381 -35.2539 C 140.381 -17.041 134.521 -3.71094 126.953 8.44727 C 126.318 9.42383 126.465 10.5957 127.295 11.1328 Z M 65.332 7.32422 C 67.627 7.32422 68.8965 5.66406 68.8965 3.4668 L 68.8965 -73.9258 C 68.8965 -76.0742 67.627 -77.832 65.332 -77.832 C 63.7207 -77.832 62.5 -77.0508 61.2305 -75.8301 L 38.3789 -53.6621 C 37.8418 -53.2227 37.2559 -52.9785 36.4746 -52.9785 L 20.5078 -52.9785 C 15.8203 -52.9785 12.4023 -49.5605 12.4023 -44.7754 L 12.4023 -25.2441 C 12.4023 -20.4102 15.8203 -16.9922 20.5078 -16.9922 L 36.4746 -16.9922 C 37.2559 -16.9922 37.8418 -16.748 38.3789 -16.3086 L 61.2305 5.37109 C 62.4512 6.54297 63.7695 7.32422 65.332 7.32422 Z M 107.91 -2.00195 C 108.789 -1.36719 109.814 -1.5625 110.449 -2.44141 C 116.748 -10.6445 120.801 -22.8516 120.801 -35.2539 C 120.801 -47.6562 116.797 -59.9121 110.449 -68.1152 C 109.814 -68.9453 108.789 -69.1406 107.91 -68.5059 C 106.982 -67.9199 106.885 -66.8945 107.617 -65.8691 C 113.77 -57.6172 117.188 -46.8262 117.188 -35.2539 C 117.188 -23.7305 113.77 -12.8906 107.617 -4.63867 C 106.885 -3.66211 106.982 -2.58789 107.91 -2.00195 Z M 88.8184 -14.9902 C 89.6973 -14.4043 90.7227 -14.5996 91.3574 -15.4297 C 95.1172 -20.3125 97.7051 -27.1973 97.7051 -35.2539 C 97.7051 -43.3105 95.1172 -50.1953 91.3574 -55.0781 C 90.7227 -55.957 89.6973 -56.1035 88.8184 -55.5176 C 87.9395 -54.8828 87.793 -53.7598 88.5254 -52.7832 C 92.2852 -47.6074 94.0918 -42.1875 94.0918 -35.2539 C 94.0918 -28.3203 92.2852 -22.9492 88.5254 -17.7246 C 87.793 -16.748 87.9395 -15.6738 88.8184 -14.9902 Z"/>
  </g>
  <g id="Ultralight-M" transform="matrix(1 0 0 1 483.051 1126)">
   <path d="M 125.83 10.6934 C 126.416 11.1328 127.148 10.9375 127.49 10.3516 C 135.254 -2.39258 141.65 -15.9668 141.65 -35.2539 C 141.65 -54.541 135.254 -68.1641 127.49 -80.8594 C 127.148 -81.4453 126.416 -81.6406 125.83 -81.2012 C 125.293 -80.8594 125.146 -80.0781 125.586 -79.4434 C 133.105 -67.0898 139.258 -54.0527 139.258 -35.2539 C 139.258 -16.4551 133.105 -3.4668 125.586 8.88672 C 125.146 9.57031 125.293 10.3516 125.83 10.6934 Z M 64.1602 6.68945 C 66.1133 6.68945 67.0898 5.22461 67.0898 3.36914 L 67.0898 -73.877 C 67.0898 -75.7324 66.1133 -77.1973 64.1602 -77.1973 C 62.793 -77.1973 61.6699 -76.4648 60.791 -75.6348 L 37.5488 -52.9785 C 37.0117 -52.4414 36.377 -52.1973 35.498 -52.1973 L 19.1406 -52.1973 C 15.0391 -52.1973 11.7188 -48.877 11.7188 -44.8242 L 11.7188 -25.0977 C 11.7188 -21.0449 15.0391 -17.6758 19.1406 -17.6758 L 35.498 -17.6758 C 36.377 -17.6758 37.0117 -17.4316 37.5488 -16.9434 L 60.791 5.07812 C 61.6699 5.95703 62.793 6.68945 64.1602 6.68945 Z M 106.494 -2.39258 C 107.08 -1.95312 107.764 -2.09961 108.154 -2.63672 C 114.453 -10.6445 118.604 -22.8516 118.604 -35.2539 C 118.604 -47.6562 114.453 -59.8633 108.154 -67.9199 C 107.764 -68.457 107.08 -68.5547 106.494 -68.1152 C 105.908 -67.7246 105.859 -67.041 106.348 -66.4062 C 112.695 -57.959 116.211 -47.0703 116.211 -35.2539 C 116.211 -23.4375 112.695 -12.5488 106.348 -4.10156 C 105.859 -3.4668 105.908 -2.7832 106.494 -2.39258 Z M 87.5488 -15.332 C 88.1836 -14.9414 88.8184 -15.0391 89.2578 -15.5762 C 92.9688 -20.3613 95.6543 -27.0996 95.6543 -35.2539 C 95.6543 -43.457 92.9688 -50.1465 89.2578 -54.9316 C 88.8184 -55.4688 88.1836 -55.6152 87.5488 -55.1758 C 87.0117 -54.7363 86.9141 -54.0527 87.4023 -53.3691 C 91.4062 -47.8516 93.2617 -42.5293 93.2617 -35.2539 C 93.2617 -28.0273 91.4062 -22.6562 87.4023 -17.1387 C 86.9141 -16.4551 87.0117 -15.7715 87.5488 -15.332 Z"/>
  </g>
  <g id="Black-S" transform="matrix(1 0 0 1 2853.42 696)">
   <path d="M 125.342 9.7168 C 128.857 11.6699 133.057 10.6445 135.059 7.22656 C 142.334 -5.22461 146.631 -19.6289 146.631 -35.1074 C 146.631 -50.5859 142.334 -64.9902 135.059 -77.4414 C 133.057 -80.8594 128.857 -81.8848 125.342 -79.9316 C 121.631 -77.8809 121.045 -73.3887 123.389 -69.2871 C 129.15 -59.2285 132.471 -47.5586 132.471 -35.1074 C 132.471 -22.6562 129.15 -10.9863 123.389 -0.927734 C 121.045 3.17383 121.631 7.66602 125.342 9.7168 Z M 60.1074 2.83203 C 64.7949 2.83203 68.4082 -0.78125 68.4082 -5.46875 L 68.4082 -64.9414 C 68.4082 -69.6289 64.7949 -73.2422 60.1074 -73.2422 C 57.3242 -73.2422 55.0293 -72.168 52.0996 -69.5312 L 35.9375 -55.0781 C 35.6934 -54.8828 35.5957 -54.834 35.4004 -54.834 L 25.6348 -54.834 C 17.7246 -54.834 13.3301 -50.2441 13.3301 -42.041 L 13.3301 -28.3691 C 13.3301 -20.166 17.7246 -15.5762 25.6348 -15.5762 L 35.4004 -15.5762 C 35.5957 -15.5762 35.7422 -15.5762 35.9375 -15.3809 L 52.0996 -0.878906 C 54.9316 1.66016 57.1289 2.83203 60.1074 2.83203 Z M 104.004 -2.00195 C 107.373 -0.146484 111.426 -0.976562 113.477 -4.24805 C 119.092 -13.1836 122.217 -23.7793 122.217 -35.1074 C 122.217 -46.4355 119.092 -57.0312 113.477 -65.9668 C 111.426 -69.2383 107.373 -70.0684 104.004 -68.2129 C 100.098 -66.0645 99.707 -61.4746 102.197 -57.2266 C 105.957 -50.7812 108.057 -43.1641 108.057 -35.1074 C 108.057 -27.0508 105.957 -19.4336 102.197 -12.9883 C 99.707 -8.74023 100.098 -4.15039 104.004 -2.00195 Z M 82.4707 -13.916 C 85.791 -11.9629 89.6973 -12.7441 91.6016 -15.4297 C 95.5566 -20.9961 97.8027 -27.7832 97.8027 -35.1074 C 97.8027 -42.4316 95.5566 -49.2188 91.6016 -54.7852 C 89.6973 -57.4707 85.791 -58.252 82.4707 -56.2988 C 79.0039 -54.248 78.125 -50.1465 81.0547 -44.9707 C 82.7148 -42.041 83.6426 -38.6719 83.6426 -35.1074 C 83.6426 -31.543 82.7148 -28.1738 81.0547 -25.2441 C 78.125 -20.0684 79.0039 -15.9668 82.4707 -13.916 Z"/>
  </g>
  <g id="Heavy-S" transform="matrix(1 0 0 1 2559.91 696)">
   <path d="M 120.508 8.05664 C 123.535 9.81445 127.295 8.88672 129.102 5.85938 C 136.328 -6.00586 140.527 -20.0684 140.527 -35.1562 C 140.527 -50.1953 136.279 -64.2578 129.102 -76.1719 C 127.295 -79.1992 123.535 -80.0781 120.508 -78.3203 C 117.236 -76.4648 116.748 -72.5586 118.848 -68.9941 C 124.707 -59.1797 128.076 -47.5098 128.076 -35.1562 C 128.076 -22.7539 124.707 -11.084 118.848 -1.31836 C 116.748 2.24609 117.236 6.20117 120.508 8.05664 Z M 58.9844 2.24609 C 63.2324 2.24609 66.5039 -0.976562 66.5039 -5.22461 L 66.5039 -65.0879 C 66.5039 -69.3359 63.2324 -72.6562 58.9355 -72.6562 C 56.3477 -72.6562 54.248 -71.6309 51.5137 -69.0918 L 35.2051 -54.3945 C 34.9609 -54.1992 34.8145 -54.1016 34.6191 -54.1016 L 24.5117 -54.1016 C 17.0898 -54.1016 13.0371 -49.9023 13.0371 -42.1387 L 13.0371 -28.2227 C 13.0371 -20.5078 17.0898 -16.2598 24.5117 -16.2598 L 34.6191 -16.2598 C 34.8145 -16.2598 35.0098 -16.2598 35.2051 -16.0645 L 51.5137 -1.2207 C 54.1504 1.17188 56.2012 2.24609 58.9844 2.24609 Z M 100.537 -3.36914 C 103.516 -1.70898 107.08 -2.44141 108.936 -5.32227 C 114.404 -13.8184 117.48 -24.1699 117.48 -35.1562 C 117.48 -46.0938 114.453 -56.4453 108.936 -64.9414 C 107.08 -67.8711 103.516 -68.6035 100.537 -66.8945 C 97.168 -64.9902 96.7773 -60.9863 98.9746 -57.2754 C 102.832 -50.9766 105.029 -43.2129 105.029 -35.1562 C 105.029 -27.0508 102.832 -19.3359 98.9746 -12.9883 C 96.7773 -9.32617 97.168 -5.27344 100.537 -3.36914 Z M 80.4688 -14.9414 C 83.3496 -13.1836 86.8164 -13.8672 88.5742 -16.3086 C 92.2852 -21.5332 94.4336 -28.125 94.4336 -35.1562 C 94.4336 -42.1387 92.2852 -48.7305 88.5742 -53.9551 C 86.8164 -56.3965 83.3496 -57.0801 80.4688 -55.3711 C 77.3438 -53.4668 76.6113 -49.8047 79.1992 -45.4102 C 80.957 -42.5293 81.9336 -38.8672 81.9336 -35.1562 C 81.9336 -31.3965 80.957 -27.7832 79.1992 -24.8535 C 76.6113 -20.459 77.3438 -16.7969 80.4688 -14.9414 Z"/>
  </g>
  <g id="Bold-S" transform="matrix(1 0 0 1 2266.76 696)">
   <path d="M 115.088 6.15234 C 117.627 7.71484 120.801 6.98242 122.461 4.3457 C 129.639 -6.88477 133.74 -20.6055 133.74 -35.2051 C 133.74 -49.7559 129.541 -63.4766 122.461 -74.707 C 120.801 -77.3438 117.627 -78.0762 115.088 -76.5137 C 112.354 -74.9023 111.963 -71.582 113.77 -68.6523 C 119.678 -59.1797 123.193 -47.5098 123.193 -35.2051 C 123.193 -22.8516 119.678 -11.1816 113.77 -1.70898 C 111.963 1.2207 112.354 4.54102 115.088 6.15234 Z M 57.7148 1.5625 C 61.4746 1.5625 64.3066 -1.26953 64.3066 -4.98047 L 64.3066 -65.2832 C 64.3066 -69.043 61.4746 -72.0215 57.666 -72.0215 C 55.2246 -72.0215 53.418 -71.0449 50.8301 -68.6523 L 34.375 -53.6133 C 34.1797 -53.418 33.9355 -53.3203 33.6914 -53.3203 L 23.2422 -53.3203 C 16.3574 -53.3203 12.6953 -49.5117 12.6953 -42.2852 L 12.6953 -28.125 C 12.6953 -20.8496 16.3574 -17.0898 23.2422 -17.0898 L 33.6914 -17.0898 C 33.9355 -17.0898 34.1797 -17.041 34.375 -16.7969 L 50.8301 -1.66016 C 53.2715 0.585938 55.1758 1.5625 57.7148 1.5625 Z M 96.6309 -4.93164 C 99.1699 -3.41797 102.246 -4.05273 103.857 -6.54297 C 109.18 -14.5996 112.207 -24.6582 112.207 -35.2051 C 112.207 -45.7031 109.229 -55.8105 103.857 -63.8184 C 102.197 -66.3086 99.1699 -66.9434 96.6309 -65.4297 C 93.8477 -63.8184 93.5059 -60.4004 95.4102 -57.373 C 99.3652 -51.1719 101.611 -43.3105 101.611 -35.2051 C 101.611 -27.0508 99.3164 -19.2383 95.4102 -12.9883 C 93.5547 -9.96094 93.8477 -6.54297 96.6309 -4.93164 Z M 78.1738 -16.0645 C 80.6152 -14.5508 83.5938 -15.1367 85.2051 -17.334 C 88.6719 -22.168 90.6738 -28.5156 90.6738 -35.2051 C 90.6738 -41.8457 88.6719 -48.1934 85.2051 -53.0273 C 83.5938 -55.2246 80.6152 -55.8105 78.1738 -54.2969 C 75.4883 -52.6367 74.9512 -49.4629 77.0996 -45.9473 C 79.0039 -43.0176 80.0781 -39.1113 80.0781 -35.2051 C 80.0781 -31.25 79.0039 -27.3438 77.0996 -24.4141 C 74.9512 -20.8496 75.4883 -17.7246 78.1738 -16.0645 Z"/>
  </g>
  <g id="Semibold-S" transform="matrix(1 0 0 1 1972.51 696)">
   <path d="M 111.328 4.88281 C 113.525 6.29883 116.357 5.61523 117.822 3.32031 C 125 -7.4707 129.053 -20.9473 129.053 -35.2051 C 129.053 -49.4629 124.902 -62.9395 117.822 -73.7305 C 116.357 -76.0742 113.525 -76.709 111.328 -75.293 C 108.984 -73.8281 108.643 -70.9473 110.254 -68.4082 C 116.26 -59.1309 119.824 -47.5098 119.824 -35.2051 C 119.824 -22.9492 116.26 -11.2305 110.254 -2.00195 C 108.643 0.537109 108.984 3.41797 111.328 4.88281 Z M 56.8359 1.12305 C 60.2539 1.12305 62.8418 -1.41602 62.8418 -4.83398 L 62.8418 -65.3809 C 62.8418 -68.7988 60.2539 -71.5332 56.7871 -71.5332 C 54.4922 -71.5332 52.832 -70.6055 50.3418 -68.3105 L 33.8379 -53.0762 C 33.5938 -52.8809 33.3496 -52.7832 33.1055 -52.7832 L 22.4121 -52.7832 C 15.8691 -52.7832 12.4512 -49.2676 12.4512 -42.3828 L 12.4512 -28.0273 C 12.4512 -21.1426 15.8691 -17.627 22.4121 -17.627 L 33.1055 -17.627 C 33.3496 -17.627 33.5938 -17.5293 33.8379 -17.334 L 50.3418 -1.9043 C 52.6367 0.195312 54.4922 1.12305 56.8359 1.12305 Z M 93.9453 -6.00586 C 96.1426 -4.63867 98.877 -5.17578 100.391 -7.42188 C 105.566 -15.0879 108.594 -24.9512 108.594 -35.2051 C 108.594 -45.459 105.664 -55.4199 100.391 -62.9883 C 98.877 -65.2344 96.1426 -65.7715 93.9453 -64.4043 C 91.5527 -62.9883 91.2598 -60.0586 92.9688 -57.4219 C 96.9727 -51.3184 99.2676 -43.3594 99.2676 -35.2051 C 99.2676 -27.0508 96.9238 -19.1406 92.9688 -12.9883 C 91.3086 -10.3516 91.5527 -7.42188 93.9453 -6.00586 Z M 76.6113 -16.8457 C 78.7109 -15.5273 81.3965 -15.9668 82.8613 -18.0176 C 86.1816 -22.5586 88.0859 -28.8086 88.0859 -35.2051 C 88.0859 -41.6016 86.1816 -47.8027 82.8613 -52.3926 C 81.3965 -54.4434 78.7109 -54.9316 76.6113 -53.5645 C 74.2188 -52.0508 73.7793 -49.2188 75.6836 -46.2891 C 77.6367 -43.3594 78.7598 -39.3066 78.7598 -35.2051 C 78.7598 -31.1035 77.6367 -27.0508 75.6836 -24.1211 C 73.7793 -21.1426 74.2188 -18.3594 76.6113 -16.8457 Z"/>
  </g>
  <g id="Medium-S" transform="matrix(1 0 0 1 1677.66 696)">
   <path d="M 108.496 3.90625 C 110.449 5.17578 112.988 4.58984 114.355 2.53906 C 121.484 -7.91016 125.488 -21.1914 125.488 -35.2051 C 125.488 -49.2676 121.338 -62.5 114.355 -72.998 C 112.988 -75.0977 110.449 -75.6348 108.496 -74.3652 C 106.445 -73.0469 106.152 -70.459 107.617 -68.2129 C 113.623 -59.1309 117.236 -47.4609 117.236 -35.2051 C 117.236 -22.998 113.623 -11.2793 107.617 -2.24609 C 106.152 0 106.445 2.58789 108.496 3.90625 Z M 56.1523 0.78125 C 59.3262 0.78125 61.7188 -1.5625 61.7188 -4.6875 L 61.7188 -65.4785 C 61.7188 -68.6523 59.3262 -71.1914 56.1035 -71.1914 C 53.9062 -71.1914 52.3926 -70.3125 50 -68.0664 L 33.3984 -52.6367 C 33.1543 -52.4414 32.9102 -52.3438 32.6172 -52.3438 L 21.7285 -52.3438 C 15.5273 -52.3438 12.3047 -49.0723 12.3047 -42.4316 L 12.3047 -27.9297 C 12.3047 -21.3379 15.5273 -18.0176 21.7285 -18.0176 L 32.6172 -18.0176 C 32.9102 -18.0176 33.2031 -17.9688 33.3984 -17.7246 L 50 -2.14844 C 52.1973 -0.0976562 53.9551 0.78125 56.1523 0.78125 Z M 91.8945 -6.78711 C 93.8965 -5.51758 96.3379 -6.05469 97.7051 -8.05664 C 102.832 -15.4785 105.811 -25.1953 105.811 -35.2051 C 105.811 -45.2637 102.93 -55.0781 97.7051 -62.4023 C 96.3379 -64.4043 93.8965 -64.8926 91.8945 -63.6719 C 89.8438 -62.3535 89.5508 -59.7656 91.0645 -57.4219 C 95.166 -51.416 97.5098 -43.4082 97.5098 -35.2051 C 97.5098 -27.0508 95.0684 -19.0918 91.0645 -12.9883 C 89.5996 -10.6934 89.8438 -8.10547 91.8945 -6.78711 Z M 75.4395 -17.4316 C 77.2461 -16.2109 79.6875 -16.6504 81.1035 -18.5547 C 84.2773 -22.9004 86.084 -29.0039 86.084 -35.2051 C 86.084 -41.4551 84.2773 -47.5098 81.1035 -51.9043 C 79.6875 -53.8086 77.2461 -54.248 75.4395 -53.0273 C 73.291 -51.5625 72.9004 -49.0234 74.5605 -46.582 C 76.6113 -43.6523 77.7832 -39.4043 77.7832 -35.2051 C 77.7832 -31.0547 76.6113 -26.8555 74.5605 -23.877 C 72.9004 -21.3867 73.291 -18.8477 75.4395 -17.4316 Z"/>
  </g>
  <g id="Regular-S" transform="matrix(1 0 0 1 1383.39 696)">
   <path d="M 104.785 2.63672 C 106.396 3.75977 108.545 3.27148 109.814 1.51367 C 116.895 -8.49609 120.85 -21.5332 120.85 -35.2539 C 120.85 -48.9746 116.748 -61.9629 109.814 -72.0215 C 108.545 -73.8281 106.396 -74.2676 104.785 -73.1445 C 103.125 -71.9727 102.881 -69.8242 104.15 -67.9688 C 110.254 -59.082 113.916 -47.4609 113.916 -35.2539 C 113.916 -23.0469 110.254 -11.377 104.15 -2.53906 C 102.881 -0.683594 103.125 1.46484 104.785 2.63672 Z M 55.3223 0.341797 C 58.1055 0.341797 60.2539 -1.70898 60.2539 -4.54102 L 60.2539 -65.625 C 60.2539 -68.4082 58.1055 -70.752 55.2246 -70.752 C 53.1738 -70.752 51.8066 -69.873 49.5117 -67.7246 L 32.8125 -52.1484 C 32.6172 -51.9043 32.3242 -51.8066 32.0312 -51.8066 L 20.8984 -51.8066 C 15.0391 -51.8066 12.0605 -48.8281 12.0605 -42.5293 L 12.0605 -27.832 C 12.0605 -21.582 15.0391 -18.5547 20.8984 -18.5547 L 32.0312 -18.5547 C 32.3242 -18.5547 32.6172 -18.457 32.8125 -18.2617 L 49.5117 -2.39258 C 51.6113 -0.488281 53.2715 0.341797 55.3223 0.341797 Z M 89.2578 -7.86133 C 90.918 -6.73828 93.0664 -7.12891 94.2871 -8.88672 C 99.2676 -15.9668 102.246 -25.4883 102.246 -35.2539 C 102.246 -45.0195 99.3652 -54.6387 94.2871 -61.6211 C 93.0176 -63.3789 90.918 -63.7695 89.2578 -62.6465 C 87.5977 -61.5234 87.3047 -59.375 88.623 -57.4707 C 92.7734 -51.5625 95.2148 -43.457 95.2148 -35.2539 C 95.2148 -27.0508 92.6758 -18.9941 88.623 -13.0371 C 87.3535 -11.1328 87.5977 -8.98438 89.2578 -7.86133 Z M 73.877 -18.2129 C 75.3906 -17.1387 77.4902 -17.4805 78.7598 -19.2383 C 81.7871 -23.291 83.5449 -29.2969 83.5449 -35.2539 C 83.5449 -41.2109 81.7871 -47.168 78.7598 -51.2695 C 77.4902 -53.0273 75.3906 -53.3691 73.877 -52.2949 C 72.0215 -50.9766 71.7285 -48.7793 73.1445 -46.9238 C 75.293 -43.9941 76.4648 -39.5996 76.4648 -35.2539 C 76.4648 -30.9082 75.2441 -26.5625 73.1445 -23.584 C 71.7773 -21.6797 72.0215 -19.5312 73.877 -18.2129 Z"/>
  </g>
  <g id="Light-S" transform="matrix(1 0 0 1 1088.66 696)">
   <path d="M 102.881 2.05078 C 104.102 2.92969 105.762 2.53906 106.738 1.17188 C 113.477 -8.78906 117.773 -21.0938 117.773 -35.2539 C 117.773 -49.4141 113.379 -61.6699 106.738 -71.6797 C 105.762 -73.0957 104.102 -73.4375 102.881 -72.5586 C 101.562 -71.6797 101.367 -69.9707 102.344 -68.5547 C 108.398 -59.4238 112.402 -48.2422 112.402 -35.2539 C 112.402 -22.2656 108.398 -11.0352 102.344 -1.95312 C 101.367 -0.537109 101.562 1.17188 102.881 2.05078 Z M 53.7109 -0.488281 C 56.1523 -0.488281 57.8613 -2.29492 57.8613 -4.6875 L 57.8613 -65.5762 C 57.8613 -67.9688 56.1523 -69.9219 53.6621 -69.9219 C 51.9531 -69.9219 50.7324 -69.1406 48.9258 -67.4805 L 31.7871 -51.1719 C 31.4941 -50.9277 31.1523 -50.7812 30.7129 -50.7812 L 19.043 -50.7812 C 14.0137 -50.7812 11.1816 -47.9004 11.1816 -42.5781 L 11.1816 -27.6855 C 11.1816 -22.3633 14.0137 -19.4824 19.043 -19.4824 L 30.7129 -19.4824 C 31.1523 -19.4824 31.4941 -19.3359 31.7871 -19.0918 L 48.9258 -2.7832 C 50.5859 -1.26953 52.002 -0.488281 53.7109 -0.488281 Z M 87.4512 -8.34961 C 88.7695 -7.4707 90.3809 -7.8125 91.3086 -9.13086 C 96.2891 -15.9668 99.3164 -25.4883 99.3164 -35.2539 C 99.3164 -45.0195 96.3867 -54.5898 91.3086 -61.377 C 90.332 -62.6953 88.7695 -63.0371 87.4512 -62.1582 C 86.1816 -61.2793 85.9375 -59.6191 86.9629 -58.1543 C 91.4062 -52.002 93.8965 -43.7988 93.8965 -35.2539 C 93.8965 -26.709 91.3086 -18.5059 86.9629 -12.3535 C 85.9863 -10.8887 86.1816 -9.22852 87.4512 -8.34961 Z M 72.2656 -18.6523 C 73.4375 -17.8223 75.0488 -18.0664 76.0254 -19.4336 C 79.0039 -23.3887 80.8594 -29.1504 80.8594 -35.2539 C 80.8594 -41.3574 79.0039 -47.0703 76.0254 -51.0742 C 75.0488 -52.4414 73.4375 -52.6855 72.2656 -51.8555 C 70.8496 -50.8301 70.6055 -49.1699 71.6797 -47.7051 C 74.1699 -44.3359 75.4395 -39.9902 75.4395 -35.2539 C 75.4395 -30.5176 74.1211 -26.1719 71.6797 -22.8027 C 70.6543 -21.3379 70.8496 -19.6777 72.2656 -18.6523 Z"/>
  </g>
  <g id="Thin-S" transform="matrix(1 0 0 1 794.581 696)">
   <path d="M 100.293 1.26953 C 101.074 1.80664 102.1 1.61133 102.637 0.78125 C 108.984 -9.22852 113.721 -20.5566 113.721 -35.2539 C 113.721 -49.9512 108.984 -61.2793 102.637 -71.2891 C 102.1 -72.1191 101.074 -72.3145 100.293 -71.7773 C 99.5605 -71.2402 99.4141 -70.2148 100 -69.3359 C 105.957 -59.8633 110.449 -49.2676 110.449 -35.2539 C 110.449 -21.2402 105.957 -10.6445 100 -1.17188 C 99.4141 -0.292969 99.5605 0.732422 100.293 1.26953 Z M 51.6602 -1.61133 C 53.5645 -1.61133 54.6875 -3.02734 54.6875 -4.83398 L 54.6875 -65.5762 C 54.6875 -67.3828 53.5645 -68.8477 51.6602 -68.8477 C 50.293 -68.8477 49.3164 -68.2129 48.1445 -67.1387 L 30.3711 -49.9512 C 30.0293 -49.6094 29.5898 -49.4629 29.0039 -49.4629 L 16.6504 -49.4629 C 12.6953 -49.4629 10.0098 -46.7285 10.0098 -42.6758 L 10.0098 -27.4414 C 10.0098 -23.3887 12.6953 -20.6543 16.6504 -20.6543 L 29.0039 -20.6543 C 29.5898 -20.6543 30.0293 -20.5078 30.3711 -20.166 L 48.1445 -3.27148 C 49.2676 -2.29492 50.3418 -1.61133 51.6602 -1.61133 Z M 85.0586 -9.0332 C 85.8887 -8.49609 86.8164 -8.69141 87.4023 -9.47266 C 92.334 -15.9668 95.5078 -25.5371 95.5078 -35.2539 C 95.5078 -44.9707 92.3828 -54.5898 87.4023 -61.0352 C 86.8164 -61.8164 85.8887 -62.0117 85.0586 -61.4746 C 84.2773 -60.9375 84.1797 -59.9609 84.8145 -59.0332 C 89.5508 -52.6367 92.1875 -44.1895 92.1875 -35.2539 C 92.1875 -26.3184 89.5508 -17.8711 84.8145 -11.4746 C 84.1797 -10.5469 84.2773 -9.57031 85.0586 -9.0332 Z M 70.0684 -19.2383 C 70.8496 -18.7012 71.7773 -18.8965 72.3633 -19.6777 C 75.3418 -23.4863 77.3438 -28.9551 77.3438 -35.2539 C 77.3438 -41.5527 75.3418 -46.9727 72.3633 -50.8301 C 71.7773 -51.6113 70.8496 -51.8066 70.0684 -51.2695 C 69.2871 -50.6836 69.1406 -49.6582 69.7754 -48.7305 C 72.6562 -44.8242 74.0234 -40.5762 74.0234 -35.2539 C 74.0234 -29.9316 72.6562 -25.6836 69.7754 -21.7773 C 69.1406 -20.8496 69.2871 -19.8242 70.0684 -19.2383 Z"/>
  </g>
  <g id="Ultralight-S" transform="matrix(1 0 0 1 499.213 696)">
   <path d="M 98.9746 0.878906 C 99.5605 1.26953 100.195 1.07422 100.537 0.537109 C 106.689 -9.42383 111.621 -20.2148 111.621 -35.2539 C 111.621 -50.293 106.689 -61.084 100.537 -71.0449 C 100.195 -71.582 99.5605 -71.7773 98.9746 -71.3867 C 98.4863 -71.0449 98.3887 -70.3125 98.7793 -69.7266 C 104.688 -60.1074 109.424 -49.8047 109.424 -35.2539 C 109.424 -20.7031 104.688 -10.4004 98.7793 -0.78125 C 98.3887 -0.195312 98.4863 0.537109 98.9746 0.878906 Z M 50.5859 -2.19727 C 52.2461 -2.19727 53.0762 -3.41797 53.0762 -4.98047 L 53.0762 -65.5273 C 53.0762 -67.041 52.2461 -68.3105 50.5859 -68.3105 C 49.4629 -68.3105 48.584 -67.6758 47.7539 -66.9434 L 29.6875 -49.3164 C 29.248 -48.9258 28.7598 -48.7305 28.0762 -48.7305 L 15.3809 -48.7305 C 12.0117 -48.7305 9.375 -46.0938 9.375 -42.7246 L 9.375 -27.3438 C 9.375 -23.9258 12.0117 -21.2891 15.3809 -21.2891 L 28.0762 -21.2891 C 28.7598 -21.2891 29.248 -21.0938 29.6875 -20.7031 L 47.7539 -3.56445 C 48.584 -2.83203 49.4629 -2.19727 50.5859 -2.19727 Z M 83.8379 -9.375 C 84.375 -9.0332 85.0098 -9.13086 85.4004 -9.61914 C 90.332 -15.9668 93.5547 -25.5371 93.5547 -35.2539 C 93.5547 -44.9707 90.332 -54.541 85.4004 -60.8887 C 85.0098 -61.377 84.375 -61.4746 83.8379 -61.1328 C 83.3008 -60.7422 83.252 -60.1074 83.6914 -59.5215 C 88.623 -52.9785 91.3086 -44.4336 91.3086 -35.2539 C 91.3086 -26.0742 88.623 -17.5781 83.6914 -10.9863 C 83.252 -10.4004 83.3008 -9.76562 83.8379 -9.375 Z M 68.9941 -19.5801 C 69.5312 -19.1895 70.1172 -19.2871 70.5078 -19.7754 C 73.4375 -23.584 75.5371 -28.8574 75.5371 -35.2539 C 75.5371 -41.6504 73.4375 -46.9238 70.5078 -50.7324 C 70.1172 -51.2207 69.5312 -51.3184 68.9941 -50.9277 C 68.457 -50.5371 68.3594 -49.9023 68.7988 -49.2676 C 71.875 -45.0684 73.3398 -40.8691 73.3398 -35.2539 C 73.3398 -29.6387 71.875 -25.4395 68.7988 -21.2402 C 68.3594 -20.6055 68.457 -19.9707 68.9941 -19.5801 Z"/>
  </g>
 </g>
</svg>
