<?xml version="1.0" encoding="UTF-8"?>
<!--Generator: Apple Native CoreSVG 129-->
<!DOCTYPE svg
PUBLIC "-//W3C//DTD SVG 1.1//EN"
       "http://www.w3.org/Graphics/SVG/1.1/DTD/svg11.dtd">
<svg version="1.1" xmlns="http://www.w3.org/2000/svg" xmlns:xlink="http://www.w3.org/1999/xlink" width="3300" height="2200">
 <!--glyph: "uni1002A1.medium", point size: 100.000000, font version: "Version 16.0d9e1", template writer version: "8"-->
 <g id="Notes">
  <rect height="2200" id="artboard" style="fill:white;opacity:1" width="3300" x="0" y="0"/>
  <line id="" style="fill:none;stroke:black;opacity:1;stroke-width:0.5;" x1="263" x2="3036" y1="292" y2="292"/>
  <text style="stroke:none;fill:black;font-family:-apple-system,&quot;SF Pro Display&quot;,&quot;SF Pro Text&quot;,Helvetica,sans-serif;font-weight:bold;" transform="matrix(1 0 0 1 263 322)">Weight/Scale Variations</text>
  <text style="stroke:none;fill:black;font-family:-apple-system,&quot;SF Pro Display&quot;,&quot;SF Pro Text&quot;,Helvetica,sans-serif;text-anchor:middle;" transform="matrix(1 0 0 1 559.711 322)">Ultralight</text>
  <text style="stroke:none;fill:black;font-family:-apple-system,&quot;SF Pro Display&quot;,&quot;SF Pro Text&quot;,Helvetica,sans-serif;text-anchor:middle;" transform="matrix(1 0 0 1 856.422 322)">Thin</text>
  <text style="stroke:none;fill:black;font-family:-apple-system,&quot;SF Pro Display&quot;,&quot;SF Pro Text&quot;,Helvetica,sans-serif;text-anchor:middle;" transform="matrix(1 0 0 1 1153.13 322)">Light</text>
  <text style="stroke:none;fill:black;font-family:-apple-system,&quot;SF Pro Display&quot;,&quot;SF Pro Text&quot;,Helvetica,sans-serif;text-anchor:middle;" transform="matrix(1 0 0 1 1449.84 322)">Regular</text>
  <text style="stroke:none;fill:black;font-family:-apple-system,&quot;SF Pro Display&quot;,&quot;SF Pro Text&quot;,Helvetica,sans-serif;text-anchor:middle;" transform="matrix(1 0 0 1 1746.56 322)">Medium</text>
  <text style="stroke:none;fill:black;font-family:-apple-system,&quot;SF Pro Display&quot;,&quot;SF Pro Text&quot;,Helvetica,sans-serif;text-anchor:middle;" transform="matrix(1 0 0 1 2043.27 322)">Semibold</text>
  <text style="stroke:none;fill:black;font-family:-apple-system,&quot;SF Pro Display&quot;,&quot;SF Pro Text&quot;,Helvetica,sans-serif;text-anchor:middle;" transform="matrix(1 0 0 1 2339.98 322)">Bold</text>
  <text style="stroke:none;fill:black;font-family:-apple-system,&quot;SF Pro Display&quot;,&quot;SF Pro Text&quot;,Helvetica,sans-serif;text-anchor:middle;" transform="matrix(1 0 0 1 2636.69 322)">Heavy</text>
  <text style="stroke:none;fill:black;font-family:-apple-system,&quot;SF Pro Display&quot;,&quot;SF Pro Text&quot;,Helvetica,sans-serif;text-anchor:middle;" transform="matrix(1 0 0 1 2933.4 322)">Black</text>
  <line id="" style="fill:none;stroke:black;opacity:1;stroke-width:0.5;" x1="263" x2="3036" y1="1903" y2="1903"/>
  <g id="" transform="matrix(1 0 0 1 263 1933)">
   <path d="M 9.24805 0.830078 C 13.5547 0.830078 17.1387 -2.74414 17.1387 -7.05078 C 17.1387 -11.3574 13.5449 -14.9316 9.23828 -14.9316 C 4.94141 -14.9316 1.36719 -11.3574 1.36719 -7.05078 C 1.36719 -2.74414 4.95117 0.830078 9.24805 0.830078 Z M 9.24805 -0.654297 C 5.70312 -0.654297 2.87109 -3.49609 2.87109 -7.05078 C 2.87109 -10.6055 5.69336 -13.4473 9.23828 -13.4473 C 12.793 -13.4473 15.6348 -10.6055 15.6445 -7.05078 C 15.6543 -3.49609 12.8027 -0.654297 9.24805 -0.654297 Z M 9.22852 -3.62305 C 9.69727 -3.62305 9.9707 -3.93555 9.9707 -4.45312 L 9.9707 -6.31836 L 12.002 -6.31836 C 12.5 -6.31836 12.832 -6.57227 12.832 -7.04102 C 12.832 -7.51953 12.5195 -7.7832 12.002 -7.7832 L 9.9707 -7.7832 L 9.9707 -9.81445 C 9.9707 -10.332 9.69727 -10.6543 9.22852 -10.6543 C 8.75977 -10.6543 8.50586 -10.3125 8.50586 -9.81445 L 8.50586 -7.7832 L 6.49414 -7.7832 C 5.97656 -7.7832 5.64453 -7.51953 5.64453 -7.04102 C 5.64453 -6.57227 5.99609 -6.31836 6.49414 -6.31836 L 8.50586 -6.31836 L 8.50586 -4.45312 C 8.50586 -3.95508 8.75977 -3.62305 9.22852 -3.62305 Z"/>
  </g>
  <g id="" transform="matrix(1 0 0 1 281.506 1933)">
   <path d="M 11.709 2.91016 C 17.1582 2.91016 21.6699 -1.61133 21.6699 -7.05078 C 21.6699 -12.5 17.1484 -17.0117 11.6992 -17.0117 C 6.25977 -17.0117 1.74805 -12.5 1.74805 -7.05078 C 1.74805 -1.61133 6.26953 2.91016 11.709 2.91016 Z M 11.709 1.25 C 7.09961 1.25 3.41797 -2.44141 3.41797 -7.05078 C 3.41797 -11.6602 7.08984 -15.3516 11.6992 -15.3516 C 16.3086 -15.3516 20 -11.6602 20.0098 -7.05078 C 20.0195 -2.44141 16.3184 1.25 11.709 1.25 Z M 11.6797 -2.66602 C 12.207 -2.66602 12.5098 -3.01758 12.5098 -3.59375 L 12.5098 -6.23047 L 15.3223 -6.23047 C 15.8691 -6.23047 16.25 -6.51367 16.25 -7.03125 C 16.25 -7.55859 15.8887 -7.86133 15.3223 -7.86133 L 12.5098 -7.86133 L 12.5098 -10.6836 C 12.5098 -11.25 12.207 -11.6113 11.6797 -11.6113 C 11.1621 -11.6113 10.8789 -11.2305 10.8789 -10.6836 L 10.8789 -7.86133 L 8.07617 -7.86133 C 7.50977 -7.86133 7.13867 -7.55859 7.13867 -7.03125 C 7.13867 -6.51367 7.5293 -6.23047 8.07617 -6.23047 L 10.8789 -6.23047 L 10.8789 -3.59375 C 10.8789 -3.03711 11.1621 -2.66602 11.6797 -2.66602 Z"/>
  </g>
  <g id="" transform="matrix(1 0 0 1 304.924 1933)">
   <path d="M 14.9707 5.66406 C 21.9336 5.66406 27.6953 -0.0976562 27.6953 -7.05078 C 27.6953 -14.0137 21.9238 -19.7754 14.9609 -19.7754 C 8.00781 -19.7754 2.25586 -14.0137 2.25586 -7.05078 C 2.25586 -0.0976562 8.01758 5.66406 14.9707 5.66406 Z M 14.9707 3.84766 C 8.93555 3.84766 4.08203 -1.01562 4.08203 -7.05078 C 4.08203 -13.0957 8.92578 -17.9492 14.9609 -17.9492 C 21.0059 -17.9492 25.8594 -13.0957 25.8691 -7.05078 C 25.8789 -1.01562 21.0156 3.84766 14.9707 3.84766 Z M 14.9414 -1.38672 C 15.5176 -1.38672 15.8594 -1.77734 15.8594 -2.38281 L 15.8594 -6.13281 L 19.7754 -6.13281 C 20.3711 -6.13281 20.7812 -6.46484 20.7812 -7.02148 C 20.7812 -7.59766 20.3906 -7.93945 19.7754 -7.93945 L 15.8594 -7.93945 L 15.8594 -11.8652 C 15.8594 -12.4805 15.5176 -12.8711 14.9414 -12.8711 C 14.375 -12.8711 14.0527 -12.4609 14.0527 -11.8652 L 14.0527 -7.93945 L 10.1465 -7.93945 C 9.53125 -7.93945 9.13086 -7.59766 9.13086 -7.02148 C 9.13086 -6.46484 9.55078 -6.13281 10.1465 -6.13281 L 14.0527 -6.13281 L 14.0527 -2.38281 C 14.0527 -1.79688 14.375 -1.38672 14.9414 -1.38672 Z"/>
  </g>
  <text style="stroke:none;fill:black;font-family:-apple-system,&quot;SF Pro Display&quot;,&quot;SF Pro Text&quot;,Helvetica,sans-serif;font-weight:bold;" transform="matrix(1 0 0 1 263 1953)">Design Variations</text>
  <text style="stroke:none;fill:black;font-family:-apple-system,&quot;SF Pro Display&quot;,&quot;SF Pro Text&quot;,Helvetica,sans-serif;" transform="matrix(1 0 0 1 263 1971)">Symbols are supported in up to nine weights and three scales.</text>
  <text style="stroke:none;fill:black;font-family:-apple-system,&quot;SF Pro Display&quot;,&quot;SF Pro Text&quot;,Helvetica,sans-serif;" transform="matrix(1 0 0 1 263 1989)">For optimal layout with text and other symbols, vertically align</text>
  <text style="stroke:none;fill:black;font-family:-apple-system,&quot;SF Pro Display&quot;,&quot;SF Pro Text&quot;,Helvetica,sans-serif;" transform="matrix(1 0 0 1 263 2007)">symbols with the adjacent text.</text>
  <line id="" style="fill:none;stroke:#00AEEF;stroke-width:0.5;opacity:1.0;" x1="776" x2="776" y1="1919" y2="1933"/>
  <g id="" transform="matrix(1 0 0 1 776 1933)">
   <path d="M 3.31055 0.126953 C 3.82812 0.126953 4.08203 -0.0683594 4.26758 -0.605469 L 5.52734 -4.0625 L 11.2891 -4.0625 L 12.5488 -0.605469 C 12.7344 -0.0683594 12.9883 0.126953 13.4961 0.126953 C 14.0137 0.126953 14.3457 -0.185547 14.3457 -0.673828 C 14.3457 -0.839844 14.3164 -0.986328 14.2383 -1.20117 L 9.6582 -13.3887 C 9.43359 -13.9941 9.0332 -14.2871 8.4082 -14.2871 C 7.80273 -14.2871 7.39258 -13.9941 7.17773 -13.3984 L 2.59766 -1.19141 C 2.51953 -0.976562 2.49023 -0.830078 2.49023 -0.664062 C 2.49023 -0.175781 2.80273 0.126953 3.31055 0.126953 Z M 6.00586 -5.53711 L 8.37891 -12.1094 L 8.42773 -12.1094 L 10.8008 -5.53711 Z"/>
  </g>
  <line id="" style="fill:none;stroke:#00AEEF;stroke-width:0.5;opacity:1.0;" x1="792.836" x2="792.836" y1="1919" y2="1933"/>
  <text style="stroke:none;fill:black;font-family:-apple-system,&quot;SF Pro Display&quot;,&quot;SF Pro Text&quot;,Helvetica,sans-serif;font-weight:bold;" transform="matrix(1 0 0 1 776 1953)">Margins</text>
  <text style="stroke:none;fill:black;font-family:-apple-system,&quot;SF Pro Display&quot;,&quot;SF Pro Text&quot;,Helvetica,sans-serif;" transform="matrix(1 0 0 1 776 1971)">Leading and trailing margins on the left and right side of each symbol</text>
  <text style="stroke:none;fill:black;font-family:-apple-system,&quot;SF Pro Display&quot;,&quot;SF Pro Text&quot;,Helvetica,sans-serif;" transform="matrix(1 0 0 1 776 1989)">can be adjusted by modifying the x-location of the margin guidelines.</text>
  <text style="stroke:none;fill:black;font-family:-apple-system,&quot;SF Pro Display&quot;,&quot;SF Pro Text&quot;,Helvetica,sans-serif;" transform="matrix(1 0 0 1 776 2007)">Modifications are automatically applied proportionally to all</text>
  <text style="stroke:none;fill:black;font-family:-apple-system,&quot;SF Pro Display&quot;,&quot;SF Pro Text&quot;,Helvetica,sans-serif;" transform="matrix(1 0 0 1 776 2025)">scales and weights.</text>
  <g id="" transform="matrix(1 0 0 1 1289 1933)">
   <path d="M 2.8418 1.86523 L 4.54102 3.57422 C 5.40039 4.44336 6.38672 4.38477 7.31445 3.35938 L 17.4902 -7.85156 C 17.7539 -7.76367 18.0273 -7.7832 18.3398 -7.8418 L 19.4043 -8.03711 L 20.0684 -7.36328 L 20.0293 -6.80664 C 19.9902 -6.30859 20.1172 -5.92773 20.6055 -5.44922 L 21.3672 -4.70703 C 21.8457 -4.22852 22.4609 -4.19922 22.9297 -4.66797 L 25.8398 -7.58789 C 26.3086 -8.05664 26.2891 -8.65234 25.8105 -9.13086 L 25.0391 -9.89258 C 24.5605 -10.3711 24.1895 -10.5273 23.7109 -10.4883 L 23.1348 -10.4395 L 22.4902 -11.0742 L 22.7344 -12.1973 C 22.8613 -12.7637 22.7051 -13.2031 22.1191 -13.7891 L 19.9219 -15.9766 C 16.582 -19.2969 12.1484 -19.2188 9.25781 -16.3281 C 8.83789 -15.918 8.80859 -15.3418 9.04297 -14.9512 C 9.27734 -14.5898 9.73633 -14.3555 10.3809 -14.5215 C 11.8457 -14.8633 13.3691 -14.9219 14.7949 -13.9844 L 14.209 -12.5293 C 14.0137 -12.0508 13.9844 -11.6504 14.1113 -11.2891 L 3.04688 -0.898438 C 2.06055 0.0195312 1.98242 0.996094 2.8418 1.86523 Z M 10.752 -15.957 C 13.1836 -17.7344 16.4746 -17.4316 18.7012 -15.2051 L 21.1328 -12.793 C 21.3672 -12.5586 21.4062 -12.373 21.3379 -12.0312 L 21.0156 -10.5469 L 22.5195 -9.0625 L 23.5059 -9.12109 C 23.7598 -9.13086 23.8379 -9.11133 24.0332 -8.91602 L 24.6094 -8.33984 L 22.168 -5.89844 L 21.5918 -6.47461 C 21.3965 -6.66992 21.3672 -6.74805 21.377 -7.01172 L 21.4453 -7.98828 L 19.9512 -9.47266 L 18.4277 -9.21875 C 18.1055 -9.15039 17.959 -9.17969 17.7148 -9.41406 L 15.7129 -11.416 C 15.459 -11.6504 15.4297 -11.8164 15.5859 -12.1875 L 16.4648 -14.2773 C 14.9023 -15.7324 12.8711 -16.3574 10.8398 -15.7617 C 10.6836 -15.7227 10.625 -15.8496 10.752 -15.957 Z M 5.27344 2.30469 L 4.10156 1.14258 C 3.63281 0.683594 3.74023 0.341797 4.14062 -0.0195312 L 14.9512 -10.1953 L 16.416 -8.71094 L 6.42578 2.27539 C 6.07422 2.67578 5.74219 2.77344 5.27344 2.30469 Z"/>
  </g>
  <text style="stroke:none;fill:black;font-family:-apple-system,&quot;SF Pro Display&quot;,&quot;SF Pro Text&quot;,Helvetica,sans-serif;font-weight:bold;" transform="matrix(1 0 0 1 1289 1953)">Exporting</text>
  <text style="stroke:none;fill:black;font-family:-apple-system,&quot;SF Pro Display&quot;,&quot;SF Pro Text&quot;,Helvetica,sans-serif;" transform="matrix(1 0 0 1 1289 1971)">Symbols should be outlined when exporting to ensure the</text>
  <text style="stroke:none;fill:black;font-family:-apple-system,&quot;SF Pro Display&quot;,&quot;SF Pro Text&quot;,Helvetica,sans-serif;" transform="matrix(1 0 0 1 1289 1989)">design is preserved when submitting to Xcode.</text>
  <text id="template-version" style="stroke:none;fill:black;font-family:-apple-system,&quot;SF Pro Display&quot;,&quot;SF Pro Text&quot;,Helvetica,sans-serif;text-anchor:end;" transform="matrix(1 0 0 1 3036 1933)">Template v.2.0</text>
  <text style="stroke:none;fill:black;font-family:-apple-system,&quot;SF Pro Display&quot;,&quot;SF Pro Text&quot;,Helvetica,sans-serif;text-anchor:end;" transform="matrix(1 0 0 1 3036 1951)">Requires Xcode 12 or greater</text>
  <text style="stroke:none;fill:black;font-family:-apple-system,&quot;SF Pro Display&quot;,&quot;SF Pro Text&quot;,Helvetica,sans-serif;text-anchor:end;" transform="matrix(1 0 0 1 3036 1969)">Generated from speaker.fill</text>
  <text style="stroke:none;fill:black;font-family:-apple-system,&quot;SF Pro Display&quot;,&quot;SF Pro Text&quot;,Helvetica,sans-serif;text-anchor:end;" transform="matrix(1 0 0 1 3036 1987)">Typeset at 100 points</text>
  <text style="stroke:none;fill:black;font-family:-apple-system,&quot;SF Pro Display&quot;,&quot;SF Pro Text&quot;,Helvetica,sans-serif;" transform="matrix(1 0 0 1 263 726)">Small</text>
  <text style="stroke:none;fill:black;font-family:-apple-system,&quot;SF Pro Display&quot;,&quot;SF Pro Text&quot;,Helvetica,sans-serif;" transform="matrix(1 0 0 1 263 1156)">Medium</text>
  <text style="stroke:none;fill:black;font-family:-apple-system,&quot;SF Pro Display&quot;,&quot;SF Pro Text&quot;,Helvetica,sans-serif;" transform="matrix(1 0 0 1 263 1586)">Large</text>
 </g>
 <g id="Guides">
  <g id="H-reference" style="fill:#27AAE1;stroke:none;" transform="matrix(1 0 0 1 339 696)">
   <path d="M 0.976562 0 L 3.66211 0 L 12.9883 -24.4629 L 45.7031 -24.4629 L 55.0781 0 L 57.7148 0 L 30.6152 -70.459 L 28.125 -70.459 Z M 29.2969 -67.1387 L 29.3945 -67.1387 L 44.873 -26.709 L 13.8672 -26.709 Z"/>
  </g>
  <line id="Baseline-S" style="fill:none;stroke:#27AAE1;opacity:1;stroke-width:0.5;" x1="263" x2="3036" y1="696" y2="696"/>
  <line id="Capline-S" style="fill:none;stroke:#27AAE1;opacity:1;stroke-width:0.5;" x1="263" x2="3036" y1="625.541" y2="625.541"/>
  <g id="H-reference" style="fill:#27AAE1;stroke:none;" transform="matrix(1 0 0 1 339 1126)">
   <path d="M 0.976562 0 L 3.66211 0 L 12.9883 -24.4629 L 45.7031 -24.4629 L 55.0781 0 L 57.7148 0 L 30.6152 -70.459 L 28.125 -70.459 Z M 29.2969 -67.1387 L 29.3945 -67.1387 L 44.873 -26.709 L 13.8672 -26.709 Z"/>
  </g>
  <line id="Baseline-M" style="fill:none;stroke:#27AAE1;opacity:1;stroke-width:0.5;" x1="263" x2="3036" y1="1126" y2="1126"/>
  <line id="Capline-M" style="fill:none;stroke:#27AAE1;opacity:1;stroke-width:0.5;" x1="263" x2="3036" y1="1055.54" y2="1055.54"/>
  <g id="H-reference" style="fill:#27AAE1;stroke:none;" transform="matrix(1 0 0 1 339 1556)">
   <path d="M 0.976562 0 L 3.66211 0 L 12.9883 -24.4629 L 45.7031 -24.4629 L 55.0781 0 L 57.7148 0 L 30.6152 -70.459 L 28.125 -70.459 Z M 29.2969 -67.1387 L 29.3945 -67.1387 L 44.873 -26.709 L 13.8672 -26.709 Z"/>
  </g>
  <line id="Baseline-L" style="fill:none;stroke:#27AAE1;opacity:1;stroke-width:0.5;" x1="263" x2="3036" y1="1556" y2="1556"/>
  <line id="Capline-L" style="fill:none;stroke:#27AAE1;opacity:1;stroke-width:0.5;" x1="263" x2="3036" y1="1485.54" y2="1485.54"/>
  <line id="left-margin" style="fill:none;stroke:#00AEEF;stroke-width:0.5;opacity:1.0;" x1="1399.21" x2="1399.21" y1="1030.79" y2="1150.12"/>
  <line id="right-margin" style="fill:none;stroke:#00AEEF;stroke-width:0.5;opacity:1.0;" x1="1500.48" x2="1500.48" y1="1030.79" y2="1150.12"/>
 </g>
 <g id="Symbols">
  <g id="Black-L" transform="matrix(1 0 0 1 2860.87 1556)">
   <path d="M 96.9727 26.416 C 103.857 26.416 109.18 21.1426 109.18 14.209 L 109.18 -84.4727 C 109.18 -91.3574 103.857 -96.7773 96.9238 -96.7773 C 92.627 -96.7773 89.2578 -95.1172 84.668 -90.918 L 57.8613 -66.6504 C 57.4707 -66.3574 57.2266 -66.2598 56.8848 -66.2598 L 40.2344 -66.2598 C 28.0273 -66.2598 21.4355 -59.375 21.4355 -46.6797 L 21.4355 -23.7305 C 21.4355 -10.9863 28.0273 -4.15039 40.2344 -4.15039 L 56.8848 -4.15039 C 57.2266 -4.15039 57.5684 -4.10156 57.8613 -3.75977 L 84.668 20.7031 C 89.0625 24.6094 92.4316 26.416 96.9727 26.416 Z"/>
  </g>
  <g id="Heavy-L" transform="matrix(1 0 0 1 2566.3 1556)">
   <path d="M 94.873 25.293 C 101.074 25.293 105.762 20.6055 105.762 14.4531 L 105.762 -84.668 C 105.762 -90.8203 101.074 -95.7031 94.8242 -95.7031 C 90.918 -95.7031 87.8906 -94.1406 83.6914 -90.2832 L 56.4941 -65.4297 C 56.1035 -65.0391 55.7617 -64.9414 55.3223 -64.9414 L 38.0371 -64.9414 C 26.8555 -64.9414 20.7031 -58.5938 20.7031 -46.8262 L 20.7031 -23.4863 C 20.7031 -11.7676 26.8555 -5.37109 38.0371 -5.37109 L 55.3223 -5.37109 C 55.7617 -5.37109 56.1523 -5.32227 56.4941 -4.93164 L 83.6914 20.0684 C 87.6465 23.6816 90.7715 25.293 94.873 25.293 Z"/>
  </g>
  <g id="Bold-L" transform="matrix(1 0 0 1 2271.98 1556)">
   <path d="M 92.5781 24.1211 C 97.998 24.1211 102.002 20.0195 102.002 14.6484 L 102.002 -84.8633 C 102.002 -90.2344 97.998 -94.5312 92.4805 -94.5312 C 88.9648 -94.5312 86.3281 -93.0176 82.5684 -89.5996 L 54.9805 -64.0137 C 54.5898 -63.623 54.1504 -63.4766 53.6133 -63.4766 L 35.6445 -63.4766 C 25.4883 -63.4766 19.8242 -57.666 19.8242 -47.0215 L 19.8242 -23.2422 C 19.8242 -12.5977 25.4883 -6.78711 35.6445 -6.78711 L 53.6133 -6.78711 C 54.1504 -6.78711 54.5898 -6.64062 54.9805 -6.29883 L 82.5684 19.3848 C 86.084 22.6074 88.916 24.1211 92.5781 24.1211 Z"/>
  </g>
  <g id="Semibold-L" transform="matrix(1 0 0 1 1976.93 1556)">
   <path d="M 90.9668 23.2422 C 95.8496 23.2422 99.3652 19.6289 99.3652 14.7949 L 99.3652 -85.0098 C 99.3652 -89.7949 95.8496 -93.7012 90.918 -93.7012 C 87.6465 -93.7012 85.2539 -92.2852 81.7871 -89.1113 L 53.9551 -63.0371 C 53.5156 -62.6465 53.0273 -62.4512 52.3926 -62.4512 L 33.9355 -62.4512 C 24.5605 -62.4512 19.2383 -57.0312 19.2383 -47.168 L 19.2383 -23.0469 C 19.2383 -13.1836 24.5605 -7.76367 33.9355 -7.76367 L 52.3926 -7.76367 C 53.0273 -7.76367 53.5156 -7.61719 53.9551 -7.17773 L 81.7871 18.9453 C 85.0098 21.875 87.6465 23.2422 90.9668 23.2422 Z"/>
  </g>
  <g id="Medium-L" transform="matrix(1 0 0 1 1681.47 1556)">
   <path d="M 89.7949 22.6074 C 94.2383 22.6074 97.4121 19.3359 97.4121 14.9414 L 97.4121 -85.1074 C 97.4121 -89.502 94.2383 -93.0664 89.6973 -93.0664 C 86.6211 -93.0664 84.4238 -91.6992 81.2012 -88.7695 L 53.1738 -62.3047 C 52.6855 -61.8652 52.1484 -61.6699 51.5137 -61.6699 L 32.666 -61.6699 C 23.8281 -61.6699 18.7988 -56.543 18.7988 -47.2656 L 18.7988 -22.9492 C 18.7988 -13.623 23.8281 -8.49609 32.666 -8.49609 L 51.5137 -8.49609 C 52.1484 -8.49609 52.7344 -8.30078 53.1738 -7.86133 L 81.2012 18.6035 C 84.1797 21.3379 86.6699 22.6074 89.7949 22.6074 Z"/>
  </g>
  <g id="Regular-L" transform="matrix(1 0 0 1 1386.39 1556)">
   <path d="M 88.1836 21.7773 C 92.0898 21.7773 94.8242 18.9453 94.8242 15.0879 L 94.8242 -85.2051 C 94.8242 -89.0625 92.0898 -92.2363 88.0859 -92.2363 C 85.3027 -92.2363 83.3496 -90.9668 80.4688 -88.2812 L 52.1484 -61.3281 C 51.6602 -60.8887 51.0254 -60.6934 50.293 -60.6934 L 31.0059 -60.6934 C 22.9004 -60.6934 18.2129 -55.957 18.2129 -47.3633 L 18.2129 -22.7539 C 18.2129 -14.209 22.9004 -9.42383 31.0059 -9.42383 L 50.293 -9.42383 C 51.0254 -9.42383 51.6602 -9.22852 52.1484 -8.78906 L 80.4688 18.1152 C 83.1055 20.6055 85.4004 21.7773 88.1836 21.7773 Z"/>
  </g>
  <g id="Light-L" transform="matrix(1 0 0 1 1092.27 1556)">
   <path d="M 86.2305 20.7031 C 89.6484 20.7031 91.7969 18.2129 91.7969 14.8926 L 91.7969 -85.2051 C 91.7969 -88.5254 89.6484 -91.2109 86.1816 -91.2109 C 83.7402 -91.2109 81.9824 -90.0391 79.7363 -87.9395 L 50.7812 -60.1562 C 50.2441 -59.668 49.5605 -59.375 48.6816 -59.375 L 28.7109 -59.375 C 21.6309 -59.375 17.0898 -54.7852 17.0898 -47.4609 L 17.0898 -22.5098 C 17.0898 -15.1855 21.6309 -10.5957 28.7109 -10.5957 L 48.6816 -10.5957 C 49.5605 -10.5957 50.2441 -10.3516 50.7812 -9.81445 L 79.7363 17.627 C 81.8359 19.6289 83.7891 20.7031 86.2305 20.7031 Z"/>
  </g>
  <g id="Thin-L" transform="matrix(1 0 0 1 798.976 1556)">
   <path d="M 83.5938 19.2871 C 86.377 19.2871 87.8418 17.2363 87.8418 14.6484 L 87.8418 -85.1562 C 87.8418 -87.7441 86.377 -89.8438 83.5938 -89.8438 C 81.6895 -89.8438 80.1758 -88.8184 78.7598 -87.5 L 49.0234 -58.5938 C 48.3398 -58.0078 47.5586 -57.666 46.4844 -57.666 L 25.6836 -57.666 C 19.9707 -57.666 15.5762 -53.2715 15.5762 -47.5586 L 15.5762 -22.2168 C 15.5762 -16.5039 19.9707 -12.1094 25.6836 -12.1094 L 46.4844 -12.1094 C 47.5586 -12.1094 48.3398 -11.8164 49.0234 -11.1816 L 78.7598 16.9922 C 80.127 18.3105 81.6895 19.2871 83.5938 19.2871 Z"/>
  </g>
  <g id="Ultralight-L" transform="matrix(1 0 0 1 504.023 1556)">
   <path d="M 82.2754 18.6035 C 84.668 18.6035 85.791 16.748 85.791 14.5508 L 85.791 -85.1074 C 85.791 -87.3535 84.668 -89.1113 82.2754 -89.1113 C 80.6152 -89.1113 79.248 -88.1836 78.2715 -87.2559 L 48.1445 -57.8125 C 47.3633 -57.1289 46.5332 -56.7871 45.3613 -56.7871 L 24.0723 -56.7871 C 19.1406 -56.7871 14.8438 -52.4902 14.8438 -47.6074 L 14.8438 -22.0703 C 14.8438 -17.1875 19.1406 -12.8906 24.0723 -12.8906 L 45.3613 -12.8906 C 46.5332 -12.8906 47.3633 -12.5488 48.1445 -11.8652 L 78.2715 16.6992 C 79.2969 17.627 80.6152 18.6035 82.2754 18.6035 Z"/>
  </g>
  <g id="Black-M" transform="matrix(1 0 0 1 2875.69 1126)">
   <path d="M 76.8555 13.4277 C 82.9102 13.4277 87.5488 8.78906 87.5488 2.73438 L 87.5488 -73.1445 C 87.5488 -79.1504 82.9102 -83.8379 76.8555 -83.8379 C 73.291 -83.8379 70.3125 -82.4219 66.6016 -79.0527 L 45.9473 -60.6445 C 45.6543 -60.4004 45.5078 -60.3516 45.2637 -60.3516 L 32.8613 -60.3516 C 22.7051 -60.3516 17.041 -54.4434 17.041 -43.8965 L 17.041 -26.4648 C 17.041 -15.9668 22.7051 -10.0586 32.8613 -10.0586 L 45.2637 -10.0586 C 45.5078 -10.0586 45.7031 -10.0586 45.9473 -9.81445 L 66.6016 8.64258 C 70.2148 11.9141 73.0469 13.4277 76.8555 13.4277 Z"/>
  </g>
  <g id="Heavy-M" transform="matrix(1 0 0 1 2580.63 1126)">
   <path d="M 75.0977 12.5 C 80.5176 12.5 84.6191 8.39844 84.6191 2.97852 L 84.6191 -73.3398 C 84.6191 -78.7109 80.5176 -82.9102 75.0977 -82.9102 C 71.8262 -82.9102 69.1406 -81.6406 65.6738 -78.4668 L 44.8242 -59.5703 C 44.5312 -59.3262 44.3359 -59.2285 44.043 -59.2285 L 31.1035 -59.2285 C 21.6797 -59.2285 16.5039 -53.8574 16.5039 -44.0918 L 16.5039 -26.3184 C 16.5039 -16.5039 21.6797 -11.1328 31.1035 -11.1328 L 44.043 -11.1328 C 44.3359 -11.1328 44.5801 -11.084 44.8242 -10.8398 L 65.6738 8.10547 C 68.9941 11.1328 71.6309 12.5 75.0977 12.5 Z"/>
  </g>
  <g id="Bold-M" transform="matrix(1 0 0 1 2285.8 1126)">
   <path d="M 73.1934 11.5234 C 77.832 11.5234 81.3965 7.95898 81.3965 3.32031 L 81.3965 -73.584 C 81.3965 -78.2227 77.832 -81.9336 73.1445 -81.9336 C 70.1172 -81.9336 67.8711 -80.7129 64.6973 -77.7832 L 43.5547 -58.3984 C 43.2617 -58.1055 42.9688 -58.0078 42.627 -58.0078 L 29.1016 -58.0078 C 20.6055 -58.0078 15.918 -53.1738 15.918 -44.2383 L 15.918 -26.0742 C 15.918 -17.1387 20.6055 -12.3047 29.1016 -12.3047 L 42.627 -12.3047 C 42.9688 -12.3047 43.2617 -12.2559 43.5547 -11.9629 L 64.6973 7.51953 C 67.6758 10.2539 70.0684 11.5234 73.1934 11.5234 Z"/>
  </g>
  <g id="Semibold-M" transform="matrix(1 0 0 1 1990.39 1126)">
   <path d="M 71.8262 10.791 C 76.0254 10.791 79.1504 7.66602 79.1504 3.51562 L 79.1504 -73.7305 C 79.1504 -77.8809 76.0254 -81.2012 71.7773 -81.2012 C 68.9941 -81.2012 66.9434 -80.0781 63.9648 -77.3438 L 42.6758 -57.5684 C 42.3828 -57.2754 42.041 -57.1777 41.6504 -57.1777 L 27.7344 -57.1777 C 19.8242 -57.1777 15.4785 -52.7344 15.4785 -44.3848 L 15.4785 -25.9277 C 15.4785 -17.5781 19.8242 -13.1348 27.7344 -13.1348 L 41.6504 -13.1348 C 42.041 -13.1348 42.3828 -13.0371 42.6758 -12.7441 L 63.9648 7.12891 C 66.748 9.66797 68.9941 10.791 71.8262 10.791 Z"/>
  </g>
  <g id="Medium-M" transform="matrix(1 0 0 1 1694.63 1126)">
   <path d="M 70.8008 10.2539 C 74.6094 10.2539 77.4414 7.42188 77.4414 3.66211 L 77.4414 -73.8281 C 77.4414 -77.6367 74.6094 -80.6641 70.752 -80.6641 C 68.1152 -80.6641 66.2598 -79.5898 63.4766 -77.002 L 42.041 -56.9336 C 41.6992 -56.6406 41.3574 -56.543 40.918 -56.543 L 26.709 -56.543 C 19.2383 -56.543 15.1855 -52.3926 15.1855 -44.4824 L 15.1855 -25.8301 C 15.1855 -17.9199 19.2383 -13.7695 26.709 -13.7695 L 40.918 -13.7695 C 41.3574 -13.7695 41.6992 -13.6719 42.041 -13.3789 L 63.4766 6.78711 C 66.0645 9.17969 68.1641 10.2539 70.8008 10.2539 Z"/>
  </g>
  <g id="Regular-M" transform="matrix(1 0 0 1 1399.21 1126)">
   <path d="M 69.4824 9.57031 C 72.8027 9.57031 75.1953 7.12891 75.1953 3.85742 L 75.1953 -74.0234 C 75.1953 -77.2949 72.8027 -79.9805 69.3848 -79.9805 C 66.9922 -79.9805 65.3809 -78.9551 62.793 -76.5137 L 41.1621 -56.1523 C 40.8203 -55.8594 40.4297 -55.7129 39.9414 -55.7129 L 25.3418 -55.7129 C 18.457 -55.7129 14.7461 -51.9531 14.7461 -44.5801 L 14.7461 -25.6836 C 14.7461 -18.3594 18.457 -14.5996 25.3418 -14.5996 L 39.9414 -14.5996 C 40.4297 -14.5996 40.8203 -14.4531 41.1621 -14.1602 L 62.793 6.39648 C 65.1367 8.59375 67.0898 9.57031 69.4824 9.57031 Z"/>
  </g>
  <g id="Light-M" transform="matrix(1 0 0 1 1104.82 1126)">
   <path d="M 67.7246 8.59375 C 70.5566 8.59375 72.5098 6.49414 72.5098 3.71094 L 72.5098 -73.9746 C 72.5098 -76.7578 70.5566 -79.0527 67.627 -79.0527 C 65.5762 -79.0527 64.1602 -78.125 62.1094 -76.2207 L 39.9414 -55.0781 C 39.5508 -54.7363 39.0625 -54.541 38.4766 -54.541 L 23.291 -54.541 C 17.334 -54.541 13.7695 -50.9277 13.7695 -44.6777 L 13.7695 -25.4883 C 13.7695 -19.2383 17.334 -15.625 23.291 -15.625 L 38.4766 -15.625 C 39.0625 -15.625 39.5508 -15.4297 39.9414 -15.0879 L 62.1094 5.95703 C 63.9648 7.71484 65.6738 8.59375 67.7246 8.59375 Z"/>
  </g>
  <g id="Thin-M" transform="matrix(1 0 0 1 811.159 1126)">
   <path d="M 65.3809 7.32422 C 67.627 7.32422 68.9453 5.66406 68.9453 3.4668 L 68.9453 -73.9258 C 68.9453 -76.0742 67.627 -77.832 65.332 -77.832 C 63.7695 -77.832 62.5488 -77.0508 61.2305 -75.8301 L 38.3789 -53.6621 C 37.8906 -53.2227 37.3047 -52.9785 36.5234 -52.9785 L 20.5566 -52.9785 C 15.8691 -52.9785 12.4023 -49.5605 12.4023 -44.7754 L 12.4023 -25.2441 C 12.4023 -20.4102 15.8691 -16.9922 20.5566 -16.9922 L 36.5234 -16.9922 C 37.3047 -16.9922 37.8906 -16.748 38.3789 -16.3086 L 61.2305 5.37109 C 62.4512 6.54297 63.7695 7.32422 65.3809 7.32422 Z"/>
  </g>
  <g id="Ultralight-M" transform="matrix(1 0 0 1 516.034 1126)">
   <path d="M 64.1602 6.68945 C 66.1133 6.68945 67.0898 5.22461 67.0898 3.36914 L 67.0898 -73.877 C 67.0898 -75.7324 66.1133 -77.1973 64.1602 -77.1973 C 62.793 -77.1973 61.7188 -76.4648 60.791 -75.6348 L 37.5977 -52.9785 C 37.0117 -52.4414 36.377 -52.1973 35.498 -52.1973 L 19.1406 -52.1973 C 15.0879 -52.1973 11.7188 -48.877 11.7188 -44.8242 L 11.7188 -25.0977 C 11.7188 -21.0449 15.0879 -17.6758 19.1406 -17.6758 L 35.498 -17.6758 C 36.377 -17.6758 37.0117 -17.4316 37.5977 -16.9434 L 60.791 5.07812 C 61.7188 5.95703 62.793 6.68945 64.1602 6.68945 Z"/>
  </g>
  <g id="Black-S" transform="matrix(1 0 0 1 2888.28 696)">
   <path d="M 60.1074 2.83203 C 64.7949 2.83203 68.4082 -0.78125 68.4082 -5.46875 L 68.4082 -64.9414 C 68.4082 -69.6289 64.7949 -73.2422 60.1074 -73.2422 C 57.3242 -73.2422 55.0293 -72.168 52.0996 -69.5312 L 35.9375 -55.0781 C 35.6934 -54.8828 35.5957 -54.834 35.4004 -54.834 L 25.6348 -54.834 C 17.7246 -54.834 13.3301 -50.2441 13.3301 -42.041 L 13.3301 -28.3691 C 13.3301 -20.166 17.7246 -15.5762 25.6348 -15.5762 L 35.4004 -15.5762 C 35.5957 -15.5762 35.7422 -15.5762 35.9375 -15.3809 L 52.0996 -0.878906 C 54.9316 1.66016 57.1289 2.83203 60.1074 2.83203 Z"/>
  </g>
  <g id="Heavy-S" transform="matrix(1 0 0 1 2592.6 696)">
   <path d="M 58.9844 2.24609 C 63.2324 2.24609 66.4551 -0.976562 66.4551 -5.22461 L 66.4551 -65.0879 C 66.4551 -69.3359 63.2324 -72.6562 58.9355 -72.6562 C 56.3477 -72.6562 54.248 -71.6309 51.4648 -69.0918 L 35.2051 -54.3945 C 34.9609 -54.1992 34.8145 -54.1016 34.6191 -54.1016 L 24.5117 -54.1016 C 17.0898 -54.1016 13.0371 -49.9023 13.0371 -42.1387 L 13.0371 -28.2227 C 13.0371 -20.5078 17.0898 -16.2598 24.5117 -16.2598 L 34.6191 -16.2598 C 34.8145 -16.2598 35.0098 -16.2598 35.2051 -16.0645 L 51.4648 -1.2207 C 54.1504 1.17188 56.2012 2.24609 58.9844 2.24609 Z"/>
  </g>
  <g id="Bold-S" transform="matrix(1 0 0 1 2297.01 696)">
   <path d="M 57.7148 1.5625 C 61.4258 1.5625 64.3066 -1.26953 64.3066 -4.98047 L 64.3066 -65.2832 C 64.3066 -69.043 61.4258 -72.0215 57.666 -72.0215 C 55.2246 -72.0215 53.418 -71.0449 50.7812 -68.6523 L 34.375 -53.6133 C 34.1309 -53.418 33.9355 -53.3203 33.6914 -53.3203 L 23.2422 -53.3203 C 16.3574 -53.3203 12.6953 -49.5117 12.6953 -42.2852 L 12.6953 -28.125 C 12.6953 -20.8496 16.3574 -17.0898 23.2422 -17.0898 L 33.6914 -17.0898 C 33.9355 -17.0898 34.1797 -17.041 34.375 -16.7969 L 50.7812 -1.66016 C 53.2715 0.585938 55.1758 1.5625 57.7148 1.5625 Z"/>
  </g>
  <g id="Semibold-S" transform="matrix(1 0 0 1 2001.1 696)">
   <path d="M 56.8359 1.12305 C 60.2539 1.12305 62.8418 -1.41602 62.8418 -4.83398 L 62.8418 -65.3809 C 62.8418 -68.7988 60.2539 -71.5332 56.7383 -71.5332 C 54.4922 -71.5332 52.832 -70.6055 50.3418 -68.3105 L 33.7891 -53.0762 C 33.5938 -52.8809 33.3496 -52.7832 33.0566 -52.7832 L 22.3633 -52.7832 C 15.8691 -52.7832 12.4512 -49.2676 12.4512 -42.3828 L 12.4512 -28.0273 C 12.4512 -21.1426 15.8691 -17.627 22.3633 -17.627 L 33.0566 -17.627 C 33.3496 -17.627 33.5938 -17.5293 33.7891 -17.334 L 50.3418 -1.9043 C 52.6367 0.195312 54.4922 1.12305 56.8359 1.12305 Z"/>
  </g>
  <g id="Medium-S" transform="matrix(1 0 0 1 1704.98 696)">
   <path d="M 56.1523 0.78125 C 59.3262 0.78125 61.7188 -1.5625 61.7188 -4.6875 L 61.7188 -65.4785 C 61.7188 -68.6523 59.3262 -71.1914 56.1035 -71.1914 C 53.9062 -71.1914 52.3926 -70.3125 49.9512 -68.0664 L 33.3984 -52.6367 C 33.1543 -52.4414 32.9102 -52.3438 32.6172 -52.3438 L 21.7285 -52.3438 C 15.4785 -52.3438 12.3047 -49.0723 12.3047 -42.4316 L 12.3047 -27.9297 C 12.3047 -21.3379 15.4785 -18.0176 21.7285 -18.0176 L 32.6172 -18.0176 C 32.9102 -18.0176 33.1543 -17.9688 33.3984 -17.7246 L 49.9512 -2.14844 C 52.1973 -0.0976562 53.9551 0.78125 56.1523 0.78125 Z"/>
  </g>
  <g id="Regular-S" transform="matrix(1 0 0 1 1409.05 696)">
   <path d="M 55.2734 0.341797 C 58.1055 0.341797 60.2051 -1.70898 60.2051 -4.54102 L 60.2051 -65.625 C 60.2051 -68.4082 58.1055 -70.752 55.1758 -70.752 C 53.1738 -70.752 51.8066 -69.873 49.5117 -67.7246 L 32.8125 -52.1484 C 32.6172 -51.9043 32.3242 -51.8066 31.9824 -51.8066 L 20.8496 -51.8066 C 14.9902 -51.8066 12.0605 -48.8281 12.0605 -42.5293 L 12.0605 -27.832 C 12.0605 -21.582 14.9902 -18.5547 20.8496 -18.5547 L 31.9824 -18.5547 C 32.3242 -18.5547 32.6172 -18.457 32.8125 -18.2617 L 49.5117 -2.39258 C 51.5625 -0.488281 53.2227 0.341797 55.2734 0.341797 Z"/>
  </g>
  <g id="Light-S" transform="matrix(1 0 0 1 1114.39 696)">
   <path d="M 53.7109 -0.488281 C 56.1523 -0.488281 57.8125 -2.29492 57.8125 -4.6875 L 57.8125 -65.5762 C 57.8125 -67.9688 56.1523 -69.9219 53.6621 -69.9219 C 51.9043 -69.9219 50.7324 -69.1406 48.9258 -67.4805 L 31.7871 -51.1719 C 31.4941 -50.9277 31.1035 -50.7812 30.7129 -50.7812 L 19.043 -50.7812 C 14.0137 -50.7812 11.1328 -47.9004 11.1328 -42.5781 L 11.1328 -27.6855 C 11.1328 -22.3633 14.0137 -19.4824 19.043 -19.4824 L 30.7129 -19.4824 C 31.1035 -19.4824 31.4941 -19.3359 31.7871 -19.0918 L 48.9258 -2.7832 C 50.5859 -1.26953 52.002 -0.488281 53.7109 -0.488281 Z"/>
  </g>
  <g id="Thin-S" transform="matrix(1 0 0 1 820.387 696)">
   <path d="M 51.6602 -1.61133 C 53.5645 -1.61133 54.6875 -3.02734 54.6875 -4.83398 L 54.6875 -65.5762 C 54.6875 -67.3828 53.5645 -68.8477 51.6113 -68.8477 C 50.293 -68.8477 49.3164 -68.2129 48.1445 -67.1387 L 30.3711 -49.9512 C 29.9805 -49.6094 29.541 -49.4629 28.9551 -49.4629 L 16.6016 -49.4629 C 12.6953 -49.4629 9.96094 -46.7285 9.96094 -42.6758 L 9.96094 -27.4414 C 9.96094 -23.3887 12.6953 -20.6543 16.6016 -20.6543 L 28.9551 -20.6543 C 29.541 -20.6543 29.9805 -20.5078 30.3711 -20.166 L 48.1445 -3.27148 C 49.2188 -2.29492 50.3418 -1.61133 51.6602 -1.61133 Z"/>
  </g>
  <g id="Ultralight-S" transform="matrix(1 0 0 1 525.068 696)">
   <path d="M 50.5859 -2.19727 C 52.1973 -2.19727 53.0762 -3.41797 53.0762 -4.98047 L 53.0762 -65.5273 C 53.0762 -67.041 52.1973 -68.3105 50.5859 -68.3105 C 49.4629 -68.3105 48.5352 -67.6758 47.7539 -66.9434 L 29.6387 -49.3164 C 29.248 -48.9258 28.7598 -48.7305 28.0762 -48.7305 L 15.3809 -48.7305 C 12.0117 -48.7305 9.375 -46.0938 9.375 -42.7246 L 9.375 -27.3438 C 9.375 -23.9258 12.0117 -21.2891 15.3809 -21.2891 L 28.0762 -21.2891 C 28.7598 -21.2891 29.248 -21.0938 29.6387 -20.7031 L 47.7539 -3.56445 C 48.5352 -2.83203 49.4629 -2.19727 50.5859 -2.19727 Z"/>
  </g>
 </g>
</svg>
