<?xml version="1.0" encoding="UTF-8"?>
<!--Generator: Apple Native CoreSVG 149-->
<!DOCTYPE svg
PUBLIC "-//W3C//DTD SVG 1.1//EN"
       "http://www.w3.org/Graphics/SVG/1.1/DTD/svg11.dtd">
<svg version="1.1" xmlns="http://www.w3.org/2000/svg" xmlns:xlink="http://www.w3.org/1999/xlink" width="3300" height="2200">
 <!--glyph: "uni100C3A.medium", point size: 100.000000, font version: "Version 16.0d12e3", template writer version: "8"-->
 <g id="Notes">
  <rect height="2200" id="artboard" style="fill:white;opacity:1" width="3300" x="0" y="0"/>
  <line id="" style="fill:none;stroke:black;opacity:1;stroke-width:0.5;" x1="263" x2="3036" y1="292" y2="292"/>
  <text style="stroke:none;fill:black;font-family:-apple-system,&quot;SF Pro Display&quot;,&quot;SF Pro Text&quot;,Helvetica,sans-serif;font-weight:bold;" transform="matrix(1 0 0 1 263 322)">Weight/Scale Variations</text>
  <text style="stroke:none;fill:black;font-family:-apple-system,&quot;SF Pro Display&quot;,&quot;SF Pro Text&quot;,Helvetica,sans-serif;text-anchor:middle;" transform="matrix(1 0 0 1 559.711 322)">Ultralight</text>
  <text style="stroke:none;fill:black;font-family:-apple-system,&quot;SF Pro Display&quot;,&quot;SF Pro Text&quot;,Helvetica,sans-serif;text-anchor:middle;" transform="matrix(1 0 0 1 856.422 322)">Thin</text>
  <text style="stroke:none;fill:black;font-family:-apple-system,&quot;SF Pro Display&quot;,&quot;SF Pro Text&quot;,Helvetica,sans-serif;text-anchor:middle;" transform="matrix(1 0 0 1 1153.13 322)">Light</text>
  <text style="stroke:none;fill:black;font-family:-apple-system,&quot;SF Pro Display&quot;,&quot;SF Pro Text&quot;,Helvetica,sans-serif;text-anchor:middle;" transform="matrix(1 0 0 1 1449.84 322)">Regular</text>
  <text style="stroke:none;fill:black;font-family:-apple-system,&quot;SF Pro Display&quot;,&quot;SF Pro Text&quot;,Helvetica,sans-serif;text-anchor:middle;" transform="matrix(1 0 0 1 1746.56 322)">Medium</text>
  <text style="stroke:none;fill:black;font-family:-apple-system,&quot;SF Pro Display&quot;,&quot;SF Pro Text&quot;,Helvetica,sans-serif;text-anchor:middle;" transform="matrix(1 0 0 1 2043.27 322)">Semibold</text>
  <text style="stroke:none;fill:black;font-family:-apple-system,&quot;SF Pro Display&quot;,&quot;SF Pro Text&quot;,Helvetica,sans-serif;text-anchor:middle;" transform="matrix(1 0 0 1 2339.98 322)">Bold</text>
  <text style="stroke:none;fill:black;font-family:-apple-system,&quot;SF Pro Display&quot;,&quot;SF Pro Text&quot;,Helvetica,sans-serif;text-anchor:middle;" transform="matrix(1 0 0 1 2636.69 322)">Heavy</text>
  <text style="stroke:none;fill:black;font-family:-apple-system,&quot;SF Pro Display&quot;,&quot;SF Pro Text&quot;,Helvetica,sans-serif;text-anchor:middle;" transform="matrix(1 0 0 1 2933.4 322)">Black</text>
  <line id="" style="fill:none;stroke:black;opacity:1;stroke-width:0.5;" x1="263" x2="3036" y1="1903" y2="1903"/>
  <g id="" transform="matrix(1 0 0 1 263 1933)">
   <path d="M9.24805 0.830078C13.5547 0.830078 17.1387-2.74414 17.1387-7.05078C17.1387-11.3574 13.5449-14.9316 9.23828-14.9316C4.94141-14.9316 1.36719-11.3574 1.36719-7.05078C1.36719-2.74414 4.95117 0.830078 9.24805 0.830078ZM9.24805-0.654297C5.70312-0.654297 2.87109-3.49609 2.87109-7.05078C2.87109-10.6055 5.69336-13.4473 9.23828-13.4473C12.793-13.4473 15.6348-10.6055 15.6445-7.05078C15.6543-3.49609 12.8027-0.654297 9.24805-0.654297ZM9.22852-3.62305C9.69727-3.62305 9.9707-3.93555 9.9707-4.45312L9.9707-6.31836L12.002-6.31836C12.5-6.31836 12.832-6.57227 12.832-7.04102C12.832-7.51953 12.5195-7.7832 12.002-7.7832L9.9707-7.7832L9.9707-9.81445C9.9707-10.332 9.69727-10.6543 9.22852-10.6543C8.75977-10.6543 8.50586-10.3125 8.50586-9.81445L8.50586-7.7832L6.49414-7.7832C5.97656-7.7832 5.64453-7.51953 5.64453-7.04102C5.64453-6.57227 5.99609-6.31836 6.49414-6.31836L8.50586-6.31836L8.50586-4.45312C8.50586-3.95508 8.75977-3.62305 9.22852-3.62305Z"/>
  </g>
  <g id="" transform="matrix(1 0 0 1 281.506 1933)">
   <path d="M11.709 2.91016C17.1582 2.91016 21.6699-1.61133 21.6699-7.05078C21.6699-12.5 17.1484-17.0117 11.6992-17.0117C6.25977-17.0117 1.74805-12.5 1.74805-7.05078C1.74805-1.61133 6.26953 2.91016 11.709 2.91016ZM11.709 1.25C7.09961 1.25 3.41797-2.44141 3.41797-7.05078C3.41797-11.6602 7.08984-15.3516 11.6992-15.3516C16.3086-15.3516 20-11.6602 20.0098-7.05078C20.0195-2.44141 16.3184 1.25 11.709 1.25ZM11.6797-2.66602C12.207-2.66602 12.5098-3.01758 12.5098-3.59375L12.5098-6.23047L15.3223-6.23047C15.8691-6.23047 16.25-6.51367 16.25-7.03125C16.25-7.55859 15.8887-7.86133 15.3223-7.86133L12.5098-7.86133L12.5098-10.6836C12.5098-11.25 12.207-11.6113 11.6797-11.6113C11.1621-11.6113 10.8789-11.2305 10.8789-10.6836L10.8789-7.86133L8.07617-7.86133C7.50977-7.86133 7.13867-7.55859 7.13867-7.03125C7.13867-6.51367 7.5293-6.23047 8.07617-6.23047L10.8789-6.23047L10.8789-3.59375C10.8789-3.03711 11.1621-2.66602 11.6797-2.66602Z"/>
  </g>
  <g id="" transform="matrix(1 0 0 1 304.924 1933)">
   <path d="M14.9707 5.66406C21.9336 5.66406 27.6953-0.0976562 27.6953-7.05078C27.6953-14.0137 21.9238-19.7754 14.9609-19.7754C8.00781-19.7754 2.25586-14.0137 2.25586-7.05078C2.25586-0.0976562 8.01758 5.66406 14.9707 5.66406ZM14.9707 3.84766C8.93555 3.84766 4.08203-1.01562 4.08203-7.05078C4.08203-13.0957 8.92578-17.9492 14.9609-17.9492C21.0059-17.9492 25.8594-13.0957 25.8691-7.05078C25.8789-1.01562 21.0156 3.84766 14.9707 3.84766ZM14.9414-1.38672C15.5176-1.38672 15.8594-1.77734 15.8594-2.38281L15.8594-6.13281L19.7754-6.13281C20.3711-6.13281 20.7812-6.46484 20.7812-7.02148C20.7812-7.59766 20.3906-7.93945 19.7754-7.93945L15.8594-7.93945L15.8594-11.8652C15.8594-12.4805 15.5176-12.8711 14.9414-12.8711C14.375-12.8711 14.0527-12.4609 14.0527-11.8652L14.0527-7.93945L10.1465-7.93945C9.53125-7.93945 9.13086-7.59766 9.13086-7.02148C9.13086-6.46484 9.55078-6.13281 10.1465-6.13281L14.0527-6.13281L14.0527-2.38281C14.0527-1.79688 14.375-1.38672 14.9414-1.38672Z"/>
  </g>
  <text style="stroke:none;fill:black;font-family:-apple-system,&quot;SF Pro Display&quot;,&quot;SF Pro Text&quot;,Helvetica,sans-serif;font-weight:bold;" transform="matrix(1 0 0 1 263 1953)">Design Variations</text>
  <text style="stroke:none;fill:black;font-family:-apple-system,&quot;SF Pro Display&quot;,&quot;SF Pro Text&quot;,Helvetica,sans-serif;" transform="matrix(1 0 0 1 263 1971)">Symbols are supported in up to nine weights and three scales.</text>
  <text style="stroke:none;fill:black;font-family:-apple-system,&quot;SF Pro Display&quot;,&quot;SF Pro Text&quot;,Helvetica,sans-serif;" transform="matrix(1 0 0 1 263 1989)">For optimal layout with text and other symbols, vertically align</text>
  <text style="stroke:none;fill:black;font-family:-apple-system,&quot;SF Pro Display&quot;,&quot;SF Pro Text&quot;,Helvetica,sans-serif;" transform="matrix(1 0 0 1 263 2007)">symbols with the adjacent text.</text>
  <line id="" style="fill:none;stroke:#00AEEF;stroke-width:0.5;opacity:1.0;" x1="776" x2="776" y1="1919" y2="1933"/>
  <g id="" transform="matrix(1 0 0 1 776 1933)">
   <path d="M3.31055 0.126953C3.82812 0.126953 4.08203-0.0683594 4.26758-0.605469L5.52734-4.0625L11.2891-4.0625L12.5488-0.605469C12.7344-0.0683594 12.9883 0.126953 13.4961 0.126953C14.0137 0.126953 14.3457-0.185547 14.3457-0.673828C14.3457-0.839844 14.3164-0.986328 14.2383-1.20117L9.6582-13.3887C9.43359-13.9941 9.0332-14.2871 8.4082-14.2871C7.80273-14.2871 7.39258-13.9941 7.17773-13.3984L2.59766-1.19141C2.51953-0.976562 2.49023-0.830078 2.49023-0.664062C2.49023-0.175781 2.80273 0.126953 3.31055 0.126953ZM6.00586-5.53711L8.37891-12.1094L8.42773-12.1094L10.8008-5.53711Z"/>
  </g>
  <line id="" style="fill:none;stroke:#00AEEF;stroke-width:0.5;opacity:1.0;" x1="792.836" x2="792.836" y1="1919" y2="1933"/>
  <text style="stroke:none;fill:black;font-family:-apple-system,&quot;SF Pro Display&quot;,&quot;SF Pro Text&quot;,Helvetica,sans-serif;font-weight:bold;" transform="matrix(1 0 0 1 776 1953)">Margins</text>
  <text style="stroke:none;fill:black;font-family:-apple-system,&quot;SF Pro Display&quot;,&quot;SF Pro Text&quot;,Helvetica,sans-serif;" transform="matrix(1 0 0 1 776 1971)">Leading and trailing margins on the left and right side of each symbol</text>
  <text style="stroke:none;fill:black;font-family:-apple-system,&quot;SF Pro Display&quot;,&quot;SF Pro Text&quot;,Helvetica,sans-serif;" transform="matrix(1 0 0 1 776 1989)">can be adjusted by modifying the x-location of the margin guidelines.</text>
  <text style="stroke:none;fill:black;font-family:-apple-system,&quot;SF Pro Display&quot;,&quot;SF Pro Text&quot;,Helvetica,sans-serif;" transform="matrix(1 0 0 1 776 2007)">Modifications are automatically applied proportionally to all</text>
  <text style="stroke:none;fill:black;font-family:-apple-system,&quot;SF Pro Display&quot;,&quot;SF Pro Text&quot;,Helvetica,sans-serif;" transform="matrix(1 0 0 1 776 2025)">scales and weights.</text>
  <g id="" transform="matrix(1 0 0 1 1289 1933)">
   <path d="M2.8418 1.86523L4.54102 3.57422C5.40039 4.44336 6.38672 4.38477 7.31445 3.35938L17.4902-7.85156C17.7539-7.76367 18.0273-7.7832 18.3398-7.8418L19.4043-8.03711L20.0684-7.36328L20.0293-6.80664C19.9902-6.30859 20.1172-5.92773 20.6055-5.44922L21.3672-4.70703C21.8457-4.22852 22.4609-4.19922 22.9297-4.66797L25.8398-7.58789C26.3086-8.05664 26.2891-8.65234 25.8105-9.13086L25.0391-9.89258C24.5605-10.3711 24.1895-10.5273 23.7109-10.4883L23.1348-10.4395L22.4902-11.0742L22.7344-12.1973C22.8613-12.7637 22.7051-13.2031 22.1191-13.7891L19.9219-15.9766C16.582-19.2969 12.1484-19.2188 9.25781-16.3281C8.83789-15.918 8.80859-15.3418 9.04297-14.9512C9.27734-14.5898 9.73633-14.3555 10.3809-14.5215C11.8457-14.8633 13.3691-14.9219 14.7949-13.9844L14.209-12.5293C14.0137-12.0508 13.9844-11.6504 14.1113-11.2891L3.04688-0.898438C2.06055 0.0195312 1.98242 0.996094 2.8418 1.86523ZM10.752-15.957C13.1836-17.7344 16.4746-17.4316 18.7012-15.2051L21.1328-12.793C21.3672-12.5586 21.4062-12.373 21.3379-12.0312L21.0156-10.5469L22.5195-9.0625L23.5059-9.12109C23.7598-9.13086 23.8379-9.11133 24.0332-8.91602L24.6094-8.33984L22.168-5.89844L21.5918-6.47461C21.3965-6.66992 21.3672-6.74805 21.377-7.01172L21.4453-7.98828L19.9512-9.47266L18.4277-9.21875C18.1055-9.15039 17.959-9.17969 17.7148-9.41406L15.7129-11.416C15.459-11.6504 15.4297-11.8164 15.5859-12.1875L16.4648-14.2773C14.9023-15.7324 12.8711-16.3574 10.8398-15.7617C10.6836-15.7227 10.625-15.8496 10.752-15.957ZM5.27344 2.30469L4.10156 1.14258C3.63281 0.683594 3.74023 0.341797 4.14062-0.0195312L14.9512-10.1953L16.416-8.71094L6.42578 2.27539C6.07422 2.67578 5.74219 2.77344 5.27344 2.30469Z"/>
  </g>
  <text style="stroke:none;fill:black;font-family:-apple-system,&quot;SF Pro Display&quot;,&quot;SF Pro Text&quot;,Helvetica,sans-serif;font-weight:bold;" transform="matrix(1 0 0 1 1289 1953)">Exporting</text>
  <text style="stroke:none;fill:black;font-family:-apple-system,&quot;SF Pro Display&quot;,&quot;SF Pro Text&quot;,Helvetica,sans-serif;" transform="matrix(1 0 0 1 1289 1971)">Symbols should be outlined when exporting to ensure the</text>
  <text style="stroke:none;fill:black;font-family:-apple-system,&quot;SF Pro Display&quot;,&quot;SF Pro Text&quot;,Helvetica,sans-serif;" transform="matrix(1 0 0 1 1289 1989)">design is preserved when submitting to Xcode.</text>
  <text id="template-version" style="stroke:none;fill:black;font-family:-apple-system,&quot;SF Pro Display&quot;,&quot;SF Pro Text&quot;,Helvetica,sans-serif;text-anchor:end;" transform="matrix(1 0 0 1 3036 1933)">Template v.2.0</text>
  <text style="stroke:none;fill:black;font-family:-apple-system,&quot;SF Pro Display&quot;,&quot;SF Pro Text&quot;,Helvetica,sans-serif;text-anchor:end;" transform="matrix(1 0 0 1 3036 1951)">Requires Xcode 12 or greater</text>
  <text style="stroke:none;fill:black;font-family:-apple-system,&quot;SF Pro Display&quot;,&quot;SF Pro Text&quot;,Helvetica,sans-serif;text-anchor:end;" transform="matrix(1 0 0 1 3036 1969)">Generated from arrow.up.backward.circle</text>
  <text style="stroke:none;fill:black;font-family:-apple-system,&quot;SF Pro Display&quot;,&quot;SF Pro Text&quot;,Helvetica,sans-serif;text-anchor:end;" transform="matrix(1 0 0 1 3036 1987)">Typeset at 100 points</text>
  <text style="stroke:none;fill:black;font-family:-apple-system,&quot;SF Pro Display&quot;,&quot;SF Pro Text&quot;,Helvetica,sans-serif;" transform="matrix(1 0 0 1 263 726)">Small</text>
  <text style="stroke:none;fill:black;font-family:-apple-system,&quot;SF Pro Display&quot;,&quot;SF Pro Text&quot;,Helvetica,sans-serif;" transform="matrix(1 0 0 1 263 1156)">Medium</text>
  <text style="stroke:none;fill:black;font-family:-apple-system,&quot;SF Pro Display&quot;,&quot;SF Pro Text&quot;,Helvetica,sans-serif;" transform="matrix(1 0 0 1 263 1586)">Large</text>
 </g>
 <g id="Guides">
  <g id="H-reference" style="fill:#27AAE1;stroke:none;" transform="matrix(1 0 0 1 339 696)">
   <path d="M0.976562 0L3.66211 0L12.9883-24.4629L45.752-24.4629L55.127 0L57.7637 0L30.6152-70.459L28.125-70.459ZM29.3457-67.1387L29.4434-67.1387L44.873-26.709L13.8672-26.709Z"/>
  </g>
  <line id="Baseline-S" style="fill:none;stroke:#27AAE1;opacity:1;stroke-width:0.5;" x1="263" x2="3036" y1="696" y2="696"/>
  <line id="Capline-S" style="fill:none;stroke:#27AAE1;opacity:1;stroke-width:0.5;" x1="263" x2="3036" y1="625.541" y2="625.541"/>
  <g id="H-reference" style="fill:#27AAE1;stroke:none;" transform="matrix(1 0 0 1 339 1126)">
   <path d="M0.976562 0L3.66211 0L12.9883-24.4629L45.752-24.4629L55.127 0L57.7637 0L30.6152-70.459L28.125-70.459ZM29.3457-67.1387L29.4434-67.1387L44.873-26.709L13.8672-26.709Z"/>
  </g>
  <line id="Baseline-M" style="fill:none;stroke:#27AAE1;opacity:1;stroke-width:0.5;" x1="263" x2="3036" y1="1126" y2="1126"/>
  <line id="Capline-M" style="fill:none;stroke:#27AAE1;opacity:1;stroke-width:0.5;" x1="263" x2="3036" y1="1055.54" y2="1055.54"/>
  <g id="H-reference" style="fill:#27AAE1;stroke:none;" transform="matrix(1 0 0 1 339 1556)">
   <path d="M0.976562 0L3.66211 0L12.9883-24.4629L45.752-24.4629L55.127 0L57.7637 0L30.6152-70.459L28.125-70.459ZM29.3457-67.1387L29.4434-67.1387L44.873-26.709L13.8672-26.709Z"/>
  </g>
  <line id="Baseline-L" style="fill:none;stroke:#27AAE1;opacity:1;stroke-width:0.5;" x1="263" x2="3036" y1="1556" y2="1556"/>
  <line id="Capline-L" style="fill:none;stroke:#27AAE1;opacity:1;stroke-width:0.5;" x1="263" x2="3036" y1="1485.54" y2="1485.54"/>
  <line id="left-margin" style="fill:none;stroke:#00AEEF;stroke-width:0.5;opacity:1.0;" x1="1391.3" x2="1391.3" y1="1030.79" y2="1150.12"/>
  <line id="right-margin" style="fill:none;stroke:#00AEEF;stroke-width:0.5;opacity:1.0;" x1="1508.39" x2="1508.39" y1="1030.79" y2="1150.12"/>
 </g>
 <g id="Symbols">
  <g id="Black-L" transform="matrix(1 0 0 1 2854.05 1556)">
   <path d="M79.3457 32.8613C116.748 32.8613 147.412 2.19727 147.412-35.2051C147.412-72.6074 116.748-103.271 79.2969-103.271C41.8945-103.271 11.2793-72.6074 11.2793-35.2051C11.2793 2.19727 41.9434 32.8613 79.3457 32.8613ZM79.3457 12.4023C52.9785 12.4023 31.7383-8.83789 31.7383-35.2051C31.7383-61.5723 52.9297-82.8125 79.2969-82.8125C105.664-82.8125 126.953-61.5723 126.953-35.2051C127.002-8.83789 105.713 12.4023 79.3457 12.4023ZM60.1074-15.9668C64.5508-15.9668 67.334-19.1895 67.334-24.2188L67.334-30.9082L66.4062-37.4512L73.1445-29.4922L90.5273-12.1582C92.5781-10.2051 94.6777-9.375 97.1191-9.375C101.807-9.375 105.713-12.793 105.713-17.8223C105.713-20.1172 104.736-22.4121 103.027-24.1211L85.4004-41.748L77.4414-48.5352L83.7402-47.4609L90.9668-47.4609C95.8984-47.4609 99.1211-50.1953 99.1211-54.6875C99.1211-59.1309 95.8984-61.9141 90.8691-61.9141L63.1348-61.9141C56.6895-61.9141 52.8809-58.3008 52.8809-51.8066L52.8809-24.1211C52.8809-19.1895 55.6152-15.9668 60.1074-15.9668Z"/>
  </g>
  <g id="Heavy-L" transform="matrix(1 0 0 1 2558.39 1556)">
   <path d="M78.2715 31.7871C115.088 31.7871 145.312 1.5625 145.312-35.2051C145.312-72.0215 115.039-102.246 78.2715-102.246C41.4551-102.246 11.2793-72.0215 11.2793-35.2051C11.2793 1.5625 41.5039 31.7871 78.2715 31.7871ZM78.2715 14.0137C51.0254 14.0137 29.0527-7.95898 29.0527-35.2051C29.0527-62.5 50.9766-84.4727 78.2715-84.4727C105.518-84.4727 127.49-62.5 127.539-35.2051C127.539-7.95898 105.566 14.0137 78.2715 14.0137ZM58.7891-16.8945C62.7441-16.8945 65.2344-19.7266 65.2344-24.1699L65.2344-32.3242L64.3555-39.6973L71.4844-31.543L90.8691-12.207C92.5781-10.5469 94.4336-9.76562 96.582-9.76562C100.781-9.76562 104.15-12.7441 104.15-17.1875C104.15-19.1895 103.223-21.2402 101.758-22.7051L82.2266-42.2363L73.9746-49.4141L81.0059-48.3887L89.7949-48.3887C94.1406-48.3887 97.0215-50.8789 97.0215-54.8828C97.0215-58.8379 94.1406-61.2793 89.6973-61.2793L61.2305-61.2793C55.6641-61.2793 52.3438-58.252 52.3438-52.5391L52.3438-24.1211C52.3438-19.7754 54.834-16.8945 58.7891-16.8945Z"/>
  </g>
  <g id="Bold-L" transform="matrix(1 0 0 1 2262.88 1556)">
   <path d="M77.0996 30.5664C113.232 30.5664 142.92 0.878906 142.92-35.2539C142.92-71.3379 113.184-101.074 77.0508-101.074C40.9668-101.074 11.2793-71.3379 11.2793-35.2539C11.2793 0.878906 41.0156 30.5664 77.0996 30.5664ZM77.0996 15.8203C48.8281 15.8203 26.0742-6.98242 26.0742-35.2539C26.0742-63.5254 48.7793-86.2793 77.0508-86.2793C105.371-86.2793 128.125-63.5254 128.174-35.2539C128.174-6.98242 105.371 15.8203 77.0996 15.8203ZM57.3242-17.9199C60.7422-17.9199 62.9395-20.3613 62.9395-24.1211L62.9395-33.8867L62.1094-42.2363L69.6289-33.7891L91.2109-12.2559C92.627-10.8887 94.1895-10.2539 96.0449-10.2539C99.6094-10.2539 102.344-12.7441 102.344-16.5039C102.344-18.1641 101.562-19.873 100.342-21.0938L78.6621-42.7734L70.166-50.3906L77.9297-49.4629L88.4277-49.4629C92.1875-49.4629 94.6289-51.6113 94.6289-55.0781C94.6289-58.4961 92.1875-60.6445 88.4277-60.6445L59.082-60.6445C54.4922-60.6445 51.709-58.2031 51.709-53.3691L51.709-24.1211C51.709-20.4102 53.9062-17.9199 57.3242-17.9199Z"/>
  </g>
  <g id="Semibold-L" transform="matrix(1 0 0 1 1966.97 1556)">
   <path d="M76.2695 29.7363C111.914 29.7363 141.309 0.390625 141.309-35.2539C141.309-70.8984 111.865-100.244 76.2695-100.244C40.625-100.244 11.2793-70.8984 11.2793-35.2539C11.2793 0.390625 40.6738 29.7363 76.2695 29.7363ZM76.2695 17.041C47.3145 17.041 24.0234-6.25 24.0234-35.2539C24.0234-64.209 47.2656-87.5488 76.2695-87.5488C105.225-87.5488 128.564-64.209 128.613-35.2539C128.662-6.25 105.273 17.041 76.2695 17.041ZM56.2988-18.6035C59.375-18.6035 61.3281-20.752 61.3281-24.1211L61.3281-34.9609L60.498-43.9453L68.3594-35.3516L91.4551-12.3047C92.627-11.1328 93.9941-10.5469 95.6543-10.5469C98.7793-10.5469 101.123-12.6953 101.123-15.9668C101.123-17.4805 100.439-18.8965 99.3652-19.9707L76.1719-43.1641L67.5293-51.0742L75.7812-50.1953L87.5-50.1953C90.8203-50.1953 93.0176-52.1484 93.0176-55.2246C93.0176-58.252 90.8691-60.1562 87.5488-60.1562L57.6172-60.1562C53.7109-60.1562 51.3184-58.1543 51.3184-53.9551L51.3184-24.1211C51.3184-20.8496 53.2715-18.6035 56.2988-18.6035Z"/>
  </g>
  <g id="Medium-L" transform="matrix(1 0 0 1 1670.87 1556)">
   <path d="M75.6836 29.1504C110.938 29.1504 140.088 0 140.088-35.2539C140.088-70.5078 110.889-99.6582 75.6348-99.6582C40.3809-99.6582 11.2793-70.5078 11.2793-35.2539C11.2793 0 40.3809 29.1504 75.6836 29.1504ZM75.6836 18.0176C46.1426 18.0176 22.4609-5.76172 22.4609-35.2539C22.4609-64.7461 46.1426-88.5254 75.6348-88.5254C105.127-88.5254 128.906-64.7461 128.906-35.2539C128.955-5.76172 105.176 18.0176 75.6836 18.0176ZM55.5176-19.1406C58.3008-19.1406 60.1074-21.0449 60.1074-24.0723L60.1074-35.7422L59.3262-45.2637L67.3828-36.5234L91.6504-12.3047C92.627-11.3281 93.8477-10.791 95.3613-10.791C98.1934-10.791 100.195-12.6953 100.195-15.625C100.195-16.9434 99.5605-18.2129 98.6328-19.1406L74.3164-43.457L65.4785-51.5625L74.1699-50.7324L86.8164-50.7324C89.7949-50.7324 91.7969-52.5391 91.7969-55.3223C91.7969-58.0566 89.8438-59.8145 86.8652-59.8145L56.4941-59.8145C53.125-59.8145 50.9766-58.1055 50.9766-54.3945L50.9766-24.1699C50.9766-21.1914 52.7832-19.1406 55.5176-19.1406Z"/>
  </g>
  <g id="Regular-L" transform="matrix(1 0 0 1 1374.97 1556)">
   <path d="M74.8535 28.3203C109.668 28.3203 138.477-0.488281 138.477-35.2539C138.477-70.0684 109.619-98.877 74.8047-98.877C40.0391-98.877 11.2793-70.0684 11.2793-35.2539C11.2793-0.488281 40.0879 28.3203 74.8535 28.3203ZM74.8535 19.2383C44.6777 19.2383 20.4102-5.07812 20.4102-35.2539C20.4102-65.4785 44.6289-89.7461 74.8047-89.7461C105.029-89.7461 129.297-65.4785 129.346-35.2539C129.395-5.07812 105.078 19.2383 74.8535 19.2383ZM54.541-19.8242C56.9336-19.8242 58.4961-21.4844 58.4961-24.0723L58.4961-36.8164L57.7637-46.9727L66.1133-38.0859L91.8945-12.3535C92.627-11.5723 93.6523-11.084 94.9707-11.084C97.3633-11.084 98.9746-12.6953 98.9746-15.1367C98.9746-16.2109 98.4375-17.2852 97.6562-18.0176L71.875-43.7988L62.8906-52.2461L72.0703-51.4648L85.8887-51.4648C88.4766-51.4648 90.1367-53.0273 90.1367-55.4688C90.1367-57.8125 88.5254-59.375 85.9863-59.375L55.0293-59.375C52.3438-59.375 50.5859-58.0566 50.5859-54.9316L50.5859-24.1699C50.5859-21.6309 52.1484-19.8242 54.541-19.8242Z"/>
  </g>
  <g id="Light-L" transform="matrix(1 0 0 1 1079.18 1556)">
   <path d="M73.9258 27.3926C108.301 27.3926 136.621-0.927734 136.621-35.2539C136.621-69.6289 108.252-97.9492 73.9258-97.9492C39.5508-97.9492 11.2793-69.6289 11.2793-35.2539C11.2793-0.927734 39.5996 27.3926 73.9258 27.3926ZM73.9258 20.5078C43.1152 20.5078 18.2129-4.44336 18.2129-35.2539C18.2129-66.1133 43.0664-91.0156 73.9258-91.0156C104.736-91.0156 129.688-66.1133 129.736-35.2539C129.736-4.44336 104.785 20.5078 73.9258 20.5078ZM53.0273-20.1172C54.8828-20.1172 56.1035-21.3867 56.1035-23.3887L56.1035-38.7207L55.6152-49.3652L63.0371-41.5527L92.2363-12.3535C92.8223-11.7676 93.6035-11.377 94.6777-11.377C96.5332-11.377 97.7539-12.5977 97.7539-14.502C97.7539-15.3809 97.3633-16.1621 96.7285-16.7969L67.4805-46.0449L59.6191-53.5156L68.6035-53.0273L85.6445-53.0273C87.6465-53.0273 88.9648-54.248 88.9648-56.1035C88.9648-57.9102 87.6953-59.082 85.7422-59.082L53.3203-59.082C51.2695-59.082 49.9512-58.0566 49.9512-55.7129L49.9512-23.4863C49.9512-21.4844 51.1719-20.1172 53.0273-20.1172Z"/>
  </g>
  <g id="Thin-L" transform="matrix(1 0 0 1 783.693 1556)">
   <path d="M72.7051 26.1719C106.494 26.1719 134.18-1.51367 134.18-35.2539C134.18-69.043 106.494-96.7285 72.7051-96.7285C38.9648-96.7285 11.2793-69.043 11.2793-35.2539C11.2793-1.51367 38.9648 26.1719 72.7051 26.1719ZM72.7051 22.168C41.0156 22.168 15.2832-3.56445 15.2832-35.2539C15.2832-66.9922 41.0156-92.7246 72.7051-92.7246C104.395-92.7246 130.176-66.9922 130.176-35.2539C130.176-3.56445 104.443 22.168 72.7051 22.168ZM50.9766-20.5078C52.1484-20.5078 52.8809-21.2891 52.8809-22.5586L52.8809-41.2109L52.7832-52.5391L58.9355-46.1426L92.6758-12.3535C93.0664-11.9629 93.5547-11.7188 94.2871-11.7188C95.459-11.7188 96.1914-12.4512 96.1914-13.623C96.1914-14.2578 95.9473-14.7461 95.5566-15.1367L61.7188-48.9746L55.2734-55.1758L64.0137-55.0781L85.3516-55.0781C86.5723-55.0781 87.3535-55.8594 87.3535-56.9824C87.3535-58.0566 86.5723-58.7402 85.3516-58.7402L51.0254-58.7402C49.9023-58.7402 49.1211-58.0566 49.1211-56.7871L49.1211-22.5586C49.1211-21.3379 49.9023-20.5078 50.9766-20.5078Z"/>
  </g>
  <g id="Ultralight-L" transform="matrix(1 0 0 1 487.616 1556)">
   <path d="M72.1191 25.5371C105.566 25.5371 132.91-1.80664 132.91-35.2539C132.91-68.75 105.566-96.0938 72.1191-96.0938C38.623-96.0938 11.2793-68.75 11.2793-35.2539C11.2793-1.80664 38.623 25.5371 72.1191 25.5371ZM72.1191 23.0469C39.9414 23.0469 13.7695-3.125 13.7695-35.2539C13.7695-67.4316 39.9414-93.6035 72.1191-93.6035C104.248-93.6035 130.42-67.4316 130.42-35.2539C130.42-3.125 104.248 23.0469 72.1191 23.0469ZM49.9512-20.752C50.7324-20.752 51.2695-21.2402 51.2695-22.1191L51.2695-42.4805L51.3672-54.1504L56.8359-48.4863L92.9199-12.3535C93.2129-12.0605 93.5547-11.8652 94.0918-11.8652C94.873-11.8652 95.4102-12.4023 95.4102-13.1836C95.4102-13.6719 95.2148-14.0137 94.9219-14.2578L58.7402-50.4883L53.0762-56.0059L61.6699-56.1035L85.2051-56.1035C86.0352-56.1035 86.5723-56.6406 86.5723-57.4219C86.5723-58.1543 86.0352-58.5938 85.1562-58.5938L49.8535-58.5938C49.2188-58.5938 48.6816-58.0078 48.6816-57.3242L48.6816-22.1191C48.6816-21.2402 49.2188-20.752 49.9512-20.752Z"/>
  </g>
  <g id="Black-M" transform="matrix(1 0 0 1 2870.97 1126)">
   <path d="M62.4023 18.457C91.9922 18.457 116.113-5.61523 116.113-35.2051C116.113-64.7949 91.9922-88.8672 62.4023-88.8672C32.8125-88.8672 8.74023-64.7949 8.74023-35.2051C8.74023-5.61523 32.8125 18.457 62.4023 18.457ZM62.4023 0.195312C42.8711 0.195312 27.002-15.625 27.002-35.2051C27.002-54.7363 42.8711-70.6055 62.4023-70.6055C81.9824-70.6055 97.8027-54.7363 97.8027-35.2051C97.8027-15.625 81.9824 0.195312 62.4023 0.195312ZM47.5098-19.2383C51.3672-19.2383 53.6621-22.0703 53.6621-26.3672L53.6621-31.0059L53.0762-35.1562L57.2754-29.8828L69.9219-17.2852C71.8262-15.4785 73.7305-14.7949 75.7812-14.7949C79.8828-14.7949 83.4473-17.8223 83.4473-22.2656C83.4473-24.3164 82.5684-26.3672 81.0547-27.8809L68.1641-40.7715L62.8906-45.0195L66.7969-44.2383L72.0215-44.2383C76.2695-44.2383 79.0527-46.582 79.0527-50.3906C79.0527-54.248 76.2207-56.5918 71.8262-56.5918L50.5859-56.5918C44.7754-56.5918 41.3574-53.1738 41.3574-47.5098L41.3574-26.2695C41.3574-21.9727 43.7012-19.2383 47.5098-19.2383Z"/>
  </g>
  <g id="Heavy-M" transform="matrix(1 0 0 1 2575.19 1126)">
   <path d="M61.5234 17.5293C90.5273 17.5293 114.258-6.20117 114.258-35.2051C114.258-64.2578 90.5273-87.9883 61.4746-87.9883C32.4707-87.9883 8.74023-64.2578 8.74023-35.2051C8.74023-6.20117 32.4707 17.5293 61.5234 17.5293ZM61.5234 1.61133C41.1133 1.61133 24.6582-14.8438 24.6582-35.2051C24.6582-55.6152 41.1133-72.0703 61.4746-72.0703C81.8848-72.0703 98.3398-55.6152 98.3398-35.2051C98.3398-14.8438 81.8848 1.61133 61.5234 1.61133ZM46.4844-20.166C49.9512-20.166 52.0508-22.6562 52.0508-26.5137L52.0508-32.0312L51.416-37.0117L56.2988-31.2012L70.166-17.334C71.7773-15.7715 73.4375-15.1367 75.293-15.1367C78.9551-15.1367 82.0312-17.8223 82.0312-21.7285C82.0312-23.5352 81.25-25.3418 79.9316-26.6602L65.8203-40.7715L60.0098-45.6543L64.6973-44.873L70.752-44.873C74.5605-44.873 77.0508-47.0215 77.0508-50.4395C77.0508-53.8574 74.5117-55.957 70.6055-55.957L48.9258-55.957C43.8965-55.957 40.9668-53.125 40.9668-48.0957L40.9668-26.416C40.9668-22.6562 43.0664-20.166 46.4844-20.166Z"/>
  </g>
  <g id="Bold-M" transform="matrix(1 0 0 1 2279.5 1126)">
   <path d="M60.498 16.5039C88.8672 16.5039 112.207-6.83594 112.207-35.2051C112.207-63.623 88.8672-86.9629 60.4492-86.9629C32.0312-86.9629 8.74023-63.623 8.74023-35.2051C8.74023-6.83594 32.0801 16.5039 60.498 16.5039ZM60.498 3.22266C39.1602 3.22266 22.0703-13.916 22.0703-35.2051C22.0703-56.543 39.1602-73.6816 60.4492-73.6816C81.7383-73.6816 98.9258-56.543 98.9258-35.2051C98.9746-13.916 81.7871 3.22266 60.498 3.22266ZM45.3125-21.1914C48.3398-21.1914 50.1953-23.3398 50.1953-26.6602L50.1953-33.2031L49.5117-39.0625L55.1758-32.666L70.459-17.3828C71.7773-16.1621 73.1445-15.5762 74.8047-15.5762C77.9297-15.5762 80.4199-17.8223 80.4199-21.1426C80.4199-22.6562 79.7363-24.1699 78.6621-25.2441L63.1836-40.7227L56.7383-46.3379L62.3047-45.6055L69.3359-45.6055C72.6562-45.6055 74.8047-47.4609 74.8047-50.4883C74.8047-53.4668 72.6562-55.3223 69.2871-55.3223L47.1191-55.3223C42.9688-55.3223 40.4785-53.0273 40.4785-48.7793L40.4785-26.6602C40.4785-23.3887 42.334-21.1914 45.3125-21.1914Z"/>
  </g>
  <g id="Semibold-M" transform="matrix(1 0 0 1 1983.5 1126)">
   <path d="M59.7656 15.8203C87.7441 15.8203 110.791-7.27539 110.791-35.2539C110.791-63.2324 87.6953-86.2793 59.7656-86.2793C31.7871-86.2793 8.74023-63.2324 8.74023-35.2539C8.74023-7.27539 31.7871 15.8203 59.7656 15.8203ZM59.7656 4.3457C37.8418 4.3457 20.2637-13.3301 20.2637-35.2539C20.2637-57.1777 37.793-74.8047 59.7656-74.8047C81.6895-74.8047 99.3164-57.1777 99.3652-35.2539C99.3652-13.3301 81.6895 4.3457 59.7656 4.3457ZM44.5312-21.875C47.2168-21.875 48.9258-23.7793 48.9258-26.7578L48.9258-33.9844L48.2422-40.5273L54.3945-33.6914L70.6543-17.4316C71.7285-16.4062 72.9492-15.8691 74.4141-15.8691C77.1973-15.8691 79.2969-17.8223 79.2969-20.752C79.2969-22.0215 78.7109-23.3398 77.7344-24.3164L61.377-40.6738L54.4922-46.8262L60.6934-46.0938L68.4082-46.0938C71.3379-46.0938 73.2422-47.8027 73.2422-50.4883C73.2422-53.1738 71.3379-54.8828 68.4082-54.8828L45.8496-54.8828C42.2852-54.8828 40.1367-53.0273 40.1367-49.2188L40.1367-26.8066C40.1367-23.877 41.8457-21.875 44.5312-21.875Z"/>
  </g>
  <g id="Medium-M" transform="matrix(1 0 0 1 1687.3 1126)">
   <path d="M59.2285 15.2344C86.9141 15.2344 109.766-7.61719 109.766-35.2539C109.766-62.8906 86.8652-85.7422 59.1797-85.7422C31.543-85.7422 8.74023-62.8906 8.74023-35.2539C8.74023-7.61719 31.5918 15.2344 59.2285 15.2344ZM59.2285 5.17578C36.8164 5.17578 18.8965-12.8418 18.8965-35.2539C18.8965-57.666 36.8164-75.6348 59.1797-75.6348C81.5918-75.6348 99.6094-57.666 99.6582-35.2539C99.707-12.8418 81.6406 5.17578 59.2285 5.17578ZM43.9453-22.4121C46.3867-22.4121 47.998-24.1699 47.998-26.8555L47.998-34.6191L47.2656-41.6016L53.8086-34.4727L70.8008-17.4805C71.7285-16.5527 72.8027-16.1133 74.1211-16.1133C76.6602-16.1133 78.4668-17.8223 78.4668-20.4102C78.4668-21.582 77.9297-22.7539 77.0996-23.584L60.0098-40.6738L52.832-47.2168L59.4238-46.4355L67.6758-46.4355C70.3613-46.4355 72.0703-48.0469 72.0703-50.4883C72.0703-52.9297 70.3613-54.541 67.7246-54.541L44.873-54.541C41.7969-54.541 39.8926-52.9785 39.8926-49.6094L39.8926-26.9043C39.8926-24.2676 41.5039-22.4121 43.9453-22.4121Z"/>
  </g>
  <g id="Regular-M" transform="matrix(1 0 0 1 1391.3 1126)">
   <path d="M58.5449 14.5508C85.791 14.5508 108.35-8.05664 108.35-35.2539C108.35-62.5 85.7422-85.0586 58.4961-85.0586C31.2988-85.0586 8.74023-62.5 8.74023-35.2539C8.74023-8.05664 31.3477 14.5508 58.5449 14.5508ZM58.5449 6.25C35.498 6.25 17.0898-12.207 17.0898-35.2539C17.0898-58.3008 35.4492-76.7578 58.4961-76.7578C81.543-76.7578 100-58.3008 100.049-35.2539C100.098-12.207 81.5918 6.25 58.5449 6.25ZM43.1641-23.1445C45.3125-23.1445 46.7285-24.6094 46.7285-26.9531L46.7285-35.4004L45.9961-42.9688L53.0273-35.498L70.9961-17.4805C71.6797-16.7969 72.6074-16.3574 73.7793-16.3574C75.9277-16.3574 77.3926-17.8223 77.3926-20.0195C77.3926-20.9961 76.9043-21.9238 76.2207-22.6074L58.2031-40.625L50.5859-47.7051L57.8125-46.9238L66.6992-46.9238C69.043-46.9238 70.5566-48.3398 70.5566-50.5371C70.5566-52.6855 69.0918-54.1016 66.7969-54.1016L43.6523-54.1016C41.1621-54.1016 39.5508-52.9297 39.5508-50.0488L39.5508-27.0508C39.5508-24.7559 41.0156-23.1445 43.1641-23.1445Z"/>
  </g>
  <g id="Light-M" transform="matrix(1 0 0 1 1095.42 1126)">
   <path d="M57.7148 13.7207C84.5215 13.7207 106.689-8.44727 106.689-35.2539C106.689-62.1094 84.5215-84.2285 57.666-84.2285C30.8594-84.2285 8.74023-62.1094 8.74023-35.2539C8.74023-8.44727 30.9082 13.7207 57.7148 13.7207ZM57.7148 7.37305C34.082 7.37305 15.0879-11.6699 15.0879-35.2539C15.0879-58.8867 34.082-77.9297 57.666-77.9297C81.2988-77.9297 100.342-58.8867 100.391-35.2539C100.391-11.6699 81.3477 7.37305 57.7148 7.37305ZM41.748-23.3887C43.457-23.3887 44.5801-24.5605 44.5801-26.3672L44.5801-37.0605L44.0918-45.1172L50.2441-38.5742L71.3379-17.4805C71.875-16.9434 72.5586-16.6016 73.5352-16.6016C75.1953-16.6016 76.3184-17.7246 76.3184-19.4336C76.3184-20.2148 75.9277-20.9473 75.3906-21.4844L54.2969-42.627L47.6562-48.8281L54.7363-48.3398L66.5039-48.3398C68.3105-48.3398 69.4824-49.4141 69.4824-51.123C69.4824-52.7832 68.3594-53.8574 66.5527-53.8574L42.0898-53.8574C40.2344-53.8574 39.0137-52.9297 39.0137-50.7812L39.0137-26.416C39.0137-24.6582 40.1367-23.3887 41.748-23.3887Z"/>
  </g>
  <g id="Thin-M" transform="matrix(1 0 0 1 799.806 1126)">
   <path d="M56.6406 12.5977C82.9102 12.5977 104.492-8.98438 104.492-35.2539C104.492-61.5723 82.9102-83.1543 56.5918-83.1543C30.3223-83.1543 8.74023-61.5723 8.74023-35.2539C8.74023-8.98438 30.3223 12.5977 56.6406 12.5977ZM56.6406 8.88672C32.2266 8.88672 12.4512-10.8887 12.4512-35.2539C12.4512-59.6191 32.2266-79.4434 56.5918-79.4434C81.0059-79.4434 100.781-59.6191 100.781-35.2539C100.781-10.8887 81.0059 8.88672 56.6406 8.88672ZM39.9414-23.7305C41.0156-23.7305 41.6992-24.4629 41.6992-25.5859L41.6992-39.3066L41.5527-47.9492L46.582-42.6758L71.7285-17.4805C72.0703-17.1387 72.5098-16.8945 73.1445-16.8945C74.2188-16.8945 74.9023-17.627 74.9023-18.6523C74.9023-19.2383 74.6582-19.6777 74.3164-20.0195L49.0723-45.2637L43.7988-50.3418L50.6348-50.1465L66.2109-50.1465C67.334-50.1465 68.0664-50.8789 68.0664-51.9043C68.0664-52.8809 67.334-53.5645 66.2598-53.5645L40.0391-53.5645C38.9648-53.5645 38.2812-52.9297 38.2812-51.709L38.2812-25.5859C38.2812-24.5117 38.9648-23.7305 39.9414-23.7305Z"/>
  </g>
  <g id="Ultralight-M" transform="matrix(1 0 0 1 503.656 1126)">
   <path d="M56.0547 12.0605C82.0801 12.0605 103.369-9.22852 103.369-35.2539C103.369-61.2793 82.0801-82.5684 56.0547-82.5684C30.0293-82.5684 8.74023-61.2793 8.74023-35.2539C8.74023-9.22852 30.0293 12.0605 56.0547 12.0605ZM56.0547 9.66797C31.2988 9.66797 11.1328-10.498 11.1328-35.2539C11.1328-60.0586 31.2988-80.1758 56.0547-80.1758C80.8594-80.1758 100.977-60.0586 100.977-35.2539C100.977-10.498 80.8594 9.66797 56.0547 9.66797ZM39.0137-23.9258C39.7461-23.9258 40.2344-24.4141 40.2344-25.1953L40.2344-49.4141L44.6777-44.7754L71.9727-17.4805C72.2168-17.2363 72.5098-17.0898 72.998-17.0898C73.6816-17.0898 74.1699-17.5781 74.1699-18.2617C74.1699-18.7012 74.0234-18.9941 73.7793-19.2383L46.4355-46.582L41.7969-51.0742L48.5352-51.123L66.0645-51.123C66.8457-51.123 67.334-51.5625 67.334-52.2949C67.334-52.9785 66.8457-53.3691 66.0645-53.3691L39.0137-53.3691C38.3789-53.3691 37.8906-52.8809 37.8906-52.1973L37.8906-25.1953C37.8906-24.4141 38.3789-23.9258 39.0137-23.9258Z"/>
  </g>
  <g id="Black-S" transform="matrix(1 0 0 1 2884.57 696)">
   <path d="M48.8281 6.78711C71.9727 6.78711 90.8203-12.0605 90.8203-35.2051C90.8203-58.3496 71.9727-77.1973 48.8281-77.1973C25.6836-77.1973 6.83594-58.3496 6.83594-35.2051C6.83594-12.0605 25.6836 6.78711 48.8281 6.78711ZM48.8281-7.37305C33.4473-7.37305 20.9961-19.8242 20.9961-35.2051C20.9961-50.5859 33.4473-63.0371 48.8281-63.0371C64.209-63.0371 76.6602-50.5859 76.6602-35.2051C76.6602-19.8242 64.209-7.37305 48.8281-7.37305ZM37.1582-22.7539C40.1367-22.7539 41.9434-24.9512 41.9434-28.3203L41.9434-31.9824L41.4551-35.3027L44.8242-31.1035L54.7852-21.1914C56.25-19.7754 57.7148-19.2383 59.3262-19.2383C62.5-19.2383 65.2832-21.582 65.2832-25.0488C65.2832-26.6113 64.5996-28.2227 63.4277-29.3945L53.2715-39.5508L49.0723-42.9199L52.1973-42.334L56.2988-42.334C59.6191-42.334 61.7676-44.1406 61.7676-47.1191C61.7676-50.0977 59.5703-51.9043 56.1523-51.9043L39.502-51.9043C35.0098-51.9043 32.373-49.2676 32.373-44.873L32.373-28.2227C32.373-24.9023 34.1797-22.7539 37.1582-22.7539Z"/>
  </g>
  <g id="Heavy-S" transform="matrix(1 0 0 1 2588.47 696)">
   <path d="M48.2422 6.15234C70.9961 6.15234 89.5996-12.4512 89.5996-35.2051C89.5996-57.959 70.9961-76.6113 48.1934-76.6113C25.4395-76.6113 6.83594-57.959 6.83594-35.2051C6.83594-12.4512 25.4395 6.15234 48.2422 6.15234ZM48.2422-6.39648C32.2754-6.39648 19.4336-19.2871 19.4336-35.2051C19.4336-51.1719 32.2754-64.0137 48.1934-64.0137C64.1602-64.0137 77.002-51.1719 77.0508-35.2051C77.0508-19.2871 64.1602-6.39648 48.2422-6.39648ZM36.5234-23.4375C39.2578-23.4375 40.918-25.4395 40.918-28.4668L40.918-32.5684L40.3809-36.4746L44.3848-31.7871L54.9316-21.2402C56.2012-20.0195 57.5195-19.4824 58.9844-19.4824C61.8652-19.4824 64.3066-21.582 64.3066-24.707C64.3066-26.123 63.6719-27.5391 62.6465-28.5645L51.9043-39.3066L47.168-43.2617L50.9277-42.6758L55.3711-42.6758C58.3984-42.6758 60.3516-44.3359 60.3516-47.0703C60.3516-49.8047 58.3496-51.4648 55.2734-51.4648L38.4277-51.4648C34.4727-51.4648 32.1289-49.2188 32.1289-45.2637L32.1289-28.418C32.1289-25.4395 33.7891-23.4375 36.5234-23.4375Z"/>
  </g>
  <g id="Bold-S" transform="matrix(1 0 0 1 2292.44 696)">
   <path d="M47.5586 5.46875C69.873 5.46875 88.2324-12.8906 88.2324-35.2539C88.2324-57.5684 69.873-75.9277 47.5098-75.9277C25.1953-75.9277 6.83594-57.5684 6.83594-35.2539C6.83594-12.8906 25.1953 5.46875 47.5586 5.46875ZM47.5586-5.32227C30.957-5.32227 17.6758-18.6523 17.6758-35.2539C17.6758-51.8066 30.957-65.1367 47.5098-65.1367C64.1113-65.1367 77.4414-51.8066 77.4414-35.2539C77.4414-18.6523 64.1113-5.32227 47.5586-5.32227ZM35.791-24.1699C38.2812-24.1699 39.7949-25.9277 39.7949-28.6621L39.7949-33.252L39.209-37.793L43.8477-32.5195L55.127-21.2891C56.1523-20.2637 57.2754-19.7754 58.6426-19.7754C61.1816-19.7754 63.1836-21.582 63.1836-24.3164C63.1836-25.5371 62.6465-26.7578 61.7676-27.6367L50.3906-39.0137L45.0684-43.7012L49.5117-43.0176L54.3457-43.0176C57.0312-43.0176 58.7891-44.5801 58.7891-47.0215C58.7891-49.4629 57.0312-51.0254 54.2969-51.0254L37.207-51.0254C33.8379-51.0254 31.8359-49.1699 31.8359-45.7031L31.8359-28.6621C31.8359-25.9766 33.3496-24.1699 35.791-24.1699Z"/>
  </g>
  <g id="Semibold-S" transform="matrix(1 0 0 1 1996.2 696)">
   <path d="M47.0703 4.98047C69.0918 4.98047 87.3047-13.1836 87.3047-35.2539C87.3047-57.2754 69.0918-75.4883 47.0215-75.4883C25-75.4883 6.83594-57.2754 6.83594-35.2539C6.83594-13.1836 25.0488 4.98047 47.0703 4.98047ZM47.0703-4.58984C30.0781-4.58984 16.4551-18.2129 16.4551-35.2539C16.4551-52.2461 30.0293-65.8691 47.0215-65.8691C64.0625-65.8691 77.6855-52.2461 77.7344-35.2539C77.7344-18.2129 64.0625-4.58984 47.0703-4.58984ZM35.3027-24.707C37.5977-24.707 39.0137-26.3184 39.0137-28.8086L39.0137-33.7402L38.3789-38.6719L43.5059-33.0078L55.2734-21.2891C56.1523-20.4102 57.1289-20.0195 58.3496-20.0195C60.6934-20.0195 62.4512-21.6309 62.4512-24.0723C62.4512-25.1465 61.9141-26.2207 61.1328-27.002L49.3164-38.8184L43.6035-43.9941L48.4863-43.2617L53.6133-43.2617C56.0547-43.2617 57.7148-44.7266 57.7148-46.9727C57.7148-49.2188 56.1035-50.6836 53.6133-50.6836L36.377-50.6836C33.3984-50.6836 31.5918-49.1699 31.5918-45.9961L31.5918-28.8086C31.5918-26.3672 33.0566-24.707 35.3027-24.707Z"/>
  </g>
  <g id="Medium-S" transform="matrix(1 0 0 1 1699.83 696)">
   <path d="M46.7285 4.63867C68.5547 4.63867 86.6211-13.4277 86.6211-35.2539C86.6211-57.0801 68.5059-75.1465 46.6797-75.1465C24.8535-75.1465 6.83594-57.0801 6.83594-35.2539C6.83594-13.4277 24.9023 4.63867 46.7285 4.63867ZM46.7285-4.00391C29.3945-4.00391 15.5273-17.9199 15.5273-35.2539C15.5273-52.5879 29.3457-66.4551 46.6797-66.4551C64.0137-66.4551 77.8809-52.5879 77.9297-35.2539C77.9785-17.9199 64.0625-4.00391 46.7285-4.00391ZM34.9609-25.0977C37.0605-25.0977 38.4277-26.5625 38.4277-28.9062L38.4277-34.082L37.7441-39.3555L43.2129-33.3984L55.3223-21.2891C56.1035-20.5566 57.0312-20.166 58.1543-20.166C60.3027-20.166 61.8652-21.6309 61.8652-23.877C61.8652-24.8535 61.377-25.8301 60.6934-26.5137L48.5352-38.6719L42.4805-44.1895L47.7539-43.457L53.0762-43.457C55.3711-43.457 56.8848-44.8242 56.8848-46.9727C56.8848-49.0723 55.3711-50.4395 53.125-50.4395L35.7422-50.4395C33.1055-50.4395 31.4453-49.1211 31.4453-46.1914L31.4453-28.9551C31.4453-26.709 32.8125-25.0977 34.9609-25.0977Z"/>
  </g>
  <g id="Regular-S" transform="matrix(1 0 0 1 1403.58 696)">
   <path d="M46.2402 4.15039C67.7734 4.15039 85.6934-13.7207 85.6934-35.2539C85.6934-56.7871 67.7246-74.6582 46.1914-74.6582C24.707-74.6582 6.83594-56.7871 6.83594-35.2539C6.83594-13.7207 24.7559 4.15039 46.2402 4.15039ZM46.2402-3.27148C28.5156-3.27148 14.3555-17.4805 14.3555-35.2539C14.3555-53.0273 28.4668-67.2363 46.1914-67.2363C63.9648-67.2363 78.1738-53.0273 78.2227-35.2539C78.2715-17.4805 64.0137-3.27148 46.2402-3.27148ZM34.4727-25.6348C36.377-25.6348 37.6465-26.9531 37.6465-29.0039L37.6465-34.5215L36.9629-40.2832L42.8711-33.9355L55.4688-21.3379C56.1035-20.7031 56.8848-20.3613 57.9102-20.3613C59.8633-20.3613 61.1328-21.6309 61.1328-23.584C61.1328-24.4629 60.6934-25.293 60.0586-25.8789L47.5098-38.4766L41.0645-44.4824L46.7773-43.7012L52.3438-43.7012C54.4434-43.7012 55.8105-44.9707 55.8105-46.9238C55.8105-48.8281 54.4922-50.0977 52.4414-50.0977L34.9121-50.0977C32.666-50.0977 31.25-49.1211 31.25-46.4844L31.25-29.1016C31.25-27.0996 32.5195-25.6348 34.4727-25.6348Z"/>
  </g>
  <g id="Light-S" transform="matrix(1 0 0 1 1107.6 696)">
   <path d="M45.5078 3.41797C66.6992 3.41797 84.2285-14.0625 84.2285-35.2539C84.2285-56.4453 66.6504-73.9258 45.5078-73.9258C24.3164-73.9258 6.83594-56.4453 6.83594-35.2539C6.83594-14.0625 24.3652 3.41797 45.5078 3.41797ZM45.5078-2.29492C27.2461-2.29492 12.5977-16.9922 12.5977-35.2539C12.5977-53.5156 27.1973-68.2129 45.5078-68.2129C63.7695-68.2129 78.4668-53.5156 78.5156-35.2539C78.5156-16.9922 63.8184-2.29492 45.5078-2.29492ZM33.252-25.8789C34.7168-25.8789 35.7422-26.9043 35.7422-28.5156L35.7422-36.0352L35.2539-42.1875L40.4297-36.6699L55.7617-21.3379C56.25-20.8496 56.8359-20.5566 57.666-20.5566C59.1797-20.5566 60.1562-21.5332 60.1562-23.0957C60.1562-23.7793 59.8633-24.4141 59.375-24.9023L43.9941-40.2344L38.4766-45.459L44.043-44.9707L52.1484-44.9707C53.7598-44.9707 54.834-45.9473 54.834-47.4609C54.834-48.9258 53.8086-49.9023 52.2461-49.9023L33.5449-49.9023C31.8359-49.9023 30.7617-49.1211 30.7617-47.1191L30.7617-28.5645C30.7617-27.002 31.7383-25.8789 33.252-25.8789Z"/>
  </g>
  <g id="Thin-S" transform="matrix(1 0 0 1 811.867 696)">
   <path d="M44.5801 2.49023C65.2832 2.49023 82.2754-14.5508 82.2754-35.2539C82.2754-55.957 65.2344-72.998 44.5312-72.998C23.8281-72.998 6.83594-55.957 6.83594-35.2539C6.83594-14.5508 23.877 2.49023 44.5801 2.49023ZM44.5801-0.927734C25.5859-0.927734 10.2539-16.3086 10.2539-35.2539C10.2539-54.1992 25.5859-69.5801 44.5312-69.5801C63.5254-69.5801 78.8574-54.1992 78.8574-35.2539C78.8574-16.3086 63.5254-0.927734 44.5801-0.927734ZM31.6406-26.1719C32.5684-26.1719 33.2031-26.8066 33.2031-27.832L33.2031-37.9883L33.0078-44.6777L37.1582-40.2832L56.1035-21.3379C56.3965-21.0449 56.8359-20.8008 57.373-20.8008C58.3008-20.8008 58.9355-21.4355 58.9355-22.4121C58.9355-22.9004 58.7402-23.291 58.3984-23.584L39.4043-42.5781L35.0098-46.7773L40.4297-46.582L51.9043-46.582C52.9297-46.582 53.5645-47.2168 53.5645-48.1445C53.5645-49.0234 52.9297-49.6582 51.9531-49.6582L31.7383-49.6582C30.7617-49.6582 30.127-49.0723 30.127-47.9492L30.127-27.832C30.127-26.8555 30.7129-26.1719 31.6406-26.1719Z"/>
  </g>
  <g id="Ultralight-S" transform="matrix(1 0 0 1 515.644 696)">
   <path d="M44.043 1.95312C64.502 1.95312 81.2988-14.7949 81.2988-35.2539C81.2988-55.7129 64.502-72.4609 44.043-72.4609C23.584-72.4609 6.83594-55.7129 6.83594-35.2539C6.83594-14.7949 23.584 1.95312 44.043 1.95312ZM44.043-0.244141C24.7559-0.244141 9.08203-15.9668 9.08203-35.2539C9.08203-54.541 24.7559-70.2637 44.043-70.2637C63.3789-70.2637 79.0527-54.541 79.0527-35.2539C79.0527-15.9668 63.3789-0.244141 44.043-0.244141ZM30.8105-26.3184C31.4453-26.3184 31.8848-26.7578 31.8848-27.4902L31.8848-39.0137L31.8359-45.9473L35.498-42.1387L56.2988-21.3379C56.543-21.1426 56.7871-20.9473 57.2266-20.9473C57.8613-20.9473 58.3008-21.3867 58.3008-22.0703C58.3008-22.4121 58.1543-22.7051 57.9102-22.9004L37.0605-43.75L33.252-47.4609L38.5742-47.4121L51.8066-47.4121C52.4902-47.4121 52.9297-47.8516 52.9297-48.4863C52.9297-49.1211 52.4902-49.5117 51.8066-49.5117L30.8105-49.5117C30.2246-49.5117 29.7852-49.0723 29.7852-48.3887L29.7852-27.4902C29.7852-26.7578 30.1758-26.3184 30.8105-26.3184Z"/>
  </g>
 </g>
</svg>
