<?xml version="1.0" encoding="UTF-8"?>
<!--Generator: Apple Native CoreSVG 129-->
<!DOCTYPE svg
PUBLIC "-//W3C//DTD SVG 1.1//EN"
       "http://www.w3.org/Graphics/SVG/1.1/DTD/svg11.dtd">
<svg version="1.1" xmlns="http://www.w3.org/2000/svg" xmlns:xlink="http://www.w3.org/1999/xlink" width="3300" height="2200">
 <!--glyph: "uni1002A6.medium", point size: 100.000000, font version: "Version 16.0d9e1", template writer version: "8"-->
 <g id="Notes">
  <rect height="2200" id="artboard" style="fill:white;opacity:1" width="3300" x="0" y="0"/>
  <line id="" style="fill:none;stroke:black;opacity:1;stroke-width:0.5;" x1="263" x2="3036" y1="292" y2="292"/>
  <text style="stroke:none;fill:black;font-family:-apple-system,&quot;SF Pro Display&quot;,&quot;SF Pro Text&quot;,Helvetica,sans-serif;font-weight:bold;" transform="matrix(1 0 0 1 263 322)">Weight/Scale Variations</text>
  <text style="stroke:none;fill:black;font-family:-apple-system,&quot;SF Pro Display&quot;,&quot;SF Pro Text&quot;,Helvetica,sans-serif;text-anchor:middle;" transform="matrix(1 0 0 1 559.711 322)">Ultralight</text>
  <text style="stroke:none;fill:black;font-family:-apple-system,&quot;SF Pro Display&quot;,&quot;SF Pro Text&quot;,Helvetica,sans-serif;text-anchor:middle;" transform="matrix(1 0 0 1 856.422 322)">Thin</text>
  <text style="stroke:none;fill:black;font-family:-apple-system,&quot;SF Pro Display&quot;,&quot;SF Pro Text&quot;,Helvetica,sans-serif;text-anchor:middle;" transform="matrix(1 0 0 1 1153.13 322)">Light</text>
  <text style="stroke:none;fill:black;font-family:-apple-system,&quot;SF Pro Display&quot;,&quot;SF Pro Text&quot;,Helvetica,sans-serif;text-anchor:middle;" transform="matrix(1 0 0 1 1449.84 322)">Regular</text>
  <text style="stroke:none;fill:black;font-family:-apple-system,&quot;SF Pro Display&quot;,&quot;SF Pro Text&quot;,Helvetica,sans-serif;text-anchor:middle;" transform="matrix(1 0 0 1 1746.56 322)">Medium</text>
  <text style="stroke:none;fill:black;font-family:-apple-system,&quot;SF Pro Display&quot;,&quot;SF Pro Text&quot;,Helvetica,sans-serif;text-anchor:middle;" transform="matrix(1 0 0 1 2043.27 322)">Semibold</text>
  <text style="stroke:none;fill:black;font-family:-apple-system,&quot;SF Pro Display&quot;,&quot;SF Pro Text&quot;,Helvetica,sans-serif;text-anchor:middle;" transform="matrix(1 0 0 1 2339.98 322)">Bold</text>
  <text style="stroke:none;fill:black;font-family:-apple-system,&quot;SF Pro Display&quot;,&quot;SF Pro Text&quot;,Helvetica,sans-serif;text-anchor:middle;" transform="matrix(1 0 0 1 2636.69 322)">Heavy</text>
  <text style="stroke:none;fill:black;font-family:-apple-system,&quot;SF Pro Display&quot;,&quot;SF Pro Text&quot;,Helvetica,sans-serif;text-anchor:middle;" transform="matrix(1 0 0 1 2933.4 322)">Black</text>
  <line id="" style="fill:none;stroke:black;opacity:1;stroke-width:0.5;" x1="263" x2="3036" y1="1903" y2="1903"/>
  <g id="" transform="matrix(1 0 0 1 263 1933)">
   <path d="M 9.24805 0.830078 C 13.5547 0.830078 17.1387 -2.74414 17.1387 -7.05078 C 17.1387 -11.3574 13.5449 -14.9316 9.23828 -14.9316 C 4.94141 -14.9316 1.36719 -11.3574 1.36719 -7.05078 C 1.36719 -2.74414 4.95117 0.830078 9.24805 0.830078 Z M 9.24805 -0.654297 C 5.70312 -0.654297 2.87109 -3.49609 2.87109 -7.05078 C 2.87109 -10.6055 5.69336 -13.4473 9.23828 -13.4473 C 12.793 -13.4473 15.6348 -10.6055 15.6445 -7.05078 C 15.6543 -3.49609 12.8027 -0.654297 9.24805 -0.654297 Z M 9.22852 -3.62305 C 9.69727 -3.62305 9.9707 -3.93555 9.9707 -4.45312 L 9.9707 -6.31836 L 12.002 -6.31836 C 12.5 -6.31836 12.832 -6.57227 12.832 -7.04102 C 12.832 -7.51953 12.5195 -7.7832 12.002 -7.7832 L 9.9707 -7.7832 L 9.9707 -9.81445 C 9.9707 -10.332 9.69727 -10.6543 9.22852 -10.6543 C 8.75977 -10.6543 8.50586 -10.3125 8.50586 -9.81445 L 8.50586 -7.7832 L 6.49414 -7.7832 C 5.97656 -7.7832 5.64453 -7.51953 5.64453 -7.04102 C 5.64453 -6.57227 5.99609 -6.31836 6.49414 -6.31836 L 8.50586 -6.31836 L 8.50586 -4.45312 C 8.50586 -3.95508 8.75977 -3.62305 9.22852 -3.62305 Z"/>
  </g>
  <g id="" transform="matrix(1 0 0 1 281.506 1933)">
   <path d="M 11.709 2.91016 C 17.1582 2.91016 21.6699 -1.61133 21.6699 -7.05078 C 21.6699 -12.5 17.1484 -17.0117 11.6992 -17.0117 C 6.25977 -17.0117 1.74805 -12.5 1.74805 -7.05078 C 1.74805 -1.61133 6.26953 2.91016 11.709 2.91016 Z M 11.709 1.25 C 7.09961 1.25 3.41797 -2.44141 3.41797 -7.05078 C 3.41797 -11.6602 7.08984 -15.3516 11.6992 -15.3516 C 16.3086 -15.3516 20 -11.6602 20.0098 -7.05078 C 20.0195 -2.44141 16.3184 1.25 11.709 1.25 Z M 11.6797 -2.66602 C 12.207 -2.66602 12.5098 -3.01758 12.5098 -3.59375 L 12.5098 -6.23047 L 15.3223 -6.23047 C 15.8691 -6.23047 16.25 -6.51367 16.25 -7.03125 C 16.25 -7.55859 15.8887 -7.86133 15.3223 -7.86133 L 12.5098 -7.86133 L 12.5098 -10.6836 C 12.5098 -11.25 12.207 -11.6113 11.6797 -11.6113 C 11.1621 -11.6113 10.8789 -11.2305 10.8789 -10.6836 L 10.8789 -7.86133 L 8.07617 -7.86133 C 7.50977 -7.86133 7.13867 -7.55859 7.13867 -7.03125 C 7.13867 -6.51367 7.5293 -6.23047 8.07617 -6.23047 L 10.8789 -6.23047 L 10.8789 -3.59375 C 10.8789 -3.03711 11.1621 -2.66602 11.6797 -2.66602 Z"/>
  </g>
  <g id="" transform="matrix(1 0 0 1 304.924 1933)">
   <path d="M 14.9707 5.66406 C 21.9336 5.66406 27.6953 -0.0976562 27.6953 -7.05078 C 27.6953 -14.0137 21.9238 -19.7754 14.9609 -19.7754 C 8.00781 -19.7754 2.25586 -14.0137 2.25586 -7.05078 C 2.25586 -0.0976562 8.01758 5.66406 14.9707 5.66406 Z M 14.9707 3.84766 C 8.93555 3.84766 4.08203 -1.01562 4.08203 -7.05078 C 4.08203 -13.0957 8.92578 -17.9492 14.9609 -17.9492 C 21.0059 -17.9492 25.8594 -13.0957 25.8691 -7.05078 C 25.8789 -1.01562 21.0156 3.84766 14.9707 3.84766 Z M 14.9414 -1.38672 C 15.5176 -1.38672 15.8594 -1.77734 15.8594 -2.38281 L 15.8594 -6.13281 L 19.7754 -6.13281 C 20.3711 -6.13281 20.7812 -6.46484 20.7812 -7.02148 C 20.7812 -7.59766 20.3906 -7.93945 19.7754 -7.93945 L 15.8594 -7.93945 L 15.8594 -11.8652 C 15.8594 -12.4805 15.5176 -12.8711 14.9414 -12.8711 C 14.375 -12.8711 14.0527 -12.4609 14.0527 -11.8652 L 14.0527 -7.93945 L 10.1465 -7.93945 C 9.53125 -7.93945 9.13086 -7.59766 9.13086 -7.02148 C 9.13086 -6.46484 9.55078 -6.13281 10.1465 -6.13281 L 14.0527 -6.13281 L 14.0527 -2.38281 C 14.0527 -1.79688 14.375 -1.38672 14.9414 -1.38672 Z"/>
  </g>
  <text style="stroke:none;fill:black;font-family:-apple-system,&quot;SF Pro Display&quot;,&quot;SF Pro Text&quot;,Helvetica,sans-serif;font-weight:bold;" transform="matrix(1 0 0 1 263 1953)">Design Variations</text>
  <text style="stroke:none;fill:black;font-family:-apple-system,&quot;SF Pro Display&quot;,&quot;SF Pro Text&quot;,Helvetica,sans-serif;" transform="matrix(1 0 0 1 263 1971)">Symbols are supported in up to nine weights and three scales.</text>
  <text style="stroke:none;fill:black;font-family:-apple-system,&quot;SF Pro Display&quot;,&quot;SF Pro Text&quot;,Helvetica,sans-serif;" transform="matrix(1 0 0 1 263 1989)">For optimal layout with text and other symbols, vertically align</text>
  <text style="stroke:none;fill:black;font-family:-apple-system,&quot;SF Pro Display&quot;,&quot;SF Pro Text&quot;,Helvetica,sans-serif;" transform="matrix(1 0 0 1 263 2007)">symbols with the adjacent text.</text>
  <line id="" style="fill:none;stroke:#00AEEF;stroke-width:0.5;opacity:1.0;" x1="776" x2="776" y1="1919" y2="1933"/>
  <g id="" transform="matrix(1 0 0 1 776 1933)">
   <path d="M 3.31055 0.126953 C 3.82812 0.126953 4.08203 -0.0683594 4.26758 -0.605469 L 5.52734 -4.0625 L 11.2891 -4.0625 L 12.5488 -0.605469 C 12.7344 -0.0683594 12.9883 0.126953 13.4961 0.126953 C 14.0137 0.126953 14.3457 -0.185547 14.3457 -0.673828 C 14.3457 -0.839844 14.3164 -0.986328 14.2383 -1.20117 L 9.6582 -13.3887 C 9.43359 -13.9941 9.0332 -14.2871 8.4082 -14.2871 C 7.80273 -14.2871 7.39258 -13.9941 7.17773 -13.3984 L 2.59766 -1.19141 C 2.51953 -0.976562 2.49023 -0.830078 2.49023 -0.664062 C 2.49023 -0.175781 2.80273 0.126953 3.31055 0.126953 Z M 6.00586 -5.53711 L 8.37891 -12.1094 L 8.42773 -12.1094 L 10.8008 -5.53711 Z"/>
  </g>
  <line id="" style="fill:none;stroke:#00AEEF;stroke-width:0.5;opacity:1.0;" x1="792.836" x2="792.836" y1="1919" y2="1933"/>
  <text style="stroke:none;fill:black;font-family:-apple-system,&quot;SF Pro Display&quot;,&quot;SF Pro Text&quot;,Helvetica,sans-serif;font-weight:bold;" transform="matrix(1 0 0 1 776 1953)">Margins</text>
  <text style="stroke:none;fill:black;font-family:-apple-system,&quot;SF Pro Display&quot;,&quot;SF Pro Text&quot;,Helvetica,sans-serif;" transform="matrix(1 0 0 1 776 1971)">Leading and trailing margins on the left and right side of each symbol</text>
  <text style="stroke:none;fill:black;font-family:-apple-system,&quot;SF Pro Display&quot;,&quot;SF Pro Text&quot;,Helvetica,sans-serif;" transform="matrix(1 0 0 1 776 1989)">can be adjusted by modifying the x-location of the margin guidelines.</text>
  <text style="stroke:none;fill:black;font-family:-apple-system,&quot;SF Pro Display&quot;,&quot;SF Pro Text&quot;,Helvetica,sans-serif;" transform="matrix(1 0 0 1 776 2007)">Modifications are automatically applied proportionally to all</text>
  <text style="stroke:none;fill:black;font-family:-apple-system,&quot;SF Pro Display&quot;,&quot;SF Pro Text&quot;,Helvetica,sans-serif;" transform="matrix(1 0 0 1 776 2025)">scales and weights.</text>
  <g id="" transform="matrix(1 0 0 1 1289 1933)">
   <path d="M 2.8418 1.86523 L 4.54102 3.57422 C 5.40039 4.44336 6.38672 4.38477 7.31445 3.35938 L 17.4902 -7.85156 C 17.7539 -7.76367 18.0273 -7.7832 18.3398 -7.8418 L 19.4043 -8.03711 L 20.0684 -7.36328 L 20.0293 -6.80664 C 19.9902 -6.30859 20.1172 -5.92773 20.6055 -5.44922 L 21.3672 -4.70703 C 21.8457 -4.22852 22.4609 -4.19922 22.9297 -4.66797 L 25.8398 -7.58789 C 26.3086 -8.05664 26.2891 -8.65234 25.8105 -9.13086 L 25.0391 -9.89258 C 24.5605 -10.3711 24.1895 -10.5273 23.7109 -10.4883 L 23.1348 -10.4395 L 22.4902 -11.0742 L 22.7344 -12.1973 C 22.8613 -12.7637 22.7051 -13.2031 22.1191 -13.7891 L 19.9219 -15.9766 C 16.582 -19.2969 12.1484 -19.2188 9.25781 -16.3281 C 8.83789 -15.918 8.80859 -15.3418 9.04297 -14.9512 C 9.27734 -14.5898 9.73633 -14.3555 10.3809 -14.5215 C 11.8457 -14.8633 13.3691 -14.9219 14.7949 -13.9844 L 14.209 -12.5293 C 14.0137 -12.0508 13.9844 -11.6504 14.1113 -11.2891 L 3.04688 -0.898438 C 2.06055 0.0195312 1.98242 0.996094 2.8418 1.86523 Z M 10.752 -15.957 C 13.1836 -17.7344 16.4746 -17.4316 18.7012 -15.2051 L 21.1328 -12.793 C 21.3672 -12.5586 21.4062 -12.373 21.3379 -12.0312 L 21.0156 -10.5469 L 22.5195 -9.0625 L 23.5059 -9.12109 C 23.7598 -9.13086 23.8379 -9.11133 24.0332 -8.91602 L 24.6094 -8.33984 L 22.168 -5.89844 L 21.5918 -6.47461 C 21.3965 -6.66992 21.3672 -6.74805 21.377 -7.01172 L 21.4453 -7.98828 L 19.9512 -9.47266 L 18.4277 -9.21875 C 18.1055 -9.15039 17.959 -9.17969 17.7148 -9.41406 L 15.7129 -11.416 C 15.459 -11.6504 15.4297 -11.8164 15.5859 -12.1875 L 16.4648 -14.2773 C 14.9023 -15.7324 12.8711 -16.3574 10.8398 -15.7617 C 10.6836 -15.7227 10.625 -15.8496 10.752 -15.957 Z M 5.27344 2.30469 L 4.10156 1.14258 C 3.63281 0.683594 3.74023 0.341797 4.14062 -0.0195312 L 14.9512 -10.1953 L 16.416 -8.71094 L 6.42578 2.27539 C 6.07422 2.67578 5.74219 2.77344 5.27344 2.30469 Z"/>
  </g>
  <text style="stroke:none;fill:black;font-family:-apple-system,&quot;SF Pro Display&quot;,&quot;SF Pro Text&quot;,Helvetica,sans-serif;font-weight:bold;" transform="matrix(1 0 0 1 1289 1953)">Exporting</text>
  <text style="stroke:none;fill:black;font-family:-apple-system,&quot;SF Pro Display&quot;,&quot;SF Pro Text&quot;,Helvetica,sans-serif;" transform="matrix(1 0 0 1 1289 1971)">Symbols should be outlined when exporting to ensure the</text>
  <text style="stroke:none;fill:black;font-family:-apple-system,&quot;SF Pro Display&quot;,&quot;SF Pro Text&quot;,Helvetica,sans-serif;" transform="matrix(1 0 0 1 1289 1989)">design is preserved when submitting to Xcode.</text>
  <text id="template-version" style="stroke:none;fill:black;font-family:-apple-system,&quot;SF Pro Display&quot;,&quot;SF Pro Text&quot;,Helvetica,sans-serif;text-anchor:end;" transform="matrix(1 0 0 1 3036 1933)">Template v.2.0</text>
  <text style="stroke:none;fill:black;font-family:-apple-system,&quot;SF Pro Display&quot;,&quot;SF Pro Text&quot;,Helvetica,sans-serif;text-anchor:end;" transform="matrix(1 0 0 1 3036 1951)">Requires Xcode 12 or greater</text>
  <text style="stroke:none;fill:black;font-family:-apple-system,&quot;SF Pro Display&quot;,&quot;SF Pro Text&quot;,Helvetica,sans-serif;text-anchor:end;" transform="matrix(1 0 0 1 3036 1969)">Generated from speaker.wave.2</text>
  <text style="stroke:none;fill:black;font-family:-apple-system,&quot;SF Pro Display&quot;,&quot;SF Pro Text&quot;,Helvetica,sans-serif;text-anchor:end;" transform="matrix(1 0 0 1 3036 1987)">Typeset at 100 points</text>
  <text style="stroke:none;fill:black;font-family:-apple-system,&quot;SF Pro Display&quot;,&quot;SF Pro Text&quot;,Helvetica,sans-serif;" transform="matrix(1 0 0 1 263 726)">Small</text>
  <text style="stroke:none;fill:black;font-family:-apple-system,&quot;SF Pro Display&quot;,&quot;SF Pro Text&quot;,Helvetica,sans-serif;" transform="matrix(1 0 0 1 263 1156)">Medium</text>
  <text style="stroke:none;fill:black;font-family:-apple-system,&quot;SF Pro Display&quot;,&quot;SF Pro Text&quot;,Helvetica,sans-serif;" transform="matrix(1 0 0 1 263 1586)">Large</text>
 </g>
 <g id="Guides">
  <g id="H-reference" style="fill:#27AAE1;stroke:none;" transform="matrix(1 0 0 1 339 696)">
   <path d="M 0.976562 0 L 3.66211 0 L 12.9883 -24.4629 L 45.7031 -24.4629 L 55.0781 0 L 57.7148 0 L 30.6152 -70.459 L 28.125 -70.459 Z M 29.2969 -67.1387 L 29.3945 -67.1387 L 44.873 -26.709 L 13.8672 -26.709 Z"/>
  </g>
  <line id="Baseline-S" style="fill:none;stroke:#27AAE1;opacity:1;stroke-width:0.5;" x1="263" x2="3036" y1="696" y2="696"/>
  <line id="Capline-S" style="fill:none;stroke:#27AAE1;opacity:1;stroke-width:0.5;" x1="263" x2="3036" y1="625.541" y2="625.541"/>
  <g id="H-reference" style="fill:#27AAE1;stroke:none;" transform="matrix(1 0 0 1 339 1126)">
   <path d="M 0.976562 0 L 3.66211 0 L 12.9883 -24.4629 L 45.7031 -24.4629 L 55.0781 0 L 57.7148 0 L 30.6152 -70.459 L 28.125 -70.459 Z M 29.2969 -67.1387 L 29.3945 -67.1387 L 44.873 -26.709 L 13.8672 -26.709 Z"/>
  </g>
  <line id="Baseline-M" style="fill:none;stroke:#27AAE1;opacity:1;stroke-width:0.5;" x1="263" x2="3036" y1="1126" y2="1126"/>
  <line id="Capline-M" style="fill:none;stroke:#27AAE1;opacity:1;stroke-width:0.5;" x1="263" x2="3036" y1="1055.54" y2="1055.54"/>
  <g id="H-reference" style="fill:#27AAE1;stroke:none;" transform="matrix(1 0 0 1 339 1556)">
   <path d="M 0.976562 0 L 3.66211 0 L 12.9883 -24.4629 L 45.7031 -24.4629 L 55.0781 0 L 57.7148 0 L 30.6152 -70.459 L 28.125 -70.459 Z M 29.2969 -67.1387 L 29.3945 -67.1387 L 44.873 -26.709 L 13.8672 -26.709 Z"/>
  </g>
  <line id="Baseline-L" style="fill:none;stroke:#27AAE1;opacity:1;stroke-width:0.5;" x1="263" x2="3036" y1="1556" y2="1556"/>
  <line id="Capline-L" style="fill:none;stroke:#27AAE1;opacity:1;stroke-width:0.5;" x1="263" x2="3036" y1="1485.54" y2="1485.54"/>
  <line id="left-margin" style="fill:none;stroke:#00AEEF;stroke-width:0.5;opacity:1.0;" x1="1378.26" x2="1378.26" y1="1030.79" y2="1150.12"/>
  <line id="right-margin" style="fill:none;stroke:#00AEEF;stroke-width:0.5;opacity:1.0;" x1="1521.43" x2="1521.43" y1="1030.79" y2="1150.12"/>
 </g>
 <g id="Symbols">
  <g id="Black-L" transform="matrix(1 0 0 1 2826.44 1556)">
   <path d="M 40.1855 -2.97852 L 58.0078 -2.97852 C 58.3984 -2.97852 58.6914 -2.92969 59.0332 -2.58789 L 85.1074 20.7031 C 89.502 24.6094 92.8711 26.416 97.3633 26.416 C 104.297 26.416 109.619 21.1426 109.619 14.209 L 109.619 -84.4727 C 109.619 -91.3574 104.297 -96.7773 97.3145 -96.7773 C 93.0664 -96.7773 89.6973 -95.0684 85.1074 -90.918 L 59.0332 -67.8223 C 58.6426 -67.5293 58.3984 -67.4316 58.0078 -67.4316 L 40.1855 -67.4316 C 28.0273 -67.4316 21.4355 -60.5469 21.4355 -47.8516 L 21.4355 -22.5586 C 21.4355 -9.81445 28.0273 -2.97852 40.1855 -2.97852 Z M 164.746 16.6992 C 169.58 19.4824 175.439 18.2617 178.467 13.5742 C 187.451 -0.341797 192.48 -17.334 192.48 -35.2539 C 192.48 -53.2227 187.5 -70.2148 178.467 -84.082 C 175.391 -88.8184 169.58 -89.9902 164.746 -87.2559 C 159.326 -84.1797 158.74 -77.6855 162.305 -71.6797 C 168.652 -61.3281 172.266 -48.584 172.266 -35.2539 C 172.266 -21.9727 168.604 -9.22852 162.305 1.17188 C 158.74 7.12891 159.326 13.623 164.746 16.6992 Z M 132.08 -2.19727 C 136.768 0.634766 142.432 -0.439453 145.264 -4.49219 C 151.367 -12.9883 154.834 -23.8281 154.834 -35.2539 C 154.834 -46.7285 151.367 -57.5195 145.264 -66.0645 C 142.432 -70.0684 136.768 -71.1426 132.08 -68.3594 C 127.051 -65.2832 125.879 -59.3262 130.029 -52.2461 C 132.959 -47.4609 134.619 -41.4551 134.619 -35.2539 C 134.619 -29.1016 132.959 -23.0957 130.029 -18.2617 C 125.879 -11.1816 127.051 -5.27344 132.08 -2.19727 Z M 43.5059 -21.582 C 42.2852 -21.582 41.4551 -22.4121 41.4551 -23.6816 L 41.4551 -46.7285 C 41.4551 -47.9492 42.2852 -48.7793 43.5059 -48.7793 L 62.4023 -48.7793 C 64.4531 -48.7793 65.8203 -49.2188 67.334 -50.6348 L 87.7441 -69.2871 C 87.9883 -69.5312 88.2812 -69.6289 88.623 -69.6289 C 89.1602 -69.6289 89.5996 -69.2383 89.5996 -68.6035 L 89.5996 -1.75781 C 89.5996 -1.07422 89.1602 -0.634766 88.623 -0.634766 C 88.2812 -0.634766 87.9883 -0.78125 87.7441 -1.02539 L 67.334 -19.7266 C 65.8203 -21.1426 64.4531 -21.582 62.4023 -21.582 Z"/>
  </g>
  <g id="Heavy-L" transform="matrix(1 0 0 1 2533.59 1556)">
   <path d="M 37.8906 -4.49219 L 56.0059 -4.49219 C 56.4941 -4.49219 56.8359 -4.39453 57.2266 -4.05273 L 84.2285 20.0684 C 88.2324 23.6328 91.3574 25.293 95.459 25.293 C 101.66 25.293 106.348 20.6055 106.348 14.4531 L 106.348 -84.668 C 106.348 -90.8203 101.66 -95.7031 95.4102 -95.7031 C 91.4551 -95.7031 88.4766 -94.0918 84.2285 -90.2832 L 57.2266 -66.3086 C 56.7871 -65.9668 56.4941 -65.8203 56.0059 -65.8203 L 37.8906 -65.8203 C 26.6602 -65.8203 20.6543 -59.6191 20.6543 -47.8516 L 20.6543 -22.4609 C 20.6543 -10.6934 26.6602 -4.49219 37.8906 -4.49219 Z M 159.766 14.8926 C 163.965 17.334 169.043 16.2598 171.68 12.1582 C 180.518 -1.07422 185.547 -17.7734 185.547 -35.2539 C 185.547 -52.7832 180.566 -69.4824 171.68 -82.7148 C 168.994 -86.8164 163.965 -87.8418 159.766 -85.4004 C 155.127 -82.7148 154.59 -77.1484 157.764 -72.0215 C 164.307 -61.7188 168.066 -48.7793 168.066 -35.2539 C 168.066 -21.7773 164.258 -8.83789 157.764 1.51367 C 154.639 6.5918 155.127 12.207 159.766 14.8926 Z M 40.4785 -20.6543 C 38.916 -20.6543 37.9883 -21.582 37.9883 -23.1445 L 37.9883 -47.168 C 37.9883 -48.7793 38.916 -49.6582 40.4785 -49.6582 L 59.8633 -49.6582 C 61.8164 -49.6582 63.1836 -50.0977 64.7461 -51.5137 L 87.0605 -71.9238 C 87.3535 -72.168 87.6953 -72.3145 88.0371 -72.3145 C 88.5742 -72.3145 89.0137 -71.9238 89.0137 -71.2891 L 89.0137 0.927734 C 89.0137 1.5625 88.5742 2.00195 88.0371 2.00195 C 87.6953 2.00195 87.3535 1.85547 87.0605 1.5625 L 64.7461 -18.8477 C 63.1836 -20.2148 61.8164 -20.6543 59.8633 -20.6543 Z M 128.906 -3.56445 C 132.91 -1.12305 137.842 -2.05078 140.43 -5.61523 C 146.24 -13.623 149.609 -24.1211 149.609 -35.2539 C 149.609 -46.3867 146.24 -56.8848 140.43 -64.9414 C 137.842 -68.5059 132.91 -69.4336 128.906 -66.9922 C 124.561 -64.2578 123.535 -59.082 127.148 -53.125 C 130.371 -48.1445 132.08 -41.8457 132.08 -35.2539 C 132.08 -28.6621 130.322 -22.4121 127.148 -17.4316 C 123.584 -11.4258 124.561 -6.29883 128.906 -3.56445 Z"/>
  </g>
  <g id="Bold-L" transform="matrix(1 0 0 1 2241.17 1556)">
   <path d="M 35.3027 -6.20117 L 53.8086 -6.20117 C 54.3457 -6.20117 54.7852 -6.05469 55.1758 -5.71289 L 83.3008 19.3848 C 86.8164 22.5586 89.6484 24.1211 93.2617 24.1211 C 98.6816 24.1211 102.686 20.0195 102.686 14.6484 L 102.686 -84.8633 C 102.686 -90.2344 98.6816 -94.5312 93.2129 -94.5312 C 89.6484 -94.5312 87.0605 -92.9688 83.3008 -89.5996 L 55.1758 -64.5996 C 54.7852 -64.209 54.3457 -64.0625 53.8086 -64.0625 L 35.3027 -64.0625 C 25.1465 -64.0625 19.8242 -58.5938 19.8242 -47.9004 L 19.8242 -22.3145 C 19.8242 -11.6699 25.1465 -6.20117 35.3027 -6.20117 Z M 154.199 12.8418 C 157.666 14.8926 161.865 14.0625 164.16 10.6445 C 172.754 -1.9043 177.783 -18.2617 177.783 -35.2539 C 177.783 -52.2949 172.803 -68.7012 164.16 -81.1523 C 161.865 -84.5703 157.666 -85.4492 154.199 -83.3496 C 150.488 -81.1035 150 -76.5625 152.637 -72.4121 C 159.473 -62.1582 163.33 -48.9746 163.33 -35.2539 C 163.33 -21.5332 159.375 -8.44727 152.637 1.85547 C 150.049 6.00586 150.488 10.5957 154.199 12.8418 Z M 37.1094 -19.5801 C 35.1562 -19.5801 34.1309 -20.6055 34.1309 -22.5586 L 34.1309 -47.6562 C 34.1309 -49.6582 35.1562 -50.6348 37.1094 -50.6348 L 57.0312 -50.6348 C 58.9355 -50.6348 60.2539 -51.0254 61.7676 -52.4414 L 86.3281 -74.8535 C 86.6699 -75.1465 87.0117 -75.293 87.4023 -75.293 C 87.9883 -75.293 88.3789 -74.9512 88.3789 -74.3164 L 88.3789 3.90625 C 88.3789 4.54102 87.9883 4.98047 87.4023 4.98047 C 87.0605 4.98047 86.7188 4.78516 86.377 4.44336 L 61.7676 -17.8223 C 60.2539 -19.2383 58.9355 -19.5801 57.0312 -19.5801 Z M 125.391 -5.07812 C 128.662 -3.02734 132.764 -3.80859 135.01 -6.83594 C 140.479 -14.3555 143.75 -24.5117 143.75 -35.2539 C 143.75 -46.0449 140.479 -56.1523 135.01 -63.6719 C 132.764 -66.748 128.662 -67.4805 125.391 -65.4297 C 121.729 -63.0859 120.947 -58.7891 123.926 -54.1016 C 127.441 -48.9258 129.297 -42.2852 129.297 -35.2539 C 129.297 -28.2227 127.393 -21.6797 123.926 -16.4551 C 120.996 -11.7188 121.729 -7.42188 125.391 -5.07812 Z"/>
  </g>
  <g id="Semibold-L" transform="matrix(1 0 0 1 1947.44 1556)">
   <path d="M 33.5449 -7.37305 L 52.2461 -7.37305 C 52.832 -7.37305 53.3691 -7.22656 53.8086 -6.83594 L 82.6172 18.9453 C 85.8398 21.8262 88.4277 23.2422 91.7969 23.2422 C 96.6309 23.2422 100.195 19.6289 100.195 14.7949 L 100.195 -85.0098 C 100.195 -89.7949 96.6309 -93.7012 91.6992 -93.7012 C 88.4277 -93.7012 86.084 -92.1875 82.6172 -89.1113 L 53.8086 -63.4277 C 53.3691 -62.9883 52.832 -62.8418 52.2461 -62.8418 L 33.5449 -62.8418 C 24.0723 -62.8418 19.2383 -57.8613 19.2383 -47.9492 L 19.2383 -22.2656 C 19.2383 -12.3535 24.0723 -7.37305 33.5449 -7.37305 Z M 150.391 11.4258 C 153.32 13.2324 156.934 12.5 158.936 9.57031 C 167.383 -2.49023 172.412 -18.6035 172.412 -35.2539 C 172.412 -51.9043 167.48 -68.1152 158.936 -80.127 C 156.885 -83.0566 153.32 -83.7891 150.391 -81.9336 C 147.266 -79.9805 146.826 -76.1719 149.121 -72.6562 C 156.104 -62.4512 160.107 -49.1211 160.107 -35.2539 C 160.107 -21.4355 156.006 -8.1543 149.121 2.14844 C 146.875 5.61523 147.266 9.47266 150.391 11.4258 Z M 34.8145 -18.8477 C 32.5684 -18.8477 31.4941 -19.9707 31.4941 -22.168 L 31.4941 -48.0469 C 31.4941 -50.2441 32.5684 -51.3184 34.8145 -51.3184 L 55.0781 -51.3184 C 56.9336 -51.3184 58.2031 -51.6602 59.7656 -53.125 L 85.8398 -76.8555 C 86.1816 -77.1484 86.5234 -77.3926 86.9629 -77.3926 C 87.5488 -77.3926 87.9395 -77.002 87.9395 -76.416 L 87.9395 5.95703 C 87.9395 6.5918 87.5488 6.98242 87.0117 6.98242 C 86.6211 6.98242 86.2793 6.83594 85.8887 6.44531 L 59.7656 -17.1387 C 58.252 -18.5059 56.9336 -18.8477 55.0781 -18.8477 Z M 122.949 -6.15234 C 125.732 -4.39453 129.248 -4.98047 131.25 -7.71484 C 136.523 -14.8926 139.746 -24.7559 139.746 -35.2539 C 139.746 -45.8008 136.523 -55.6152 131.25 -62.8418 C 129.248 -65.5273 125.732 -66.1621 122.949 -64.4043 C 119.824 -62.3047 119.189 -58.5938 121.68 -54.7363 C 125.439 -49.4141 127.393 -42.627 127.393 -35.2539 C 127.393 -27.9297 125.391 -21.1426 121.68 -15.7715 C 119.238 -11.9141 119.824 -8.20312 122.949 -6.15234 Z"/>
  </g>
  <g id="Medium-L" transform="matrix(1 0 0 1 1652.98 1556)">
   <path d="M 32.1777 -8.30078 L 51.0742 -8.30078 C 51.7578 -8.30078 52.2949 -8.10547 52.7344 -7.66602 L 82.1289 18.6035 C 85.1074 21.2891 87.5488 22.6074 90.6738 22.6074 C 95.1172 22.6074 98.291 19.3359 98.291 14.9414 L 98.291 -85.1074 C 98.291 -89.502 95.1172 -93.0664 90.5762 -93.0664 C 87.5 -93.0664 85.3516 -91.6504 82.1289 -88.7695 L 52.7344 -62.5 C 52.2949 -62.1094 51.7578 -61.9141 51.0742 -61.9141 L 32.1777 -61.9141 C 23.2422 -61.9141 18.7988 -57.3242 18.7988 -47.9492 L 18.7988 -22.2168 C 18.7988 -12.8418 23.2422 -8.30078 32.1777 -8.30078 Z M 147.461 10.3027 C 150.049 11.9629 153.223 11.3281 154.98 8.74023 C 163.33 -2.92969 168.359 -18.8965 168.359 -35.2539 C 168.359 -51.6602 163.428 -67.6758 154.98 -79.2969 C 153.174 -81.8848 150.049 -82.5195 147.461 -80.8594 C 144.824 -79.1504 144.434 -75.8301 146.436 -72.8516 C 153.564 -62.6465 157.617 -49.2188 157.617 -35.2539 C 157.617 -21.2891 153.467 -7.91016 146.436 2.34375 C 144.482 5.32227 144.824 8.59375 147.461 10.3027 Z M 33.0566 -18.3105 C 30.6152 -18.3105 29.4922 -19.4336 29.4922 -21.875 L 29.4922 -48.291 C 29.4922 -50.7324 30.6152 -51.8555 33.0566 -51.8555 L 53.5645 -51.8555 C 55.4199 -51.8555 56.6895 -52.1484 58.2031 -53.6133 L 85.4492 -78.3691 C 85.791 -78.7109 86.1816 -78.9551 86.6211 -78.9551 C 87.207 -78.9551 87.5977 -78.5645 87.5977 -77.9785 L 87.5977 7.51953 C 87.5977 8.1543 87.207 8.54492 86.6699 8.54492 C 86.2793 8.54492 85.9375 8.34961 85.498 7.95898 L 58.2031 -16.6016 C 56.6895 -17.9688 55.4199 -18.3105 53.5645 -18.3105 Z M 121.094 -6.98242 C 123.486 -5.37109 126.611 -5.9082 128.418 -8.34961 C 133.545 -15.2344 136.67 -24.9512 136.67 -35.2539 C 136.67 -45.6055 133.545 -55.2246 128.418 -62.1582 C 126.611 -64.6484 123.486 -65.1367 121.094 -63.5742 C 118.359 -61.7188 117.822 -58.4473 120.02 -55.2734 C 123.877 -49.8047 125.928 -42.8711 125.928 -35.2539 C 125.928 -27.6855 123.877 -20.752 120.02 -15.2832 C 117.871 -12.0605 118.359 -8.83789 121.094 -6.98242 Z"/>
  </g>
  <g id="Regular-L" transform="matrix(1 0 0 1 1359.2 1556)">
   <path d="M 30.4199 -9.42383 L 49.5605 -9.42383 C 50.293 -9.42383 50.8789 -9.22852 51.3672 -8.78906 L 81.4453 18.1152 C 84.1309 20.5566 86.377 21.7773 89.209 21.7773 C 93.1152 21.7773 95.8008 18.9453 95.8008 15.0879 L 95.8008 -85.2051 C 95.8008 -89.0625 93.1152 -92.2363 89.1113 -92.2363 C 86.2793 -92.2363 84.375 -90.8691 81.4453 -88.2812 L 51.3672 -61.3281 C 50.8789 -60.8887 50.293 -60.6934 49.5605 -60.6934 L 30.4199 -60.6934 C 22.2168 -60.6934 18.2129 -56.6406 18.2129 -47.998 L 18.2129 -22.1191 C 18.2129 -13.5254 22.2168 -9.42383 30.4199 -9.42383 Z M 30.7617 -17.627 C 28.0762 -17.627 26.8555 -18.7988 26.8555 -21.4844 L 26.8555 -48.6328 C 26.8555 -51.3184 28.0762 -52.5391 30.7617 -52.5391 L 51.6113 -52.5391 C 53.418 -52.5391 54.6875 -52.832 56.2012 -54.248 L 84.9609 -80.3711 C 85.3516 -80.7129 85.7422 -81.0059 86.1816 -81.0059 C 86.7676 -81.0059 87.1582 -80.6152 87.1582 -80.0293 L 87.1582 9.57031 C 87.1582 10.1562 86.8164 10.5957 86.2305 10.5957 C 85.8398 10.5957 85.4492 10.4004 85.0098 9.96094 L 56.2012 -15.918 C 54.6875 -17.2852 53.418 -17.627 51.6113 -17.627 Z M 143.652 8.93555 C 145.752 10.3027 148.34 9.81445 149.854 7.71484 C 158.057 -3.51562 163.086 -19.2383 163.086 -35.2539 C 163.086 -51.3184 158.154 -67.1387 149.854 -78.2715 C 148.291 -80.3711 145.752 -80.8594 143.652 -79.4434 C 141.65 -78.0762 141.309 -75.4395 142.92 -73.1445 C 150.244 -62.9395 154.395 -49.3652 154.395 -35.2539 C 154.395 -21.1426 150.146 -7.61719 142.92 2.58789 C 141.357 4.88281 141.65 7.51953 143.652 8.93555 Z M 118.701 -8.00781 C 120.557 -6.68945 123.145 -7.12891 124.707 -9.22852 C 129.639 -15.7715 132.666 -25.1953 132.666 -35.2539 C 132.666 -45.3613 129.639 -54.7363 124.707 -61.3281 C 123.145 -63.4277 120.557 -63.8184 118.701 -62.5488 C 116.406 -60.9375 116.064 -58.252 117.822 -55.9082 C 121.924 -50.3418 124.023 -43.1641 124.023 -35.2539 C 124.023 -27.3926 121.875 -20.2637 117.822 -14.5996 C 116.113 -12.2559 116.406 -9.61914 118.701 -8.00781 Z"/>
  </g>
  <g id="Light-L" transform="matrix(1 0 0 1 1064.88 1556)">
   <path d="M 27.7344 -10.5957 L 47.4609 -10.5957 C 48.3398 -10.5957 49.0234 -10.3516 49.5605 -9.81445 L 80.3711 17.627 C 82.4707 19.5801 84.4238 20.7031 86.8652 20.7031 C 90.2344 20.7031 92.4316 18.2129 92.4316 14.8926 L 92.4316 -85.2051 C 92.4316 -88.5254 90.2344 -91.2109 86.7676 -91.2109 C 84.375 -91.2109 82.6172 -89.9902 80.3711 -87.9395 L 49.5605 -60.1562 C 49.0234 -59.668 48.3398 -59.375 47.4609 -59.375 L 27.7344 -59.375 C 20.5566 -59.375 17.0898 -55.9082 17.0898 -48.4375 L 17.0898 -21.5332 C 17.0898 -14.1113 20.5566 -10.5957 27.7344 -10.5957 Z M 27.9297 -16.8945 C 24.9512 -16.8945 23.7305 -18.1152 23.7305 -21.1426 L 23.7305 -48.8281 C 23.7305 -51.8555 24.9512 -53.0762 27.9297 -53.0762 L 48.7305 -53.0762 C 50.6348 -53.0762 51.9043 -53.3691 53.4668 -54.834 L 83.3496 -82.0801 C 83.7891 -82.4707 84.1797 -82.8125 84.7656 -82.8125 C 85.4004 -82.8125 85.8398 -82.4219 85.8398 -81.7871 L 85.8398 11.1816 C 85.8398 11.8652 85.4492 12.3535 84.8145 12.3535 C 84.375 12.3535 83.9844 12.1582 83.3984 11.6211 L 53.4668 -15.2344 C 51.9531 -16.6016 50.6348 -16.8945 48.7305 -16.8945 Z M 141.406 8.25195 C 143.018 9.375 144.971 8.98438 146.094 7.37305 C 154.297 -3.51562 159.424 -19.2383 159.424 -35.2539 C 159.424 -51.3184 154.346 -67.0898 146.094 -77.9297 C 144.922 -79.541 143.018 -79.8828 141.406 -78.8086 C 139.844 -77.7344 139.6 -75.7812 140.869 -73.9746 C 148.486 -63.5742 152.783 -49.8047 152.783 -35.2539 C 152.783 -20.752 148.438 -7.03125 140.869 3.41797 C 139.648 5.22461 139.844 7.17773 141.406 8.25195 Z M 116.602 -8.59375 C 118.115 -7.56836 120.02 -7.86133 121.24 -9.47266 C 126.123 -15.8691 129.297 -25 129.297 -35.2539 C 129.297 -45.5078 126.123 -54.6387 121.24 -61.084 C 120.02 -62.6953 118.115 -62.9883 116.602 -61.9629 C 114.941 -60.7422 114.648 -58.6914 115.967 -56.9336 C 120.459 -50.7812 122.705 -43.7012 122.705 -35.2539 C 122.705 -26.8555 120.459 -19.7754 115.967 -13.623 C 114.697 -11.8164 114.941 -9.76562 116.602 -8.59375 Z"/>
  </g>
  <g id="Thin-L" transform="matrix(1 0 0 1 771.315 1556)">
   <path d="M 24.2188 -12.1094 L 44.6777 -12.1094 C 45.752 -12.1094 46.5332 -11.8164 47.2168 -11.1816 L 78.9062 16.9922 C 80.2734 18.3105 81.8359 19.2871 83.7402 19.2871 C 86.5234 19.2871 87.9883 17.2363 87.9883 14.6484 L 87.9883 -85.1562 C 87.9883 -87.7441 86.5234 -89.8438 83.7402 -89.8438 C 81.8359 -89.8438 80.3223 -88.8184 78.9062 -87.5 L 47.2168 -58.5938 C 46.5332 -58.0078 45.752 -57.666 44.6777 -57.666 L 24.2188 -57.666 C 18.3594 -57.666 15.625 -54.9316 15.625 -49.0234 L 15.625 -20.752 C 15.625 -14.8926 18.3594 -12.1094 24.2188 -12.1094 Z M 24.2188 -15.9668 C 20.8008 -15.9668 19.5312 -17.2363 19.5312 -20.6543 L 19.5312 -49.1211 C 19.5312 -52.5391 20.8008 -53.8086 24.2188 -53.8086 L 44.873 -53.8086 C 46.9238 -53.8086 48.1934 -54.0527 49.8047 -55.5664 L 81.1523 -84.2773 C 81.6895 -84.7656 82.1777 -85.2051 82.8613 -85.2051 C 83.5938 -85.2051 84.0332 -84.7656 84.0332 -84.0332 L 84.0332 13.3789 C 84.0332 14.1602 83.6426 14.6973 82.959 14.6973 C 82.4707 14.6973 82.0312 14.4531 81.25 13.7695 L 49.8047 -14.3066 C 48.291 -15.6738 46.9238 -15.9668 44.873 -15.9668 Z M 138.428 7.42188 C 139.404 8.10547 140.479 7.86133 141.162 6.98242 C 149.316 -3.51562 154.59 -19.2383 154.59 -35.2539 C 154.59 -51.2695 149.316 -67.041 141.162 -77.5391 C 140.479 -78.418 139.404 -78.6133 138.428 -77.9785 C 137.451 -77.2949 137.354 -76.1719 138.086 -75.0977 C 146.191 -64.3555 150.635 -50.3418 150.635 -35.2539 C 150.635 -20.2148 146.191 -6.20117 138.086 4.54102 C 137.354 5.61523 137.451 6.73828 138.428 7.42188 Z M 113.916 -9.32617 C 114.844 -8.69141 115.967 -8.88672 116.65 -9.76562 C 121.484 -16.0156 124.902 -24.8047 124.902 -35.2539 C 124.902 -45.752 121.484 -54.541 116.65 -60.7422 C 115.967 -61.6699 114.844 -61.8652 113.916 -61.1816 C 112.988 -60.498 112.793 -59.3262 113.574 -58.252 C 118.555 -51.3672 120.947 -44.4336 120.947 -35.2539 C 120.947 -26.123 118.555 -19.1895 113.574 -12.3047 C 112.793 -11.2305 112.988 -10.0098 113.916 -9.32617 Z"/>
  </g>
  <g id="Ultralight-L" transform="matrix(1 0 0 1 476.239 1556)">
   <path d="M 22.3633 -12.8906 L 43.2617 -12.8906 C 44.4336 -12.8906 45.2637 -12.5488 45.9961 -11.8652 L 78.125 16.6992 C 79.1504 17.6758 80.5176 18.6035 82.1777 18.6035 C 84.5703 18.6035 85.6934 16.748 85.6934 14.5508 L 85.6934 -85.1074 C 85.6934 -87.3535 84.5703 -89.1113 82.1777 -89.1113 C 80.5176 -89.1113 79.1504 -88.2324 78.125 -87.2559 L 45.9961 -57.8125 C 45.2637 -57.1289 44.4336 -56.7871 43.2617 -56.7871 L 22.3633 -56.7871 C 17.2363 -56.7871 14.8438 -54.3945 14.8438 -49.3164 L 14.8438 -20.3613 C 14.8438 -15.2832 17.2363 -12.8906 22.3633 -12.8906 Z M 22.3633 -15.4785 C 18.7012 -15.4785 17.3828 -16.7969 17.3828 -20.459 L 17.3828 -49.2676 C 17.3828 -52.8809 18.7012 -54.1992 22.3633 -54.1992 L 42.9199 -54.1992 C 45.0195 -54.1992 46.3379 -54.4434 47.9492 -55.957 L 80.0781 -85.4492 C 80.6641 -85.9375 81.1523 -86.4258 81.8848 -86.4258 C 82.666 -86.4258 83.1543 -85.9375 83.1543 -85.2051 L 83.1543 14.502 C 83.1543 15.332 82.7148 15.918 81.9824 15.918 C 81.4941 15.918 81.0059 15.625 80.127 14.8926 L 47.9492 -13.8184 C 46.3867 -15.1855 45.0195 -15.4785 42.9199 -15.4785 Z M 136.865 6.98242 C 137.5 7.42188 138.184 7.32422 138.672 6.78711 C 146.777 -3.51562 152.1 -19.2871 152.1 -35.2539 C 152.1 -51.2695 146.729 -67.041 138.672 -77.2949 C 138.232 -77.8809 137.5 -77.9785 136.865 -77.5391 C 136.23 -77.0508 136.182 -76.3672 136.719 -75.6836 C 145.02 -64.7461 149.561 -50.5859 149.561 -35.2539 C 149.561 -19.9219 145.02 -5.81055 136.719 5.12695 C 136.182 5.85938 136.23 6.54297 136.865 6.98242 Z M 112.5 -9.7168 C 113.184 -9.22852 113.867 -9.375 114.307 -9.91211 C 119.092 -16.0645 122.607 -24.6582 122.607 -35.2539 C 122.607 -45.8496 119.092 -54.4434 114.307 -60.5957 C 113.867 -61.1816 113.184 -61.2793 112.5 -60.8398 C 111.963 -60.4004 111.816 -59.6191 112.354 -58.9355 C 117.627 -51.6602 120.068 -44.7754 120.068 -35.2539 C 120.068 -25.7812 117.627 -18.8965 112.354 -11.6211 C 111.816 -10.9375 111.963 -10.1562 112.5 -9.7168 Z"/>
  </g>
  <g id="Black-M" transform="matrix(1 0 0 1 2846.58 1126)">
   <path d="M 32.8613 -8.78906 L 46.5332 -8.78906 C 46.7773 -8.78906 46.9727 -8.78906 47.2168 -8.54492 L 66.5527 8.64258 C 70.166 11.9141 72.998 13.4277 76.8066 13.4277 C 82.8613 13.4277 87.5 8.78906 87.5 2.73438 L 87.5 -73.1445 C 87.5 -79.1504 82.8613 -83.8379 76.8066 -83.8379 C 73.2422 -83.8379 70.3125 -82.4707 66.5527 -79.0527 L 47.2168 -61.9141 C 46.9238 -61.6699 46.7773 -61.6211 46.5332 -61.6211 L 32.8613 -61.6211 C 22.7051 -61.6211 17.041 -55.7129 17.041 -45.166 L 17.041 -25.1953 C 17.041 -14.6973 22.7051 -8.78906 32.8613 -8.78906 Z M 133.203 7.17773 C 137.549 9.57031 142.773 8.49609 145.41 4.24805 C 152.588 -7.17773 156.592 -20.752 156.592 -35.2539 C 156.592 -49.7559 152.588 -63.3301 145.41 -74.8047 C 142.773 -79.0039 137.549 -80.0781 133.203 -77.6855 C 128.125 -74.9023 127.637 -68.9941 130.859 -63.4766 C 135.645 -55.2734 138.33 -45.5566 138.33 -35.2539 C 138.33 -25 135.645 -15.2832 130.859 -7.03125 C 127.637 -1.51367 128.125 4.39453 133.203 7.17773 Z M 105.518 -8.10547 C 109.814 -5.56641 114.844 -6.5918 117.285 -10.0098 C 122.363 -17.1875 125.244 -25.8789 125.244 -35.2539 C 125.244 -44.6289 122.363 -53.3203 117.285 -60.498 C 114.844 -63.9648 109.814 -64.9414 105.518 -62.4512 C 101.025 -59.8145 99.9023 -54.4922 103.711 -47.8027 C 105.811 -44.043 106.982 -39.7949 106.982 -35.2539 C 106.982 -30.7129 105.811 -26.4648 103.711 -22.7051 C 99.9023 -16.0156 101.025 -10.7422 105.518 -8.10547 Z M 36.2793 -25.5371 C 35.6445 -25.5371 35.0586 -26.123 35.0586 -26.7578 L 35.0586 -43.6523 C 35.0586 -44.2871 35.6445 -44.8242 36.2793 -44.8242 L 50.2441 -44.8242 C 51.9531 -44.8242 53.0762 -45.2148 54.248 -46.3379 L 67.9688 -58.9844 C 68.1641 -59.1797 68.4082 -59.2285 68.6523 -59.2285 C 69.0918 -59.2285 69.4824 -58.9355 69.4824 -58.3496 L 69.4824 -11.9629 C 69.4824 -11.4258 69.0918 -11.0352 68.6523 -11.0352 C 68.4082 -11.0352 68.1641 -11.1816 67.9688 -11.377 L 54.248 -24.0723 C 53.0762 -25.1953 51.9531 -25.5371 50.2441 -25.5371 Z"/>
  </g>
  <g id="Heavy-M" transform="matrix(1 0 0 1 2553.46 1126)">
   <path d="M 31.0059 -10.1562 L 44.9219 -10.1562 C 45.2148 -10.1562 45.459 -10.1074 45.7031 -9.86328 L 65.8691 8.10547 C 69.2383 11.1328 71.8262 12.5 75.3418 12.5 C 80.7129 12.5 84.8633 8.39844 84.8633 2.97852 L 84.8633 -73.3398 C 84.8633 -78.7109 80.7129 -82.9102 75.293 -82.9102 C 72.0215 -82.9102 69.3848 -81.5918 65.8691 -78.4668 L 45.7031 -60.5469 C 45.4102 -60.3027 45.2148 -60.2051 44.9219 -60.2051 L 31.0059 -60.2051 C 21.6309 -60.2051 16.5039 -54.8828 16.5039 -45.1172 L 16.5039 -25.2441 C 16.5039 -15.4785 21.6309 -10.1562 31.0059 -10.1562 Z M 128.32 5.32227 C 132.129 7.4707 136.67 6.54297 139.014 2.83203 C 145.996 -8.00781 149.951 -21.2402 149.951 -35.2539 C 149.951 -49.2676 145.996 -62.5488 139.014 -73.3398 C 136.67 -77.0508 132.129 -77.9785 128.32 -75.8301 C 124.023 -73.4375 123.584 -68.3105 126.367 -63.623 C 131.348 -55.5176 134.131 -45.6543 134.131 -35.2539 C 134.131 -24.9023 131.299 -14.9902 126.367 -6.88477 C 123.584 -2.19727 124.023 2.92969 128.32 5.32227 Z M 102.588 -9.42383 C 106.299 -7.22656 110.693 -8.10547 112.891 -11.1816 C 117.676 -17.8711 120.41 -26.2695 120.41 -35.2539 C 120.41 -44.2383 117.676 -52.6367 112.891 -59.3262 C 110.693 -62.4512 106.299 -63.2812 102.588 -61.084 C 98.6816 -58.7402 97.7539 -54.1016 101.025 -48.4863 C 103.32 -44.6777 104.59 -40.0879 104.59 -35.2539 C 104.59 -30.4199 103.32 -25.8789 101.025 -22.0215 C 97.7539 -16.4062 98.6816 -11.8164 102.588 -9.42383 Z M 33.7402 -24.707 C 32.7637 -24.707 32.1289 -25.3418 32.1289 -26.3184 L 32.1289 -44.0918 C 32.1289 -45.0195 32.7637 -45.6543 33.7402 -45.6543 L 48.2422 -45.6543 C 49.8535 -45.6543 50.9277 -45.9961 52.0996 -47.1191 L 67.7246 -61.4258 C 67.9199 -61.6211 68.1641 -61.6699 68.4082 -61.6699 C 68.8477 -61.6699 69.1895 -61.377 69.1895 -60.8398 L 69.1895 -9.52148 C 69.1895 -8.98438 68.8477 -8.59375 68.4082 -8.59375 C 68.1641 -8.59375 67.9199 -8.74023 67.7246 -8.93555 L 52.0996 -23.2422 C 50.9277 -24.3652 49.8535 -24.707 48.2422 -24.707 Z"/>
  </g>
  <g id="Bold-M" transform="matrix(1 0 0 1 2260.78 1126)">
   <path d="M 28.9551 -11.6699 L 43.0664 -11.6699 C 43.4082 -11.6699 43.75 -11.6211 44.043 -11.3281 L 65.1367 7.51953 C 68.1641 10.2051 70.5078 11.5234 73.6328 11.5234 C 78.3203 11.5234 81.8359 7.95898 81.8359 3.32031 L 81.8359 -73.584 C 81.8359 -78.2227 78.3203 -81.9336 73.584 -81.9336 C 70.6055 -81.9336 68.3594 -80.6641 65.1367 -77.7832 L 44.043 -59.0332 C 43.7012 -58.7402 43.4082 -58.6426 43.0664 -58.6426 L 28.9551 -58.6426 C 20.4102 -58.6426 15.918 -53.9551 15.918 -45.0195 L 15.918 -25.293 C 15.918 -16.3574 20.4102 -11.6699 28.9551 -11.6699 Z M 122.9 3.27148 C 126.025 5.07812 129.834 4.29688 131.836 1.26953 C 138.623 -8.93555 142.529 -21.7773 142.529 -35.2539 C 142.529 -48.7305 138.672 -61.6699 131.836 -71.7773 C 129.785 -74.8535 126.025 -75.6348 122.9 -73.7793 C 119.482 -71.7773 119.043 -67.5781 121.387 -63.8184 C 126.514 -55.8105 129.443 -45.752 129.443 -35.2539 C 129.443 -24.7559 126.465 -14.7461 121.387 -6.73828 C 119.092 -2.92969 119.482 1.2207 122.9 3.27148 Z M 30.8594 -23.7793 C 29.5898 -23.7793 28.8574 -24.4629 28.8574 -25.7812 L 28.8574 -44.5801 C 28.8574 -45.8496 29.5898 -46.582 30.8594 -46.582 L 45.9473 -46.582 C 47.4609 -46.582 48.4863 -46.875 49.707 -47.998 L 67.3828 -64.1113 C 67.5781 -64.3555 67.8711 -64.4531 68.1641 -64.4531 C 68.5547 -64.4531 68.8965 -64.1602 68.8965 -63.6719 L 68.8965 -6.73828 C 68.8965 -6.25 68.5547 -5.9082 68.1641 -5.9082 C 67.8711 -5.9082 67.627 -6.00586 67.3828 -6.25 L 49.707 -22.3633 C 48.5352 -23.4375 47.4609 -23.7793 45.9473 -23.7793 Z M 99.3164 -10.9375 C 102.344 -9.08203 106.006 -9.81445 107.959 -12.5 C 112.402 -18.6035 114.99 -26.709 114.99 -35.2539 C 114.99 -43.7988 112.402 -51.8555 107.959 -58.0566 C 106.006 -60.7422 102.344 -61.4258 99.3164 -59.5703 C 96.0449 -57.5195 95.3125 -53.6621 97.998 -49.2676 C 100.537 -45.3613 101.904 -40.4297 101.904 -35.2539 C 101.904 -30.0781 100.537 -25.1953 97.998 -21.2891 C 95.3613 -16.8457 96.0449 -12.9883 99.3164 -10.9375 Z"/>
  </g>
  <g id="Semibold-M" transform="matrix(1 0 0 1 1966.83 1126)">
   <path d="M 27.5391 -12.7441 L 41.7969 -12.7441 C 42.1875 -12.7441 42.5781 -12.6465 42.8711 -12.3535 L 64.6484 7.12891 C 67.4316 9.61914 69.6289 10.791 72.4609 10.791 C 76.6602 10.791 79.7852 7.66602 79.7852 3.51562 L 79.7852 -73.7305 C 79.7852 -77.8809 76.6602 -81.2012 72.4121 -81.2012 C 69.6289 -81.2012 67.627 -79.9805 64.6484 -77.3438 L 42.8711 -58.0078 C 42.5293 -57.7148 42.1875 -57.5684 41.7969 -57.5684 L 27.5391 -57.5684 C 19.5801 -57.5684 15.4785 -53.3203 15.4785 -44.9707 L 15.4785 -25.3418 C 15.4785 -16.9922 19.5801 -12.7441 27.5391 -12.7441 Z M 119.189 1.85547 C 121.826 3.4668 125.098 2.7832 126.855 0.146484 C 133.496 -9.57031 137.402 -22.168 137.402 -35.2539 C 137.402 -48.3887 133.594 -61.0352 126.855 -70.6543 C 125.049 -73.3398 121.826 -73.9746 119.189 -72.3633 C 116.309 -70.6055 115.918 -67.0898 117.969 -63.916 C 123.242 -56.0059 126.221 -45.8496 126.221 -35.2539 C 126.221 -24.707 123.145 -14.5508 117.969 -6.5918 C 115.967 -3.41797 116.309 0.0976562 119.189 1.85547 Z M 28.8574 -23.0957 C 27.3438 -23.0957 26.5625 -23.877 26.5625 -25.3906 L 26.5625 -44.9219 C 26.5625 -46.4355 27.3438 -47.2168 28.8574 -47.2168 L 44.3848 -47.2168 C 45.8496 -47.2168 46.8262 -47.5098 48.0469 -48.584 L 67.1875 -66.0156 C 67.3828 -66.2109 67.6758 -66.3574 67.9688 -66.3574 C 68.3594 -66.3574 68.7012 -66.0645 68.7012 -65.625 L 68.7012 -4.78516 C 68.7012 -4.3457 68.3594 -4.00391 67.9688 -4.00391 C 67.6758 -4.00391 67.4316 -4.15039 67.1875 -4.39453 L 48.0469 -21.7285 C 46.875 -22.8027 45.8496 -23.0957 44.3848 -23.0957 Z M 97.0703 -11.9629 C 99.6094 -10.4004 102.783 -10.9375 104.541 -13.3789 C 108.789 -19.1406 111.279 -27.002 111.279 -35.2539 C 111.279 -43.5059 108.789 -51.3184 104.541 -57.1289 C 102.783 -59.5703 99.6094 -60.1562 97.0703 -58.5449 C 94.2383 -56.6895 93.6523 -53.3203 95.9473 -49.7559 C 98.6328 -45.8496 100.098 -40.6738 100.098 -35.2539 C 100.098 -29.834 98.584 -24.707 95.9473 -20.752 C 93.7012 -17.1387 94.2383 -13.8184 97.0703 -11.9629 Z"/>
  </g>
  <g id="Medium-M" transform="matrix(1 0 0 1 1672.21 1126)">
   <path d="M 26.4648 -13.5742 L 40.8203 -13.5742 C 41.2598 -13.5742 41.6504 -13.4277 41.9434 -13.1348 L 64.2578 6.78711 C 66.8945 9.13086 68.9453 10.2539 71.582 10.2539 C 75.3906 10.2539 78.2227 7.42188 78.2227 3.66211 L 78.2227 -73.8281 C 78.2227 -77.6367 75.3906 -80.6641 71.5332 -80.6641 C 68.8965 -80.6641 67.0898 -79.4922 64.2578 -77.002 L 41.9434 -57.1777 C 41.6504 -56.8848 41.2598 -56.7383 40.8203 -56.7383 L 26.4648 -56.7383 C 18.9941 -56.7383 15.1367 -52.8809 15.1367 -44.9219 L 15.1367 -25.3906 C 15.1367 -17.4316 18.9941 -13.5742 26.4648 -13.5742 Z M 116.309 0.78125 C 118.652 2.24609 121.533 1.66016 123.145 -0.683594 C 129.639 -10.0098 133.496 -22.4609 133.496 -35.2539 C 133.496 -48.0957 129.736 -60.5957 123.145 -69.8242 C 121.484 -72.168 118.652 -72.7539 116.309 -71.2891 C 113.916 -69.7266 113.574 -66.6992 115.332 -64.0137 C 120.703 -56.2012 123.779 -45.8984 123.779 -35.2539 C 123.779 -24.6094 120.654 -14.4043 115.332 -6.49414 C 113.623 -3.80859 113.916 -0.78125 116.309 0.78125 Z M 27.3926 -22.6074 C 25.6836 -22.6074 24.8535 -23.4375 24.8535 -25.1465 L 24.8535 -45.166 C 24.8535 -46.875 25.6836 -47.7051 27.3926 -47.7051 L 43.2129 -47.7051 C 44.6289 -47.7051 45.6055 -47.9492 46.7773 -49.0723 L 66.9922 -67.4316 C 67.2363 -67.627 67.4805 -67.8223 67.8223 -67.8223 C 68.2129 -67.8223 68.5059 -67.5293 68.5059 -67.0898 L 68.5059 -3.36914 C 68.5059 -2.88086 68.2129 -2.58789 67.8223 -2.58789 C 67.5293 -2.58789 67.2852 -2.73438 66.9922 -2.97852 L 46.7773 -21.2891 C 45.6055 -22.3633 44.6289 -22.6074 43.2129 -22.6074 Z M 95.3613 -12.793 C 97.5586 -11.377 100.391 -11.8652 101.953 -14.0625 C 106.006 -19.5312 108.398 -27.2461 108.398 -35.2539 C 108.398 -43.2617 106.006 -50.9277 101.953 -56.4941 C 100.391 -58.6914 97.5586 -59.1797 95.3613 -57.7637 C 92.8711 -56.0547 92.3828 -53.125 94.3848 -50.1953 C 97.168 -46.1914 98.6816 -40.8203 98.6816 -35.2539 C 98.6816 -29.6875 97.1191 -24.3652 94.3848 -20.3613 C 92.4316 -17.3828 92.8711 -14.4531 95.3613 -12.793 Z"/>
  </g>
  <g id="Regular-M" transform="matrix(1 0 0 1 1378.26 1126)">
   <path d="M 25.0977 -14.5996 L 39.5996 -14.5996 C 40.0879 -14.5996 40.4785 -14.4531 40.8203 -14.1602 L 63.7695 6.39648 C 66.1621 8.54492 68.0664 9.57031 70.459 9.57031 C 73.7793 9.57031 76.1719 7.12891 76.1719 3.85742 L 76.1719 -74.0234 C 76.1719 -77.2949 73.7793 -79.9805 70.3613 -79.9805 C 67.9688 -79.9805 66.4062 -78.8574 63.7695 -76.5137 L 40.8203 -56.1523 C 40.4785 -55.8594 40.0879 -55.7129 39.5996 -55.7129 L 25.0977 -55.7129 C 18.1641 -55.7129 14.7461 -52.2461 14.7461 -44.873 L 14.7461 -25.4395 C 14.7461 -18.0664 18.1641 -14.5996 25.0977 -14.5996 Z M 112.646 -0.634766 C 114.502 0.634766 116.846 0.146484 118.213 -1.75781 C 124.609 -10.6445 128.418 -22.8027 128.418 -35.2539 C 128.418 -47.7051 124.707 -59.9609 118.213 -68.75 C 116.797 -70.6543 114.502 -71.1426 112.646 -69.873 C 110.791 -68.6035 110.498 -66.2109 111.963 -64.1113 C 117.432 -56.3965 120.605 -45.9473 120.605 -35.2539 C 120.605 -24.5605 117.334 -14.209 111.963 -6.39648 C 110.547 -4.29688 110.791 -1.9043 112.646 -0.634766 Z M 25.4395 -21.9727 C 23.4863 -21.9727 22.6074 -22.8516 22.6074 -24.8047 L 22.6074 -45.5078 C 22.6074 -47.4121 23.4863 -48.3398 25.4395 -48.3398 L 41.6504 -48.3398 C 43.0176 -48.3398 43.9453 -48.5352 45.1172 -49.6582 L 66.7969 -69.2871 C 67.041 -69.4824 67.2852 -69.6777 67.627 -69.6777 C 68.0176 -69.6777 68.3105 -69.3848 68.3105 -68.9941 L 68.3105 -1.46484 C 68.3105 -1.02539 68.0664 -0.732422 67.627 -0.732422 C 67.334 -0.732422 67.0898 -0.878906 66.7969 -1.17188 L 45.1172 -20.6543 C 43.9453 -21.7285 43.0176 -21.9727 41.6504 -21.9727 Z M 93.1641 -13.8184 C 94.8242 -12.6465 97.168 -12.9883 98.584 -14.9414 C 102.441 -20.0684 104.736 -27.5391 104.736 -35.2539 C 104.736 -42.9688 102.441 -50.3906 98.584 -55.5664 C 97.168 -57.5195 94.8242 -57.8613 93.1641 -56.7383 C 91.0645 -55.2734 90.7715 -52.7832 92.334 -50.6836 C 95.3125 -46.6797 96.875 -41.0645 96.875 -35.2539 C 96.875 -29.4434 95.2637 -23.877 92.334 -19.8242 C 90.8203 -17.6758 91.0645 -15.2832 93.1641 -13.8184 Z"/>
  </g>
  <g id="Light-M" transform="matrix(1 0 0 1 1083.7 1126)">
   <path d="M 22.6562 -15.625 L 37.6953 -15.625 C 38.2812 -15.625 38.8184 -15.4297 39.209 -15.0879 L 62.7441 5.95703 C 64.6484 7.66602 66.3086 8.59375 68.3594 8.59375 C 71.1914 8.59375 73.1445 6.49414 73.1445 3.71094 L 73.1445 -73.9746 C 73.1445 -76.7578 71.1914 -79.0527 68.2617 -79.0527 C 66.2109 -79.0527 64.7949 -78.0762 62.7441 -76.2207 L 39.209 -55.0781 C 38.8184 -54.7363 38.2812 -54.541 37.6953 -54.541 L 22.6562 -54.541 C 16.6504 -54.541 13.7207 -51.5625 13.7207 -45.2637 L 13.7207 -24.9023 C 13.7207 -18.6035 16.6504 -15.625 22.6562 -15.625 Z M 22.9004 -21.3379 C 20.7031 -21.3379 19.7754 -22.2656 19.7754 -24.4629 L 19.7754 -45.7031 C 19.7754 -47.9004 20.7031 -48.8281 22.9004 -48.8281 L 39.0625 -48.8281 C 40.4785 -48.8281 41.4551 -49.0234 42.6758 -50.1465 L 65.2832 -70.8008 C 65.625 -71.0449 65.918 -71.2891 66.3086 -71.2891 C 66.7969 -71.2891 67.0898 -70.9961 67.0898 -70.5078 L 67.0898 0 C 67.0898 0.488281 66.7969 0.830078 66.3574 0.830078 C 66.0645 0.830078 65.7227 0.683594 65.332 0.341797 L 42.6758 -20.0195 C 41.4551 -21.0938 40.4785 -21.3379 39.0625 -21.3379 Z M 110.596 -1.2207 C 112.061 -0.244141 113.818 -0.585938 114.893 -2.05078 C 121.24 -10.6445 125.146 -22.8027 125.146 -35.2539 C 125.146 -47.7051 121.289 -59.9609 114.893 -68.457 C 113.818 -69.9219 112.061 -70.2637 110.596 -69.2871 C 109.18 -68.3105 108.936 -66.5039 110.059 -64.8926 C 115.869 -56.9336 119.141 -46.3379 119.141 -35.2539 C 119.141 -24.1699 115.771 -13.623 110.059 -5.66406 C 108.984 -4.00391 109.18 -2.19727 110.596 -1.2207 Z M 91.3086 -14.3066 C 92.627 -13.3789 94.3848 -13.6719 95.459 -15.1367 C 99.2676 -20.166 101.709 -27.3926 101.709 -35.2539 C 101.709 -43.1152 99.2676 -50.293 95.459 -55.3711 C 94.3848 -56.8359 92.627 -57.1289 91.3086 -56.2012 C 89.7461 -55.0781 89.4531 -53.2227 90.6738 -51.6113 C 93.9941 -47.0703 95.6543 -41.5527 95.6543 -35.2539 C 95.6543 -28.9551 93.9453 -23.4863 90.6738 -18.9453 C 89.502 -17.2852 89.7461 -15.4297 91.3086 -14.3066 Z"/>
  </g>
  <g id="Thin-M" transform="matrix(1 0 0 1 789.821 1126)">
   <path d="M 19.4824 -16.9922 L 35.2051 -16.9922 C 35.9863 -16.9922 36.5723 -16.748 37.0605 -16.3086 L 61.4258 5.37109 C 62.6953 6.54297 63.9648 7.32422 65.5273 7.32422 C 67.8223 7.32422 69.1406 5.66406 69.1406 3.4668 L 69.1406 -73.9258 C 69.1406 -76.0742 67.8223 -77.832 65.5273 -77.832 C 63.916 -77.832 62.7441 -77.002 61.4258 -75.8301 L 37.0605 -53.6621 C 36.5723 -53.2227 35.9863 -52.9785 35.2051 -52.9785 L 19.4824 -52.9785 C 14.6973 -52.9785 12.4023 -50.6836 12.4023 -45.8008 L 12.4023 -24.1699 C 12.4023 -19.2871 14.6973 -16.9922 19.4824 -16.9922 Z M 19.5801 -20.5078 C 16.9922 -20.5078 16.0156 -21.4844 16.0156 -24.0723 L 16.0156 -45.9473 C 16.0156 -48.4863 16.9922 -49.4629 19.5801 -49.4629 L 35.5957 -49.4629 C 37.1582 -49.4629 38.1348 -49.6582 39.3555 -50.8301 L 63.3301 -72.7539 C 63.7207 -73.0957 64.1113 -73.4375 64.5996 -73.4375 C 65.1367 -73.4375 65.4785 -73.0957 65.4785 -72.5586 L 65.4785 1.95312 C 65.4785 2.53906 65.1855 2.92969 64.6484 2.92969 C 64.3066 2.92969 63.9648 2.7832 63.3789 2.29492 L 39.3555 -19.1895 C 38.1836 -20.2637 37.1582 -20.5078 35.5957 -20.5078 Z M 107.91 -2.00195 C 108.789 -1.36719 109.814 -1.5625 110.449 -2.44141 C 116.748 -10.6445 120.801 -22.8516 120.801 -35.2539 C 120.801 -47.6562 116.797 -59.9121 110.449 -68.1152 C 109.814 -68.9453 108.789 -69.1406 107.91 -68.5059 C 106.982 -67.9199 106.885 -66.8945 107.617 -65.8691 C 113.77 -57.6172 117.188 -46.8262 117.188 -35.2539 C 117.188 -23.7305 113.77 -12.8906 107.617 -4.63867 C 106.885 -3.66211 106.982 -2.58789 107.91 -2.00195 Z M 88.8184 -14.9902 C 89.6973 -14.4043 90.7227 -14.5996 91.3574 -15.4297 C 95.1172 -20.3125 97.7051 -27.1973 97.7051 -35.2539 C 97.7051 -43.3105 95.1172 -50.1953 91.3574 -55.0781 C 90.7227 -55.957 89.6973 -56.1035 88.8184 -55.5176 C 87.9395 -54.8828 87.793 -53.7598 88.5254 -52.7832 C 92.2852 -47.6074 94.0918 -42.1875 94.0918 -35.2539 C 94.0918 -28.3203 92.2852 -22.9492 88.5254 -17.7246 C 87.793 -16.748 87.9395 -15.6738 88.8184 -14.9902 Z"/>
  </g>
  <g id="Ultralight-M" transform="matrix(1 0 0 1 494.574 1126)">
   <path d="M 17.8711 -17.6758 L 33.8867 -17.6758 C 34.7656 -17.6758 35.4004 -17.4316 35.9863 -16.9434 L 60.7422 5.07812 C 61.6699 5.95703 62.7441 6.68945 64.1113 6.68945 C 66.1133 6.68945 67.041 5.22461 67.041 3.36914 L 67.041 -73.877 C 67.041 -75.7324 66.1133 -77.1973 64.1113 -77.1973 C 62.793 -77.1973 61.6699 -76.4648 60.7422 -75.6348 L 35.9863 -52.9785 C 35.4004 -52.4414 34.7656 -52.1973 33.8867 -52.1973 L 17.8711 -52.1973 C 13.6719 -52.1973 11.7188 -50.2441 11.7188 -46.0449 L 11.7188 -23.8281 C 11.7188 -19.6289 13.6719 -17.6758 17.8711 -17.6758 Z M 17.8711 -20.0684 C 15.0879 -20.0684 14.1113 -21.0938 14.1113 -23.8281 L 14.1113 -46.0449 C 14.1113 -48.8281 15.0879 -49.8047 17.8711 -49.8047 L 33.7891 -49.8047 C 35.4492 -49.8047 36.4258 -50 37.6953 -51.1719 L 62.3535 -73.7793 C 62.793 -74.1699 63.1836 -74.5605 63.7207 -74.5605 C 64.3066 -74.5605 64.6484 -74.1699 64.6484 -73.6328 L 64.6484 2.97852 C 64.6484 3.61328 64.3555 4.05273 63.7695 4.05273 C 63.4277 4.05273 63.0371 3.85742 62.4023 3.27148 L 37.6953 -18.75 C 36.4746 -19.8242 35.4492 -20.0684 33.7891 -20.0684 Z M 106.494 -2.39258 C 107.08 -1.95312 107.764 -2.09961 108.154 -2.63672 C 114.453 -10.6445 118.604 -22.8516 118.604 -35.2539 C 118.604 -47.6562 114.453 -59.8633 108.154 -67.9199 C 107.764 -68.457 107.08 -68.5547 106.494 -68.1152 C 105.908 -67.7246 105.859 -67.041 106.348 -66.4062 C 112.695 -57.959 116.211 -47.0703 116.211 -35.2539 C 116.211 -23.4375 112.695 -12.5488 106.348 -4.10156 C 105.859 -3.4668 105.908 -2.7832 106.494 -2.39258 Z M 87.5488 -15.332 C 88.1836 -14.9414 88.8184 -15.0391 89.2578 -15.5762 C 92.9688 -20.3613 95.6543 -27.0996 95.6543 -35.2539 C 95.6543 -43.457 92.9688 -50.1465 89.2578 -54.9316 C 88.8184 -55.4688 88.1836 -55.6152 87.5488 -55.1758 C 87.0117 -54.7363 86.9141 -54.0527 87.4023 -53.3691 C 91.4062 -47.8516 93.2617 -42.5293 93.2617 -35.2539 C 93.2617 -28.0273 91.4062 -22.6562 87.4023 -17.1387 C 86.9141 -16.4551 87.0117 -15.7715 87.5488 -15.332 Z"/>
  </g>
  <g id="Black-S" transform="matrix(1 0 0 1 2865.63 696)">
   <path d="M 25.6348 -14.5996 L 36.377 -14.5996 C 36.5723 -14.5996 36.7188 -14.5996 36.9141 -14.4043 L 52.0996 -0.878906 C 54.9316 1.66016 57.1289 2.83203 60.1074 2.83203 C 64.7949 2.83203 68.4082 -0.78125 68.4082 -5.46875 L 68.4082 -64.9414 C 68.4082 -69.6289 64.7949 -73.2422 60.1074 -73.2422 C 57.3242 -73.2422 55.0293 -72.168 52.0996 -69.5312 L 36.9141 -56.0547 C 36.6699 -55.8594 36.5723 -55.8105 36.377 -55.8105 L 25.6348 -55.8105 C 17.7246 -55.8105 13.3301 -51.2207 13.3301 -43.0176 L 13.3301 -27.3926 C 13.3301 -19.1895 17.7246 -14.5996 25.6348 -14.5996 Z M 104.004 -2.14844 C 107.373 -0.292969 111.426 -1.12305 113.477 -4.39453 C 119.092 -13.3301 122.217 -23.9258 122.217 -35.2539 C 122.217 -46.582 119.092 -57.1777 113.477 -66.1133 C 111.426 -69.3848 107.373 -70.2148 104.004 -68.3594 C 100.098 -66.2109 99.707 -61.6211 102.197 -57.373 C 105.957 -50.9277 108.057 -43.3105 108.057 -35.2539 C 108.057 -27.1973 105.957 -19.5801 102.197 -13.1348 C 99.707 -8.88672 100.098 -4.29688 104.004 -2.14844 Z M 82.4707 -14.0625 C 85.791 -12.1094 89.6973 -12.8906 91.6016 -15.5762 C 95.5566 -21.1426 97.8027 -27.9297 97.8027 -35.2539 C 97.8027 -42.5781 95.5566 -49.3652 91.6016 -54.9316 C 89.6973 -57.6172 85.791 -58.3984 82.4707 -56.4453 C 79.0039 -54.3945 78.125 -50.293 81.0547 -45.1172 C 82.7148 -42.1875 83.6426 -38.8184 83.6426 -35.2539 C 83.6426 -31.6895 82.7148 -28.3203 81.0547 -25.3906 C 78.125 -20.2148 79.0039 -16.1133 82.4707 -14.0625 Z M 28.2715 -27.5879 C 27.7344 -27.5879 27.2949 -28.0273 27.2949 -28.5645 L 27.2949 -41.8457 C 27.2949 -42.3828 27.7344 -42.8223 28.2715 -42.8223 L 39.2578 -42.8223 C 40.5762 -42.8223 41.4551 -43.1152 42.3828 -43.9941 L 53.2715 -54.0039 C 53.418 -54.1504 53.6133 -54.1992 53.8086 -54.1992 C 54.1504 -54.1992 54.4434 -53.9551 54.4434 -53.5156 L 54.4434 -16.8457 C 54.4434 -16.4062 54.1504 -16.1133 53.8086 -16.1133 C 53.6133 -16.1133 53.418 -16.2109 53.2715 -16.3574 L 42.3828 -26.416 C 41.4551 -27.2949 40.5762 -27.5879 39.2578 -27.5879 Z"/>
  </g>
  <g id="Heavy-S" transform="matrix(1 0 0 1 2571.43 696)">
   <path d="M 24.5117 -15.5273 L 35.3516 -15.5273 C 35.5469 -15.5273 35.7422 -15.5273 35.9375 -15.332 L 51.709 -1.2207 C 54.3945 1.12305 56.4453 2.24609 59.1797 2.24609 C 63.4277 2.24609 66.6992 -0.976562 66.6992 -5.22461 L 66.6992 -65.0879 C 66.6992 -69.3359 63.4277 -72.6562 59.1797 -72.6562 C 56.543 -72.6562 54.4922 -71.6309 51.709 -69.0918 L 35.9375 -55.127 C 35.6934 -54.9316 35.5469 -54.8828 35.3516 -54.8828 L 24.5117 -54.8828 C 17.0898 -54.8828 13.0371 -50.6836 13.0371 -42.9199 L 13.0371 -27.4902 C 13.0371 -19.7266 17.0898 -15.5273 24.5117 -15.5273 Z M 100.537 -3.51562 C 103.516 -1.80664 107.08 -2.53906 108.936 -5.46875 C 114.404 -13.9648 117.48 -24.3164 117.48 -35.2539 C 117.48 -46.1914 114.453 -56.5918 108.936 -65.0391 C 107.08 -67.9688 103.516 -68.7012 100.537 -66.9922 C 97.168 -65.0879 96.7773 -61.084 98.9746 -57.4219 C 102.832 -51.0742 105.029 -43.3594 105.029 -35.2539 C 105.029 -27.1484 102.832 -19.4336 98.9746 -13.0859 C 96.7773 -9.42383 97.168 -5.41992 100.537 -3.51562 Z M 80.4688 -15.0391 C 83.3496 -13.2812 86.8164 -13.9648 88.5742 -16.4551 C 92.2852 -21.6309 94.4336 -28.2227 94.4336 -35.2539 C 94.4336 -42.2852 92.2852 -48.8281 88.5742 -54.0527 C 86.8164 -56.543 83.3496 -57.2266 80.4688 -55.4688 C 77.3438 -53.6133 76.6113 -49.9512 79.1992 -45.5566 C 80.957 -42.627 81.9336 -39.0137 81.9336 -35.2539 C 81.9336 -31.4941 80.957 -27.8809 79.1992 -24.9512 C 76.6113 -20.5566 77.3438 -16.8945 80.4688 -15.0391 Z M 26.6113 -27.002 C 25.8789 -27.002 25.3418 -27.4902 25.3418 -28.2227 L 25.3418 -42.1875 C 25.3418 -42.8711 25.8789 -43.4082 26.6113 -43.4082 L 37.9883 -43.4082 C 39.2578 -43.4082 40.0879 -43.6523 41.0156 -44.5312 L 53.2227 -55.7129 C 53.3691 -55.8594 53.5645 -55.9082 53.7598 -55.9082 C 54.1016 -55.9082 54.3457 -55.6641 54.3457 -55.2734 L 54.3457 -15.0879 C 54.3457 -14.6973 54.1016 -14.4531 53.7598 -14.4531 C 53.5645 -14.4531 53.3691 -14.5508 53.2227 -14.6973 L 41.0156 -25.8789 C 40.0879 -26.7578 39.2578 -27.002 37.9883 -27.002 Z"/>
  </g>
  <g id="Bold-S" transform="matrix(1 0 0 1 2277.53 696)">
   <path d="M 23.2422 -16.6016 L 34.1797 -16.6016 C 34.4238 -16.6016 34.6191 -16.5527 34.8633 -16.3086 L 51.2695 -1.66016 C 53.7598 0.585938 55.6641 1.5625 58.1543 1.5625 C 61.9141 1.5625 64.7949 -1.26953 64.7949 -4.98047 L 64.7949 -65.2832 C 64.7949 -69.043 61.9141 -72.0215 58.1055 -72.0215 C 55.7129 -72.0215 53.9062 -70.9961 51.2695 -68.6523 L 34.8633 -54.1016 C 34.6191 -53.9062 34.4238 -53.8086 34.1797 -53.8086 L 23.2422 -53.8086 C 16.3574 -53.8086 12.6953 -50.0488 12.6953 -42.8223 L 12.6953 -27.5879 C 12.6953 -20.3613 16.3574 -16.6016 23.2422 -16.6016 Z M 96.6309 -4.98047 C 99.1699 -3.51562 102.246 -4.15039 103.857 -6.64062 C 109.18 -14.6484 112.207 -24.707 112.207 -35.2539 C 112.207 -45.8008 109.229 -55.9082 103.857 -63.8672 C 102.197 -66.3574 99.1699 -66.9922 96.6309 -65.5273 C 93.8477 -63.8672 93.5059 -60.498 95.4102 -57.4219 C 99.3652 -51.2207 101.611 -43.4082 101.611 -35.2539 C 101.611 -27.0996 99.3164 -19.2871 95.4102 -13.0859 C 93.5547 -10.0098 93.8477 -6.64062 96.6309 -4.98047 Z M 24.707 -26.3672 C 23.7793 -26.3672 23.1934 -26.9531 23.1934 -27.8809 L 23.1934 -42.5293 C 23.1934 -43.457 23.7793 -44.043 24.707 -44.043 L 36.5723 -44.043 C 37.7441 -44.043 38.5742 -44.2871 39.502 -45.1172 L 53.1738 -57.5684 C 53.3203 -57.7148 53.5156 -57.8125 53.7109 -57.8125 C 54.0527 -57.8125 54.2969 -57.6172 54.2969 -57.2266 L 54.2969 -13.1836 C 54.2969 -12.793 54.0527 -12.5488 53.7109 -12.5488 C 53.5156 -12.5488 53.3203 -12.6465 53.1738 -12.793 L 39.502 -25.293 C 38.5742 -26.123 37.7441 -26.3672 36.5723 -26.3672 Z M 78.1738 -16.1133 C 80.6152 -14.6484 83.5938 -15.1855 85.2051 -17.3828 C 88.6719 -22.2168 90.6738 -28.6133 90.6738 -35.2539 C 90.6738 -41.8945 88.6719 -48.2422 85.2051 -53.125 C 83.5938 -55.3223 80.6152 -55.8594 78.1738 -54.3945 C 75.4883 -52.6855 74.9512 -49.5605 77.0996 -45.9961 C 79.0039 -43.1152 80.0781 -39.209 80.0781 -35.2539 C 80.0781 -31.2988 79.0039 -27.4414 77.0996 -24.5117 C 74.9512 -20.9473 75.4883 -17.8223 78.1738 -16.1133 Z"/>
  </g>
  <g id="Semibold-S" transform="matrix(1 0 0 1 1982.74 696)">
   <path d="M 22.3633 -17.2852 L 33.3496 -17.2852 C 33.6426 -17.2852 33.8867 -17.2363 34.082 -17.041 L 50.9766 -1.9043 C 53.3203 0.146484 55.127 1.12305 57.4707 1.12305 C 60.8887 1.12305 63.4766 -1.41602 63.4766 -4.83398 L 63.4766 -65.3809 C 63.4766 -68.7988 60.8887 -71.5332 57.4219 -71.5332 C 55.127 -71.5332 53.5156 -70.5566 50.9766 -68.3105 L 34.082 -53.3691 C 33.8867 -53.1738 33.6426 -53.0762 33.3496 -53.0762 L 22.3633 -53.0762 C 15.8203 -53.0762 12.4512 -49.6094 12.4512 -42.7246 L 12.4512 -27.6855 C 12.4512 -20.8008 15.8203 -17.2852 22.3633 -17.2852 Z M 93.9453 -6.05469 C 96.1426 -4.6875 98.877 -5.22461 100.391 -7.4707 C 105.566 -15.1367 108.594 -25 108.594 -35.2539 C 108.594 -45.5078 105.664 -55.4199 100.391 -63.0371 C 98.877 -65.2832 96.1426 -65.8203 93.9453 -64.4531 C 91.5527 -63.0371 91.2598 -60.1074 92.9688 -57.4707 C 96.9727 -51.3672 99.2676 -43.4082 99.2676 -35.2539 C 99.2676 -27.0996 96.9238 -19.1895 92.9688 -13.0371 C 91.3086 -10.4004 91.5527 -7.4707 93.9453 -6.05469 Z M 23.4375 -25.9277 C 22.3145 -25.9277 21.7285 -26.5137 21.7285 -27.6367 L 21.7285 -42.7734 C 21.7285 -43.8477 22.3145 -44.4824 23.4375 -44.4824 L 35.6445 -44.4824 C 36.7188 -44.4824 37.5 -44.6777 38.4277 -45.5566 L 53.125 -58.8867 C 53.2715 -59.0332 53.4668 -59.1309 53.6621 -59.1309 C 54.0039 -59.1309 54.1992 -58.9355 54.1992 -58.5938 L 54.1992 -11.8164 C 54.1992 -11.4746 54.0039 -11.2305 53.6621 -11.2305 C 53.4668 -11.2305 53.2715 -11.3281 53.125 -11.5234 L 38.4277 -24.8535 C 37.5 -25.6836 36.7188 -25.9277 35.6445 -25.9277 Z M 76.6113 -16.8945 C 78.7109 -15.5762 81.3965 -16.0156 82.8613 -18.0664 C 86.1816 -22.6074 88.0859 -28.8574 88.0859 -35.2539 C 88.0859 -41.6504 86.1816 -47.8516 82.8613 -52.4414 C 81.3965 -54.4922 78.7109 -54.9316 76.6113 -53.6133 C 74.2188 -52.0996 73.7793 -49.2676 75.6836 -46.3379 C 77.6367 -43.4082 78.7598 -39.3555 78.7598 -35.2539 C 78.7598 -31.1523 77.6367 -27.0996 75.6836 -24.1699 C 73.7793 -21.1914 74.2188 -18.4082 76.6113 -16.8945 Z"/>
  </g>
  <g id="Medium-S" transform="matrix(1 0 0 1 1687.5 696)">
   <path d="M 21.6797 -17.8711 L 32.7637 -17.8711 C 33.0566 -17.8711 33.3008 -17.7734 33.4961 -17.5781 L 50.7324 -2.14844 C 52.9785 -0.146484 54.6875 0.78125 56.9336 0.78125 C 60.0586 0.78125 62.4512 -1.5625 62.4512 -4.6875 L 62.4512 -65.4785 C 62.4512 -68.6523 60.0586 -71.1914 56.8359 -71.1914 C 54.6875 -71.1914 53.1738 -70.2148 50.7324 -68.0664 L 33.4961 -52.832 C 33.3008 -52.6367 33.0566 -52.5391 32.7637 -52.5391 L 21.6797 -52.5391 C 15.4785 -52.5391 12.3047 -49.3164 12.3047 -42.6758 L 12.3047 -27.7344 C 12.3047 -21.0938 15.4785 -17.8711 21.6797 -17.8711 Z M 91.8945 -6.83594 C 93.8965 -5.56641 96.3379 -6.05469 97.7051 -8.05664 C 102.832 -15.4785 105.811 -25.1953 105.811 -35.2539 C 105.811 -45.3125 102.93 -55.0781 97.7051 -62.4512 C 96.3379 -64.4531 93.8965 -64.9414 91.8945 -63.6719 C 89.8438 -62.3535 89.5508 -59.7656 91.0645 -57.4707 C 95.166 -51.416 97.5098 -43.457 97.5098 -35.2539 C 97.5098 -27.0508 95.0684 -19.0918 91.0645 -13.0371 C 89.5996 -10.7422 89.8438 -8.1543 91.8945 -6.83594 Z M 22.4121 -25.5859 C 21.2402 -25.5859 20.5566 -26.2207 20.5566 -27.4414 L 20.5566 -42.9688 C 20.5566 -44.1406 21.2402 -44.8242 22.4121 -44.8242 L 34.9121 -44.8242 C 35.9375 -44.8242 36.7188 -45.0195 37.6465 -45.8496 L 53.0762 -59.8633 C 53.2715 -60.0098 53.4668 -60.1074 53.6621 -60.1074 C 53.9551 -60.1074 54.1992 -59.9121 54.1992 -59.6191 L 54.1992 -10.791 C 54.1992 -10.498 53.9551 -10.2539 53.6621 -10.2539 C 53.4668 -10.2539 53.2715 -10.3516 53.0762 -10.5469 L 37.6465 -24.5117 C 36.7188 -25.3906 35.9375 -25.5859 34.9121 -25.5859 Z M 75.4395 -17.4316 C 77.2461 -16.2598 79.6875 -16.6504 81.1035 -18.5547 C 84.2773 -22.9004 86.084 -29.0527 86.084 -35.2539 C 86.084 -41.4551 84.2773 -47.5586 81.1035 -51.9531 C 79.6875 -53.8574 77.2461 -54.248 75.4395 -53.0762 C 73.291 -51.6113 72.9004 -49.0723 74.5605 -46.582 C 76.6113 -43.7012 77.7832 -39.4531 77.7832 -35.2539 C 77.7832 -31.0547 76.6113 -26.8555 74.5605 -23.9258 C 72.9004 -21.3867 73.291 -18.8965 75.4395 -17.4316 Z"/>
  </g>
  <g id="Regular-S" transform="matrix(1 0 0 1 1392.69 696)">
   <path d="M 20.8496 -18.5547 L 31.9336 -18.5547 C 32.2754 -18.5547 32.5684 -18.457 32.7637 -18.2617 L 50.4395 -2.39258 C 52.5391 -0.537109 54.1992 0.341797 56.25 0.341797 C 59.0332 0.341797 61.1816 -1.70898 61.1816 -4.54102 L 61.1816 -65.625 C 61.1816 -68.4082 59.0332 -70.752 56.1523 -70.752 C 54.1016 -70.752 52.7832 -69.7754 50.4395 -67.7246 L 32.7637 -52.1484 C 32.5684 -51.9043 32.2754 -51.8066 31.9336 -51.8066 L 20.8496 -51.8066 C 14.9414 -51.8066 12.0605 -48.877 12.0605 -42.5781 L 12.0605 -27.7832 C 12.0605 -21.5332 14.9414 -18.5547 20.8496 -18.5547 Z M 89.2578 -7.86133 C 90.918 -6.73828 93.0664 -7.12891 94.2871 -8.88672 C 99.2676 -15.9668 102.246 -25.4883 102.246 -35.2539 C 102.246 -45.0195 99.3652 -54.6387 94.2871 -61.6211 C 93.0176 -63.3789 90.918 -63.7695 89.2578 -62.6465 C 87.5977 -61.5234 87.3047 -59.375 88.623 -57.4707 C 92.7734 -51.5625 95.2148 -43.457 95.2148 -35.2539 C 95.2148 -27.0508 92.6758 -18.9941 88.623 -13.0371 C 87.3535 -11.1328 87.5977 -8.98438 89.2578 -7.86133 Z M 21.1426 -25.1465 C 19.7754 -25.1465 19.0918 -25.8301 19.0918 -27.1973 L 19.0918 -43.2129 C 19.0918 -44.5312 19.7754 -45.2637 21.1426 -45.2637 L 33.9355 -45.2637 C 34.9121 -45.2637 35.6445 -45.459 36.5723 -46.2891 L 53.0762 -61.1816 C 53.2227 -61.3281 53.418 -61.4258 53.6133 -61.4258 C 53.9062 -61.4258 54.1016 -61.2305 54.1016 -60.9375 L 54.1016 -9.47266 C 54.1016 -9.17969 53.9062 -8.98438 53.6133 -8.98438 C 53.418 -8.98438 53.2227 -9.08203 53.0762 -9.22852 L 36.5723 -24.1211 C 35.6445 -24.9512 34.9121 -25.1465 33.9355 -25.1465 Z M 73.877 -18.2129 C 75.3906 -17.1387 77.4902 -17.4805 78.7598 -19.2383 C 81.7871 -23.291 83.5449 -29.2969 83.5449 -35.2539 C 83.5449 -41.2109 81.7871 -47.168 78.7598 -51.2695 C 77.4902 -53.0273 75.3906 -53.3691 73.877 -52.2949 C 72.0215 -50.9766 71.7285 -48.7793 73.1445 -46.9238 C 75.293 -43.9941 76.4648 -39.5996 76.4648 -35.2539 C 76.4648 -30.9082 75.2441 -26.5625 73.1445 -23.584 C 71.7773 -21.6797 72.0215 -19.5312 73.877 -18.2129 Z"/>
  </g>
  <g id="Light-S" transform="matrix(1 0 0 1 1097.88 696)">
   <path d="M 18.7012 -19.4824 L 30.2734 -19.4824 C 30.7129 -19.4824 31.0547 -19.3359 31.3477 -19.0918 L 49.5605 -2.7832 C 51.2207 -1.26953 52.6367 -0.488281 54.3457 -0.488281 C 56.7871 -0.488281 58.4961 -2.29492 58.4961 -4.6875 L 58.4961 -65.5762 C 58.4961 -67.9688 56.7871 -69.9219 54.2969 -69.9219 C 52.5879 -69.9219 51.416 -69.0918 49.5605 -67.4805 L 31.3477 -51.1719 C 31.0547 -50.9277 30.7129 -50.7812 30.2734 -50.7812 L 18.7012 -50.7812 C 13.623 -50.7812 11.1816 -48.291 11.1816 -42.9199 L 11.1816 -27.3438 C 11.1816 -21.9727 13.623 -19.4824 18.7012 -19.4824 Z M 18.9453 -24.6094 C 17.334 -24.6094 16.6016 -25.293 16.6016 -26.9043 L 16.6016 -43.3594 C 16.6016 -44.9707 17.334 -45.7031 18.9453 -45.7031 L 31.5918 -45.7031 C 32.7148 -45.7031 33.4473 -45.8496 34.375 -46.7285 L 51.7578 -62.5 C 51.9531 -62.6953 52.1973 -62.8906 52.4902 -62.8906 C 52.832 -62.8906 53.0273 -62.6465 53.0273 -62.3047 L 53.0273 -8.20312 C 53.0273 -7.8125 52.832 -7.56836 52.4902 -7.56836 C 52.2461 -7.56836 52.0508 -7.66602 51.7578 -7.95898 L 34.375 -23.584 C 33.4473 -24.4141 32.7148 -24.6094 31.5918 -24.6094 Z M 87.4512 -8.34961 C 88.7695 -7.4707 90.3809 -7.8125 91.3086 -9.13086 C 96.2891 -15.9668 99.3164 -25.4883 99.3164 -35.2539 C 99.3164 -45.0195 96.3867 -54.5898 91.3086 -61.377 C 90.332 -62.6953 88.7695 -63.0371 87.4512 -62.1582 C 86.1816 -61.2793 85.9375 -59.6191 86.9629 -58.1543 C 91.4062 -52.002 93.8965 -43.7988 93.8965 -35.2539 C 93.8965 -26.709 91.3086 -18.5059 86.9629 -12.3535 C 85.9863 -10.8887 86.1816 -9.22852 87.4512 -8.34961 Z M 72.2656 -18.6523 C 73.4375 -17.8223 75.0488 -18.0664 76.0254 -19.4336 C 79.0039 -23.3887 80.8594 -29.1504 80.8594 -35.2539 C 80.8594 -41.3574 79.0039 -47.0703 76.0254 -51.0742 C 75.0488 -52.4414 73.4375 -52.6855 72.2656 -51.8555 C 70.8496 -50.8301 70.6055 -49.1699 71.6797 -47.7051 C 74.1699 -44.3359 75.4395 -39.9902 75.4395 -35.2539 C 75.4395 -30.5176 74.1211 -26.1719 71.6797 -22.8027 C 70.6543 -21.3379 70.8496 -19.6777 72.2656 -18.6523 Z"/>
  </g>
  <g id="Thin-S" transform="matrix(1 0 0 1 803.688 696)">
   <path d="M 15.918 -20.6543 L 28.0762 -20.6543 C 28.6621 -20.6543 29.1016 -20.5078 29.4922 -20.166 L 48.3887 -3.27148 C 49.5117 -2.29492 50.5859 -1.61133 51.9043 -1.61133 C 53.8086 -1.61133 54.9316 -3.02734 54.9316 -4.83398 L 54.9316 -65.5762 C 54.9316 -67.3828 53.8086 -68.8477 51.9043 -68.8477 C 50.5371 -68.8477 49.5605 -68.1641 48.3887 -67.1387 L 29.4922 -49.9512 C 29.1016 -49.6094 28.6621 -49.4629 28.0762 -49.4629 L 15.918 -49.4629 C 11.9141 -49.4629 10.0098 -47.5098 10.0098 -43.4082 L 10.0098 -26.709 C 10.0098 -22.6074 11.9141 -20.6543 15.918 -20.6543 Z M 15.9668 -23.877 C 14.0625 -23.877 13.2812 -24.6094 13.2812 -26.5625 L 13.2812 -43.5547 C 13.2812 -45.5078 14.0625 -46.2402 15.9668 -46.2402 L 28.5645 -46.2402 C 29.7363 -46.2402 30.5176 -46.4355 31.4941 -47.3145 L 50.0488 -64.2578 C 50.3418 -64.502 50.5859 -64.7461 50.9766 -64.7461 C 51.3672 -64.7461 51.6602 -64.502 51.6602 -64.1113 L 51.6602 -6.44531 C 51.6602 -6.00586 51.416 -5.71289 51.0254 -5.71289 C 50.7324 -5.71289 50.4883 -5.85938 50.0488 -6.20117 L 31.4941 -22.8516 C 30.5664 -23.6816 29.7363 -23.877 28.5645 -23.877 Z M 85.0586 -9.0332 C 85.8887 -8.49609 86.8164 -8.69141 87.4023 -9.47266 C 92.334 -15.9668 95.5078 -25.5371 95.5078 -35.2539 C 95.5078 -44.9707 92.3828 -54.5898 87.4023 -61.0352 C 86.8164 -61.8164 85.8887 -62.0117 85.0586 -61.4746 C 84.2773 -60.9375 84.1797 -59.9609 84.8145 -59.0332 C 89.5508 -52.6367 92.1875 -44.1895 92.1875 -35.2539 C 92.1875 -26.3184 89.5508 -17.8711 84.8145 -11.4746 C 84.1797 -10.5469 84.2773 -9.57031 85.0586 -9.0332 Z M 70.0684 -19.2383 C 70.8496 -18.7012 71.7773 -18.8965 72.3633 -19.6777 C 75.3418 -23.4863 77.3438 -28.9551 77.3438 -35.2539 C 77.3438 -41.5527 75.3418 -46.9727 72.3633 -50.8301 C 71.7773 -51.6113 70.8496 -51.8066 70.0684 -51.2695 C 69.2871 -50.6836 69.1406 -49.6582 69.7754 -48.7305 C 72.6562 -44.8242 74.0234 -40.5762 74.0234 -35.2539 C 74.0234 -29.9316 72.6562 -25.6836 69.7754 -21.7773 C 69.1406 -20.8496 69.2871 -19.8242 70.0684 -19.2383 Z"/>
  </g>
  <g id="Ultralight-S" transform="matrix(1 0 0 1 508.246 696)">
   <path d="M 14.4531 -21.2891 L 26.9531 -21.2891 C 27.5879 -21.2891 28.0762 -21.0938 28.5156 -20.7031 L 47.8027 -3.56445 C 48.584 -2.83203 49.5117 -2.19727 50.6348 -2.19727 C 52.2461 -2.19727 53.125 -3.41797 53.125 -4.98047 L 53.125 -65.5273 C 53.125 -67.041 52.2461 -68.3105 50.6348 -68.3105 C 49.5117 -68.3105 48.6328 -67.6758 47.8027 -66.9434 L 28.5156 -49.3164 C 28.0762 -48.9258 27.5879 -48.7305 26.9531 -48.7305 L 14.4531 -48.7305 C 10.9863 -48.7305 9.375 -47.1191 9.375 -43.6523 L 9.375 -26.3672 C 9.375 -22.9492 10.9863 -21.2891 14.4531 -21.2891 Z M 14.4531 -23.4863 C 12.3535 -23.4863 11.5723 -24.2676 11.5723 -26.3672 L 11.5723 -43.6523 C 11.5723 -45.8008 12.3535 -46.582 14.4531 -46.582 L 27.002 -46.582 C 28.2227 -46.582 29.0039 -46.7285 29.9805 -47.6562 L 49.1211 -65.1855 C 49.4629 -65.4785 49.7559 -65.7227 50.1953 -65.7227 C 50.6348 -65.7227 50.9277 -65.4785 50.9277 -65.0391 L 50.9277 -5.56641 C 50.9277 -5.07812 50.6836 -4.73633 50.2441 -4.73633 C 49.9512 -4.73633 49.6582 -4.88281 49.1699 -5.32227 L 29.9805 -22.4609 C 29.0527 -23.291 28.2227 -23.4863 27.002 -23.4863 Z M 83.8379 -9.375 C 84.375 -9.0332 85.0098 -9.13086 85.4004 -9.61914 C 90.332 -15.9668 93.5547 -25.5371 93.5547 -35.2539 C 93.5547 -44.9707 90.332 -54.541 85.4004 -60.8887 C 85.0098 -61.377 84.375 -61.4746 83.8379 -61.1328 C 83.3008 -60.7422 83.252 -60.1074 83.6914 -59.5215 C 88.623 -52.9785 91.3086 -44.4336 91.3086 -35.2539 C 91.3086 -26.0742 88.623 -17.5781 83.6914 -10.9863 C 83.252 -10.4004 83.3008 -9.76562 83.8379 -9.375 Z M 68.9941 -19.5801 C 69.5312 -19.1895 70.1172 -19.2871 70.5078 -19.7754 C 73.4375 -23.584 75.5371 -28.8574 75.5371 -35.2539 C 75.5371 -41.6504 73.4375 -46.9238 70.5078 -50.7324 C 70.1172 -51.2207 69.5312 -51.3184 68.9941 -50.9277 C 68.457 -50.5371 68.3594 -49.9023 68.7988 -49.2676 C 71.875 -45.0684 73.3398 -40.8691 73.3398 -35.2539 C 73.3398 -29.6387 71.875 -25.4395 68.7988 -21.2402 C 68.3594 -20.6055 68.457 -19.9707 68.9941 -19.5801 Z"/>
  </g>
 </g>
</svg>
