<?xml version="1.0" encoding="UTF-8"?>
<!--Generator: Apple Native CoreSVG 149-->
<!DOCTYPE svg
PUBLIC "-//W3C//DTD SVG 1.1//EN"
       "http://www.w3.org/Graphics/SVG/1.1/DTD/svg11.dtd">
<svg version="1.1" xmlns="http://www.w3.org/2000/svg" xmlns:xlink="http://www.w3.org/1999/xlink" width="3300" height="2200">
 <!--glyph: "uni100C3B.medium", point size: 100.000000, font version: "Version 16.0d12e3", template writer version: "8"-->
 <g id="Notes">
  <rect height="2200" id="artboard" style="fill:white;opacity:1" width="3300" x="0" y="0"/>
  <line id="" style="fill:none;stroke:black;opacity:1;stroke-width:0.5;" x1="263" x2="3036" y1="292" y2="292"/>
  <text style="stroke:none;fill:black;font-family:-apple-system,&quot;SF Pro Display&quot;,&quot;SF Pro Text&quot;,Helvetica,sans-serif;font-weight:bold;" transform="matrix(1 0 0 1 263 322)">Weight/Scale Variations</text>
  <text style="stroke:none;fill:black;font-family:-apple-system,&quot;SF Pro Display&quot;,&quot;SF Pro Text&quot;,Helvetica,sans-serif;text-anchor:middle;" transform="matrix(1 0 0 1 559.711 322)">Ultralight</text>
  <text style="stroke:none;fill:black;font-family:-apple-system,&quot;SF Pro Display&quot;,&quot;SF Pro Text&quot;,Helvetica,sans-serif;text-anchor:middle;" transform="matrix(1 0 0 1 856.422 322)">Thin</text>
  <text style="stroke:none;fill:black;font-family:-apple-system,&quot;SF Pro Display&quot;,&quot;SF Pro Text&quot;,Helvetica,sans-serif;text-anchor:middle;" transform="matrix(1 0 0 1 1153.13 322)">Light</text>
  <text style="stroke:none;fill:black;font-family:-apple-system,&quot;SF Pro Display&quot;,&quot;SF Pro Text&quot;,Helvetica,sans-serif;text-anchor:middle;" transform="matrix(1 0 0 1 1449.84 322)">Regular</text>
  <text style="stroke:none;fill:black;font-family:-apple-system,&quot;SF Pro Display&quot;,&quot;SF Pro Text&quot;,Helvetica,sans-serif;text-anchor:middle;" transform="matrix(1 0 0 1 1746.56 322)">Medium</text>
  <text style="stroke:none;fill:black;font-family:-apple-system,&quot;SF Pro Display&quot;,&quot;SF Pro Text&quot;,Helvetica,sans-serif;text-anchor:middle;" transform="matrix(1 0 0 1 2043.27 322)">Semibold</text>
  <text style="stroke:none;fill:black;font-family:-apple-system,&quot;SF Pro Display&quot;,&quot;SF Pro Text&quot;,Helvetica,sans-serif;text-anchor:middle;" transform="matrix(1 0 0 1 2339.98 322)">Bold</text>
  <text style="stroke:none;fill:black;font-family:-apple-system,&quot;SF Pro Display&quot;,&quot;SF Pro Text&quot;,Helvetica,sans-serif;text-anchor:middle;" transform="matrix(1 0 0 1 2636.69 322)">Heavy</text>
  <text style="stroke:none;fill:black;font-family:-apple-system,&quot;SF Pro Display&quot;,&quot;SF Pro Text&quot;,Helvetica,sans-serif;text-anchor:middle;" transform="matrix(1 0 0 1 2933.4 322)">Black</text>
  <line id="" style="fill:none;stroke:black;opacity:1;stroke-width:0.5;" x1="263" x2="3036" y1="1903" y2="1903"/>
  <g id="" transform="matrix(1 0 0 1 263 1933)">
   <path d="M9.24805 0.830078C13.5547 0.830078 17.1387-2.74414 17.1387-7.05078C17.1387-11.3574 13.5449-14.9316 9.23828-14.9316C4.94141-14.9316 1.36719-11.3574 1.36719-7.05078C1.36719-2.74414 4.95117 0.830078 9.24805 0.830078ZM9.24805-0.654297C5.70312-0.654297 2.87109-3.49609 2.87109-7.05078C2.87109-10.6055 5.69336-13.4473 9.23828-13.4473C12.793-13.4473 15.6348-10.6055 15.6445-7.05078C15.6543-3.49609 12.8027-0.654297 9.24805-0.654297ZM9.22852-3.62305C9.69727-3.62305 9.9707-3.93555 9.9707-4.45312L9.9707-6.31836L12.002-6.31836C12.5-6.31836 12.832-6.57227 12.832-7.04102C12.832-7.51953 12.5195-7.7832 12.002-7.7832L9.9707-7.7832L9.9707-9.81445C9.9707-10.332 9.69727-10.6543 9.22852-10.6543C8.75977-10.6543 8.50586-10.3125 8.50586-9.81445L8.50586-7.7832L6.49414-7.7832C5.97656-7.7832 5.64453-7.51953 5.64453-7.04102C5.64453-6.57227 5.99609-6.31836 6.49414-6.31836L8.50586-6.31836L8.50586-4.45312C8.50586-3.95508 8.75977-3.62305 9.22852-3.62305Z"/>
  </g>
  <g id="" transform="matrix(1 0 0 1 281.506 1933)">
   <path d="M11.709 2.91016C17.1582 2.91016 21.6699-1.61133 21.6699-7.05078C21.6699-12.5 17.1484-17.0117 11.6992-17.0117C6.25977-17.0117 1.74805-12.5 1.74805-7.05078C1.74805-1.61133 6.26953 2.91016 11.709 2.91016ZM11.709 1.25C7.09961 1.25 3.41797-2.44141 3.41797-7.05078C3.41797-11.6602 7.08984-15.3516 11.6992-15.3516C16.3086-15.3516 20-11.6602 20.0098-7.05078C20.0195-2.44141 16.3184 1.25 11.709 1.25ZM11.6797-2.66602C12.207-2.66602 12.5098-3.01758 12.5098-3.59375L12.5098-6.23047L15.3223-6.23047C15.8691-6.23047 16.25-6.51367 16.25-7.03125C16.25-7.55859 15.8887-7.86133 15.3223-7.86133L12.5098-7.86133L12.5098-10.6836C12.5098-11.25 12.207-11.6113 11.6797-11.6113C11.1621-11.6113 10.8789-11.2305 10.8789-10.6836L10.8789-7.86133L8.07617-7.86133C7.50977-7.86133 7.13867-7.55859 7.13867-7.03125C7.13867-6.51367 7.5293-6.23047 8.07617-6.23047L10.8789-6.23047L10.8789-3.59375C10.8789-3.03711 11.1621-2.66602 11.6797-2.66602Z"/>
  </g>
  <g id="" transform="matrix(1 0 0 1 304.924 1933)">
   <path d="M14.9707 5.66406C21.9336 5.66406 27.6953-0.0976562 27.6953-7.05078C27.6953-14.0137 21.9238-19.7754 14.9609-19.7754C8.00781-19.7754 2.25586-14.0137 2.25586-7.05078C2.25586-0.0976562 8.01758 5.66406 14.9707 5.66406ZM14.9707 3.84766C8.93555 3.84766 4.08203-1.01562 4.08203-7.05078C4.08203-13.0957 8.92578-17.9492 14.9609-17.9492C21.0059-17.9492 25.8594-13.0957 25.8691-7.05078C25.8789-1.01562 21.0156 3.84766 14.9707 3.84766ZM14.9414-1.38672C15.5176-1.38672 15.8594-1.77734 15.8594-2.38281L15.8594-6.13281L19.7754-6.13281C20.3711-6.13281 20.7812-6.46484 20.7812-7.02148C20.7812-7.59766 20.3906-7.93945 19.7754-7.93945L15.8594-7.93945L15.8594-11.8652C15.8594-12.4805 15.5176-12.8711 14.9414-12.8711C14.375-12.8711 14.0527-12.4609 14.0527-11.8652L14.0527-7.93945L10.1465-7.93945C9.53125-7.93945 9.13086-7.59766 9.13086-7.02148C9.13086-6.46484 9.55078-6.13281 10.1465-6.13281L14.0527-6.13281L14.0527-2.38281C14.0527-1.79688 14.375-1.38672 14.9414-1.38672Z"/>
  </g>
  <text style="stroke:none;fill:black;font-family:-apple-system,&quot;SF Pro Display&quot;,&quot;SF Pro Text&quot;,Helvetica,sans-serif;font-weight:bold;" transform="matrix(1 0 0 1 263 1953)">Design Variations</text>
  <text style="stroke:none;fill:black;font-family:-apple-system,&quot;SF Pro Display&quot;,&quot;SF Pro Text&quot;,Helvetica,sans-serif;" transform="matrix(1 0 0 1 263 1971)">Symbols are supported in up to nine weights and three scales.</text>
  <text style="stroke:none;fill:black;font-family:-apple-system,&quot;SF Pro Display&quot;,&quot;SF Pro Text&quot;,Helvetica,sans-serif;" transform="matrix(1 0 0 1 263 1989)">For optimal layout with text and other symbols, vertically align</text>
  <text style="stroke:none;fill:black;font-family:-apple-system,&quot;SF Pro Display&quot;,&quot;SF Pro Text&quot;,Helvetica,sans-serif;" transform="matrix(1 0 0 1 263 2007)">symbols with the adjacent text.</text>
  <line id="" style="fill:none;stroke:#00AEEF;stroke-width:0.5;opacity:1.0;" x1="776" x2="776" y1="1919" y2="1933"/>
  <g id="" transform="matrix(1 0 0 1 776 1933)">
   <path d="M3.31055 0.126953C3.82812 0.126953 4.08203-0.0683594 4.26758-0.605469L5.52734-4.0625L11.2891-4.0625L12.5488-0.605469C12.7344-0.0683594 12.9883 0.126953 13.4961 0.126953C14.0137 0.126953 14.3457-0.185547 14.3457-0.673828C14.3457-0.839844 14.3164-0.986328 14.2383-1.20117L9.6582-13.3887C9.43359-13.9941 9.0332-14.2871 8.4082-14.2871C7.80273-14.2871 7.39258-13.9941 7.17773-13.3984L2.59766-1.19141C2.51953-0.976562 2.49023-0.830078 2.49023-0.664062C2.49023-0.175781 2.80273 0.126953 3.31055 0.126953ZM6.00586-5.53711L8.37891-12.1094L8.42773-12.1094L10.8008-5.53711Z"/>
  </g>
  <line id="" style="fill:none;stroke:#00AEEF;stroke-width:0.5;opacity:1.0;" x1="792.836" x2="792.836" y1="1919" y2="1933"/>
  <text style="stroke:none;fill:black;font-family:-apple-system,&quot;SF Pro Display&quot;,&quot;SF Pro Text&quot;,Helvetica,sans-serif;font-weight:bold;" transform="matrix(1 0 0 1 776 1953)">Margins</text>
  <text style="stroke:none;fill:black;font-family:-apple-system,&quot;SF Pro Display&quot;,&quot;SF Pro Text&quot;,Helvetica,sans-serif;" transform="matrix(1 0 0 1 776 1971)">Leading and trailing margins on the left and right side of each symbol</text>
  <text style="stroke:none;fill:black;font-family:-apple-system,&quot;SF Pro Display&quot;,&quot;SF Pro Text&quot;,Helvetica,sans-serif;" transform="matrix(1 0 0 1 776 1989)">can be adjusted by modifying the x-location of the margin guidelines.</text>
  <text style="stroke:none;fill:black;font-family:-apple-system,&quot;SF Pro Display&quot;,&quot;SF Pro Text&quot;,Helvetica,sans-serif;" transform="matrix(1 0 0 1 776 2007)">Modifications are automatically applied proportionally to all</text>
  <text style="stroke:none;fill:black;font-family:-apple-system,&quot;SF Pro Display&quot;,&quot;SF Pro Text&quot;,Helvetica,sans-serif;" transform="matrix(1 0 0 1 776 2025)">scales and weights.</text>
  <g id="" transform="matrix(1 0 0 1 1289 1933)">
   <path d="M2.8418 1.86523L4.54102 3.57422C5.40039 4.44336 6.38672 4.38477 7.31445 3.35938L17.4902-7.85156C17.7539-7.76367 18.0273-7.7832 18.3398-7.8418L19.4043-8.03711L20.0684-7.36328L20.0293-6.80664C19.9902-6.30859 20.1172-5.92773 20.6055-5.44922L21.3672-4.70703C21.8457-4.22852 22.4609-4.19922 22.9297-4.66797L25.8398-7.58789C26.3086-8.05664 26.2891-8.65234 25.8105-9.13086L25.0391-9.89258C24.5605-10.3711 24.1895-10.5273 23.7109-10.4883L23.1348-10.4395L22.4902-11.0742L22.7344-12.1973C22.8613-12.7637 22.7051-13.2031 22.1191-13.7891L19.9219-15.9766C16.582-19.2969 12.1484-19.2188 9.25781-16.3281C8.83789-15.918 8.80859-15.3418 9.04297-14.9512C9.27734-14.5898 9.73633-14.3555 10.3809-14.5215C11.8457-14.8633 13.3691-14.9219 14.7949-13.9844L14.209-12.5293C14.0137-12.0508 13.9844-11.6504 14.1113-11.2891L3.04688-0.898438C2.06055 0.0195312 1.98242 0.996094 2.8418 1.86523ZM10.752-15.957C13.1836-17.7344 16.4746-17.4316 18.7012-15.2051L21.1328-12.793C21.3672-12.5586 21.4062-12.373 21.3379-12.0312L21.0156-10.5469L22.5195-9.0625L23.5059-9.12109C23.7598-9.13086 23.8379-9.11133 24.0332-8.91602L24.6094-8.33984L22.168-5.89844L21.5918-6.47461C21.3965-6.66992 21.3672-6.74805 21.377-7.01172L21.4453-7.98828L19.9512-9.47266L18.4277-9.21875C18.1055-9.15039 17.959-9.17969 17.7148-9.41406L15.7129-11.416C15.459-11.6504 15.4297-11.8164 15.5859-12.1875L16.4648-14.2773C14.9023-15.7324 12.8711-16.3574 10.8398-15.7617C10.6836-15.7227 10.625-15.8496 10.752-15.957ZM5.27344 2.30469L4.10156 1.14258C3.63281 0.683594 3.74023 0.341797 4.14062-0.0195312L14.9512-10.1953L16.416-8.71094L6.42578 2.27539C6.07422 2.67578 5.74219 2.77344 5.27344 2.30469Z"/>
  </g>
  <text style="stroke:none;fill:black;font-family:-apple-system,&quot;SF Pro Display&quot;,&quot;SF Pro Text&quot;,Helvetica,sans-serif;font-weight:bold;" transform="matrix(1 0 0 1 1289 1953)">Exporting</text>
  <text style="stroke:none;fill:black;font-family:-apple-system,&quot;SF Pro Display&quot;,&quot;SF Pro Text&quot;,Helvetica,sans-serif;" transform="matrix(1 0 0 1 1289 1971)">Symbols should be outlined when exporting to ensure the</text>
  <text style="stroke:none;fill:black;font-family:-apple-system,&quot;SF Pro Display&quot;,&quot;SF Pro Text&quot;,Helvetica,sans-serif;" transform="matrix(1 0 0 1 1289 1989)">design is preserved when submitting to Xcode.</text>
  <text id="template-version" style="stroke:none;fill:black;font-family:-apple-system,&quot;SF Pro Display&quot;,&quot;SF Pro Text&quot;,Helvetica,sans-serif;text-anchor:end;" transform="matrix(1 0 0 1 3036 1933)">Template v.2.0</text>
  <text style="stroke:none;fill:black;font-family:-apple-system,&quot;SF Pro Display&quot;,&quot;SF Pro Text&quot;,Helvetica,sans-serif;text-anchor:end;" transform="matrix(1 0 0 1 3036 1951)">Requires Xcode 12 or greater</text>
  <text style="stroke:none;fill:black;font-family:-apple-system,&quot;SF Pro Display&quot;,&quot;SF Pro Text&quot;,Helvetica,sans-serif;text-anchor:end;" transform="matrix(1 0 0 1 3036 1969)">Generated from arrow.up.backward.circle.fill</text>
  <text style="stroke:none;fill:black;font-family:-apple-system,&quot;SF Pro Display&quot;,&quot;SF Pro Text&quot;,Helvetica,sans-serif;text-anchor:end;" transform="matrix(1 0 0 1 3036 1987)">Typeset at 100 points</text>
  <text style="stroke:none;fill:black;font-family:-apple-system,&quot;SF Pro Display&quot;,&quot;SF Pro Text&quot;,Helvetica,sans-serif;" transform="matrix(1 0 0 1 263 726)">Small</text>
  <text style="stroke:none;fill:black;font-family:-apple-system,&quot;SF Pro Display&quot;,&quot;SF Pro Text&quot;,Helvetica,sans-serif;" transform="matrix(1 0 0 1 263 1156)">Medium</text>
  <text style="stroke:none;fill:black;font-family:-apple-system,&quot;SF Pro Display&quot;,&quot;SF Pro Text&quot;,Helvetica,sans-serif;" transform="matrix(1 0 0 1 263 1586)">Large</text>
 </g>
 <g id="Guides">
  <g id="H-reference" style="fill:#27AAE1;stroke:none;" transform="matrix(1 0 0 1 339 696)">
   <path d="M0.976562 0L3.66211 0L12.9883-24.4629L45.752-24.4629L55.127 0L57.7637 0L30.6152-70.459L28.125-70.459ZM29.3457-67.1387L29.4434-67.1387L44.873-26.709L13.8672-26.709Z"/>
  </g>
  <line id="Baseline-S" style="fill:none;stroke:#27AAE1;opacity:1;stroke-width:0.5;" x1="263" x2="3036" y1="696" y2="696"/>
  <line id="Capline-S" style="fill:none;stroke:#27AAE1;opacity:1;stroke-width:0.5;" x1="263" x2="3036" y1="625.541" y2="625.541"/>
  <g id="H-reference" style="fill:#27AAE1;stroke:none;" transform="matrix(1 0 0 1 339 1126)">
   <path d="M0.976562 0L3.66211 0L12.9883-24.4629L45.752-24.4629L55.127 0L57.7637 0L30.6152-70.459L28.125-70.459ZM29.3457-67.1387L29.4434-67.1387L44.873-26.709L13.8672-26.709Z"/>
  </g>
  <line id="Baseline-M" style="fill:none;stroke:#27AAE1;opacity:1;stroke-width:0.5;" x1="263" x2="3036" y1="1126" y2="1126"/>
  <line id="Capline-M" style="fill:none;stroke:#27AAE1;opacity:1;stroke-width:0.5;" x1="263" x2="3036" y1="1055.54" y2="1055.54"/>
  <g id="H-reference" style="fill:#27AAE1;stroke:none;" transform="matrix(1 0 0 1 339 1556)">
   <path d="M0.976562 0L3.66211 0L12.9883-24.4629L45.752-24.4629L55.127 0L57.7637 0L30.6152-70.459L28.125-70.459ZM29.3457-67.1387L29.4434-67.1387L44.873-26.709L13.8672-26.709Z"/>
  </g>
  <line id="Baseline-L" style="fill:none;stroke:#27AAE1;opacity:1;stroke-width:0.5;" x1="263" x2="3036" y1="1556" y2="1556"/>
  <line id="Capline-L" style="fill:none;stroke:#27AAE1;opacity:1;stroke-width:0.5;" x1="263" x2="3036" y1="1485.54" y2="1485.54"/>
  <line id="left-margin" style="fill:none;stroke:#00AEEF;stroke-width:0.5;opacity:1.0;" x1="1391.3" x2="1391.3" y1="1030.79" y2="1150.12"/>
  <line id="right-margin" style="fill:none;stroke:#00AEEF;stroke-width:0.5;opacity:1.0;" x1="1508.39" x2="1508.39" y1="1030.79" y2="1150.12"/>
 </g>
 <g id="Symbols">
  <g id="Black-L" transform="matrix(1 0 0 1 2854.05 1556)">
   <path d="M79.3457 32.8613C116.748 32.8613 147.412 2.19727 147.412-35.2051C147.412-72.6074 116.748-103.271 79.2969-103.271C41.8945-103.271 11.2793-72.6074 11.2793-35.2051C11.2793 2.19727 41.9434 32.8613 79.3457 32.8613ZM58.6914-14.5996C54.0039-14.5996 51.0254-18.0664 51.0254-23.3887L51.0254-52.9785C51.0254-59.9121 55.0781-63.8184 61.9629-63.8184L91.6504-63.8184C97.0703-63.8184 100.586-60.8398 100.586-56.0547C100.586-51.2695 97.1191-48.291 91.7969-48.291L84.1309-48.291L77.3438-49.4141L85.8398-42.2363L104.688-23.4375C106.494-21.6309 107.568-19.0918 107.568-16.6504C107.568-11.2305 103.369-7.61719 98.3887-7.61719C95.752-7.61719 93.457-8.44727 91.2598-10.5957L72.7051-29.1016L65.5273-37.5977L66.4551-30.6152L66.4551-23.4375C66.4551-18.0664 63.5254-14.5996 58.6914-14.5996Z"/>
  </g>
  <g id="Heavy-L" transform="matrix(1 0 0 1 2558.39 1556)">
   <path d="M78.2715 31.7871C115.088 31.7871 145.312 1.5625 145.312-35.2051C145.312-72.0215 115.039-102.246 78.2715-102.246C41.4551-102.246 11.2793-72.0215 11.2793-35.2051C11.2793 1.5625 41.5039 31.7871 78.2715 31.7871ZM57.6172-15.7715C53.418-15.7715 50.7812-18.8477 50.7812-23.5352L50.7812-53.5645C50.7812-59.6191 54.2969-62.8906 60.2539-62.8906L90.3809-62.8906C95.166-62.8906 98.2422-60.2539 98.2422-56.0059C98.2422-51.8066 95.166-49.1699 90.4785-49.1699L81.2988-49.1699L73.877-50.1953L82.5684-42.627L103.125-22.1191C104.736-20.5078 105.664-18.3105 105.664-16.2109C105.664-11.4746 102.1-8.30078 97.7051-8.30078C95.3613-8.30078 93.3594-9.08203 91.5039-10.8887L71.1426-31.25L63.623-39.8926L64.502-32.0801L64.502-23.5352C64.502-18.7988 61.8652-15.7715 57.6172-15.7715Z"/>
  </g>
  <g id="Bold-L" transform="matrix(1 0 0 1 2262.88 1556)">
   <path d="M77.0996 30.5664C113.232 30.5664 142.92 0.878906 142.92-35.2539C142.92-71.3379 113.184-101.074 77.0508-101.074C40.9668-101.074 11.2793-71.3379 11.2793-35.2539C11.2793 0.878906 41.0156 30.5664 77.0996 30.5664ZM56.3965-17.041C52.7832-17.041 50.5371-19.6777 50.5371-23.6816L50.5371-54.1992C50.5371-59.3262 53.418-61.9141 58.3008-61.9141L88.9648-61.9141C92.9688-61.9141 95.5566-59.6191 95.5566-56.0059C95.5566-52.3926 92.9688-50.0977 88.9648-50.0977L78.125-50.0977L70.0195-51.0254L78.9062-43.1152L101.416-20.6055C102.734-19.2871 103.564-17.4805 103.564-15.7227C103.564-11.7188 100.635-9.08203 96.9238-9.08203C94.9219-9.08203 93.2617-9.76562 91.748-11.2305L69.3848-33.5938L61.4746-42.4316L62.3047-33.7402L62.3047-23.6816C62.3047-19.6289 60.0098-17.041 56.3965-17.041Z"/>
  </g>
  <g id="Semibold-L" transform="matrix(1 0 0 1 1966.97 1556)">
   <path d="M76.2695 29.7363C111.914 29.7363 141.309 0.390625 141.309-35.2539C141.309-70.8984 111.865-100.244 76.2695-100.244C40.625-100.244 11.2793-70.8984 11.2793-35.2539C11.2793 0.390625 40.6738 29.7363 76.2695 29.7363ZM55.5176-17.9688C52.3926-17.9688 50.3418-20.3125 50.3418-23.7793L50.3418-54.6875C50.3418-59.082 52.832-61.2305 56.9336-61.2305L87.9883-61.2305C91.5039-61.2305 93.75-59.1797 93.75-56.0059C93.75-52.7832 91.4551-50.7324 87.9395-50.7324L75.9277-50.7324L67.334-51.6113L76.3672-43.4082L100.244-19.5801C101.416-18.4082 102.1-16.8945 102.1-15.332C102.1-11.9141 99.6582-9.61914 96.3867-9.61914C94.6289-9.61914 93.1641-10.2539 91.9434-11.4746L68.1641-35.2539L60.0098-44.1895L60.791-34.8633L60.791-23.7305C60.791-20.2148 58.7402-17.9688 55.5176-17.9688Z"/>
  </g>
  <g id="Medium-L" transform="matrix(1 0 0 1 1670.87 1556)">
   <path d="M75.6836 29.1504C110.938 29.1504 140.088 0 140.088-35.2539C140.088-70.5078 110.889-99.6582 75.6348-99.6582C40.3809-99.6582 11.2793-70.5078 11.2793-35.2539C11.2793 0 40.3809 29.1504 75.6836 29.1504ZM54.8828-18.6523C52.0508-18.6523 50.1953-20.752 50.1953-23.877L50.1953-54.9805C50.1953-58.8867 52.3926-60.6934 55.9082-60.6934L87.207-60.6934C90.332-60.6934 92.3828-58.8379 92.3828-55.957C92.3828-53.125 90.332-51.2207 87.1582-51.2207L74.2676-51.2207L65.332-52.0996L74.4141-43.6523L99.3652-18.7988C100.342-17.7734 100.977-16.4551 100.977-15.0879C100.977-12.0117 98.9258-10.0098 95.9961-10.0098C94.3848-10.0098 93.1152-10.5957 92.041-11.6211L67.2363-36.4746L58.8867-45.5078L59.668-35.6934L59.668-23.7793C59.668-20.6055 57.8125-18.6523 54.8828-18.6523Z"/>
  </g>
  <g id="Regular-L" transform="matrix(1 0 0 1 1374.97 1556)">
   <path d="M74.8535 28.3203C109.668 28.3203 138.477-0.488281 138.477-35.2539C138.477-70.0684 109.619-98.877 74.8047-98.877C40.0391-98.877 11.2793-70.0684 11.2793-35.2539C11.2793-0.488281 40.0879 28.3203 74.8535 28.3203ZM54.0527-19.5312C51.6113-19.5312 50-21.3379 50-23.9746L50-55.4688C50-58.6914 51.7578-60.0098 54.5898-60.0098L86.2305-60.0098C88.8672-60.0098 90.5762-58.3984 90.5762-55.957C90.5762-53.5156 88.8184-51.8555 86.1328-51.8555L72.1191-51.8555L62.6953-52.6855L71.9238-43.9941L98.1934-17.7734C99.0234-16.9434 99.5605-15.8691 99.5605-14.7461C99.5605-12.207 97.9004-10.5469 95.459-10.5469C94.0918-10.5469 93.0664-11.0352 92.2363-11.8652L66.0156-38.0859L57.4219-47.2656L58.1543-36.8164L58.1543-23.877C58.1543-21.1914 56.543-19.5312 54.0527-19.5312Z"/>
  </g>
  <g id="Light-L" transform="matrix(1 0 0 1 1079.18 1556)">
   <path d="M73.9258 27.3926C108.301 27.3926 136.621-0.927734 136.621-35.2539C136.621-69.6289 108.252-97.9492 73.9258-97.9492C39.5508-97.9492 11.2793-69.6289 11.2793-35.2539C11.2793-0.927734 39.5996 27.3926 73.9258 27.3926ZM52.6855-19.9707C50.8301-19.9707 49.6094-21.3867 49.6094-23.3887L49.6094-56.1035C49.6094-58.4961 50.9277-59.5703 53.0273-59.5703L85.8887-59.5703C87.8906-59.5703 89.209-58.3496 89.209-56.4941C89.209-54.5898 87.8906-53.3203 85.8398-53.3203L68.6523-53.3203L59.4727-53.8086L67.5293-46.1914L97.0703-16.6504C97.7051-16.0156 98.1445-15.1855 98.1445-14.3066C98.1445-12.3535 96.875-11.084 94.9707-11.084C93.8965-11.084 93.0664-11.4746 92.4316-12.1094L62.9883-41.6016L55.4199-49.6094L55.8594-38.7695L55.8594-23.3398C55.8594-21.2891 54.6387-19.9707 52.6855-19.9707Z"/>
  </g>
  <g id="Thin-L" transform="matrix(1 0 0 1 783.693 1556)">
   <path d="M72.7051 26.1719C106.494 26.1719 134.18-1.51367 134.18-35.2539C134.18-69.043 106.494-96.7285 72.7051-96.7285C38.9648-96.7285 11.2793-69.043 11.2793-35.2539C11.2793-1.51367 38.9648 26.1719 72.7051 26.1719ZM50.9277-20.6055C49.8047-20.6055 49.0723-21.4355 49.0723-22.6562L49.0723-56.9824C49.0723-58.252 49.8535-58.9844 50.9766-58.9844L85.4004-58.9844C86.6211-58.9844 87.4023-58.3008 87.4023-57.1777C87.4023-56.0547 86.6211-55.2734 85.4004-55.2734L64.0625-55.2734L55.2734-55.3711L61.7188-49.1211L95.6055-15.2344C95.9961-14.8438 96.2891-14.3555 96.2891-13.7207C96.2891-12.5488 95.5078-11.7676 94.3359-11.7676C93.6035-11.7676 93.1152-12.0605 92.7246-12.4023L58.9355-46.2402L52.7344-52.6855L52.832-41.3574L52.832-22.6562C52.832-21.3867 52.0996-20.6055 50.9277-20.6055Z"/>
  </g>
  <g id="Ultralight-L" transform="matrix(1 0 0 1 487.616 1556)">
   <path d="M72.1191 25.5371C105.566 25.5371 132.91-1.80664 132.91-35.2539C132.91-68.75 105.566-96.0938 72.1191-96.0938C38.623-96.0938 11.2793-68.75 11.2793-35.2539C11.2793-1.80664 38.623 25.5371 72.1191 25.5371ZM50-20.9473C49.3164-20.9473 48.7793-21.4355 48.7793-22.3145L48.7793-57.4219C48.7793-58.1055 49.2676-58.6914 49.9512-58.6914L85.1562-58.6914C85.9863-58.6914 86.5234-58.252 86.5234-57.5684C86.5234-56.7871 85.9863-56.25 85.1562-56.25L61.6699-56.25L53.0762-56.1523L58.7402-50.6348L94.873-14.502C95.1172-14.209 95.3125-13.916 95.3125-13.4277C95.3125-12.6465 94.8242-12.1094 94.043-12.1094C93.457-12.1094 93.1641-12.3047 92.8711-12.5977L56.8359-48.6328L51.3672-54.2969L51.3184-42.6758L51.3184-22.3145C51.3184-21.4844 50.7812-20.9473 50-20.9473Z"/>
  </g>
  <g id="Black-M" transform="matrix(1 0 0 1 2870.97 1126)">
   <path d="M62.4023 18.457C91.9922 18.457 116.113-5.61523 116.113-35.2051C116.113-64.7949 91.9922-88.8672 62.4023-88.8672C32.8125-88.8672 8.74023-64.7949 8.74023-35.2051C8.74023-5.61523 32.8125 18.457 62.4023 18.457ZM46.2402-17.9688C42.1875-17.9688 39.6484-20.8984 39.6484-25.5371L39.6484-48.584C39.6484-54.6875 43.3105-58.3496 49.5605-58.3496L72.5586-58.3496C77.3438-58.3496 80.4199-55.8105 80.4199-51.6602C80.4199-47.5098 77.3926-45.0195 72.7539-45.0195L67.1875-45.0195L62.8906-45.8008L68.6035-41.3086L82.6172-27.3438C84.2285-25.6836 85.1562-23.4375 85.1562-21.1914C85.1562-16.4062 81.3477-13.1348 76.9043-13.1348C74.6582-13.1348 72.5586-13.916 70.5566-15.8691L56.8359-29.4922L52.2949-35.2539L52.9297-30.7129L52.9297-25.6836C52.9297-20.9961 50.3906-17.9688 46.2402-17.9688Z"/>
  </g>
  <g id="Heavy-M" transform="matrix(1 0 0 1 2575.19 1126)">
   <path d="M61.5234 17.5293C90.5273 17.5293 114.258-6.20117 114.258-35.2051C114.258-64.2578 90.5273-87.9883 61.4746-87.9883C32.4707-87.9883 8.74023-64.2578 8.74023-35.2051C8.74023-6.20117 32.4707 17.5293 61.5234 17.5293ZM45.4102-19.0918C41.748-19.0918 39.502-21.7285 39.502-25.8789L39.502-49.0234C39.502-54.3945 42.6758-57.4707 48.0469-57.4707L71.2402-57.4707C75.4883-57.4707 78.1738-55.2246 78.1738-51.5137C78.1738-47.8027 75.5371-45.5566 71.3867-45.5566L64.9902-45.5566L59.9609-46.3379L66.1621-41.1621L81.2012-26.123C82.6172-24.707 83.4473-22.7539 83.4473-20.8496C83.4473-16.6504 80.1758-13.7695 76.2695-13.7695C74.2676-13.7695 72.4609-14.4531 70.752-16.1133L55.9082-30.9082L50.7324-37.1094L51.3672-31.7871L51.3672-25.9277C51.3672-21.7773 49.1211-19.0918 45.4102-19.0918Z"/>
  </g>
  <g id="Bold-M" transform="matrix(1 0 0 1 2279.5 1126)">
   <path d="M60.498 16.5039C88.8672 16.5039 112.207-6.83594 112.207-35.2051C112.207-63.623 88.8672-86.9629 60.4492-86.9629C32.0312-86.9629 8.74023-63.623 8.74023-35.2051C8.74023-6.83594 32.0801 16.5039 60.498 16.5039ZM44.4824-20.3613C41.3086-20.3613 39.3066-22.6562 39.3066-26.1719L39.3066-49.5605C39.3066-54.1016 41.9434-56.4941 46.3867-56.4941L69.8242-56.4941C73.3887-56.4941 75.6836-54.541 75.6836-51.3184C75.6836-48.1445 73.3887-46.1426 69.873-46.1426L62.5-46.1426L56.6406-46.9727L63.4277-41.0156L79.6875-24.8047C80.8594-23.6328 81.543-21.9727 81.543-20.4102C81.543-16.8457 78.9062-14.502 75.5859-14.502C73.8281-14.502 72.3145-15.0879 70.9473-16.4062L54.8828-32.4707L48.9746-39.209L49.6582-33.0566L49.6582-26.2207C49.6582-22.6562 47.6562-20.3613 44.4824-20.3613Z"/>
  </g>
  <g id="Semibold-M" transform="matrix(1 0 0 1 1983.5 1126)">
   <path d="M59.7656 15.8203C87.7441 15.8203 110.791-7.27539 110.791-35.2539C110.791-63.2324 87.6953-86.2793 59.7656-86.2793C31.7871-86.2793 8.74023-63.2324 8.74023-35.2539C8.74023-7.27539 31.7871 15.8203 59.7656 15.8203ZM43.7988-21.2402C41.0156-21.2402 39.209-23.3398 39.209-26.416L39.209-49.9023C39.209-53.8574 41.4551-55.8594 45.2148-55.8594L68.7988-55.8594C71.9238-55.8594 73.9746-54.0527 73.9746-51.2207C73.9746-48.3887 71.9238-46.582 68.7988-46.582L60.8398-46.582L54.3945-47.3633L61.5723-40.918L78.6133-23.9258C79.6387-22.9004 80.2734-21.4844 80.2734-20.1172C80.2734-17.041 78.0273-14.9902 75.0977-14.9902C73.5352-14.9902 72.2656-15.4785 71.0938-16.6504L54.1504-33.5449L47.7539-40.6738L48.4863-33.8867L48.4863-26.3672C48.4863-23.2422 46.6797-21.2402 43.7988-21.2402Z"/>
  </g>
  <g id="Medium-M" transform="matrix(1 0 0 1 1687.3 1126)">
   <path d="M59.2285 15.2344C86.9141 15.2344 109.766-7.61719 109.766-35.2539C109.766-62.8906 86.8652-85.7422 59.1797-85.7422C31.543-85.7422 8.74023-62.8906 8.74023-35.2539C8.74023-7.61719 31.5918 15.2344 59.2285 15.2344ZM43.3105-21.9238C40.7715-21.9238 39.1113-23.8281 39.1113-26.6113L39.1113-50.1465C39.1113-53.7109 41.1133-55.3711 44.3359-55.3711L68.0664-55.3711C70.8496-55.3711 72.6562-53.7109 72.6562-51.123C72.6562-48.5352 70.8496-46.875 68.0176-46.875L59.5215-46.875L52.6367-47.6562L60.1074-40.8691L77.7832-23.1934C78.7109-22.3145 79.248-21.0938 79.248-19.873C79.248-17.1387 77.3438-15.332 74.7559-15.332C73.3398-15.332 72.168-15.8203 71.1914-16.7969L53.6133-34.375L46.875-41.7969L47.5586-34.5215L47.5586-26.5137C47.5586-23.6816 45.8984-21.9238 43.3105-21.9238Z"/>
  </g>
  <g id="Regular-M" transform="matrix(1 0 0 1 1391.3 1126)">
   <path d="M58.5449 14.5508C85.791 14.5508 108.35-8.05664 108.35-35.2539C108.35-62.5 85.7422-85.0586 58.4961-85.0586C31.2988-85.0586 8.74023-62.5 8.74023-35.2539C8.74023-8.05664 31.3477 14.5508 58.5449 14.5508ZM42.6758-22.7539C40.4785-22.7539 38.9648-24.4629 38.9648-26.8066L38.9648-50.5371C38.9648-53.5156 40.625-54.6875 43.2129-54.6875L67.041-54.6875C69.4336-54.6875 70.9473-53.2227 70.9473-50.9766C70.9473-48.7793 69.3848-47.3145 66.9434-47.3145L57.8613-47.3145L50.3906-48.0957L58.252-40.7715L76.7578-22.3145C77.4902-21.582 77.9785-20.5566 77.9785-19.5801C77.9785-17.2852 76.4648-15.8203 74.2676-15.8203C73.0469-15.8203 72.0703-16.2598 71.3379-16.9922L52.9297-35.4492L45.6543-43.2129L46.3867-35.3516L46.3867-26.709C46.3867-24.3164 44.9219-22.7539 42.6758-22.7539Z"/>
  </g>
  <g id="Light-M" transform="matrix(1 0 0 1 1095.42 1126)">
   <path d="M57.7148 13.7207C84.5215 13.7207 106.689-8.44727 106.689-35.2539C106.689-62.1094 84.5215-84.2285 57.666-84.2285C30.8594-84.2285 8.74023-62.1094 8.74023-35.2539C8.74023-8.44727 30.9082 13.7207 57.7148 13.7207ZM41.4551-23.1934C39.7461-23.1934 38.623-24.4629 38.623-26.3184L38.623-51.123C38.623-53.3691 39.8438-54.2969 41.7969-54.2969L66.748-54.2969C68.5547-54.2969 69.7266-53.1738 69.7266-51.4648C69.7266-49.7559 68.5547-48.584 66.6504-48.584L54.7363-48.584L47.5586-49.1211L54.2969-42.7246L75.7324-21.3379C76.3184-20.752 76.709-20.0195 76.709-19.1895C76.709-17.4316 75.5371-16.3086 73.8281-16.3086C72.8516-16.3086 72.1191-16.6504 71.5332-17.1875L50.1953-38.623L43.8477-45.3125L44.3359-37.1094L44.3359-26.2695C44.3359-24.3652 43.2129-23.1934 41.4551-23.1934Z"/>
  </g>
  <g id="Thin-M" transform="matrix(1 0 0 1 799.806 1126)">
   <path d="M56.6406 12.5977C82.9102 12.5977 104.492-8.98438 104.492-35.2539C104.492-61.5723 82.9102-83.1543 56.5918-83.1543C30.3223-83.1543 8.74023-61.5723 8.74023-35.2539C8.74023-8.98438 30.3223 12.5977 56.6406 12.5977ZM39.8438-23.7793C38.8184-23.7793 38.1348-24.5117 38.1348-25.6836L38.1348-51.9043C38.1348-53.125 38.8672-53.7598 39.9414-53.7598L66.3086-53.7598C67.4316-53.7598 68.1641-53.125 68.1641-52.0996C68.1641-51.0254 67.4316-50.3418 66.2598-50.3418L50.6348-50.3418L43.75-50.4883L49.0723-45.3613L74.4141-20.0195C74.8047-19.6777 75.0488-19.2383 75.0488-18.7012C75.0488-17.627 74.3164-16.8945 73.291-16.8945C72.6074-16.8945 72.168-17.1387 71.8262-17.4805L46.5332-42.7734L41.4551-48.0957L41.6016-39.4043L41.6016-25.6348C41.6016-24.5117 40.918-23.7793 39.8438-23.7793Z"/>
  </g>
  <g id="Ultralight-M" transform="matrix(1 0 0 1 503.656 1126)">
   <path d="M56.0547 12.0605C82.0801 12.0605 103.369-9.22852 103.369-35.2539C103.369-61.2793 82.0801-82.5684 56.0547-82.5684C30.0293-82.5684 8.74023-61.2793 8.74023-35.2539C8.74023-9.22852 30.0293 12.0605 56.0547 12.0605ZM39.0137-24.0723C38.3789-24.0723 37.8906-24.5605 37.8906-25.3418L37.8906-52.2949C37.8906-53.0273 38.3789-53.5156 39.0137-53.5156L66.0645-53.5156C66.8457-53.5156 67.334-53.0762 67.334-52.4414C67.334-51.709 66.8457-51.2207 66.0645-51.2207L41.7969-51.2207L46.4355-46.7285L73.7305-19.3848C73.9746-19.1406 74.1699-18.8477 74.1699-18.4082C74.1699-17.6758 73.6816-17.2363 72.998-17.2363C72.5098-17.2363 72.168-17.3828 71.9727-17.627L44.6777-44.9219L40.2344-49.5117L40.2344-25.3418C40.2344-24.5605 39.7461-24.0723 39.0137-24.0723Z"/>
  </g>
  <g id="Black-S" transform="matrix(1 0 0 1 2884.57 696)">
   <path d="M48.8281 6.78711C71.9727 6.78711 90.8203-12.0605 90.8203-35.2051C90.8203-58.3496 71.9727-77.1973 48.8281-77.1973C25.6836-77.1973 6.83594-58.3496 6.83594-35.2051C6.83594-12.0605 25.6836 6.78711 48.8281 6.78711ZM36.1816-21.7773C33.0078-21.7773 31.0547-24.0723 31.0547-27.6855L31.0547-45.7031C31.0547-50.4395 33.8867-53.2715 38.7207-53.2715L56.7383-53.2715C60.4492-53.2715 62.8418-51.3184 62.8418-48.0957C62.8418-44.873 60.498-42.9199 56.8848-42.9199L52.4902-42.9199L49.0723-43.5547L53.6133-39.9414L64.5996-28.9551C65.8691-27.6855 66.6016-25.9277 66.6016-24.2188C66.6016-20.5078 63.623-17.9688 60.2051-17.9688C58.4473-17.9688 56.8359-18.5547 55.2734-20.0684L44.4824-30.8105L40.8691-35.3516L41.3574-31.7383L41.3574-27.7832C41.3574-24.1211 39.4043-21.7773 36.1816-21.7773Z"/>
  </g>
  <g id="Heavy-S" transform="matrix(1 0 0 1 2588.47 696)">
   <path d="M48.2422 6.15234C70.9961 6.15234 89.5996-12.4512 89.5996-35.2051C89.5996-57.959 70.9961-76.6113 48.1934-76.6113C25.4395-76.6113 6.83594-57.959 6.83594-35.2051C6.83594-12.4512 25.4395 6.15234 48.2422 6.15234ZM35.6445-22.6074C32.7637-22.6074 30.957-24.707 30.957-27.9785L30.957-45.9961C30.957-50.2441 33.4961-52.6367 37.7441-52.6367L55.7617-52.6367C59.1309-52.6367 61.2793-50.8789 61.2793-47.9004C61.2793-44.9707 59.1309-43.1641 55.8594-43.1641L51.1719-43.1641L47.1191-43.8477L52.1973-39.5996L63.6719-28.1738C64.7949-27.0508 65.4297-25.4883 65.4297-23.9746C65.4297-20.6543 62.8418-18.4082 59.7656-18.4082C58.1543-18.4082 56.7383-18.9453 55.4199-20.2637L44.0918-31.543L39.8926-36.5723L40.4297-32.373L40.4297-28.0273C40.4297-24.707 38.623-22.6074 35.6445-22.6074Z"/>
  </g>
  <g id="Bold-S" transform="matrix(1 0 0 1 2292.44 696)">
   <path d="M47.5586 5.46875C69.873 5.46875 88.2324-12.8906 88.2324-35.2539C88.2324-57.5684 69.873-75.9277 47.5098-75.9277C25.1953-75.9277 6.83594-57.5684 6.83594-35.2539C6.83594-12.8906 25.1953 5.46875 47.5586 5.46875ZM35.1074-23.5352C32.5195-23.5352 30.8594-25.4395 30.8594-28.2715L30.8594-46.2891C30.8594-50.0488 33.0078-51.9531 36.6211-51.9531L54.6875-51.9531C57.6172-51.9531 59.5215-50.3418 59.5215-47.7051C59.5215-45.1172 57.6172-43.5059 54.7363-43.5059L49.6582-43.5059L44.9707-44.1895L50.5859-39.2578L62.5977-27.2461C63.5742-26.3184 64.1602-25 64.1602-23.6816C64.1602-20.8008 62.0117-18.8965 59.2773-18.8965C57.8613-18.8965 56.6406-19.3848 55.5176-20.459L43.6523-32.373L38.7695-37.8906L39.3555-33.1055L39.3555-28.2715C39.3555-25.3906 37.6953-23.5352 35.1074-23.5352Z"/>
  </g>
  <g id="Semibold-S" transform="matrix(1 0 0 1 1996.2 696)">
   <path d="M47.0703 4.98047C69.0918 4.98047 87.3047-13.1836 87.3047-35.2539C87.3047-57.2754 69.0918-75.4883 47.0215-75.4883C25-75.4883 6.83594-57.2754 6.83594-35.2539C6.83594-13.1836 25.0488 4.98047 47.0703 4.98047ZM34.668-24.1699C32.3242-24.1699 30.8105-25.9277 30.8105-28.5156L30.8105-46.5332C30.8105-49.9023 32.7148-51.5137 35.8398-51.5137L53.9551-51.5137C56.5918-51.5137 58.3008-50 58.3008-47.5586C58.3008-45.2148 56.5918-43.7012 53.9551-43.7012L48.6328-43.7012L43.457-44.3848L49.4629-39.0137L61.8652-26.6602C62.6953-25.7812 63.2324-24.6582 63.2324-23.4863C63.2324-20.8984 61.377-19.2383 58.9844-19.2383C57.666-19.2383 56.5918-19.6777 55.6152-20.6055L43.3105-32.9102L37.9883-38.8184L38.623-33.6426L38.623-28.4668C38.623-25.8301 37.1094-24.1699 34.668-24.1699Z"/>
  </g>
  <g id="Medium-S" transform="matrix(1 0 0 1 1699.83 696)">
   <path d="M46.7285 4.63867C68.5547 4.63867 86.6211-13.4277 86.6211-35.2539C86.6211-57.0801 68.5059-75.1465 46.6797-75.1465C24.8535-75.1465 6.83594-57.0801 6.83594-35.2539C6.83594-13.4277 24.9023 4.63867 46.7285 4.63867ZM34.375-24.6582C32.1777-24.6582 30.7617-26.2695 30.7617-28.6621L30.7617-46.6797C30.7617-49.7559 32.4707-51.123 35.2539-51.123L53.418-51.123C55.8105-51.123 57.373-49.707 57.373-47.4609C57.373-45.2637 55.7617-43.8477 53.3691-43.8477L47.8516-43.8477L42.334-44.5801L48.6328-38.8184L61.3281-26.1719C62.0605-25.4395 62.5488-24.3652 62.5488-23.3887C62.5488-20.9961 60.9375-19.4824 58.6914-19.4824C57.5195-19.4824 56.543-19.873 55.7129-20.7031L43.1152-33.3496L37.4023-39.5508L38.0371-33.9844L38.0371-28.6133C38.0371-26.1719 36.6211-24.6582 34.375-24.6582Z"/>
  </g>
  <g id="Regular-S" transform="matrix(1 0 0 1 1403.58 696)">
   <path d="M46.2402 4.15039C67.7734 4.15039 85.6934-13.7207 85.6934-35.2539C85.6934-56.7871 67.7246-74.6582 46.1914-74.6582C24.707-74.6582 6.83594-56.7871 6.83594-35.2539C6.83594-13.7207 24.7559 4.15039 46.2402 4.15039ZM33.9844-25.2441C32.0312-25.2441 30.7129-26.7578 30.7129-28.8574L30.7129-46.9238C30.7129-49.6094 32.1777-50.6836 34.5215-50.6836L52.6855-50.6836C54.7852-50.6836 56.1523-49.3652 56.1523-47.3633C56.1523-45.3613 54.7363-44.043 52.5879-44.043L46.8262-44.043L40.8691-44.7754L47.5098-38.5742L60.5957-25.5859C61.2305-24.9023 61.6699-24.0234 61.6699-23.1934C61.6699-21.0938 60.3516-19.7754 58.3984-19.7754C57.2754-19.7754 56.4453-20.166 55.8105-20.8496L42.7734-33.8867L36.6211-40.4785L37.3047-34.5215L37.3047-28.8086C37.3047-26.6113 36.0352-25.2441 33.9844-25.2441Z"/>
  </g>
  <g id="Light-S" transform="matrix(1 0 0 1 1107.6 696)">
   <path d="M45.5078 3.41797C66.6992 3.41797 84.2285-14.0625 84.2285-35.2539C84.2285-56.4453 66.6504-73.9258 45.5078-73.9258C24.3164-73.9258 6.83594-56.4453 6.83594-35.2539C6.83594-14.0625 24.3652 3.41797 45.5078 3.41797ZM32.9102-25.6348C31.3965-25.6348 30.3711-26.8066 30.3711-28.418L30.3711-47.4609C30.3711-49.4629 31.4941-50.3418 33.252-50.3418L52.3926-50.3418C54.0527-50.3418 55.0781-49.3164 55.0781-47.7539C55.0781-46.2402 54.0039-45.2148 52.3438-45.2148L44.0918-45.2148L38.3301-45.7031L44.043-40.332L59.7168-24.707C60.2051-24.2188 60.5469-23.5352 60.5469-22.8516C60.5469-21.2402 59.5215-20.2148 58.0078-20.2148C57.1289-20.2148 56.4941-20.5078 55.957-21.0449L40.332-36.6699L35.0586-42.334L35.498-36.0352L35.498-28.3691C35.498-26.709 34.4727-25.6348 32.9102-25.6348Z"/>
  </g>
  <g id="Thin-S" transform="matrix(1 0 0 1 811.867 696)">
   <path d="M44.5801 2.49023C65.2832 2.49023 82.2754-14.5508 82.2754-35.2539C82.2754-55.957 65.2344-72.998 44.5312-72.998C23.8281-72.998 6.83594-55.957 6.83594-35.2539C6.83594-14.5508 23.877 2.49023 44.5801 2.49023ZM31.4941-26.123C30.6152-26.123 29.9805-26.8066 29.9805-27.8809L29.9805-48.1445C29.9805-49.3164 30.6152-49.8535 31.6406-49.8535L52.002-49.8535C53.0273-49.8535 53.6621-49.2676 53.6621-48.3398C53.6621-47.3633 53.0273-46.7285 52.002-46.7285L40.4297-46.7285L34.9609-46.9238L39.4531-42.6758L58.5449-23.584C58.8867-23.2422 59.082-22.8516 59.082-22.3633C59.082-21.3867 58.4473-20.752 57.5195-20.752C56.9336-20.752 56.4941-20.9473 56.2012-21.2891L37.1582-40.332L32.9102-44.7754L33.1055-38.0859L33.1055-27.832C33.1055-26.8066 32.4707-26.123 31.4941-26.123Z"/>
  </g>
  <g id="Ultralight-S" transform="matrix(1 0 0 1 515.644 696)">
   <path d="M44.043 1.95312C64.502 1.95312 81.2988-14.7949 81.2988-35.2539C81.2988-55.7129 64.502-72.4609 44.043-72.4609C23.584-72.4609 6.83594-55.7129 6.83594-35.2539C6.83594-14.7949 23.584 1.95312 44.043 1.95312ZM30.7617-26.416C30.1758-26.416 29.7363-26.8555 29.7363-27.5391L29.7363-48.4863C29.7363-49.1699 30.1758-49.6094 30.8105-49.6094L51.8066-49.6094C52.4902-49.6094 52.9297-49.2188 52.9297-48.6328C52.9297-47.9492 52.4902-47.5098 51.8066-47.5098L38.5742-47.5098L33.252-47.5586L37.0605-43.8477L57.959-22.998C58.1543-22.7539 58.3496-22.5098 58.3496-22.1191C58.3496-21.4844 57.9102-21.0449 57.2266-21.0449C56.8359-21.0449 56.543-21.1914 56.2988-21.3867L35.498-42.2363L31.8359-46.0449L31.8848-39.1113L31.8848-27.5391C31.8848-26.8555 31.4453-26.416 30.7617-26.416Z"/>
  </g>
 </g>
</svg>
