<?xml version="1.0" encoding="UTF-8"?>
<!--Generator: Apple Native CoreSVG 149-->
<!DOCTYPE svg
PUBLIC "-//W3C//DTD SVG 1.1//EN"
       "http://www.w3.org/Graphics/SVG/1.1/DTD/svg11.dtd">
<svg version="1.1" xmlns="http://www.w3.org/2000/svg" xmlns:xlink="http://www.w3.org/1999/xlink" width="3300" height="2200">
 <!--glyph: "uni100199.medium", point size: 100.000000, font version: "Version 16.0d12e3", template writer version: "8"-->
 <g id="Notes">
  <rect height="2200" id="artboard" style="fill:white;opacity:1" width="3300" x="0" y="0"/>
  <line id="" style="fill:none;stroke:black;opacity:1;stroke-width:0.5;" x1="263" x2="3036" y1="292" y2="292"/>
  <text style="stroke:none;fill:black;font-family:-apple-system,&quot;SF Pro Display&quot;,&quot;SF Pro Text&quot;,Helvetica,sans-serif;font-weight:bold;" transform="matrix(1 0 0 1 263 322)">Weight/Scale Variations</text>
  <text style="stroke:none;fill:black;font-family:-apple-system,&quot;SF Pro Display&quot;,&quot;SF Pro Text&quot;,Helvetica,sans-serif;text-anchor:middle;" transform="matrix(1 0 0 1 559.711 322)">Ultralight</text>
  <text style="stroke:none;fill:black;font-family:-apple-system,&quot;SF Pro Display&quot;,&quot;SF Pro Text&quot;,Helvetica,sans-serif;text-anchor:middle;" transform="matrix(1 0 0 1 856.422 322)">Thin</text>
  <text style="stroke:none;fill:black;font-family:-apple-system,&quot;SF Pro Display&quot;,&quot;SF Pro Text&quot;,Helvetica,sans-serif;text-anchor:middle;" transform="matrix(1 0 0 1 1153.13 322)">Light</text>
  <text style="stroke:none;fill:black;font-family:-apple-system,&quot;SF Pro Display&quot;,&quot;SF Pro Text&quot;,Helvetica,sans-serif;text-anchor:middle;" transform="matrix(1 0 0 1 1449.84 322)">Regular</text>
  <text style="stroke:none;fill:black;font-family:-apple-system,&quot;SF Pro Display&quot;,&quot;SF Pro Text&quot;,Helvetica,sans-serif;text-anchor:middle;" transform="matrix(1 0 0 1 1746.56 322)">Medium</text>
  <text style="stroke:none;fill:black;font-family:-apple-system,&quot;SF Pro Display&quot;,&quot;SF Pro Text&quot;,Helvetica,sans-serif;text-anchor:middle;" transform="matrix(1 0 0 1 2043.27 322)">Semibold</text>
  <text style="stroke:none;fill:black;font-family:-apple-system,&quot;SF Pro Display&quot;,&quot;SF Pro Text&quot;,Helvetica,sans-serif;text-anchor:middle;" transform="matrix(1 0 0 1 2339.98 322)">Bold</text>
  <text style="stroke:none;fill:black;font-family:-apple-system,&quot;SF Pro Display&quot;,&quot;SF Pro Text&quot;,Helvetica,sans-serif;text-anchor:middle;" transform="matrix(1 0 0 1 2636.69 322)">Heavy</text>
  <text style="stroke:none;fill:black;font-family:-apple-system,&quot;SF Pro Display&quot;,&quot;SF Pro Text&quot;,Helvetica,sans-serif;text-anchor:middle;" transform="matrix(1 0 0 1 2933.4 322)">Black</text>
  <line id="" style="fill:none;stroke:black;opacity:1;stroke-width:0.5;" x1="263" x2="3036" y1="1903" y2="1903"/>
  <g id="" transform="matrix(1 0 0 1 263 1933)">
   <path d="M9.24805 0.830078C13.5547 0.830078 17.1387-2.74414 17.1387-7.05078C17.1387-11.3574 13.5449-14.9316 9.23828-14.9316C4.94141-14.9316 1.36719-11.3574 1.36719-7.05078C1.36719-2.74414 4.95117 0.830078 9.24805 0.830078ZM9.24805-0.654297C5.70312-0.654297 2.87109-3.49609 2.87109-7.05078C2.87109-10.6055 5.69336-13.4473 9.23828-13.4473C12.793-13.4473 15.6348-10.6055 15.6445-7.05078C15.6543-3.49609 12.8027-0.654297 9.24805-0.654297ZM9.22852-3.62305C9.69727-3.62305 9.9707-3.93555 9.9707-4.45312L9.9707-6.31836L12.002-6.31836C12.5-6.31836 12.832-6.57227 12.832-7.04102C12.832-7.51953 12.5195-7.7832 12.002-7.7832L9.9707-7.7832L9.9707-9.81445C9.9707-10.332 9.69727-10.6543 9.22852-10.6543C8.75977-10.6543 8.50586-10.3125 8.50586-9.81445L8.50586-7.7832L6.49414-7.7832C5.97656-7.7832 5.64453-7.51953 5.64453-7.04102C5.64453-6.57227 5.99609-6.31836 6.49414-6.31836L8.50586-6.31836L8.50586-4.45312C8.50586-3.95508 8.75977-3.62305 9.22852-3.62305Z"/>
  </g>
  <g id="" transform="matrix(1 0 0 1 281.506 1933)">
   <path d="M11.709 2.91016C17.1582 2.91016 21.6699-1.61133 21.6699-7.05078C21.6699-12.5 17.1484-17.0117 11.6992-17.0117C6.25977-17.0117 1.74805-12.5 1.74805-7.05078C1.74805-1.61133 6.26953 2.91016 11.709 2.91016ZM11.709 1.25C7.09961 1.25 3.41797-2.44141 3.41797-7.05078C3.41797-11.6602 7.08984-15.3516 11.6992-15.3516C16.3086-15.3516 20-11.6602 20.0098-7.05078C20.0195-2.44141 16.3184 1.25 11.709 1.25ZM11.6797-2.66602C12.207-2.66602 12.5098-3.01758 12.5098-3.59375L12.5098-6.23047L15.3223-6.23047C15.8691-6.23047 16.25-6.51367 16.25-7.03125C16.25-7.55859 15.8887-7.86133 15.3223-7.86133L12.5098-7.86133L12.5098-10.6836C12.5098-11.25 12.207-11.6113 11.6797-11.6113C11.1621-11.6113 10.8789-11.2305 10.8789-10.6836L10.8789-7.86133L8.07617-7.86133C7.50977-7.86133 7.13867-7.55859 7.13867-7.03125C7.13867-6.51367 7.5293-6.23047 8.07617-6.23047L10.8789-6.23047L10.8789-3.59375C10.8789-3.03711 11.1621-2.66602 11.6797-2.66602Z"/>
  </g>
  <g id="" transform="matrix(1 0 0 1 304.924 1933)">
   <path d="M14.9707 5.66406C21.9336 5.66406 27.6953-0.0976562 27.6953-7.05078C27.6953-14.0137 21.9238-19.7754 14.9609-19.7754C8.00781-19.7754 2.25586-14.0137 2.25586-7.05078C2.25586-0.0976562 8.01758 5.66406 14.9707 5.66406ZM14.9707 3.84766C8.93555 3.84766 4.08203-1.01562 4.08203-7.05078C4.08203-13.0957 8.92578-17.9492 14.9609-17.9492C21.0059-17.9492 25.8594-13.0957 25.8691-7.05078C25.8789-1.01562 21.0156 3.84766 14.9707 3.84766ZM14.9414-1.38672C15.5176-1.38672 15.8594-1.77734 15.8594-2.38281L15.8594-6.13281L19.7754-6.13281C20.3711-6.13281 20.7812-6.46484 20.7812-7.02148C20.7812-7.59766 20.3906-7.93945 19.7754-7.93945L15.8594-7.93945L15.8594-11.8652C15.8594-12.4805 15.5176-12.8711 14.9414-12.8711C14.375-12.8711 14.0527-12.4609 14.0527-11.8652L14.0527-7.93945L10.1465-7.93945C9.53125-7.93945 9.13086-7.59766 9.13086-7.02148C9.13086-6.46484 9.55078-6.13281 10.1465-6.13281L14.0527-6.13281L14.0527-2.38281C14.0527-1.79688 14.375-1.38672 14.9414-1.38672Z"/>
  </g>
  <text style="stroke:none;fill:black;font-family:-apple-system,&quot;SF Pro Display&quot;,&quot;SF Pro Text&quot;,Helvetica,sans-serif;font-weight:bold;" transform="matrix(1 0 0 1 263 1953)">Design Variations</text>
  <text style="stroke:none;fill:black;font-family:-apple-system,&quot;SF Pro Display&quot;,&quot;SF Pro Text&quot;,Helvetica,sans-serif;" transform="matrix(1 0 0 1 263 1971)">Symbols are supported in up to nine weights and three scales.</text>
  <text style="stroke:none;fill:black;font-family:-apple-system,&quot;SF Pro Display&quot;,&quot;SF Pro Text&quot;,Helvetica,sans-serif;" transform="matrix(1 0 0 1 263 1989)">For optimal layout with text and other symbols, vertically align</text>
  <text style="stroke:none;fill:black;font-family:-apple-system,&quot;SF Pro Display&quot;,&quot;SF Pro Text&quot;,Helvetica,sans-serif;" transform="matrix(1 0 0 1 263 2007)">symbols with the adjacent text.</text>
  <line id="" style="fill:none;stroke:#00AEEF;stroke-width:0.5;opacity:1.0;" x1="776" x2="776" y1="1919" y2="1933"/>
  <g id="" transform="matrix(1 0 0 1 776 1933)">
   <path d="M3.31055 0.126953C3.82812 0.126953 4.08203-0.0683594 4.26758-0.605469L5.52734-4.0625L11.2891-4.0625L12.5488-0.605469C12.7344-0.0683594 12.9883 0.126953 13.4961 0.126953C14.0137 0.126953 14.3457-0.185547 14.3457-0.673828C14.3457-0.839844 14.3164-0.986328 14.2383-1.20117L9.6582-13.3887C9.43359-13.9941 9.0332-14.2871 8.4082-14.2871C7.80273-14.2871 7.39258-13.9941 7.17773-13.3984L2.59766-1.19141C2.51953-0.976562 2.49023-0.830078 2.49023-0.664062C2.49023-0.175781 2.80273 0.126953 3.31055 0.126953ZM6.00586-5.53711L8.37891-12.1094L8.42773-12.1094L10.8008-5.53711Z"/>
  </g>
  <line id="" style="fill:none;stroke:#00AEEF;stroke-width:0.5;opacity:1.0;" x1="792.836" x2="792.836" y1="1919" y2="1933"/>
  <text style="stroke:none;fill:black;font-family:-apple-system,&quot;SF Pro Display&quot;,&quot;SF Pro Text&quot;,Helvetica,sans-serif;font-weight:bold;" transform="matrix(1 0 0 1 776 1953)">Margins</text>
  <text style="stroke:none;fill:black;font-family:-apple-system,&quot;SF Pro Display&quot;,&quot;SF Pro Text&quot;,Helvetica,sans-serif;" transform="matrix(1 0 0 1 776 1971)">Leading and trailing margins on the left and right side of each symbol</text>
  <text style="stroke:none;fill:black;font-family:-apple-system,&quot;SF Pro Display&quot;,&quot;SF Pro Text&quot;,Helvetica,sans-serif;" transform="matrix(1 0 0 1 776 1989)">can be adjusted by modifying the x-location of the margin guidelines.</text>
  <text style="stroke:none;fill:black;font-family:-apple-system,&quot;SF Pro Display&quot;,&quot;SF Pro Text&quot;,Helvetica,sans-serif;" transform="matrix(1 0 0 1 776 2007)">Modifications are automatically applied proportionally to all</text>
  <text style="stroke:none;fill:black;font-family:-apple-system,&quot;SF Pro Display&quot;,&quot;SF Pro Text&quot;,Helvetica,sans-serif;" transform="matrix(1 0 0 1 776 2025)">scales and weights.</text>
  <g id="" transform="matrix(1 0 0 1 1289 1933)">
   <path d="M2.8418 1.86523L4.54102 3.57422C5.40039 4.44336 6.38672 4.38477 7.31445 3.35938L17.4902-7.85156C17.7539-7.76367 18.0273-7.7832 18.3398-7.8418L19.4043-8.03711L20.0684-7.36328L20.0293-6.80664C19.9902-6.30859 20.1172-5.92773 20.6055-5.44922L21.3672-4.70703C21.8457-4.22852 22.4609-4.19922 22.9297-4.66797L25.8398-7.58789C26.3086-8.05664 26.2891-8.65234 25.8105-9.13086L25.0391-9.89258C24.5605-10.3711 24.1895-10.5273 23.7109-10.4883L23.1348-10.4395L22.4902-11.0742L22.7344-12.1973C22.8613-12.7637 22.7051-13.2031 22.1191-13.7891L19.9219-15.9766C16.582-19.2969 12.1484-19.2188 9.25781-16.3281C8.83789-15.918 8.80859-15.3418 9.04297-14.9512C9.27734-14.5898 9.73633-14.3555 10.3809-14.5215C11.8457-14.8633 13.3691-14.9219 14.7949-13.9844L14.209-12.5293C14.0137-12.0508 13.9844-11.6504 14.1113-11.2891L3.04688-0.898438C2.06055 0.0195312 1.98242 0.996094 2.8418 1.86523ZM10.752-15.957C13.1836-17.7344 16.4746-17.4316 18.7012-15.2051L21.1328-12.793C21.3672-12.5586 21.4062-12.373 21.3379-12.0312L21.0156-10.5469L22.5195-9.0625L23.5059-9.12109C23.7598-9.13086 23.8379-9.11133 24.0332-8.91602L24.6094-8.33984L22.168-5.89844L21.5918-6.47461C21.3965-6.66992 21.3672-6.74805 21.377-7.01172L21.4453-7.98828L19.9512-9.47266L18.4277-9.21875C18.1055-9.15039 17.959-9.17969 17.7148-9.41406L15.7129-11.416C15.459-11.6504 15.4297-11.8164 15.5859-12.1875L16.4648-14.2773C14.9023-15.7324 12.8711-16.3574 10.8398-15.7617C10.6836-15.7227 10.625-15.8496 10.752-15.957ZM5.27344 2.30469L4.10156 1.14258C3.63281 0.683594 3.74023 0.341797 4.14062-0.0195312L14.9512-10.1953L16.416-8.71094L6.42578 2.27539C6.07422 2.67578 5.74219 2.77344 5.27344 2.30469Z"/>
  </g>
  <text style="stroke:none;fill:black;font-family:-apple-system,&quot;SF Pro Display&quot;,&quot;SF Pro Text&quot;,Helvetica,sans-serif;font-weight:bold;" transform="matrix(1 0 0 1 1289 1953)">Exporting</text>
  <text style="stroke:none;fill:black;font-family:-apple-system,&quot;SF Pro Display&quot;,&quot;SF Pro Text&quot;,Helvetica,sans-serif;" transform="matrix(1 0 0 1 1289 1971)">Symbols should be outlined when exporting to ensure the</text>
  <text style="stroke:none;fill:black;font-family:-apple-system,&quot;SF Pro Display&quot;,&quot;SF Pro Text&quot;,Helvetica,sans-serif;" transform="matrix(1 0 0 1 1289 1989)">design is preserved when submitting to Xcode.</text>
  <text id="template-version" style="stroke:none;fill:black;font-family:-apple-system,&quot;SF Pro Display&quot;,&quot;SF Pro Text&quot;,Helvetica,sans-serif;text-anchor:end;" transform="matrix(1 0 0 1 3036 1933)">Template v.2.0</text>
  <text style="stroke:none;fill:black;font-family:-apple-system,&quot;SF Pro Display&quot;,&quot;SF Pro Text&quot;,Helvetica,sans-serif;text-anchor:end;" transform="matrix(1 0 0 1 3036 1951)">Requires Xcode 12 or greater</text>
  <text style="stroke:none;fill:black;font-family:-apple-system,&quot;SF Pro Display&quot;,&quot;SF Pro Text&quot;,Helvetica,sans-serif;text-anchor:end;" transform="matrix(1 0 0 1 3036 1969)">Generated from clear</text>
  <text style="stroke:none;fill:black;font-family:-apple-system,&quot;SF Pro Display&quot;,&quot;SF Pro Text&quot;,Helvetica,sans-serif;text-anchor:end;" transform="matrix(1 0 0 1 3036 1987)">Typeset at 100 points</text>
  <text style="stroke:none;fill:black;font-family:-apple-system,&quot;SF Pro Display&quot;,&quot;SF Pro Text&quot;,Helvetica,sans-serif;" transform="matrix(1 0 0 1 263 726)">Small</text>
  <text style="stroke:none;fill:black;font-family:-apple-system,&quot;SF Pro Display&quot;,&quot;SF Pro Text&quot;,Helvetica,sans-serif;" transform="matrix(1 0 0 1 263 1156)">Medium</text>
  <text style="stroke:none;fill:black;font-family:-apple-system,&quot;SF Pro Display&quot;,&quot;SF Pro Text&quot;,Helvetica,sans-serif;" transform="matrix(1 0 0 1 263 1586)">Large</text>
 </g>
 <g id="Guides">
  <g id="H-reference" style="fill:#27AAE1;stroke:none;" transform="matrix(1 0 0 1 339 696)">
   <path d="M0.976562 0L3.66211 0L12.9883-24.4629L45.752-24.4629L55.127 0L57.7637 0L30.6152-70.459L28.125-70.459ZM29.3457-67.1387L29.4434-67.1387L44.873-26.709L13.8672-26.709Z"/>
  </g>
  <line id="Baseline-S" style="fill:none;stroke:#27AAE1;opacity:1;stroke-width:0.5;" x1="263" x2="3036" y1="696" y2="696"/>
  <line id="Capline-S" style="fill:none;stroke:#27AAE1;opacity:1;stroke-width:0.5;" x1="263" x2="3036" y1="625.541" y2="625.541"/>
  <g id="H-reference" style="fill:#27AAE1;stroke:none;" transform="matrix(1 0 0 1 339 1126)">
   <path d="M0.976562 0L3.66211 0L12.9883-24.4629L45.752-24.4629L55.127 0L57.7637 0L30.6152-70.459L28.125-70.459ZM29.3457-67.1387L29.4434-67.1387L44.873-26.709L13.8672-26.709Z"/>
  </g>
  <line id="Baseline-M" style="fill:none;stroke:#27AAE1;opacity:1;stroke-width:0.5;" x1="263" x2="3036" y1="1126" y2="1126"/>
  <line id="Capline-M" style="fill:none;stroke:#27AAE1;opacity:1;stroke-width:0.5;" x1="263" x2="3036" y1="1055.54" y2="1055.54"/>
  <g id="H-reference" style="fill:#27AAE1;stroke:none;" transform="matrix(1 0 0 1 339 1556)">
   <path d="M0.976562 0L3.66211 0L12.9883-24.4629L45.752-24.4629L55.127 0L57.7637 0L30.6152-70.459L28.125-70.459ZM29.3457-67.1387L29.4434-67.1387L44.873-26.709L13.8672-26.709Z"/>
  </g>
  <line id="Baseline-L" style="fill:none;stroke:#27AAE1;opacity:1;stroke-width:0.5;" x1="263" x2="3036" y1="1556" y2="1556"/>
  <line id="Capline-L" style="fill:none;stroke:#27AAE1;opacity:1;stroke-width:0.5;" x1="263" x2="3036" y1="1485.54" y2="1485.54"/>
  <line id="left-margin" style="fill:none;stroke:#00AEEF;stroke-width:0.5;opacity:1.0;" x1="1392.45" x2="1392.45" y1="1030.79" y2="1150.12"/>
  <line id="right-margin" style="fill:none;stroke:#00AEEF;stroke-width:0.5;opacity:1.0;" x1="1507.24" x2="1507.24" y1="1030.79" y2="1150.12"/>
 </g>
 <g id="Symbols">
  <g id="Black-L" transform="matrix(1 0 0 1 2855.62 1556)">
   <path d="M39.9902 26.5137L115.576 26.5137C130.811 26.5137 139.502 17.8711 139.502 2.68555L139.502-73.0957C139.502-88.2812 130.811-96.875 115.576-96.875L39.9902-96.875C24.7559-96.875 16.0645-88.2812 16.0645-73.0957L16.0645 2.68555C16.0645 17.8711 24.7559 26.5137 39.9902 26.5137ZM42.6758 6.29883C38.4766 6.29883 36.3281 4.39453 36.3281-0.146484L36.3281-70.2148C36.3281-74.7559 38.4766-76.6602 42.6758-76.6602L112.842-76.6602C117.09-76.6602 119.238-74.7559 119.238-70.2148L119.238-0.146484C119.238 4.39453 117.09 6.29883 112.842 6.29883ZM59.7656-9.27734C62.207-9.27734 64.1602-10.0098 65.7227-11.6211L77.7832-23.6816L89.9902-11.6211C91.5527-10.0586 93.457-9.27734 95.8984-9.27734C100.439-9.27734 103.906-12.7441 103.906-17.334C103.906-19.3848 103.027-21.3379 101.514-22.8516L89.3066-35.1074L101.514-47.4609C103.076-49.0234 103.955-50.9277 103.955-52.9297C103.955-57.5195 100.488-60.9863 95.9473-60.9863C93.5547-60.9863 91.6504-60.2539 90.0391-58.6426L77.7832-46.5332L65.6738-58.6426C64.1113-60.2051 62.207-60.9375 59.7656-60.9375C55.2734-60.9375 51.7578-57.5195 51.7578-52.9297C51.7578-50.9277 52.6367-48.9258 54.1992-47.4121L66.4551-35.1074L54.1992-22.8516C52.6367-21.3379 51.7578-19.3359 51.7578-17.334C51.7578-12.7441 55.2734-9.27734 59.7656-9.27734Z"/>
  </g>
  <g id="Heavy-L" transform="matrix(1 0 0 1 2559.93 1556)">
   <path d="M38.8184 25.4883L114.697 25.4883C129.346 25.4883 137.451 17.4316 137.451 2.88086L137.451-73.2422C137.451-87.793 129.346-95.8496 114.697-95.8496L38.8184-95.8496C24.2188-95.8496 16.0645-87.793 16.0645-73.2422L16.0645 2.88086C16.0645 17.4316 24.2188 25.4883 38.8184 25.4883ZM40.918 8.00781C36.084 8.00781 33.5938 5.71289 33.5938 0.585938L33.5938-70.9473C33.5938-76.0742 36.084-78.3691 40.918-78.3691L112.549-78.3691C117.383-78.3691 119.922-76.0742 119.922-70.9473L119.922 0.585938C119.922 5.71289 117.383 8.00781 112.549 8.00781ZM57.8613-9.17969C60.0098-9.17969 61.7676-9.91211 63.1348-11.3281L76.8066-24.9512L90.4785-11.3281C91.8945-9.91211 93.6035-9.17969 95.8008-9.17969C99.8047-9.17969 102.93-12.3535 102.93-16.4062C102.93-18.2617 102.148-19.9707 100.781-21.3379L87.0117-35.1562L100.781-48.9746C102.197-50.3906 102.93-52.0996 102.93-53.9062C102.93-58.0078 99.8535-61.084 95.8008-61.084C93.7012-61.084 92.041-60.4492 90.5762-58.9844L76.8066-45.2637L63.0859-58.9355C61.6699-60.3516 60.0098-61.0352 57.8613-61.0352C53.8574-61.0352 50.7324-57.959 50.7324-53.9062C50.7324-52.0508 51.5137-50.293 52.8809-48.9746L66.6992-35.1562L52.8809-21.3379C51.5137-19.9707 50.7324-18.2129 50.7324-16.4062C50.7324-12.3535 53.8574-9.17969 57.8613-9.17969Z"/>
  </g>
  <g id="Bold-L" transform="matrix(1 0 0 1 2264.37 1556)">
   <path d="M37.5 24.3652L113.721 24.3652C127.637 24.3652 135.156 16.8945 135.156 3.07617L135.156-73.3887C135.156-87.207 127.637-94.7266 113.721-94.7266L37.5-94.7266C23.6328-94.7266 16.0645-87.2559 16.0645-73.3887L16.0645 3.07617C16.0645 16.8945 23.6328 24.3652 37.5 24.3652ZM38.9648 9.91211C33.4473 9.91211 30.5176 7.17773 30.5176 1.41602L30.5176-71.7285C30.5176-77.5391 33.4473-80.2734 38.9648-80.2734L112.256-80.2734C117.725-80.2734 120.703-77.5391 120.703-71.7285L120.703 1.41602C120.703 7.17773 117.725 9.91211 112.256 9.91211ZM55.7617-9.13086C57.5684-9.13086 59.082-9.76562 60.3027-10.9863L75.6348-26.3672L91.0645-10.9863C92.2852-9.76562 93.75-9.13086 95.6055-9.13086C99.1211-9.13086 101.807-11.8652 101.807-15.332C101.807-16.9922 101.123-18.457 99.9512-19.6777L84.4727-35.1562L99.9512-50.7324C101.221-51.9531 101.855-53.3691 101.855-54.9805C101.855-58.4961 99.1211-61.1816 95.6543-61.1816C93.8965-61.1816 92.4805-60.5957 91.1621-59.3262L75.6348-43.8965L60.2051-59.2773C58.9844-60.5469 57.5684-61.1328 55.7617-61.1328C52.2461-61.1328 49.5605-58.4473 49.5605-54.9805C49.5605-53.3691 50.2441-51.8555 51.416-50.6836L66.8945-35.1562L51.416-19.6289C50.2441-18.457 49.5605-16.9434 49.5605-15.332C49.5605-11.8652 52.2461-9.13086 55.7617-9.13086Z"/>
  </g>
  <g id="Semibold-L" transform="matrix(1 0 0 1 1968.44 1556)">
   <path d="M36.6211 23.584L113.037 23.584C126.514 23.584 133.594 16.5039 133.594 3.17383L133.594-73.5352C133.594-86.8164 126.514-93.9453 113.037-93.9453L36.6211-93.9453C23.1934-93.9453 16.0645-86.8652 16.0645-73.5352L16.0645 3.17383C16.0645 16.5527 23.1934 23.584 36.6211 23.584ZM37.5977 11.2793C31.6406 11.2793 28.418 8.20312 28.418 1.95312L28.418-72.3145C28.418-78.5156 31.6406-81.5918 37.5977-81.5918L112.061-81.5918C117.969-81.5918 121.24-78.5156 121.24-72.3145L121.24 1.95312C121.24 8.20312 117.969 11.2793 112.061 11.2793ZM54.248-9.08203C55.9082-9.08203 57.2266-9.66797 58.3008-10.791L74.8535-27.3438L91.4551-10.791C92.5781-9.66797 93.8965-9.08203 95.5078-9.08203C98.584-9.08203 101.025-11.5234 101.025-14.6484C101.025-16.1133 100.439-17.4316 99.3652-18.5059L82.7148-35.1562L99.4141-51.9043C100.537-53.0273 101.074-54.2969 101.074-55.7617C101.074-58.8379 98.6328-61.2305 95.5566-61.2305C93.9941-61.2305 92.7734-60.7422 91.6016-59.5703L74.8535-42.9199L58.252-59.5215C57.1289-60.6445 55.9082-61.1816 54.248-61.1816C51.1719-61.1816 48.7305-58.7891 48.7305-55.7129C48.7305-54.248 49.3164-52.8809 50.4395-51.8555L67.0898-35.1562L50.4395-18.5059C49.3164-17.4316 48.7305-16.1133 48.7305-14.6484C48.7305-11.5234 51.1719-9.08203 54.248-9.08203Z"/>
  </g>
  <g id="Medium-L" transform="matrix(1 0 0 1 1672.31 1556)">
   <path d="M35.9375 22.998L112.5 22.998C125.635 22.998 132.422 16.2109 132.422 3.27148L132.422-73.6328C132.422-86.5234 125.635-93.3105 112.5-93.3105L35.9375-93.3105C22.9004-93.3105 16.0645-86.5723 16.0645-73.6328L16.0645 3.27148C16.0645 16.2598 22.9004 22.998 35.9375 22.998ZM36.5723 12.2559C30.2246 12.2559 26.8066 8.98438 26.8066 2.39258L26.8066-72.7051C26.8066-79.2969 30.2246-82.6172 36.5723-82.6172L111.865-82.6172C118.115-82.6172 121.68-79.2969 121.68-72.7051L121.68 2.39258C121.68 8.98438 118.115 12.2559 111.865 12.2559ZM53.1738-9.08203C54.5898-9.08203 55.8105-9.57031 56.8359-10.5957L74.2676-28.0762L91.748-10.5957C92.7734-9.61914 93.9453-9.08203 95.4102-9.08203C98.2422-9.08203 100.439-11.2793 100.439-14.1113C100.439-15.4785 99.9023-16.6504 98.9258-17.627L81.3965-35.1562L98.9746-52.7832C100-53.8574 100.488-54.9805 100.488-56.2988C100.488-59.082 98.291-61.2793 95.459-61.2793C94.0918-61.2793 92.9688-60.8398 91.8945-59.7656L74.2676-42.2363L56.7383-59.7168C55.7617-60.7422 54.5898-61.2305 53.1738-61.2305C50.3418-61.2305 48.1445-59.082 48.1445-56.25C48.1445-54.9316 48.6816-53.7109 49.6582-52.7344L67.1875-35.1562L49.6582-17.5781C48.6816-16.6504 48.1445-15.4297 48.1445-14.1113C48.1445-11.2793 50.3418-9.08203 53.1738-9.08203Z"/>
  </g>
  <g id="Regular-L" transform="matrix(1 0 0 1 1376.38 1556)">
   <path d="M35.0586 22.2168L111.816 22.2168C124.463 22.2168 130.859 15.8691 130.859 3.41797L130.859-73.7305C130.859-86.1816 124.463-92.5293 111.816-92.5293L35.0586-92.5293C22.4609-92.5293 16.0645-86.2305 16.0645-73.7305L16.0645 3.41797C16.0645 15.918 22.4609 22.2168 35.0586 22.2168ZM35.2539 13.5742C28.418 13.5742 24.707 9.96094 24.707 2.97852L24.707-73.291C24.707-80.2734 28.418-83.8867 35.2539-83.8867L111.67-83.8867C118.359-83.8867 122.217-80.2734 122.217-73.291L122.217 2.97852C122.217 9.96094 118.359 13.5742 111.67 13.5742ZM51.709-9.0332C52.9297-9.0332 54.0039-9.47266 54.8828-10.4004L73.4863-29.0527L92.1875-10.4004C93.0176-9.52148 94.0918-9.0332 95.3125-9.0332C97.7539-9.0332 99.707-10.9863 99.707-13.3789C99.707-14.6484 99.2188-15.625 98.3398-16.5039L79.6875-35.2051L98.3887-53.9551C99.3164-54.8828 99.7559-55.8594 99.7559-57.0312C99.7559-59.4727 97.8027-61.377 95.3613-61.377C94.2383-61.377 93.2617-60.9375 92.334-60.0098L73.4863-41.2598L54.7852-59.9609C53.9062-60.8398 52.9297-61.2793 51.709-61.2793C49.2676-61.2793 47.3145-59.4238 47.3145-56.9824C47.3145-55.8105 47.8027-54.7363 48.6816-53.9062L67.3828-35.2051L48.6816-16.4551C47.8027-15.625 47.3145-14.5996 47.3145-13.3789C47.3145-10.9863 49.2676-9.0332 51.709-9.0332Z"/>
  </g>
  <g id="Light-L" transform="matrix(1 0 0 1 1080.5 1556)">
   <path d="M34.0332 21.4355L111.23 21.4355C123.096 21.4355 129.199 15.2344 129.199 3.56445L129.199-73.8281C129.199-85.5469 123.096-91.6992 111.23-91.6992L34.0332-91.6992C22.168-91.6992 16.0645-85.6445 16.0645-73.8281L16.0645 3.56445C16.0645 15.3809 22.168 21.4355 34.0332 21.4355ZM34.1797 14.7949C26.709 14.7949 22.7051 10.8398 22.7051 3.22266L22.7051-73.4863C22.7051-81.1523 26.709-85.0586 34.1797-85.0586L111.035-85.0586C118.359-85.0586 122.559-81.1523 122.559-73.4863L122.559 3.22266C122.559 10.8398 118.359 14.7949 111.035 14.7949ZM50.4395-9.57031C51.4648-9.57031 52.2461-9.91211 52.9785-10.6934L72.6562-30.3711L92.334-10.6934C93.1152-9.96094 93.8965-9.57031 94.9219-9.57031C96.8262-9.57031 98.3398-11.084 98.3398-12.9395C98.3398-13.916 97.998-14.6973 97.2656-15.4297L77.4902-35.2051L97.2656-55.0293C98.0469-55.7617 98.3398-56.4941 98.3398-57.4707C98.3398-59.3262 96.8262-60.791 94.9219-60.791C93.9941-60.791 93.2617-60.498 92.4316-59.668L72.6562-39.9414L52.9297-59.668C52.1973-60.4492 51.4648-60.7422 50.4395-60.7422C48.5352-60.7422 47.0215-59.3262 47.0215-57.4707C47.0215-56.4941 47.3633-55.6641 48.0957-54.9805L67.8711-35.2051L48.0957-15.3809C47.3633-14.6973 47.0215-13.916 47.0215-12.9395C47.0215-11.084 48.5352-9.57031 50.4395-9.57031Z"/>
  </g>
  <g id="Thin-L" transform="matrix(1 0 0 1 784.889 1556)">
   <path d="M32.666 20.3613L110.352 20.3613C121.24 20.3613 127.002 14.4531 127.002 3.75977L127.002-73.9746C127.002-84.7168 121.24-90.5762 110.352-90.5762L32.666-90.5762C21.7773-90.5762 16.0645-84.8633 16.0645-73.9746L16.0645 3.75977C16.0645 14.6484 21.7773 20.3613 32.666 20.3613ZM32.8125 16.4062C24.4141 16.4062 19.9707 12.0117 19.9707 3.56445L19.9707-73.7793C19.9707-82.2754 24.4141-86.6699 32.8125-86.6699L110.205-86.6699C118.359-86.6699 123.047-82.2754 123.047-73.7793L123.047 3.56445C123.047 12.0117 118.359 16.4062 110.205 16.4062ZM48.7793-10.3027C49.5117-10.3027 49.9512-10.498 50.5371-11.1328L71.582-32.1289L92.5781-11.1328C93.2129-10.498 93.7012-10.3027 94.3359-10.3027C95.5566-10.3027 96.5332-11.1816 96.5332-12.3535C96.5332-12.9883 96.3379-13.4766 95.8008-14.0137L74.6094-35.2051L95.8008-56.3965C96.3379-56.9336 96.5332-57.373 96.5332-58.0566C96.5332-59.1797 95.5566-60.0586 94.3359-60.0586C93.7012-60.0586 93.2129-59.8633 92.627-59.2773L71.582-38.2324L50.5371-59.2773C49.9023-59.8633 49.5117-60.0586 48.7793-60.0586C47.5586-60.0586 46.6309-59.1797 46.6309-58.0566C46.6309-57.373 46.8262-56.8848 47.3633-56.3965L68.5059-35.2051L47.3633-14.0137C46.8262-13.4766 46.6309-12.9883 46.6309-12.3535C46.6309-11.1816 47.5586-10.3027 48.7793-10.3027Z"/>
  </g>
  <g id="Ultralight-L" transform="matrix(1 0 0 1 488.739 1556)">
   <path d="M31.9824 19.7754L109.961 19.7754C120.312 19.7754 125.879 14.0625 125.879 3.85742L125.879-74.0723C125.879-84.2773 120.312-89.9902 109.961-89.9902L31.9824-89.9902C21.582-89.9902 16.0645-84.4727 16.0645-74.0723L16.0645 3.85742C16.0645 14.2578 21.582 19.7754 31.9824 19.7754ZM32.1289 17.2363C23.1934 17.2363 18.6035 12.6465 18.6035 3.75977L18.6035-73.9258C18.6035-82.8125 23.1934-87.4512 32.1289-87.4512L109.766-87.4512C118.359-87.4512 123.291-82.8125 123.291-73.9258L123.291 3.75977C123.291 12.6465 118.359 17.2363 109.766 17.2363ZM47.9492-10.6934C48.4863-10.6934 48.7305-10.791 49.2676-11.3281L70.9961-33.0566L92.7246-11.3281C93.2617-10.791 93.5547-10.6934 94.043-10.6934C94.9219-10.6934 95.6055-11.2305 95.6055-12.0605C95.6055-12.5 95.459-12.8418 95.0195-13.2812L73.1445-35.2051L95.0195-57.0801C95.459-57.5195 95.6055-57.8613 95.6055-58.3496C95.6055-59.1309 94.9219-59.7168 94.043-59.7168C93.5547-59.7168 93.2129-59.5703 92.7246-59.0332L70.9961-37.3535L49.2676-59.082C48.7305-59.5703 48.4863-59.7168 47.9492-59.7168C47.0703-59.7168 46.3867-59.1309 46.3867-58.3496C46.3867-57.8613 46.5332-57.5195 46.9727-57.0801L68.8477-35.2051L46.9727-13.2812C46.5332-12.8418 46.3867-12.5488 46.3867-12.0605C46.3867-11.2305 47.0703-10.6934 47.9492-10.6934Z"/>
  </g>
  <g id="Black-M" transform="matrix(1 0 0 1 2872.19 1126)">
   <path d="M31.9824 13.5742L90.4297 13.5742C102.686 13.5742 109.961 6.29883 109.961-5.95703L109.961-64.4043C109.961-76.6602 102.686-83.9355 90.4297-83.9355L31.9824-83.9355C19.7266-83.9355 12.4512-76.6602 12.4512-64.4043L12.4512-5.95703C12.4512 6.29883 19.7266 13.5742 31.9824 13.5742ZM34.9121-4.73633C32.0801-4.73633 30.7617-5.81055 30.7617-8.88672L30.7617-61.4746C30.7617-64.5508 32.0801-65.6738 34.9121-65.6738L87.5-65.6738C90.332-65.6738 91.6504-64.5508 91.6504-61.4746L91.6504-8.88672C91.6504-5.81055 90.332-4.73633 87.5-4.73633ZM48.2422-15.4785C50.3418-15.4785 52.002-16.1133 53.3691-17.4805L61.2305-25.293L69.1406-17.4805C70.5566-16.1133 72.168-15.4785 74.3164-15.4785C78.2227-15.4785 81.1523-18.4082 81.1523-22.3633C81.1523-24.0723 80.4199-25.7812 79.1016-27.0996L71.0938-35.1562L79.0527-43.1641C80.3711-44.4824 81.1523-46.1914 81.1523-47.9004C81.1523-51.8555 78.2227-54.7852 74.3164-54.7852C72.168-54.7852 70.5078-54.1504 69.1406-52.7832L61.2305-44.9219L53.3691-52.7832C52.002-54.1504 50.3418-54.7852 48.2422-54.7852C44.3359-54.7852 41.3574-51.8555 41.3574-47.9004C41.3574-46.1914 42.1387-44.4824 43.457-43.1641L51.5137-35.1562L43.457-27.0996C42.1387-25.7812 41.3574-24.0723 41.3574-22.3633C41.3574-18.4082 44.3359-15.4785 48.2422-15.4785Z"/>
  </g>
  <g id="Heavy-M" transform="matrix(1 0 0 1 2576.39 1126)">
   <path d="M31.0059 12.6465L89.6484 12.6465C101.416 12.6465 108.154 5.9082 108.154-5.81055L108.154-64.5508C108.154-76.2695 101.416-83.0566 89.6484-83.0566L31.0059-83.0566C19.2383-83.0566 12.4512-76.3184 12.4512-64.5508L12.4512-5.81055C12.4512 5.9082 19.2383 12.6465 31.0059 12.6465ZM33.252-3.17383C29.9316-3.17383 28.2715-4.63867 28.2715-8.1543L28.2715-62.207C28.2715-65.7715 29.9316-67.2363 33.252-67.2363L87.3535-67.2363C90.6738-67.2363 92.334-65.7715 92.334-62.207L92.334-8.1543C92.334-4.63867 90.6738-3.17383 87.3535-3.17383ZM46.4844-15.2832C48.3398-15.2832 49.8535-15.8203 51.0742-17.0898L60.3516-26.3184L69.6777-17.0898C70.8984-15.8691 72.3633-15.2832 74.2676-15.2832C77.7344-15.2832 80.4199-17.9199 80.4199-21.4844C80.4199-23.0469 79.7363-24.5605 78.5645-25.7324L69.1895-35.1562L78.5645-44.5801C79.7852-45.8008 80.4199-47.2656 80.4199-48.8281C80.4199-52.3926 77.7832-55.0293 74.2676-55.0293C72.4121-55.0293 70.9473-54.4434 69.6777-53.2227L60.3516-43.9453L51.0254-53.2227C49.8047-54.4434 48.3398-55.0293 46.4844-55.0293C42.9688-55.0293 40.332-52.3438 40.332-48.8281C40.332-47.2656 40.9668-45.752 42.1875-44.5801L51.6113-35.1562L42.1875-25.7324C40.9668-24.5605 40.332-22.998 40.332-21.4844C40.332-17.9199 42.9688-15.2832 46.4844-15.2832Z"/>
  </g>
  <g id="Bold-M" transform="matrix(1 0 0 1 2280.68 1126)">
   <path d="M29.8828 11.6699L88.7207 11.6699C99.9512 11.6699 106.152 5.46875 106.152-5.66406L106.152-64.6973C106.152-75.8789 99.9512-82.0312 88.7207-82.0312L29.8828-82.0312C18.6523-82.0312 12.4512-75.8789 12.4512-64.6973L12.4512-5.66406C12.4512 5.51758 18.6523 11.6699 29.8828 11.6699ZM31.3965-1.41602C27.5391-1.41602 25.5371-3.27148 25.5371-7.32422L25.5371-63.0371C25.5371-67.1387 27.5391-68.9453 31.3965-68.9453L87.207-68.9453C91.0156-68.9453 93.0664-67.1387 93.0664-63.0371L93.0664-7.32422C93.0664-3.27148 91.0156-1.41602 87.207-1.41602ZM44.5312-15.0391C46.1426-15.0391 47.4121-15.5762 48.4863-16.6504L59.3262-27.4902L70.2148-16.6504C71.2891-15.5762 72.6074-15.0391 74.2188-15.0391C77.2461-15.0391 79.5898-17.3828 79.5898-20.459C79.5898-21.875 79.0039-23.1445 77.9785-24.2188L67.041-35.1562L77.9785-46.1914C79.0527-47.2168 79.6387-48.5352 79.6387-49.9023C79.6387-52.9785 77.2949-55.2734 74.2188-55.2734C72.6562-55.2734 71.4355-54.7852 70.3125-53.7109L59.3262-42.7734L48.4375-53.6621C47.3633-54.7363 46.1426-55.2734 44.5312-55.2734C41.4551-55.2734 39.1113-52.9297 39.1113-49.8535C39.1113-48.4863 39.6973-47.168 40.7715-46.1426L51.709-35.1562L40.7715-24.1699C39.6973-23.1445 39.1113-21.8262 39.1113-20.459C39.1113-17.3828 41.4551-15.0391 44.5312-15.0391Z"/>
  </g>
  <g id="Semibold-M" transform="matrix(1 0 0 1 1984.65 1126)">
   <path d="M29.1016 10.9863L88.0859 10.9863C98.9746 10.9863 104.785 5.17578 104.785-5.56641L104.785-64.8438C104.785-75.5859 98.9746-81.3477 88.0859-81.3477L29.1016-81.3477C18.2617-81.3477 12.4512-75.5859 12.4512-64.8438L12.4512-5.56641C12.4512 5.22461 18.2617 10.9863 29.1016 10.9863ZM30.127-0.195312C25.8789-0.195312 23.6328-2.34375 23.6328-6.78711L23.6328-63.623C23.6328-68.0664 25.8789-70.166 30.127-70.166L87.1094-70.166C91.2598-70.166 93.6035-68.0664 93.6035-63.623L93.6035-6.78711C93.6035-2.34375 91.2598-0.195312 87.1094-0.195312ZM43.1641-14.8926C44.5801-14.8926 45.752-15.3809 46.6797-16.3086L58.6426-28.2715L70.6543-16.3086C71.582-15.3809 72.7539-14.8926 74.1699-14.8926C76.9043-14.8926 79.0527-17.041 79.0527-19.7754C79.0527-21.0449 78.5156-22.2168 77.5879-23.1445L65.5762-35.1562L77.5879-47.2656C78.5645-48.2422 79.0527-49.3652 79.0527-50.6348C79.0527-53.3691 76.9531-55.4688 74.2188-55.4688C72.8516-55.4688 71.7285-55.0293 70.752-54.0039L58.6426-42.041L46.6309-54.0039C45.7031-54.9805 44.5801-55.4199 43.1641-55.4199C40.4297-55.4199 38.2812-53.3203 38.2812-50.5859C38.2812-49.3164 38.8184-48.1445 39.7461-47.2168L51.8066-35.1562L39.7461-23.1445C38.8184-22.2168 38.2812-21.0449 38.2812-19.7754C38.2812-17.041 40.4297-14.8926 43.1641-14.8926Z"/>
  </g>
  <g id="Medium-M" transform="matrix(1 0 0 1 1688.47 1126)">
   <path d="M28.5156 10.4492L87.6465 10.4492C98.2422 10.4492 103.711 4.98047 103.711-5.46875L103.711-64.8926C103.711-75.3418 98.2422-80.8105 87.6465-80.8105L28.5156-80.8105C17.9688-80.8105 12.4512-75.3906 12.4512-64.8926L12.4512-5.46875C12.4512 4.98047 17.9688 10.4492 28.5156 10.4492ZM29.1504 0.732422C24.6582 0.732422 22.168-1.61133 22.168-6.34766L22.168-64.0137C22.168-68.75 24.6582-71.0938 29.1504-71.0938L87.0117-71.0938C91.4551-71.0938 93.9941-68.75 93.9941-64.0137L93.9941-6.34766C93.9941-1.61133 91.4551 0.732422 87.0117 0.732422ZM42.1387-14.7461C43.4082-14.7461 44.4824-15.2344 45.3613-16.1133L58.1055-28.9062L70.9473-16.1133C71.7773-15.2344 72.8516-14.7461 74.1699-14.7461C76.6602-14.7461 78.6133-16.748 78.6133-19.2383C78.6133-20.459 78.125-21.4844 77.2461-22.3633L64.4531-35.2051L77.2949-48.0957C78.2227-48.9746 78.6621-50 78.6621-51.1719C78.6621-53.6621 76.6602-55.6152 74.2188-55.6152C72.9492-55.6152 71.9727-55.2246 71.0449-54.2969L58.1055-41.4062L45.2637-54.248C44.4336-55.127 43.4082-55.5176 42.1387-55.5176C39.6484-55.5176 37.6953-53.6133 37.6953-51.123C37.6953-49.9512 38.1836-48.877 39.0137-48.0469L51.8555-35.2051L39.0137-22.3145C38.1836-21.4844 37.6953-20.4102 37.6953-19.2383C37.6953-16.748 39.6484-14.7461 42.1387-14.7461Z"/>
  </g>
  <g id="Regular-M" transform="matrix(1 0 0 1 1392.45 1126)">
   <path d="M27.7832 9.76562L87.0117 9.76562C97.2656 9.76562 102.344 4.6875 102.344-5.37109L102.344-64.9902C102.344-75.0488 97.2656-80.127 87.0117-80.127L27.7832-80.127C17.5781-80.127 12.4512-75.0977 12.4512-64.9902L12.4512-5.37109C12.4512 4.73633 17.5781 9.76562 27.7832 9.76562ZM27.8809 1.9043C22.998 1.9043 20.3125-0.683594 20.3125-5.76172L20.3125-64.5996C20.3125-69.6777 22.998-72.2656 27.8809-72.2656L86.9141-72.2656C91.748-72.2656 94.4824-69.6777 94.4824-64.5996L94.4824-5.76172C94.4824-0.683594 91.748 1.9043 86.9141 1.9043ZM40.7715-14.5996C41.8945-14.5996 42.8711-15.0391 43.6035-15.8203L57.4219-29.6875L71.3379-15.8203C72.0703-15.0879 72.998-14.5996 74.1211-14.5996C76.3184-14.5996 78.0273-16.3574 78.0273-18.5547C78.0273-19.6777 77.6367-20.5566 76.8555-21.3379L62.9883-35.2051L76.9043-49.1699C77.7344-50 78.0762-50.8301 78.0762-51.9043C78.0762-54.0527 76.3672-55.8105 74.1699-55.8105C73.1445-55.8105 72.3145-55.4199 71.4844-54.5898L57.4219-40.6738L43.5059-54.541C42.7734-55.3223 41.8945-55.7129 40.7715-55.7129C38.623-55.7129 36.8652-54.0039 36.8652-51.8555C36.8652-50.7812 37.3047-49.8535 38.0371-49.1211L51.9043-35.2051L38.0371-21.2891C37.3047-20.5566 36.8652-19.6289 36.8652-18.5547C36.8652-16.3574 38.623-14.5996 40.7715-14.5996Z"/>
  </g>
  <g id="Light-M" transform="matrix(1 0 0 1 1096.47 1126)">
   <path d="M26.8555 9.0332L86.4746 9.0332C95.9961 9.0332 100.879 4.15039 100.879-5.22461L100.879-65.0879C100.879-74.5117 95.9961-79.3945 86.4746-79.3945L26.8555-79.3945C17.334-79.3945 12.4512-74.5605 12.4512-65.0879L12.4512-5.22461C12.4512 4.19922 17.334 9.0332 26.8555 9.0332ZM26.9531 2.97852C21.4844 2.97852 18.5059 0.0976562 18.5059-5.56641L18.5059-64.7949C18.5059-70.4102 21.4844-73.3398 26.9531-73.3398L86.3281-73.3398C91.748-73.3398 94.8242-70.4102 94.8242-64.7949L94.8242-5.56641C94.8242 0.0976562 91.748 2.97852 86.3281 2.97852ZM39.6484-15.0879C40.5273-15.0879 41.2598-15.4297 41.8945-16.0645L56.6895-30.8594L71.4844-16.0645C72.1191-15.4297 72.8516-15.0879 73.7305-15.0879C75.4395-15.0879 76.8066-16.4551 76.8066-18.1641C76.8066-19.043 76.5137-19.7266 75.8789-20.3613L61.0352-35.2051L75.8789-50.0977C76.5625-50.7812 76.8555-51.416 76.8555-52.2949C76.8555-53.9551 75.4883-55.3223 73.7793-55.3223C72.9492-55.3223 72.2656-55.0293 71.582-54.2969L56.6895-39.502L41.8457-54.2969C41.2109-54.9316 40.5273-55.2246 39.6484-55.2246C37.9395-55.2246 36.5723-53.9551 36.5723-52.2461C36.5723-51.416 36.9141-50.6836 37.5488-50.0488L52.3926-35.2051L37.5488-20.3125C36.9141-19.7266 36.5723-18.9941 36.5723-18.1641C36.5723-16.4551 37.9395-15.0879 39.6484-15.0879Z"/>
  </g>
  <g id="Thin-M" transform="matrix(1 0 0 1 800.758 1126)">
   <path d="M25.6348 8.05664L85.7422 8.05664C94.3848 8.05664 98.877 3.4668 98.877-5.0293L98.877-65.2344C98.877-73.7305 94.3848-78.3691 85.7422-78.3691L25.6348-78.3691C16.9922-78.3691 12.4512-73.877 12.4512-65.2344L12.4512-5.0293C12.4512 3.56445 16.9922 8.05664 25.6348 8.05664ZM25.7324 4.44336C19.3848 4.44336 16.0645 1.12305 16.0645-5.22461L16.0645-65.0391C16.0645-71.4355 19.3848-74.7559 25.7324-74.7559L85.5957-74.7559C91.748-74.7559 95.2637-71.4355 95.2637-65.0391L95.2637-5.22461C95.2637 1.12305 91.748 4.44336 85.5957 4.44336ZM38.1836-15.7715C38.8184-15.7715 39.209-15.918 39.6973-16.4551L55.7129-32.4707L71.7285-16.4551C72.2168-15.9668 72.6562-15.7715 73.2422-15.7715C74.3164-15.7715 75.1953-16.5527 75.1953-17.627C75.1953-18.2129 75-18.6523 74.5605-19.0918L58.4473-35.2051L74.5605-51.3184C75.0488-51.8066 75.1953-52.1973 75.1953-52.7832C75.1953-53.8086 74.3652-54.6387 73.2422-54.6387C72.7051-54.6387 72.2656-54.4434 71.7285-53.9551L55.7129-37.9395L39.6973-53.9551C39.1602-54.4434 38.8184-54.6387 38.1836-54.6387C37.0605-54.6387 36.2305-53.8086 36.2305-52.7832C36.2305-52.1973 36.4258-51.7578 36.8652-51.3184L52.9785-35.2051L36.8652-19.0918C36.4258-18.6523 36.2305-18.2129 36.2305-17.627C36.2305-16.5527 37.0605-15.7715 38.1836-15.7715Z"/>
  </g>
  <g id="Ultralight-M" transform="matrix(1 0 0 1 504.535 1126)">
   <path d="M25 7.56836L85.3516 7.56836C93.5059 7.56836 97.9004 3.125 97.9004-4.98047L97.9004-65.2832C97.9004-73.3887 93.5059-77.832 85.3516-77.832L25-77.832C16.7969-77.832 12.4512-73.4863 12.4512-65.2832L12.4512-4.98047C12.4512 3.22266 16.7969 7.56836 25 7.56836ZM25.0977 5.17578C18.3594 5.17578 14.8438 1.66016 14.8438-5.07812L14.8438-65.1855C14.8438-71.9727 18.3594-75.4395 25.0977-75.4395L85.2051-75.4395C91.748-75.4395 95.5078-71.9727 95.5078-65.1855L95.5078-5.07812C95.5078 1.66016 91.748 5.17578 85.2051 5.17578ZM37.4023-16.1133C37.8906-16.1133 38.1348-16.2109 38.5742-16.6504L55.1758-33.252L71.8262-16.6504C72.2656-16.2109 72.5586-16.1133 72.998-16.1133C73.7793-16.1133 74.3652-16.6504 74.3652-17.334C74.3652-17.7734 74.2676-18.0664 73.877-18.457L57.1289-35.2051L73.877-51.9531C74.2676-52.2949 74.3652-52.6367 74.3652-53.0273C74.3652-53.7598 73.7793-54.2969 72.998-54.2969C72.5586-54.2969 72.2656-54.1992 71.8262-53.7598L55.1758-37.1094L38.5742-53.7598C38.1348-54.1992 37.8906-54.2969 37.4023-54.2969C36.6211-54.2969 36.0352-53.7598 36.0352-53.0273C36.0352-52.6367 36.1328-52.3438 36.5234-51.9531L53.2715-35.2051L36.5234-18.457C36.1328-18.0664 36.0352-17.7734 36.0352-17.334C36.0352-16.6504 36.6211-16.1133 37.4023-16.1133Z"/>
  </g>
  <g id="Black-S" transform="matrix(1 0 0 1 2885.5 696)">
   <path d="M25 2.92969L70.8008 2.92969C80.3711 2.92969 86.0352-2.73438 86.0352-12.3047L86.0352-58.1055C86.0352-67.6758 80.3711-73.3398 70.8008-73.3398L25-73.3398C15.4297-73.3398 9.76562-67.6758 9.76562-58.1055L9.76562-12.3047C9.76562-2.73438 15.4297 2.92969 25 2.92969ZM27.2461-11.2305C25-11.2305 23.9258-12.1094 23.9258-14.5508L23.9258-55.8594C23.9258-58.3008 25-59.1797 27.2461-59.1797L68.5547-59.1797C70.8008-59.1797 71.875-58.3008 71.875-55.8594L71.875-14.5508C71.875-12.1094 70.8008-11.2305 68.5547-11.2305ZM37.6465-19.7266C39.3066-19.7266 40.5762-20.2148 41.6504-21.2891L47.9004-27.4902L54.1992-21.2891C55.2734-20.2148 56.543-19.7266 58.2031-19.7266C61.2305-19.7266 63.5254-22.0215 63.5254-25.0977C63.5254-26.416 62.9395-27.7344 61.9141-28.7598L55.5664-35.1562L61.9141-41.5527C62.9395-42.5781 63.5254-43.8965 63.5254-45.2148C63.5254-48.291 61.2305-50.5859 58.2031-50.5859C56.543-50.5859 55.2734-50.0977 54.1992-49.0234L47.9004-42.7734L41.6504-49.0234C40.5762-50.0977 39.3066-50.5859 37.6465-50.5859C34.6191-50.5859 32.3242-48.291 32.3242-45.2148C32.3242-43.8965 32.9102-42.5781 33.9355-41.5527L40.332-35.1562L33.9355-28.7598C32.9102-27.7344 32.3242-26.416 32.3242-25.0977C32.3242-22.0215 34.6191-19.7266 37.6465-19.7266Z"/>
  </g>
  <g id="Heavy-S" transform="matrix(1 0 0 1 2589.4 696)">
   <path d="M24.3652 2.34375L70.2637 2.34375C79.541 2.34375 84.8145-2.97852 84.8145-12.207L84.8145-58.2031C84.8145-67.4316 79.541-72.7539 70.2637-72.7539L24.3652-72.7539C15.0879-72.7539 9.76562-67.4316 9.76562-58.2031L9.76562-12.207C9.76562-2.97852 15.0879 2.34375 24.3652 2.34375ZM26.0742-10.1562C23.5352-10.1562 22.2656-11.2793 22.2656-14.0137L22.2656-56.3965C22.2656-59.1309 23.5352-60.2539 26.0742-60.2539L68.5059-60.2539C71.0449-60.2539 72.3633-59.1309 72.3633-56.3965L72.3633-14.0137C72.3633-11.2793 71.0449-10.1562 68.5059-10.1562ZM36.4258-19.5312C37.9395-19.5312 39.1113-19.9707 40.0879-20.9473L47.3145-28.1738L54.5898-20.9473C55.5176-19.9707 56.6895-19.5312 58.2031-19.5312C60.9863-19.5312 63.0859-21.6309 63.0859-24.4629C63.0859-25.6836 62.5488-26.9043 61.6211-27.832L54.2969-35.1562L61.6211-42.5293C62.5977-43.5059 63.1348-44.6777 63.1348-45.8984C63.1348-48.6816 60.9863-50.8301 58.2031-50.8301C56.7383-50.8301 55.6152-50.3906 54.5898-49.3652L47.3145-42.1387L40.0391-49.3652C39.0625-50.3418 37.9395-50.7812 36.4258-50.7812C33.6426-50.7812 31.543-48.6816 31.543-45.8984C31.543-44.6777 32.0801-43.457 33.0078-42.5293L40.3809-35.1562L33.0078-27.832C32.0801-26.9043 31.543-25.6836 31.543-24.4629C31.543-21.6309 33.6426-19.5312 36.4258-19.5312Z"/>
  </g>
  <g id="Bold-S" transform="matrix(1 0 0 1 2293.35 696)">
   <path d="M23.6328 1.66016L69.6289 1.66016C78.6133 1.66016 83.4961-3.22266 83.4961-12.1094L83.4961-58.3008C83.4961-67.1875 78.6133-72.0703 69.6289-72.0703L23.6328-72.0703C14.6973-72.0703 9.76562-67.1875 9.76562-58.3008L9.76562-12.1094C9.76562-3.22266 14.6973 1.66016 23.6328 1.66016ZM24.8047-8.93555C21.9238-8.93555 20.3613-10.3516 20.3613-13.4277L20.3613-56.9824C20.3613-60.0586 21.9238-61.4746 24.8047-61.4746L68.457-61.4746C71.3379-61.4746 72.9004-60.0586 72.9004-56.9824L72.9004-13.4277C72.9004-10.3516 71.3379-8.93555 68.457-8.93555ZM35.0586-19.2871C36.377-19.2871 37.4512-19.7266 38.2812-20.5566L46.6309-28.9062L54.9805-20.5566C55.8594-19.7266 56.8848-19.2871 58.2031-19.2871C60.6934-19.2871 62.6465-21.2402 62.6465-23.7305C62.6465-24.9023 62.1582-25.9277 61.2793-26.7578L52.9297-35.2051L61.3281-43.6035C62.207-44.4824 62.6465-45.5078 62.6465-46.6797C62.6465-49.1699 60.7422-51.0742 58.252-51.0742C56.9824-51.0742 55.957-50.6836 55.0781-49.8047L46.6309-41.4062L38.2324-49.7559C37.4023-50.6348 36.377-51.0254 35.0586-51.0254C32.5684-51.0254 30.6641-49.1211 30.6641-46.6309C30.6641-45.5078 31.1523-44.4336 31.9824-43.6035L40.3809-35.2051L31.9824-26.7578C31.1523-25.9277 30.6641-24.8535 30.6641-23.7305C30.6641-21.2402 32.5684-19.2871 35.0586-19.2871Z"/>
  </g>
  <g id="Semibold-S" transform="matrix(1 0 0 1 1997.1 696)">
   <path d="M23.0957 1.17188L69.1895 1.17188C77.9297 1.17188 82.5684-3.36914 82.5684-12.0117L82.5684-58.3984C82.5684-67.041 77.9297-71.582 69.1895-71.582L23.0957-71.582C14.4043-71.582 9.76562-67.041 9.76562-58.3984L9.76562-12.0117C9.76562-3.36914 14.4043 1.17188 23.0957 1.17188ZM23.877-8.10547C20.752-8.10547 19.0918-9.7168 19.0918-12.9883L19.0918-57.4219C19.0918-60.6934 20.752-62.3047 23.877-62.3047L68.4082-62.3047C71.5332-62.3047 73.2422-60.6934 73.2422-57.4219L73.2422-12.9883C73.2422-9.7168 71.5332-8.10547 68.4082-8.10547ZM34.1309-19.0918C35.3027-19.0918 36.3281-19.5312 37.0605-20.3125L46.1426-29.3945L55.2734-20.3125C56.0547-19.5801 57.0312-19.0918 58.252-19.0918C60.498-19.0918 62.3047-20.9473 62.3047-23.2422C62.3047-24.3164 61.8652-25.293 61.084-26.0742L51.9531-35.2051L61.084-44.3848C61.9141-45.2148 62.3047-46.1426 62.3047-47.168C62.3047-49.4629 60.5469-51.2695 58.252-51.2695C57.1289-51.2695 56.2012-50.8789 55.3711-50.0488L46.1426-40.918L37.0117-50.0488C36.2305-50.8301 35.3027-51.2207 34.1309-51.2207C31.8359-51.2207 30.0781-49.4629 30.0781-47.168C30.0781-46.0938 30.5176-45.1172 31.2988-44.3359L40.4297-35.2051L31.2988-26.0254C30.5176-25.293 30.0781-24.2676 30.0781-23.2422C30.0781-20.9473 31.8359-19.0918 34.1309-19.0918Z"/>
  </g>
  <g id="Medium-S" transform="matrix(1 0 0 1 1700.75 696)">
   <path d="M22.7051 0.830078L68.8965 0.830078C77.4414 0.830078 81.8359-3.51562 81.8359-11.9629L81.8359-58.4473C81.8359-66.8945 77.4414-71.2402 68.8965-71.2402L22.7051-71.2402C14.209-71.2402 9.76562-66.8945 9.76562-58.4473L9.76562-11.9629C9.76562-3.51562 14.209 0.830078 22.7051 0.830078ZM23.1934-7.4707C19.9219-7.4707 18.0664-9.22852 18.0664-12.6953L18.0664-57.7148C18.0664-61.1816 19.9219-62.9395 23.1934-62.9395L68.4082-62.9395C71.6797-62.9395 73.5352-61.1816 73.5352-57.7148L73.5352-12.6953C73.5352-9.22852 71.6797-7.4707 68.4082-7.4707ZM33.3984-18.9941C34.4727-18.9941 35.4492-19.3848 36.1328-20.1172L45.8008-29.7852L55.5176-20.1172C56.2012-19.4336 57.1289-18.9941 58.252-18.9941C60.3516-18.9941 62.0605-20.7031 62.0605-22.8516C62.0605-23.877 61.6211-24.8047 60.8887-25.5371L51.2207-35.2051L60.9375-44.9707C61.7188-45.7031 62.1094-46.582 62.1094-47.6074C62.1094-49.707 60.4004-51.416 58.252-51.416C57.2266-51.416 56.3965-51.0254 55.6152-50.293L45.8008-40.5273L36.084-50.2441C35.3516-50.9766 34.4727-51.3184 33.3984-51.3184C31.2988-51.3184 29.5898-49.6582 29.5898-47.5586C29.5898-46.5332 30.0293-45.6055 30.7617-44.9219L40.4297-35.2051L30.7617-25.4883C30.0293-24.8047 29.5898-23.877 29.5898-22.8516C29.5898-20.7031 31.2988-18.9941 33.3984-18.9941Z"/>
  </g>
  <g id="Regular-S" transform="matrix(1 0 0 1 1404.51 696)">
   <path d="M22.2168 0.390625L68.457 0.390625C76.8066 0.390625 80.9082-3.71094 80.9082-11.9141L80.9082-58.4961C80.9082-66.6992 76.8066-70.8008 68.457-70.8008L22.2168-70.8008C13.916-70.8008 9.76562-66.6992 9.76562-58.4961L9.76562-11.9141C9.76562-3.71094 13.916 0.390625 22.2168 0.390625ZM22.3145-6.68945C18.7988-6.68945 16.7969-8.54492 16.7969-12.2559L16.7969-58.1543C16.7969-61.8164 18.7988-63.7207 22.3145-63.7207L68.3594-63.7207C71.875-63.7207 73.877-61.8164 73.877-58.1543L73.877-12.2559C73.877-8.54492 71.875-6.68945 68.3594-6.68945ZM32.4707-18.8477C33.4473-18.8477 34.3262-19.1895 34.9609-19.873L45.3613-30.3223L55.8105-19.873C56.3965-19.2383 57.2754-18.8477 58.252-18.8477C60.1562-18.8477 61.7188-20.4102 61.7188-22.3633C61.7188-23.3398 61.3281-24.1211 60.6934-24.8047L50.293-35.2051L60.7422-45.7031C61.4258-46.3867 61.7676-47.168 61.7676-48.0957C61.7676-50.0488 60.2051-51.5625 58.3008-51.5625C57.373-51.5625 56.6406-51.2695 55.9082-50.5371L45.3613-40.0391L34.8633-50.4883C34.2285-51.1719 33.4473-51.5137 32.4707-51.5137C30.5664-51.5137 29.0039-50 29.0039-48.0469C29.0039-47.1191 29.3945-46.2891 30.0293-45.6543L40.4297-35.2051L30.0293-24.7559C29.3945-24.1211 29.0039-23.291 29.0039-22.3633C29.0039-20.4102 30.5664-18.8477 32.4707-18.8477Z"/>
  </g>
  <g id="Light-S" transform="matrix(1 0 0 1 1108.46 696)">
   <path d="M21.3867-0.292969L67.9688-0.292969C75.7324-0.292969 79.5898-4.15039 79.5898-11.7676L79.5898-58.5938C79.5898-66.2109 75.7324-70.1172 67.9688-70.1172L21.3867-70.1172C13.6719-70.1172 9.76562-66.2598 9.76562-58.5938L9.76562-11.7676C9.76562-4.15039 13.6719-0.292969 21.3867-0.292969ZM21.4844-5.71289C17.4316-5.71289 15.1855-7.86133 15.1855-12.0605L15.1855-58.3008C15.1855-62.5 17.4316-64.6973 21.4844-64.6973L67.8711-64.6973C71.875-64.6973 74.1699-62.5 74.1699-58.3008L74.1699-12.0605C74.1699-7.86133 71.875-5.71289 67.8711-5.71289ZM31.4941-19.2871C32.2754-19.2871 32.9102-19.5312 33.4473-20.1172L44.6777-31.3477L55.957-20.1172C56.4453-19.5801 57.1289-19.2871 57.9102-19.2871C59.4238-19.2871 60.6445-20.5078 60.6445-22.0215C60.6445-22.8027 60.3516-23.3887 59.8145-23.9746L48.5352-35.2051L59.8145-46.5332C60.4004-47.1191 60.6934-47.7051 60.6934-48.4375C60.6934-49.9512 59.4727-51.123 57.959-51.123C57.2266-51.123 56.6406-50.8789 56.0059-50.293L44.6777-39.0137L33.3984-50.2441C32.8613-50.8301 32.2754-51.0742 31.4941-51.0742C29.9805-51.0742 28.7598-49.9023 28.7598-48.3887C28.7598-47.6562 29.0527-47.0215 29.5898-46.4844L40.8691-35.2051L29.5898-23.9258C29.0527-23.3887 28.7598-22.7539 28.7598-22.0215C28.7598-20.5078 29.9805-19.2871 31.4941-19.2871Z"/>
  </g>
  <g id="Thin-S" transform="matrix(1 0 0 1 812.599 696)">
   <path d="M20.3125-1.12305L67.334-1.12305C74.2676-1.12305 77.8809-4.78516 77.8809-11.6211L77.8809-58.6914C77.8809-65.5762 74.2676-69.2383 67.334-69.2383L20.3125-69.2383C13.3789-69.2383 9.76562-65.625 9.76562-58.6914L9.76562-11.6211C9.76562-4.6875 13.3789-1.12305 20.3125-1.12305ZM20.4102-4.44336C15.625-4.44336 13.0859-6.93359 13.0859-11.8164L13.0859-58.5449C13.0859-63.3789 15.625-65.918 20.4102-65.918L67.2363-65.918C71.875-65.918 74.5605-63.3789 74.5605-58.5449L74.5605-11.8164C74.5605-6.93359 71.875-4.44336 67.2363-4.44336ZM30.1758-19.8242C30.7129-19.8242 31.1035-20.0195 31.4941-20.459L43.7988-32.7637L56.1035-20.459C56.543-20.0195 56.9336-19.8242 57.4707-19.8242C58.4473-19.8242 59.2285-20.6055 59.2285-21.5332C59.2285-22.0703 59.0332-22.4609 58.6426-22.8516L46.2891-35.2051L58.6426-47.6074C59.082-47.998 59.2285-48.3887 59.2285-48.877C59.2285-49.8535 58.4473-50.5859 57.4707-50.5859C56.9824-50.5859 56.5918-50.3906 56.1523-49.9512L43.7988-37.6465L31.4941-49.9512C31.0547-50.3906 30.7129-50.5371 30.1758-50.5371C29.1992-50.5371 28.418-49.8047 28.418-48.877C28.418-48.3887 28.6133-47.9492 29.0039-47.6074L41.3574-35.2051L29.0039-22.8027C28.6133-22.4609 28.418-22.0215 28.418-21.5332C28.418-20.6055 29.1992-19.8242 30.1758-19.8242Z"/>
  </g>
  <g id="Ultralight-S" transform="matrix(1 0 0 1 516.352 696)">
   <path d="M19.7754-1.5625L66.9922-1.5625C73.5352-1.5625 76.9531-5.12695 76.9531-11.5234L76.9531-58.7891C76.9531-65.2344 73.5352-68.75 66.9922-68.75L19.7754-68.75C13.2324-68.75 9.76562-65.2832 9.76562-58.7891L9.76562-11.5234C9.76562-5.0293 13.2324-1.5625 19.7754-1.5625ZM19.873-3.75977C14.6484-3.75977 11.9629-6.44531 11.9629-11.6699L11.9629-58.6426C11.9629-63.8672 14.6484-66.5527 19.873-66.5527L66.8945-66.5527C71.875-66.5527 74.7559-63.8672 74.7559-58.6426L74.7559-11.6699C74.7559-6.44531 71.875-3.75977 66.8945-3.75977ZM29.4922-20.166C29.9316-20.166 30.127-20.2637 30.5176-20.6055L43.3594-33.4961L56.25-20.6055C56.5918-20.2637 56.8359-20.166 57.2266-20.166C57.9102-20.166 58.4473-20.6543 58.4473-21.2891C58.4473-21.6797 58.3496-21.9238 58.0566-22.2656L45.1172-35.2051L58.0566-48.1445C58.3496-48.4863 58.4961-48.7305 58.4961-49.1211C58.4961-49.7559 57.9102-50.2441 57.2266-50.2441C56.8848-50.2441 56.5918-50.1465 56.25-49.8047L43.3594-36.9141L30.5176-49.8047C30.127-50.1465 29.9316-50.2441 29.4922-50.2441C28.8086-50.2441 28.2715-49.7559 28.2715-49.1211C28.2715-48.7305 28.3691-48.4863 28.6621-48.1445L41.6504-35.2051L28.6621-22.2656C28.3691-21.9238 28.2715-21.6797 28.2715-21.2891C28.2715-20.6543 28.8086-20.166 29.4922-20.166Z"/>
  </g>
 </g>
</svg>
