<?xml version="1.0" encoding="UTF-8"?>
<!--Generator: Apple Native CoreSVG 149-->
<!DOCTYPE svg
PUBLIC "-//W3C//DTD SVG 1.1//EN"
       "http://www.w3.org/Graphics/SVG/1.1/DTD/svg11.dtd">
<svg version="1.1" xmlns="http://www.w3.org/2000/svg" xmlns:xlink="http://www.w3.org/1999/xlink" width="3300" height="2200">
 <!--glyph: "uni10031A.medium", point size: 100.000000, font version: "Version 16.0d12e3", template writer version: "8"-->
 <g id="Notes">
  <rect height="2200" id="artboard" style="fill:white;opacity:1" width="3300" x="0" y="0"/>
  <line id="" style="fill:none;stroke:black;opacity:1;stroke-width:0.5;" x1="263" x2="3036" y1="292" y2="292"/>
  <text style="stroke:none;fill:black;font-family:-apple-system,&quot;SF Pro Display&quot;,&quot;SF Pro Text&quot;,Helvetica,sans-serif;font-weight:bold;" transform="matrix(1 0 0 1 263 322)">Weight/Scale Variations</text>
  <text style="stroke:none;fill:black;font-family:-apple-system,&quot;SF Pro Display&quot;,&quot;SF Pro Text&quot;,Helvetica,sans-serif;text-anchor:middle;" transform="matrix(1 0 0 1 559.711 322)">Ultralight</text>
  <text style="stroke:none;fill:black;font-family:-apple-system,&quot;SF Pro Display&quot;,&quot;SF Pro Text&quot;,Helvetica,sans-serif;text-anchor:middle;" transform="matrix(1 0 0 1 856.422 322)">Thin</text>
  <text style="stroke:none;fill:black;font-family:-apple-system,&quot;SF Pro Display&quot;,&quot;SF Pro Text&quot;,Helvetica,sans-serif;text-anchor:middle;" transform="matrix(1 0 0 1 1153.13 322)">Light</text>
  <text style="stroke:none;fill:black;font-family:-apple-system,&quot;SF Pro Display&quot;,&quot;SF Pro Text&quot;,Helvetica,sans-serif;text-anchor:middle;" transform="matrix(1 0 0 1 1449.84 322)">Regular</text>
  <text style="stroke:none;fill:black;font-family:-apple-system,&quot;SF Pro Display&quot;,&quot;SF Pro Text&quot;,Helvetica,sans-serif;text-anchor:middle;" transform="matrix(1 0 0 1 1746.56 322)">Medium</text>
  <text style="stroke:none;fill:black;font-family:-apple-system,&quot;SF Pro Display&quot;,&quot;SF Pro Text&quot;,Helvetica,sans-serif;text-anchor:middle;" transform="matrix(1 0 0 1 2043.27 322)">Semibold</text>
  <text style="stroke:none;fill:black;font-family:-apple-system,&quot;SF Pro Display&quot;,&quot;SF Pro Text&quot;,Helvetica,sans-serif;text-anchor:middle;" transform="matrix(1 0 0 1 2339.98 322)">Bold</text>
  <text style="stroke:none;fill:black;font-family:-apple-system,&quot;SF Pro Display&quot;,&quot;SF Pro Text&quot;,Helvetica,sans-serif;text-anchor:middle;" transform="matrix(1 0 0 1 2636.69 322)">Heavy</text>
  <text style="stroke:none;fill:black;font-family:-apple-system,&quot;SF Pro Display&quot;,&quot;SF Pro Text&quot;,Helvetica,sans-serif;text-anchor:middle;" transform="matrix(1 0 0 1 2933.4 322)">Black</text>
  <line id="" style="fill:none;stroke:black;opacity:1;stroke-width:0.5;" x1="263" x2="3036" y1="1903" y2="1903"/>
  <g id="" transform="matrix(1 0 0 1 263 1933)">
   <path d="M9.24805 0.830078C13.5547 0.830078 17.1387-2.74414 17.1387-7.05078C17.1387-11.3574 13.5449-14.9316 9.23828-14.9316C4.94141-14.9316 1.36719-11.3574 1.36719-7.05078C1.36719-2.74414 4.95117 0.830078 9.24805 0.830078ZM9.24805-0.654297C5.70312-0.654297 2.87109-3.49609 2.87109-7.05078C2.87109-10.6055 5.69336-13.4473 9.23828-13.4473C12.793-13.4473 15.6348-10.6055 15.6445-7.05078C15.6543-3.49609 12.8027-0.654297 9.24805-0.654297ZM9.22852-3.62305C9.69727-3.62305 9.9707-3.93555 9.9707-4.45312L9.9707-6.31836L12.002-6.31836C12.5-6.31836 12.832-6.57227 12.832-7.04102C12.832-7.51953 12.5195-7.7832 12.002-7.7832L9.9707-7.7832L9.9707-9.81445C9.9707-10.332 9.69727-10.6543 9.22852-10.6543C8.75977-10.6543 8.50586-10.3125 8.50586-9.81445L8.50586-7.7832L6.49414-7.7832C5.97656-7.7832 5.64453-7.51953 5.64453-7.04102C5.64453-6.57227 5.99609-6.31836 6.49414-6.31836L8.50586-6.31836L8.50586-4.45312C8.50586-3.95508 8.75977-3.62305 9.22852-3.62305Z"/>
  </g>
  <g id="" transform="matrix(1 0 0 1 281.506 1933)">
   <path d="M11.709 2.91016C17.1582 2.91016 21.6699-1.61133 21.6699-7.05078C21.6699-12.5 17.1484-17.0117 11.6992-17.0117C6.25977-17.0117 1.74805-12.5 1.74805-7.05078C1.74805-1.61133 6.26953 2.91016 11.709 2.91016ZM11.709 1.25C7.09961 1.25 3.41797-2.44141 3.41797-7.05078C3.41797-11.6602 7.08984-15.3516 11.6992-15.3516C16.3086-15.3516 20-11.6602 20.0098-7.05078C20.0195-2.44141 16.3184 1.25 11.709 1.25ZM11.6797-2.66602C12.207-2.66602 12.5098-3.01758 12.5098-3.59375L12.5098-6.23047L15.3223-6.23047C15.8691-6.23047 16.25-6.51367 16.25-7.03125C16.25-7.55859 15.8887-7.86133 15.3223-7.86133L12.5098-7.86133L12.5098-10.6836C12.5098-11.25 12.207-11.6113 11.6797-11.6113C11.1621-11.6113 10.8789-11.2305 10.8789-10.6836L10.8789-7.86133L8.07617-7.86133C7.50977-7.86133 7.13867-7.55859 7.13867-7.03125C7.13867-6.51367 7.5293-6.23047 8.07617-6.23047L10.8789-6.23047L10.8789-3.59375C10.8789-3.03711 11.1621-2.66602 11.6797-2.66602Z"/>
  </g>
  <g id="" transform="matrix(1 0 0 1 304.924 1933)">
   <path d="M14.9707 5.66406C21.9336 5.66406 27.6953-0.0976562 27.6953-7.05078C27.6953-14.0137 21.9238-19.7754 14.9609-19.7754C8.00781-19.7754 2.25586-14.0137 2.25586-7.05078C2.25586-0.0976562 8.01758 5.66406 14.9707 5.66406ZM14.9707 3.84766C8.93555 3.84766 4.08203-1.01562 4.08203-7.05078C4.08203-13.0957 8.92578-17.9492 14.9609-17.9492C21.0059-17.9492 25.8594-13.0957 25.8691-7.05078C25.8789-1.01562 21.0156 3.84766 14.9707 3.84766ZM14.9414-1.38672C15.5176-1.38672 15.8594-1.77734 15.8594-2.38281L15.8594-6.13281L19.7754-6.13281C20.3711-6.13281 20.7812-6.46484 20.7812-7.02148C20.7812-7.59766 20.3906-7.93945 19.7754-7.93945L15.8594-7.93945L15.8594-11.8652C15.8594-12.4805 15.5176-12.8711 14.9414-12.8711C14.375-12.8711 14.0527-12.4609 14.0527-11.8652L14.0527-7.93945L10.1465-7.93945C9.53125-7.93945 9.13086-7.59766 9.13086-7.02148C9.13086-6.46484 9.55078-6.13281 10.1465-6.13281L14.0527-6.13281L14.0527-2.38281C14.0527-1.79688 14.375-1.38672 14.9414-1.38672Z"/>
  </g>
  <text style="stroke:none;fill:black;font-family:-apple-system,&quot;SF Pro Display&quot;,&quot;SF Pro Text&quot;,Helvetica,sans-serif;font-weight:bold;" transform="matrix(1 0 0 1 263 1953)">Design Variations</text>
  <text style="stroke:none;fill:black;font-family:-apple-system,&quot;SF Pro Display&quot;,&quot;SF Pro Text&quot;,Helvetica,sans-serif;" transform="matrix(1 0 0 1 263 1971)">Symbols are supported in up to nine weights and three scales.</text>
  <text style="stroke:none;fill:black;font-family:-apple-system,&quot;SF Pro Display&quot;,&quot;SF Pro Text&quot;,Helvetica,sans-serif;" transform="matrix(1 0 0 1 263 1989)">For optimal layout with text and other symbols, vertically align</text>
  <text style="stroke:none;fill:black;font-family:-apple-system,&quot;SF Pro Display&quot;,&quot;SF Pro Text&quot;,Helvetica,sans-serif;" transform="matrix(1 0 0 1 263 2007)">symbols with the adjacent text.</text>
  <line id="" style="fill:none;stroke:#00AEEF;stroke-width:0.5;opacity:1.0;" x1="776" x2="776" y1="1919" y2="1933"/>
  <g id="" transform="matrix(1 0 0 1 776 1933)">
   <path d="M3.31055 0.126953C3.82812 0.126953 4.08203-0.0683594 4.26758-0.605469L5.52734-4.0625L11.2891-4.0625L12.5488-0.605469C12.7344-0.0683594 12.9883 0.126953 13.4961 0.126953C14.0137 0.126953 14.3457-0.185547 14.3457-0.673828C14.3457-0.839844 14.3164-0.986328 14.2383-1.20117L9.6582-13.3887C9.43359-13.9941 9.0332-14.2871 8.4082-14.2871C7.80273-14.2871 7.39258-13.9941 7.17773-13.3984L2.59766-1.19141C2.51953-0.976562 2.49023-0.830078 2.49023-0.664062C2.49023-0.175781 2.80273 0.126953 3.31055 0.126953ZM6.00586-5.53711L8.37891-12.1094L8.42773-12.1094L10.8008-5.53711Z"/>
  </g>
  <line id="" style="fill:none;stroke:#00AEEF;stroke-width:0.5;opacity:1.0;" x1="792.836" x2="792.836" y1="1919" y2="1933"/>
  <text style="stroke:none;fill:black;font-family:-apple-system,&quot;SF Pro Display&quot;,&quot;SF Pro Text&quot;,Helvetica,sans-serif;font-weight:bold;" transform="matrix(1 0 0 1 776 1953)">Margins</text>
  <text style="stroke:none;fill:black;font-family:-apple-system,&quot;SF Pro Display&quot;,&quot;SF Pro Text&quot;,Helvetica,sans-serif;" transform="matrix(1 0 0 1 776 1971)">Leading and trailing margins on the left and right side of each symbol</text>
  <text style="stroke:none;fill:black;font-family:-apple-system,&quot;SF Pro Display&quot;,&quot;SF Pro Text&quot;,Helvetica,sans-serif;" transform="matrix(1 0 0 1 776 1989)">can be adjusted by modifying the x-location of the margin guidelines.</text>
  <text style="stroke:none;fill:black;font-family:-apple-system,&quot;SF Pro Display&quot;,&quot;SF Pro Text&quot;,Helvetica,sans-serif;" transform="matrix(1 0 0 1 776 2007)">Modifications are automatically applied proportionally to all</text>
  <text style="stroke:none;fill:black;font-family:-apple-system,&quot;SF Pro Display&quot;,&quot;SF Pro Text&quot;,Helvetica,sans-serif;" transform="matrix(1 0 0 1 776 2025)">scales and weights.</text>
  <g id="" transform="matrix(1 0 0 1 1289 1933)">
   <path d="M2.8418 1.86523L4.54102 3.57422C5.40039 4.44336 6.38672 4.38477 7.31445 3.35938L17.4902-7.85156C17.7539-7.76367 18.0273-7.7832 18.3398-7.8418L19.4043-8.03711L20.0684-7.36328L20.0293-6.80664C19.9902-6.30859 20.1172-5.92773 20.6055-5.44922L21.3672-4.70703C21.8457-4.22852 22.4609-4.19922 22.9297-4.66797L25.8398-7.58789C26.3086-8.05664 26.2891-8.65234 25.8105-9.13086L25.0391-9.89258C24.5605-10.3711 24.1895-10.5273 23.7109-10.4883L23.1348-10.4395L22.4902-11.0742L22.7344-12.1973C22.8613-12.7637 22.7051-13.2031 22.1191-13.7891L19.9219-15.9766C16.582-19.2969 12.1484-19.2188 9.25781-16.3281C8.83789-15.918 8.80859-15.3418 9.04297-14.9512C9.27734-14.5898 9.73633-14.3555 10.3809-14.5215C11.8457-14.8633 13.3691-14.9219 14.7949-13.9844L14.209-12.5293C14.0137-12.0508 13.9844-11.6504 14.1113-11.2891L3.04688-0.898438C2.06055 0.0195312 1.98242 0.996094 2.8418 1.86523ZM10.752-15.957C13.1836-17.7344 16.4746-17.4316 18.7012-15.2051L21.1328-12.793C21.3672-12.5586 21.4062-12.373 21.3379-12.0312L21.0156-10.5469L22.5195-9.0625L23.5059-9.12109C23.7598-9.13086 23.8379-9.11133 24.0332-8.91602L24.6094-8.33984L22.168-5.89844L21.5918-6.47461C21.3965-6.66992 21.3672-6.74805 21.377-7.01172L21.4453-7.98828L19.9512-9.47266L18.4277-9.21875C18.1055-9.15039 17.959-9.17969 17.7148-9.41406L15.7129-11.416C15.459-11.6504 15.4297-11.8164 15.5859-12.1875L16.4648-14.2773C14.9023-15.7324 12.8711-16.3574 10.8398-15.7617C10.6836-15.7227 10.625-15.8496 10.752-15.957ZM5.27344 2.30469L4.10156 1.14258C3.63281 0.683594 3.74023 0.341797 4.14062-0.0195312L14.9512-10.1953L16.416-8.71094L6.42578 2.27539C6.07422 2.67578 5.74219 2.77344 5.27344 2.30469Z"/>
  </g>
  <text style="stroke:none;fill:black;font-family:-apple-system,&quot;SF Pro Display&quot;,&quot;SF Pro Text&quot;,Helvetica,sans-serif;font-weight:bold;" transform="matrix(1 0 0 1 1289 1953)">Exporting</text>
  <text style="stroke:none;fill:black;font-family:-apple-system,&quot;SF Pro Display&quot;,&quot;SF Pro Text&quot;,Helvetica,sans-serif;" transform="matrix(1 0 0 1 1289 1971)">Symbols should be outlined when exporting to ensure the</text>
  <text style="stroke:none;fill:black;font-family:-apple-system,&quot;SF Pro Display&quot;,&quot;SF Pro Text&quot;,Helvetica,sans-serif;" transform="matrix(1 0 0 1 1289 1989)">design is preserved when submitting to Xcode.</text>
  <text id="template-version" style="stroke:none;fill:black;font-family:-apple-system,&quot;SF Pro Display&quot;,&quot;SF Pro Text&quot;,Helvetica,sans-serif;text-anchor:end;" transform="matrix(1 0 0 1 3036 1933)">Template v.2.0</text>
  <text style="stroke:none;fill:black;font-family:-apple-system,&quot;SF Pro Display&quot;,&quot;SF Pro Text&quot;,Helvetica,sans-serif;text-anchor:end;" transform="matrix(1 0 0 1 3036 1951)">Requires Xcode 12 or greater</text>
  <text style="stroke:none;fill:black;font-family:-apple-system,&quot;SF Pro Display&quot;,&quot;SF Pro Text&quot;,Helvetica,sans-serif;text-anchor:end;" transform="matrix(1 0 0 1 3036 1969)">Generated from ant</text>
  <text style="stroke:none;fill:black;font-family:-apple-system,&quot;SF Pro Display&quot;,&quot;SF Pro Text&quot;,Helvetica,sans-serif;text-anchor:end;" transform="matrix(1 0 0 1 3036 1987)">Typeset at 100 points</text>
  <text style="stroke:none;fill:black;font-family:-apple-system,&quot;SF Pro Display&quot;,&quot;SF Pro Text&quot;,Helvetica,sans-serif;" transform="matrix(1 0 0 1 263 726)">Small</text>
  <text style="stroke:none;fill:black;font-family:-apple-system,&quot;SF Pro Display&quot;,&quot;SF Pro Text&quot;,Helvetica,sans-serif;" transform="matrix(1 0 0 1 263 1156)">Medium</text>
  <text style="stroke:none;fill:black;font-family:-apple-system,&quot;SF Pro Display&quot;,&quot;SF Pro Text&quot;,Helvetica,sans-serif;" transform="matrix(1 0 0 1 263 1586)">Large</text>
 </g>
 <g id="Guides">
  <g id="H-reference" style="fill:#27AAE1;stroke:none;" transform="matrix(1 0 0 1 339 696)">
   <path d="M0.976562 0L3.66211 0L12.9883-24.4629L45.752-24.4629L55.127 0L57.7637 0L30.6152-70.459L28.125-70.459ZM29.3457-67.1387L29.4434-67.1387L44.873-26.709L13.8672-26.709Z"/>
  </g>
  <line id="Baseline-S" style="fill:none;stroke:#27AAE1;opacity:1;stroke-width:0.5;" x1="263" x2="3036" y1="696" y2="696"/>
  <line id="Capline-S" style="fill:none;stroke:#27AAE1;opacity:1;stroke-width:0.5;" x1="263" x2="3036" y1="625.541" y2="625.541"/>
  <g id="H-reference" style="fill:#27AAE1;stroke:none;" transform="matrix(1 0 0 1 339 1126)">
   <path d="M0.976562 0L3.66211 0L12.9883-24.4629L45.752-24.4629L55.127 0L57.7637 0L30.6152-70.459L28.125-70.459ZM29.3457-67.1387L29.4434-67.1387L44.873-26.709L13.8672-26.709Z"/>
  </g>
  <line id="Baseline-M" style="fill:none;stroke:#27AAE1;opacity:1;stroke-width:0.5;" x1="263" x2="3036" y1="1126" y2="1126"/>
  <line id="Capline-M" style="fill:none;stroke:#27AAE1;opacity:1;stroke-width:0.5;" x1="263" x2="3036" y1="1055.54" y2="1055.54"/>
  <g id="H-reference" style="fill:#27AAE1;stroke:none;" transform="matrix(1 0 0 1 339 1556)">
   <path d="M0.976562 0L3.66211 0L12.9883-24.4629L45.752-24.4629L55.127 0L57.7637 0L30.6152-70.459L28.125-70.459ZM29.3457-67.1387L29.4434-67.1387L44.873-26.709L13.8672-26.709Z"/>
  </g>
  <line id="Baseline-L" style="fill:none;stroke:#27AAE1;opacity:1;stroke-width:0.5;" x1="263" x2="3036" y1="1556" y2="1556"/>
  <line id="Capline-L" style="fill:none;stroke:#27AAE1;opacity:1;stroke-width:0.5;" x1="263" x2="3036" y1="1485.54" y2="1485.54"/>
  <line id="left-margin" style="fill:none;stroke:#00AEEF;stroke-width:0.5;opacity:1.0;" x1="1396.7" x2="1396.7" y1="1030.79" y2="1150.12"/>
  <line id="right-margin" style="fill:none;stroke:#00AEEF;stroke-width:0.5;opacity:1.0;" x1="1502.99" x2="1502.99" y1="1030.79" y2="1150.12"/>
 </g>
 <g id="Symbols">
  <g id="Black-L" transform="matrix(1 0 0 1 2858.96 1556)">
   <path d="M29.1504 40.1367C33.6914 40.1367 37.2559 36.8652 36.377 31.2012L32.2266 3.66211C31.543-0.683594 33.1055-2.58789 38.623-3.95508C38.5254-2.83203 38.4277-1.61133 38.4277-0.341797C38.4277 21.8262 55.0781 42.5293 74.4141 42.5293C93.8965 42.5293 110.4 21.8262 110.4-0.341797C110.4-1.61133 110.352-2.83203 110.254-3.95508C115.771-2.58789 117.334-0.683594 116.65 3.66211L112.451 31.2012C111.572 36.8652 115.186 40.1367 119.727 40.1367C124.561 40.1367 126.855 37.1582 127.588 32.3242L132.471 0.732422C134.033-9.13086 130.127-14.5996 119.238-16.9922L90.1855-23.4863L90.1855-24.1699C91.9922-25.0488 93.4082-26.3672 94.5312-27.9785L115.527-29.9805C125.977-30.957 130.859-37.6953 130.859-48.291L130.859-69.3359C130.859-74.0234 128.027-76.8066 123.34-76.8066C118.555-76.8066 115.869-74.0234 115.869-69.3359L115.869-51.5137C115.869-45.752 112.598-43.9453 107.568-43.5059L95.8984-42.3828C95.1172-44.1406 93.9453-45.7031 92.2852-46.7773L92.2852-47.4609C103.857-49.5117 109.619-56.4941 109.619-66.7969C109.619-73.4375 107.715-79.6875 104.443-85.0586L105.908-86.084C113.721-91.4551 115.234-99.1699 110.352-108.447L107.227-114.453C105.518-117.676 103.467-119.043 100.586-119.043C96.875-119.043 94.043-116.211 94.043-112.646C94.043-111.035 94.1895-110.107 95.0684-108.545L97.5098-104.199C99.3164-100.879 98.7305-97.5586 95.752-95.4102L95.2148-95.0684C89.3555-99.3652 82.1777-101.904 74.4141-101.904C66.6992-101.904 59.5703-99.3652 53.7109-95.0684L53.2227-95.4102C50.1953-97.5586 49.6582-100.879 51.4648-104.199L53.8574-108.545C54.7852-110.107 54.9316-111.035 54.9316-112.646C54.9316-116.211 52.0996-119.043 48.3887-119.043C45.459-119.043 43.457-117.676 41.748-114.453L38.5742-108.447C33.7402-99.1699 35.2539-91.4551 43.0176-86.084L44.4824-85.1074C41.1621-79.7363 39.209-73.4375 39.209-66.7969C39.209-56.4941 45.0195-49.5117 56.543-47.4609L56.543-46.7773C54.9316-45.7031 53.7598-44.1406 52.9785-42.3828L41.3086-43.5059C36.2793-43.9453 33.0078-45.752 33.0078-51.5137L33.0078-69.3359C33.0078-74.0234 30.3223-76.8066 25.5371-76.8066C20.8496-76.8066 17.9688-74.0234 17.9688-69.3359L17.9688-48.291C17.9688-37.6953 22.9004-30.957 33.3008-29.9805L54.3457-27.9785C55.4199-26.3672 56.8848-25.0488 58.6914-24.1699L58.6914-23.4863L29.5898-16.9922C18.75-14.5996 14.8438-9.13086 16.4062 0.732422L21.2891 32.3242C22.0215 37.1582 24.3164 40.1367 29.1504 40.1367ZM64.1602-59.8633C57.7637-59.8633 54.5898-62.3535 54.5898-67.3828C54.5898-77.5879 63.8184-86.4258 74.4141-86.4258C85.0586-86.4258 94.2871-77.5879 94.2871-67.3828C94.2871-62.3535 91.0645-59.8633 84.7168-59.8633ZM65.1855-36.5723C65.1855-41.8945 68.3105-44.7754 74.3164-44.7754L74.6094-44.7754C80.5176-44.7754 83.6914-41.8945 83.6914-36.5723C83.6914-29.9316 79.541-24.2188 74.6094-24.2188L74.2676-24.2188C69.3359-24.2188 65.1855-29.9316 65.1855-36.5723ZM74.4141 25C62.6953 25 54.4922 11.377 54.4922 1.02539C54.4922-6.10352 58.3496-10.3516 66.6504-10.3516L82.2266-10.3516C90.4785-10.3516 94.3848-6.10352 94.3848 1.02539C94.3848 11.377 86.1816 25 74.4141 25Z"/>
  </g>
  <g id="Heavy-L" transform="matrix(1 0 0 1 2563.91 1556)">
   <path d="M28.3691 38.7695C32.4707 38.7695 35.6445 35.8398 34.8633 30.7617L30.5176 2.44141C29.8828-1.85547 31.3477-3.80859 36.6699-5.12695L37.8418-5.41992C37.5977-3.90625 37.4512-2.24609 37.4512-0.488281C37.4512 21.3379 53.8086 41.6504 72.8027 41.6504C91.7969 41.6504 108.105 21.3379 108.105-0.488281C108.105-2.24609 108.008-3.90625 107.715-5.41992L108.887-5.12695C114.209-3.80859 115.723-1.85547 115.039 2.44141L110.693 30.7617C109.912 35.8398 113.135 38.7695 117.188 38.7695C121.533 38.7695 123.584 36.084 124.219 31.7383L129.199-0.146484C130.664-9.42383 126.953-14.5508 116.748-16.8457L88.2324-23.291L88.2324-23.9746C90.332-25 91.9434-26.709 93.0664-28.7598L113.086-30.8594C122.9-31.8359 127.49-37.9883 127.49-47.8516L127.49-69.043C127.49-73.2422 124.951-75.7324 120.703-75.7324C116.455-75.7324 114.062-73.2422 114.062-69.043L114.062-50.7324C114.062-45.2148 110.986-43.5059 106.104-43.0176L93.9453-41.6504C93.1641-43.5059 91.9434-45.1172 90.2832-46.2402L90.2832-46.9238C101.66-48.9258 107.373-55.8105 107.373-65.918C107.373-72.998 105.127-79.6387 101.416-85.1562L102.588-85.9863C109.961-91.1621 111.328-98.4863 106.641-107.178L103.174-113.379C101.611-116.309 99.7559-117.529 97.168-117.529C93.7988-117.529 91.2598-114.99 91.2598-111.768C91.2598-110.303 91.4062-109.473 92.2363-107.959L95.1172-103.223C97.0703-99.8047 96.582-96.582 93.5059-94.3359L92.8711-93.8965C87.207-98.0469 80.2734-100.488 72.8027-100.488C65.332-100.488 58.3984-98.0469 52.7344-93.9453L52.1973-94.3359C49.0723-96.582 48.6328-99.8047 50.5859-103.223L53.418-107.959C54.2969-109.473 54.4434-110.303 54.4434-111.768C54.4434-114.99 51.8555-117.529 48.5352-117.529C45.8984-117.529 44.0918-116.309 42.5293-113.379L39.0137-107.178C34.375-98.4863 35.6934-91.1621 43.0664-85.9863L44.1895-85.2051C40.4297-79.6875 38.2324-73.0469 38.2324-65.918C38.2324-55.8105 43.8965-48.9258 55.2734-46.9238L55.2734-46.2402C53.6133-45.1172 52.3926-43.5059 51.6113-41.6504L39.4531-43.0176C34.5703-43.5059 31.4941-45.2148 31.4941-50.7324L31.4941-69.043C31.4941-73.2422 29.1016-75.7324 24.8535-75.7324C20.6055-75.7324 18.0664-73.2422 18.0664-69.043L18.0664-47.8516C18.0664-37.9883 22.6562-31.8359 32.5195-30.8594L52.4902-28.7598C53.6133-26.709 55.2246-25 57.3242-23.9746L57.3242-23.291L28.8086-16.8457C18.6035-14.5508 14.8926-9.42383 16.3574-0.146484L21.3379 31.7383C22.0215 36.084 24.0234 38.7695 28.3691 38.7695ZM62.1094-58.3008C55.5664-58.3008 52.0508-61.1328 52.0508-66.4551C52.0508-77.1973 61.7188-86.5234 72.8027-86.5234C83.8379-86.5234 93.5059-77.1973 93.5059-66.4551C93.5059-61.1328 89.9902-58.3008 83.4473-58.3008ZM62.7441-36.2793C62.7441-41.6992 66.0156-44.7266 71.9238-44.7266L73.6328-44.7266C79.541-44.7266 82.8125-41.6992 82.8125-36.2793C82.8125-29.4922 78.418-23.7793 73.1934-23.7793L72.4121-23.7793C67.1387-23.7793 62.7441-29.4922 62.7441-36.2793ZM72.8027 26.123C60.6445 26.123 51.8066 12.0117 51.8066 0.78125C51.8066-6.78711 56.0547-11.3281 64.6973-11.3281L80.8594-11.3281C89.502-11.3281 93.75-6.78711 93.75 0.78125C93.75 12.0117 84.9121 26.123 72.8027 26.123Z"/>
  </g>
  <g id="Bold-L" transform="matrix(1 0 0 1 2269.05 1556)">
   <path d="M27.4902 37.2559C31.0547 37.2559 33.7891 34.668 33.1055 30.3223L28.6133 1.07422C27.9785-3.17383 29.4434-5.12695 34.4727-6.44531L37.0117-7.12891C36.5723-5.17578 36.3281-3.02734 36.3281-0.585938C36.3281 20.8008 52.4414 40.6738 70.9473 40.6738C89.4531 40.6738 105.518 20.8008 105.518-0.585938C105.518-2.97852 105.322-5.17578 104.834-7.12891L107.373-6.44531C112.402-5.12695 113.916-3.17383 113.232 1.07422L108.74 30.3223C108.057 34.668 110.84 37.2559 114.404 37.2559C118.164 37.2559 119.873 34.9609 120.459 31.1523L125.488-1.12305C126.855-9.76562 123.438-14.502 113.965-16.6504L86.0352-23.0957L86.0352-23.7793C88.4766-24.9512 90.2344-27.0508 91.3574-29.5898L110.303-31.8359C119.482-32.8613 123.682-38.2812 123.682-47.4121L123.682-68.7012C123.682-72.3633 121.484-74.5605 117.773-74.5605C114.111-74.5605 112.012-72.3633 112.012-68.7012L112.012-49.8535C112.012-44.6289 109.18-42.9688 104.443-42.4316L91.6992-40.8691C90.9668-42.7734 89.7461-44.4336 88.0371-45.6055L88.0371-46.2891C99.1699-48.291 104.785-55.0293 104.785-64.9414C104.785-72.5098 102.246-79.541 97.9492-85.2539L98.877-85.8887C105.811-90.8203 106.934-97.7539 102.49-105.713L98.6328-112.207C97.2168-114.746 95.6055-115.82 93.3105-115.82C90.3809-115.82 88.1348-113.623 88.1348-110.791C88.1348-109.473 88.2812-108.74 89.0625-107.373L92.4316-102.1C94.5312-98.6328 94.1895-95.459 90.9668-93.1152L90.332-92.627C84.8145-96.5332 78.125-98.877 70.9473-98.877C63.7695-98.877 57.1289-96.582 51.6113-92.7246L51.0254-93.1152C47.8516-95.459 47.4609-98.6328 49.5605-102.1L52.9297-107.373C53.7109-108.74 53.9062-109.473 53.9062-110.791C53.9062-113.623 51.6602-115.82 48.6816-115.82C46.3867-115.82 44.7754-114.746 43.4082-112.207L39.502-105.713C35.0586-97.7539 36.2305-90.8203 43.1152-85.8887L43.9453-85.3027C39.6484-79.5898 37.0605-72.5586 37.0605-64.9414C37.0605-55.0293 42.6758-48.291 53.8086-46.2891L53.8086-45.6055C52.0996-44.4336 50.8789-42.7734 50.1465-40.8691L37.4023-42.4316C32.666-42.9688 29.8828-44.6289 29.8828-49.8535L29.8828-68.7012C29.8828-72.3633 27.7344-74.5605 24.0723-74.5605C20.4102-74.5605 18.2129-72.3633 18.2129-68.7012L18.2129-47.4121C18.2129-38.2812 22.3633-32.8613 31.5918-31.8359L50.5371-29.5898C51.6113-27.0508 53.418-24.9512 55.8594-23.7793L55.8594-23.0957L27.8809-16.6504C18.4082-14.502 14.9902-9.76562 16.3574-1.12305L21.3867 31.1523C21.9727 34.9609 23.7305 37.2559 27.4902 37.2559ZM59.8633-56.4941C53.0762-56.4941 49.2188-59.7656 49.2188-65.3809C49.2188-76.8066 59.375-86.6211 70.9473-86.6211C82.4707-86.6211 92.627-76.8066 92.627-65.3809C92.627-59.7656 88.7695-56.4941 82.0312-56.4941ZM60.0586-35.9375C60.0586-41.4551 63.3789-44.7266 69.3359-44.7266L72.5586-44.7266C78.4668-44.7266 81.8359-41.4551 81.8359-35.9375C81.8359-29.0039 77.1973-23.2422 71.582-23.2422L70.3125-23.2422C64.6484-23.2422 60.0586-29.0039 60.0586-35.9375ZM70.9473 27.3438C58.3984 27.3438 48.8281 12.6953 48.8281 0.537109C48.8281-7.51953 53.4668-12.4023 62.5488-12.4023L79.2969-12.4023C88.3789-12.4023 93.0664-7.51953 93.0664 0.537109C93.0664 12.6953 83.4473 27.3438 70.9473 27.3438Z"/>
  </g>
  <g id="Semibold-L" transform="matrix(1 0 0 1 1973.61 1556)">
   <path d="M26.8555 36.1816C30.0781 36.1816 32.5195 33.8867 31.9336 30.0293L27.3438 0.146484C26.6602-4.05273 28.125-6.05469 32.959-7.37305L36.5234-8.30078C35.8887-6.05469 35.5469-3.56445 35.5469-0.683594C35.5469 20.4102 51.5137 39.9902 69.6777 39.9902C87.8418 39.9902 103.76 20.4102 103.76-0.683594C103.76-3.56445 103.418-6.05469 102.783-8.30078L106.348-7.37305C111.182-6.05469 112.646-4.05273 111.963 0.146484L107.373 30.0293C106.787 33.8867 109.229 36.1816 112.451 36.1816C115.82 36.1816 117.334 34.1309 117.871 30.7129L122.949-1.80664C124.268-10.0098 120.996-14.4531 112.061-16.5527L84.4727-22.9492L84.4727-23.6328C87.1582-24.9023 89.0137-27.3438 90.0879-30.127L108.35-32.4707C117.09-33.5449 121.045-38.5254 121.045-47.0703L121.045-68.457C121.045-71.7773 119.092-73.7305 115.771-73.7305C112.5-73.7305 110.596-71.7285 110.596-68.457L110.596-49.2676C110.596-44.2383 107.959-42.5781 103.32-41.9922L90.1855-40.2832C89.4531-42.2852 88.2324-43.9941 86.4746-45.166L86.4746-45.8496C97.5098-47.8027 103.027-54.4922 103.027-64.2578C103.027-72.168 100.195-79.4922 95.5078-85.2539L96.3379-85.8398C102.881-90.5762 103.955-97.2168 99.6582-104.736L95.5078-111.377C94.2383-113.672 92.7734-114.648 90.6738-114.648C87.9883-114.648 85.9375-112.695 85.9375-110.107C85.9375-108.887 86.1328-108.203 86.8652-106.934L90.5762-101.367C92.7734-97.8027 92.4805-94.6777 89.2578-92.2852L88.5254-91.7969C83.1543-95.5566 76.6113-97.7539 69.6777-97.7539C62.7441-97.7539 56.25-95.5566 50.8789-91.8457L50.1953-92.2852C46.9727-94.6777 46.6797-97.8027 48.877-101.367L52.6367-106.934C53.3691-108.203 53.5156-108.887 53.5156-110.107C53.5156-112.695 51.4648-114.648 48.7793-114.648C46.7285-114.648 45.2637-113.672 43.9941-111.377L39.8438-104.736C35.5469-97.2168 36.5723-90.5762 43.1641-85.8398L43.8477-85.3516C39.1602-79.541 36.2793-72.2168 36.2793-64.2578C36.2793-54.4922 41.7969-47.8027 52.832-45.8496L52.832-45.166C51.0742-43.9941 49.8535-42.2852 49.1211-40.2832L35.9863-41.9922C31.3477-42.5781 28.7598-44.2383 28.7598-49.2676L28.7598-68.457C28.7598-71.7285 26.8066-73.7305 23.5352-73.7305C20.2148-73.7305 18.2617-71.7773 18.2617-68.457L18.2617-47.0703C18.2617-38.5254 22.2168-33.5449 30.957-32.4707L49.2188-30.127C50.293-27.3438 52.1484-24.9023 54.834-23.6328L54.834-22.9492L27.2461-16.5527C18.3105-14.4531 15.0391-10.0098 16.3574-1.80664L21.4355 30.7129C21.9727 34.1309 23.4863 36.1816 26.8555 36.1816ZM58.3008-55.2734C51.3672-55.2734 47.2656-58.7891 47.2656-64.6973C47.2656-76.5137 57.7637-86.7188 69.6777-86.7188C81.543-86.7188 92.041-76.5137 92.041-64.6973C92.041-58.7891 87.9395-55.2734 81.0059-55.2734ZM58.1543-35.6934C58.1543-41.3086 61.6211-44.6777 67.4805-44.6777L71.8262-44.6777C77.7344-44.6777 81.1523-41.3086 81.1523-35.6934C81.1523-28.6621 76.3672-22.8516 70.459-22.8516L68.8477-22.8516C62.9883-22.8516 58.1543-28.6621 58.1543-35.6934ZM69.6777 28.2227C56.8359 28.2227 46.7285 13.1836 46.7285 0.390625C46.7285-8.00781 51.6602-13.1348 61.0352-13.1348L78.2715-13.1348C87.6465-13.1348 92.5781-8.00781 92.5781 0.390625C92.5781 13.1836 82.4707 28.2227 69.6777 28.2227Z"/>
  </g>
  <g id="Medium-L" transform="matrix(1 0 0 1 1677.88 1556)">
   <path d="M26.416 35.4004C29.3457 35.4004 31.543 33.3008 31.0059 29.7852L26.3184-0.537109C25.6836-4.78516 27.1484-6.78711 31.8359-8.05664L36.2305-9.17969C35.4004-6.78711 34.9609-4.00391 34.9609-0.78125C34.9609 20.1172 50.7812 39.4531 68.7012 39.4531C86.5723 39.4531 102.393 20.1172 102.393-0.78125C102.393-4.00391 102.002-6.78711 101.172-9.17969L105.566-8.05664C110.254-6.78711 111.719-4.78516 111.035-0.537109L106.348 29.7852C105.811 33.3008 108.057 35.4004 110.938 35.4004C114.014 35.4004 115.43 33.5449 115.918 30.4199L121.045-2.34375C122.314-10.1562 119.141-14.4531 110.596-16.4551L83.3496-22.8516L83.3496-23.5352C86.1328-24.8535 88.0859-27.5391 89.0625-30.5664L106.934-33.0078C115.332-34.082 119.043-38.6719 119.043-46.875L119.043-68.3105C119.043-71.3379 117.285-73.0957 114.258-73.0957C111.279-73.0957 109.521-71.2891 109.521-68.3105L109.521-48.7793C109.521-43.9453 107.031-42.334 102.49-41.6992L89.0625-39.8438C88.3301-41.8945 87.1094-43.6523 85.3027-44.873L85.3027-45.5078C96.1914-47.4609 101.66-54.0527 101.66-63.7695C101.66-71.9238 98.6328-79.4434 93.6523-85.2539L94.3848-85.791C100.732-90.3809 101.66-96.8262 97.4609-104.004L93.1152-110.791C91.9434-112.891 90.5762-113.77 88.6719-113.77C86.1816-113.77 84.3262-111.963 84.3262-109.57C84.3262-108.447 84.4727-107.812 85.2051-106.592L89.209-100.781C91.4551-97.168 91.2598-94.0918 87.9395-91.6504L87.207-91.1133C81.8848-94.7754 75.4883-96.9238 68.7012-96.9238C61.9141-96.9238 55.5664-94.7754 50.293-91.1621L49.6094-91.6504C46.2891-94.0918 46.0938-97.168 48.3887-100.781L52.3438-106.592C53.0762-107.812 53.2227-108.447 53.2227-109.57C53.2227-111.963 51.3672-113.77 48.877-113.77C46.9727-113.77 45.6055-112.891 44.4336-110.791L40.0879-104.004C35.8887-96.8262 36.8652-90.3809 43.1641-85.791L43.7988-85.3516C38.7695-79.541 35.6934-71.9727 35.6934-63.7695C35.6934-54.0527 41.1621-47.4609 52.0508-45.5078L52.0508-44.873C50.293-43.6523 49.0723-41.8945 48.3398-39.8438L34.9121-41.6992C30.3223-42.334 27.8809-43.9453 27.8809-48.7793L27.8809-68.3105C27.8809-71.2891 26.123-73.0957 23.0957-73.0957C20.1172-73.0957 18.3594-71.3379 18.3594-68.3105L18.3594-46.875C18.3594-38.6719 22.0703-34.082 30.4688-33.0078L48.291-30.5664C49.2676-27.5391 51.2207-24.8535 54.0527-23.5352L54.0527-22.8516L26.8066-16.4551C18.2129-14.4531 15.0879-10.1562 16.3086-2.34375L21.4844 30.4199C21.9727 33.5449 23.3398 35.4004 26.416 35.4004ZM57.0801-54.3457C50.0977-54.3457 45.8008-58.1055 45.8008-64.1113C45.8008-76.2695 56.543-86.7676 68.7012-86.7676C80.8105-86.7676 91.6016-76.2695 91.6016-64.1113C91.6016-58.1055 87.3047-54.3457 80.2734-54.3457ZM56.7383-35.498C56.7383-41.2109 60.2539-44.6289 66.1133-44.6289L71.2891-44.6289C77.1484-44.6289 80.6152-41.2109 80.6152-35.498C80.6152-28.418 75.6836-22.6074 69.6289-22.6074L67.7246-22.6074C61.6699-22.6074 56.7383-28.418 56.7383-35.498ZM68.7012 28.8574C55.6641 28.8574 45.166 13.5254 45.166 0.244141C45.166-8.39844 50.3418-13.7207 59.9121-13.7207L77.4414-13.7207C87.0605-13.7207 92.1875-8.39844 92.1875 0.244141C92.1875 13.5254 81.7383 28.8574 68.7012 28.8574Z"/>
  </g>
  <g id="Regular-L" transform="matrix(1 0 0 1 1382.41 1556)">
   <path d="M25.8301 34.375C28.3691 34.375 30.3223 32.5195 29.834 29.4434L25.0488-1.46484C24.3652-5.66406 25.8301-7.71484 30.3223-8.93555L35.8887-10.4004C34.8145-7.71484 34.1797-4.58984 34.1797-0.878906C34.1797 19.7266 49.8535 38.8184 67.4316 38.8184C85.0098 38.8184 100.635 19.7266 100.635-0.878906C100.635-4.58984 100.049-7.71484 98.9746-10.4004L104.541-8.93555C109.033-7.71484 110.449-5.66406 109.814-1.46484L105.029 29.4434C104.541 32.5195 106.494 34.375 109.033 34.375C111.719 34.375 112.891 32.7148 113.33 30.0293L118.555-3.02734C119.727-10.4004 116.748-14.4043 108.691-16.3574L81.8359-22.7051L81.8359-23.3887C84.8633-24.8047 86.8652-27.832 87.6953-31.1523L105.029-33.6426C112.988-34.7656 116.455-38.8672 116.455-46.5332L116.455-68.0664C116.455-70.752 114.893-72.2656 112.256-72.2656C109.668-72.2656 108.105-70.7031 108.105-68.0664L108.105-48.1934C108.105-43.5547 105.811-41.9434 101.367-41.3086L87.5488-39.3066C86.8164-41.4062 85.5957-43.2129 83.7402-44.4336L83.7402-45.0684C94.5312-47.0215 99.9512-53.5156 99.9512-63.0859C99.9512-71.582 96.582-79.3945 91.2109-85.2539L91.8457-85.6934C97.8516-90.1855 98.6816-96.2891 94.6289-103.027L90.0391-109.961C88.9648-111.816 87.7441-112.646 86.084-112.646C83.8379-112.646 82.1777-111.035 82.1777-108.887C82.1777-107.91 82.373-107.324 83.0078-106.201L87.3535-100.049C89.6973-96.3867 89.5996-93.3594 86.2305-90.8203L85.4492-90.2344C80.2246-93.75 74.0234-95.8496 67.4316-95.8496C60.8398-95.8496 54.6875-93.7988 49.5117-90.332L48.8281-90.8203C45.459-93.3594 45.3125-96.3867 47.7051-100.049L52.0508-106.201C52.6855-107.324 52.8809-107.91 52.8809-108.887C52.8809-111.035 51.1719-112.646 48.9746-112.646C47.3145-112.646 46.0938-111.816 45.0195-109.961L40.4297-103.027C36.377-96.2891 37.207-90.1855 43.2129-85.6934L43.7012-85.3516C38.2812-79.4922 34.9121-71.6309 34.9121-63.0859C34.9121-53.5156 40.332-47.0215 51.0742-45.0684L51.0742-44.4336C49.2676-43.2129 48.0469-41.4062 47.3145-39.3066L33.4961-41.3086C29.0527-41.9434 26.7578-43.5547 26.7578-48.1934L26.7578-68.0664C26.7578-70.7031 25.1953-72.2656 22.6074-72.2656C19.9707-72.2656 18.4082-70.752 18.4082-68.0664L18.4082-46.5332C18.4082-38.8672 21.875-34.7656 29.834-33.6426L47.1191-31.1523C47.998-27.832 50-24.8047 53.0273-23.3887L53.0273-22.7051L26.1719-16.3574C18.1152-14.4043 15.1367-10.4004 16.3086-3.02734L21.4844 30.0293C21.9238 32.7148 23.1445 34.375 25.8301 34.375ZM55.5664-53.125C48.3887-53.125 43.8477-57.1777 43.8477-63.4277C43.8477-75.9766 54.9316-86.8652 67.4316-86.8652C79.8828-86.8652 91.0156-75.9766 91.0156-63.4277C91.0156-57.1777 86.4746-53.125 79.2969-53.125ZM54.9316-35.3027C54.9316-41.0645 58.4473-44.6289 64.3555-44.6289L70.5566-44.6289C76.3672-44.6289 79.9316-41.0645 79.9316-35.3027C79.9316-28.0762 74.8535-22.2656 68.5547-22.2656L66.3086-22.2656C60.0098-22.2656 54.9316-28.0762 54.9316-35.3027ZM67.4316 29.6875C54.1016 29.6875 43.1152 14.0137 43.1152 0.0976562C43.1152-8.88672 48.5352-14.4531 58.4473-14.4531L76.416-14.4531C86.2793-14.4531 91.6992-8.88672 91.6992 0.0976562C91.6992 14.0137 80.7129 29.6875 67.4316 29.6875Z"/>
  </g>
  <g id="Light-L" transform="matrix(1 0 0 1 1087.24 1556)">
   <path d="M25 33.5938C27.002 33.5938 28.5156 32.1289 28.1738 29.7852L23.1934-2.14844C22.4121-6.88477 24.0234-9.375 28.7598-10.6445L35.5469-12.3535C33.7891-9.22852 32.8613-5.41992 32.8613-0.683594C32.8613 19.873 48.6328 38.8184 65.8691 38.8184C83.1543 38.8184 98.9258 19.873 98.9258-0.683594C98.9258-5.41992 97.998-9.22852 96.2402-12.3535L103.027-10.6445C107.764-9.375 109.375-6.88477 108.594-2.14844L103.564 29.7852C103.223 32.1289 104.785 33.5938 106.787 33.5938C108.936 33.5938 109.814 32.3242 110.205 30.127L115.43-3.27148C116.602-10.6934 113.623-14.6973 105.615-16.6504L80.127-22.7051L80.127-23.3887C83.5449-25 85.6445-28.6133 86.2793-32.4707L102.1-34.7168C110.156-35.8398 113.525-39.6484 113.525-47.168L113.525-68.3105C113.525-70.459 112.305-71.6797 110.205-71.6797C108.154-71.6797 106.934-70.3613 106.934-68.3105L106.934-48.3887C106.934-43.5059 104.688-41.6016 99.8047-40.918L85.9375-38.8672C85.2539-41.1621 83.9844-43.1641 82.0312-44.4336L82.0312-45.0684C92.8223-47.0215 98.1934-53.5156 98.1934-63.0859C98.1934-72.2168 94.3848-80.5176 88.2812-86.4746L89.1602-87.1582C95.0195-91.6992 95.5078-97.3145 91.3574-103.613L85.498-111.768C84.6191-113.232 83.6426-113.818 82.373-113.818C80.6641-113.818 79.3457-112.646 79.3457-110.938C79.3457-110.107 79.4922-109.619 80.127-108.643L85.9375-100.879C88.4766-97.2168 88.5254-94.043 84.8633-91.2598L83.6426-90.332C78.5156-93.7988 72.3633-95.8496 65.8691-95.8496C59.4238-95.8496 53.3203-93.7988 48.1934-90.3809L47.0215-91.2598C43.3594-94.043 43.4082-97.2168 45.9961-100.879L51.7578-108.643C52.3926-109.619 52.5391-110.107 52.5391-110.938C52.5391-112.646 51.2207-113.818 49.5117-113.818C48.2422-113.818 47.2656-113.232 46.3867-111.768L40.5273-103.613C36.377-97.3145 36.8652-91.6992 42.7246-87.1582L43.5059-86.5723C37.4023-80.5664 33.5449-72.2656 33.5449-63.0859C33.5449-53.5156 38.9648-47.0215 49.707-45.0684L49.707-44.4336C47.8027-43.1641 46.4844-41.1621 45.8496-38.8672L31.9336-40.918C27.0508-41.6016 24.8535-43.5059 24.8535-48.3887L24.8535-68.3105C24.8535-70.3613 23.584-71.6797 21.5332-71.6797C19.4336-71.6797 18.2617-70.459 18.2617-68.3105L18.2617-47.168C18.2617-39.6484 21.6309-35.8398 29.6387-34.7168L45.5078-32.4707C46.1426-28.6133 48.2422-25 51.6602-23.3887L51.6602-22.7051L26.1719-16.6504C18.1152-14.6973 15.1855-10.6934 16.3086-3.27148L21.582 30.127C21.9727 32.3242 22.8516 33.5938 25 33.5938ZM53.3203-51.5137C45.8008-51.5137 40.5273-56.3965 40.5273-63.2812C40.5273-77.002 52.5391-88.8672 65.8691-88.8672C79.248-88.8672 91.2109-77.002 91.2109-63.2812C91.2109-56.3965 85.9375-51.5137 78.4668-51.5137ZM51.8555-35.1562C51.8555-40.918 55.4688-44.7266 60.9863-44.7266L70.8008-44.7266C76.3184-44.7266 79.9316-40.918 79.9316-35.1562C79.9316-27.8809 74.5605-22.2656 67.5781-22.2656L64.209-22.2656C57.2266-22.2656 51.8555-27.8809 51.8555-35.1562ZM65.8691 31.6406C52.1484 31.6406 39.8926 15.332 39.8926-0.195312C39.8926-10.0098 46.0449-16.1133 56.543-16.1133L75.2441-16.1133C85.6934-16.1133 91.8457-10.0098 91.8457-0.195312C91.8457 15.332 79.5898 31.6406 65.8691 31.6406Z"/>
  </g>
  <g id="Thin-L" transform="matrix(1 0 0 1 792.579 1556)">
   <path d="M23.877 32.5684C25.1953 32.5684 26.2207 31.5918 26.0254 30.2246L20.7031-3.02734C19.7754-8.54492 21.6309-11.6211 26.709-12.8906L35.6934-15.1367C32.5684-11.4746 31.0547-6.64062 31.0547-0.439453C31.0547 20.0684 47.0215 38.8184 63.8184 38.8184C80.6641 38.8184 96.6309 20.0684 96.6309-0.439453C96.6309-6.64062 95.0684-11.4746 91.9922-15.1367L100.977-12.8906C106.055-11.6211 107.91-8.54492 106.982-3.02734L101.66 30.2246C101.465 31.5918 102.49 32.5684 103.809 32.5684C105.225 32.5684 105.713 31.7871 106.006 30.3223L111.328-3.66211C112.5-11.0352 109.521-15.1367 101.514-17.041L77.832-22.7051L77.832-23.3887C81.7383-25.2441 83.9355-29.7363 84.1797-34.2285L98.2422-36.1816C106.445-37.3047 109.668-40.625 109.668-47.998L109.668-68.6523C109.668-70.1172 108.936-70.8496 107.52-70.8496C106.201-70.8496 105.371-69.9707 105.371-68.6523L105.371-48.6328C105.371-43.4082 103.271-41.1621 97.7539-40.3809L83.7891-38.3301C83.1543-40.8203 81.8359-43.0176 79.7363-44.4336L79.7363-45.0684C90.5273-47.0215 95.8984-53.5156 95.8984-63.0859C95.8984-73.0469 91.3574-82.0312 84.375-88.0371L85.6445-89.0625C91.3086-93.7012 91.2598-98.6328 86.9629-104.395L79.541-114.16C78.9062-115.039 78.2227-115.43 77.4414-115.43C76.416-115.43 75.5371-114.746 75.5371-113.623C75.5371-113.086 75.7324-112.646 76.3184-111.865L83.9844-101.953C86.8164-98.291 87.0605-95.0195 83.0566-91.7969L81.2988-90.3809C76.2207-93.8477 70.2148-95.8496 63.8184-95.8496C57.5195-95.8496 51.5137-93.8477 46.4355-90.4297L44.6289-91.7969C40.625-95.0195 40.8691-98.291 43.7012-101.953L51.416-111.865C52.002-112.646 52.1484-113.086 52.1484-113.623C52.1484-114.746 51.3184-115.43 50.2441-115.43C49.4629-115.43 48.8281-115.039 48.1934-114.16L40.7227-104.395C36.4258-98.6328 36.377-93.7012 42.0898-89.0625L43.3105-88.0371C36.3281-82.0312 31.7871-73.0469 31.7871-63.0859C31.7871-53.5156 37.1582-47.0215 47.9492-45.0684L47.9492-44.4336C45.8496-43.0176 44.4824-40.8203 43.8965-38.3301L29.8828-40.3809C24.4141-41.1621 22.3145-43.4082 22.3145-48.6328L22.3145-68.6523C22.3145-69.9707 21.4844-70.8496 20.166-70.8496C18.75-70.8496 18.0176-70.1172 18.0176-68.6523L18.0176-47.998C18.0176-40.625 21.2402-37.3047 29.4434-36.1816L43.5059-34.2285C43.75-29.7363 45.9473-25.2441 49.8535-23.3887L49.8535-22.7051L26.1719-17.041C18.1641-15.1367 15.1855-11.0352 16.3086-3.66211L21.6797 30.3223C21.9727 31.7871 22.4609 32.5684 23.877 32.5684ZM50.3418-49.3652C42.4316-49.3652 36.1328-55.4199 36.1328-63.0859C36.1328-78.3203 49.3652-91.5527 63.8184-91.5527C78.3203-91.5527 91.5039-78.3203 91.5039-63.0859C91.5039-55.4199 85.2539-49.3652 77.3438-49.3652ZM47.8027-35.0098C47.8027-40.7227 51.4648-44.873 56.5918-44.873L71.0938-44.873C76.2207-44.873 79.8828-40.7227 79.8828-35.0098C79.8828-27.6367 74.1211-22.2656 66.3086-22.2656L61.377-22.2656C53.5645-22.2656 47.8027-27.6367 47.8027-35.0098ZM63.8184 34.2285C49.6094 34.2285 35.6445 17.0898 35.6445-0.585938C35.6445-11.4746 42.7734-18.3594 54.0039-18.3594L73.6816-18.3594C84.9121-18.3594 92.041-11.4746 92.041-0.585938C92.041 17.0898 78.0762 34.2285 63.8184 34.2285Z"/>
  </g>
  <g id="Ultralight-L" transform="matrix(1 0 0 1 496.918 1556)">
   <path d="M23.291 32.0312C24.2676 32.0312 25 31.3477 24.9023 30.4688L19.4336-3.4668C18.4082-9.375 20.4102-12.7441 25.6348-14.0137L36.2793-16.6016C32.0801-12.793 30.127-7.42188 30.127-0.292969C30.127 20.166 46.1914 38.8184 62.793 38.8184C79.4434 38.8184 95.459 20.166 95.459-0.292969C95.459-7.42188 93.5059-12.793 89.3066-16.6016L99.9512-14.0137C105.176-12.7441 107.178-9.375 106.152-3.4668L100.732 30.4688C100.586 31.3477 101.318 32.0312 102.295 32.0312C103.32 32.0312 103.613 31.4941 103.857 30.3711L109.229-3.85742C110.352-11.2305 107.373-15.332 99.4629-17.2852L76.6602-22.7051L76.6602-23.3887C80.8594-25.3906 83.0566-30.3711 83.0078-35.1074L96.2891-36.9141C104.541-38.0371 107.715-41.1621 107.715-48.4375L107.715-68.7988C107.715-69.9219 107.178-70.459 106.152-70.459C105.176-70.459 104.59-69.7266 104.59-68.7988L104.59-48.7793C104.59-43.3594 102.49-40.9668 96.7285-40.1367L82.666-38.0371C82.1289-40.6738 80.7617-42.9688 78.5645-44.4336L78.5645-45.0684C89.3555-47.0215 94.7266-53.5156 94.7266-63.0859C94.7266-73.4375 89.7949-82.7637 82.373-88.7695L83.8379-90.0391C89.4043-94.7266 89.1113-99.2676 84.7168-104.785L76.4648-115.381C75.9766-115.967 75.4883-116.26 74.9512-116.26C74.2188-116.26 73.6328-115.82 73.6328-114.99C73.6328-114.551 73.7793-114.209 74.3164-113.525L83.0078-102.539C85.9863-98.8281 86.3281-95.5078 82.1777-92.0898L80.127-90.4297C75.0488-93.8477 69.0918-95.8496 62.793-95.8496C56.4941-95.8496 50.5371-93.8477 45.5078-90.4297L43.4082-92.0898C39.209-95.5078 39.5996-98.8281 42.5781-102.539L51.2207-113.525C51.7578-114.209 51.9531-114.551 51.9531-114.99C51.9531-115.82 51.3184-116.26 50.6348-116.26C50.0977-116.26 49.6094-115.967 49.1211-115.381L40.8203-104.785C36.4258-99.2676 36.1816-94.7266 41.748-90.0391L43.2129-88.7695C35.7422-82.7148 30.8594-73.4375 30.8594-63.0859C30.8594-53.5156 36.2305-47.0215 47.0215-45.0684L47.0215-44.4336C44.8242-42.9688 43.5059-40.6738 42.9199-38.0371L28.8574-40.1367C23.0957-40.9668 20.9961-43.3594 20.9961-48.7793L20.9961-68.7988C20.9961-69.7266 20.4102-70.459 19.4336-70.459C18.4082-70.459 17.8711-69.9219 17.8711-68.7988L17.8711-48.4375C17.8711-41.1621 21.0938-38.0371 29.2969-36.9141L42.5781-35.1074C42.5293-30.3711 44.7266-25.3906 48.9258-23.3887L48.9258-22.7051L26.123-17.2852C18.2129-15.332 15.2344-11.2305 16.3574-3.85742L21.7285 30.3711C21.9727 31.4941 22.2656 32.0312 23.291 32.0312ZM48.8281-48.2422C40.6738-48.2422 33.8867-54.8828 33.8867-62.9883C33.8867-79.0527 47.7051-92.9688 62.793-92.9688C77.8809-92.9688 91.6992-79.0527 91.6992-62.9883C91.6992-54.8828 84.9121-48.2422 76.7578-48.2422ZM45.752-34.9121C45.752-40.625 49.4629-44.9707 54.3457-44.9707L71.2402-44.9707C76.123-44.9707 79.834-40.625 79.834-34.9121C79.834-27.4902 73.877-22.2656 65.625-22.2656L59.9609-22.2656C51.709-22.2656 45.752-27.4902 45.752-34.9121ZM62.793 35.5957C48.291 35.5957 33.4473 18.0176 33.4473-0.78125C33.4473-12.207 41.1133-19.4824 52.6855-19.4824L72.9004-19.4824C84.4727-19.4824 92.1387-12.207 92.1387-0.78125C92.1387 18.0176 77.3438 35.5957 62.793 35.5957Z"/>
  </g>
  <g id="Black-M" transform="matrix(1 0 0 1 2874.32 1126)">
   <path d="M23.1934 24.6094C27.0996 24.6094 30.1758 21.7773 29.3945 16.9434L26.2207-3.80859C25.7324-7.17773 26.7578-8.88672 30.4688-10.0098C30.4199-9.32617 30.4199-8.64258 30.4199-7.95898C30.4199 9.7168 43.6523 26.2207 59.082 26.2207C74.5605 26.2207 87.7441 9.7168 87.7441-7.95898C87.7441-8.64258 87.7441-9.32617 87.6953-10.0098C91.4062-8.88672 92.4316-7.17773 91.9434-3.80859L88.7695 16.9434C88.0371 21.7773 91.1133 24.6094 94.9707 24.6094C99.1211 24.6094 101.074 22.0703 101.709 17.9199L105.42-6.29883C106.738-14.7461 103.418-19.4336 94.1406-21.4355L71.6309-26.3672L71.6309-26.9531C72.8516-27.4902 73.8281-28.3691 74.6582-29.3945L91.3574-30.6152C100.244-31.2988 104.443-37.207 104.443-46.2402L104.443-62.1582C104.443-66.1621 102.002-68.5547 97.998-68.5547C93.8965-68.5547 91.6504-66.1621 91.6504-62.1582L91.6504-49.0234C91.6504-44.043 88.8184-42.4805 84.4727-42.1387L76.123-41.5527C75.4883-42.9199 74.5605-44.0918 73.3398-44.9219L73.3398-45.459C82.5195-47.1191 87.1094-52.6855 87.1094-60.8398C87.1094-65.7715 85.8398-70.4102 83.5449-74.4141L85.1562-75.5371C91.6504-80.0293 92.8711-86.2305 88.7695-93.9941L86.1328-99.0234C84.7168-101.709 83.0078-102.832 80.5664-102.832C77.4902-102.832 75.0977-100.488 75.0977-97.5098C75.0977-96.1426 75.2441-95.4102 75.9766-94.0918L77.9785-90.4297C79.3457-87.9395 78.8574-85.2539 76.4648-83.5938L75.8789-83.1543C71.1914-86.7188 65.3809-88.8184 59.082-88.8184C52.7832-88.8184 46.9727-86.7188 42.2852-83.1543L41.6992-83.5938C39.3066-85.2539 38.8184-87.9395 40.1855-90.4297L42.1875-94.0918C42.9199-95.4102 43.0664-96.1426 43.0664-97.5098C43.0664-100.488 40.6738-102.832 37.5977-102.832C35.1562-102.832 33.4473-101.709 32.0312-99.0234L29.3945-93.9941C25.293-86.2305 26.5137-80.0293 33.0078-75.5371L34.6191-74.4141C32.3242-70.4102 31.0547-65.7715 31.0547-60.8398C31.0547-52.6855 35.6445-47.1191 44.8242-45.459L44.8242-44.9219C43.6035-44.0918 42.6758-42.9199 42.041-41.5527L33.6914-42.1387C29.3457-42.4805 26.5137-44.043 26.5137-49.0234L26.5137-62.1582C26.5137-66.1621 24.2676-68.5547 20.166-68.5547C16.1621-68.5547 13.7207-66.1621 13.7207-62.1582L13.7207-46.2402C13.7207-37.207 17.9199-31.2988 26.8555-30.6152L43.5059-29.3945C44.3359-28.3691 45.3125-27.4902 46.5332-26.9531L46.5332-26.3672L24.0234-21.4355C14.7461-19.4336 11.4258-14.7461 12.7441-6.29883L16.4551 17.9199C17.0898 22.0703 19.043 24.6094 23.1934 24.6094ZM51.2207-55.6152C46.3867-55.6152 43.9453-57.4707 43.9453-61.3281C43.9453-69.1406 50.9766-75.8301 59.082-75.8301C67.1875-75.8301 74.2188-69.1406 74.2188-61.3281C74.2188-57.4707 71.7773-55.6152 66.9434-55.6152ZM52.0996-36.6211C52.0996-40.5762 54.4922-42.7246 58.9355-42.7246L59.2285-42.7246C63.6719-42.7246 66.0645-40.5762 66.0645-36.6211C66.0645-31.6406 62.9395-27.3438 59.2285-27.3438L58.9844-27.3438C55.2246-27.3438 52.0996-31.6406 52.0996-36.6211ZM59.082 10.9863C50.2441 10.9863 44.0918 0.732422 44.0918-7.03125C44.0918-12.3535 47.0215-15.5273 53.2227-15.5273L64.9414-15.5273C71.1426-15.5273 74.0723-12.3535 74.0723-7.03125C74.0723 0.732422 67.9199 10.9863 59.082 10.9863Z"/>
  </g>
  <g id="Heavy-M" transform="matrix(1 0 0 1 2579 1126)">
   <path d="M22.5586 23.3398C26.0742 23.3398 28.8086 20.8008 28.125 16.4551L24.8535-4.98047C24.3652-8.44727 25.5371-10.0586 29.834-11.1328C29.7363-10.2051 29.6875-9.17969 29.6875-8.10547C29.6875 9.17969 42.627 25.2441 57.666 25.2441C72.7539 25.2441 85.6934 9.17969 85.6934-8.10547C85.6934-9.17969 85.6445-10.2051 85.498-11.1328C89.7949-10.1074 91.0156-8.49609 90.4785-4.98047L87.207 16.4551C86.5234 20.8008 89.3066 23.3398 92.8223 23.3398C96.5332 23.3398 98.291 20.9961 98.877 17.2852L102.637-7.22656C103.857-14.9902 100.781-19.3359 92.2363-21.1914L69.9219-26.1719L69.9219-26.709C71.3867-27.3926 72.5098-28.5156 73.3887-29.834L89.4043-31.25C97.6562-31.9824 101.514-37.3047 101.514-45.6055L101.514-61.7676C101.514-65.4297 99.3164-67.5781 95.7031-67.5781C91.9922-67.5781 89.9414-65.4297 89.9414-61.7676L89.9414-48.0957C89.9414-43.5059 87.3535-42.041 83.3008-41.6992L74.4141-40.8691C73.7793-42.2363 72.8516-43.457 71.582-44.3359L71.582-44.873C80.5664-46.4355 85.0586-51.9043 85.0586-59.9121C85.0586-65.1367 83.5938-70.0195 80.957-74.2188L82.2266-75.0488C88.3301-79.2969 89.4043-85.2539 85.5957-92.4805L82.9102-97.4121C81.5918-99.8535 80.0293-100.879 77.7832-100.879C74.9512-100.879 72.8027-98.7305 72.8027-96.0449C72.8027-94.7754 72.9492-94.0918 73.6328-92.8223L75.7812-89.1602C77.1973-86.5723 76.7578-83.9844 74.4141-82.2754L73.877-81.8848C69.3359-85.2539 63.7207-87.2559 57.666-87.2559C51.6602-87.2559 46.0938-85.2539 41.5039-81.9336L41.0156-82.2754C38.623-83.9844 38.1836-86.5723 39.6484-89.1602L41.7969-92.8223C42.4805-94.0918 42.627-94.7754 42.627-96.0449C42.627-98.7305 40.4297-100.879 37.5977-100.879C35.4004-100.879 33.8379-99.8535 32.5195-97.4121L29.834-92.4805C25.9766-85.2539 27.0996-79.2969 33.2031-75.0488L34.4238-74.2188C31.7871-70.0195 30.2734-65.1367 30.2734-59.9121C30.2734-51.9043 34.8145-46.4355 43.7988-44.873L43.7988-44.3359C42.5293-43.457 41.6016-42.2363 40.9668-40.8691L32.0801-41.6992C27.9785-42.041 25.3906-43.5059 25.3906-48.0957L25.3906-61.7676C25.3906-65.4297 23.3398-67.5781 19.6777-67.5781C16.0645-67.5781 13.8672-65.4297 13.8672-61.7676L13.8672-45.6055C13.8672-37.3047 17.7246-31.9824 25.9766-31.25L41.9922-29.834C42.8223-28.5156 43.9941-27.3926 45.4102-26.709L45.4102-26.1719L23.1445-21.1914C14.5508-19.3359 11.4746-14.9902 12.6953-7.22656L16.5039 17.2852C17.0898 20.9961 18.7988 23.3398 22.5586 23.3398ZM49.6094-54.2969C44.6289-54.2969 42.041-56.3477 42.041-60.3516C42.041-68.457 49.3164-75.4395 57.666-75.4395C66.0156-75.4395 73.291-68.457 73.291-60.3516C73.291-56.3477 70.7031-54.2969 65.7715-54.2969ZM50.293-36.2793C50.293-40.3809 52.7344-42.6758 57.2754-42.6758L58.1055-42.6758C62.6465-42.6758 65.0879-40.3809 65.0879-36.2793C65.0879-31.2012 61.8164-26.8066 57.9102-26.8066L57.4707-26.8066C53.5645-26.8066 50.293-31.2012 50.293-36.2793ZM57.666 11.7188C48.5352 11.7188 42.041 1.07422 42.041-7.17773C42.041-12.793 45.166-16.1621 51.6113-16.1621L63.7207-16.1621C70.2148-16.1621 73.3398-12.793 73.3398-7.17773C73.3398 1.07422 66.7969 11.7188 57.666 11.7188Z"/>
  </g>
  <g id="Bold-M" transform="matrix(1 0 0 1 2283.87 1126)">
   <path d="M21.8262 21.875C24.9512 21.875 27.3438 19.6289 26.7578 15.8203L23.3398-6.25C22.8516-9.57031 24.0234-11.084 28.0762-12.1094L29.1992-12.4023C28.9551-11.1328 28.8574-9.81445 28.8574-8.30078C28.8574 8.49609 41.5039 24.1699 56.1035 24.1699C70.752 24.1699 83.3984 8.49609 83.3984-8.30078C83.3984-9.81445 83.252-11.1328 83.0566-12.4023L84.1309-12.1094C88.2324-11.084 89.3555-9.57031 88.8672-6.25L85.498 15.8203C84.9121 19.6289 87.3047 21.875 90.3809 21.875C93.6523 21.875 95.166 19.873 95.7031 16.6016L99.5605-8.20312C100.684-15.2832 97.8516-19.1895 90.0391-20.9473L68.0176-25.9766L68.0176-26.4648C69.7266-27.2949 70.9961-28.6621 71.875-30.3223L87.207-31.9824C94.7266-32.7637 98.1934-37.4023 98.1934-44.9219L98.1934-61.377C98.1934-64.5508 96.2891-66.4551 93.0664-66.4551C89.8926-66.4551 88.0371-64.5508 88.0371-61.377L88.0371-47.0703C88.0371-42.8711 85.7422-41.5527 81.9824-41.1621L72.4609-40.0879C71.8262-41.5039 70.8984-42.7734 69.6289-43.6523L69.6289-44.1895C78.3691-45.752 82.7637-51.0254 82.7637-58.8379C82.7637-64.4043 81.0059-69.6289 78.0273-73.9258L78.9062-74.5117C84.5703-78.5156 85.5957-84.1309 81.9824-90.7227L79.248-95.5566C78.0762-97.7539 76.6602-98.6816 74.707-98.6816C72.168-98.6816 70.2148-96.7773 70.2148-94.3359C70.2148-93.2129 70.3613-92.5781 70.9961-91.4551L73.291-87.6953C74.8047-85.0586 74.4629-82.5684 72.0703-80.8105L71.582-80.4688C67.1875-83.6426 61.8652-85.498 56.1035-85.498C50.3906-85.498 45.0684-83.6426 40.6738-80.5176L40.2832-80.8105C37.8418-82.5684 37.5-85.0586 39.0625-87.6953L41.3574-91.4551C41.9922-92.5781 42.0898-93.2129 42.0898-94.3359C42.0898-96.7773 40.1855-98.6816 37.6465-98.6816C35.6445-98.6816 34.2773-97.7539 33.0566-95.5566L30.3223-90.7227C26.7578-84.1309 27.7832-78.5156 33.3984-74.5117L34.2285-73.9746C31.2012-69.6289 29.4434-64.4043 29.4434-58.8379C29.4434-51.0254 33.8379-45.752 42.627-44.1895L42.627-43.6523C41.3086-42.7734 40.3809-41.5039 39.7949-40.0879L30.2734-41.1621C26.5137-41.5527 24.1699-42.8711 24.1699-47.0703L24.1699-61.377C24.1699-64.5508 22.3633-66.4551 19.1406-66.4551C15.9668-66.4551 14.0625-64.5508 14.0625-61.377L14.0625-44.9219C14.0625-37.4023 17.5293-32.7637 25.0488-31.9824L40.3809-30.3223C41.2109-28.6621 42.5293-27.2949 44.1895-26.4648L44.1895-25.9766L22.168-20.9473C14.4043-19.1895 11.5723-15.2832 12.6953-8.20312L16.5527 16.6016C17.041 19.873 18.5547 21.875 21.8262 21.875ZM47.8027-52.832C42.6758-52.832 39.9414-55.0781 39.9414-59.2285C39.9414-67.6758 47.4609-74.9512 56.1035-74.9512C64.7461-74.9512 72.3145-67.6758 72.3145-59.2285C72.3145-55.0781 69.5312-52.832 64.4531-52.832ZM48.1934-35.9863C48.1934-40.1855 50.7324-42.5781 55.3711-42.5781L56.8848-42.5781C61.4746-42.5781 64.0137-40.1855 64.0137-35.9863C64.0137-30.7129 60.5957-26.2695 56.4453-26.2695L55.7617-26.2695C51.6602-26.2695 48.1934-30.7129 48.1934-35.9863ZM56.1035 12.5C46.6797 12.5 39.6973 1.46484 39.6973-7.37305C39.6973-13.2812 43.0176-16.8457 49.8047-16.8457L62.4023-16.8457C69.1895-16.8457 72.5586-13.2812 72.5586-7.37305C72.5586 1.46484 65.5762 12.5 56.1035 12.5Z"/>
  </g>
  <g id="Semibold-M" transform="matrix(1 0 0 1 1988.24 1126)">
   <path d="M21.3379 20.8984C24.1699 20.8984 26.3184 18.8477 25.7812 15.4297L22.3145-7.12891C21.8262-10.3027 22.9492-11.7676 26.7578-12.7441L28.7598-13.2812C28.4668-11.8164 28.2715-10.2539 28.2715-8.44727C28.2715 8.05664 40.7227 23.4375 55.0293 23.4375C69.3848 23.4375 81.7871 8.05664 81.7871-8.44727C81.7871-10.2539 81.5918-11.8164 81.2988-13.2812L83.3496-12.7441C87.1094-11.7676 88.2324-10.3027 87.7441-7.12891L84.2773 15.4297C83.7891 18.8477 85.9375 20.8984 88.7207 20.8984C91.6504 20.8984 93.0176 19.043 93.5059 16.1133L97.4121-8.88672C98.4375-15.4785 95.8008-19.0918 88.5742-20.752L66.6992-25.7812L66.6992-26.3184C68.5547-27.1973 69.9219-28.8086 70.752-30.6641L85.6934-32.5195C92.6758-33.3008 95.8984-37.5 95.8984-44.4824L95.8984-61.084C95.8984-63.9648 94.1895-65.6738 91.3086-65.6738C88.4277-65.6738 86.7188-63.916 86.7188-61.084L86.7188-46.3867C86.7188-42.4316 84.6191-41.2109 81.0547-40.7715L71.0938-39.5508C70.5078-41.0156 69.5801-42.2852 68.2617-43.1641L68.2617-43.7012C76.9043-45.2148 81.2012-50.4395 81.2012-58.1055C81.2012-63.916 79.248-69.3359 75.9766-73.6816L76.6602-74.1699C81.9824-77.9297 82.9102-83.3496 79.541-89.502L76.709-94.3359C75.6348-96.3379 74.3652-97.168 72.5586-97.168C70.2148-97.168 68.457-95.4102 68.457-93.1641C68.457-92.1387 68.5547-91.5527 69.1895-90.5273L71.5332-86.7188C73.1445-83.9844 72.8516-81.5918 70.4102-79.834L70.0195-79.541C65.7227-82.5195 60.5957-84.3262 55.0293-84.3262C49.5117-84.3262 44.3848-82.5684 40.1367-79.541L39.7461-79.834C37.3535-81.5918 37.0605-83.9844 38.6719-86.7188L41.0156-90.5273C41.6504-91.5527 41.748-92.1387 41.748-93.1641C41.748-95.4102 39.9902-97.168 37.6465-97.168C35.8398-97.168 34.5703-96.3379 33.4473-94.3359L30.6641-89.502C27.2461-83.3496 28.2227-77.9297 33.5449-74.1699L34.1309-73.7305C30.8105-69.3848 28.8574-63.9648 28.8574-58.1055C28.8574-50.4395 33.2031-45.2148 41.7969-43.7012L41.7969-43.1641C40.4785-42.2852 39.5508-41.0156 38.9648-39.5508L29.0039-40.7715C25.4395-41.2109 23.3398-42.4316 23.3398-46.3867L23.3398-61.084C23.3398-63.916 21.6797-65.6738 18.75-65.6738C15.8691-65.6738 14.1602-63.9648 14.1602-61.084L14.1602-44.4824C14.1602-37.5 17.3828-33.3008 24.3652-32.5195L39.3066-30.6641C40.1367-28.8086 41.5039-27.1973 43.3594-26.3184L43.3594-25.7812L21.4844-20.752C14.2578-19.0918 11.6211-15.4785 12.6953-8.88672L16.5527 16.1133C17.041 19.043 18.4082 20.8984 21.3379 20.8984ZM46.5332-51.8066C41.3574-51.8066 38.4766-54.1992 38.4766-58.4961C38.4766-67.1387 46.1914-74.6582 55.0293-74.6582C63.8672-74.6582 71.6309-67.1387 71.6309-58.4961C71.6309-54.1992 68.7012-51.8066 63.5254-51.8066ZM46.7773-35.7422C46.7773-40.0879 49.4141-42.5293 54.0527-42.5293L56.0547-42.5293C60.6445-42.5293 63.2812-40.0879 63.2812-35.7422C63.2812-30.3711 59.7168-25.8301 55.4199-25.8301L54.6387-25.8301C50.3418-25.8301 46.7773-30.3711 46.7773-35.7422ZM55.0293 13.0371C45.3613 13.0371 38.0859 1.70898 38.0859-7.4707C38.0859-13.623 41.6016-17.334 48.584-17.334L61.4746-17.334C68.457-17.334 71.9727-13.623 71.9727-7.4707C71.9727 1.70898 64.6973 13.0371 55.0293 13.0371Z"/>
  </g>
  <g id="Medium-M" transform="matrix(1 0 0 1 1692.33 1126)">
   <path d="M20.9961 20.1172C23.584 20.1172 25.5371 18.2617 25.0488 15.1367L21.5332-7.8125C21.0449-10.8887 22.1191-12.2559 25.7324-13.2324L28.5156-13.9648C28.0762-12.3535 27.832-10.5957 27.832-8.54492C27.832 7.71484 40.1367 22.8516 54.1992 22.8516C68.3105 22.8516 80.5664 7.71484 80.5664-8.54492C80.5664-10.5957 80.3711-12.3535 79.9316-13.9648L82.7148-13.2324C86.3281-12.2559 87.3535-10.8887 86.9141-7.8125L83.3984 15.1367C82.9102 18.2617 84.8633 20.1172 87.4512 20.1172C90.1367 20.1172 91.4062 18.457 91.8457 15.7227L95.752-9.42383C96.7773-15.625 94.2871-18.9941 87.4512-20.6055L65.7227-25.6836L65.7227-26.2207C67.6758-27.1484 69.0918-28.9062 69.9219-30.957L84.5703-32.8613C91.1621-33.7402 94.1895-37.5488 94.1895-44.0918L94.1895-60.8398C94.1895-63.5254 92.5781-65.0879 89.9414-65.0879C87.3047-65.0879 85.7422-63.4766 85.7422-60.8398L85.7422-45.8496C85.7422-42.1387 83.7402-40.9668 80.3711-40.5273L70.0684-39.1602C69.5312-40.625 68.5547-41.9434 67.2363-42.8223L67.2363-43.3594C75.7324-44.873 79.9805-50 79.9805-57.5684C79.9805-63.5254 77.8809-69.0918 74.4141-73.5352L74.9512-73.877C80.0293-77.4902 80.9082-82.7637 77.6855-88.623L74.8047-93.3594C73.8281-95.2148 72.6074-96.0449 70.9473-96.0449C68.75-96.0449 67.0898-94.3848 67.0898-92.2852C67.0898-91.3574 67.2363-90.8203 67.7734-89.7949L70.2637-85.9863C71.875-83.2031 71.6309-80.8105 69.1895-79.0527L68.7988-78.7598C64.6484-81.6895 59.6191-83.3984 54.1992-83.3984C48.877-83.3984 43.8477-81.6895 39.6973-78.8574L39.3555-79.0527C36.9629-80.8105 36.7188-83.2031 38.3301-85.9863L40.7715-89.7949C41.3574-90.8203 41.5039-91.3574 41.5039-92.2852C41.5039-94.3848 39.8438-96.0449 37.6465-96.0449C35.9375-96.0449 34.7656-95.2148 33.7402-93.3594L30.9082-88.623C27.6855-82.7637 28.5645-77.4902 33.6426-73.877L34.082-73.584C30.5664-69.1406 28.418-63.5742 28.418-57.5684C28.418-50 32.666-44.873 41.1621-43.3594L41.1621-42.8223C39.8438-41.9434 38.916-40.625 38.3301-39.1602L28.0762-40.5273C24.6582-40.9668 22.6562-42.1387 22.6562-45.8496L22.6562-60.8398C22.6562-63.4766 21.1426-65.0879 18.457-65.0879C15.8203-65.0879 14.2578-63.5254 14.2578-60.8398L14.2578-44.0918C14.2578-37.5488 17.2852-33.7402 23.877-32.8613L38.5254-30.957C39.3555-28.9062 40.7715-27.1484 42.7246-26.2207L42.7246-25.6836L20.9473-20.6055C14.1602-18.9941 11.6699-15.625 12.6465-9.42383L16.6016 15.7227C17.041 18.457 18.2617 20.1172 20.9961 20.1172ZM45.6055-51.0254C40.332-51.0254 37.3535-53.5156 37.3535-57.9102C37.3535-66.748 45.2148-74.4141 54.1992-74.4141C63.1836-74.4141 71.0938-66.748 71.0938-57.9102C71.0938-53.5156 68.1152-51.0254 62.8418-51.0254ZM45.7031-35.5957C45.7031-39.9414 48.3887-42.4805 53.0762-42.4805L55.4199-42.4805C60.0586-42.4805 62.6953-39.9414 62.6953-35.5957C62.6953-30.127 59.082-25.5371 54.6875-25.5371L53.7598-25.5371C49.3652-25.5371 45.7031-30.127 45.7031-35.5957ZM54.1992 13.4277C44.3359 13.4277 36.8652 1.9043 36.8652-7.56836C36.8652-13.8672 40.4785-17.6758 47.6074-17.6758L60.791-17.6758C67.9199-17.6758 71.582-13.8672 71.582-7.56836C71.582 1.9043 64.0625 13.4277 54.1992 13.4277Z"/>
  </g>
  <g id="Regular-M" transform="matrix(1 0 0 1 1396.7 1126)">
   <path d="M20.5078 19.1406C22.8027 19.1406 24.5117 17.4805 24.0723 14.6973L20.5078-8.69141C20.0195-11.6211 21.0449-12.9395 24.4141-13.8672L28.1738-14.8926C27.5879-13.0859 27.2949-11.0352 27.2949-8.69141C27.2949 7.27539 39.3555 22.1191 53.125 22.1191C66.9434 22.1191 79.0039 7.27539 79.0039-8.69141C79.0039-11.0352 78.7109-13.0859 78.125-14.8926L81.8848-13.8672C85.2539-12.9395 86.2305-11.6211 85.791-8.69141L82.2266 14.6973C81.7871 17.4805 83.4961 19.1406 85.791 19.1406C88.1836 19.1406 89.2578 17.6758 89.6484 15.2344L93.6523-10.1074C94.5801-15.8203 92.2363-18.8965 85.9863-20.4102L64.4043-25.5371L64.4043-26.0254C66.5039-27.0508 67.9688-29.0039 68.75-31.2988L83.0566-33.3984C89.1602-34.2285 91.8945-37.6465 91.8945-43.6523L91.8945-60.5469C91.8945-62.9395 90.5273-64.3066 88.1836-64.3066C85.8398-64.3066 84.4727-62.8906 84.4727-60.5469L84.4727-45.166C84.4727-41.6992 82.6172-40.625 79.4434-40.1367L68.75-38.623C68.2129-40.1367 67.2363-41.4551 65.918-42.3828L65.918-42.8711C74.2676-44.3359 78.418-49.4141 78.418-56.8359C78.418-63.0859 76.123-68.7988 72.3145-73.2422L72.7051-73.5352C77.4414-76.9531 78.3203-81.9824 75.2441-87.4023L72.3633-92.1387C71.4355-93.7988 70.3613-94.5312 68.8477-94.5312C66.7969-94.5312 65.332-93.0664 65.332-91.1621C65.332-90.2832 65.4785-89.7949 66.0156-88.8184L68.5547-84.9609C70.2637-82.1777 70.0684-79.834 67.627-78.0762L67.2363-77.832C63.1836-80.5664 58.3496-82.1777 53.125-82.1777C47.998-82.1777 43.1641-80.6152 39.1602-77.8809L38.8672-78.0762C36.4258-79.834 36.2305-82.1777 37.9395-84.9609L40.4785-88.8184C41.0156-89.7949 41.1621-90.2832 41.1621-91.1621C41.1621-93.0664 39.6484-94.5312 37.6465-94.5312C36.1328-94.5312 35.0586-93.7988 34.1309-92.1387L31.25-87.4023C28.1738-81.9824 29.0527-76.9531 33.7891-73.5352L34.0332-73.3398C30.1758-68.8965 27.832-63.0859 27.832-56.8359C27.832-49.4141 32.0312-44.3359 40.3809-42.8711L40.3809-42.3828C39.0137-41.4551 38.0859-40.1367 37.5488-38.623L26.8555-40.1367C23.6328-40.625 21.8262-41.6992 21.8262-45.166L21.8262-60.5469C21.8262-62.8906 20.459-64.3066 18.1152-64.3066C15.7715-64.3066 14.4043-62.9395 14.4043-60.5469L14.4043-43.6523C14.4043-37.6465 17.1387-34.2285 23.2422-33.3984L37.5488-31.2988C38.2812-29.0039 39.7461-27.0508 41.8945-26.0254L41.8945-25.5371L20.3125-20.4102C14.0137-18.8965 11.7188-15.8203 12.6465-10.1074L16.6504 15.2344C16.9922 17.6758 18.1152 19.1406 20.5078 19.1406ZM44.3359-50.0488C38.9648-50.0488 35.8887-52.6367 35.8887-57.1289C35.8887-66.2109 43.9453-74.0723 53.125-74.0723C62.3047-74.0723 70.4102-66.2109 70.4102-57.1289C70.4102-52.6367 67.2852-50.0488 61.9629-50.0488ZM44.2871-35.3516C44.2871-39.8438 47.0215-42.4316 51.7578-42.4316L54.5898-42.4316C59.2773-42.4316 61.9629-39.8438 61.9629-35.3516C61.9629-29.834 58.2031-25.1465 53.7109-25.1465L52.5879-25.1465C48.0957-25.1465 44.2871-29.834 44.2871-35.3516ZM53.125 13.9648C43.0664 13.9648 35.2539 2.14844 35.2539-7.66602C35.2539-14.209 39.0625-18.1641 46.3867-18.1641L59.9121-18.1641C67.2363-18.1641 70.9961-14.209 70.9961-7.66602C70.9961 2.14844 63.2324 13.9648 53.125 13.9648Z"/>
  </g>
  <g id="Light-M" transform="matrix(1 0 0 1 1101.4 1126)">
   <path d="M19.7266 18.457C21.5332 18.457 22.9004 17.1387 22.6074 15.0391L18.7988-9.27734C18.2617-12.7441 19.4336-14.4531 22.998-15.4297L27.6855-16.6016C26.6113-14.4043 26.0742-11.7188 26.0742-8.54492C26.0742 7.42188 38.2324 22.1191 51.7578 22.1191C65.2344 22.1191 77.4414 7.42188 77.4414-8.54492C77.4414-11.7188 76.9043-14.4043 75.8301-16.6016L80.5176-15.4297C84.082-14.4531 85.2539-12.7441 84.7168-9.27734L80.9082 15.0391C80.5664 17.1387 81.9336 18.457 83.7402 18.457C85.6445 18.457 86.4746 17.2852 86.8164 15.3809L90.8691-10.3516C91.748-16.0645 89.4531-19.1895 83.2031-20.7031L62.8418-25.5371L62.8418-26.0254C65.332-27.2461 66.8945-29.7363 67.5293-32.5195L80.4199-34.375C86.6211-35.2051 89.2578-38.2812 89.2578-44.1895L89.2578-60.791C89.2578-62.6465 88.1836-63.7695 86.3281-63.7695C84.4727-63.7695 83.3984-62.5977 83.3984-60.791L83.3984-45.3613C83.3984-41.6504 81.6406-40.332 78.0273-39.7949L67.2852-38.2324C66.7969-39.9414 65.8203-41.4062 64.3555-42.3828L64.3555-42.8711C72.7051-44.3359 76.8555-49.4141 76.8555-56.8359C76.8555-63.623 74.1211-69.8242 69.7266-74.4141L70.3125-74.8047C74.9023-78.3203 75.4395-82.8613 72.2656-87.9395L68.2617-93.75C67.5293-95.0195 66.6504-95.6055 65.4785-95.6055C63.916-95.6055 62.7441-94.4824 62.7441-92.9688C62.7441-92.2852 62.8906-91.8457 63.3789-91.0156L67.2363-85.7422C69.1406-82.9102 69.0918-80.5176 66.3574-78.4668L65.625-77.8809C61.6211-80.6152 56.8359-82.1777 51.7578-82.1777C46.6797-82.1777 41.9434-80.6152 37.9395-77.9297L37.2559-78.4668C34.5215-80.5176 34.5215-82.9102 36.377-85.7422L40.2344-91.0156C40.7227-91.8457 40.8691-92.2852 40.8691-92.9688C40.8691-94.4824 39.6973-95.6055 38.1348-95.6055C36.9629-95.6055 36.084-95.0195 35.3516-93.75L31.3477-87.9395C28.1738-82.8613 28.7109-78.3203 33.3496-74.8047L33.7891-74.4629C29.3945-69.873 26.6113-63.6719 26.6113-56.8359C26.6113-49.4141 30.8105-44.3359 39.1602-42.8711L39.1602-42.3828C37.6953-41.4062 36.7188-39.9414 36.1816-38.2324L25.4395-39.7949C21.875-40.332 20.1172-41.6504 20.1172-45.3613L20.1172-60.791C20.1172-62.5977 18.9941-63.7695 17.1387-63.7695C15.2832-63.7695 14.209-62.6465 14.209-60.791L14.209-44.1895C14.209-38.2812 16.8457-35.2051 23.0469-34.375L35.9863-32.5195C36.5723-29.7363 38.1836-27.2461 40.625-26.0254L40.625-25.5371L20.2637-20.7031C14.0625-19.1895 11.7188-16.0645 12.6465-10.3516L16.6992 15.3809C16.9922 17.2852 17.8223 18.457 19.7266 18.457ZM42.334-48.584C36.6699-48.584 32.9102-51.9531 32.9102-57.0312C32.9102-67.1387 41.7969-75.9277 51.7578-75.9277C61.7188-75.9277 70.6055-67.1387 70.6055-57.0312C70.6055-51.9531 66.8457-48.584 61.1816-48.584ZM41.5527-35.2539C41.5527-39.6973 44.3359-42.5293 48.7793-42.5293L54.7363-42.5293C59.1797-42.5293 61.9629-39.6973 61.9629-35.2539C61.9629-29.6387 57.9102-25.1465 52.7832-25.1465L50.6836-25.1465C45.6055-25.1465 41.5527-29.6387 41.5527-35.2539ZM51.7578 15.7227C41.3086 15.7227 32.373 3.36914 32.373-7.95898C32.373-15.1855 36.8164-19.6777 44.6777-19.6777L58.8379-19.6777C66.6992-19.6777 71.1426-15.1855 71.1426-7.95898C71.1426 3.36914 62.207 15.7227 51.7578 15.7227Z"/>
  </g>
  <g id="Thin-M" transform="matrix(1 0 0 1 806.52 1126)">
   <path d="M18.7012 17.5293C19.873 17.5293 20.8008 16.6992 20.6055 15.4297L16.5527-10.1074C15.8691-14.209 17.2363-16.4551 21.0938-17.4316L27.5391-19.043C25.4883-16.3086 24.4141-12.793 24.4141-8.30078C24.4141 7.61719 36.7676 22.1191 49.9023 22.1191C63.0371 22.1191 75.3418 7.61719 75.3418-8.30078C75.3418-12.793 74.3164-16.3086 72.2656-19.043L78.6621-17.4316C82.5195-16.4551 83.9355-14.209 83.252-10.1074L79.1992 15.4297C79.0039 16.6992 79.8828 17.5293 81.0547 17.5293C82.3242 17.5293 82.8125 16.7969 83.0078 15.5273L87.1582-10.6934C88.0371-16.4062 85.7422-19.5801 79.541-21.0449L60.791-25.5371L60.791-26.0254C63.7207-27.4414 65.3809-30.7129 65.6738-34.082L76.9531-35.6445C83.252-36.5234 85.791-39.209 85.791-44.9219L85.791-61.0352C85.791-62.3535 85.1074-63.0371 83.8867-63.0371C82.7148-63.0371 81.9824-62.2559 81.9824-61.0352L81.9824-45.5566C81.9824-41.6016 80.3223-39.9414 76.2207-39.3555L65.3809-37.7441C64.8926-39.6484 63.8672-41.3086 62.2559-42.3828L62.2559-42.8711C70.6055-44.3359 74.8047-49.4141 74.8047-56.8359C74.8047-64.3555 71.4355-71.1914 66.2109-75.8301L67.0898-76.5137C71.5332-80.0781 71.6309-84.082 68.3105-88.6719L62.8906-95.8984C62.3535-96.6797 61.7676-97.0215 61.084-97.0215C60.1074-97.0215 59.375-96.3867 59.375-95.4102C59.375-94.9219 59.4727-94.5801 59.9121-93.8965L65.4785-86.7188C67.627-83.8379 67.7734-81.3477 64.7461-78.9551L63.4766-77.9785C59.5215-80.6152 54.834-82.1777 49.9023-82.1777C44.9707-82.1777 40.2832-80.6641 36.3281-77.9785L35.0586-78.9551C32.0801-81.3477 32.2266-83.8379 34.3262-86.7188L39.8926-93.8965C40.332-94.5801 40.4785-94.9219 40.4785-95.4102C40.4785-96.3867 39.7461-97.0215 38.7695-97.0215C38.0371-97.0215 37.4512-96.6797 36.9141-95.8984L31.4941-88.6719C28.2227-84.082 28.2715-80.0781 32.7148-76.5137L33.5938-75.8301C28.3691-71.1914 25-64.3555 25-56.8359C25-49.4141 29.1504-44.3359 37.5-42.8711L37.5-42.3828C35.9375-41.3086 34.9121-39.6484 34.4238-37.7441L23.584-39.3555C19.4824-39.9414 17.8223-41.6016 17.8223-45.5566L17.8223-61.0352C17.8223-62.2559 17.0898-63.0371 15.918-63.0371C14.6484-63.0371 13.9648-62.3535 13.9648-61.0352L13.9648-44.9219C13.9648-39.209 16.5039-36.5234 22.8516-35.6445L34.1309-34.082C34.375-30.7129 36.084-27.4414 39.0137-26.0254L39.0137-25.5371L20.2637-21.0449C14.0625-19.5801 11.7676-16.4062 12.6465-10.6934L16.748 15.5273C16.9922 16.7969 17.4805 17.5293 18.7012 17.5293ZM39.6484-46.6309C33.5938-46.6309 28.9551-51.0742 28.9551-56.8359C28.9551-68.3594 38.916-78.3203 49.9023-78.3203C60.8887-78.3203 70.8496-68.3594 70.8496-56.8359C70.8496-51.0742 66.2109-46.6309 60.1562-46.6309ZM37.8906-35.1074C37.8906-39.502 40.7227-42.6758 44.7754-42.6758L55.0293-42.6758C59.0332-42.6758 61.8652-39.502 61.8652-35.1074C61.8652-29.3945 57.5195-25.1465 51.6113-25.1465L48.1445-25.1465C42.2852-25.1465 37.8906-29.3945 37.8906-35.1074ZM49.9023 18.0664C38.9648 18.0664 28.5156 4.93164 28.5156-8.30078C28.5156-16.5039 33.8379-21.6797 42.3828-21.6797L57.4219-21.6797C65.9668-21.6797 71.2891-16.5039 71.2891-8.30078C71.2891 4.93164 60.8398 18.0664 49.9023 18.0664Z"/>
  </g>
  <g id="Ultralight-M" transform="matrix(1 0 0 1 510.761 1126)">
   <path d="M18.2129 17.041C19.043 17.041 19.7266 16.4551 19.5801 15.625L15.3809-10.498C14.6484-14.9414 16.1621-17.4805 20.166-18.457L27.8809-20.3613C25-17.4316 23.584-13.4277 23.584-8.20312C23.584 7.66602 35.9863 22.1191 48.9258 22.1191C61.9141 22.1191 74.3164 7.66602 74.3164-8.20312C74.3164-13.4277 72.9004-17.4316 70.0195-20.3613L77.7344-18.457C81.7383-17.4805 83.252-14.9414 82.5195-10.498L78.3203 15.625C78.1738 16.4551 78.8574 17.041 79.6875 17.041C80.6152 17.041 80.9082 16.5527 81.1035 15.625L85.2539-10.8398C86.1328-16.5527 83.8379-19.7754 77.6855-21.2402L59.7168-25.5371L59.7168-26.0254C62.8906-27.5391 64.5996-31.25 64.6484-34.8633L75.1953-36.3281C81.543-37.207 84.0332-39.6484 84.0332-45.3125L84.0332-61.1816C84.0332-62.1582 83.5449-62.6465 82.666-62.6465C81.7871-62.6465 81.25-62.0605 81.25-61.1816L81.25-45.6543C81.25-41.5527 79.6387-39.7461 75.2441-39.1113L64.4043-37.5C63.916-39.502 62.8906-41.2598 61.2305-42.3828L61.2305-42.8711C69.5801-44.3359 73.7305-49.4141 73.7305-56.8359C73.7305-64.7461 70.0195-71.8262 64.4043-76.5137L65.4785-77.3926C69.8242-81.0059 69.6777-84.668 66.3086-89.0137L60.1562-96.9727C59.7168-97.5098 59.2773-97.7539 58.8379-97.7539C58.1543-97.7539 57.6172-97.3633 57.6172-96.6309C57.6172-96.2402 57.7148-95.9473 58.1543-95.4102L64.5996-87.207C66.8457-84.3262 67.0898-81.7871 63.916-79.1992L62.4023-77.9785C58.4961-80.6641 53.8574-82.1777 48.9258-82.1777C44.043-82.1777 39.4043-80.6641 35.498-78.0273L33.9844-79.1992C30.8105-81.7871 31.0547-84.3262 33.3008-87.207L39.7461-95.4102C40.1367-95.9473 40.2832-96.2402 40.2832-96.6309C40.2832-97.3633 39.7461-97.7539 39.0625-97.7539C38.623-97.7539 38.1836-97.5098 37.7441-96.9727L31.5918-89.0137C28.2227-84.668 28.0762-81.0059 32.4219-77.3926L33.4961-76.5137C27.832-71.8262 24.1699-64.6973 24.1699-56.8359C24.1699-49.4141 28.3203-44.3359 36.6699-42.8711L36.6699-42.3828C35.0098-41.2598 33.9844-39.502 33.4961-37.5L22.6562-39.1113C18.2617-39.7461 16.6504-41.5527 16.6504-45.6543L16.6504-61.1816C16.6504-62.0605 16.1133-62.6465 15.2344-62.6465C14.3555-62.6465 13.8672-62.1582 13.8672-61.1816L13.8672-45.3125C13.8672-39.6484 16.3574-37.207 22.7051-36.3281L33.252-34.8633C33.3008-31.25 35.0098-27.5391 38.1836-26.0254L38.1836-25.5371L20.2148-21.2402C14.0625-19.7754 11.7676-16.5527 12.6465-10.8398L16.7969 15.625C16.9922 16.5527 17.2852 17.041 18.2129 17.041ZM38.2812-45.6543C32.0312-45.6543 26.9043-50.6348 26.9043-56.7383C26.9043-68.9453 37.4512-79.541 48.9258-79.541C60.4492-79.541 70.9961-68.9453 70.9961-56.7383C70.9961-50.6348 65.8691-45.6543 59.6191-45.6543ZM36.0352-35.0098C36.0352-39.4531 38.916-42.7246 42.7734-42.7246L55.127-42.7246C58.9844-42.7246 61.8652-39.4531 61.8652-35.0098C61.8652-29.248 57.2754-25.1465 51.0254-25.1465L46.875-25.1465C40.5762-25.1465 36.0352-29.248 36.0352-35.0098ZM48.9258 19.2383C37.793 19.2383 26.5625 5.76172 26.5625-8.49609C26.5625-17.1875 32.3242-22.7051 41.2109-22.7051L56.6895-22.7051C65.5762-22.7051 71.3379-17.1875 71.3379-8.49609C71.3379 5.76172 60.1074 19.2383 48.9258 19.2383Z"/>
  </g>
  <g id="Black-S" transform="matrix(1 0 0 1 2887.18 696)">
   <path d="M18.1152 11.5723C21.1426 11.5723 23.5352 9.375 22.9492 5.61523L20.459-10.6934C20.0684-13.3301 20.8984-14.6484 23.877-15.5273C23.8281-14.9902 23.7793-14.4531 23.7793-13.8672C23.7793-0.0488281 34.1309 12.8418 46.1914 12.8418C58.3008 12.8418 68.6035-0.0488281 68.6035-13.8672C68.6035-14.4531 68.6035-14.9902 68.5547-15.5273C71.5332-14.6484 72.3633-13.3301 71.9238-10.6934L69.4336 5.61523C68.8477 9.375 71.2402 11.5723 74.2676 11.5723C77.4902 11.5723 79.0039 9.57031 79.4922 6.34766L82.4219-12.6465C83.4473-19.1895 80.8594-22.8516 73.6328-24.4141L56.0059-28.2715L56.0059-28.7109C56.9824-29.1504 57.7637-29.834 58.3984-30.6641L71.4355-31.6406C78.3691-32.1777 81.6406-36.7676 81.6406-43.7988L81.6406-56.2988C81.6406-59.4238 79.7363-61.2793 76.6113-61.2793C73.4375-61.2793 71.6797-59.4238 71.6797-56.2988L71.6797-45.9473C71.6797-42.0898 69.4824-40.8691 66.1133-40.625L59.5215-40.1367C59.0332-41.2109 58.3008-42.1387 57.3242-42.7734L57.3242-43.2129C64.502-44.4824 68.1152-48.8281 68.1152-55.2246C68.1152-59.082 67.0898-62.7441 65.2832-65.918L66.5039-66.748C71.582-70.2637 72.5098-75.0977 69.3359-81.1523L67.2852-85.0586C66.1621-87.1582 64.8438-88.0371 62.9395-88.0371C60.5469-88.0371 58.6914-86.1816 58.6914-83.8867C58.6914-82.8125 58.7891-82.2266 59.375-81.2012L60.9375-78.3691C62.0117-76.416 61.6211-74.3164 59.7656-72.998L59.3262-72.6562C55.6641-75.4395 51.123-77.0996 46.1914-77.0996C41.3086-77.0996 36.7676-75.4395 33.1055-72.6562L32.6172-72.998C30.7617-74.3164 30.3711-76.416 31.4453-78.3691L33.0078-81.2012C33.5938-82.2266 33.6914-82.8125 33.6914-83.8867C33.6914-86.1816 31.8359-88.0371 29.4434-88.0371C27.5391-88.0371 26.2207-87.1582 25.0977-85.0586L23.0469-81.1523C19.873-75.0977 20.8008-70.2637 25.8789-66.748L27.0996-65.918C25.3418-62.7441 24.2676-59.082 24.2676-55.2246C24.2676-48.8281 27.8809-44.4824 35.0586-43.2129L35.0586-42.7734C34.082-42.1387 33.3984-41.2109 32.8613-40.1367L26.2695-40.625C22.9004-40.8691 20.7031-42.0898 20.7031-45.9473L20.7031-56.2988C20.7031-59.4238 18.9453-61.2793 15.7715-61.2793C12.6465-61.2793 10.7422-59.4238 10.7422-56.2988L10.7422-43.7988C10.7422-36.7676 14.0137-32.1777 20.9473-31.6406L33.9844-30.6641C34.668-29.834 35.4492-29.1504 36.377-28.7109L36.377-28.2715L18.75-24.4141C11.5234-22.8516 8.93555-19.1895 9.96094-12.6465L12.8906 6.34766C13.3789 9.57031 14.8926 11.5723 18.1152 11.5723ZM40.0391-51.123C36.2305-51.123 34.3262-52.5879 34.3262-55.6152C34.3262-61.7188 39.8438-66.9922 46.1914-66.9922C52.5391-66.9922 58.0566-61.7188 58.0566-55.6152C58.0566-52.5879 56.1523-51.123 52.3438-51.123ZM40.7227-36.2793C40.7227-39.4043 42.5781-41.1133 46.0938-41.1133L46.2891-41.1133C49.8047-41.1133 51.6602-39.4043 51.6602-36.2793C51.6602-32.373 49.2188-29.0039 46.2891-29.0039L46.0938-29.0039C43.1641-29.0039 40.7227-32.373 40.7227-36.2793ZM46.1914 1.02539C39.2578 1.02539 34.4238-7.03125 34.4238-13.1348C34.4238-17.334 36.7188-19.8242 41.6016-19.8242L50.7812-19.8242C55.6641-19.8242 57.959-17.334 57.959-13.1348C57.959-7.03125 53.125 1.02539 46.1914 1.02539Z"/>
  </g>
  <g id="Heavy-S" transform="matrix(1 0 0 1 2591.4 696)">
   <path d="M17.7246 10.6445C20.5078 10.6445 22.7051 8.64258 22.168 5.17578L19.6289-11.5234C19.2383-14.1602 20.166-15.3809 23.4863-16.2109C23.3887-15.5273 23.3887-14.7949 23.3887-14.0137C23.3887-0.488281 33.4961 12.1094 45.3125 12.1094C57.1289 12.1094 67.2363-0.488281 67.2363-14.0137C67.2363-14.7949 67.1875-15.5273 67.0898-16.2109C70.4102-15.3809 71.3867-14.209 70.9473-11.5234L68.4082 5.17578C67.8711 8.64258 70.0684 10.6445 72.8516 10.6445C75.8301 10.6445 77.1973 8.83789 77.6367 5.85938L80.6152-13.2812C81.5918-19.3359 79.1504-22.7051 72.5098-24.1699L54.8828-28.125L54.8828-28.5645C55.957-29.0527 56.8359-29.8828 57.5195-30.8594L70.2637-32.0312C76.6602-32.6172 79.6875-36.7676 79.6875-43.2617L79.6875-56.0059C79.6875-58.8379 77.9297-60.5469 75.0488-60.5469C72.168-60.5469 70.5078-58.8379 70.5078-56.0059L70.5078-45.2148C70.5078-41.6504 68.5059-40.5762 65.3809-40.2832L58.3496-39.6484C57.8613-40.7227 57.1777-41.6504 56.2012-42.334L56.2012-42.7246C63.1836-43.9941 66.748-48.2422 66.748-54.4922C66.748-58.5449 65.5762-62.3535 63.5742-65.5762L64.5508-66.2598C69.3359-69.5312 70.2148-74.2188 67.2363-79.8828L65.2832-83.6426C64.209-85.5957 62.9883-86.4258 61.2305-86.4258C58.9844-86.4258 57.2266-84.668 57.2266-82.5195C57.2266-81.543 57.3242-81.0059 57.8613-80.0293L59.375-77.2949C60.498-75.293 60.1562-73.291 58.3008-71.9727L57.959-71.7285C54.3945-74.3164 50-75.8789 45.3125-75.8789C40.5762-75.8789 36.1816-74.3652 32.666-71.7285L32.3242-71.9727C30.4688-73.291 30.127-75.293 31.25-77.2949L32.7637-80.0293C33.3008-81.0059 33.3984-81.543 33.3984-82.5195C33.3984-84.668 31.6895-86.4258 29.4434-86.4258C27.6367-86.4258 26.416-85.5957 25.3906-83.6426L23.3887-79.8828C20.4102-74.2188 21.3379-69.5312 26.0742-66.2598L27.002-65.625C25-62.3535 23.8281-58.5449 23.8281-54.4922C23.8281-48.2422 27.3926-43.9941 34.4238-42.7246L34.4238-42.334C33.4473-41.6504 32.7148-40.7227 32.2266-39.6484L25.1953-40.2832C22.0703-40.5762 20.0684-41.6504 20.0684-45.2148L20.0684-56.0059C20.0684-58.8379 18.457-60.5469 15.5273-60.5469C12.6465-60.5469 10.8887-58.8379 10.8887-56.0059L10.8887-43.2617C10.8887-36.7676 13.916-32.6172 20.3125-32.0312L33.0566-30.8594C33.7402-29.8828 34.6191-29.0527 35.6934-28.5645L35.6934-28.125L18.1152-24.1699C11.4258-22.7051 9.0332-19.3359 9.96094-13.2812L12.9395 5.85938C13.3789 8.83789 14.7949 10.6445 17.7246 10.6445ZM39.0137-50.293C35.1562-50.293 33.2031-51.8066 33.2031-54.8828C33.2031-61.084 38.8184-66.4551 45.3125-66.4551C51.7578-66.4551 57.373-61.084 57.373-54.8828C57.373-51.8066 55.4199-50.293 51.5625-50.293ZM39.6484-36.084C39.6484-39.3066 41.5527-41.0645 45.166-41.0645L45.459-41.0645C49.0234-41.0645 50.9277-39.3066 50.9277-36.084C50.9277-32.0801 48.4375-28.6133 45.4102-28.6133L45.166-28.6133C42.1875-28.6133 39.6484-32.0801 39.6484-36.084ZM45.3125 1.36719C38.1836 1.36719 33.1543-6.88477 33.1543-13.2324C33.1543-17.5781 35.5469-20.1172 40.5762-20.1172L50-20.1172C55.0293-20.1172 57.4219-17.5781 57.4219-13.2324C57.4219-6.88477 52.3926 1.36719 45.3125 1.36719Z"/>
  </g>
  <g id="Bold-S" transform="matrix(1 0 0 1 2295.72 696)">
   <path d="M17.2852 9.61914C19.8242 9.61914 21.7773 7.8125 21.2891 4.6875L18.7012-12.4023C18.3105-14.8926 19.1895-15.9668 22.3145-16.748L23.0957-16.9922C22.9492-16.1133 22.9004-15.1855 22.9004-14.209C22.9004-1.02539 32.7637 11.2793 44.2871 11.2793C55.8105 11.2793 65.625-1.02539 65.625-14.209C65.625-15.1855 65.5762-16.1133 65.4297-16.9922L66.2598-16.748C69.3359-15.9668 70.2148-14.8926 69.873-12.4023L67.2363 4.6875C66.748 7.8125 68.7012 9.61914 71.2402 9.61914C73.9258 9.61914 75.1465 7.95898 75.5859 5.32227L78.5645-14.0137C79.4434-19.5312 77.2461-22.5586 71.1914-23.9258L53.6133-27.9785L53.6133-28.3691C54.834-28.9551 55.8105-29.9316 56.4941-31.1035L68.8965-32.4707C74.7559-33.1055 77.4902-36.7676 77.4902-42.6758L77.4902-55.6152C77.4902-58.252 75.9277-59.7656 73.291-59.7656C70.7031-59.7656 69.1895-58.252 69.1895-55.6152L69.1895-44.4336C69.1895-41.2109 67.3828-40.2344 64.5508-39.9414L57.0312-39.1113C56.5918-40.1855 55.8594-41.1133 54.8828-41.7969L54.8828-42.2363C61.7188-43.457 65.1855-47.6074 65.1855-53.7109C65.1855-57.9102 63.8672-61.9141 61.6699-65.1855L62.3047-65.6738C66.748-68.75 67.627-73.2422 64.8926-78.5156L62.9883-82.0312C62.0117-83.8379 60.8887-84.6191 59.2773-84.6191C57.1777-84.6191 55.5664-83.0078 55.5664-81.0059C55.5664-80.127 55.6641-79.5898 56.2012-78.6621L57.666-76.123C58.8379-74.0234 58.4961-72.1191 56.6895-70.8008L56.3965-70.6055C52.9785-73.0957 48.7793-74.5605 44.2871-74.5605C39.7949-74.5605 35.5957-73.0957 32.1777-70.6543L31.9336-70.8008C30.127-72.1191 29.834-74.0234 30.957-76.123L32.4219-78.6621C32.959-79.5898 33.0566-80.127 33.0566-81.0059C33.0566-83.0078 31.4453-84.6191 29.3945-84.6191C27.7344-84.6191 26.6113-83.8379 25.6348-82.0312L23.7305-78.5156C20.9961-73.2422 21.875-68.75 26.3184-65.6738L26.9043-65.2344C24.6582-61.9141 23.3398-57.959 23.3398-53.7109C23.3398-47.6074 26.8066-43.457 33.6426-42.2363L33.6426-41.7969C32.666-41.1133 31.9336-40.1855 31.4941-39.1113L24.0234-39.9414C21.1426-40.2344 19.3359-41.2109 19.3359-44.4336L19.3359-55.6152C19.3359-58.252 17.8711-59.7656 15.2344-59.7656C12.6465-59.7656 11.084-58.252 11.084-55.6152L11.084-42.6758C11.084-36.7676 13.7695-33.1055 19.6289-32.4707L32.0801-31.1035C32.7148-29.9316 33.6914-28.9551 34.9121-28.3691L34.9121-27.9785L17.334-23.9258C11.2793-22.5586 9.08203-19.5312 9.96094-14.0137L12.9395 5.32227C13.3789 7.95898 14.5996 9.61914 17.2852 9.61914ZM37.8906-49.3164C33.9844-49.3164 31.9824-50.8789 31.9824-54.0527C31.9824-60.4004 37.6953-65.8691 44.2871-65.8691C50.8301-65.8691 56.5918-60.4004 56.5918-54.0527C56.5918-50.8789 54.5898-49.3164 50.6348-49.3164ZM38.3789-35.8398C38.3789-39.1602 40.3809-40.9668 44.0918-40.9668L44.4824-40.9668C48.1445-40.9668 50.1465-39.1602 50.1465-35.8398C50.1465-31.7383 47.5098-28.1738 44.3848-28.1738L44.1406-28.1738C41.0156-28.1738 38.3789-31.7383 38.3789-35.8398ZM44.2871 1.75781C36.9629 1.75781 31.7383-6.78711 31.7383-13.3301C31.7383-17.8223 34.2285-20.459 39.4043-20.459L49.1211-20.459C54.2969-20.459 56.7871-17.8223 56.7871-13.3301C56.7871-6.78711 51.6113 1.75781 44.2871 1.75781Z"/>
  </g>
  <g id="Semibold-S" transform="matrix(1 0 0 1 1999.71 696)">
   <path d="M16.9922 8.93555C19.3359 8.93555 21.0938 7.22656 20.6543 4.3457L18.0176-13.0371C17.6758-15.3809 18.5059-16.3574 21.3867-17.1387L22.8516-17.5293C22.6562-16.5527 22.5586-15.4785 22.5586-14.3066C22.5586-1.36719 32.2754 10.6934 43.5547 10.6934C54.8828 10.6934 64.5508-1.36719 64.5508-14.3066C64.5508-15.4785 64.4531-16.5527 64.3066-17.5293L65.7227-17.1387C68.6523-16.3574 69.4336-15.3809 69.0918-13.0371L66.4551 4.3457C66.0156 7.22656 67.7734 8.93555 70.1172 8.93555C72.6074 8.93555 73.7793 7.42188 74.1211 4.93164L77.1973-14.5508C77.9785-19.6777 75.9277-22.4609 70.3125-23.7793L52.7344-27.832L52.7344-28.2227C54.0527-28.8574 55.0781-29.9316 55.7617-31.25L67.9688-32.7637C73.4375-33.3984 75.9277-36.7676 75.9277-42.2363L75.9277-55.3711C75.9277-57.8125 74.5117-59.2285 72.1191-59.2285C69.6777-59.2285 68.2617-57.8125 68.2617-55.3711L68.2617-43.8965C68.2617-40.8691 66.6016-39.9902 63.9648-39.6973L56.1523-38.7207C55.6641-39.8438 54.9805-40.7715 53.9551-41.4551L53.9551-41.8457C60.7422-43.0664 64.1113-47.1191 64.1113-53.125C64.1113-57.5195 62.6953-61.5723 60.3027-64.9414L60.791-65.2832C64.9902-68.2129 65.8691-72.6074 63.2324-77.5391L61.4258-80.957C60.498-82.6172 59.4238-83.3496 57.9102-83.3496C55.9082-83.3496 54.4434-81.8848 54.4434-79.9805C54.4434-79.1504 54.541-78.6621 55.0293-77.7832L56.4453-75.293C57.666-73.1445 57.373-71.2891 55.5664-70.0195L55.3711-69.873C52.002-72.2168 47.9492-73.6328 43.5547-73.6328C39.209-73.6328 35.1562-72.2656 31.8359-69.9219L31.6895-70.0195C29.8828-71.2891 29.5898-73.1445 30.8105-75.293L32.2266-77.7832C32.7148-78.6621 32.8125-79.1504 32.8125-79.9805C32.8125-81.8848 31.2988-83.3496 29.3457-83.3496C27.7832-83.3496 26.7578-82.6172 25.8301-80.957L24.0234-77.5391C21.3867-72.6074 22.2656-68.2129 26.4648-65.2832L26.8555-64.9902C24.4629-61.6211 22.998-57.5195 22.998-53.125C22.998-47.1191 26.416-43.0664 33.1543-41.8457L33.1543-41.4551C32.1289-40.7715 31.4453-39.8438 30.957-38.7207L23.1934-39.6973C20.5078-39.9902 18.8477-40.8691 18.8477-43.8965L18.8477-55.3711C18.8477-57.8125 17.4316-59.2285 15.0391-59.2285C12.5977-59.2285 11.1816-57.8125 11.1816-55.3711L11.1816-42.2363C11.1816-36.7676 13.7207-33.3984 19.1406-32.7637L31.3965-31.25C32.0312-29.9316 33.0566-28.8574 34.375-28.2227L34.375-27.832L16.8457-23.7793C11.1816-22.4609 9.13086-19.6777 9.96094-14.5508L12.9883 4.93164C13.3789 7.42188 14.502 8.93555 16.9922 8.93555ZM37.1094-48.6816C33.1543-48.6816 31.1035-50.293 31.1035-53.4668C31.1035-59.9121 36.9141-65.4785 43.5547-65.4785C50.2441-65.4785 56.0059-59.9121 56.0059-53.4668C56.0059-50.293 54.0039-48.6816 50-48.6816ZM37.5488-35.6445C37.5488-39.0625 39.5508-40.918 43.3105-40.918L43.8477-40.918C47.5586-40.918 49.5605-39.0625 49.5605-35.6445C49.5605-31.4941 46.875-27.8809 43.7012-27.8809L43.4082-27.8809C40.2344-27.8809 37.5488-31.4941 37.5488-35.6445ZM43.5547 2.00195C36.084 2.00195 30.7617-6.68945 30.7617-13.3789C30.7617-17.9688 33.3008-20.7031 38.623-20.7031L48.5352-20.7031C53.8086-20.7031 56.3477-17.9688 56.3477-13.3789C56.3477-6.68945 51.0254 2.00195 43.5547 2.00195Z"/>
  </g>
  <g id="Medium-S" transform="matrix(1 0 0 1 1703.54 696)">
   <path d="M16.748 8.39844C18.9453 8.39844 20.6055 6.78711 20.2148 4.10156L17.5293-13.5254C17.1875-15.7227 17.9688-16.6504 20.7031-17.3828L22.6562-17.9199C22.4121-16.8457 22.3145-15.6738 22.3145-14.4043C22.3145-1.61133 31.8848 10.3027 43.0176 10.3027C54.1992 10.3027 63.7207-1.61133 63.7207-14.4043C63.7207-15.6738 63.623-16.8457 63.3789-17.9199L65.332-17.3828C68.0664-16.6504 68.8477-15.7227 68.5059-13.5254L65.8203 4.10156C65.4297 6.78711 67.0898 8.39844 69.2871 8.39844C71.6309 8.39844 72.7051 6.98242 73.0469 4.63867L76.123-14.9414C76.9043-19.7754 74.9512-22.4121 69.6289-23.6328L52.0996-27.7344L52.0996-28.1738C53.4668-28.8086 54.4922-29.9805 55.1758-31.3965L67.2852-33.0078C72.4121-33.6426 74.8047-36.7676 74.8047-41.9434L74.8047-55.2246C74.8047-57.4707 73.4375-58.7891 71.1914-58.7891C68.8965-58.7891 67.5781-57.4707 67.5781-55.2246L67.5781-43.5059C67.5781-40.625 66.0156-39.8438 63.5254-39.502L55.4688-38.4277C55.0293-39.5508 54.2969-40.5273 53.2715-41.1621L53.2715-41.5527C59.9609-42.7734 63.2812-46.7773 63.2812-52.6855C63.2812-57.1777 61.7676-61.377 59.2773-64.7461L59.6191-64.9902C63.6719-67.7734 64.502-72.0703 62.0117-76.8066L60.2051-80.0781C59.375-81.6895 58.3496-82.4219 56.8848-82.4219C54.9805-82.4219 53.5645-81.0059 53.5645-79.1992C53.5645-78.3691 53.6621-77.9297 54.1504-77.0508L55.5176-74.6582C56.7383-72.5098 56.4941-70.6543 54.6875-69.3848L54.541-69.2871C51.2695-71.582 47.2656-72.9492 43.0176-72.9492C38.7695-72.9492 34.8633-71.6309 31.5918-69.3359L31.4941-69.3848C29.6875-70.6543 29.4434-72.5098 30.6641-74.6582L32.0801-77.0508C32.5195-77.9297 32.6172-78.3691 32.6172-79.1992C32.6172-81.0059 31.2012-82.4219 29.2969-82.4219C27.832-82.4219 26.8555-81.6895 25.9766-80.0781L24.1699-76.8066C21.6797-72.0703 22.5098-67.7734 26.5625-64.9902L26.8555-64.7949C24.2676-61.4258 22.7539-57.2266 22.7539-52.6855C22.7539-46.7773 26.0742-42.7734 32.7637-41.5527L32.7637-41.1621C31.7383-40.5273 31.0547-39.5508 30.5664-38.4277L22.5586-39.502C20.0195-39.8438 18.457-40.625 18.457-43.5059L18.457-55.2246C18.457-57.4707 17.1387-58.7891 14.8438-58.7891C12.5977-58.7891 11.2305-57.4707 11.2305-55.2246L11.2305-41.9434C11.2305-36.7676 13.623-33.6426 18.7988-33.0078L30.8594-31.3965C31.543-29.9805 32.5684-28.8086 33.9355-28.1738L33.9355-27.7344L16.4551-23.6328C11.084-22.4121 9.13086-19.7754 9.91211-14.9414L12.9883 4.63867C13.3301 6.98242 14.4531 8.39844 16.748 8.39844ZM36.5234-48.1934C32.5195-48.1934 30.4199-49.8047 30.4199-53.0273C30.4199-59.5703 36.2793-65.1855 43.0176-65.1855C49.7559-65.1855 55.6152-59.5703 55.6152-53.0273C55.6152-49.8047 53.5645-48.1934 49.5117-48.1934ZM36.9141-35.5469C36.9141-38.9648 38.9648-40.8691 42.7734-40.8691L43.3105-40.8691C47.0703-40.8691 49.1211-38.9648 49.1211-35.5469C49.1211-31.2988 46.3867-27.6367 43.1641-27.6367L42.8711-27.6367C39.6484-27.6367 36.9141-31.2988 36.9141-35.5469ZM43.0176 2.19727C35.4492 2.19727 30.0293-6.5918 30.0293-13.4277C30.0293-18.1152 32.6172-20.8984 37.9883-20.8984L48.0469-20.8984C53.4668-20.8984 56.0059-18.1152 56.0059-13.4277C56.0059-6.5918 50.5859 2.19727 43.0176 2.19727Z"/>
  </g>
  <g id="Regular-S" transform="matrix(1 0 0 1 1407.51 696)">
   <path d="M16.4551 7.71484C18.457 7.71484 19.9707 6.25 19.5801 3.75977L16.8945-14.1602C16.6016-16.2109 17.2852-17.041 19.8242-17.7734L22.4609-18.457C22.168-17.2852 21.9727-16.0156 21.9727-14.502C21.9727-2.00195 31.3965 9.7168 42.334 9.7168C53.2715 9.7168 62.6465-2.00195 62.6465-14.502C62.6465-16.0156 62.5-17.2852 62.207-18.457L64.8438-17.7734C67.3828-17.041 68.0664-16.2109 67.7734-14.1602L65.0391 3.75977C64.6484 6.25 66.1621 7.71484 68.2129 7.71484C70.3125 7.71484 71.2891 6.39648 71.6309 4.24805L74.707-15.4297C75.4395-19.9219 73.6328-22.3145 68.7012-23.4863L51.2207-27.6367L51.2207-28.0273C52.6855-28.7109 53.7598-30.0293 54.3945-31.543L66.3574-33.3008C71.0938-33.9844 73.291-36.7676 73.291-41.5527L73.291-54.9805C73.291-57.0312 72.0703-58.252 69.9707-58.252C67.9199-58.252 66.6992-57.0312 66.6992-54.9805L66.6992-42.9688C66.6992-40.332 65.2344-39.5996 62.9395-39.2578L54.541-38.0371C54.1016-39.1602 53.418-40.1367 52.3926-40.8203L52.3926-41.2109C58.9355-42.3828 62.207-46.3379 62.207-52.1484C62.207-56.7871 60.5957-61.0352 57.9102-64.4531L58.1543-64.5996C61.9141-67.2363 62.7441-71.4355 60.4004-75.8789L58.6426-79.0039C57.8613-80.5176 56.9336-81.1523 55.5664-81.1523C53.7598-81.1523 52.4414-79.8828 52.4414-78.1738C52.4414-77.3926 52.5391-77.002 52.9785-76.1719L54.3457-73.8281C55.6152-71.6309 55.3711-69.873 53.5645-68.6035L53.4668-68.5547C50.293-70.752 46.4355-72.0215 42.334-72.0215C38.2324-72.0215 34.4238-70.752 31.25-68.6035C29.4434-69.873 29.248-71.6309 30.4688-73.8281L31.8359-76.1719C32.2754-77.002 32.373-77.3926 32.373-78.1738C32.373-79.8828 31.0547-81.1523 29.2969-81.1523C27.9297-81.1523 27.002-80.5176 26.1719-79.0039L24.4629-75.8789C22.0703-71.4355 22.9004-67.2363 26.709-64.5996L26.8066-64.5508C24.0723-61.1328 22.4121-56.7871 22.4121-52.1484C22.4121-46.3379 25.6836-42.3828 32.2266-41.2109L32.2266-40.8203C31.25-40.1367 30.5176-39.1602 30.0781-38.0371L21.7285-39.2578C19.4336-39.5996 17.9688-40.332 17.9688-42.9688L17.9688-54.9805C17.9688-57.0312 16.748-58.252 14.6484-58.252C12.5977-58.252 11.377-57.0312 11.377-54.9805L11.377-41.5527C11.377-36.7676 13.5254-33.9844 18.3105-33.3008L30.2246-31.543C30.8594-30.0293 31.9336-28.7109 33.3984-28.0273L33.3984-27.6367L15.918-23.4863C10.9863-22.3145 9.17969-19.9219 9.91211-15.4297L12.9883 4.24805C13.3301 6.39648 14.3066 7.71484 16.4551 7.71484ZM35.7422-47.5098C31.6895-47.5098 29.5898-49.2188 29.5898-52.4902C29.5898-59.082 35.498-64.7949 42.334-64.7949C49.1211-64.7949 55.0781-59.082 55.0781-52.4902C55.0781-49.2188 52.9785-47.5098 48.9258-47.5098ZM36.0352-35.4004C36.0352-38.916 38.1836-40.8203 42.041-40.8203L42.6758-40.8203C46.4844-40.8203 48.584-38.916 48.584-35.4004C48.584-31.0547 45.752-27.3438 42.4805-27.3438L42.1387-27.3438C38.8672-27.3438 36.0352-31.0547 36.0352-35.4004ZM42.334 2.49023C34.6191 2.49023 29.0527-6.49414 29.0527-13.5254C29.0527-18.2617 31.6895-21.1426 37.207-21.1426L47.4609-21.1426C52.9297-21.1426 55.6152-18.2617 55.6152-13.5254C55.6152-6.49414 50.0488 2.49023 42.334 2.49023Z"/>
  </g>
  <g id="Light-S" transform="matrix(1 0 0 1 1112.04 696)">
   <path d="M15.7715 7.08008C17.3828 7.08008 18.5547 5.95703 18.2617 4.00391L15.3809-14.6973C14.9902-17.1875 15.8691-18.3594 18.5547-19.0918L21.875-19.9707C21.2402-18.4082 20.8984-16.5527 20.8984-14.3555C20.8984-1.85547 30.3711 9.7168 41.0645 9.7168C51.7578 9.7168 61.2793-1.85547 61.2793-14.3555C61.2793-16.5527 60.9375-18.4082 60.3027-19.9707L63.623-19.0918C66.3086-18.3594 67.1875-17.1875 66.7969-14.6973L63.916 4.00391C63.623 5.95703 64.7949 7.08008 66.4062 7.08008C68.0664 7.08008 68.8477 6.05469 69.0918 4.3457L72.2656-15.625C72.9492-20.1172 71.1426-22.5586 66.2598-23.7305L49.8535-27.6367L49.8535-28.0273C51.6602-28.9062 52.832-30.6641 53.3691-32.6172L64.0137-34.1797C68.8477-34.8633 70.9473-37.3535 70.9473-42.041L70.9473-55.1758C70.9473-56.8359 70.0195-57.7637 68.3594-57.7637C66.748-57.7637 65.7715-56.7871 65.7715-55.1758L65.7715-43.1152C65.7715-40.2832 64.3555-39.3555 61.6699-38.9648L53.2715-37.7441C52.8809-39.0137 52.0996-40.0879 51.0254-40.8203L51.0254-41.2109C57.5684-42.3828 60.8398-46.3379 60.8398-52.1484C60.8398-57.2754 58.8379-61.9629 55.6641-65.4785L56.0059-65.7715C59.668-68.457 60.2051-72.2168 57.7637-76.3184L55.0781-80.4688C54.3945-81.5918 53.6621-82.1289 52.5879-82.1289C51.2207-82.1289 50.1465-81.1035 50.1465-79.7852C50.1465-79.1504 50.2441-78.8086 50.6836-78.125L53.1738-74.5117C54.5898-72.3145 54.4922-70.459 52.4902-68.9453L52.0508-68.6035C48.877-70.752 45.1172-72.0215 41.0645-72.0215C37.1094-72.0215 33.3496-70.8008 30.2246-68.6523L29.834-68.9453C27.7832-70.459 27.6855-72.3145 29.1016-74.5117L31.6406-78.125C32.0312-78.8086 32.1289-79.1504 32.1289-79.7852C32.1289-81.1035 31.1035-82.1289 29.6875-82.1289C28.6621-82.1289 27.8809-81.5918 27.2461-80.4688L24.5605-76.3184C22.0703-72.2168 22.6074-68.457 26.3184-65.7715L26.5625-65.5273C23.3398-62.0117 21.3379-57.2754 21.3379-52.1484C21.3379-46.3379 24.6094-42.3828 31.1523-41.2109L31.1523-40.8203C30.0781-40.0879 29.2969-39.0137 28.8574-37.7441L20.459-38.9648C17.8223-39.3555 16.4062-40.2832 16.4062-43.1152L16.4062-55.1758C16.4062-56.7871 15.4297-57.7637 13.8184-57.7637C12.1582-57.7637 11.2305-56.8359 11.2305-55.1758L11.2305-42.041C11.2305-37.3535 13.3301-34.8633 18.1641-34.1797L28.7598-32.6172C29.3457-30.6641 30.5176-28.9062 32.3242-28.0273L32.3242-27.6367L15.918-23.7305C10.9863-22.5586 9.17969-20.1172 9.91211-15.625L13.0371 4.3457C13.3301 6.05469 14.0625 7.08008 15.7715 7.08008ZM33.9355-46.2402C29.6387-46.2402 26.9531-48.6328 26.9531-52.3438C26.9531-59.8633 33.5938-66.4062 41.0645-66.4062C48.584-66.4062 55.2246-59.8633 55.2246-52.3438C55.2246-48.6328 52.5391-46.2402 48.2422-46.2402ZM33.6426-35.3027C33.6426-38.7695 35.791-40.918 39.3555-40.918L42.8223-40.918C46.3867-40.918 48.5352-38.7695 48.5352-35.3027C48.5352-30.9082 45.5078-27.3438 41.6992-27.3438L40.4785-27.3438C36.6699-27.3438 33.6426-30.9082 33.6426-35.3027ZM41.0645 4.00391C33.0566 4.00391 26.4648-5.46875 26.4648-13.7695C26.4648-19.1406 29.6875-22.4609 35.6445-22.4609L46.5332-22.4609C52.4414-22.4609 55.7129-19.1406 55.7129-13.7695C55.7129-5.46875 49.1211 4.00391 41.0645 4.00391Z"/>
  </g>
  <g id="Thin-S" transform="matrix(1 0 0 1 816.969 696)">
   <path d="M14.8438 6.29883C15.918 6.29883 16.6992 5.51758 16.5039 4.3457L13.3789-15.3809C12.8906-18.457 13.916-20.1172 16.8945-20.8984L21.582-22.0703C20.166-20.0195 19.4336-17.4316 19.4336-14.209C19.4336-1.70898 29.1016 9.7168 39.4531 9.7168C49.8047 9.7168 59.4238-1.70898 59.4238-14.209C59.4238-17.4316 58.7402-20.0195 57.373-22.0703L62.0117-20.8984C64.9414-20.1172 66.0156-18.457 65.4785-15.3809L62.3535 4.3457C62.207 5.51758 62.9883 6.29883 64.0137 6.29883C65.1367 6.29883 65.5762 5.66406 65.7715 4.49219L68.9941-15.918C69.6777-20.4102 67.8711-22.9004 63.0371-24.0723L47.998-27.6367L47.998-28.0273C50.2441-29.1016 51.5625-31.4941 51.8066-34.0332L60.9375-35.3027C65.8691-35.9863 67.8711-38.1836 67.8711-42.6758L67.8711-55.4199C67.8711-56.543 67.2852-57.1289 66.2109-57.1289C65.1367-57.1289 64.502-56.4453 64.502-55.4199L64.502-43.2617C64.502-40.2344 63.1836-39.0137 60.0586-38.5254L51.6113-37.3047C51.2207-38.7207 50.3906-39.9902 49.1699-40.8203L49.1699-41.2109C55.7129-42.3828 58.9844-46.3379 58.9844-52.1484C58.9844-57.9102 56.4941-63.1348 52.5391-66.7969L53.1738-67.2363C56.6895-70.0195 56.8359-73.2422 54.2969-76.9531L50.293-82.3242C49.8535-83.0566 49.3164-83.3984 48.6816-83.3984C47.8027-83.3984 47.168-82.7637 47.168-81.8848C47.168-81.4941 47.2656-81.2012 47.6074-80.6641L51.6602-75.3906C53.2715-73.1445 53.3691-71.1914 51.0254-69.3848L50.1465-68.7012C47.0215-70.8008 43.3594-72.0215 39.4531-72.0215C35.5469-72.0215 31.8848-70.8008 28.8086-68.7012L27.8809-69.3848C25.5859-71.1914 25.6836-73.1445 27.2949-75.3906L31.3477-80.6641C31.6895-81.2012 31.7871-81.4941 31.7871-81.8848C31.7871-82.7637 31.1035-83.3984 30.2734-83.3984C29.5898-83.3984 29.1016-83.0566 28.6621-82.3242L24.6582-76.9531C22.1191-73.2422 22.2656-70.0195 25.7812-67.2363L26.3672-66.7969C22.4121-63.1348 19.873-57.9102 19.873-52.1484C19.873-46.3379 23.1445-42.3828 29.6875-41.2109L29.6875-40.8203C28.4668-39.9902 27.6855-38.7207 27.2949-37.3047L18.8477-38.5254C15.7227-39.0137 14.4043-40.2344 14.4043-43.2617L14.4043-55.4199C14.4043-56.4453 13.7695-57.1289 12.6953-57.1289C11.6211-57.1289 10.9863-56.543 10.9863-55.4199L10.9863-42.6758C10.9863-38.1836 13.0371-35.9863 17.9199-35.3027L27.0996-34.0332C27.3438-31.4941 28.6621-29.1016 30.8594-28.0273L30.8594-27.6367L15.8691-24.0723C11.0352-22.9004 9.22852-20.4102 9.91211-15.918L13.1348 4.49219C13.3301 5.66406 13.7695 6.29883 14.8438 6.29883ZM31.543-44.5312C26.9043-44.5312 23.4375-47.8027 23.4375-52.1973C23.4375-60.9375 31.0547-68.5059 39.4531-68.5059C47.8516-68.5059 55.4688-60.9375 55.4688-52.1973C55.4688-47.8027 52.002-44.5312 47.3145-44.5312ZM30.3711-35.1562C30.3711-38.623 32.6172-41.0156 35.8398-41.0156L43.0664-41.0156C46.2891-41.0156 48.4863-38.623 48.4863-35.1562C48.4863-30.7129 45.1172-27.3438 40.6738-27.3438L38.2324-27.3438C33.7402-27.3438 30.3711-30.7129 30.3711-35.1562ZM39.4531 6.05469C30.957 6.05469 23.0957-4.05273 23.0957-14.0625C23.0957-20.3125 27.0996-24.2188 33.6426-24.2188L45.2637-24.2188C51.8066-24.2188 55.8105-20.3125 55.8105-14.0625C55.8105-4.05273 47.9004 6.05469 39.4531 6.05469Z"/>
  </g>
  <g id="Ultralight-S" transform="matrix(1 0 0 1 521.088 696)">
   <path d="M14.4043 5.85938C15.1367 5.85938 15.7227 5.32227 15.625 4.54102L12.4023-15.7227C11.8164-19.1406 12.9395-21.0449 16.0645-21.8262L21.7285-23.1934C19.7266-20.9961 18.7012-17.9688 18.7012-14.0625C18.7012-1.61133 28.418 9.7168 38.623 9.7168C48.8281 9.7168 58.4961-1.61133 58.4961-14.0625C58.4961-17.9688 57.5195-20.9961 55.5176-23.1934L61.1816-21.8262C64.2578-21.0449 65.4297-19.1406 64.8438-15.7227L61.6211 4.54102C61.4746 5.32227 62.0605 5.85938 62.8418 5.85938C63.623 5.85938 63.916 5.41992 64.0625 4.58984L67.334-16.0645C68.0176-20.5566 66.2109-23.0469 61.377-24.2188L47.0703-27.6367L47.0703-28.0273C49.5117-29.1992 50.8301-31.9824 50.9277-34.7168L59.375-35.8887C64.3555-36.5723 66.3086-38.5742 66.3086-43.0176L66.3086-55.5176C66.3086-56.3965 65.8691-56.8359 65.0879-56.8359C64.3555-56.8359 63.8672-56.2988 63.8672-55.5176L63.8672-43.4082C63.8672-40.1855 62.5977-38.8184 59.2285-38.3301L50.7324-37.0605C50.3418-38.623 49.5605-39.9414 48.2422-40.8203L48.2422-41.2109C54.7852-42.3828 58.0566-46.3379 58.0566-52.1484C58.0566-58.252 55.2734-63.7207 50.9277-67.3828L51.7578-68.0176C55.1758-70.8496 55.127-73.7793 52.4902-77.2949L47.8516-83.3008C47.5098-83.7891 47.1191-84.0332 46.6797-84.0332C46.0938-84.0332 45.6055-83.6426 45.6055-83.0078C45.6055-82.666 45.7031-82.4219 46.0449-81.9824L50.8789-75.8301C52.5879-73.584 52.7832-71.582 50.293-69.6289L49.1699-68.75C46.0938-70.8008 42.4805-72.0215 38.623-72.0215C34.7656-72.0215 31.1523-70.8008 28.0762-68.75L26.9043-69.6289C24.4629-71.582 24.6582-73.584 26.3672-75.8301L31.2012-81.9824C31.543-82.4219 31.6406-82.666 31.6406-83.0078C31.6406-83.6426 31.1523-84.0332 30.5664-84.0332C30.127-84.0332 29.7363-83.7891 29.3457-83.3008L24.7559-77.2949C22.1191-73.7793 22.0703-70.8496 25.4883-68.0176L26.2695-67.3828C21.9727-63.7207 19.1406-58.252 19.1406-52.1484C19.1406-46.3379 22.4121-42.3828 28.9551-41.2109L28.9551-40.8203C27.6855-39.9414 26.8555-38.623 26.5137-37.0605L18.0176-38.3301C14.6484-38.8184 13.3789-40.1855 13.3789-43.4082L13.3789-55.5176C13.3789-56.2988 12.8906-56.8359 12.1582-56.8359C11.3281-56.8359 10.8887-56.3965 10.8887-55.5176L10.8887-43.0176C10.8887-38.5742 12.8906-36.5723 17.8223-35.8887L26.2695-34.7168C26.3672-31.9824 27.7344-29.1992 30.127-28.0273L30.127-27.6367L15.8691-24.2188C11.0352-23.0469 9.22852-20.5566 9.91211-16.0645L13.1836 4.58984C13.3301 5.41992 13.623 5.85938 14.4043 5.85938ZM30.3711-43.6523C25.4883-43.6523 21.6309-47.4121 21.6309-52.0996C21.6309-61.4746 29.7363-69.6289 38.623-69.6289C47.5098-69.6289 55.5664-61.4746 55.5664-52.0996C55.5664-47.4121 51.709-43.6523 46.875-43.6523ZM28.7598-35.0586C28.7598-38.5254 30.957-41.1133 34.0332-41.1133L43.1641-41.1133C46.2402-41.1133 48.4863-38.5254 48.4863-35.0586C48.4863-30.6152 44.9707-27.3438 40.1367-27.3438L37.0605-27.3438C32.2754-27.3438 28.7598-30.6152 28.7598-35.0586ZM38.623 7.12891C29.9316 7.12891 21.3379-3.32031 21.3379-14.209C21.3379-20.8984 25.7324-25.1465 32.6172-25.1465L44.6289-25.1465C51.4648-25.1465 55.9082-20.8984 55.9082-14.209C55.9082-3.32031 47.3145 7.12891 38.623 7.12891Z"/>
  </g>
 </g>
</svg>
