<?xml version="1.0" encoding="UTF-8"?>
<!--Generator: Apple Native CoreSVG 149-->
<!DOCTYPE svg
PUBLIC "-//W3C//DTD SVG 1.1//EN"
       "http://www.w3.org/Graphics/SVG/1.1/DTD/svg11.dtd">
<svg version="1.1" xmlns="http://www.w3.org/2000/svg" xmlns:xlink="http://www.w3.org/1999/xlink" width="3300" height="2200">
 <!--glyph: "uni1006F8.medium", point size: 100.000000, font version: "Version 16.0d12e3", template writer version: "8"-->
 <g id="Notes">
  <rect height="2200" id="artboard" style="fill:white;opacity:1" width="3300" x="0" y="0"/>
  <line id="" style="fill:none;stroke:black;opacity:1;stroke-width:0.5;" x1="263" x2="3036" y1="292" y2="292"/>
  <text style="stroke:none;fill:black;font-family:-apple-system,&quot;SF Pro Display&quot;,&quot;SF Pro Text&quot;,Helvetica,sans-serif;font-weight:bold;" transform="matrix(1 0 0 1 263 322)">Weight/Scale Variations</text>
  <text style="stroke:none;fill:black;font-family:-apple-system,&quot;SF Pro Display&quot;,&quot;SF Pro Text&quot;,Helvetica,sans-serif;text-anchor:middle;" transform="matrix(1 0 0 1 559.711 322)">Ultralight</text>
  <text style="stroke:none;fill:black;font-family:-apple-system,&quot;SF Pro Display&quot;,&quot;SF Pro Text&quot;,Helvetica,sans-serif;text-anchor:middle;" transform="matrix(1 0 0 1 856.422 322)">Thin</text>
  <text style="stroke:none;fill:black;font-family:-apple-system,&quot;SF Pro Display&quot;,&quot;SF Pro Text&quot;,Helvetica,sans-serif;text-anchor:middle;" transform="matrix(1 0 0 1 1153.13 322)">Light</text>
  <text style="stroke:none;fill:black;font-family:-apple-system,&quot;SF Pro Display&quot;,&quot;SF Pro Text&quot;,Helvetica,sans-serif;text-anchor:middle;" transform="matrix(1 0 0 1 1449.84 322)">Regular</text>
  <text style="stroke:none;fill:black;font-family:-apple-system,&quot;SF Pro Display&quot;,&quot;SF Pro Text&quot;,Helvetica,sans-serif;text-anchor:middle;" transform="matrix(1 0 0 1 1746.56 322)">Medium</text>
  <text style="stroke:none;fill:black;font-family:-apple-system,&quot;SF Pro Display&quot;,&quot;SF Pro Text&quot;,Helvetica,sans-serif;text-anchor:middle;" transform="matrix(1 0 0 1 2043.27 322)">Semibold</text>
  <text style="stroke:none;fill:black;font-family:-apple-system,&quot;SF Pro Display&quot;,&quot;SF Pro Text&quot;,Helvetica,sans-serif;text-anchor:middle;" transform="matrix(1 0 0 1 2339.98 322)">Bold</text>
  <text style="stroke:none;fill:black;font-family:-apple-system,&quot;SF Pro Display&quot;,&quot;SF Pro Text&quot;,Helvetica,sans-serif;text-anchor:middle;" transform="matrix(1 0 0 1 2636.69 322)">Heavy</text>
  <text style="stroke:none;fill:black;font-family:-apple-system,&quot;SF Pro Display&quot;,&quot;SF Pro Text&quot;,Helvetica,sans-serif;text-anchor:middle;" transform="matrix(1 0 0 1 2933.4 322)">Black</text>
  <line id="" style="fill:none;stroke:black;opacity:1;stroke-width:0.5;" x1="263" x2="3036" y1="1903" y2="1903"/>
  <g id="" transform="matrix(1 0 0 1 263 1933)">
   <path d="M9.24805 0.830078C13.5547 0.830078 17.1387-2.74414 17.1387-7.05078C17.1387-11.3574 13.5449-14.9316 9.23828-14.9316C4.94141-14.9316 1.36719-11.3574 1.36719-7.05078C1.36719-2.74414 4.95117 0.830078 9.24805 0.830078ZM9.24805-0.654297C5.70312-0.654297 2.87109-3.49609 2.87109-7.05078C2.87109-10.6055 5.69336-13.4473 9.23828-13.4473C12.793-13.4473 15.6348-10.6055 15.6445-7.05078C15.6543-3.49609 12.8027-0.654297 9.24805-0.654297ZM9.22852-3.62305C9.69727-3.62305 9.9707-3.93555 9.9707-4.45312L9.9707-6.31836L12.002-6.31836C12.5-6.31836 12.832-6.57227 12.832-7.04102C12.832-7.51953 12.5195-7.7832 12.002-7.7832L9.9707-7.7832L9.9707-9.81445C9.9707-10.332 9.69727-10.6543 9.22852-10.6543C8.75977-10.6543 8.50586-10.3125 8.50586-9.81445L8.50586-7.7832L6.49414-7.7832C5.97656-7.7832 5.64453-7.51953 5.64453-7.04102C5.64453-6.57227 5.99609-6.31836 6.49414-6.31836L8.50586-6.31836L8.50586-4.45312C8.50586-3.95508 8.75977-3.62305 9.22852-3.62305Z"/>
  </g>
  <g id="" transform="matrix(1 0 0 1 281.506 1933)">
   <path d="M11.709 2.91016C17.1582 2.91016 21.6699-1.61133 21.6699-7.05078C21.6699-12.5 17.1484-17.0117 11.6992-17.0117C6.25977-17.0117 1.74805-12.5 1.74805-7.05078C1.74805-1.61133 6.26953 2.91016 11.709 2.91016ZM11.709 1.25C7.09961 1.25 3.41797-2.44141 3.41797-7.05078C3.41797-11.6602 7.08984-15.3516 11.6992-15.3516C16.3086-15.3516 20-11.6602 20.0098-7.05078C20.0195-2.44141 16.3184 1.25 11.709 1.25ZM11.6797-2.66602C12.207-2.66602 12.5098-3.01758 12.5098-3.59375L12.5098-6.23047L15.3223-6.23047C15.8691-6.23047 16.25-6.51367 16.25-7.03125C16.25-7.55859 15.8887-7.86133 15.3223-7.86133L12.5098-7.86133L12.5098-10.6836C12.5098-11.25 12.207-11.6113 11.6797-11.6113C11.1621-11.6113 10.8789-11.2305 10.8789-10.6836L10.8789-7.86133L8.07617-7.86133C7.50977-7.86133 7.13867-7.55859 7.13867-7.03125C7.13867-6.51367 7.5293-6.23047 8.07617-6.23047L10.8789-6.23047L10.8789-3.59375C10.8789-3.03711 11.1621-2.66602 11.6797-2.66602Z"/>
  </g>
  <g id="" transform="matrix(1 0 0 1 304.924 1933)">
   <path d="M14.9707 5.66406C21.9336 5.66406 27.6953-0.0976562 27.6953-7.05078C27.6953-14.0137 21.9238-19.7754 14.9609-19.7754C8.00781-19.7754 2.25586-14.0137 2.25586-7.05078C2.25586-0.0976562 8.01758 5.66406 14.9707 5.66406ZM14.9707 3.84766C8.93555 3.84766 4.08203-1.01562 4.08203-7.05078C4.08203-13.0957 8.92578-17.9492 14.9609-17.9492C21.0059-17.9492 25.8594-13.0957 25.8691-7.05078C25.8789-1.01562 21.0156 3.84766 14.9707 3.84766ZM14.9414-1.38672C15.5176-1.38672 15.8594-1.77734 15.8594-2.38281L15.8594-6.13281L19.7754-6.13281C20.3711-6.13281 20.7812-6.46484 20.7812-7.02148C20.7812-7.59766 20.3906-7.93945 19.7754-7.93945L15.8594-7.93945L15.8594-11.8652C15.8594-12.4805 15.5176-12.8711 14.9414-12.8711C14.375-12.8711 14.0527-12.4609 14.0527-11.8652L14.0527-7.93945L10.1465-7.93945C9.53125-7.93945 9.13086-7.59766 9.13086-7.02148C9.13086-6.46484 9.55078-6.13281 10.1465-6.13281L14.0527-6.13281L14.0527-2.38281C14.0527-1.79688 14.375-1.38672 14.9414-1.38672Z"/>
  </g>
  <text style="stroke:none;fill:black;font-family:-apple-system,&quot;SF Pro Display&quot;,&quot;SF Pro Text&quot;,Helvetica,sans-serif;font-weight:bold;" transform="matrix(1 0 0 1 263 1953)">Design Variations</text>
  <text style="stroke:none;fill:black;font-family:-apple-system,&quot;SF Pro Display&quot;,&quot;SF Pro Text&quot;,Helvetica,sans-serif;" transform="matrix(1 0 0 1 263 1971)">Symbols are supported in up to nine weights and three scales.</text>
  <text style="stroke:none;fill:black;font-family:-apple-system,&quot;SF Pro Display&quot;,&quot;SF Pro Text&quot;,Helvetica,sans-serif;" transform="matrix(1 0 0 1 263 1989)">For optimal layout with text and other symbols, vertically align</text>
  <text style="stroke:none;fill:black;font-family:-apple-system,&quot;SF Pro Display&quot;,&quot;SF Pro Text&quot;,Helvetica,sans-serif;" transform="matrix(1 0 0 1 263 2007)">symbols with the adjacent text.</text>
  <line id="" style="fill:none;stroke:#00AEEF;stroke-width:0.5;opacity:1.0;" x1="776" x2="776" y1="1919" y2="1933"/>
  <g id="" transform="matrix(1 0 0 1 776 1933)">
   <path d="M3.31055 0.126953C3.82812 0.126953 4.08203-0.0683594 4.26758-0.605469L5.52734-4.0625L11.2891-4.0625L12.5488-0.605469C12.7344-0.0683594 12.9883 0.126953 13.4961 0.126953C14.0137 0.126953 14.3457-0.185547 14.3457-0.673828C14.3457-0.839844 14.3164-0.986328 14.2383-1.20117L9.6582-13.3887C9.43359-13.9941 9.0332-14.2871 8.4082-14.2871C7.80273-14.2871 7.39258-13.9941 7.17773-13.3984L2.59766-1.19141C2.51953-0.976562 2.49023-0.830078 2.49023-0.664062C2.49023-0.175781 2.80273 0.126953 3.31055 0.126953ZM6.00586-5.53711L8.37891-12.1094L8.42773-12.1094L10.8008-5.53711Z"/>
  </g>
  <line id="" style="fill:none;stroke:#00AEEF;stroke-width:0.5;opacity:1.0;" x1="792.836" x2="792.836" y1="1919" y2="1933"/>
  <text style="stroke:none;fill:black;font-family:-apple-system,&quot;SF Pro Display&quot;,&quot;SF Pro Text&quot;,Helvetica,sans-serif;font-weight:bold;" transform="matrix(1 0 0 1 776 1953)">Margins</text>
  <text style="stroke:none;fill:black;font-family:-apple-system,&quot;SF Pro Display&quot;,&quot;SF Pro Text&quot;,Helvetica,sans-serif;" transform="matrix(1 0 0 1 776 1971)">Leading and trailing margins on the left and right side of each symbol</text>
  <text style="stroke:none;fill:black;font-family:-apple-system,&quot;SF Pro Display&quot;,&quot;SF Pro Text&quot;,Helvetica,sans-serif;" transform="matrix(1 0 0 1 776 1989)">can be adjusted by modifying the x-location of the margin guidelines.</text>
  <text style="stroke:none;fill:black;font-family:-apple-system,&quot;SF Pro Display&quot;,&quot;SF Pro Text&quot;,Helvetica,sans-serif;" transform="matrix(1 0 0 1 776 2007)">Modifications are automatically applied proportionally to all</text>
  <text style="stroke:none;fill:black;font-family:-apple-system,&quot;SF Pro Display&quot;,&quot;SF Pro Text&quot;,Helvetica,sans-serif;" transform="matrix(1 0 0 1 776 2025)">scales and weights.</text>
  <g id="" transform="matrix(1 0 0 1 1289 1933)">
   <path d="M2.8418 1.86523L4.54102 3.57422C5.40039 4.44336 6.38672 4.38477 7.31445 3.35938L17.4902-7.85156C17.7539-7.76367 18.0273-7.7832 18.3398-7.8418L19.4043-8.03711L20.0684-7.36328L20.0293-6.80664C19.9902-6.30859 20.1172-5.92773 20.6055-5.44922L21.3672-4.70703C21.8457-4.22852 22.4609-4.19922 22.9297-4.66797L25.8398-7.58789C26.3086-8.05664 26.2891-8.65234 25.8105-9.13086L25.0391-9.89258C24.5605-10.3711 24.1895-10.5273 23.7109-10.4883L23.1348-10.4395L22.4902-11.0742L22.7344-12.1973C22.8613-12.7637 22.7051-13.2031 22.1191-13.7891L19.9219-15.9766C16.582-19.2969 12.1484-19.2188 9.25781-16.3281C8.83789-15.918 8.80859-15.3418 9.04297-14.9512C9.27734-14.5898 9.73633-14.3555 10.3809-14.5215C11.8457-14.8633 13.3691-14.9219 14.7949-13.9844L14.209-12.5293C14.0137-12.0508 13.9844-11.6504 14.1113-11.2891L3.04688-0.898438C2.06055 0.0195312 1.98242 0.996094 2.8418 1.86523ZM10.752-15.957C13.1836-17.7344 16.4746-17.4316 18.7012-15.2051L21.1328-12.793C21.3672-12.5586 21.4062-12.373 21.3379-12.0312L21.0156-10.5469L22.5195-9.0625L23.5059-9.12109C23.7598-9.13086 23.8379-9.11133 24.0332-8.91602L24.6094-8.33984L22.168-5.89844L21.5918-6.47461C21.3965-6.66992 21.3672-6.74805 21.377-7.01172L21.4453-7.98828L19.9512-9.47266L18.4277-9.21875C18.1055-9.15039 17.959-9.17969 17.7148-9.41406L15.7129-11.416C15.459-11.6504 15.4297-11.8164 15.5859-12.1875L16.4648-14.2773C14.9023-15.7324 12.8711-16.3574 10.8398-15.7617C10.6836-15.7227 10.625-15.8496 10.752-15.957ZM5.27344 2.30469L4.10156 1.14258C3.63281 0.683594 3.74023 0.341797 4.14062-0.0195312L14.9512-10.1953L16.416-8.71094L6.42578 2.27539C6.07422 2.67578 5.74219 2.77344 5.27344 2.30469Z"/>
  </g>
  <text style="stroke:none;fill:black;font-family:-apple-system,&quot;SF Pro Display&quot;,&quot;SF Pro Text&quot;,Helvetica,sans-serif;font-weight:bold;" transform="matrix(1 0 0 1 1289 1953)">Exporting</text>
  <text style="stroke:none;fill:black;font-family:-apple-system,&quot;SF Pro Display&quot;,&quot;SF Pro Text&quot;,Helvetica,sans-serif;" transform="matrix(1 0 0 1 1289 1971)">Symbols should be outlined when exporting to ensure the</text>
  <text style="stroke:none;fill:black;font-family:-apple-system,&quot;SF Pro Display&quot;,&quot;SF Pro Text&quot;,Helvetica,sans-serif;" transform="matrix(1 0 0 1 1289 1989)">design is preserved when submitting to Xcode.</text>
  <text id="template-version" style="stroke:none;fill:black;font-family:-apple-system,&quot;SF Pro Display&quot;,&quot;SF Pro Text&quot;,Helvetica,sans-serif;text-anchor:end;" transform="matrix(1 0 0 1 3036 1933)">Template v.2.0</text>
  <text style="stroke:none;fill:black;font-family:-apple-system,&quot;SF Pro Display&quot;,&quot;SF Pro Text&quot;,Helvetica,sans-serif;text-anchor:end;" transform="matrix(1 0 0 1 3036 1951)">Requires Xcode 12 or greater</text>
  <text style="stroke:none;fill:black;font-family:-apple-system,&quot;SF Pro Display&quot;,&quot;SF Pro Text&quot;,Helvetica,sans-serif;text-anchor:end;" transform="matrix(1 0 0 1 3036 1969)">Generated from gamecontroller</text>
  <text style="stroke:none;fill:black;font-family:-apple-system,&quot;SF Pro Display&quot;,&quot;SF Pro Text&quot;,Helvetica,sans-serif;text-anchor:end;" transform="matrix(1 0 0 1 3036 1987)">Typeset at 100 points</text>
  <text style="stroke:none;fill:black;font-family:-apple-system,&quot;SF Pro Display&quot;,&quot;SF Pro Text&quot;,Helvetica,sans-serif;" transform="matrix(1 0 0 1 263 726)">Small</text>
  <text style="stroke:none;fill:black;font-family:-apple-system,&quot;SF Pro Display&quot;,&quot;SF Pro Text&quot;,Helvetica,sans-serif;" transform="matrix(1 0 0 1 263 1156)">Medium</text>
  <text style="stroke:none;fill:black;font-family:-apple-system,&quot;SF Pro Display&quot;,&quot;SF Pro Text&quot;,Helvetica,sans-serif;" transform="matrix(1 0 0 1 263 1586)">Large</text>
 </g>
 <g id="Guides">
  <g id="H-reference" style="fill:#27AAE1;stroke:none;" transform="matrix(1 0 0 1 339 696)">
   <path d="M0.976562 0L3.66211 0L12.9883-24.4629L45.752-24.4629L55.127 0L57.7637 0L30.6152-70.459L28.125-70.459ZM29.3457-67.1387L29.4434-67.1387L44.873-26.709L13.8672-26.709Z"/>
  </g>
  <line id="Baseline-S" style="fill:none;stroke:#27AAE1;opacity:1;stroke-width:0.5;" x1="263" x2="3036" y1="696" y2="696"/>
  <line id="Capline-S" style="fill:none;stroke:#27AAE1;opacity:1;stroke-width:0.5;" x1="263" x2="3036" y1="625.541" y2="625.541"/>
  <g id="H-reference" style="fill:#27AAE1;stroke:none;" transform="matrix(1 0 0 1 339 1126)">
   <path d="M0.976562 0L3.66211 0L12.9883-24.4629L45.752-24.4629L55.127 0L57.7637 0L30.6152-70.459L28.125-70.459ZM29.3457-67.1387L29.4434-67.1387L44.873-26.709L13.8672-26.709Z"/>
  </g>
  <line id="Baseline-M" style="fill:none;stroke:#27AAE1;opacity:1;stroke-width:0.5;" x1="263" x2="3036" y1="1126" y2="1126"/>
  <line id="Capline-M" style="fill:none;stroke:#27AAE1;opacity:1;stroke-width:0.5;" x1="263" x2="3036" y1="1055.54" y2="1055.54"/>
  <g id="H-reference" style="fill:#27AAE1;stroke:none;" transform="matrix(1 0 0 1 339 1556)">
   <path d="M0.976562 0L3.66211 0L12.9883-24.4629L45.752-24.4629L55.127 0L57.7637 0L30.6152-70.459L28.125-70.459ZM29.3457-67.1387L29.4434-67.1387L44.873-26.709L13.8672-26.709Z"/>
  </g>
  <line id="Baseline-L" style="fill:none;stroke:#27AAE1;opacity:1;stroke-width:0.5;" x1="263" x2="3036" y1="1556" y2="1556"/>
  <line id="Capline-L" style="fill:none;stroke:#27AAE1;opacity:1;stroke-width:0.5;" x1="263" x2="3036" y1="1485.54" y2="1485.54"/>
  <line id="left-margin" style="fill:none;stroke:#00AEEF;stroke-width:0.5;opacity:1.0;" x1="1366.91" x2="1366.91" y1="1030.79" y2="1150.12"/>
  <line id="right-margin" style="fill:none;stroke:#00AEEF;stroke-width:0.5;opacity:1.0;" x1="1532.78" x2="1532.78" y1="1030.79" y2="1150.12"/>
 </g>
 <g id="Symbols">
  <g id="Black-L" transform="matrix(1 0 0 1 2820.66 1556)">
   <path d="M16.0645-0.683594C16.0645 16.6504 27.6367 26.4648 42.9199 26.4648C54.248 26.4648 62.5977 21.8262 69.2871 15.1367L79.7852 4.58984C81.2988 3.125 82.1777 2.44141 84.2773 2.44141L141.211 2.44141C143.311 2.44141 144.189 3.125 145.752 4.58984L156.201 15.1367C162.988 21.7773 171.24 26.4648 182.568 26.4648C197.9 26.4648 209.424 16.6504 209.424-0.683594C209.424-8.30078 208.057-16.6504 205.42-25.4883C201.416-38.7207 194.629-56.543 188.281-69.9219C182.666-81.6406 178.955-88.7207 163.477-92.2363C150.537-95.166 133.301-96.9238 112.744-96.9238C92.1875-96.9238 75-95.166 62.0117-92.2363C46.582-88.7207 42.8711-81.6406 37.2559-69.9219C30.9082-56.543 24.0723-38.7207 20.1172-25.4883C17.4316-16.6504 16.0645-8.30078 16.0645-0.683594ZM34.8633-2.24609C34.8633-5.66406 35.6445-9.66797 37.3047-15.4785C41.748-30.6641 48.9746-49.4629 55.2246-62.9395C58.1055-69.1895 59.7168-71.7773 64.8926-73.0469C76.9043-75.9277 93.0176-77.4902 112.744-77.4902C132.471-77.4902 148.633-75.9277 160.645-73.0469C165.771-71.7773 167.383-69.1895 170.264-62.9395C176.514-49.4629 183.691-30.6152 188.184-15.4785C189.893-9.66797 190.674-5.66406 190.674-2.24609C190.674 3.85742 186.377 7.27539 180.908 7.27539C177.295 7.27539 173.389 5.51758 170.02 2.19727L155.078-12.4023C151.807-15.6738 149.316-16.9922 144.775-16.9922L80.7129-16.9922C76.2207-16.9922 73.6816-15.6738 70.459-12.4023L55.4688 2.19727C52.1973 5.56641 48.2422 7.27539 44.5801 7.27539C39.1602 7.27539 34.8633 3.85742 34.8633-2.24609ZM59.9121-46.3379C59.9121-41.8945 62.8418-39.0137 67.4316-39.0137L75.4395-39.0137L75.4395-31.5918C75.4395-26.9043 78.418-23.8281 83.0078-23.8281C87.5977-23.8281 90.5762-26.9043 90.5762-31.5918L90.5762-39.0137L97.998-39.0137C102.93-39.0137 106.055-41.8945 106.055-46.3379C106.055-50.7812 102.93-53.6133 97.998-53.6133L90.5762-53.6133L90.5762-61.0352C90.5762-65.7227 87.5977-68.7988 83.0078-68.7988C78.418-68.7988 75.4395-65.7227 75.4395-61.0352L75.4395-53.6133L67.4316-53.6133C62.8418-53.6133 59.9121-50.7812 59.9121-46.3379ZM152.734-46.1914C158.496-46.1914 162.988-50.5859 162.988-56.3477C162.988-62.1582 158.496-66.6504 152.734-66.6504C147.021-66.6504 142.48-62.1582 142.48-56.3477C142.48-50.5859 147.021-46.1914 152.734-46.1914ZM133.545-26.4648C139.355-26.4648 143.799-30.9082 143.799-36.6211C143.799-42.4316 139.355-46.9238 133.545-46.9238C127.832-46.9238 123.291-42.4316 123.291-36.6211C123.291-30.9082 127.832-26.4648 133.545-26.4648Z"/>
  </g>
  <g id="Heavy-L" transform="matrix(1 0 0 1 2525.46 1556)">
   <path d="M16.0645-1.12305C16.0645 15.5273 27.0996 25.2441 42.0898 25.2441C52.3926 25.2441 60.4492 20.9473 66.7969 14.3555L77.5391 2.97852C79.1016 1.36719 80.1758 0.585938 82.2754 0.585938L140.186 0.585938C142.285 0.585938 143.359 1.36719 144.971 2.97852L155.664 14.3555C162.061 20.8984 170.068 25.2441 180.371 25.2441C195.361 25.2441 206.396 15.5273 206.396-1.12305C206.396-8.34961 204.98-16.4062 202.393-25.0977C198.438-38.2812 191.65-56.0059 185.254-69.4824C179.736-81.0547 176.27-87.6465 161.377-91.0156C148.633-93.8965 131.592-95.6543 111.23-95.6543C90.8691-95.6543 73.8281-93.8965 61.084-91.0156C46.1914-87.6465 42.7246-81.0547 37.207-69.4824C30.8105-56.0059 24.0234-38.2812 20.0684-25.0977C17.4805-16.4062 16.0645-8.34961 16.0645-1.12305ZM32.373-2.19727C32.373-5.76172 33.1543-9.96094 35.0098-16.2109C39.3066-31.0547 46.582-49.8535 52.832-63.4766C55.8105-69.873 57.4707-72.9004 63.4277-74.3164C75.3418-77.1484 91.5039-78.7598 111.23-78.7598C130.957-78.7598 147.119-77.1484 159.033-74.3164C165.039-72.8516 166.65-69.873 169.629-63.4766C175.928-49.8535 183.057-31.0547 187.5-16.2109C189.307-9.96094 190.088-5.76172 190.088-2.19727C190.088 4.63867 185.352 8.59375 179.15 8.59375C175.195 8.59375 171.094 6.64062 167.627 3.02734L153.369-11.5234C150.195-14.8926 147.705-16.2598 142.969-16.2598L79.4922-16.2598C74.8047-16.2598 72.2656-14.8926 69.0918-11.5234L54.834 3.02734C51.416 6.68945 47.2656 8.59375 43.3105 8.59375C37.1094 8.59375 32.373 4.63867 32.373-2.19727ZM58.8867-46.7285C58.8867-42.627 61.5234-40.0391 65.7227-40.0391L74.7559-40.0391L74.7559-31.4453C74.7559-27.2461 77.4414-24.4629 81.5918-24.4629C85.6934-24.4629 88.3301-27.2461 88.3301-31.4453L88.3301-40.0391L96.875-40.0391C101.318-40.0391 104.102-42.627 104.102-46.7285C104.102-50.7324 101.318-53.3203 96.875-53.3203L88.3301-53.3203L88.3301-61.9141C88.3301-66.1133 85.6934-68.8965 81.5918-68.8965C77.4414-68.8965 74.7559-66.1133 74.7559-61.9141L74.7559-53.3203L65.7227-53.3203C61.5234-53.3203 58.8867-50.7324 58.8867-46.7285ZM150.977-46.8262C156.592-46.8262 160.889-51.0742 160.889-56.6895C160.889-62.2559 156.592-66.6016 150.977-66.6016C145.459-66.6016 141.113-62.2559 141.113-56.6895C141.113-51.0742 145.459-46.8262 150.977-46.8262ZM131.836-27.3438C137.451-27.3438 141.748-31.6406 141.748-37.1582C141.748-42.7734 137.451-47.0703 131.836-47.0703C126.318-47.0703 121.973-42.7734 121.973-37.1582C121.973-31.6406 126.318-27.3438 131.836-27.3438Z"/>
  </g>
  <g id="Bold-L" transform="matrix(1 0 0 1 2230.43 1556)">
   <path d="M16.0645-1.5625C16.0645 14.2578 26.5137 23.8281 41.1133 23.8281C50.3418 23.8281 58.0078 19.9707 63.9648 13.4277L75 1.12305C76.6113-0.634766 77.9785-1.41602 80.0293-1.41602L139.014-1.41602C141.064-1.41602 142.48-0.634766 144.043 1.12305L155.078 13.4277C161.084 19.9219 168.75 23.8281 177.93 23.8281C192.578 23.8281 203.027 14.2578 203.027-1.5625C203.027-8.44727 201.562-16.1621 199.023-24.707C195.117-37.793 188.33-55.4199 181.934-68.9941C176.465-80.4199 173.242-86.4258 159.033-89.6484C146.582-92.4805 129.688-94.2383 109.521-94.2383C89.3555-94.2383 72.5098-92.4805 60.0098-89.6484C45.8008-86.4258 42.627-80.4199 37.1582-68.9941C30.7129-55.4199 23.9746-37.793 20.0195-24.707C17.4805-16.1621 16.0645-8.44727 16.0645-1.5625ZM29.5898-2.14844C29.5898-5.85938 30.4199-10.3027 32.373-17.041C36.6211-31.543 43.8477-50.2441 50.1953-64.0625C53.1738-70.6055 54.9316-74.0723 61.8164-75.7324C73.6328-78.5156 89.8438-80.2246 109.521-80.2246C129.199-80.2246 145.459-78.5156 157.275-75.7324C164.16-74.0723 165.869-70.6055 168.896-64.0625C175.293-50.2441 182.373-31.4941 186.67-17.041C188.721-10.3027 189.502-5.85938 189.502-2.14844C189.502 5.46875 184.18 10.0586 177.148 10.0586C172.852 10.0586 168.506 7.86133 164.893 3.90625L151.514-10.5469C148.389-13.9648 145.898-15.4785 140.967-15.4785L78.125-15.4785C73.1934-15.4785 70.6543-13.9648 67.5781-10.5469L54.1504 3.90625C50.5859 7.91016 46.1914 10.0586 41.8945 10.0586C34.8633 10.0586 29.5898 5.46875 29.5898-2.14844ZM57.7637-47.1191C57.7637-43.5059 60.0586-41.2109 63.7695-41.2109L74.0234-41.2109L74.0234-31.2988C74.0234-27.5879 76.3184-25.1465 79.9316-25.1465C83.5449-25.1465 85.8398-27.5879 85.8398-31.2988L85.8398-41.2109L95.5566-41.2109C99.5117-41.2109 101.953-43.5059 101.953-47.1191C101.953-50.6348 99.5117-52.9297 95.5566-52.9297L85.8398-52.9297L85.8398-62.8418C85.8398-66.5527 83.5449-68.9453 79.9316-68.9453C76.3184-68.9453 74.0234-66.5527 74.0234-62.8418L74.0234-52.9297L63.7695-52.9297C60.0586-52.9297 57.7637-50.6348 57.7637-47.1191ZM149.023-47.6074C154.395-47.6074 158.545-51.6602 158.545-57.0312C158.545-62.4023 154.395-66.5527 149.023-66.5527C143.75-66.5527 139.551-62.4023 139.551-57.0312C139.551-51.6602 143.75-47.6074 149.023-47.6074ZM129.98-28.3203C135.352-28.3203 139.453-32.4219 139.453-37.793C139.453-43.1641 135.352-47.2656 129.98-47.2656C124.707-47.2656 120.508-43.1641 120.508-37.793C120.508-32.4219 124.707-28.3203 129.98-28.3203Z"/>
  </g>
  <g id="Semibold-L" transform="matrix(1 0 0 1 1934.89 1556)">
   <path d="M16.0645-1.9043C16.0645 13.3789 26.0742 22.9004 40.4785 22.9004C48.9258 22.9004 56.3477 19.2871 62.0605 12.8418L73.291-0.0976562C74.9023-2.00195 76.4648-2.83203 78.5156-2.83203L138.232-2.83203C140.283-2.83203 141.846-2.00195 143.457-0.0976562L154.688 12.8418C160.4 19.2871 167.822 22.9004 176.27 22.9004C190.625 22.9004 200.684 13.3789 200.684-1.9043C200.684-8.49609 199.219-16.0156 196.729-24.4141C192.822-37.4512 186.084-55.0293 179.59-68.6523C174.219-79.9805 171.191-85.5469 157.422-88.6719C145.117-91.5039 128.369-93.2617 108.35-93.2617C88.3301-93.2617 71.6309-91.5039 59.2773-88.6719C45.5566-85.5469 42.5293-79.9805 37.1094-68.6523C30.6641-55.0293 23.9258-37.4512 20.0195-24.4141C17.5293-16.0156 16.0645-8.49609 16.0645-1.9043ZM27.6855-2.09961C27.6855-5.9082 28.5156-10.5469 30.5664-17.627C34.7168-31.8848 41.9434-50.5371 48.3398-64.4531C51.3672-71.0938 53.1738-74.9512 60.6934-76.6602C72.4121-79.4434 88.7207-81.2012 108.35-81.2012C128.027-81.2012 144.336-79.4434 156.006-76.6602C163.525-74.9023 165.283-71.0938 168.408-64.4531C174.854-50.5371 181.885-31.8359 186.133-17.627C188.281-10.5469 189.062-5.9082 189.062-2.09961C189.062 6.05469 183.398 11.084 175.781 11.084C171.24 11.084 166.699 8.74023 163.037 4.54102L150.195-9.86328C147.168-13.3301 144.629-14.8926 139.6-14.8926L77.1484-14.8926C72.1191-14.8926 69.5801-13.3301 66.5527-9.86328L53.7109 4.54102C50.0488 8.74023 45.5078 11.084 40.9668 11.084C33.3496 11.084 27.6855 6.05469 27.6855-2.09961ZM56.9824-47.4121C56.9824-44.0918 59.082-41.9922 62.4512-41.9922L73.4863-41.9922L73.4863-31.1523C73.4863-27.7832 75.5371-25.6348 78.8086-25.6348C82.0801-25.6348 84.1309-27.7832 84.1309-31.1523L84.1309-41.9922L94.6289-41.9922C98.2422-41.9922 100.439-44.0918 100.439-47.4121C100.439-50.6348 98.2422-52.6855 94.6289-52.6855L84.1309-52.6855L84.1309-63.5254C84.1309-66.8457 82.0801-68.9941 78.8086-68.9941C75.5371-68.9941 73.4863-66.8457 73.4863-63.5254L73.4863-52.6855L62.4512-52.6855C59.082-52.6855 56.9824-50.6348 56.9824-47.4121ZM147.705-48.0957C152.93-48.0957 156.885-52.0996 156.885-57.2754C156.885-62.5 152.93-66.5039 147.705-66.5039C142.578-66.5039 138.525-62.5 138.525-57.2754C138.525-52.0996 142.578-48.0957 147.705-48.0957ZM128.662-29.0039C133.887-29.0039 137.891-33.0078 137.891-38.1836C137.891-43.4082 133.887-47.4121 128.662-47.4121C123.535-47.4121 119.482-43.4082 119.482-38.1836C119.482-33.0078 123.535-29.0039 128.662-29.0039Z"/>
  </g>
  <g id="Medium-L" transform="matrix(1 0 0 1 1639.08 1556)">
   <path d="M16.0645-2.14844C16.0645 12.7441 25.7812 22.168 39.9902 22.168C47.8516 22.168 55.0781 18.75 60.5957 12.3535L71.9727-1.07422C73.6328-3.02734 75.293-3.90625 77.2949-3.90625L137.646-3.90625C139.648-3.90625 141.357-3.02734 143.018-1.07422L154.395 12.3535C159.863 18.75 167.139 22.168 174.951 22.168C189.16 22.168 198.877 12.7441 198.877-2.14844C198.877-8.54492 197.412-15.8691 194.971-24.2188C191.064-37.1582 184.326-54.7363 177.832-68.4082C172.51-79.6387 169.629-84.9121 156.201-87.9395C143.994-90.7227 127.393-92.5293 107.471-92.5293C87.5488-92.5293 70.9473-90.7227 58.7402-87.9395C45.3125-84.9121 42.4805-79.6387 37.1094-68.4082C30.6152-54.7363 23.877-37.1582 20.0195-24.2188C17.5293-15.8691 16.0645-8.54492 16.0645-2.14844ZM26.2207-2.09961C26.2207-6.00586 27.0508-10.6934 29.1992-18.0664C33.3008-32.1289 40.5273-50.7324 46.9727-64.7949C50.0488-71.4844 51.8555-75.5371 59.8633-77.3926C71.5332-80.1758 87.8418-81.9336 107.471-81.9336C127.1-81.9336 143.457-80.1758 155.078-77.3926C163.086-75.5371 164.893-71.4844 168.018-64.7949C174.512-50.7324 181.494-32.0801 185.742-18.0664C187.939-10.6934 188.721-6.00586 188.721-2.09961C188.721 6.49414 182.812 11.8652 174.756 11.8652C170.02 11.8652 165.381 9.375 161.621 5.0293L149.219-9.375C146.24-12.8418 143.701-14.502 138.525-14.502L76.416-14.502C71.2402-14.502 68.75-12.8418 65.7227-9.375L53.3203 5.0293C49.6094 9.375 44.9219 11.8652 40.1855 11.8652C32.1777 11.8652 26.2207 6.49414 26.2207-2.09961ZM56.3965-47.6074C56.3965-44.5312 58.3008-42.627 61.4258-42.627L73.0957-42.627L73.0957-31.0547C73.0957-27.9785 74.9512-26.0254 77.9785-26.0254C80.957-26.0254 82.8125-27.9785 82.8125-31.0547L82.8125-42.627L93.9453-42.627C97.3145-42.627 99.3164-44.5312 99.3164-47.6074C99.3164-50.5859 97.3145-52.4902 93.9453-52.4902L82.8125-52.4902L82.8125-64.0137C82.8125-67.0898 80.957-69.043 77.9785-69.043C74.9512-69.043 73.0957-67.0898 73.0957-64.0137L73.0957-52.4902L61.4258-52.4902C58.3008-52.4902 56.3965-50.5859 56.3965-47.6074ZM146.68-48.4863C151.758-48.4863 155.664-52.3926 155.664-57.4707C155.664-62.5488 151.758-66.5039 146.68-66.5039C141.65-66.5039 137.695-62.5488 137.695-57.4707C137.695-52.3926 141.65-48.4863 146.68-48.4863ZM127.686-29.541C132.764-29.541 136.719-33.4473 136.719-38.4766C136.719-43.6035 132.764-47.5098 127.686-47.5098C122.656-47.5098 118.701-43.6035 118.701-38.4766C118.701-33.4473 122.656-29.541 127.686-29.541Z"/>
  </g>
  <g id="Regular-L" transform="matrix(1 0 0 1 1343.52 1556)">
   <path d="M16.0645-2.44141C16.0645 11.8652 25.3906 21.1914 39.3555 21.1914C46.4355 21.1914 53.4668 18.1152 58.6426 11.7188L70.2637-2.34375C71.9238-4.3457 73.7793-5.27344 75.7812-5.27344L136.865-5.27344C138.867-5.27344 140.723-4.3457 142.383-2.34375L153.955 11.7188C159.18 18.1152 166.211 21.1914 173.291 21.1914C187.256 21.1914 196.582 11.8652 196.582-2.44141C196.582-8.59375 195.117-15.7227 192.676-23.9258C188.818-36.8164 182.08-54.3457 175.586-68.0664C170.264-79.1992 167.578-84.082 154.639-87.0117C142.578-89.7949 126.074-91.5527 106.299-91.5527C86.5723-91.5527 70.0684-89.7949 58.0078-87.0117C45.0684-84.082 42.3828-79.1992 37.0605-68.0664C30.5664-54.3457 23.8281-36.8164 19.9707-23.9258C17.5293-15.7227 16.0645-8.59375 16.0645-2.44141ZM24.3164-2.05078C24.3164-6.05469 25.1953-10.9375 27.4414-18.6035C31.4453-32.4707 38.6719-51.0254 45.1172-65.1855C48.2422-71.9727 50.1465-76.3672 58.7402-78.3691C70.3125-81.1035 86.7188-82.9102 106.299-82.9102C125.928-82.9102 142.334-81.1035 153.857-78.3691C162.5-76.3672 164.355-71.9727 167.529-65.1855C174.072-51.0254 181.055-32.4219 185.205-18.6035C187.5-10.9375 188.33-6.05469 188.33-2.05078C188.33 7.03125 182.031 12.8418 173.389 12.8418C168.457 12.8418 163.623 10.2539 159.766 5.61523L147.949-8.69141C145.02-12.2559 142.48-13.9648 137.158-13.9648L75.4883-13.9648C70.166-13.9648 67.627-12.2559 64.6973-8.69141L52.8809 5.61523C49.0234 10.2539 44.1895 12.8418 39.2578 12.8418C30.6152 12.8418 24.3164 7.03125 24.3164-2.05078ZM55.6641-47.9004C55.6641-45.1172 57.3242-43.4082 60.1074-43.4082L72.5586-43.4082L72.5586-30.957C72.5586-28.2227 74.1699-26.5137 76.8555-26.5137C79.4922-26.5137 81.1035-28.2227 81.1035-30.957L81.1035-43.4082L93.0664-43.4082C96.0449-43.4082 97.8027-45.1172 97.8027-47.9004C97.8027-50.5371 96.0449-52.2461 93.0664-52.2461L81.1035-52.2461L81.1035-64.6484C81.1035-67.3828 79.4922-69.0918 76.8555-69.0918C74.1699-69.0918 72.5586-67.3828 72.5586-64.6484L72.5586-52.2461L60.1074-52.2461C57.3242-52.2461 55.6641-50.5371 55.6641-47.9004ZM145.361-49.0234C150.293-49.0234 154.102-52.7832 154.102-57.7148C154.102-62.6465 150.293-66.4551 145.361-66.4551C140.479-66.4551 136.67-62.6465 136.67-57.7148C136.67-52.7832 140.479-49.0234 145.361-49.0234ZM126.416-30.2246C131.348-30.2246 135.156-33.9844 135.156-38.916C135.156-43.8477 131.348-47.6562 126.416-47.6562C121.533-47.6562 117.725-43.8477 117.725-38.916C117.725-33.9844 121.533-30.2246 126.416-30.2246Z"/>
  </g>
  <g id="Light-L" transform="matrix(1 0 0 1 1047.76 1556)">
   <path d="M16.0645-2.44141C16.0645 11.2793 25 20.2637 38.3789 20.2637C45.1172 20.2637 51.8555 17.2852 56.9336 11.084L68.75-3.22266C70.5078-5.37109 72.3633-6.29883 74.4629-6.29883L136.279-6.29883C138.379-6.29883 140.234-5.37109 141.992-3.22266L153.809 11.084C158.887 17.2852 165.625 20.2637 172.412 20.2637C185.742 20.2637 194.678 11.2793 194.678-2.44141C194.678-8.39844 193.213-15.332 190.723-23.6328C186.865-36.5234 180.176-54.0039 173.584-67.9199C168.408-78.7598 165.869-83.2031 153.418-86.0352C141.162-88.8672 124.609-90.5273 105.371-90.5273C86.1328-90.5273 69.5801-88.8672 57.3242-86.0352C44.873-83.2031 42.334-78.7598 37.207-67.9199C30.5664-54.0039 23.877-36.5234 20.0195-23.6328C17.5781-15.332 16.0645-8.39844 16.0645-2.44141ZM22.4121-2.05078C22.4121-6.10352 23.2422-11.0352 25.8301-19.8242C29.5898-32.8613 36.6699-51.123 43.2617-65.625C46.4355-72.4609 48.5352-77.2949 57.8125-79.4434C69.5801-82.1777 86.1328-83.9355 105.371-83.9355C124.609-83.9355 141.211-82.1777 152.979-79.4434C162.207-77.2461 164.307-72.4609 167.48-65.625C174.17-51.123 181.055-32.8125 184.912-19.8242C187.549-11.0352 188.33-6.10352 188.33-2.05078C188.33 7.56836 181.738 13.8184 172.461 13.8184C167.285 13.8184 162.207 11.1328 158.154 6.25L146.289-8.05664C143.506-11.4258 140.967-12.9395 136.377-12.9395L74.3652-12.9395C69.7754-12.9395 67.2852-11.4258 64.4531-8.05664L52.5879 6.25C48.5352 11.1328 43.5059 13.8184 38.3301 13.8184C29.0039 13.8184 22.4121 7.56836 22.4121-2.05078ZM55.127-47.9004C55.127-45.8496 56.4453-44.5312 58.5449-44.5312L72.6074-44.5312L72.6074-30.1758C72.6074-28.0762 73.877-26.7578 75.8789-26.7578C77.8809-26.7578 79.1504-28.0762 79.1504-30.1758L79.1504-44.5312L92.9199-44.5312C95.1172-44.5312 96.4844-45.8496 96.4844-47.9004C96.4844-49.9023 95.1172-51.2695 92.9199-51.2695L79.1504-51.2695L79.1504-65.5762C79.1504-67.627 77.8809-68.9941 75.8789-68.9941C73.877-68.9941 72.6074-67.627 72.6074-65.5762L72.6074-51.2695L58.5449-51.2695C56.4453-51.2695 55.127-49.9023 55.127-47.9004ZM144.238-49.5117C148.926-49.5117 152.49-53.0762 152.49-57.7148C152.49-62.4023 148.926-65.9668 144.238-65.9668C139.648-65.9668 135.986-62.4023 135.986-57.7148C135.986-53.0762 139.648-49.5117 144.238-49.5117ZM124.756-30.5176C129.395-30.5176 133.008-34.082 133.008-38.7207C133.008-43.4082 129.395-47.0215 124.756-47.0215C120.166-47.0215 116.504-43.4082 116.504-38.7207C116.504-34.082 120.166-30.5176 124.756-30.5176Z"/>
  </g>
  <g id="Thin-L" transform="matrix(1 0 0 1 752.296 1556)">
   <path d="M16.0645-2.44141C16.0645 10.4492 24.4629 19.043 37.0605 19.043C43.4082 19.043 49.7559 16.1621 54.6387 10.2539L66.748-4.44336C68.6523-6.73828 70.459-7.66602 72.7539-7.66602L135.547-7.66602C137.793-7.66602 139.6-6.73828 141.504-4.44336L153.613 10.2539C158.496 16.1621 164.893 19.043 171.191 19.043C183.789 19.043 192.188 10.4492 192.188-2.44141C192.188-8.1543 190.674-14.8926 188.184-23.2422C184.326-36.1816 177.637-53.5645 170.947-67.7246C165.967-78.125 163.574-82.0801 151.855-84.7656C139.307-87.6465 122.656-89.209 104.15-89.209C85.5957-89.209 68.9941-87.6465 56.4453-84.7656C44.6777-82.0801 42.2852-78.125 37.3535-67.7246C30.6152-53.5645 23.9258-36.1816 20.0684-23.2422C17.5781-14.8926 16.0645-8.1543 16.0645-2.44141ZM19.9219-2.05078C19.9219-6.15234 20.7031-11.1816 23.6816-21.4844C27.1484-33.3496 34.0332-51.2207 40.8203-66.1621C44.043-73.1445 46.4355-78.5156 56.543-80.8105C68.5059-83.6426 85.4004-85.2539 104.15-85.2539C122.852-85.2539 139.746-83.6426 151.758-80.8105C161.816-78.4668 164.209-73.1445 167.432-66.1621C174.316-51.2207 181.104-33.3496 184.57-21.4844C187.598-11.1816 188.33-6.15234 188.33-2.05078C188.33 8.30078 181.396 15.1367 171.191 15.1367C165.723 15.1367 160.352 12.3535 156.006 7.12891L144.092-7.17773C141.504-10.3027 138.965-11.5723 135.352-11.5723L72.9004-11.5723C69.2871-11.5723 66.7969-10.3027 64.1602-7.17773L52.2461 7.12891C47.9004 12.3535 42.5293 15.1367 37.0605 15.1367C26.8555 15.1367 19.9219 8.30078 19.9219-2.05078ZM54.4434-47.9492C54.4434-46.8262 55.2734-45.9961 56.4941-45.9961L72.6562-45.9961L72.6562-29.1016C72.6562-27.9297 73.4863-27.0508 74.6094-27.0508C75.7324-27.0508 76.5625-27.9297 76.5625-29.1016L76.5625-45.9961L92.6758-45.9961C93.8965-45.9961 94.7754-46.8262 94.7754-47.9492C94.7754-49.0723 93.8965-49.9512 92.6758-49.9512L76.5625-49.9512L76.5625-66.7969C76.5625-67.9688 75.7324-68.8477 74.6094-68.8477C73.4863-68.8477 72.6562-67.9688 72.6562-66.7969L72.6562-49.9512L56.4941-49.9512C55.2734-49.9512 54.4434-49.0723 54.4434-47.9492ZM142.773-50.1465C147.07-50.1465 150.439-53.418 150.439-57.7148C150.439-62.0605 147.07-65.332 142.773-65.332C138.525-65.332 135.156-62.0605 135.156-57.7148C135.156-53.418 138.525-50.1465 142.773-50.1465ZM122.559-30.9082C126.855-30.9082 130.225-34.1797 130.225-38.4766C130.225-42.8223 126.855-46.1426 122.559-46.1426C118.311-46.1426 114.941-42.8223 114.941-38.4766C114.941-34.1797 118.311-30.9082 122.559-30.9082Z"/>
  </g>
  <g id="Ultralight-L" transform="matrix(1 0 0 1 456.22 1556)">
   <path d="M16.0645-2.44141C16.0645 10.0586 24.2188 18.4082 36.4258 18.4082C42.4805 18.4082 48.6816 15.625 53.4668 9.81445L65.7715-5.07812C67.7246-7.4707 69.4824-8.34961 71.8262-8.34961L135.156-8.34961C137.5-8.34961 139.258-7.4707 141.211-5.07812L153.516 9.81445C158.301 15.625 164.502 18.4082 170.557 18.4082C182.764 18.4082 190.918 10.0586 190.918-2.44141C190.918-8.00781 189.404-14.6484 186.914-23.0469C183.008-35.9863 176.367-53.3203 169.58-67.627C164.697-77.832 162.451-81.4453 151.025-84.082C138.33-87.0117 121.631-88.4766 103.516-88.4766C85.3516-88.4766 68.6523-87.0117 55.957-84.082C44.5801-81.4453 42.2852-77.832 37.4023-67.627C30.6152-53.3203 23.9746-35.9863 20.1172-23.0469C17.5781-14.6484 16.0645-8.00781 16.0645-2.44141ZM18.6523-2.05078C18.6523-6.15234 19.3848-11.2793 22.6074-22.3145C25.9277-33.6426 32.7148-51.3184 39.5996-66.4551C42.8223-73.4863 45.3613-79.1504 55.8594-81.543C68.0176-84.375 85.0586-85.9375 103.516-85.9375C121.924-85.9375 138.965-84.375 151.123-81.543C161.621-79.0527 164.16-73.4863 167.383-66.4551C174.365-51.3184 181.104-33.6426 184.375-22.3145C187.598-11.2793 188.33-6.15234 188.33-2.05078C188.33 8.64258 181.25 15.7715 170.557 15.7715C164.941 15.7715 159.375 12.9395 154.883 7.56836L142.969-6.73828C140.479-9.76562 137.988-10.8887 134.814-10.8887L72.168-10.8887C68.9941-10.8887 66.5039-9.76562 64.0137-6.73828L52.0996 7.56836C47.6074 12.9395 42.041 15.7715 36.4258 15.7715C25.7324 15.7715 18.6523 8.64258 18.6523-2.05078ZM54.1016-47.998C54.1016-47.3145 54.6875-46.7285 55.4688-46.7285L72.7051-46.7285L72.7051-28.5645C72.7051-27.832 73.291-27.2461 73.9746-27.2461C74.6582-27.2461 75.2441-27.832 75.2441-28.5645L75.2441-46.7285L92.5781-46.7285C93.3105-46.7285 93.8965-47.3145 93.8965-47.998C93.8965-48.6328 93.3105-49.2676 92.5781-49.2676L75.2441-49.2676L75.2441-67.4316C75.2441-68.1641 74.6582-68.75 73.9746-68.75C73.291-68.75 72.7051-68.1641 72.7051-67.4316L72.7051-49.2676L55.4688-49.2676C54.6875-49.2676 54.1016-48.6328 54.1016-47.998ZM142.041-50.4883C146.143-50.4883 149.365-53.6133 149.365-57.7148C149.365-61.8652 146.143-65.0391 142.041-65.0391C137.939-65.0391 134.717-61.8652 134.717-57.7148C134.717-53.6133 137.939-50.4883 142.041-50.4883ZM121.436-31.1035C125.537-31.1035 128.76-34.2773 128.76-38.3301C128.76-42.5293 125.537-45.6543 121.436-45.6543C117.334-45.6543 114.111-42.5293 114.111-38.3301C114.111-34.2773 117.334-31.1035 121.436-31.1035Z"/>
  </g>
  <g id="Black-M" transform="matrix(1 0 0 1 2844.48 1126)">
   <path d="M12.4512-7.91016C12.4512 6.15234 21.9238 13.7695 33.8867 13.7695C43.7988 13.7695 50.5859 9.7168 56.1523 4.54102L64.0625-2.63672C65.2344-3.71094 65.5762-4.15039 67.334-4.15039L110.498-4.15039C112.256-4.15039 112.598-3.71094 113.818-2.63672L121.68 4.54102C127.344 9.66797 134.033 13.7695 143.994 13.7695C155.957 13.7695 165.381 6.15234 165.381-7.91016C165.381-14.1602 164.355-20.9473 162.207-27.9785C159.082-38.4277 153.809-52.2461 148.877-62.5977C144.531-71.6797 141.357-77.7344 128.857-80.5176C118.408-82.9102 104.834-84.2285 88.916-84.2285C73.0469-84.2285 59.4238-82.9102 48.9746-80.5176C36.4746-77.7344 33.3496-71.6797 28.9551-62.5977C24.0723-52.2461 18.75-38.4277 15.625-27.9785C13.5254-20.9473 12.4512-14.1602 12.4512-7.91016ZM29.3457-9.7168C29.3457-12.207 29.8828-15.0879 31.2012-19.5801C34.6191-31.2988 40.1855-45.8008 45.0195-56.2012C47.2168-60.9375 48.4863-62.5977 51.709-63.3789C61.2793-65.7227 73.7793-66.8457 88.916-66.8457C104.053-66.8457 116.602-65.7227 126.123-63.3789C129.395-62.5977 130.615-60.9375 132.812-56.2012C137.598-45.8008 143.213-31.2988 146.631-19.5801C147.949-15.0879 148.486-12.207 148.486-9.7168C148.486-5.66406 145.654-3.51562 142.139-3.51562C139.6-3.51562 136.719-4.6875 134.18-6.98242L121.582-18.3594C118.994-20.752 117.09-21.5332 114.209-21.5332L63.623-21.5332C60.791-21.5332 58.8379-20.752 56.2988-18.3594L43.6523-6.98242C41.1621-4.63867 38.2812-3.51562 35.7422-3.51562C32.1777-3.51562 29.3457-5.66406 29.3457-9.7168ZM47.5098-43.4082C47.5098-39.7461 50-37.3535 53.7598-37.3535L59.375-37.3535L59.375-32.1777C59.375-28.3203 61.9629-25.6836 65.7715-25.6836C69.6289-25.6836 72.2168-28.3203 72.2168-32.1777L72.2168-37.3535L77.4414-37.3535C81.4453-37.3535 84.082-39.7461 84.082-43.4082C84.082-47.0215 81.4453-49.4141 77.4414-49.4141L72.2168-49.4141L72.2168-54.5898C72.2168-58.4961 69.6289-61.1328 65.7715-61.1328C61.9629-61.1328 59.375-58.4961 59.375-54.5898L59.375-49.4141L53.7598-49.4141C50-49.4141 47.5098-47.0215 47.5098-43.4082ZM120.117-43.0664C124.707-43.0664 128.271-46.582 128.271-51.1719C128.271-55.8105 124.707-59.375 120.117-59.375C115.527-59.375 111.914-55.8105 111.914-51.1719C111.914-46.582 115.527-43.0664 120.117-43.0664ZM104.883-27.3926C109.473-27.3926 113.037-30.957 113.037-35.498C113.037-40.1367 109.473-43.7012 104.883-43.7012C100.293-43.7012 96.6797-40.1367 96.6797-35.498C96.6797-30.957 100.293-27.3926 104.883-27.3926Z"/>
  </g>
  <g id="Heavy-M" transform="matrix(1 0 0 1 2549.19 1126)">
   <path d="M12.4512-8.34961C12.4512 5.07812 21.4355 12.6465 33.2031 12.6465C42.1387 12.6465 48.6328 8.98438 53.8574 3.85742L61.9629-4.19922C63.1836-5.37109 63.8184-5.85938 65.4785-5.85938L109.521-5.85938C111.23-5.85938 111.816-5.37109 113.037-4.19922L121.143 3.85742C126.465 8.93555 132.861 12.6465 141.797 12.6465C153.613 12.6465 162.549 5.07812 162.549-8.34961C162.549-14.3066 161.475-20.8008 159.424-27.6855C156.348-37.9883 151.074-51.7578 146.094-62.1582C141.797-71.1914 138.867-76.7578 126.904-79.4434C116.748-81.7383 103.32-83.1055 87.5-83.1055C71.6797-83.1055 58.3008-81.7383 48.1445-79.4434C36.1328-76.7578 33.252-71.1914 28.9062-62.1582C23.9746-51.7578 18.7012-37.9883 15.5762-27.6855C13.5254-20.8008 12.4512-14.3066 12.4512-8.34961ZM27.0996-9.66797C27.0996-12.3047 27.7344-15.3809 29.1016-20.0684C32.4707-31.6895 38.0371-46.1914 42.9199-56.6895C45.166-61.5234 46.4355-63.5254 50.3906-64.502C59.7656-66.748 72.3145-67.9688 87.5-67.9688C102.734-67.9688 115.234-66.748 124.658-64.502C128.613-63.5254 129.883-61.5234 132.129-56.6895C136.963-46.1914 142.529-31.6406 145.947-20.0684C147.314-15.3809 147.9-12.3047 147.9-9.66797C147.9-4.98047 144.629-2.34375 140.43-2.34375C137.598-2.34375 134.57-3.71094 131.934-6.25L120.166-17.5781C117.627-20.0684 115.723-20.9961 112.451-20.9961L62.5977-20.9961C59.3262-20.9961 57.373-20.0684 54.8828-17.5781L43.0664-6.25C40.4785-3.66211 37.4023-2.34375 34.6191-2.34375C30.4199-2.34375 27.0996-4.98047 27.0996-9.66797ZM46.5332-43.75C46.5332-40.3809 48.8281-38.2324 52.2949-38.2324L58.6426-38.2324L58.6426-32.2266C58.6426-28.6621 60.9375-26.3184 64.4531-26.3184C67.9199-26.3184 70.2637-28.6621 70.2637-32.2266L70.2637-38.2324L76.2207-38.2324C79.9316-38.2324 82.3242-40.3809 82.3242-43.75C82.3242-47.1191 79.9316-49.3164 76.2207-49.3164L70.2637-49.3164L70.2637-55.2734C70.2637-58.8379 67.9199-61.2305 64.4531-61.2305C60.9375-61.2305 58.6426-58.8379 58.6426-55.2734L58.6426-49.3164L52.2949-49.3164C48.8281-49.3164 46.5332-47.1191 46.5332-43.75ZM118.506-43.6523C122.949-43.6523 126.416-47.0703 126.416-51.5137C126.416-56.0059 122.949-59.4238 118.506-59.4238C114.062-59.4238 110.596-56.0059 110.596-51.5137C110.596-47.0703 114.062-43.6523 118.506-43.6523ZM103.467-28.2715C107.91-28.2715 111.377-31.7383 111.377-36.1328C111.377-40.625 107.91-44.043 103.467-44.043C99.0723-44.043 95.5566-40.625 95.5566-36.1328C95.5566-31.7383 99.0723-28.2715 103.467-28.2715Z"/>
  </g>
  <g id="Bold-M" transform="matrix(1 0 0 1 2254.04 1126)">
   <path d="M12.4512-8.88672C12.4512 3.90625 20.8984 11.4258 32.4707 11.4258C40.2832 11.4258 46.4355 8.1543 51.3184 3.02734L59.668-5.9082C60.8887-7.22656 61.8164-7.8125 63.4277-7.8125L108.447-7.8125C110.059-7.8125 110.986-7.22656 112.207-5.9082L120.557 3.02734C125.439 8.10547 131.592 11.4258 139.404 11.4258C150.977 11.4258 159.424 3.90625 159.424-8.88672C159.424-14.4531 158.301-20.6055 156.299-27.2949C153.271-37.5 147.998-51.2207 143.018-61.6699C138.77-70.6543 136.133-75.6348 124.707-78.2227C114.893-80.4688 101.709-81.8359 85.9375-81.8359C70.166-81.8359 56.9824-80.4688 47.168-78.2227C35.7422-75.6348 33.1055-70.6543 28.8086-61.6699C23.877-51.2207 18.6035-37.5 15.5762-27.2949C13.5254-20.6055 12.4512-14.4531 12.4512-8.88672ZM24.6582-9.61914C24.6582-12.4023 25.2441-15.7227 26.709-20.6055C30.0293-32.0801 35.6445-46.6309 40.5273-57.2266C42.8223-62.207 44.1406-64.5996 48.877-65.7227C58.1055-67.9199 70.6543-69.1895 85.9375-69.1895C101.221-69.1895 113.77-67.9199 122.949-65.7227C127.734-64.5996 129.004-62.207 131.348-57.2266C136.23-46.6309 141.748-32.0801 145.166-20.6055C146.631-15.7227 147.217-12.4023 147.217-9.61914C147.217-4.19922 143.457-1.02539 138.525-1.02539C135.4-1.02539 132.178-2.58789 129.443-5.46875L118.555-16.6992C116.113-19.2871 114.16-20.4102 110.449-20.4102L61.377-20.4102C57.666-20.4102 55.7129-19.2871 53.2715-16.6992L42.3828-5.46875C39.7461-2.53906 36.4746-1.02539 33.3496-1.02539C28.418-1.02539 24.6582-4.19922 24.6582-9.61914ZM45.459-44.1895C45.459-41.1133 47.4609-39.1602 50.6348-39.1602L57.8125-39.1602L57.8125-32.2754C57.8125-29.1016 59.8145-27.002 62.9395-27.002C66.0645-27.002 68.0664-29.1016 68.0664-32.2754L68.0664-39.1602L74.8535-39.1602C78.2227-39.1602 80.3223-41.1133 80.3223-44.1895C80.3223-47.2168 78.2227-49.2188 74.8535-49.2188L68.0664-49.2188L68.0664-56.0547C68.0664-59.2285 66.0645-61.3281 62.9395-61.3281C59.8145-61.3281 57.8125-59.2285 57.8125-56.0547L57.8125-49.2188L50.6348-49.2188C47.4609-49.2188 45.459-47.2168 45.459-44.1895ZM116.699-44.3359C120.996-44.3359 124.316-47.6074 124.316-51.9043C124.316-56.2012 120.996-59.5215 116.699-59.5215C112.451-59.5215 109.082-56.2012 109.082-51.9043C109.082-47.6074 112.451-44.3359 116.699-44.3359ZM101.904-29.2969C106.201-29.2969 109.473-32.5684 109.473-36.8652C109.473-41.1621 106.201-44.4824 101.904-44.4824C97.6562-44.4824 94.2871-41.1621 94.2871-36.8652C94.2871-32.5684 97.6562-29.2969 101.904-29.2969Z"/>
  </g>
  <g id="Semibold-M" transform="matrix(1 0 0 1 1958.43 1126)">
   <path d="M12.4512-9.22852C12.4512 3.07617 20.5566 10.5469 31.9336 10.5469C38.9648 10.5469 44.9707 7.56836 49.5605 2.49023L58.0566-7.12891C59.3262-8.49609 60.4004-9.13086 61.9629-9.13086L107.715-9.13086C109.277-9.13086 110.352-8.49609 111.621-7.12891L120.117 2.49023C124.756 7.56836 130.713 10.5469 137.744 10.5469C149.17 10.5469 157.227 3.07617 157.227-9.22852C157.227-14.502 156.104-20.5078 154.15-27.0508C151.123-37.207 145.898-50.8789 140.918-61.3281C136.67-70.2637 134.18-74.9023 123.193-77.3926C113.574-79.5898 100.537-80.957 84.8633-80.957C69.1406-80.957 56.1035-79.5898 46.5332-77.3926C35.498-74.9023 33.0078-70.2637 28.7598-61.3281C23.7793-50.8789 18.5547-37.207 15.5273-27.0508C13.5742-20.5078 12.4512-14.502 12.4512-9.22852ZM22.9004-9.57031C22.9004-12.4512 23.584-15.918 25.0488-20.9961C28.3691-32.373 33.9844-46.9238 38.916-57.5684C41.2109-62.6465 42.5293-65.332 47.8516-66.6016C56.9336-68.75 69.5312-70.0684 84.8633-70.0684C100.146-70.0684 112.744-68.75 121.826-66.6016C127.148-65.332 128.418-62.6465 130.762-57.5684C135.742-46.9238 141.211-32.3242 144.629-20.9961C146.143-15.918 146.777-12.4512 146.777-9.57031C146.777-3.71094 142.627-0.0976562 137.207-0.0976562C133.887-0.0976562 130.518-1.85547 127.734-4.88281L117.48-16.1133C115.088-18.7988 113.135-20.0195 109.131-20.0195L60.5469-20.0195C56.5918-20.0195 54.5898-18.7988 52.1973-16.1133L41.9434-4.88281C39.209-1.80664 35.791-0.0976562 32.4707-0.0976562C27.0508-0.0976562 22.9004-3.71094 22.9004-9.57031ZM44.7266-44.4824C44.7266-41.6016 46.5332-39.7949 49.4629-39.7949L57.2266-39.7949L57.2266-32.3242C57.2266-29.3945 59.0332-27.4902 61.9141-27.4902C64.7461-27.4902 66.5527-29.3945 66.5527-32.3242L66.5527-39.7949L73.877-39.7949C77.0508-39.7949 78.9551-41.6016 78.9551-44.4824C78.9551-47.3145 77.0508-49.1211 73.877-49.1211L66.5527-49.1211L66.5527-56.5918C66.5527-59.5215 64.7461-61.4258 61.9141-61.4258C59.0332-61.4258 57.2266-59.5215 57.2266-56.5918L57.2266-49.1211L49.4629-49.1211C46.5332-49.1211 44.7266-47.3145 44.7266-44.4824ZM115.479-44.8242C119.629-44.8242 122.852-47.998 122.852-52.1973C122.852-56.3477 119.629-59.6191 115.479-59.6191C111.328-59.6191 108.057-56.3477 108.057-52.1973C108.057-47.998 111.328-44.8242 115.479-44.8242ZM100.83-29.9805C104.98-29.9805 108.203-33.1543 108.203-37.3047C108.203-41.5039 104.98-44.7266 100.83-44.7266C96.6797-44.7266 93.4082-41.5039 93.4082-37.3047C93.4082-33.1543 96.6797-29.9805 100.83-29.9805Z"/>
  </g>
  <g id="Medium-M" transform="matrix(1 0 0 1 1662.55 1126)">
   <path d="M12.4512-9.47266C12.4512 2.44141 20.2637 9.91211 31.543 9.91211C37.9883 9.91211 43.7988 7.12891 48.1934 2.09961L56.8848-8.00781C58.1055-9.47266 59.375-10.1074 60.8887-10.1074L107.129-10.1074C108.643-10.1074 109.912-9.47266 111.133-8.00781L119.824 2.09961C124.219 7.12891 130.029 9.91211 136.475 9.91211C147.754 9.91211 155.566 2.44141 155.566-9.47266C155.566-14.5996 154.443-20.4102 152.539-26.8555C149.512-36.9629 144.287-50.5859 139.307-61.084C135.059-69.9707 132.764-74.3164 122.021-76.7578C112.598-78.9062 99.707-80.3223 84.0332-80.3223C68.3594-80.3223 55.4199-78.9062 45.9961-76.7578C35.3027-74.3164 32.959-69.9707 28.7109-61.084C23.7305-50.5859 18.5059-36.9629 15.4785-26.8555C13.5742-20.4102 12.4512-14.5996 12.4512-9.47266ZM21.6309-9.57031C21.6309-12.5488 22.3145-16.1133 23.8281-21.2891C27.0996-32.5684 32.7637-47.1191 37.6465-57.8613C39.9902-62.9883 41.3574-65.8691 47.1191-67.2363C56.1035-69.3359 68.6523-70.752 84.0332-70.752C99.3652-70.752 111.963-69.3359 120.947-67.2363C126.709-65.8691 127.979-62.9883 130.371-57.8613C135.352-47.1191 140.82-32.5684 144.238-21.2891C145.752-16.1133 146.387-12.5488 146.387-9.57031C146.387-3.27148 141.992 0.585938 136.23 0.585938C132.715 0.585938 129.248-1.26953 126.465-4.49219L116.65-15.625C114.258-18.4082 112.305-19.7266 108.105-19.7266L59.9609-19.7266C55.7129-19.7266 53.7598-18.4082 51.3672-15.625L41.6016-4.49219C38.8184-1.26953 35.3027 0.585938 31.8359 0.585938C26.0254 0.585938 21.6309-3.27148 21.6309-9.57031ZM44.1406-44.7266C44.1406-41.9922 45.8496-40.2832 48.584-40.2832L56.7871-40.2832L56.7871-32.3242C56.7871-29.5898 58.4473-27.832 61.1328-27.832C63.7695-27.832 65.4297-29.5898 65.4297-32.3242L65.4297-40.2832L73.1445-40.2832C76.123-40.2832 77.9297-41.9922 77.9297-44.7266C77.9297-47.3633 76.123-49.0723 73.1445-49.0723L65.4297-49.0723L65.4297-56.9824C65.4297-59.7168 63.7695-61.4746 61.1328-61.4746C58.4473-61.4746 56.7871-59.7168 56.7871-56.9824L56.7871-49.0723L48.584-49.0723C45.8496-49.0723 44.1406-47.3633 44.1406-44.7266ZM114.502-45.166C118.604-45.166 121.729-48.291 121.729-52.3926C121.729-56.4941 118.604-59.668 114.502-59.668C110.498-59.668 107.275-56.4941 107.275-52.3926C107.275-48.291 110.498-45.166 114.502-45.166ZM100-30.5176C104.102-30.5176 107.227-33.6426 107.227-37.6953C107.227-41.7969 104.102-44.9707 100-44.9707C95.9473-44.9707 92.7734-41.7969 92.7734-37.6953C92.7734-33.6426 95.9473-30.5176 100-30.5176Z"/>
  </g>
  <g id="Regular-M" transform="matrix(1 0 0 1 1366.91 1126)">
   <path d="M12.4512-9.81445C12.4512 1.61133 19.873 9.0332 31.0547 9.0332C36.7188 9.0332 42.334 6.5918 46.4355 1.51367L55.2734-9.17969C56.543-10.6934 58.0078-11.4258 59.4727-11.4258L106.396-11.4258C107.861-11.4258 109.326-10.6934 110.596-9.17969L119.434 1.51367C123.535 6.5918 129.15 9.0332 134.814 9.0332C145.996 9.0332 153.418 1.61133 153.418-9.81445C153.418-14.6973 152.295-20.3125 150.391-26.6113C147.412-36.6211 142.188-50.2441 137.207-60.791C133.008-69.5801 130.859-73.584 120.508-75.9277C111.328-78.0273 98.584-79.4434 82.959-79.4434C67.334-79.4434 54.541-78.0273 45.3613-75.9277C35.0098-73.584 32.8613-69.5801 28.6621-60.791C23.6816-50.2441 18.457-36.6211 15.4785-26.6113C13.5742-20.3125 12.4512-14.6973 12.4512-9.81445ZM19.9219-9.52148C19.9219-12.5977 20.6055-16.3086 22.168-21.6309C25.4395-32.8613 31.1035-47.4121 36.0352-58.2031C38.4277-63.4277 39.7461-66.6016 46.0938-68.0664C54.9316-70.166 67.5293-71.582 82.959-71.582C98.3398-71.582 110.938-70.166 119.775-68.0664C126.123-66.6016 127.393-63.4277 129.834-58.2031C134.863-47.4121 140.283-32.8125 143.701-21.6309C145.312-16.3086 145.947-12.5977 145.947-9.52148C145.947-2.7832 141.211 1.46484 134.912 1.46484C131.201 1.46484 127.588-0.488281 124.756-3.95508L115.576-15.0391C113.232-17.8711 111.279-19.2871 106.738-19.2871L59.1309-19.2871C54.5898-19.2871 52.6367-17.8711 50.293-15.0391L41.1133-3.95508C38.2812-0.488281 34.668 1.46484 30.957 1.46484C24.6582 1.46484 19.9219-2.7832 19.9219-9.52148ZM43.4082-45.0195C43.4082-42.4805 44.9219-40.918 47.4609-40.918L56.25-40.918L56.25-32.373C56.25-29.8828 57.666-28.3203 60.1074-28.3203C62.5-28.3203 63.9648-29.8828 63.9648-32.373L63.9648-40.918L72.2168-40.918C74.9512-40.918 76.5625-42.4805 76.5625-45.0195C76.5625-47.4609 74.9512-48.9746 72.2168-48.9746L63.9648-48.9746L63.9648-57.5195C63.9648-60.0098 62.5-61.5234 60.1074-61.5234C57.666-61.5234 56.25-60.0098 56.25-57.5195L56.25-48.9746L47.4609-48.9746C44.9219-48.9746 43.4082-47.4609 43.4082-45.0195ZM113.281-45.6543C117.285-45.6543 120.312-48.6816 120.312-52.6367C120.312-56.6406 117.285-59.7168 113.281-59.7168C109.375-59.7168 106.25-56.6406 106.25-52.6367C106.25-48.6816 109.375-45.6543 113.281-45.6543ZM98.9258-31.1523C102.881-31.1523 105.957-34.2285 105.957-38.1836C105.957-42.1875 102.881-45.2637 98.9258-45.2637C95.0195-45.2637 91.8945-42.1875 91.8945-38.1836C91.8945-34.2285 95.0195-31.1523 98.9258-31.1523Z"/>
  </g>
  <g id="Light-M" transform="matrix(1 0 0 1 1071.05 1126)">
   <path d="M12.4512-9.81445C12.4512 1.07422 19.5312 8.20312 30.1758 8.20312C35.5469 8.20312 40.918 5.81055 44.9219 0.976562L53.9551-10.0098C55.2734-11.6211 56.7383-12.3535 58.3008-12.3535L105.859-12.3535C107.471-12.3535 108.887-11.6211 110.205-10.0098L119.287 0.976562C123.291 5.81055 128.613 8.20312 133.984 8.20312C144.629 8.20312 151.709 1.07422 151.709-9.81445C151.709-14.502 150.586-19.9707 148.682-26.3672C145.703-36.377 140.479-49.9023 135.4-60.6445C131.348-69.1406 129.297-72.8027 119.434-75.0488C110.059-77.1973 97.2168-78.5645 82.0801-78.5645C66.9434-78.5645 54.1504-77.1973 44.7266-75.0488C34.8633-72.8027 32.8125-69.1406 28.7598-60.6445C23.6816-49.9023 18.5059-36.377 15.4785-26.3672C13.623-19.9707 12.4512-14.502 12.4512-9.81445ZM18.2129-9.52148C18.2129-12.6465 18.8965-16.4551 20.752-22.7539C23.7793-33.2031 29.3457-47.5098 34.375-58.5938C36.8164-63.8672 38.3301-67.4316 45.2148-68.9941C54.248-71.1426 67.041-72.5098 82.0801-72.5098C97.168-72.5098 109.912-71.1426 118.945-68.9941C125.83-67.3828 127.344-63.8672 129.834-58.5938C134.961-47.5098 140.332-33.2031 143.457-22.7539C145.312-16.4551 145.947-12.6465 145.947-9.52148C145.947-2.29492 140.967 2.34375 134.082 2.34375C130.176 2.34375 126.318 0.292969 123.291-3.36914L114.111-14.4531C111.865-17.1387 109.912-18.4082 106.055-18.4082L58.1543-18.4082C54.248-18.4082 52.2949-17.1387 50.0977-14.4531L40.8691-3.36914C37.8418 0.292969 34.0332 2.34375 30.127 2.34375C23.1934 2.34375 18.2129-2.29492 18.2129-9.52148ZM42.9688-45.0195C42.9688-43.1152 44.1406-41.9434 46.0938-41.9434L56.25-41.9434L56.25-31.6406C56.25-29.7363 57.4219-28.5645 59.2285-28.5645C61.084-28.5645 62.207-29.7363 62.207-31.6406L62.207-41.9434L72.0703-41.9434C74.1211-41.9434 75.3906-43.1152 75.3906-45.0195C75.3906-46.875 74.1211-48.0957 72.0703-48.0957L62.207-48.0957L62.207-58.3496C62.207-60.2539 61.084-61.4258 59.2285-61.4258C57.4219-61.4258 56.25-60.2539 56.25-58.3496L56.25-48.0957L46.0938-48.0957C44.1406-48.0957 42.9688-46.875 42.9688-45.0195ZM112.305-46.0938C116.016-46.0938 118.896-48.9258 118.896-52.6367C118.896-56.3965 116.016-59.2773 112.305-59.2773C108.594-59.2773 105.713-56.3965 105.713-52.6367C105.713-48.9258 108.594-46.0938 112.305-46.0938ZM97.4121-31.4453C101.172-31.4453 104.053-34.2773 104.053-38.0371C104.053-41.748 101.172-44.6289 97.4121-44.6289C93.75-44.6289 90.8203-41.748 90.8203-38.0371C90.8203-34.2773 93.75-31.4453 97.4121-31.4453Z"/>
  </g>
  <g id="Thin-M" transform="matrix(1 0 0 1 775.441 1126)">
   <path d="M12.4512-9.81445C12.4512 0.341797 19.0918 7.08008 29.0039 7.08008C33.9844 7.08008 39.0137 4.83398 42.8223 0.195312L52.1973-11.1328C53.6133-12.8906 55.0293-13.5742 56.7383-13.5742L105.176-13.5742C106.934-13.5742 108.301-12.8906 109.766-11.1328L119.092 0.195312C122.949 4.83398 127.93 7.08008 132.91 7.08008C142.871 7.08008 149.512 0.341797 149.512-9.81445C149.512-14.3066 148.34-19.5801 146.387-26.0254C143.408-36.0352 138.232-49.5117 133.057-60.4492C129.15-68.6035 127.295-71.7773 118.018-73.877C108.35-76.123 95.459-77.3438 80.957-77.3438C66.4551-77.3438 53.6133-76.123 43.9453-73.877C34.668-71.7773 32.8125-68.6035 28.9062-60.4492C23.7305-49.5117 18.5547-36.0352 15.5273-26.0254C13.623-19.5801 12.4512-14.3066 12.4512-9.81445ZM16.0156-9.52148C16.0156-12.6953 16.6016-16.5527 18.8477-24.2188C21.582-33.6914 26.9531-47.6074 32.1777-59.082C34.668-64.4531 36.4746-68.5059 44.0918-70.2637C53.3203-72.4121 66.3574-73.7305 80.957-73.7305C95.6055-73.7305 108.594-72.4121 117.871-70.2637C125.488-68.457 127.295-64.4531 129.785-59.082C135.059-47.6074 140.332-33.6426 143.115-24.2188C145.361-16.5527 145.947-12.6953 145.947-9.52148C145.947-1.66016 140.674 3.51562 132.959 3.51562C128.76 3.51562 124.658 1.36719 121.387-2.58789L112.158-13.6719C110.107-16.1621 108.154-17.1875 105.127-17.1875L56.8359-17.1875C53.8086-17.1875 51.8555-16.1621 49.8047-13.6719L40.5762-2.58789C37.2559 1.36719 33.1543 3.51562 29.0039 3.51562C21.2891 3.51562 16.0156-1.66016 16.0156-9.52148ZM42.334-45.0684C42.334-43.9941 43.1152-43.2617 44.2383-43.2617L56.2988-43.2617L56.2988-30.7129C56.2988-29.5898 57.0312-28.8086 58.1055-28.8086C59.1797-28.8086 59.9121-29.5898 59.9121-30.7129L59.9121-43.2617L71.875-43.2617C73.0469-43.2617 73.8281-43.9941 73.8281-45.0684C73.8281-46.1426 73.0469-46.9238 71.875-46.9238L59.9121-46.9238L59.9121-59.4238C59.9121-60.5469 59.1797-61.3281 58.1055-61.3281C57.0312-61.3281 56.2988-60.5469 56.2988-59.4238L56.2988-46.9238L44.2383-46.9238C43.1152-46.9238 42.334-46.1426 42.334-45.0684ZM110.986-46.6309C114.355-46.6309 117.041-49.2676 117.041-52.6367C117.041-56.1035 114.355-58.6914 110.986-58.6914C107.617-58.6914 104.932-56.1035 104.932-52.6367C104.932-49.2676 107.617-46.6309 110.986-46.6309ZM95.459-31.7871C98.877-31.7871 101.514-34.375 101.514-37.793C101.514-41.2598 98.877-43.8477 95.459-43.8477C92.0898-43.8477 89.4043-41.2598 89.4043-37.793C89.4043-34.375 92.0898-31.7871 95.459-31.7871Z"/>
  </g>
  <g id="Ultralight-M" transform="matrix(1 0 0 1 479.316 1126)">
   <path d="M12.4512-9.81445C12.4512 0 18.8477 6.49414 28.418 6.49414C33.2031 6.49414 38.0371 4.3457 41.7969-0.195312L51.2695-11.6699C52.7832-13.4766 54.1504-14.1602 55.957-14.1602L104.834-14.1602C106.641-14.1602 108.057-13.4766 109.521-11.6699L118.994-0.195312C122.754 4.3457 127.588 6.49414 132.373 6.49414C141.943 6.49414 148.34 0 148.34-9.81445C148.34-14.209 147.168-19.3359 145.215-25.8301C142.236-35.8887 137.061-49.3164 131.836-60.3516C128.027-68.3105 126.221-71.2402 117.285-73.291C107.471-75.5371 94.5801-76.709 80.4199-76.709C66.2109-76.709 53.3203-75.5371 43.5059-73.291C34.5703-71.2402 32.7637-68.3105 28.9551-60.3516C23.7305-49.3164 18.5547-35.8887 15.5762-25.8301C13.623-19.3359 12.4512-14.209 12.4512-9.81445ZM14.8438-9.52148C14.8438-12.6953 15.4297-16.6504 17.8711-25C20.459-33.8867 25.7324-47.6562 31.0547-59.3262C33.5449-64.7461 35.498-69.0918 43.5059-70.8984C52.8809-73.0957 66.0156-74.3164 80.4199-74.3164C94.7754-74.3164 107.959-73.0957 117.285-70.8984C125.293-69.043 127.246-64.7461 129.736-59.3262C135.107-47.6562 140.332-33.8867 142.969-25C145.41-16.6504 145.947-12.6953 145.947-9.52148C145.947-1.31836 140.527 4.10156 132.373 4.10156C128.076 4.10156 123.828 1.95312 120.361-2.19727L111.133-13.2812C109.18-15.6738 107.227-16.5527 104.639-16.5527L56.1523-16.5527C53.5645-16.5527 51.6113-15.6738 49.6582-13.2812L40.4297-2.19727C36.9629 1.95312 32.7148 4.10156 28.418 4.10156C20.2637 4.10156 14.8438-1.31836 14.8438-9.52148ZM42.041-45.1172C42.041-44.4824 42.5781-43.8965 43.3105-43.8965L56.3477-43.8965L56.3477-30.2246C56.3477-29.541 56.8848-28.9551 57.5195-28.9551C58.2031-28.9551 58.7402-29.541 58.7402-30.2246L58.7402-43.8965L71.7773-43.8965C72.5098-43.8965 73.0469-44.4824 73.0469-45.1172C73.0469-45.752 72.5098-46.2891 71.7773-46.2891L58.7402-46.2891L58.7402-60.0098C58.7402-60.6934 58.2031-61.2305 57.5195-61.2305C56.8848-61.2305 56.3477-60.6934 56.3477-60.0098L56.3477-46.2891L43.3105-46.2891C42.5781-46.2891 42.041-45.752 42.041-45.1172ZM110.303-46.9238C113.525-46.9238 116.064-49.4141 116.064-52.6367C116.064-55.957 113.525-58.3984 110.303-58.3984C107.08-58.3984 104.541-55.957 104.541-52.6367C104.541-49.4141 107.08-46.9238 110.303-46.9238ZM94.4336-31.9824C97.6562-31.9824 100.244-34.4727 100.244-37.6953C100.244-40.9668 97.6562-43.457 94.4336-43.457C91.2109-43.457 88.6719-40.9668 88.6719-37.6953C88.6719-34.4727 91.2109-31.9824 94.4336-31.9824Z"/>
  </g>
  <g id="Black-S" transform="matrix(1 0 0 1 2863.82 696)">
   <path d="M9.76562-13.8672C9.76562-2.88086 17.1387 3.07617 26.5137 3.07617C34.2285 3.07617 39.502-0.0488281 43.8477-4.10156L50.0488-9.81445C50.9766-10.6445 51.2695-10.9863 52.6367-10.9863L86.5234-10.9863C87.8906-10.9863 88.1836-10.6445 89.1113-9.81445L95.3125-4.10156C99.707-0.0976562 104.932 3.07617 112.646 3.07617C122.021 3.07617 129.395-2.88086 129.395-13.8672C129.395-18.75 128.564-24.0234 126.904-29.541C124.463-37.6953 120.312-48.5352 116.455-56.6406C113.037-63.7695 110.596-68.457 100.83-70.6543C92.6758-72.5098 82.0312-73.5352 69.5801-73.5352C57.1289-73.5352 46.4844-72.5098 38.3301-70.6543C28.5645-68.457 26.123-63.7695 22.7051-56.6406C18.8477-48.5352 14.6973-37.6953 12.2559-29.541C10.5957-24.0234 9.76562-18.75 9.76562-13.8672ZM22.8516-15.2344C22.8516-17.1875 23.291-19.4824 24.3164-22.998C27.002-32.1777 31.3477-43.5547 35.1562-51.709C36.8652-55.4199 37.8418-56.7383 40.4297-57.373C47.9004-59.1797 57.7148-60.0586 69.5801-60.0586C81.4453-60.0586 91.2598-59.1797 98.7305-57.373C101.318-56.7383 102.295-55.4199 104.004-51.709C107.764-43.5547 112.158-32.1777 114.844-22.998C115.869-19.4824 116.309-17.1875 116.309-15.2344C116.309-12.0117 114.062-10.3027 111.23-10.3027C109.229-10.3027 106.982-11.2305 104.98-13.0371L95.166-21.9727C93.1641-23.8281 91.6504-24.4629 89.3555-24.4629L49.8047-24.4629C47.5098-24.4629 45.9961-23.8281 43.9941-21.9727L34.1797-13.0371C32.2266-11.1816 29.9316-10.3027 27.9297-10.3027C25.0977-10.3027 22.8516-12.0117 22.8516-15.2344ZM37.1582-41.6504C37.1582-38.8184 39.1113-36.9629 42.041-36.9629L46.4844-36.9629L46.4844-32.8613C46.4844-29.834 48.4863-27.7832 51.4648-27.7832C54.4434-27.7832 56.4453-29.834 56.4453-32.8613L56.4453-36.9629L60.5957-36.9629C63.7207-36.9629 65.7715-38.8184 65.7715-41.6504C65.7715-44.4824 63.7207-46.3379 60.5957-46.3379L56.4453-46.3379L56.4453-50.4395C56.4453-53.4668 54.4434-55.5176 51.4648-55.5176C48.4863-55.5176 46.4844-53.4668 46.4844-50.4395L46.4844-46.3379L42.041-46.3379C39.1113-46.3379 37.1582-44.4824 37.1582-41.6504ZM93.9941-41.4062C97.6074-41.4062 100.391-44.1406 100.391-47.7539C100.391-51.3672 97.6074-54.1504 93.9941-54.1504C90.4297-54.1504 87.5977-51.3672 87.5977-47.7539C87.5977-44.1406 90.4297-41.4062 93.9941-41.4062ZM82.0801-29.1504C85.6934-29.1504 88.4766-31.9336 88.4766-35.498C88.4766-39.1113 85.6934-41.8945 82.0801-41.8945C78.5156-41.8945 75.6836-39.1113 75.6836-35.498C75.6836-31.9336 78.5156-29.1504 82.0801-29.1504Z"/>
  </g>
  <g id="Heavy-S" transform="matrix(1 0 0 1 2568.09 696)">
   <path d="M9.76562-14.209C9.76562-3.66211 16.7969 2.29492 26.123 2.29492C33.0566 2.29492 38.1836-0.537109 42.2852-4.58984L48.6328-10.8887C49.5605-11.8164 50.0488-12.207 51.3672-12.207L85.8398-12.207C87.1582-12.207 87.6465-11.8164 88.5742-10.8887L94.9219-4.58984C99.0723-0.585938 104.102 2.29492 111.084 2.29492C120.361 2.29492 127.441-3.66211 127.441-14.209C127.441-18.8477 126.562-23.9258 124.951-29.3457C122.559-37.4023 118.408-48.1934 114.551-56.3477C111.133-63.4277 108.887-67.7734 99.4629-69.9219C91.5527-71.7285 81.0547-72.7539 68.6035-72.7539C56.1523-72.7539 45.6543-71.7285 37.7441-69.9219C28.3203-67.7734 26.0254-63.4277 22.6562-56.3477C18.7988-48.1934 14.6484-37.4023 12.207-29.3457C10.5957-23.9258 9.76562-18.8477 9.76562-14.209ZM21.3379-15.1855C21.3379-17.2363 21.8262-19.6777 22.8516-23.2422C25.5371-32.4219 29.9316-43.8477 33.6914-52.002C35.4492-55.8105 36.4258-57.373 39.502-58.1055C46.8262-59.8633 56.6406-60.8398 68.6035-60.8398C80.5664-60.8398 90.332-59.8633 97.6562-58.1055C100.732-57.373 101.709-55.8105 103.467-52.002C107.275-43.8477 111.621-32.4219 114.355-23.2422C115.381-19.6777 115.869-17.2363 115.869-15.1855C115.869-11.5234 113.281-9.52148 110.01-9.52148C107.812-9.52148 105.469-10.5469 103.418-12.5488L94.2383-21.4355C92.2852-23.3887 90.7715-24.1699 88.0859-24.1699L49.1211-24.1699C46.4355-24.1699 44.9219-23.3887 42.9199-21.4355L33.7402-12.5488C31.7383-10.5469 29.3457-9.52148 27.1484-9.52148C23.9258-9.52148 21.3379-11.5234 21.3379-15.1855ZM36.4746-41.9434C36.4746-39.2578 38.2812-37.5 41.0645-37.5L45.8984-37.5L45.8984-32.959C45.8984-30.127 47.7539-28.2227 50.5371-28.2227C53.3203-28.2227 55.127-30.127 55.127-32.959L55.127-37.5L59.668-37.5C62.6465-37.5 64.5508-39.2578 64.5508-41.9434C64.5508-44.6289 62.6465-46.3867 59.668-46.3867L55.127-46.3867L55.127-50.8789C55.127-53.7109 53.3203-55.6152 50.5371-55.6152C47.7539-55.6152 45.8984-53.7109 45.8984-50.8789L45.8984-46.3867L41.0645-46.3867C38.2812-46.3867 36.4746-44.6289 36.4746-41.9434ZM92.8711-41.8457C96.3867-41.8457 99.1211-44.4824 99.1211-47.998C99.1211-51.5625 96.3867-54.248 92.8711-54.248C89.4043-54.248 86.6211-51.5625 86.6211-47.998C86.6211-44.4824 89.4043-41.8457 92.8711-41.8457ZM81.1523-29.7852C84.7168-29.7852 87.4023-32.5195 87.4023-35.9863C87.4023-39.502 84.7168-42.2363 81.1523-42.2363C77.6855-42.2363 74.9512-39.502 74.9512-35.9863C74.9512-32.5195 77.6855-29.7852 81.1523-29.7852Z"/>
  </g>
  <g id="Bold-S" transform="matrix(1 0 0 1 2272.5 696)">
   <path d="M9.76562-14.5996C9.76562-4.49219 16.4551 1.46484 25.6348 1.46484C31.7871 1.46484 36.6699-1.07422 40.5273-5.12695L47.0215-12.1094C47.9492-13.0859 48.6816-13.5742 49.9023-13.5742L85.0586-13.5742C86.2793-13.5742 87.0117-13.0859 87.9395-12.1094L94.4824-5.12695C98.3398-1.12305 103.174 1.46484 109.326 1.46484C118.506 1.46484 125.195-4.49219 125.195-14.5996C125.195-18.9941 124.365-23.877 122.803-29.1016C120.41-37.0605 116.26-47.8516 112.402-55.957C109.033-63.0371 106.934-67.041 97.9004-69.0918C90.2344-70.8496 79.9316-71.9238 67.4805-71.9238C55.0293-71.9238 44.7266-70.8496 37.1094-69.0918C28.0273-67.041 25.9277-63.0371 22.5586-55.957C18.7012-47.8516 14.5996-37.0605 12.207-29.1016C10.6445-23.877 9.76562-18.9941 9.76562-14.5996ZM19.6289-15.1855C19.6289-17.334 20.166-19.9219 21.1914-23.5352C23.877-32.7148 28.3203-44.1406 32.0801-52.3926C33.8867-56.25 34.8633-58.0566 38.4766-58.9355C45.6543-60.6445 55.4199-61.6699 67.4805-61.6699C79.541-61.6699 89.3066-60.6445 96.4844-58.9355C100.146-58.0566 101.074-56.25 102.881-52.3926C106.689-44.1406 111.035-32.666 113.77-23.5352C114.844-19.9219 115.332-17.334 115.332-15.1855C115.332-11.0352 112.402-8.59375 108.691-8.59375C106.25-8.59375 103.809-9.81445 101.709-12.0117L93.2129-20.8496C91.2598-22.9004 89.7461-23.8281 86.6699-23.8281L48.291-23.8281C45.2148-23.8281 43.7012-22.9004 41.748-20.8496L33.252-12.0117C31.2012-9.81445 28.7109-8.59375 26.3184-8.59375C22.5586-8.59375 19.6289-11.0352 19.6289-15.1855ZM35.6934-42.2852C35.6934-39.6973 37.3535-38.0859 39.9414-38.0859L45.2637-38.0859L45.2637-33.1055C45.2637-30.4688 46.9238-28.7598 49.5117-28.7598C52.0508-28.7598 53.7109-30.4688 53.7109-33.1055L53.7109-38.0859L58.6426-38.0859C61.4258-38.0859 63.1836-39.6973 63.1836-42.2852C63.1836-44.7754 61.4258-46.3867 58.6426-46.3867L53.7109-46.3867L53.7109-51.3672C53.7109-54.0039 52.0508-55.7129 49.5117-55.7129C46.9238-55.7129 45.2637-54.0039 45.2637-51.3672L45.2637-46.3867L39.9414-46.3867C37.3535-46.3867 35.6934-44.7754 35.6934-42.2852ZM91.6016-42.2852C95.0684-42.2852 97.6562-44.873 97.6562-48.3398C97.6562-51.7578 95.0684-54.3945 91.6016-54.3945C88.2324-54.3945 85.5957-51.7578 85.5957-48.3398C85.5957-44.873 88.2324-42.2852 91.6016-42.2852ZM80.1758-30.5176C83.5938-30.5176 86.1816-33.1543 86.1816-36.5723C86.1816-39.9902 83.5938-42.627 80.1758-42.627C76.8066-42.627 74.1211-39.9902 74.1211-36.5723C74.1211-33.1543 76.8066-30.5176 80.1758-30.5176Z"/>
  </g>
  <g id="Semibold-S" transform="matrix(1 0 0 1 1976.54 696)">
   <path d="M9.76562-14.8438C9.76562-5.07812 16.2109 0.878906 25.3418 0.878906C30.9082 0.878906 35.6445-1.46484 39.3066-5.51758L45.8984-12.9883C46.8262-14.0137 47.7539-14.502 48.9258-14.502L84.5215-14.502C85.6934-14.502 86.6211-14.0137 87.5488-12.9883L94.1895-5.51758C97.8027-1.46484 102.539 0.878906 108.154 0.878906C117.236 0.878906 123.682-5.07812 123.682-14.8438C123.682-19.043 122.803-23.7793 121.289-28.9062C118.896-36.8164 114.795-47.5586 110.938-55.7129C107.568-62.793 105.615-66.5527 96.8262-68.5059C89.3555-70.2148 79.1992-71.3379 66.748-71.3379C54.248-71.3379 44.0918-70.2148 36.6211-68.5059C27.832-66.5527 25.8789-62.793 22.5098-55.7129C18.6523-47.5586 14.5508-36.8164 12.1582-28.9062C10.6445-23.7793 9.76562-19.043 9.76562-14.8438ZM18.457-15.1367C18.457-17.3828 18.9941-20.0684 20.0684-23.7305C22.7539-32.8613 27.1973-44.3848 31.0059-52.6367C32.8125-56.543 33.7402-58.5449 37.793-59.5215C44.8242-61.1816 54.5898-62.2559 66.748-62.2559C78.8574-62.2559 88.623-61.1816 95.7031-59.5215C99.707-58.5449 100.635-56.543 102.49-52.6367C106.299-44.3848 110.645-32.8613 113.379-23.7305C114.453-20.0684 114.99-17.3828 114.99-15.1367C114.99-10.6445 111.816-7.95898 107.764-7.95898C105.176-7.95898 102.637-9.32617 100.537-11.6211L92.5293-20.4102C90.5762-22.6074 89.0625-23.584 85.6934-23.584L47.7539-23.584C44.4336-23.584 42.8711-22.6074 40.918-20.4102L32.9102-11.6211C30.8594-9.27734 28.2715-7.95898 25.7324-7.95898C21.6309-7.95898 18.457-10.6445 18.457-15.1367ZM35.1562-42.4805C35.1562-40.0391 36.7188-38.4766 39.209-38.4766L44.8242-38.4766L44.8242-33.2031C44.8242-30.6641 46.3379-29.1016 48.7793-29.1016C51.1719-29.1016 52.6855-30.6641 52.6855-33.2031L52.6855-38.4766L57.9102-38.4766C60.5957-38.4766 62.207-40.0391 62.207-42.4805C62.207-44.873 60.5957-46.3867 57.9102-46.3867L52.6855-46.3867L52.6855-51.709C52.6855-54.1992 51.1719-55.7617 48.7793-55.7617C46.3379-55.7617 44.8242-54.1992 44.8242-51.709L44.8242-46.3867L39.209-46.3867C36.7188-46.3867 35.1562-44.873 35.1562-42.4805ZM90.7715-42.627C94.0918-42.627 96.6797-45.166 96.6797-48.5352C96.6797-51.8555 94.0918-54.4922 90.7715-54.4922C87.4512-54.4922 84.8633-51.8555 84.8633-48.5352C84.8633-45.166 87.4512-42.627 90.7715-42.627ZM79.4434-31.0547C82.8125-31.0547 85.4004-33.5938 85.4004-36.9629C85.4004-40.2832 82.8125-42.9199 79.4434-42.9199C76.1719-42.9199 73.5352-40.2832 73.5352-36.9629C73.5352-33.5938 76.1719-31.0547 79.4434-31.0547Z"/>
  </g>
  <g id="Medium-S" transform="matrix(1 0 0 1 1680.42 696)">
   <path d="M9.76562-15.0879C9.76562-5.51758 16.0156 0.439453 25.0977 0.439453C30.2246 0.439453 34.8633-1.75781 38.3789-5.76172L45.0684-13.623C45.9961-14.6973 47.0215-15.2344 48.1445-15.2344L84.1309-15.2344C85.2539-15.2344 86.2793-14.6973 87.207-13.623L93.9453-5.76172C97.4121-1.75781 102.051 0.439453 107.227 0.439453C116.309 0.439453 122.51-5.51758 122.51-15.0879C122.51-19.1406 121.68-23.7305 120.166-28.8086C117.773-36.6699 113.672-47.3633 109.814-55.5664C106.445-62.5977 104.59-66.1621 95.9961-68.1152C88.7207-69.7754 78.6133-70.8984 66.1621-70.8984C53.6621-70.8984 43.6035-69.7754 36.2793-68.1152C27.6855-66.1621 25.8301-62.5977 22.4609-55.5664C18.6035-47.3633 14.502-36.6699 12.1582-28.8086C10.6445-23.7305 9.76562-19.1406 9.76562-15.0879ZM17.5781-15.1367C17.5781-17.4316 18.1641-20.2148 19.1895-23.877C21.875-33.0078 26.3672-44.5312 30.127-52.7832C31.9824-56.7871 32.959-58.9355 37.2559-59.9121C44.1895-61.5723 53.9551-62.6953 66.1621-62.6953C78.3203-62.6953 88.0859-61.5723 95.0684-59.9121C99.3652-58.9355 100.293-56.7871 102.148-52.7832C106.006-44.5312 110.303-33.0078 113.086-23.877C114.209-20.2148 114.697-17.4316 114.697-15.1367C114.697-10.4004 111.328-7.51953 107.031-7.51953C104.395-7.51953 101.758-8.93555 99.6094-11.377L91.9922-20.1172C90.0879-22.3145 88.5254-23.4375 84.9609-23.4375L47.3633-23.4375C43.7988-23.4375 42.2363-22.3145 40.332-20.1172L32.666-11.377C30.5664-8.93555 27.9297-7.51953 25.2441-7.51953C20.9473-7.51953 17.5781-10.4004 17.5781-15.1367ZM34.7656-42.6758C34.7656-40.2832 36.2305-38.8184 38.623-38.8184L44.4824-38.8184L44.4824-33.252C44.4824-30.8594 45.8984-29.3945 48.2422-29.3945C50.5371-29.3945 51.9531-30.8594 51.9531-33.252L51.9531-38.8184L57.373-38.8184C59.9609-38.8184 61.4746-40.2832 61.4746-42.6758C61.4746-44.9707 59.9609-46.4355 57.373-46.4355L51.9531-46.4355L51.9531-51.9531C51.9531-54.3457 50.5371-55.8105 48.2422-55.8105C45.8984-55.8105 44.4824-54.3457 44.4824-51.9531L44.4824-46.4355L38.623-46.4355C36.2305-46.4355 34.7656-44.9707 34.7656-42.6758ZM90.0879-42.8711C93.4082-42.8711 95.9473-45.3613 95.9473-48.6816C95.9473-52.002 93.4082-54.541 90.0879-54.541C86.8652-54.541 84.2773-52.002 84.2773-48.6816C84.2773-45.3613 86.8652-42.8711 90.0879-42.8711ZM78.9062-31.4453C82.2266-31.4453 84.7656-33.9355 84.7656-37.2559C84.7656-40.5273 82.2266-43.1152 78.9062-43.1152C75.6836-43.1152 73.0957-40.5273 73.0957-37.2559C73.0957-33.9355 75.6836-31.4453 78.9062-31.4453Z"/>
  </g>
  <g id="Regular-S" transform="matrix(1 0 0 1 1384.44 696)">
   <path d="M9.76562-15.332C9.76562-6.10352 15.7715-0.146484 24.7559-0.146484C29.3457-0.146484 33.8379-2.09961 37.1582-6.15234L43.9941-14.4531C44.9219-15.5762 46.0938-16.1621 47.168-16.1621L83.5938-16.1621C84.7168-16.1621 85.8887-15.5762 86.8164-14.4531L93.6523-6.15234C96.9238-2.09961 101.416-0.146484 106.006-0.146484C115.039-0.146484 121.045-6.10352 121.045-15.332C121.045-19.1895 120.166-23.6816 118.701-28.6133C116.357-36.4258 112.256-47.1191 108.35-55.3223C105.029-62.3535 103.271-65.6738 94.9707-67.5293C87.8418-69.1406 77.8809-70.3125 65.3809-70.3125C52.9297-70.3125 42.9688-69.1406 35.8398-67.5293C27.5391-65.6738 25.7812-62.3535 22.4121-55.3223C18.5547-47.1191 14.4531-36.4258 12.1094-28.6133C10.6445-23.6816 9.76562-19.1895 9.76562-15.332ZM16.4551-15.0879C16.4551-17.4805 16.9922-20.3613 18.0664-24.0723C20.752-33.2031 25.2441-44.7266 29.0527-53.0273C30.9082-57.0801 31.8359-59.4238 36.5234-60.498C43.4082-62.1094 53.125-63.2812 65.3809-63.2812C77.6367-63.2812 87.4023-62.1094 94.2383-60.498C98.9258-59.4238 99.8535-57.0801 101.758-53.0273C105.615-44.7266 109.912-33.1543 112.695-24.0723C113.818-20.3613 114.355-17.4805 114.355-15.0879C114.355-10.0098 110.742-6.88477 106.104-6.88477C103.32-6.88477 100.586-8.39844 98.4375-10.9863L91.2598-19.6777C89.4043-22.0215 87.8418-23.1934 83.9844-23.1934L46.8262-23.1934C42.9688-23.1934 41.4062-22.0215 39.502-19.6777L32.3242-10.9863C30.2246-8.39844 27.4902-6.88477 24.6582-6.88477C20.0195-6.88477 16.4551-10.0098 16.4551-15.0879ZM34.2773-42.8711C34.2773-40.5762 35.5957-39.209 37.8906-39.209L44.043-39.209L44.043-33.3496C44.043-31.1035 45.3125-29.7363 47.5098-29.7363C49.6582-29.7363 50.9277-31.1035 50.9277-33.3496L50.9277-39.209L56.6895-39.209C59.1309-39.209 60.5469-40.5762 60.5469-42.8711C60.5469-45.0684 59.1309-46.4355 56.6895-46.4355L50.9277-46.4355L50.9277-52.2949C50.9277-54.541 49.6582-55.9082 47.5098-55.9082C45.3125-55.9082 44.043-54.541 44.043-52.2949L44.043-46.4355L37.8906-46.4355C35.5957-46.4355 34.2773-45.0684 34.2773-42.8711ZM89.2578-43.1641C92.4805-43.1641 94.9707-45.6543 94.9707-48.877C94.9707-52.0996 92.4805-54.6387 89.2578-54.6387C86.084-54.6387 83.5449-52.0996 83.5449-48.877C83.5449-45.6543 86.084-43.1641 89.2578-43.1641ZM78.2227-31.9336C81.4453-31.9336 83.9355-34.375 83.9355-37.5977C83.9355-40.8691 81.4453-43.3594 78.2227-43.3594C75.0488-43.3594 72.5586-40.8691 72.5586-37.5977C72.5586-34.375 75.0488-31.9336 78.2227-31.9336Z"/>
  </g>
  <g id="Light-S" transform="matrix(1 0 0 1 1088.48 696)">
   <path d="M9.76562-15.332C9.76562-6.5918 15.4785-0.878906 23.9746-0.878906C28.3203-0.878906 32.6172-2.7832 35.791-6.64062L42.7734-15.1855C43.7988-16.4062 44.9219-16.9434 46.1426-16.9434L83.1543-16.9434C84.375-16.9434 85.498-16.4062 86.5234-15.1855L93.5059-6.64062C96.6797-2.7832 100.977-0.878906 105.322-0.878906C113.818-0.878906 119.531-6.5918 119.531-15.332C119.531-19.043 118.652-23.3887 117.139-28.3691C114.795-36.2305 110.742-46.875 106.787-55.1758C103.564-61.9629 101.904-64.9414 93.9941-66.748C86.7188-68.4082 76.709-69.5312 64.6484-69.5312C52.5879-69.5312 42.5781-68.4082 35.3027-66.748C27.3926-64.9414 25.7324-61.9629 22.5098-55.1758C18.5547-46.875 14.502-36.2305 12.1582-28.3691C10.6445-23.3887 9.76562-19.043 9.76562-15.332ZM14.9414-15.0879C14.9414-17.5293 15.4785-20.459 16.7969-25.0488C19.2871-33.4961 23.6816-44.8242 27.5879-53.3691C29.4434-57.5195 30.6152-60.1562 35.791-61.3281C42.7734-62.9883 52.6855-64.0625 64.6484-64.0625C76.6113-64.0625 86.5234-62.9883 93.5059-61.3281C98.6816-60.1074 99.8047-57.5195 101.709-53.3691C105.713-44.8242 109.912-33.4961 112.5-25.0488C113.867-20.459 114.355-17.5293 114.355-15.0879C114.355-9.61914 110.547-6.10352 105.371-6.10352C102.393-6.10352 99.4629-7.71484 97.168-10.498L89.9902-19.1895C88.1836-21.3379 86.6211-22.4121 83.3496-22.4121L45.9473-22.4121C42.6758-22.4121 41.1133-21.3379 39.3066-19.1895L32.1289-10.498C29.834-7.71484 26.9043-6.10352 23.9258-6.10352C18.75-6.10352 14.9414-9.61914 14.9414-15.0879ZM33.8379-42.9199C33.8379-41.1621 34.8633-40.0879 36.6211-40.0879L44.0918-40.0879L44.0918-32.7148C44.0918-31.0059 45.0684-29.9316 46.7773-29.9316C48.3887-29.9316 49.4141-31.0059 49.4141-32.7148L49.4141-40.0879L56.543-40.0879C58.3984-40.0879 59.5215-41.1621 59.5215-42.9199C59.5215-44.5801 58.3984-45.6543 56.543-45.6543L49.4141-45.6543L49.4141-53.0273C49.4141-54.7363 48.3887-55.8105 46.7773-55.8105C45.0684-55.8105 44.0918-54.7363 44.0918-53.0273L44.0918-45.6543L36.6211-45.6543C34.8633-45.6543 33.8379-44.5801 33.8379-42.9199ZM88.3789-43.5547C91.4062-43.5547 93.7012-45.8496 93.7012-48.877C93.7012-51.9043 91.4062-54.248 88.3789-54.248C85.4004-54.248 83.0566-51.9043 83.0566-48.877C83.0566-45.8496 85.4004-43.5547 88.3789-43.5547ZM76.9043-32.1777C79.9316-32.1777 82.2266-34.4727 82.2266-37.4512C82.2266-40.5273 79.9316-42.8223 76.9043-42.8223C73.9258-42.8223 71.582-40.5273 71.582-37.4512C71.582-34.4727 73.9258-32.1777 76.9043-32.1777Z"/>
  </g>
  <g id="Thin-S" transform="matrix(1 0 0 1 792.75 696)">
   <path d="M9.76562-15.332C9.76562-7.22656 15.0391-1.85547 22.9492-1.85547C26.9531-1.85547 30.957-3.66211 33.9844-7.32422L41.2109-16.1133C42.334-17.4805 43.457-18.0176 44.7754-18.0176L82.5684-18.0176C83.8867-18.0176 85.0098-17.4805 86.084-16.1133L93.3594-7.32422C96.3867-3.66211 100.391-1.85547 104.346-1.85547C112.256-1.85547 117.578-7.22656 117.578-15.332C117.578-18.8965 116.65-23.0469 115.137-28.0762C112.793-35.9375 108.74-46.5332 104.688-55.0293C101.611-61.4746 100.098-64.0625 92.7246-65.7227C85.2051-67.4805 75.1465-68.457 63.6719-68.457C52.1973-68.457 42.0898-67.4805 34.5703-65.7227C27.1973-64.0625 25.7324-61.4746 22.6074-55.0293C18.6035-46.5332 14.502-35.9375 12.1582-28.0762C10.6934-23.0469 9.76562-18.8965 9.76562-15.332ZM12.9883-15.0879C12.9883-17.5293 13.4277-20.5566 15.1367-26.3184C17.334-33.9355 21.582-44.9219 25.6348-53.8086C27.5879-58.0078 28.9551-61.084 34.7656-62.4512C41.9922-64.1113 52.1484-65.1367 63.6719-65.1367C75.1953-65.1367 85.3516-64.1113 92.5781-62.4512C98.3887-61.084 99.7559-58.0078 101.709-53.8086C105.811-44.9219 109.961-33.8867 112.207-26.3184C113.867-20.5566 114.355-17.5293 114.355-15.0879C114.355-9.0332 110.303-5.07812 104.395-5.07812C101.172-5.07812 97.998-6.73828 95.459-9.81445L88.2324-18.5059C86.6211-20.459 85.0586-21.3379 82.5684-21.3379L44.7754-21.3379C42.2363-21.3379 40.7227-20.459 39.0625-18.5059L31.8848-9.81445C29.3457-6.73828 26.1719-5.07812 22.9492-5.07812C17.041-5.07812 12.9883-9.0332 12.9883-15.0879ZM33.3008-42.9199C33.3008-41.9434 33.9844-41.2598 35.0098-41.2598L44.0918-41.2598L44.0918-31.8848C44.0918-30.8594 44.7754-30.1758 45.752-30.1758C46.7285-30.1758 47.3633-30.8594 47.3633-31.8848L47.3633-41.2598L56.3477-41.2598C57.4707-41.2598 58.1543-41.9434 58.1543-42.9199C58.1543-43.9453 57.4707-44.6289 56.3477-44.6289L47.3633-44.6289L47.3633-53.9551C47.3633-54.9805 46.7285-55.7129 45.752-55.7129C44.7754-55.7129 44.0918-54.9805 44.0918-53.9551L44.0918-44.6289L35.0098-44.6289C33.9844-44.6289 33.3008-43.9453 33.3008-42.9199ZM87.207-44.043C89.9414-44.043 92.041-46.1426 92.041-48.877C92.041-51.6602 89.9414-53.7598 87.207-53.7598C84.5215-53.7598 82.373-51.6602 82.373-48.877C82.373-46.1426 84.5215-44.043 87.207-44.043ZM75.1953-32.4707C77.8809-32.4707 80.0293-34.5703 80.0293-37.3047C80.0293-40.0391 77.8809-42.1387 75.1953-42.1387C72.4609-42.1387 70.3125-40.0391 70.3125-37.3047C70.3125-34.5703 72.4609-32.4707 75.1953-32.4707Z"/>
  </g>
  <g id="Ultralight-S" transform="matrix(1 0 0 1 496.552 696)">
   <path d="M9.76562-15.332C9.76562-7.51953 14.8438-2.39258 22.4121-2.39258C26.2207-2.39258 30.0781-4.10156 33.0078-7.66602L40.4297-16.6504C41.6016-18.0176 42.6758-18.5547 44.043-18.5547L82.2266-18.5547C83.6426-18.5547 84.7168-18.0176 85.8887-16.6504L93.2617-7.66602C96.2402-4.10156 100.049-2.39258 103.857-2.39258C111.475-2.39258 116.553-7.51953 116.553-15.332C116.553-18.75 115.625-22.8516 114.111-27.9297C111.768-35.791 107.715-46.3379 103.613-54.9316C100.635-61.2305 99.1699-63.5742 92.0898-65.1855C84.4727-66.9434 74.3652-67.9199 63.1348-67.9199C51.9531-67.9199 41.8457-66.9434 34.2285-65.1855C27.0996-63.5742 25.6836-61.2305 22.7051-54.9316C18.6035-46.3379 14.5508-35.791 12.207-27.9297C10.6934-22.8516 9.76562-18.75 9.76562-15.332ZM11.9629-15.0879C11.9629-17.5781 12.4023-20.6543 14.2578-27.002C16.3574-34.1309 20.5078-44.9707 24.6582-54.0527C26.6113-58.3008 28.0762-61.6211 34.2285-62.9883C41.5527-64.6973 51.8066-65.6738 63.1348-65.6738C74.4629-65.6738 84.7656-64.6973 92.041-62.9883C98.2422-61.5723 99.707-58.3008 101.66-54.0527C105.859-44.9707 109.961-34.1309 112.061-27.002C113.916-20.6543 114.355-17.5781 114.355-15.0879C114.355-8.74023 110.156-4.54102 103.857-4.54102C100.537-4.54102 97.2656-6.25 94.5801-9.47266L87.3535-18.1641C85.791-20.0195 84.2773-20.8008 82.1289-20.8008L44.1895-20.8008C42.041-20.8008 40.5273-20.0195 38.9648-18.1641L31.7383-9.47266C29.0527-6.25 25.7812-4.54102 22.4121-4.54102C16.1621-4.54102 11.9629-8.74023 11.9629-15.0879ZM33.0078-42.9688C33.0078-42.334 33.4961-41.8457 34.1797-41.8457L44.1406-41.8457L44.1406-31.4453C44.1406-30.7617 44.6289-30.2734 45.2148-30.2734C45.8496-30.2734 46.3379-30.7617 46.3379-31.4453L46.3379-41.8457L56.25-41.8457C56.9336-41.8457 57.4219-42.334 57.4219-42.9688C57.4219-43.6035 56.9336-44.0918 56.25-44.0918L46.3379-44.0918L46.3379-54.4922C46.3379-55.127 45.8496-55.6152 45.2148-55.6152C44.6289-55.6152 44.1406-55.127 44.1406-54.4922L44.1406-44.0918L34.1797-44.0918C33.4961-44.0918 33.0078-43.6035 33.0078-42.9688ZM86.6211-44.3359C89.209-44.3359 91.2109-46.2891 91.2109-48.877C91.2109-51.5137 89.209-53.4668 86.6211-53.4668C84.0332-53.4668 82.0312-51.5137 82.0312-48.877C82.0312-46.2891 84.0332-44.3359 86.6211-44.3359ZM74.2676-32.6172C76.8555-32.6172 78.8574-34.6191 78.8574-37.1582C78.8574-39.7949 76.8555-41.7969 74.2676-41.7969C71.7285-41.7969 69.6777-39.7949 69.6777-37.1582C69.6777-34.6191 71.7285-32.6172 74.2676-32.6172Z"/>
  </g>
 </g>
</svg>
